<svg width="74" height="74" viewBox="0 0 74 74" fill="none" xmlns="http://www.w3.org/2000/svg">
<rect x="1" y="1" width="72" height="72" rx="5" fill="#FFFEF7"/>
<g clip-path="url(#clip0_3811_69911)">
<path fill-rule="evenodd" clip-rule="evenodd" d="M54.3164 26.8745C60.0193 36.6273 57.8083 48.5278 49.3755 53.4588L45.1358 55.9379C24.2422 66.4672 5.0384 33.6614 24.5321 20.5954C25.9298 19.7781 27.3275 18.9608 28.7252 18.1435C37.158 13.2125 48.6135 17.1216 54.3164 26.8745Z" fill="#DEC093"/>
<path fill-rule="evenodd" clip-rule="evenodd" d="M23.3184 23.4727C20.8279 25.7 19.2767 28.3576 18.5286 31.2125L20.9514 29.7958C21.3413 27.5046 22.1368 25.3723 23.3184 23.4727ZM18.1202 33.2227C18.0393 33.8327 17.992 34.4647 17.9758 35.0786L20.6315 33.5257C20.6321 32.9209 20.6483 32.3071 20.6982 31.7153L18.1202 33.2227ZM18.0114 36.8501C18.1772 39.3789 18.861 41.9384 19.9358 44.3109L22.7312 42.6763C21.6201 40.2416 20.9636 37.7288 20.7292 35.2609L18.0114 36.8501ZM20.63 45.6764C20.8779 46.1358 21.1321 46.5706 21.3955 47.021L24.2064 45.3774C24.0638 45.169 23.9276 44.936 23.8004 44.7186C23.6733 44.5012 23.5461 44.2837 23.4255 44.0418L20.63 45.6764ZM22.2606 48.2866C23.7856 50.3959 25.6808 52.247 27.828 53.638L30.5458 52.0488C28.5009 50.6188 26.6328 48.8142 25.056 46.652L22.2606 48.2866ZM29.3298 54.5313C29.8882 54.8092 30.4622 55.0778 31.0335 55.3065L33.6115 53.799C33.0713 53.5523 32.5284 53.2654 32.001 52.9694L29.3298 54.5313ZM32.9948 55.9519C35.8406 56.6845 38.9174 56.6359 42.0889 55.5733C39.8448 55.6559 37.5964 55.3035 35.4175 54.5353L32.9948 55.9519Z" fill="#FFFEF7"/>
<path fill-rule="evenodd" clip-rule="evenodd" d="M53.0122 27.6364C58.2884 36.6594 56.3224 47.6246 48.6195 52.1288C40.9167 56.633 30.3965 52.969 25.1203 43.946C19.8442 34.923 21.8101 23.9578 29.513 19.4536C37.216 14.9494 47.7361 18.6134 53.0122 27.6364ZM51.6923 28.4083C56.5416 36.7014 54.8298 46.7469 47.8568 50.8243C40.8837 54.9017 31.2896 51.4672 26.4403 43.1741C21.591 34.881 23.3119 24.851 30.2849 20.7736C37.2579 16.6962 46.843 20.1152 51.6923 28.4083Z" fill="#FFFEF7"/>
<path d="M47.6608 49.8138C41.6086 53.3528 31.9635 50.1078 27.4998 42.4742C23.0361 34.8405 24.9326 25.4274 30.9848 21.8884C37.037 18.3495 46.3092 21.1606 50.7729 28.7942C55.2366 36.4279 53.713 46.2749 47.6608 49.8138Z" fill="#FFFEF7"/>
<path d="M43.7004 41.6489C43.417 41.8073 43.1366 41.9452 42.859 42.0627C42.5843 42.1596 42.3169 42.242 42.0568 42.3097L43.1309 44.5753L42.0272 45.4062L40.6493 42.5183C39.6464 42.5229 38.6781 42.2454 37.7444 41.6856C36.8107 41.1259 35.9482 40.3204 35.1569 39.2692C34.4447 38.3231 33.9591 37.3619 33.7001 36.3858C33.444 35.3892 33.4203 34.4097 33.6292 33.4474C33.838 32.4851 34.3043 31.5851 35.0279 30.7476L34.1607 28.9027L35.2645 28.0718L36.0613 29.7502C36.3182 29.5568 36.5738 29.3736 36.8278 29.2006C37.0819 29.0277 37.317 28.8782 37.5332 28.752L36.7012 26.9904L37.8049 26.1595L38.747 28.1403C38.9895 28.0492 39.235 27.9742 39.4834 27.9153C39.7347 27.8359 39.989 27.7726 40.2462 27.7254L40.5826 29.4484C40.4101 29.4868 40.2319 29.5295 40.0477 29.5766C39.8665 29.6032 39.6824 29.6503 39.4954 29.7179L44.0999 39.3719C44.5788 39.0115 44.9991 38.6218 45.361 38.2031C45.7228 37.7843 46.0612 37.3466 46.3762 36.8899L47.3521 38.1864C47.0635 38.6782 46.7222 39.1364 46.3282 39.561C45.9459 39.9769 45.4453 40.4178 44.8262 40.8838L45.6714 42.663L44.5676 43.4938L43.7004 41.6489ZM35.8863 32.5443C35.5891 33.0975 35.422 33.6899 35.3851 34.3215C35.351 34.9327 35.4399 35.5611 35.6515 36.207C35.8749 36.844 36.2283 37.4837 36.7119 38.1261C37.1427 38.6985 37.6026 39.1757 38.0915 39.5579C38.5805 39.9401 39.0942 40.2213 39.6325 40.4017L35.8863 32.5443ZM38.2331 30.2289C38.0987 30.2934 37.9731 30.3697 37.8563 30.4576C37.7307 30.5338 37.6037 30.6203 37.4752 30.717C37.3584 30.8049 37.2402 30.9031 37.1205 31.0115C37.0125 31.1111 36.9088 31.2165 36.8096 31.3278L41.2337 40.5962C41.5201 40.5636 41.8037 40.5148 42.0843 40.45C42.3677 40.3647 42.6555 40.2487 42.9477 40.102L38.2331 30.2289Z" fill="#DEC093"/>
</g>
<rect x="1" y="1" width="72" height="72" rx="5" stroke="#F4E7CE" stroke-width="2"/>
<defs>
<clipPath id="clip0_3811_69911">
<rect width="40.9349" height="40.9349" fill="white" transform="translate(44.3369 9) rotate(59.6834)"/>
</clipPath>
</defs>
</svg>
