<svg width="79" height="78" viewBox="0 0 79 78" fill="none" xmlns="http://www.w3.org/2000/svg">
<path d="M39.5111 77.8777C60.791 77.8777 78.0418 60.627 78.0418 39.3471C78.0418 18.0672 60.791 0.816406 39.5111 0.816406C18.2312 0.816406 0.980469 18.0672 0.980469 39.3471C0.980469 60.627 18.2312 77.8777 39.5111 77.8777Z" fill="#DB3C17"/>
<path d="M35.5357 62.677C51.3366 62.677 64.1457 49.8678 64.1457 34.067C64.1457 18.2661 51.3366 5.45703 35.5357 5.45703C19.7349 5.45703 6.92578 18.2661 6.92578 34.067C6.92578 49.8678 19.7349 62.677 35.5357 62.677Z" fill="#CA663E"/>
<path d="M51.6516 9.05734C42.9217 3.41267 32.1736 3.50546 23.0416 8.2841C18.6958 10.4937 14.8679 13.5996 11.8103 17.3969C8.75271 21.1942 6.53501 25.5966 5.30346 30.3138C3.8575 35.626 12.3632 36.7781 13.8091 31.5278C17.2655 18.8157 34.0526 7.81246 46.4168 15.8155C51.0098 18.8157 56.2911 12.0653 51.6516 9.05734Z" fill="#EB9169"/>
</svg>
