<svg width="54" height="30" viewBox="0 0 54 30" fill="none" xmlns="http://www.w3.org/2000/svg">
<path d="M44.1599 0.548828H9.27891C4.15431 0.548828 0 4.70315 0 9.82775V20.5913C0 25.7159 4.15431 29.8702 9.27891 29.8702H44.1599C49.2845 29.8702 53.4388 25.7159 53.4388 20.5913V9.82775C53.4388 4.70315 49.2845 0.548828 44.1599 0.548828Z" fill="#DB3C17"/>
<path d="M36.8525 0.781403H10.1911C5.06648 0.781403 0.91217 4.93571 0.91217 10.0603V16.3158C0.91217 21.4404 5.06648 25.5947 10.1911 25.5947H36.8525C41.9771 25.5947 46.1314 21.4404 46.1314 16.3158V10.0603C46.1314 4.93571 41.9771 0.781403 36.8525 0.781403Z" fill="#CA663E"/>
</svg>
