<svg width="48" height="47" viewBox="0 0 48 47" fill="none" xmlns="http://www.w3.org/2000/svg">
<path d="M12.4818 5.41226C15.7585 3.04916 20.6505 1.87155 25.5424 1.80182C29.8101 1.76202 34.0105 2.86957 37.7065 5.00935C40.3048 6.51876 42.3545 8.82063 43.5567 11.5795C40.365 7.7056 34.507 7.87607 29.9783 8.89105C23.2085 10.4406 18.332 14.8802 14.522 20.0016C14.4408 20.1098 14.3829 20.2338 14.352 20.3657L14.097 20.3192C12.1743 18.457 9.97363 16.907 7.57442 15.7247C7.47024 15.669 7.34962 15.6525 7.23438 15.6782C7.89127 11.2697 9.17412 7.78311 12.4818 5.41226Z" fill="#FDD821"/>
<path d="M11.0067 19.8691C11.7795 20.52 12.5523 21.2251 13.3251 21.9302C13.4334 22.0305 13.5681 22.0976 13.7133 22.1237C13.8584 22.1498 14.008 22.1337 14.1443 22.0774C18.217 22.6894 22.4598 24.0995 26.9267 24.1615C21.517 28.3608 15.1876 31.1347 10.1102 35.5278C7.35639 33.0918 4.86228 30.3757 2.66797 27.4233C5.62012 25.773 8.30182 22.5886 11.0067 19.8691Z" fill="#E9C721"/>
<path d="M10.6745 37.472C10.6888 37.3907 10.6858 37.3073 10.6659 37.2272C10.6459 37.1471 10.6093 37.0722 10.5586 37.0072C16.3934 32.0253 23.9206 29.1974 29.879 24.0528C30.0074 23.9303 30.0967 23.7724 30.1356 23.599C30.1745 23.4256 30.1613 23.2445 30.0977 23.0786C30.034 22.9128 29.9227 22.7697 29.7778 22.6672C29.633 22.5648 29.4611 22.5078 29.2839 22.5032C29.1144 22.3939 28.9121 22.3472 28.712 22.3714C24.3533 22.7898 20.1183 21.4727 16.1074 20.6591C19.5155 16.3668 23.5342 12.764 29.0366 10.9665C33.6735 9.41696 39.5856 9.22341 42.9009 13.4383C46.2163 17.6531 45.0184 24.076 43.5037 28.2676C41.9712 32.17 39.5959 35.6838 36.5484 38.5568C36.4401 38.6579 36.3739 38.7962 36.3629 38.9442C32.5659 42.2288 27.9106 44.3553 22.9468 45.0727C19.5465 45.6383 16.1074 45.5686 13.4953 44.5536C10.5277 43.4612 10.3577 40.4782 10.6745 37.472Z" fill="#FDE050"/>
<path d="M3.88789 36.8387C2.8755 34.8398 0.904839 32.0893 1.77812 28.75C3.94771 31.791 6.46921 34.5633 9.28987 37.0092L9.36718 37.0557C9.24146 37.1896 9.16273 37.3609 9.14303 37.5437C8.84686 39.3226 9.02554 41.1484 9.66085 42.8356C7.07387 41.606 5.02178 39.4743 3.88789 36.8387Z" fill="#FDD821"/>
<path d="M10.2492 44.7716C10.4773 44.849 10.7244 44.849 10.9524 44.7716C12.6449 46.3212 15.5893 46.8867 19.7934 46.6465C27.282 46.2359 33.4722 43.8884 37.8387 39.9447C37.9008 39.8946 37.9506 39.8308 37.9841 39.7582C38.0176 39.6856 38.034 39.6062 38.0319 39.5263C41.1625 36.8405 43.6105 33.4463 45.1734 29.6241C46.7363 25.8019 47.3691 21.6615 47.0197 17.5455C45.9069 12.122 44.2608 7.79871 40.0644 4.63758C36.1076 1.63141 30.6283 0.422699 25.3809 0.337472C20.4838 0.236807 15.6592 1.53478 11.4702 4.07976C7.55975 6.56682 6.3078 11.0994 5.68182 16.3369C5.57362 17.2589 6.45462 17.747 6.87194 17.2511C6.9529 17.37 7.06533 17.4638 7.19655 17.5222C8.07536 17.9223 8.91164 18.4105 9.69273 18.9789C7.17335 21.6442 4.64626 24.7821 1.87958 26.1534C1.68065 26.3026 1.53441 26.5116 1.46213 26.7499C1.38985 26.9881 1.39529 27.2433 1.4777 27.4783C1.21494 27.4783 0.913557 27.6333 0.766722 28.1292C-0.284307 31.7165 1.02947 34.6761 2.11141 36.8068C4.028 40.704 5.78231 43.2685 10.2492 44.7716ZM12.4594 5.49768C15.7362 3.12683 20.6281 1.95677 25.52 1.87929C29.7873 1.84327 33.9867 2.95075 37.6841 5.08702C40.2774 6.60274 42.3252 8.9027 43.5343 11.6572C40.3426 7.78326 34.4769 7.95375 29.956 8.97647C23.1861 10.526 18.3096 14.9577 14.4997 20.079C14.4199 20.1882 14.3621 20.3118 14.3296 20.4432L14.0746 20.3968C12.1519 18.5347 9.95123 16.9844 7.55202 15.8022C7.44544 15.7544 7.32742 15.7384 7.21198 15.7559C7.86887 11.3473 9.14404 7.86853 12.4594 5.49768ZM10.9833 19.9474C11.7561 20.606 12.529 21.3032 13.3018 22.0083C13.4101 22.1086 13.5448 22.1759 13.6899 22.202C13.8351 22.228 13.9846 22.212 14.1209 22.1556C18.1937 22.7677 22.4365 24.1778 26.9033 24.2475C21.4936 28.4391 15.1643 31.2205 10.0869 35.6058C7.33108 33.1719 4.83676 30.4557 2.64466 27.5016C5.59681 25.859 8.27847 22.6746 10.9833 19.9474ZM10.651 37.5505C10.6648 37.4692 10.6616 37.386 10.6417 37.306C10.6217 37.2259 10.5854 37.1508 10.5351 37.0856C16.3699 32.1115 23.8971 29.2758 29.8555 24.1312C29.9839 24.0087 30.0732 23.8507 30.1122 23.6774C30.1511 23.504 30.1378 23.323 30.0741 23.1572C30.0104 22.9914 29.8992 22.8482 29.7543 22.7458C29.6095 22.6433 29.4376 22.5861 29.2604 22.5816C29.0909 22.4723 28.8887 22.4257 28.6885 22.4499C24.3299 22.8683 20.0871 21.5512 16.0839 20.7377C19.492 16.4531 23.5107 12.8426 29.0131 11.0451C33.65 9.53425 39.562 9.30177 42.8774 13.5166C46.0769 17.6695 44.995 24.1623 43.4802 28.3539C41.9345 32.2566 39.546 35.7676 36.4862 38.6352C36.3779 38.7363 36.3117 38.8746 36.3008 39.0226C32.5059 42.3105 27.8496 44.4376 22.8847 45.1513C19.4843 45.7168 16.0453 45.6472 13.4254 44.6322C10.5042 43.5475 10.3342 40.5567 10.651 37.5505ZM3.86572 36.9229C2.85333 34.9162 0.88262 32.1658 1.7559 28.8342C3.92563 31.8727 6.44719 34.6425 9.26769 37.0856L9.34495 37.1399C9.21621 37.2686 9.13687 37.4388 9.12086 37.6203C8.82106 39.4016 8.99976 41.2307 9.63863 42.9198C7.05291 41.6884 5.0014 39.5573 3.86572 36.9229Z" fill="#9D7637"/>
<path d="M14.994 29.2131C15.1496 29.1835 15.2923 29.1066 15.4029 28.993C15.5135 28.8793 15.5866 28.7344 15.6123 28.5778C15.7792 28.5639 15.9382 28.5005 16.069 28.3956C16.1997 28.2907 16.2963 28.1491 16.3465 27.9889C16.4957 27.53 16.5017 27.0364 16.3636 26.574C16.2255 26.1116 15.9499 25.7024 15.5736 25.4012C15.1716 25.1565 14.6941 25.0679 14.2314 25.1521C13.7686 25.2363 13.3526 25.4875 13.062 25.8582C12.6802 26.1412 12.4152 26.555 12.3172 27.0208C12.2192 27.4866 12.295 27.9723 12.5303 28.3858C12.7655 28.7993 13.1439 29.1119 13.5937 29.2644C14.0435 29.4169 14.5336 29.3986 14.9709 29.2131H14.994ZM13.9121 27.346C13.9121 27.5164 13.9662 27.2297 13.9121 27.346C13.9341 27.2721 13.9709 27.2036 14.0203 27.1445C14.1204 27.0068 14.2498 26.8931 14.399 26.8114C14.399 26.8114 14.6618 26.7649 14.5381 26.7726H14.6231C14.6917 26.817 14.7476 26.8783 14.7854 26.9508C14.8399 27.1222 14.8399 27.3062 14.7854 27.4776C14.7817 27.5007 14.7817 27.5243 14.7854 27.5474H14.6617C14.5844 27.5474 14.569 27.5474 14.569 27.5474H14.2908C14.2115 27.5313 14.134 27.5079 14.059 27.4776C14.1594 27.4776 13.9662 27.3923 13.9585 27.4078L13.8889 27.3149C13.8955 27.3261 13.9033 27.3365 13.9121 27.346Z" fill="#9D7637"/>
<path d="M7.28148 30.7332H7.42832C7.59 30.7345 7.74662 30.6767 7.86883 30.5705C8.34495 30.2046 8.70948 29.7125 8.92116 29.1497C9.13285 28.587 9.18325 27.9762 9.06668 27.3862C9.04582 27.1117 8.96208 26.8458 8.82197 26.609C8.68186 26.3722 8.48916 26.171 8.25887 26.0211C8.02857 25.8712 7.76689 25.7765 7.49416 25.7445C7.22144 25.7125 6.945 25.7441 6.6864 25.8367C6.14398 26.1169 5.70303 26.5606 5.42571 27.1055C5.1484 27.6505 5.04871 28.269 5.14077 28.8738C5.15095 29.1398 5.21551 29.4008 5.33043 29.6408C5.44536 29.8808 5.60823 30.0947 5.80891 30.269C6.0096 30.4433 6.24386 30.5744 6.49716 30.6543C6.75045 30.7342 7.0174 30.7609 7.28148 30.7332ZM6.50866 28.4476C6.45634 28.2531 6.47509 28.0463 6.56154 27.8644C6.64799 27.6826 6.79642 27.5376 6.98007 27.4558C7.75289 27.0762 7.8843 28.5096 7.35105 29.0442C7.15956 29.0703 6.96523 29.0235 6.80644 28.9131C6.64765 28.8027 6.53588 28.6366 6.49319 28.4476H6.50866Z" fill="#9D7637"/>
<path d="M9.69297 33.7069C10.0611 33.9127 10.4857 33.9937 10.9035 33.9379C11.3213 33.882 11.7099 33.6924 12.0114 33.3971C12.2306 33.2859 12.4052 33.1025 12.506 32.8778C12.713 32.4834 12.7644 32.0253 12.6498 31.5946C12.5352 31.1639 12.2632 30.7922 11.8878 30.5535C11.0377 30.0499 10.0562 30.4992 9.4534 31.3283C9.17979 31.6793 9.05198 32.1227 9.09662 32.5659C9.14126 33.0091 9.35489 33.4179 9.69297 33.7069ZM10.6976 32.1573C10.7457 32.0813 10.8158 32.0219 10.8986 31.9869H10.9449C10.9754 31.9799 11.0071 31.9799 11.0377 31.9869V32.0257C11.0377 32.0257 11.0377 32.072 11.0763 32.072C11.08 32.1029 11.08 32.1342 11.0763 32.1651L10.9836 32.2271C11.0377 32.1807 10.914 32.2658 10.8599 32.2968C10.8058 32.3277 10.7208 32.2968 10.744 32.3355H10.659H10.6049L10.5508 32.2968C10.5508 32.2968 10.5508 32.2349 10.5508 32.2194C10.5508 32.2039 10.6513 32.2271 10.6976 32.1496V32.1573Z" fill="#9D7637"/>
<path d="M21.2388 26.1147C22.0116 25.3399 20.9064 24.0926 20.1259 24.8674C19.3454 25.6422 20.4659 26.874 21.2388 26.1147Z" fill="#9D7637"/>
<path d="M11.887 24.2326C12.6057 23.4578 11.547 22.1871 10.8592 23.0084C10.1714 23.8296 11.1915 25.0461 11.887 24.2326Z" fill="#9D7637"/>
<path d="M11.0913 29.3602C11.8642 28.5855 10.8363 27.3768 10.1176 28.1903C9.39887 29.0038 10.3572 30.1583 11.0913 29.3602Z" fill="#9D7637"/>
</svg>
