<svg width="49" height="53" viewBox="0 0 49 53" fill="none" xmlns="http://www.w3.org/2000/svg">
<path d="M43.1251 4.00087C42.6972 3.64561 42.1533 3.46177 41.5982 3.48466C41.0431 3.50755 40.5161 3.73548 40.1188 4.12476C39.8537 3.8801 39.5158 3.72954 39.157 3.69595C38.7982 3.66235 38.4383 3.7476 38.1326 3.93882C37.7366 4.2143 37.4085 4.5766 37.1728 4.9981C36.9372 5.41961 36.8003 5.88937 36.7725 6.37176C36.7079 7.12757 36.8406 7.88726 37.1577 8.57601C37.4748 9.26477 37.9653 9.85872 38.5809 10.2998C37.8544 10.0829 37.1357 9.8661 36.4015 9.71115C35.6634 9.51537 34.8944 9.46523 34.1372 9.56379C32.7229 9.85046 32.3443 11.1676 32.1897 12.4305C32.1858 12.4613 32.1858 12.4927 32.1897 12.5235H32.1124C32.1266 12.471 32.1286 12.4158 32.1182 12.3624C32.1078 12.3089 32.0853 12.2586 32.0524 12.2152C32.0196 12.1718 31.9773 12.1366 31.9288 12.1121C31.8802 12.0877 31.8267 12.0746 31.7723 12.0741C30.533 12.0962 29.2965 12.1998 28.0706 12.3841C28.8434 11.2994 28.4802 9.84274 28.9902 8.61857C29.6394 7.069 31.9192 7.20851 32.4524 5.57371C32.548 5.12633 32.5272 4.66177 32.3919 4.22483C32.2565 3.78788 32.0112 3.39329 31.6796 3.07891C31.0493 2.24143 30.2932 1.50694 29.4384 0.901714C28.712 0.421346 27.661 0.126979 26.9345 0.762305C26.2081 1.39763 26.3163 2.39706 26.494 3.22608C26.6335 3.70611 26.6858 4.20728 26.6486 4.70586C26.5715 5.13058 26.3728 5.52379 26.0767 5.83721C25.4751 6.45877 24.7208 6.91036 23.8897 7.14655C22.6776 7.48983 21.4433 7.74871 20.1956 7.92134C19.0355 8.13363 17.8876 8.40782 16.7566 8.74266C14.4241 9.44301 12.1808 10.4128 10.0717 11.6326C8.10325 12.6282 6.41181 14.0977 5.14887 15.9094C3.96647 17.8387 3.24002 20.4264 3.88918 22.6578C4.12656 23.5527 4.66251 24.3389 5.40774 24.8859C6.15297 25.4329 7.06257 25.7074 7.98514 25.6639C7.64981 26.2295 7.2861 26.7778 6.89545 27.3066C6.57086 27.7559 6.21539 28.1742 5.85216 28.5926C5.35422 27.2303 4.56259 25.9949 3.53372 24.9744C3.27096 24.6955 3.00047 24.4243 2.7609 24.1531C2.56952 23.9215 2.33279 23.7316 2.06535 23.5953C1.81305 23.5548 1.5546 23.6038 1.33451 23.7339C1.11443 23.8641 0.946466 24.0671 0.859709 24.308C0.660996 24.8181 0.61014 25.3741 0.712919 25.9119C0.813386 26.6867 0.975613 27.4614 1.13018 28.1897C1.46249 29.8013 1.90304 31.3895 2.34355 32.9701C2.3572 33.0162 2.3819 33.0583 2.41553 33.0927C2.44916 33.127 2.49071 33.1527 2.53647 33.1672C2.58223 33.1817 2.63077 33.1848 2.67798 33.1761C2.72519 33.1674 2.76957 33.1473 2.80722 33.1175C2.64915 33.6109 2.43937 34.0861 2.18129 34.5352C1.9752 35.1499 1.78966 35.7698 1.62479 36.3948C1.29219 37.6136 1.10031 38.8665 1.05291 40.1291C0.988888 41.827 1.33631 43.5153 2.06535 45.0491C2.028 45.0619 1.99396 45.0829 1.96582 45.1106C1.93768 45.1383 1.91617 45.1721 1.9028 45.2093C1.88944 45.2466 1.8846 45.2863 1.88865 45.3257C1.89271 45.365 1.90553 45.4028 1.9262 45.4365C2.58779 46.9281 3.6105 48.2306 4.90152 49.2253C5.49082 49.631 6.16497 49.896 6.87224 50.0001C7.67686 50.0622 8.48594 50.031 9.28342 49.9071C10.073 49.8103 10.8698 49.7869 11.6637 49.8373C12.4748 49.9244 13.2617 50.1664 13.9821 50.5502C15.3191 51.232 16.5634 52.0997 18.1013 52.2082C19.6379 52.3274 21.1595 51.8346 22.3363 50.8368C23.1462 50.5977 23.9245 50.2621 24.6547 49.8373C24.6943 49.8155 24.7279 49.7845 24.7528 49.7468C24.7778 49.7092 24.7932 49.666 24.7978 49.6211C24.8023 49.5761 24.7959 49.5306 24.7791 49.4886C24.7622 49.4467 24.7354 49.4095 24.7011 49.3803C23.9398 47.748 23.5066 45.9815 23.426 44.1815C23.4377 43.3148 23.399 42.448 23.31 41.5858C23.1709 40.7103 22.9313 39.8425 22.769 38.967C22.6067 38.0914 22.4522 37.1619 22.3363 36.2476C22.2822 35.775 22.2281 35.3101 22.1818 34.8375C22.1034 34.3794 22.0904 33.9124 22.1431 33.4506C22.2281 33.0012 22.5759 32.7223 23.0086 32.9393C23.3948 33.1774 23.7078 33.5179 23.9129 33.9233C24.3348 34.7217 24.6839 35.5567 24.9561 36.4181C25.729 38.448 26.324 40.5089 26.9577 42.5698C27.0814 42.9727 27.7306 42.7403 27.5683 42.3374C26.9423 40.2764 26.3086 38.2155 25.5667 36.1856C25.2703 35.2456 24.882 34.3373 24.4075 33.4738C24.0211 32.854 23.3719 32.1023 22.5604 32.1953C21.749 32.2883 21.4398 33.2491 21.463 33.9851C21.5133 35.0235 21.6217 36.0581 21.7876 37.0843C21.9345 38.1225 22.1276 39.153 22.3518 40.1834C22.588 41.1456 22.7253 42.1296 22.7614 43.1199C22.7357 45.2892 23.1621 47.4398 24.0133 49.4344C23.5188 49.704 23.0016 49.9296 22.4677 50.1085C22.4209 50.0666 22.3603 50.0434 22.2976 50.0434C22.2349 50.0434 22.1744 50.0666 22.1276 50.1085L22.0039 50.2169C21.2775 50.4485 20.5092 50.5174 19.7533 50.4184C18.9974 50.3193 18.2725 50.0547 17.6299 49.6436C16.683 48.8966 16.0003 47.8647 15.6824 46.6995C15.2573 45.4986 14.9095 44.2821 14.4072 43.0966C13.7271 41.4618 12.7611 39.122 10.6668 39.0833C8.57246 39.0446 7.31271 41.2527 7.0345 43.1122C6.94176 43.7397 6.91089 44.3828 6.87997 45.0259C6.88854 45.6169 6.80247 46.2055 6.62498 46.7691C6.54081 47.0312 6.36823 47.2557 6.13697 47.4041C5.90571 47.5526 5.63017 47.6157 5.35755 47.5827C5.09948 47.5613 4.85396 47.4616 4.65379 47.2969C4.45362 47.1322 4.30822 46.9103 4.23691 46.6607C4.22593 46.6174 4.20478 46.5772 4.17512 46.5438C4.14546 46.5104 4.10821 46.4847 4.06654 46.4688C4.02487 46.4528 3.98001 46.4472 3.93569 46.4523C3.89137 46.4574 3.84892 46.4731 3.81192 46.4981C2.34562 44.7757 1.58117 42.5623 1.6712 40.2998C1.69266 39.1899 1.83513 38.0857 2.0962 37.0069C2.2353 36.4258 2.38995 35.8601 2.5677 35.2945C2.66043 35.0233 2.74543 34.7523 2.83816 34.4811C2.9309 34.2099 2.98498 33.8379 3.2091 33.7527C3.25177 33.7382 3.29068 33.7145 3.32297 33.683C3.35525 33.6516 3.38004 33.6132 3.39561 33.5709C3.41117 33.5285 3.41716 33.4832 3.41296 33.4383C3.40877 33.3933 3.3945 33.3499 3.37136 33.3112C4.03598 31.2812 5.6898 29.8013 7.0345 28.182C8.58013 26.2837 9.53069 24.0369 10.8986 21.9837C13.6884 17.7456 18.4413 15.553 23.1323 14.0964C25.7202 13.2714 28.4033 12.7843 31.1155 12.6474C27.8534 13.5293 24.7664 14.9653 21.9886 16.8933C20.3249 18.1906 18.8203 19.6809 17.5062 21.333C15.887 23.2697 14.3727 25.2921 12.9698 27.3917C12.7379 27.7403 13.248 28.1665 13.4799 27.8023C14.67 26.0281 15.9296 24.3081 17.2743 22.6501C18.5459 20.9895 19.9774 19.4583 21.548 18.0787C23.205 16.74 25.0417 15.642 27.0041 14.8169C28.9517 13.895 31.0164 13.2459 33.1402 12.8877C35.2499 12.5404 37.414 12.7762 39.4 13.5696C39.4498 13.5938 39.5054 13.6029 39.5603 13.5961C39.6152 13.5892 39.6669 13.5665 39.7092 13.5308C39.9675 14.6143 40.0148 15.7377 39.8483 16.8392C39.4774 18.8691 37.9703 20.3024 36.5097 21.635C34.9911 22.9169 33.7025 24.4499 32.6998 26.1676C31.6585 27.9608 31.1241 30.0045 31.1541 32.0792C31.282 33.1673 31.6421 34.215 32.2103 35.1509C32.7784 36.0868 33.5411 36.8889 34.4463 37.5027C33.8976 37.7506 33.3566 38.0063 32.8234 38.2775C31.2573 39.1143 29.8584 40.2332 28.6965 41.5781C27.5795 42.9566 26.6372 44.4687 25.8912 46.0797C25.7057 46.4593 26.3086 46.7304 26.4863 46.3507C27.6327 43.7042 29.4529 41.4064 31.7646 39.6877C33.0018 38.8757 34.3202 38.1953 35.6983 37.6576C36.3861 37.3787 37.0893 37.1153 37.7926 36.8828C38.4091 36.6389 39.0386 36.4294 39.6782 36.2552C39.959 36.1537 40.2595 36.1192 40.556 36.1542C40.8524 36.1892 41.1366 36.2926 41.3862 36.4567C41.8897 37.0022 42.1662 37.7202 42.159 38.4634C42.1932 39.8885 41.7646 41.2862 40.9379 42.4459C39.2775 44.8102 37.0957 46.7588 34.5622 48.1405C31.8342 49.7366 28.3797 51.3327 25.2884 49.7599C24.9097 49.5662 24.6393 50.1628 25.0179 50.3565C27.9469 51.8441 31.2005 50.705 33.9285 49.2484C36.7722 47.8343 39.2548 45.7855 41.1853 43.2593C42.1097 42.0568 42.6775 40.6177 42.8236 39.1066C42.8665 38.3959 42.7639 37.6841 42.5222 37.0147C45.1421 36.3638 46.3399 33.1406 46.6336 30.7078C46.6837 30.0374 46.7844 29.3717 46.935 28.7165C47.1339 28.1228 47.4093 27.5576 47.7542 27.0353C48.1004 26.5519 48.3471 26.0043 48.4798 25.4242C48.6125 24.8442 48.6285 24.2436 48.527 23.6573C48.3402 22.9681 48.0812 22.3006 47.7542 21.6661C47.4374 20.9455 47.1205 20.2249 46.8114 19.5044C46.1725 18.0116 45.5491 16.5085 44.9412 14.9951C44.3461 13.5075 43.7665 12.0199 43.2101 10.5168C42.854 9.89644 42.6849 9.18606 42.7232 8.47141C42.8917 7.97841 43.1285 7.51154 43.4265 7.08451C43.7622 6.58697 43.9326 5.9959 43.9133 5.39552C43.8238 4.85165 43.5444 4.35732 43.1251 4.00087ZM5.67434 48.3265C6.13185 48.2457 6.54908 48.0132 6.85884 47.6661C7.1686 47.319 7.35296 46.8776 7.38232 46.4128C7.76873 44.2588 7.22004 41.3767 9.5153 40.1138C11.8106 38.8509 13.2093 42.0275 13.8816 43.7088C14.3685 44.9329 14.7163 46.2036 15.1877 47.4278C15.5633 48.5659 16.2781 49.561 17.2357 50.2789C18.2323 50.9421 19.4199 51.2553 20.6129 51.1699C19.9145 51.4779 19.1579 51.6313 18.3949 51.6193C16.8957 51.6193 15.6746 50.767 14.3917 50.0697C13.1442 49.4042 11.7371 49.0986 10.3267 49.1866C8.86608 49.2485 7.29728 49.7056 5.89848 49.0935C5.28961 48.812 4.74109 48.4147 4.28332 47.9236C4.68325 48.2219 5.17733 48.365 5.67434 48.3265ZM5.35755 29.2047C4.34583 30.2516 3.51288 31.4582 2.89222 32.7764C2.49551 31.4644 2.15034 30.1422 1.85667 28.8096C1.71756 28.1743 1.59392 27.539 1.478 26.9114C1.34858 26.3756 1.27602 25.8276 1.26159 25.2765C1.25425 25.0523 1.29927 24.8295 1.393 24.6258C1.43487 24.5213 1.50434 24.4302 1.59394 24.3623C1.81806 24.2306 1.91078 24.3623 2.06535 24.5017C2.52131 24.9356 2.96951 25.385 3.38683 25.8576C4.26333 26.7841 4.92095 27.8961 5.31114 29.1117C5.32187 29.1448 5.33755 29.1763 5.35755 29.2047ZM27.3596 12.2445C27.3207 12.2821 27.2914 12.3284 27.2739 12.3796C27.2565 12.4308 27.2514 12.4855 27.2591 12.539C26.0896 12.7357 24.9314 12.9944 23.7892 13.3138C21.2835 13.999 18.8604 14.9577 16.5634 16.1728C14.3357 17.3209 12.3862 18.9449 10.8523 20.9301C9.96045 22.2256 9.1425 23.5707 8.4024 24.9589C8.36926 24.952 8.33506 24.952 8.30193 24.9589C6.47036 25.5013 4.82426 23.8819 4.43785 22.2084C4.10566 20.2257 4.50695 18.1898 5.56623 16.4828C6.61726 14.6388 8.39473 13.3836 10.2031 12.3376C12.1173 11.2073 14.149 10.2902 16.262 9.60257C17.3275 9.25702 18.411 8.97003 19.5078 8.74266C20.582 8.51797 21.6717 8.36298 22.7382 8.12279C24.2838 7.78189 26.0304 7.23953 26.9114 5.79843C27.1133 5.4621 27.2466 5.0889 27.3036 4.70056C27.3607 4.31221 27.3403 3.91631 27.2437 3.53592C27.1045 2.82311 26.6872 1.45954 27.6069 1.07214C28.5265 0.684751 29.5466 1.69201 30.1185 2.26535C30.8707 2.8939 31.4661 3.68981 31.8573 4.58971C32.1587 5.60469 31.2545 6.1393 30.4972 6.54219C29.7669 6.83855 29.1255 7.31897 28.6348 7.93685C28.2735 8.60602 28.0799 9.35303 28.0706 10.1139C28.1078 10.8882 27.8541 11.6485 27.3596 12.2445ZM32.8466 12.4074C32.8871 11.926 33.0072 11.4546 33.202 11.0127C33.3356 10.7463 33.543 10.5242 33.7994 10.373C34.0557 10.2218 34.3501 10.148 34.6473 10.1604C35.2998 10.1661 35.949 10.2547 36.5793 10.4239C37.2517 10.5788 37.9085 10.7803 38.5654 10.9817C38.6261 11.0054 38.6935 11.0051 38.7538 10.9806C38.8142 10.9561 38.8629 10.9094 38.89 10.8501C38.8785 10.8985 38.8785 10.9488 38.89 10.9972C39.1064 11.6713 39.3228 12.3608 39.5005 13.0658C37.3849 12.2379 35.0828 12.0101 32.8466 12.4074ZM42.3368 7.80501C42.1116 8.20591 42.0044 8.66278 42.0276 9.1223C42.1385 9.76344 42.3362 10.3863 42.615 10.974C43.1302 12.3221 43.6454 13.6624 44.1606 14.9951C44.7016 16.3587 45.2658 17.7146 45.8376 19.0627C46.4095 20.4108 47.0046 21.666 47.5378 22.9832C47.8236 23.5924 47.9537 24.2634 47.9165 24.9357C47.836 25.4721 47.6466 25.9863 47.3601 26.4465C46.7517 27.3524 46.3167 28.364 46.0772 29.4295C45.9612 30.15 45.9303 30.8706 45.7835 31.5834C45.6421 32.2953 45.4218 32.9892 45.1266 33.652C44.8913 34.3245 44.5068 34.9346 44.0021 35.4365C43.4974 35.9385 42.8857 36.3191 42.2131 36.5497H42.1513C41.9085 36.1617 41.5402 35.869 41.108 35.7206C39.8483 35.31 38.3645 36.0693 37.2439 36.4954C36.5252 36.7511 35.8142 37.0223 35.111 37.3168C34.221 36.7613 33.4645 36.0156 32.8953 35.1329C32.3262 34.2503 31.9586 33.2524 31.8188 32.2108C31.7906 30.0942 32.3729 28.0144 33.4957 26.2217C34.5897 24.5525 35.9259 23.0562 37.4603 21.7822C38.8281 20.5116 40.0956 19.086 40.4743 17.2033C40.9148 15.0339 40.2347 12.8102 39.5778 10.7648C39.5778 10.7648 39.5778 10.7647 39.5778 10.7182C39.6438 10.7026 39.7036 10.6672 39.7489 10.6166C39.7942 10.5661 39.823 10.5027 39.8314 10.4352C39.8399 10.3678 39.8275 10.2993 39.796 10.2391C39.7644 10.1789 39.7153 10.1299 39.6551 10.0985C39.0476 9.83053 38.526 9.39903 38.1482 8.85199C37.7703 8.30496 37.551 7.66377 37.5144 6.99939C37.4538 6.33562 37.6082 5.66979 37.9549 5.10101C38.15 4.7333 38.4797 4.45563 38.8746 4.32622C39.0627 4.2699 39.2639 4.27645 39.448 4.34494C39.632 4.41343 39.7888 4.54013 39.8946 4.70586C39.9164 4.75918 39.9517 4.80608 39.9969 4.84167C40.0421 4.87726 40.0958 4.90042 40.1527 4.90901C40.2095 4.9176 40.2676 4.91132 40.3212 4.89066C40.3749 4.87001 40.4223 4.83568 40.4588 4.79117C40.6178 4.56345 40.8334 4.38139 41.0841 4.26285C41.3349 4.14431 41.6122 4.09339 41.8886 4.11531C42.165 4.13722 42.4308 4.23111 42.6599 4.38769C42.8889 4.54428 43.0733 4.75819 43.1946 5.00813C43.581 6.07734 42.7773 6.93724 42.3368 7.80501Z" fill="#5B3214"/>
<path d="M28.31 8.08357C28.7989 7.46569 29.4412 6.9874 30.1725 6.69667C30.9453 6.29379 31.8341 5.75141 31.5327 4.73644C31.1414 3.83654 30.546 3.04063 29.7938 2.41208C29.222 1.83874 28.1787 0.862473 27.2822 1.21888C26.3857 1.57528 26.7799 2.97003 26.919 3.68284C27.0156 4.06323 27.0359 4.45894 26.9789 4.84729C26.9219 5.23563 26.7885 5.60883 26.5866 5.94515C25.7056 7.35527 23.9436 7.89762 22.4134 8.26952C21.3469 8.5097 20.2573 8.67244 19.1831 8.88938C18.0864 9.11675 17.0028 9.40374 15.9372 9.74929C13.8243 10.4369 11.7926 11.3541 9.87841 12.4843C8.09321 13.5458 6.31574 14.8088 5.24153 16.6373C4.18143 18.3411 3.78011 20.3749 4.11325 22.3551C4.49966 24.0364 6.14575 25.648 7.97732 25.1056C8.01041 25.0983 8.04471 25.0983 8.07779 25.1056C8.81493 23.7132 9.63288 22.3654 10.5276 21.069C12.0592 19.0836 14.0094 17.4618 16.2387 16.3195C18.534 15.0986 20.9574 14.1372 23.4644 13.4528C24.6066 13.1333 25.7649 12.8747 26.9344 12.678C26.9266 12.6245 26.9317 12.5699 26.9492 12.5187C26.9667 12.4675 26.996 12.4212 27.0348 12.3837C27.5091 11.7932 27.7511 11.049 27.7149 10.2918C27.7327 9.5184 27.9369 8.76074 28.31 8.08357Z" fill="#ECB840"/>
<path d="M3.08584 25.9666C2.66852 25.494 2.22031 25.0523 1.76434 24.6107C1.60978 24.4635 1.51704 24.3394 1.2852 24.4789C1.20029 24.5463 1.13382 24.6344 1.09199 24.7346C0.999066 24.9386 0.954083 25.1613 0.960576 25.3855C0.975013 25.9365 1.04757 26.4844 1.17699 27.0202C1.29291 27.6555 1.41656 28.283 1.55567 28.9184C1.84934 30.251 2.19451 31.5734 2.59122 32.8854C3.20917 31.5656 4.04242 30.3584 5.05658 29.3135C5.0382 29.2868 5.02261 29.2584 5.01016 29.2284C4.62274 28.0093 3.96483 26.8942 3.08584 25.9666Z" fill="#ECB840"/>
<path d="M10.0259 49.3175C11.4359 49.234 12.8419 49.5394 14.0909 50.2007C15.3738 50.8748 16.5948 51.696 18.0941 51.7503C18.8574 51.7663 19.6148 51.6129 20.3121 51.301C19.119 51.3865 17.9314 51.073 16.9349 50.4099C15.9773 49.692 15.2624 48.6969 14.8869 47.5587C14.4155 46.3346 14.0678 45.0639 13.5809 43.8397C12.9085 42.1584 11.5947 38.9354 9.21447 40.2448C6.8342 41.5542 7.4679 44.3898 7.08149 46.5437C7.08149 46.9034 6.98155 47.2562 6.79291 47.5621C6.60428 47.8681 6.33442 48.1153 6.0135 48.2762C5.69257 48.4371 5.33332 48.5052 4.97597 48.4729C4.61862 48.4406 4.27728 48.3091 3.99023 48.0933C4.44599 48.5867 4.995 48.9844 5.60539 49.2632C6.99646 49.8366 8.56525 49.3795 10.0259 49.3175Z" fill="#ECB840"/>
<path d="M38.5962 11.1058C38.5847 11.0574 38.5847 11.007 38.5962 10.9586C38.5691 11.018 38.5203 11.0646 38.4599 11.0891C38.3996 11.1136 38.3322 11.114 38.2715 11.0903C37.6147 10.8888 36.9578 10.6952 36.2855 10.5324C35.6555 10.3623 35.0059 10.2765 34.3534 10.2769C34.0571 10.2638 33.7633 10.3364 33.507 10.4861C33.2508 10.6358 33.043 10.8563 32.9083 11.1213C32.7134 11.5632 32.5932 12.0345 32.5527 12.5159C34.7916 12.1205 37.0957 12.3483 39.2144 13.1746C39.0289 12.4695 38.8512 11.7489 38.5962 11.1058Z" fill="#ECB840"/>
<path d="M40.0649 4.93769C40.0284 4.98221 39.981 5.01653 39.9273 5.03719C39.8737 5.05784 39.8156 5.06412 39.7587 5.05554C39.7019 5.04695 39.6482 5.02379 39.603 4.9882C39.5578 4.9526 39.5225 4.9059 39.5007 4.85257C39.3949 4.68685 39.2381 4.56015 39.054 4.49166C38.87 4.42317 38.6688 4.41662 38.4807 4.47293C38.0858 4.60234 37.7561 4.88001 37.561 5.24772C37.2127 5.81869 37.0582 6.48732 37.1205 7.15367C37.1588 7.81759 37.3788 8.45803 37.7564 9.00476C38.1341 9.55149 38.6548 9.98336 39.2612 10.2528C39.3224 10.2825 39.3728 10.3306 39.4053 10.3905C39.4377 10.4504 39.4506 10.519 39.4421 10.5867C39.4335 10.6543 39.404 10.7176 39.3577 10.7675C39.3114 10.8174 39.2506 10.8515 39.1839 10.8649C39.1839 10.8649 39.1839 10.8648 39.1839 10.9113C39.8408 12.9567 40.5208 15.1804 40.0803 17.3498C39.7017 19.2325 38.4342 20.6581 37.0664 21.9287C35.5336 23.2074 34.1978 24.706 33.1019 26.376C31.9781 28.1654 31.3955 30.2432 31.4249 32.3575C31.5637 33.3995 31.9308 34.3976 32.5 35.2804C33.0693 36.1632 33.8264 36.9086 34.7171 37.4633C35.4203 37.1688 36.1313 36.89 36.85 36.6344C38.0093 36.216 39.4931 35.4567 40.7141 35.8596C41.1473 36.0019 41.5167 36.2925 41.7574 36.6807H41.8192C43.2489 36.3321 44.1376 35.0692 44.7327 33.783C45.0279 33.1202 45.2482 32.4263 45.3896 31.7144C45.5364 31.0016 45.5673 30.281 45.6832 29.5682C45.924 28.5008 46.3589 27.4869 46.9661 26.5775C47.2577 26.1056 47.4472 25.5777 47.5225 25.0279C47.5597 24.3556 47.4296 23.6849 47.1439 23.0756C46.6106 21.7584 46.0001 20.4645 45.4437 19.1551C44.8873 17.8457 44.3076 16.4511 43.7667 15.0952C43.2257 13.7394 42.7156 12.4143 42.221 11.0739C41.9433 10.4832 41.7458 9.85787 41.6337 9.21453C41.6117 8.75513 41.7188 8.2988 41.9428 7.89743C42.3833 7.02967 43.1871 6.16961 42.7157 5.13914C42.5877 4.90824 42.4045 4.71282 42.1827 4.57035C41.9608 4.42788 41.7071 4.3429 41.4444 4.32293C41.1816 4.30296 40.9181 4.3486 40.6773 4.45591C40.4365 4.56322 40.2261 4.72876 40.0649 4.93769Z" fill="#ECB840"/>
<path d="M39.037 13.8106C37.051 13.0172 34.8868 12.7816 32.7772 13.1289C30.6533 13.4871 28.5886 14.1363 26.641 15.0581C24.6777 15.8815 22.8408 16.9797 21.185 18.3199C19.618 19.7033 18.1869 21.234 16.9113 22.8911C15.5666 24.5492 14.3068 26.2693 13.1167 28.0436C12.8849 28.4 12.344 27.9816 12.6067 27.6329C14.0096 25.5333 15.5239 23.5108 17.1431 21.574C19.7717 18.1205 23.3337 15.496 27.4061 14.0121C28.495 13.5625 29.613 13.1872 30.7524 12.8887C28.0407 13.0294 25.358 13.5163 22.7692 14.3376C18.0782 15.7942 13.3254 17.9868 10.5355 22.2249C9.19855 24.2471 8.21708 26.5017 6.67145 28.4232C5.35766 30.0425 3.67293 31.5222 3.00831 33.5522C3.03145 33.5909 3.04562 33.6344 3.04982 33.6793C3.05401 33.7243 3.04812 33.7697 3.03255 33.8121C3.01698 33.8545 2.9922 33.8928 2.95991 33.9243C2.92763 33.9557 2.88872 33.9795 2.84605 33.9939C2.62193 34.0791 2.54466 34.5284 2.47511 34.7221C2.40556 34.9158 2.29729 35.2645 2.20455 35.4969C2.0268 36.0625 1.87225 36.636 1.73314 37.2094C1.47208 38.2881 1.32961 39.3923 1.30815 40.5022C1.21658 42.765 1.98113 44.9789 3.44877 46.7005C3.48577 46.6755 3.52823 46.6598 3.57254 46.6547C3.61686 46.6496 3.66181 46.6552 3.70348 46.6712C3.74515 46.6871 3.78231 46.7129 3.81197 46.7463C3.84163 46.7797 3.86288 46.8198 3.87386 46.8632C3.94419 47.1133 4.08933 47.3358 4.2897 47.5006C4.49007 47.6655 4.73599 47.7648 4.9944 47.7851C5.26702 47.8182 5.54265 47.755 5.77392 47.6066C6.00518 47.4581 6.17767 47.2336 6.26183 46.9716C6.43985 46.408 6.52602 45.8194 6.51692 45.2283C6.51692 44.5852 6.57871 43.9499 6.67145 43.3146C6.94966 41.4551 8.13212 39.2392 10.296 39.2857C12.4599 39.3322 13.3872 41.6643 14.0441 43.3068C14.531 44.4845 14.8943 45.701 15.3193 46.902C15.6392 48.0664 16.3181 49.0995 17.2591 49.8537C17.9031 50.2652 18.6296 50.5293 19.387 50.627C20.1444 50.7248 20.9139 50.6538 21.6409 50.4193L21.7646 50.3109C21.812 50.2705 21.8723 50.2483 21.9346 50.2483C21.9968 50.2483 22.0571 50.2705 22.1046 50.3109C22.6385 50.1321 23.1557 49.9064 23.6502 49.6368C22.7989 47.6423 22.3725 45.4916 22.3982 43.3223C22.3622 42.3321 22.225 41.3481 21.9887 40.3859C21.7646 39.3554 21.5713 38.3249 21.4245 37.2867C21.2586 36.2606 21.1503 35.2259 21.1 34.1876C21.1 33.4128 21.324 32.4985 22.1973 32.3978C23.0706 32.297 23.6579 33.0487 24.0443 33.6685C24.5189 34.532 24.9072 35.4403 25.2036 36.3803C25.9764 38.4102 26.5792 40.4711 27.2052 42.532C27.3289 42.9349 26.7183 43.1752 26.5947 42.7645C25.961 40.7036 25.3273 38.6427 24.5931 36.6128C24.3209 35.7514 23.9716 34.9164 23.5497 34.118C23.3446 33.7126 23.0317 33.3721 22.6456 33.134C22.2128 32.917 21.8728 33.1959 21.78 33.6453C21.7145 34.1052 21.7145 34.5722 21.78 35.0322C21.8264 35.5048 21.8805 35.9775 21.9346 36.4423C22.0505 37.3566 22.1896 38.2629 22.3674 39.1616C22.5451 40.0604 22.7692 40.905 22.9083 41.7805C22.9972 42.6427 23.0359 43.5094 23.0243 44.3761C23.1049 46.1762 23.5382 47.9427 24.2994 49.5749C24.3338 49.6042 24.3605 49.6414 24.3773 49.6833C24.3942 49.7253 24.4006 49.7707 24.396 49.8157C24.3915 49.8607 24.376 49.9038 24.3511 49.9415C24.3262 49.9792 24.2926 50.0102 24.253 50.0319L24.1062 50.1095L24.4153 50.2567C24.4254 50.2116 24.4458 50.1695 24.4748 50.1335C24.5038 50.0976 24.5405 50.0688 24.5823 50.0493C24.6241 50.0299 24.6699 50.0203 24.7159 50.0213C24.762 50.0224 24.8072 50.0339 24.8481 50.0552C27.9394 51.6048 31.4016 50.0553 34.1219 48.436C36.6588 47.0591 38.8416 45.1095 40.4976 42.7413C41.3243 41.5815 41.7528 40.184 41.7186 38.7589C41.7227 38.0163 41.4467 37.2994 40.9458 36.7522C40.6962 36.5881 40.412 36.4845 40.1155 36.4495C39.8191 36.4145 39.5187 36.4492 39.2379 36.5507C38.5965 36.7057 37.9705 36.9614 37.3523 37.1783C36.734 37.3953 35.9457 37.6897 35.2502 37.9531C33.8753 38.4924 32.5597 39.1726 31.3243 39.983C29.0126 41.7017 27.1924 43.9997 26.046 46.6462C25.8682 47.0259 25.2732 46.7546 25.4509 46.375C26.1941 44.7625 27.1366 43.25 28.2562 41.8734C29.418 40.5285 30.817 39.4098 32.383 38.573C32.9163 38.2863 33.4572 38.0306 34.0059 37.7982C33.1007 37.1844 32.3381 36.3821 31.7699 35.4462C31.2018 34.5103 30.8416 33.4628 30.7137 32.3747C30.6837 30.3 31.2181 28.2561 32.2594 26.463C33.2621 24.7452 34.5507 23.2122 36.0694 21.9304C37.53 20.6055 39.037 19.1644 39.4079 17.1345C39.5743 16.0356 39.5272 14.9148 39.2689 13.8339C39.1915 13.8568 39.1083 13.8484 39.037 13.8106Z" fill="#ECB840"/>
</svg>
