<svg width="41" height="37" viewBox="0 0 43 39" fill="none" xmlns="http://www.w3.org/2000/svg">
  <path
    d="M17.0089 2.21615C18.1706 3.15088 19.1148 4.3275 19.7759 5.66403L19.5 11C18.1332 13.1479 15.6611 14.4665 16 16.5C16.5 19.5 18 20 18.7707 22.5C19.4108 24.5761 15 24.8275 15 27C15 29.5 18 33 18 33L20.3172 33.6631C20.486 33.9053 20.5765 34.1935 20.5767 34.4886C20.5769 34.7838 20.4868 35.0719 20.3184 35.3144C20.1501 35.5568 19.9115 35.7419 19.6348 35.8448C19.3581 35.9477 19.0566 35.9635 18.7707 35.89C14.0741 34.5579 9.85807 31.9066 6.62304 28.2504C1.38819 22.3274 -2.88003 11.2778 2.45534 4.11754C3.6668 2.5279 5.30846 1.31883 7.18598 0.633609C9.06349 -0.0516155 11.0981 -0.184282 13.0487 0.25133C14.4958 0.611014 15.8471 1.28142 17.0089 2.21615Z"
    fill="#DB3C17" />
  <path
    d="M18.4314 6.32907L19.5272 8.54458L20.9866 6.54963C22.0552 5.08877 23.4776 3.92346 25.1202 3.16324C26.7553 2.4065 28.5552 2.07576 30.3521 2.20173C32.4418 2.42837 34.3978 3.34095 35.9142 4.79718C37.4311 6.25387 38.4223 8.17212 38.7331 10.2517C39.2522 14.8221 35.8827 18.7895 31.8926 21.7669L31.892 21.7673C30.839 22.5539 29.712 23.2872 28.5351 24.0459C28.4602 24.0942 28.385 24.1426 28.3096 24.1912C27.2154 24.8962 26.0803 25.6275 24.9933 26.4132C22.6639 28.0969 20.4255 30.1185 18.978 32.9874L18.575 33.7863L18.9988 34.3947C14.6513 33.1247 10.7501 30.6508 7.74698 27.2571C5.27955 24.4652 3.02701 20.4395 2.03401 16.2982C1.04081 12.1559 1.34962 8.11701 3.65328 5.02033C4.69045 3.66191 6.09467 2.62867 7.70024 2.0427C9.30275 1.45784 11.0389 1.34296 12.7043 1.71137C13.9334 2.01957 15.0812 2.59042 16.0685 3.38483C17.0605 4.18298 17.8668 5.18773 18.4314 6.32907Z"
    stroke="#5C3210" stroke-width="3" />
</svg>