<svg width="41" height="37" viewBox="0 0 43 39" fill="none" xmlns="http://www.w3.org/2000/svg">
  <path
    d="M37.4111 14.9486C35.5487 19.2331 31.2286 21.7513 27.4959 24.1764C23.7632 26.6015 20.2701 29.1582 18.3767 33.1716C14.6899 31.7391 11.4322 29.3805 8.91639 26.3224C6.40058 23.2642 4.71106 19.6091 4.00997 15.7078C3.23716 11.1366 4.11823 5.54261 9.09516 3.87682C13.678 2.32725 18.0521 5.58922 18.7244 10.1992C18.8028 10.47 18.9584 10.712 19.172 10.8955C19.3855 11.079 19.6479 11.196 19.9268 11.2322C20.2058 11.2684 20.4892 11.2222 20.7424 11.0992C20.9955 10.9763 21.2074 10.782 21.352 10.5401C23.1218 6.37946 27.6505 3.10206 32.2951 4.48118C33.3579 4.76888 34.347 5.28103 35.1965 5.98308C36.0459 6.68514 36.7359 7.56095 37.2203 8.55203C37.7047 9.5431 37.9723 10.6265 38.0052 11.7297C38.0381 12.8328 37.8356 13.9302 37.4111 14.9486Z"
    fill="#DB3C17" />
  <path
    d="M18.4314 6.32907L19.5272 8.54458L20.9866 6.54963C22.0552 5.08877 23.4776 3.92346 25.1202 3.16324C26.7553 2.4065 28.5552 2.07576 30.3521 2.20173C32.4418 2.42837 34.3978 3.34095 35.9142 4.79718C37.4311 6.25387 38.4223 8.17212 38.7331 10.2517C39.2522 14.8221 35.8827 18.7895 31.8926 21.7669L31.892 21.7673C30.839 22.5539 29.712 23.2872 28.5351 24.0459C28.4602 24.0942 28.385 24.1426 28.3096 24.1912C27.2154 24.8962 26.0803 25.6275 24.9933 26.4132C22.6639 28.0969 20.4255 30.1185 18.978 32.9874L18.575 33.7863L18.9988 34.3947C14.6513 33.1247 10.7501 30.6508 7.74698 27.2571C5.27955 24.4652 3.02701 20.4395 2.03401 16.2982C1.04081 12.1559 1.34962 8.11701 3.65328 5.02033C4.69045 3.66191 6.09467 2.62867 7.70024 2.0427C9.30275 1.45784 11.0389 1.34296 12.7043 1.71137C13.9334 2.01957 15.0812 2.59042 16.0685 3.38483C17.0605 4.18298 17.8668 5.18773 18.4314 6.32907Z"
    stroke="#5C3210" stroke-width="3" />
</svg>