<svg width="61" height="88" viewBox="0 0 61 88" fill="none" xmlns="http://www.w3.org/2000/svg">
<path d="M54.0306 17.0851C54.7681 14.6604 55.1864 12.1496 55.2748 9.61621C55.3057 8.37793 55.267 7.13886 55.1589 5.90495C54.9521 4.67578 55.1079 3.41288 55.6071 2.27124C55.9703 1.58943 55.0043 1.10133 54.5793 1.70566C54.1542 2.31 53.0955 2.55778 52.3613 2.90643C51.7622 3.19917 51.2121 3.58356 50.7307 4.04554C49.8505 4.87035 49.3009 5.98875 49.185 7.19103C49.0921 7.19267 49.0024 7.22548 48.93 7.28409C47.7906 8.1512 46.8963 9.301 46.3352 10.6203C45.7742 11.9395 45.5658 13.3826 45.7306 14.8073C45.7427 14.9198 45.786 15.0265 45.8557 15.1156C45.9254 15.2046 46.0186 15.2723 46.1247 15.3108C46.8203 16.7984 48.3272 17.5112 49.8187 18.007C51.0629 18.4254 52.5082 18.5649 53.3737 17.4957C53.5144 17.5205 53.6593 17.4923 53.7805 17.4165C53.9017 17.3407 53.9908 17.2227 54.0306 17.0851Z" fill="#4F2216"/>
<path d="M36.318 77.2475C38.6364 74.0941 39.3011 69.7009 39.7571 65.889C40.2273 61.9451 40.2065 57.9581 39.6952 54.0193C40.1429 51.4379 40.9876 48.9418 42.1991 46.6201C43.4588 44.2182 45.3291 42.2503 46.6197 39.8872C48.003 37.3537 49.1081 34.6418 50.2364 31.992C51.3647 29.3422 52.5008 26.5685 53.6136 23.8645C53.6541 23.7541 53.6633 23.6346 53.64 23.5193C53.6168 23.404 53.5619 23.2975 53.4818 23.2115C53.4017 23.1256 53.2994 23.0635 53.1862 23.0324C53.073 23.0013 52.9534 23.0025 52.8408 23.0356C51.952 22.1071 50.9497 21.2948 49.8577 20.6182C48.6253 19.9503 47.2547 19.579 45.8545 19.5336H45.7309C45.6629 19.4563 45.5745 19.3998 45.4759 19.3705C45.3774 19.3412 45.2727 19.34 45.1736 19.3675C45.0745 19.3949 44.9851 19.4499 44.9156 19.5258C44.846 19.6017 44.7992 19.6955 44.7804 19.7969C44.564 21.1062 43.5052 22.0128 42.6397 22.9425C41.7741 23.8723 40.8544 24.833 39.9657 25.7859C38.1946 27.7823 36.3246 29.6881 34.3627 31.4962C32.2001 33.2194 29.9397 34.8155 27.5929 36.2766L20.6839 40.9253C20.595 40.9828 20.523 41.0631 20.4753 41.1578C13.6936 43.1973 7.87534 47.6246 4.09161 53.6242C3.09882 55.1359 2.39635 56.8202 2.02043 58.5905C1.70691 60.3808 1.55949 62.1964 1.57996 64.014C1.48581 67.5001 1.82058 70.9844 2.57683 74.3883C3.30328 77.4875 4.3621 81.4158 7.27561 83.19C8.75595 83.9649 10.3541 84.4885 12.0052 84.7396C13.7441 85.127 15.4133 85.8398 17.1676 86.1342C20.568 86.7153 24.2312 85.3594 27.2838 83.9648C30.6456 82.4695 34.0846 80.2769 36.318 77.2475Z" fill="#452C15"/>
<path d="M5.47463 82.8815C3.34166 80.7973 2.42977 77.5586 1.74196 74.5989C0.969348 71.1264 0.624194 67.5721 0.714153 64.0154C0.702734 62.1509 0.857898 60.2892 1.17782 58.4524C1.57557 56.5843 2.3144 54.8059 3.35712 53.2071C7.20698 47.1268 13.0839 42.6133 19.9418 40.4696C20.0175 40.387 20.1032 40.3141 20.1968 40.2527L27.1058 35.5652L28.86 34.403C30.5815 33.3301 32.2287 32.1419 33.7906 30.8467C35.3313 29.4621 36.7942 27.993 38.1725 26.4459L39.3317 25.1984L42.0056 22.3473L42.392 21.9521C43.1284 21.3505 43.667 20.5406 43.9377 19.6277C43.9733 19.3891 44.0725 19.1644 44.2248 18.9776C44.3772 18.7908 44.577 18.6488 44.8032 18.5664C44.9945 18.5038 45.1965 18.4804 45.397 18.4977C45.5975 18.515 45.7924 18.5726 45.9702 18.667C47.4751 18.7271 48.9458 19.1355 50.2671 19.8602C51.3005 20.4992 52.2528 21.2615 53.1033 22.1303C53.439 22.1499 53.758 22.2838 54.0075 22.5099C54.2363 22.7114 54.3965 22.9797 54.4658 23.277C54.5351 23.5743 54.5099 23.8858 54.3939 24.1681C53.3042 26.8334 52.1759 29.5916 51.0244 32.2878C50.8544 32.6675 50.6998 33.0626 50.5376 33.4345C49.5715 35.7046 48.5746 38.0833 47.369 40.2604C46.7054 41.4205 45.9671 42.5358 45.1588 43.5996C44.3458 44.6736 43.6073 45.8024 42.9485 46.9778C41.7983 49.1866 40.9929 51.5593 40.5605 54.0129C41.0434 57.9806 41.0434 61.9924 40.5605 65.9601C40.0582 70.1207 39.3781 74.4827 36.9669 77.7136C34.9189 80.495 31.7582 82.8427 27.5772 84.6866C24.3391 86.1355 20.5523 87.5302 16.9819 86.9259C15.9714 86.7344 14.9749 86.4756 13.9988 86.1511C13.226 85.9187 12.515 85.6939 11.7731 85.5312L11.4022 85.4459C9.78103 85.1927 8.21369 84.669 6.76527 83.8963C6.3001 83.6053 5.86739 83.2651 5.47463 82.8815ZM21.1783 41.6086L21.0469 41.8796L20.6992 41.9882C14.1143 43.9772 8.4616 48.2721 4.77144 54.0903C3.84228 55.5214 3.17979 57.1096 2.81619 58.7778C2.51388 60.5172 2.37156 62.2809 2.3911 64.0464C2.29494 67.4621 2.62203 70.8765 3.36486 74.2115C4.13767 77.4036 5.11922 80.9291 7.68497 82.4941C8.96596 83.1719 10.3499 83.6327 11.7808 83.8578L12.1595 83.9429C12.9323 84.1211 13.7515 84.3613 14.478 84.6015C15.3831 84.9055 16.3074 85.1487 17.2447 85.3298C20.3746 85.8566 23.8754 84.555 26.8817 83.2146C30.7458 81.4868 33.7598 79.2554 35.6068 76.7528C37.7707 73.8164 38.4121 69.7333 38.8835 65.7897C39.3485 61.9156 39.3303 57.9986 38.8294 54.1291V54.0052V53.8811C39.286 51.21 40.1569 48.6272 41.4106 46.2263C42.1012 44.9816 42.8758 43.7855 43.729 42.6467C44.4967 41.6393 45.199 40.5836 45.8311 39.4857C46.9904 37.355 47.9718 35.0383 48.9224 32.8069L49.4093 31.6602C50.4912 29.1344 51.55 26.5543 52.5778 24.044L52.1604 23.6333C51.3194 22.748 50.3749 21.9676 49.3474 21.309C48.2357 20.7025 46.9959 20.3705 45.7307 20.3405L45.406 20.387C45.0086 21.4324 44.3642 22.3656 43.5282 23.1065L43.1571 23.4939L40.4832 26.3373L39.3317 27.5771C37.9103 29.1662 36.4064 30.6792 34.8262 32.1097C33.2038 33.4506 31.4947 34.6826 29.7102 35.7977L27.979 36.9443L21.1783 41.6086Z" fill="#321811"/>
<path d="M32.3146 78.6423C34.4244 75.7679 34.4167 72.2117 33.6593 68.8646C33.1725 66.7339 32.0132 65.1146 30.7226 63.3946C29.3594 61.5821 28.0878 59.7022 26.9127 57.7618C24.5795 53.8662 22.4889 49.8297 20.6528 45.6753C20.6284 45.6081 20.5892 45.5474 20.5381 45.4976C20.4869 45.4479 20.4251 45.4103 20.3574 45.3879C20.2897 45.3656 20.2179 45.359 20.1472 45.3685C20.0766 45.3779 20.009 45.4033 19.9496 45.4428C17.2757 43.8932 14.0607 45.2182 11.835 47.0467C8.92 49.4975 6.74858 52.7185 5.56741 56.3441C4.23333 59.9076 3.70541 63.7235 4.02178 67.5165C4.32717 71.2393 5.48841 74.8406 7.41445 78.0382C9.23057 80.8584 12.1441 83.2756 15.56 83.694C16.2372 83.8008 16.9299 83.7505 17.5847 83.5468C18.3229 83.1946 18.9608 82.6617 19.4395 81.9972C20.2123 81.2224 20.8769 81.4471 21.758 81.7647C22.506 82.033 23.2851 82.205 24.0764 82.2762C25.6449 82.4267 27.2256 82.1718 28.6678 81.5357C30.11 80.8995 31.3656 79.9033 32.3146 78.6423Z" fill="#E9D0AA"/>
<path d="M9.11455 81.308C8.29651 80.506 7.57065 79.6144 6.95063 78.6503C4.96126 75.3548 3.76032 71.6421 3.44201 67.8033C3.05561 64.3323 3.55794 60.6831 4.98765 56.3133C6.2049 52.5399 8.45732 49.1862 11.4871 46.6363C14.4469 44.2112 17.6696 43.537 20.1658 44.7999C20.4337 44.7535 20.7094 44.8004 20.9471 44.9329C21.1847 45.0654 21.3699 45.2755 21.4719 45.5282C23.2793 49.6573 25.3442 53.6683 27.6544 57.5374C28.86 59.5208 30.1274 61.4115 31.418 63.1082C32.8013 64.9445 33.9837 66.6412 34.5093 68.8649C35.4753 73.1184 34.9806 76.6127 33.0332 79.2547C32.0145 80.6268 30.6619 81.7141 29.1045 82.4127C27.5472 83.1112 25.8373 83.3978 24.138 83.245C23.2915 83.1662 22.4581 82.9814 21.6573 82.6949C20.7222 82.3695 20.4827 82.3385 20.1117 82.6949L19.8103 83.028C19.333 83.6531 18.6943 84.1354 17.9633 84.4227C17.2005 84.6701 16.3904 84.7338 15.5985 84.6086C13.1362 84.2459 10.8595 83.087 9.11455 81.308ZM20.2431 46.3805L20.0962 46.4581L19.7408 46.2489C16.8041 44.5598 13.4346 47.0236 12.4763 47.7984C9.66122 50.1671 7.57149 53.2854 6.44828 56.7936C5.04948 60.9465 4.57034 64.3865 4.90265 67.6406C5.19979 71.2465 6.32099 74.7354 8.17938 77.837C10.1037 80.8121 12.9555 82.8032 15.7917 83.1519C16.3572 83.2447 16.9365 83.205 17.4841 83.0358C17.9678 82.824 18.3866 82.4871 18.6975 82.0595L19.0375 81.6954C20.1194 80.5565 21.2555 80.9206 22.1287 81.2692C22.8146 81.5168 23.5285 81.6781 24.254 81.7495C25.6966 81.8754 27.1474 81.6299 28.4688 81.036C29.7902 80.4421 30.9384 79.5196 31.8044 78.356C33.4969 76.0316 33.8987 73.0564 33.0177 69.2057C32.5772 67.2688 31.5339 65.7735 30.2124 64.0147C28.8908 62.2559 27.6002 60.3499 26.3483 58.3277C24.0687 54.4757 22.0298 50.4857 20.2431 46.3805Z" fill="#ECB840"/>
<path d="M54.4944 16.0091C55.2381 13.5856 55.659 11.0741 55.7463 8.54004C55.7707 7.30164 55.7294 6.06297 55.6226 4.82897C55.4199 3.59972 55.5756 2.33778 56.0709 1.19507C56.4419 0.513257 55.4758 0.0251558 55.0508 0.62949C54.6257 1.23382 53.5592 1.48179 52.8251 1.83045C52.2272 2.12133 51.6794 2.50576 51.2022 2.96936C50.322 3.79418 49.7724 4.91277 49.6565 6.11505C49.5634 6.11546 49.4732 6.14822 49.4016 6.20792C48.2613 7.07467 47.3659 8.22435 46.8035 9.54352C46.2411 10.8627 46.0312 12.306 46.1944 13.7313C46.2871 14.5061 47.4618 14.4673 47.3691 13.7313C47.2361 12.7007 47.3282 11.6534 47.6391 10.662C47.9501 9.67065 48.4723 8.75883 49.1697 7.98997C49.1733 8.01308 49.1733 8.03667 49.1697 8.05977C48.5197 9.05909 48.2006 10.2383 48.2578 11.43C48.3428 12.2048 49.5174 12.2048 49.4247 11.43C49.3851 10.3143 49.7319 9.2193 50.4062 8.33084C50.6657 9.37073 50.872 10.4233 51.0244 11.4843C51.0409 11.6278 51.1095 11.7602 51.2171 11.8563C51.3247 11.9525 51.4638 12.0058 51.6079 12.0058C51.752 12.0058 51.8912 11.9525 51.9988 11.8563C52.1063 11.7602 52.1749 11.6278 52.1914 11.4843C52.1373 10.2059 51.5809 9.02815 51.5113 7.7575C51.5047 7.61689 51.448 7.48342 51.3516 7.38108C51.2552 7.27874 51.1254 7.21434 50.9858 7.19968C50.9387 7.10802 50.8709 7.0287 50.7877 6.96815C50.7044 6.90759 50.6081 6.86752 50.5066 6.85106C50.5922 6.80332 50.6638 6.73377 50.714 6.64942C50.7642 6.56507 50.7913 6.46901 50.7926 6.37079C50.849 5.70987 51.0668 5.07296 51.4266 4.51629C51.7864 3.95963 52.2773 3.5002 52.856 3.17857C53.371 2.88397 53.9054 2.6251 54.4557 2.40378C54.1852 4.13156 54.5716 6.00664 54.5639 7.72667C54.5508 10.4433 54.1368 13.1428 53.3351 15.7379C53.1342 16.4429 54.2702 16.7452 54.4944 16.0091Z" fill="#321811"/>
<path d="M56.8133 20.6195C56.9025 20.5332 56.9629 20.4214 56.9864 20.2994C57.0099 20.1774 56.9954 20.0512 56.9447 19.9378C56.8835 19.7879 56.8111 19.6428 56.7283 19.5038C56.7327 19.4704 56.7327 19.4364 56.7283 19.403C56.7123 19.3219 56.6763 19.2462 56.6237 19.1826C56.571 19.119 56.5034 19.0696 56.4269 19.0389C56.4269 19.0389 56.4268 19.0001 56.3805 18.9846C56.4514 18.9779 56.52 18.9559 56.5814 18.9197C56.6428 18.8836 56.6957 18.8344 56.736 18.7756C57.8702 17.2761 59.1661 15.9068 60.6001 14.6924C61.172 14.2043 60.3296 13.3907 59.7578 13.8711C58.4702 14.9669 57.2901 16.1836 56.2337 17.5048C55.8934 17.1313 55.4791 16.8329 55.0174 16.6288C54.5557 16.4247 54.0567 16.3194 53.5521 16.3194C52.3542 16.2341 50.7158 16.2187 49.688 16.9703C49.7885 16.6216 49.858 16.2575 49.9739 15.8624C50.1749 15.1418 49.0466 14.8551 48.8379 15.5834C48.6293 16.3117 48.6834 16.9392 48.0651 17.4738C47.7309 17.7624 47.349 17.9906 46.9367 18.1479C47.2765 17.9209 47.5681 17.6285 47.7946 17.2878C48.1205 16.867 48.3131 16.3578 48.3476 15.826C48.382 15.2943 48.2566 14.7646 47.9878 14.305C47.5473 13.7084 46.5272 14.305 46.9754 14.8939C47.1252 15.0975 47.2015 15.346 47.1918 15.5989C47.1419 15.4853 47.0546 15.3922 46.9445 15.3354C46.5134 15.1146 46.0484 14.9681 45.5688 14.9016C45.0765 14.8873 44.5891 15.0021 44.1546 15.2347C44.0286 15.3135 43.9369 15.4371 43.8982 15.5809C43.8595 15.7247 43.8766 15.8779 43.946 16.0095C44.0258 16.1345 44.1492 16.2251 44.2921 16.2638C44.435 16.3024 44.5871 16.2865 44.7188 16.2187C44.9573 16.0956 45.2236 16.0369 45.4916 16.0483C45.7767 16.1048 46.0526 16.2012 46.3108 16.3349C46.4093 16.3842 46.519 16.4066 46.6289 16.3998C46.7388 16.393 46.845 16.3572 46.9367 16.2961C46.8601 16.466 46.7614 16.625 46.6431 16.7688C46.3951 17.0369 46.0952 17.2514 45.7617 17.3993C45.4282 17.5471 45.068 17.6251 44.7033 17.6287C43.9305 17.7062 43.9305 18.8761 44.7033 18.7986C44.9897 18.7729 45.2739 18.7264 45.5535 18.6592C45.5009 18.7624 45.4783 18.8782 45.4881 18.9937C45.4979 19.1091 45.5397 19.2194 45.6089 19.3122C45.6781 19.405 45.7719 19.4765 45.8796 19.5186C45.9873 19.5606 46.1045 19.5717 46.2181 19.5504C47.1794 19.3567 48.0741 18.9161 48.8147 18.2718C49.0148 18.0794 49.1843 17.8574 49.3171 17.6134C49.3477 17.7673 49.4328 17.9048 49.5566 18.0008C49.4734 18.0692 49.4106 18.1593 49.375 18.2611C49.3394 18.3629 49.3324 18.4724 49.3547 18.5779C49.377 18.6834 49.4278 18.7808 49.5016 18.8594C49.5753 18.9379 49.6693 18.9947 49.773 19.0234C51.1254 19.372 51.906 20.2165 52.8642 21.154C52.7868 21.1932 52.7181 21.2478 52.6624 21.3144C52.6066 21.381 52.5648 21.4582 52.5396 21.5414C52.5084 21.6931 52.5358 21.851 52.6161 21.9833C52.6964 22.1156 52.8238 22.2125 52.9724 22.2544C52.9183 22.2544 52.9029 22.2544 52.9724 22.2544C52.9937 22.2726 53.017 22.2881 53.042 22.3007L53.2197 22.4325C53.3846 22.558 53.5846 22.6285 53.7916 22.634C54.01 22.6226 54.2213 22.5525 54.4035 22.4312C54.5856 22.3099 54.732 22.1417 54.8272 21.9443C54.8938 21.8355 54.9159 21.705 54.889 21.5802C55.0695 21.7351 55.3006 21.8179 55.5381 21.8127C56.4578 21.8204 56.7515 21.2393 56.8133 20.6195ZM54.974 19.3101C55.2412 19.4811 55.468 19.7084 55.6386 19.9763C55.6421 20.0228 55.6421 20.0695 55.6386 20.1159C55.6693 20.1841 55.6852 20.2579 55.6852 20.3327C55.6852 20.4075 55.6693 20.4815 55.6386 20.5497C55.329 20.194 55.0425 19.8187 54.7808 19.4263C54.7344 19.3475 54.6956 19.2644 54.6649 19.1783C54.7674 19.2052 54.8681 19.239 54.9663 19.2791L54.974 19.3101ZM53.807 21.3477L53.668 21.2626C53.7516 21.2231 53.8243 21.1638 53.8801 21.0899C53.9358 21.016 53.9729 20.9297 53.9881 20.8383C54.0033 20.7469 53.9962 20.6532 53.9673 20.5652C53.9385 20.4772 53.8888 20.3973 53.8225 20.3327C53.2697 19.7436 52.6756 19.1948 52.045 18.6903C51.5237 18.3316 50.9427 18.0693 50.3294 17.9155C51.0753 17.5328 51.9137 17.3689 52.7483 17.4428C53.4206 17.4428 54.7808 17.4428 55.2677 18.1014C55.0232 17.9838 54.7628 17.9028 54.4949 17.8612C53.2584 17.6985 53.2738 18.9846 53.6525 19.8059C53.8991 20.2813 54.2113 20.7195 54.5799 21.1075C54.4618 21.0932 54.3422 21.1135 54.2352 21.1658C54.1283 21.218 54.0386 21.3 53.977 21.402L53.807 21.3477Z" fill="#DB3C17"/>
<path d="M46.4415 13.2514C46.0344 12.9221 45.603 12.6243 45.1509 12.3605C44.9542 12.2484 44.7318 12.1895 44.5055 12.1895C44.2793 12.1895 44.057 12.2484 43.8603 12.3605C43.7328 12.4379 43.64 12.5616 43.6011 12.7059C43.5622 12.8501 43.5803 13.004 43.6516 13.1352C43.7289 13.2629 43.8518 13.3564 43.9953 13.3967C44.1388 13.4369 44.2922 13.4211 44.4244 13.3522C44.5944 13.267 44.7103 13.4142 44.8881 13.5381C45.0658 13.6621 45.3673 13.8557 45.5991 14.0339C45.7118 14.1379 45.8595 14.1956 46.0126 14.1956C46.1658 14.1956 46.3134 14.1379 46.4261 14.0339C46.5224 13.9273 46.5769 13.7894 46.5797 13.6456C46.5826 13.5018 46.5334 13.3618 46.4415 13.2514Z" fill="#DB3C17"/>
<path d="M14.9494 60.7914C16.1748 59.325 17.1869 57.692 17.9557 55.9412C19.1999 52.7181 18.7285 49.2315 16.8274 47.0466C16.7542 46.9654 16.6574 46.9091 16.5508 46.8855C16.4441 46.8619 16.3329 46.872 16.2323 46.9148H16.0778C12.9865 47.7748 9.38519 49.6499 7.83183 52.9892C7.21096 54.436 6.86503 55.9862 6.81176 57.5604C6.68811 59.3579 6.65716 61.1708 6.67262 62.9451C6.67262 64.2932 6.85038 65.781 7.84731 66.5712C8.84424 67.3615 10.0962 66.9664 11.0622 65.7965C12.4147 64.2004 13.6588 62.4572 14.9494 60.7914Z" fill="#DB3C17"/>
<path d="M16.5719 65.457C16.9395 65.6746 17.2495 65.9774 17.476 66.3401C17.7774 66.6965 18.0866 67.1149 18.6044 67.0606C18.8176 67.0391 19.0193 66.9537 19.1833 66.8155C19.3474 66.6773 19.4661 66.4927 19.524 66.2859C19.7945 65.3716 19.0681 64.0701 18.5967 63.3263C18.3208 62.8503 17.8853 62.4878 17.3678 62.3035C17.3597 62.1996 17.324 62.0996 17.2641 62.0143C17.2043 61.929 17.1227 61.8615 17.0278 61.8187C16.933 61.7759 16.8284 61.7596 16.7251 61.7712C16.6218 61.7829 16.5234 61.8222 16.4405 61.8851C15.6677 62.4739 14.4235 63.2332 14.7249 64.3954C14.7855 64.5925 14.899 64.7691 15.0531 64.9058C15.2071 65.0424 15.3957 65.1339 15.5981 65.1702C15.9302 65.2381 16.256 65.3341 16.5719 65.457Z" fill="#DB3C17"/>
<path d="M20.8533 75.3192C20.868 73.7363 20.6065 72.163 20.0805 70.6704C19.8475 69.93 19.4475 69.2531 18.9114 68.6928C18.3752 68.1325 17.7175 67.7036 16.9892 67.4394C16.9123 67.4291 16.8344 67.4291 16.7574 67.4394C15.8455 66.9281 14.5781 66.3781 13.7744 66.998C13.3073 67.4654 12.9207 68.0073 12.6306 68.6016L11.1545 70.926C10.3199 72.2354 9.24567 73.5914 8.8979 75.1332C8.77606 75.7537 8.78172 76.3925 8.9146 77.0106C9.04748 77.6288 9.30479 78.2131 9.67071 78.7282C10.9845 80.7736 13.2797 83.253 15.9073 81.9049C18.2103 80.6962 20.8147 78.0154 20.8533 75.3192Z" fill="#DB3C17"/>
<path d="M21.3634 70.3056L21.2243 70.6544C20.8378 71.5454 22.2754 71.9483 22.654 71.0728C23.2105 69.7944 23.8673 66.8889 21.8193 66.517C20.8688 66.3465 20.4901 67.1601 20.3974 67.9659C20.3671 68.4042 20.4386 68.8436 20.6062 69.2495C20.7739 69.6555 21.033 70.0169 21.3634 70.3056Z" fill="#DB3C17"/>
<path d="M8.96809 71.7559C9.06543 71.4164 9.13268 71.069 9.16903 70.7176C9.17888 70.4837 9.10715 70.2536 8.96611 70.0669C8.82507 69.8803 8.62353 69.7489 8.39623 69.6951C8.32995 69.6194 8.24454 69.5631 8.14897 69.5322C7.56884 69.3056 6.93014 69.2784 6.33291 69.4548C5.66057 69.6718 5.56007 70.2296 5.71463 70.834C5.79319 71.4449 6.06389 72.0147 6.48743 72.4609C6.79232 72.6343 7.13323 72.7343 7.48324 72.7531C7.83325 72.772 8.18279 72.7091 8.50443 72.5695C8.63484 72.4746 8.74363 72.353 8.82357 72.2127C8.90351 72.0725 8.95277 71.9167 8.96809 71.7559Z" fill="#DB3C17"/>
<path d="M23.01 78.9678V78.867C23.052 78.7842 23.0739 78.6927 23.0739 78.5997C23.0739 78.5068 23.052 78.4153 23.01 78.3325C22.9707 78.2422 22.9123 78.1614 22.8389 78.0958C22.7655 78.0303 22.6789 77.9816 22.5849 77.9528C22.5222 77.9167 22.4529 77.8941 22.3811 77.8861C22.3093 77.8781 22.2366 77.8849 22.1676 77.9063L22.0517 77.9528H21.9821C21.3639 78.1775 20.622 78.4487 20.506 79.084C20.431 79.1184 20.3639 79.1681 20.309 79.2298C20.2541 79.2916 20.2126 79.3641 20.1872 79.4428C20.1617 79.5215 20.1529 79.6045 20.1612 79.6868C20.1696 79.7691 20.1949 79.8489 20.2356 79.9208C20.5679 80.5639 21.2171 81.1604 21.9744 80.7807C22.2843 80.5893 22.5414 80.3232 22.7223 80.0065C22.9032 79.6898 23.0021 79.3327 23.01 78.9678Z" fill="#DB3C17"/>
<path d="M32.7473 72.8098C32.8137 71.1324 32.5511 69.4581 31.9744 67.8821L31.9049 67.7582C31.9625 67.6149 31.9709 67.4564 31.929 67.3078C31.887 67.1591 31.797 67.0286 31.673 66.9368C30.5602 66.1233 29.4783 64.9147 28.0718 66.0149C26.8639 67.1258 25.8549 68.4361 25.0886 69.8888C23.4734 72.5773 23.0638 75.7617 24.8104 78.241C25.1355 78.797 25.6083 79.2515 26.1759 79.5538C26.7436 79.8561 27.3839 79.9944 28.0254 79.9533C28.7049 79.8305 29.3528 79.5717 29.9304 79.1923C30.508 78.8129 31.0034 78.3207 31.3871 77.7451C32.339 76.2807 32.8142 74.5564 32.7473 72.8098Z" fill="#DB3C17"/>
<path d="M25.2354 56.9795C25.2544 56.8568 25.2269 56.7315 25.1582 56.6282C25.0895 56.5249 24.9847 56.4512 24.8644 56.4217C24.5012 54.5467 23.5583 52.6407 21.3481 52.7026C19.1378 52.7646 18.3959 57.181 18.45 59.2032C18.5041 61.2254 19.8875 63.6194 22.0359 63.7201C24.4162 63.8286 25.0345 59.0094 25.2354 56.9795Z" fill="#DB3C17"/>
<path d="M28.2186 63.822C28.3118 63.7765 28.3907 63.7061 28.4466 63.6187C28.5024 63.5312 28.5332 63.4301 28.5355 63.3262C28.5896 62.2958 27.7626 61.0017 26.6266 61.4511C25.4351 62.0762 24.528 63.1355 24.0919 64.4109C23.7518 65.4878 24.2464 66.6035 25.4983 66.2935C26.1404 66.1035 26.7373 65.7846 27.2526 65.3561C27.7936 64.9067 27.8322 64.3721 28.2186 63.822Z" fill="#DB3C17"/>
</svg>
