<svg width="55" height="33" viewBox="0 0 55 33" fill="none" xmlns="http://www.w3.org/2000/svg">
<path d="M11.094 23.535C10.9429 23.5124 10.7892 23.5124 10.638 23.535C8.86039 22.5353 7.21223 21.3199 5.73066 19.9166C3.88363 18.0261 3.66726 16.0427 3.47405 14.0902C3.18908 12.1011 3.45648 10.0719 4.24687 8.2252C5.21976 6.3879 6.43641 4.69118 7.86364 3.18133C7.9379 3.09304 7.98608 2.98559 8.00274 2.87131C10.5994 1.73237 14.3012 2.41421 17.0679 4.63784C18.2546 5.53348 19.2285 6.68181 19.9194 8.00011C20.6102 9.31841 21.0009 10.7739 21.0633 12.2618C21.0633 15.0433 19.8887 17.476 18.5517 19.7384C17.2147 22.0008 15.1049 24.395 11.094 23.535Z" fill="#DC2E15"/>
<path d="M40.151 28.425C37.392 31.1445 31.8046 30.8269 26.874 29.8739C22.4172 28.9396 18.0688 27.5452 13.8984 25.7132C15.2061 25.6308 16.4761 25.2406 17.6053 24.5743C18.7345 23.908 19.6912 22.9843 20.3978 21.878C22.3762 18.9803 24.0223 15.548 23.605 11.7593C23.1303 8.62144 21.5144 5.77075 19.0686 3.75586C23.7007 5.14756 28.2132 6.91192 32.562 9.03202C37.1525 11.2789 43.165 14.0759 44.4246 18.3295C45.6843 22.583 42.7785 25.7907 40.151 28.425Z" fill="#924B15"/>
<path d="M47.2773 19.8703C46.9804 17.788 46.0367 15.8525 44.5802 14.3384C42.6945 12.3162 39.8969 10.8055 37.3544 9.39537C30.6568 5.71763 23.5351 2.87611 16.1483 0.934551C15.5223 0.771845 15.1127 0.934649 14.9427 1.22907C11.8515 -0.010593 8.52838 -0.119079 6.08628 1.01986C5.97983 1.06354 5.88667 1.13438 5.81614 1.22547C5.74562 1.31657 5.70019 1.42468 5.6844 1.53891C5.6844 1.53891 5.63802 1.53895 5.62256 1.58544C4.03078 3.25584 2.68773 5.14773 1.63485 7.20266C0.668835 9.32558 0.645656 11.6266 0.916142 14.106C1.01426 16.416 1.88848 18.625 3.39685 20.3741C5.08134 22.111 7.00444 23.598 9.10797 24.7903C9.0075 25.201 9.23933 25.7277 9.96578 26.0609C15.2543 28.5869 20.8098 30.5077 26.5272 31.7867C31.5505 32.7862 37.9108 33.3362 41.2107 30.9731C43.0694 29.5673 44.6433 27.8186 45.8476 25.8209C47.0138 24.0705 47.5206 21.9611 47.2773 19.8703ZM11.0941 23.5353C10.943 23.5127 10.7893 23.5127 10.6381 23.5353C8.86049 22.5355 7.21234 21.3202 5.73077 19.9169C3.88374 18.0264 3.66736 16.0429 3.47416 14.0904C3.18919 12.1013 3.45659 10.0721 4.24697 8.22543C5.21987 6.38813 6.43652 4.6914 7.86375 3.18155C7.93801 3.09326 7.98618 2.9858 8.00285 2.87152C10.5995 1.73258 14.3013 2.41442 17.068 4.63806C18.2547 5.5337 19.2286 6.68203 19.9195 8.00033C20.6103 9.31864 21.0011 10.7742 21.0634 12.2621C21.0634 15.0435 19.8888 17.4763 18.5518 19.7387C17.2148 22.0011 15.105 24.3953 11.0941 23.5353ZM40.152 28.424C37.393 31.1435 31.8055 30.826 26.875 29.873C22.4182 28.9387 18.0698 27.5443 13.8994 25.7123C15.2071 25.6299 16.4771 25.2397 17.6063 24.5734C18.7355 23.907 19.6922 22.9834 20.3988 21.8771C22.3772 18.9794 24.0233 15.547 23.606 11.7583C23.1313 8.62048 21.5154 5.76978 19.0696 3.75489C23.7017 5.14659 28.2142 6.91096 32.5629 9.03105C37.1535 11.2779 43.166 14.0749 44.4256 18.3285C45.6853 22.5821 42.7795 25.7898 40.152 28.424Z" fill="#452C15"/>
<path d="M49.1865 23.5426C49.2794 23.3088 49.2794 23.0482 49.1865 22.8144C49.0894 22.5739 48.9041 22.3799 48.6687 22.2721C48.4378 22.1622 48.1731 22.1477 47.9316 22.2318C47.6902 22.3159 47.4914 22.4918 47.3781 22.7215L46.2884 26.0221C46.1955 26.256 46.1955 26.5166 46.2884 26.7504C46.3855 26.9909 46.5709 27.1849 46.8063 27.2927C47.0362 27.4032 47.3002 27.4188 47.5415 27.3362C47.7828 27.2536 47.9822 27.0794 48.0968 26.851L49.1865 23.5426Z" fill="#3F4954"/>
<path d="M54.789 29.5319C54.5756 28.4047 54.1019 27.3433 53.4056 26.4328C53.76 26.0694 54.0367 25.6372 54.2187 25.163C54.4008 24.6887 54.4844 24.1823 54.4644 23.6745C54.418 23.3488 54.2695 23.0462 54.0402 22.8108C53.811 22.5754 53.5129 22.4194 53.1892 22.3651C52.5608 22.19 51.9018 22.1546 51.2584 22.2617C50.6149 22.3687 50.0026 22.6156 49.4643 22.9848C49.1784 23.2017 49.2093 23.6202 49.4643 23.9843C49.2636 24.1913 49.1106 24.4399 49.0161 24.7126C48.9492 24.9494 48.9179 25.195 48.9233 25.441C48.9349 25.6035 48.9349 25.7665 48.9233 25.929C48.8365 26.1453 48.7667 26.3682 48.7147 26.5954C48.6843 26.7463 48.6843 26.9016 48.7147 27.0524C48.6077 27.0589 48.5029 27.0852 48.4056 27.13C48.2837 27.1782 48.1785 27.2612 48.103 27.3685C48.0275 27.4759 47.9849 27.6031 47.9805 27.7344C47.9811 27.88 48.0116 28.0238 48.0701 28.1571C48.1286 28.2904 48.2138 28.4103 48.3205 28.5091C48.4134 28.5917 48.4988 28.6824 48.5756 28.7802C48.6352 28.8645 48.6894 28.9525 48.7379 29.0437L48.8074 29.2839C48.8191 29.4024 48.8191 29.5218 48.8074 29.6403L48.8538 29.4389C48.7919 29.5525 48.7753 29.6854 48.8074 29.8107C48.8167 29.9528 48.8648 30.0895 48.9465 30.2059C49.1341 30.4966 49.4029 30.7257 49.7193 30.8645C50.0315 31.0149 50.3812 31.0688 50.724 31.0194L51.0022 30.9419C51.1628 30.869 51.2936 30.7433 51.3731 30.5855C51.4466 30.3501 51.478 30.1036 51.4659 29.8573C51.4467 29.6665 51.4131 29.4774 51.3654 29.2917L53.1429 30.3145C53.3382 30.4165 53.553 30.4753 53.7729 30.4873C53.9929 30.4994 54.2128 30.4642 54.418 30.3841C54.5703 30.3088 54.6911 30.182 54.759 30.026C54.8269 29.87 54.8375 29.695 54.789 29.5319Z" fill="#452C15"/>
<path d="M11.673 11.0375C10.0423 11.7503 10.792 13.4858 12.4458 12.7653C14.0996 12.0447 13.3036 10.3169 11.673 11.0375Z" fill="#FCE7B5"/>
<path d="M15.7316 16.4771C13.2818 17.5618 14.4178 20.1652 16.8753 19.0805C19.3329 17.9958 18.1891 15.4002 15.7316 16.4771Z" fill="#FCE7B5"/>
<path d="M15.3293 6.21787C13.4128 5.34237 12.4777 7.37995 14.402 8.25544C16.3263 9.13094 17.2768 7.10112 15.3293 6.21787Z" fill="#FCE7B5"/>
<path d="M10.801 3.91061C8.48251 2.86464 7.40831 5.28965 9.69584 6.34337C11.9834 7.39709 13.0962 4.96432 10.801 3.91061Z" fill="#FCE7B5"/>
<path d="M16.4025 11.4333C12.948 11.8129 13.3113 15.4777 16.8044 15.098C20.2975 14.7184 19.857 11.0149 16.4025 11.4333Z" fill="#FCE7B5"/>
<path d="M13.4509 19.7698C11.828 18.995 11.0474 20.746 12.6781 21.4898C14.3087 22.2336 15.0738 20.5136 13.4509 19.7698Z" fill="#FCE7B5"/>
<path d="M9.33986 15.067C6.52681 13.7809 5.15892 16.7639 7.9797 18.0578C10.8005 19.3517 12.1606 16.3609 9.33986 15.067Z" fill="#FCE7B5"/>
<path d="M8.15681 11.6418L8.38865 9.8287C8.37754 9.53494 8.25281 9.25706 8.04087 9.05391C7.78469 8.79779 7.46428 8.61582 7.11348 8.5271C6.80429 8.44178 6.47572 8.46089 6.17841 8.58139C6.06394 8.63792 5.96522 8.72187 5.89105 8.82597C5.81688 8.93008 5.76958 9.0511 5.75337 9.178L5.52148 10.9986C5.5239 11.144 5.55522 11.2874 5.61361 11.4205C5.67199 11.5535 5.75629 11.6735 5.86152 11.7734C6.11985 12.0308 6.44308 12.213 6.79665 12.3004C7.10232 12.3888 7.42868 12.3724 7.72404 12.2539C7.84197 12.197 7.94352 12.1109 8.01922 12.0038C8.09492 11.8968 8.14228 11.7722 8.15681 11.6418Z" fill="#FCE7B5"/>
</svg>
