<svg width="60" height="57" viewBox="0 0 60 57" fill="none" xmlns="http://www.w3.org/2000/svg">
<path d="M25.7435 8.45365C26.2916 8.52129 26.7908 8.13178 26.8584 7.58365C26.9261 7.03553 26.5366 6.53635 25.9884 6.46871L25.7435 8.45365ZM14.7352 23.4071C15.0731 23.844 15.7012 23.9242 16.138 23.5863L23.2573 18.0804C23.6942 17.7425 23.7745 17.1144 23.4366 16.6775C23.0987 16.2407 22.4706 16.1604 22.0338 16.4983L15.7055 21.3925L10.8113 15.0643C10.4734 14.6274 9.84538 14.5471 9.40851 14.885C8.97164 15.2229 8.89138 15.8509 9.22926 16.2878L14.7352 23.4071ZM25.9884 6.46871C23.162 6.11992 20.9879 6.42546 19.3374 7.33944C17.6676 8.26413 16.6762 9.7319 16.0654 11.4063C15.4629 13.0579 15.2081 14.9716 15.0374 16.8845C14.862 18.8502 14.777 20.7695 14.5343 22.6686L16.5182 22.9221C16.7659 20.9834 16.8655 18.9 17.0295 17.0623C17.1982 15.1718 17.4374 13.4812 17.9443 12.0917C18.4428 10.7251 19.1759 9.71502 20.3063 9.08909C21.456 8.45244 23.1578 8.13458 25.7435 8.45365L25.9884 6.46871Z" fill="#7E5F2F"/>
<g opacity="0.6">
<rect x="33.625" y="1" width="25" height="46" rx="6" fill="#FFFEF7" stroke="#7E5F2F" stroke-width="2"/>
<path d="M41.3984 2.67969H50.1734" stroke="#7E5F2F" stroke-width="2" stroke-linecap="round"/>
</g>
<rect x="1.375" y="56" width="25" height="46" rx="6" transform="rotate(-90 1.375 56)" fill="#FFFEF7" stroke="#7E5F2F" stroke-width="2"/>
<path d="M3.54297 47.543L3.54297 38.768" stroke="#7E5F2F" stroke-width="2" stroke-linecap="round"/>
</svg>
