<svg width="677" height="769" viewBox="0 0 677 769" fill="none" xmlns="http://www.w3.org/2000/svg">
<path d="M367.092 373.015C347.712 361.755 339.157 339.273 335.685 318.178C331.33 291.814 334.129 264.374 325.445 238.732C323.455 232.852 320.829 227.203 315.082 224.158C309.335 221.113 302.464 220.232 296.103 219.683C281.832 218.45 267.547 220.481 253.291 221.124C246.148 221.479 238.989 221.292 231.874 220.565C224.734 219.782 217.663 218.447 210.62 217.113C196.553 214.362 182.407 211.247 168.006 211.188C160.827 211.167 153.667 211.841 146.501 212.084C139.767 212.238 133.032 211.809 126.372 210.8C114.597 209.126 102.083 206.414 90.3113 209.795C88.4157 210.346 86.5713 211.06 84.7987 211.929C82.7223 205.572 75.7062 202.365 69.3542 200.83C64.8304 199.74 60.214 199.08 55.5661 198.858C50.5411 198.436 45.4966 199.397 40.9785 201.637C40.5721 201.838 40.2483 202.174 40.0623 202.587C39.8764 203.001 39.84 203.466 39.9592 203.904C36.5528 206.314 33.7984 209.532 31.9433 213.269C30.0883 217.007 29.1908 221.147 29.3314 225.317C29.3279 225.386 29.3243 225.456 29.3207 225.525L23.4368 597.848C23.3984 598.274 23.5044 598.702 23.7378 599.061C23.9711 599.421 24.3184 599.692 24.724 599.83C25.0918 600.093 25.5369 600.225 25.9885 600.205C26.44 600.186 26.872 600.016 27.2157 599.722C34.1724 594.079 43.9871 593.639 52.4198 595.766C62.5226 598.369 71.2932 604.194 80.4212 609.01C89.5492 613.826 99.7415 617.933 110.425 617.065C121.109 616.197 130.986 611.579 141.156 608.81C162.017 603.145 183.838 601.501 204.54 608.676C214.352 612.082 223.566 616.834 232.916 621.397C242.387 626.199 252.225 630.239 262.338 633.478C272.767 636.664 283.491 638.792 294.346 639.83C304.228 640.782 314.629 641.094 324.24 638.143C326.571 637.432 328.838 636.527 331.018 635.436C331.464 635.221 331.815 634.848 332.002 634.389C332.345 634.47 332.703 634.465 333.044 634.374C333.385 634.283 333.698 634.11 333.955 633.868C334.212 633.627 334.406 633.326 334.518 632.991C334.631 632.657 334.659 632.3 334.6 631.953C331.978 617.153 333.525 601.916 339.068 587.945C340.464 584.573 341.572 581.089 342.381 577.531C343.009 573.956 343.126 570.31 342.728 566.701C342.014 558.97 340.74 551.321 339.75 543.561C338.76 535.802 337.995 527.971 337.257 520.169C336.519 512.367 335.57 504.331 335.908 496.404C336.299 488.785 338.355 481.474 340.41 474.176C342.466 466.879 344.255 459.359 345.724 451.837C348.913 434.675 350.224 417.217 349.634 399.772C349.628 399.364 349.502 398.967 349.272 398.629C349.043 398.292 348.72 398.029 348.343 397.872C348.482 395.171 348.69 392.473 349.035 389.81C349.5 385.947 350.716 382.211 352.614 378.813C354.063 379.341 355.582 379.653 357.122 379.739C358.604 379.85 360.092 379.627 361.476 379.085C362.86 378.543 364.104 377.696 365.116 376.608C367.291 377.539 369.334 374.269 367.092 373.015Z" fill="#E63220" fill-opacity="0.89"/>
<path d="M328.912 631.54C314.731 641.826 295.754 641.101 279.589 636.715C260.478 631.567 243.444 620.859 224.819 614.36C215.343 611.032 205.437 609.082 195.407 608.572C185.074 608.218 174.731 608.751 164.49 610.165C154.273 611.404 144.118 613.077 133.915 614.317C123.712 615.557 113.241 616.603 102.982 615.687C97.3219 615.244 91.8251 613.578 86.8713 610.804C82.3213 608.051 77.9128 605.071 73.6626 601.875C65.4192 596.063 55.5126 590.721 45.1391 592.577C43.4398 592.67 41.7238 592.818 40.0174 593.05C36.2874 593.571 32.6203 594.472 29.0734 595.738C27.2582 596.385 25.4809 597.132 23.7499 597.979L27.4358 425.592C27.4442 425.414 27.43 425.236 27.3936 425.062C27.9839 389.767 28.565 354.472 29.1368 319.176L30.5322 237.911C30.6582 230.32 29.7292 221.091 34.2213 214.488C35.1306 213.159 36.2667 212 37.5778 211.064L36.8098 211.413C35.0081 212.056 33.0329 212.014 31.2602 211.295C28.8238 214.801 27.2895 218.853 26.793 223.093C26.3355 227.494 26.1408 231.918 26.2099 236.342L25.978 250.594L24.1152 363.947L23.0653 427.396C23.0653 427.396 23.0589 427.52 23.0553 427.59L19.433 597.924C19.4052 598.284 19.4794 598.646 19.6471 598.966C19.8149 599.287 20.0694 599.554 20.3817 599.736C18.1417 601.163 20.1206 604.82 22.5109 603.443C26.4297 601.174 30.6511 599.473 35.0485 598.392C38.4708 597.556 41.9668 597.056 45.4865 596.901L45.4922 596.79C54.9209 594.94 63.8904 600.137 71.3568 605.396C79.4003 611.045 87.1447 617.11 97.0448 619.063C107.288 621.103 118.129 620.146 128.445 619.134C138.761 618.122 148.846 616.473 159.04 615.149C179.67 612.347 200.451 610.956 220.564 617.419C239.516 623.504 256.601 634.313 275.683 640.029C294.123 645.545 315.448 646.529 331.707 634.725C333.932 633.048 331.063 629.97 328.912 631.54Z" fill="#75160D"/>
<path d="M472.173 578.42L470.614 570.104C469.397 564.669 468.566 559.154 468.128 553.601C467.872 548.032 468.697 542.518 468.192 536.937C467.543 531.381 466.272 525.916 464.404 520.644C461.032 510.04 457.221 499.58 453.339 489.172L451.103 483.224C451.276 482.288 451.477 481.354 451.609 480.389C451.995 477.742 447.838 477.556 447.454 480.175C447.443 480.383 447.434 480.563 447.354 480.768C446.996 481.058 446.74 481.455 446.622 481.901C446.504 482.347 446.531 482.818 446.699 483.248C446.692 483.372 446.783 483.488 446.832 483.616C442.7 503.501 428.843 519.638 419.534 537.271C414.631 546.876 410.787 556.984 408.069 567.42C405.085 578.197 402.484 589.092 399.747 599.924C399.209 602.008 398.027 604.739 399.114 606.836C400.383 609.179 403.182 608.767 405.346 608.545C410.838 607.729 416.378 607.28 421.929 607.203C427.631 607.329 433.341 607.858 439.04 607.498C443.84 607.192 448.57 606.19 453.082 604.524C457.495 602.886 461.648 600.62 465.414 597.796C469.156 594.988 473.071 591.509 473.259 586.49C473.196 583.769 472.832 581.062 472.173 578.42V578.42Z" fill="#E63220" fill-opacity="0.89"/>
<path d="M471.437 591.399C465.148 598.848 456.495 603.914 446.921 605.752C435.558 607.946 424.211 604.419 412.833 604.473C406.791 604.326 400.805 605.659 395.397 608.356C394.927 608.62 394.579 609.057 394.424 609.573C394.27 610.089 394.322 610.645 394.569 611.124C394.816 611.602 395.239 611.967 395.749 612.14C396.26 612.313 396.817 612.281 397.304 612.051C407.644 606.527 419.682 609.034 430.736 610.171C441.789 611.308 452.353 610.059 462.027 604.514C466.92 601.697 471.267 598.025 474.862 593.672C476.62 591.624 473.125 589.361 471.437 591.399Z" fill="#75160D"/>
<path fill-rule="evenodd" clip-rule="evenodd" d="M343.945 425.373C344.238 423.999 344.55 422.529 344.859 421.1C350.039 418.408 346.92 413.692 347.573 409.906C348.158 407.714 348.728 405.534 349.298 403.355C351.762 404.329 354.628 404.782 356.631 406.357C362.919 411.291 368.732 416.84 375.019 421.788C379.878 425.535 384.945 429.004 390.195 432.179C390.923 432.373 391.688 432.387 392.422 432.219C393.157 432.051 393.84 431.706 394.411 431.214C397.478 428.025 404.559 426.18 408.056 428.137C410.866 429.671 411.984 436.034 410.034 439.642C409.326 440.995 408.313 442.068 407.689 443.397C406.489 445.933 406.058 448.105 409.674 449.374C412.403 450.32 414.638 452.768 417.365 453.492C424.983 455.536 427.66 462.354 431.367 467.794C436.916 476.052 442.732 479.087 451.228 480.801C446.327 491.3 441.921 501.643 436.758 511.587C432.256 520.258 426.835 528.453 421.982 536.954C416.411 546.724 410.185 556.251 405.796 566.54C402.131 575.144 400.545 584.66 398.282 593.836C396.421 601.407 394.876 609.05 393.248 616.675C391.692 623.985 391.09 631.662 388.459 638.541C384.583 648.565 379.195 657.997 374.68 667.21C360.036 660.277 346.152 663.675 331.675 662.404C328.771 654.655 328.171 646.231 329.949 638.148C331.345 632.331 331.19 626.142 332.079 620.201C333.408 611.352 335.027 602.56 336.521 593.748C337.534 587.813 338.355 581.841 339.601 575.961C341.7 565.915 340.013 556.037 338.956 546.065C337.481 532.322 335.382 518.548 335.339 504.781C335.296 492.376 337.465 479.889 339.07 467.569C340.229 458.517 342.285 449.594 343.513 440.546C344.216 435.526 347.46 430.498 343.945 425.373Z" fill="#F6A320"/>
<path fill-rule="evenodd" clip-rule="evenodd" d="M547.663 461.569C547.623 462.345 547.584 463.107 547.544 463.883C546.992 467.59 546.427 471.298 545.876 475.006C544.052 491.579 542.16 508.149 540.461 524.729C539.823 530.933 538.718 537.293 539.503 543.389C541.527 559.688 544.488 575.869 546.917 592.119C547.581 596.5 547.574 600.972 548.069 605.387C548.621 610.318 549.995 615.208 549.923 620.135C549.883 627.437 549.216 634.721 547.93 641.909C546.959 647.012 542.242 647.992 536.412 646.567C532.861 645.753 529.162 645.855 525.661 646.863C519.088 648.803 512.825 651.759 506.335 653.995C505.587 654.103 504.824 654.028 504.111 653.776C503.398 653.524 502.757 653.103 502.243 652.549C496.725 644.779 491.308 636.932 486.165 628.903C483.7 625.117 481.649 621.077 480.047 616.852C477.599 610.435 475.645 603.862 473.902 597.231C472.614 592.289 472.016 587.161 471.108 582.128C470.29 577.767 469.459 573.391 468.642 569.029C467.24 554.401 466.835 539.574 464.129 525.184C461.502 511.16 456.504 497.598 452.614 483.814C452.302 482.404 452.093 480.972 451.987 479.532L461.106 475.333C462.114 474.635 463.527 474.166 464.076 473.208C467.964 466.463 474.797 464.036 481.502 461.686C485.743 460.237 485.396 458.608 483.724 455.202C482.616 452.629 482.359 449.769 482.99 447.039C483.207 446.05 487.067 444.998 488.804 445.518C490.774 446.105 492.236 448.472 494.492 450.533C494.987 450.072 496.187 448.884 497.412 447.766C510.622 436.472 523.85 425.187 537.096 413.913C539.099 412.225 541.108 412.064 542.025 415.292C542.779 417.12 543.375 419.009 543.805 420.939C545.22 434.484 546.414 448.032 547.663 461.569Z" fill="#F6A320"/>
<path fill-rule="evenodd" clip-rule="evenodd" d="M182.845 205.952C181.636 205.14 179.435 205.541 178.024 205.163C176.613 204.785 174.937 203.879 174.763 202.12C174.353 197.933 179.064 196.271 182.262 195.672C184.795 191.51 185.008 187.354 181.209 182.909C179.603 181.979 177.485 182.121 175.712 181.752C173.741 181.465 171.898 180.607 170.408 179.285C167.437 176.285 169.51 172.697 172.747 171.071C174.203 170.315 175.824 169.933 177.465 169.962C179.105 169.99 180.713 170.428 182.141 171.234C182.411 171.403 182.714 171.509 183.03 171.544C183.346 171.58 183.666 171.543 183.965 171.439C184.265 171.334 184.538 171.164 184.763 170.94C184.989 170.716 185.161 170.444 185.267 170.145C186.154 167.962 186.518 165.603 186.329 163.254C185.765 160.184 182.611 160.73 180.282 160.916L163.966 162.189C153.145 163.023 142.324 163.856 131.517 164.69C120.71 165.524 109.481 166.739 98.5883 168.694C93.5867 169.488 88.6629 170.713 83.872 172.355C79.2077 174.199 74.8286 176.696 70.8657 179.77C62.216 186.106 53.1792 191.895 43.808 197.104C43.6049 197.105 43.4028 197.131 43.2066 197.184C39.9287 198.03 36.9975 199.881 34.8234 202.476C34.2554 203.013 33.8728 203.717 33.7309 204.486C33.5891 205.256 33.6953 206.05 34.0342 206.755C34.9956 208.318 36.7336 208.283 38.3861 208.02C43.9848 207.183 48.3378 203.559 52.9428 200.434C51.1035 202.173 47.6738 205.4 49.791 207.717C50.8941 208.954 53.1145 208.721 54.5467 208.419C56.4507 207.907 58.2942 207.191 60.0454 206.285C64.0906 204.534 68.3006 203.191 72.6127 202.277L73.5398 202.075C73.6438 202.127 73.7538 202.165 73.8673 202.189C75.7875 202.508 77.6135 203.246 79.2148 204.353C79.086 204.338 78.9565 204.332 78.8269 204.333C77.8535 204.424 76.9019 204.675 76.0108 205.077C74.7561 205.611 73.6634 206.465 72.8418 207.553C72.5858 207.64 72.3481 207.774 72.141 207.948C71.7738 208.33 71.4984 208.791 71.3356 209.296C71.2187 209.637 71.1627 209.996 71.17 210.357C71.1719 210.703 71.2244 211.047 71.3259 211.378C71.3992 211.631 71.4934 211.878 71.6075 212.115C71.7376 212.338 71.8795 212.554 72.0327 212.762C72.2651 213.035 72.5273 213.282 72.8144 213.497C72.9821 213.626 73.1625 213.737 73.3529 213.83C73.8863 214.116 74.4465 214.35 75.0255 214.527C75.5605 214.696 76.1405 214.652 76.6431 214.402C76.8667 214.292 77.0608 214.131 77.209 213.93C78.6662 214.217 80.1522 214.331 81.6362 214.269C88.6856 213.853 94.1773 209.691 100.231 206.765C113.372 214.829 129.366 213.623 144.183 212.856C152.58 212.403 160.995 212.404 169.392 212.859C171.415 212.963 173.435 213.108 175.453 213.295C177.18 213.604 178.95 213.577 180.666 213.216C183.432 212.372 185.893 207.998 182.845 205.952Z" fill="#FDD821"/>
<path fill-rule="evenodd" clip-rule="evenodd" d="M531.157 366.732C527.603 372.106 524.47 377.945 520.232 382.839C515.983 387.876 511.053 392.298 505.585 395.976C499.434 399.979 492.37 402.589 485.704 405.802L480.515 406.23C478.64 407.329 476.772 409.344 474.798 409.381C461.519 409.658 448.387 411.678 434.915 408.959C409.87 403.876 386.329 393.1 366.113 377.466L351.714 377.935C350.988 384.217 349.986 391.305 349.509 398.419C349.566 399.387 349.827 400.331 350.276 401.19C350.725 402.049 351.352 402.802 352.114 403.4C356.342 406.548 361.136 408.933 365.319 412.134C373.618 418.491 381.664 425.183 389.867 431.771C393.93 425.688 402.865 423.438 408.323 426.704C409.833 427.616 410.99 429.012 411.605 430.665C413.409 436.647 413.772 442.568 407.786 447.692C419.151 451.428 426.844 457.407 432.506 467.239C438.614 477.845 450.598 480.336 461.011 475.537C462.934 471.912 465.669 468.782 469.004 466.391C472.339 464.001 476.183 462.415 480.233 461.76C477.108 456.627 477.295 451.359 480.408 448.088C484.209 444.116 488.958 443.874 495.05 447.214C502.067 440.95 508.788 434.489 516.005 428.637C523.222 422.785 531.098 417.37 538.202 412.11C535.832 396.951 533.484 381.825 531.157 366.732Z" fill="#FDD821"/>
<path d="M541.27 414.561L541.371 414.483L541.538 414.492C542.22 414.193 542.956 413.912 542.994 413.177C543.005 412.956 543.017 412.734 543.028 412.512C539.962 400.285 536.601 388.098 535.204 375.554C534.895 372.913 534.74 370.252 534.64 367.594C534.572 365.938 531.545 365.935 531.612 367.605C532.271 383.709 537.087 399.193 540.98 414.81C541.069 414.719 541.166 414.635 541.27 414.561V414.561Z" fill="#755C33"/>
<path d="M549.059 451.943C549.166 439.851 546.847 428.217 544.03 416.531C543.779 416.018 543.478 415.377 542.93 415.238C542.381 415.099 541.641 415.172 541.52 415.638C541.459 415.856 541.383 416.071 541.293 416.279C543.532 424.794 545.032 433.487 545.778 442.26C547.601 468.966 541.002 495.503 539.331 522.099C537.614 549.581 545.332 576.437 546.359 603.782C546.676 612.201 547.708 620.518 547.55 628.997C547.614 633.9 546.895 638.782 545.418 643.458L548.768 642.324C549.377 640.066 549.824 637.769 550.108 635.448C551.255 626.631 550.284 617.679 549.653 608.868C548.799 597.102 548.079 585.425 546.376 573.699C544.317 559.704 541.994 545.695 542.011 531.57C542.058 504.96 548.814 478.612 549.059 451.943Z" fill="#755C33"/>
<path d="M473.038 464.477C472.544 464.646 472.064 464.788 471.625 464.946C470.209 465.471 468.79 466.064 467.507 466.707C467.663 467.813 467.652 468.936 467.475 470.038C469.063 469.207 470.706 468.484 472.392 467.874L474.654 467.088C474.235 466.149 473.692 465.27 473.038 464.477V464.477Z" fill="#755C33"/>
<path d="M465.18 468.488C464.988 469.402 464.667 470.283 464.226 471.106C461.794 475.731 455.263 476.59 450.641 476.533C437.564 476.39 431.349 464.903 425.87 454.746C424.944 453.032 422.31 454.564 423.238 456.237C427.041 463.307 430.736 470.33 437.218 475.302C442.189 479.099 449.015 480.075 455.067 479.33C460.014 478.737 465.517 476.256 467.478 471.342C468.151 469.679 468.475 467.894 468.427 466.099C467.186 466.653 466.078 467.468 465.18 468.488V468.488Z" fill="#755C33"/>
<path fill-rule="evenodd" clip-rule="evenodd" d="M349.055 406.733C348.892 406.499 348.669 406.313 348.41 406.194C348.15 406.074 347.864 406.026 347.58 406.053C347.295 406.081 347.024 406.184 346.792 406.352C346.561 406.519 346.379 406.745 346.263 407.007C344.865 422.074 343.521 437.145 341.085 452.131C339.036 464.985 335.951 477.716 334.397 490.678C332.82 503.806 334.321 516.231 336.503 529.177C338.728 542.389 340.186 555.644 339.179 569.038C338.128 583.012 334.346 596.874 331.886 610.706C329.755 622.552 329.029 634.608 329.722 646.625C329.884 649.411 330.158 652.203 330.602 654.906C330.613 654.957 330.61 655.009 330.594 655.058C330.674 655.66 330.939 656.465 331.593 656.707C331.868 656.798 332.168 656.781 332.431 656.661C332.695 656.541 332.903 656.325 333.015 656.058C333.266 655.447 333.403 654.794 333.42 654.134C333.319 653.379 333.214 652.735 333.14 652.009C329.932 626.843 336.928 602.312 341.132 577.513C343.239 564.899 342.711 552.191 341.08 539.592C339.368 526.407 336.182 513.521 336.618 500.168C337.074 486.427 340.286 472.827 342.815 459.276C345.282 446.124 347.047 432.867 348.338 419.614C348.72 415.689 349.06 411.776 349.401 407.848C349.394 407.452 349.274 407.065 349.055 406.733V406.733Z" fill="#755C33"/>
<path fill-rule="evenodd" clip-rule="evenodd" d="M492.985 634.281C482.262 618.327 476.321 600.424 472.357 582.401C464.828 548.068 464.832 512.567 452.499 479.016C450.674 479.101 448.849 478.871 447.103 478.336C445.492 494.018 436.51 509.071 428.625 523.069C420.034 538.351 408.269 552.706 403.662 569.372C401.498 577.178 400.889 585.244 399.303 593.136C397.45 602.18 395.071 611.183 393.135 620.209C391.305 628.795 389.123 636.392 384.062 644.063C380.869 648.899 377.459 653.641 375.675 658.911C375.69 658.994 375.685 659.079 375.662 659.16L375.568 659.364C375.419 659.828 375.298 660.294 375.178 660.732C375.135 661.044 375.118 661.36 375.13 661.674C375.105 662.159 375.385 663.202 376.069 662.862C376.546 662.597 376.962 662.235 377.29 661.799C379.442 656.951 383.401 648.557 388.212 643.04C393.717 636.739 394.425 628.622 396.131 620.821C398.109 611.783 400.335 602.786 402.3 593.748C404.12 585.355 404.752 576.831 407.054 568.505L407.354 567.534C407.432 566.162 407.879 564.837 408.649 563.698C414.325 548.364 425.909 534.569 433.655 520.049C440.416 507.396 447.903 494.392 449.924 480.467C461.526 512.578 462.168 546.584 468.821 579.594C469.24 580.187 469.496 580.88 469.565 581.604C469.735 582.573 469.838 583.553 469.872 584.537C470.559 587.656 471.289 590.763 472.172 593.85C477.282 613.528 486.616 631.856 499.526 647.562C501.087 649.464 502.756 651.275 504.525 652.986L504.83 653.001C505.027 652.169 505.369 651.378 505.839 650.664C500.621 645.715 496.585 639.647 492.985 634.281Z" fill="#755C33"/>
<path d="M373.746 396.789C373.4 396.765 373.073 396.621 372.823 396.381V396.381C370.596 398.891 369.831 406.227 375.193 404.322C379.306 402.922 377.533 397.164 373.746 396.789Z" fill="#F5AC23"/>
<path d="M399.632 408.505C399.524 408.44 399.425 408.36 399.339 408.268L399.07 408.365C396.462 409.106 398.223 412.419 400.349 412.403C401.249 412.449 402.618 412.297 402.04 411.101C401.501 410.025 400.665 409.124 399.632 408.505V408.505Z" fill="#F5AC23"/>
<path d="M506.761 407.163C500.312 407.512 492.493 416.153 500.962 420.004C504.151 421.46 507.245 419.647 508.313 416.424C508.876 414.932 509.045 413.32 508.805 411.744C508.565 410.167 507.923 408.679 506.942 407.422C506.873 407.342 506.812 407.255 506.761 407.163V407.163Z" fill="#F5AC23"/>
<path fill-rule="evenodd" clip-rule="evenodd" d="M408.635 446.304C414.167 442.171 416.123 435.73 412.093 429.273C408.901 424.095 404.301 423.317 399.464 423.929C399.305 423.893 399.141 423.884 398.979 423.905C393.684 424.508 391.27 426.62 390.874 431.1C386.228 428.528 382.245 424.948 377.63 422.308C377.398 422.171 377.133 422.1 376.863 422.102L377.051 421.945C374.175 419.624 371.473 417.095 368.968 414.377C363.598 408.851 357.966 403.312 350.173 401.703L349.979 401.693C350.75 392.913 351.561 384.149 352.716 375.444C353.475 376.445 354.43 377.28 355.523 377.898C356.615 378.516 357.823 378.904 359.071 379.038C360.32 379.173 361.583 379.05 362.782 378.679C363.981 378.307 365.092 377.695 366.046 376.878C367.502 375.564 365.388 373.47 363.906 374.741C359.663 378.384 354.05 374.623 353.522 369.763L353.778 368.026C353.39 367.411 352.956 366.826 352.479 366.278C352.089 366.258 351.705 366.378 351.397 366.617C351.089 366.856 350.877 367.199 350.801 367.581L350.779 367.997C350.573 368.251 350.463 368.57 350.469 368.897C350.455 369.227 350.461 369.557 350.488 369.885C348.935 380.111 347.851 390.389 346.879 400.673C346.88 400.779 346.875 400.885 346.863 400.991C346.873 401.046 346.87 401.104 346.854 401.158C346.849 401.756 346.971 402.349 347.211 402.897C347.451 403.446 347.803 403.937 348.246 404.34L348.343 404.345L348.848 404.524C348.987 404.607 349.139 404.666 349.297 404.7L349.463 404.708L349.681 404.789C360.515 407.234 366.486 417.527 374.842 424.137C374.99 423.95 375.152 423.778 375.313 423.606C375.272 423.889 375.318 424.177 375.447 424.433C375.575 424.688 375.78 424.897 376.032 425.032C381.431 428.087 385.862 432.398 391.495 434.951C391.723 435.076 391.979 435.142 392.238 435.14C392.498 435.139 392.753 435.071 392.979 434.944C393.206 434.816 393.396 434.633 393.532 434.412C393.667 434.19 393.744 433.938 393.755 433.678C393.571 429.419 394.444 427.575 398.873 427.066C399.034 427.049 399.191 427.005 399.338 426.937C401.022 426.708 402.736 426.864 404.352 427.392C405.968 427.92 407.443 428.806 408.668 429.986C414.494 434.993 410.016 442.403 404.856 445.235C404.628 445.371 404.439 445.564 404.308 445.794C404.176 446.025 404.107 446.286 404.105 446.551C404.104 446.817 404.172 447.078 404.302 447.31C404.432 447.541 404.619 447.736 404.846 447.873C411.966 451.767 419.024 455.768 425.846 460.063C425.186 458.703 424.768 457.239 424.61 455.736C419.435 452.373 414.064 449.305 408.635 446.304Z" fill="#755C33"/>
<path fill-rule="evenodd" clip-rule="evenodd" d="M539.13 412.408C522.909 420.244 508.757 431.783 497.816 446.094C497.611 446.132 497.418 446.217 497.251 446.34C497.083 446.464 496.946 446.624 496.849 446.808C496.438 447.526 495.99 448.221 495.505 448.891C493.484 443.635 487.67 442.17 482.37 446.106C481.215 446.87 480.256 447.896 479.573 449.101C478.89 450.307 478.502 451.656 478.44 453.04C478.379 454.424 478.646 455.803 479.219 457.064C479.792 458.325 480.655 459.433 481.739 460.296C478.999 461.711 475.971 462.528 473.368 464.269C471.756 465.353 473.177 467.982 474.858 466.902C478.122 464.722 482.104 463.996 485.292 461.687C485.52 461.55 485.708 461.356 485.838 461.125C485.969 460.893 486.037 460.632 486.037 460.366C486.037 460.101 485.968 459.84 485.837 459.609C485.705 459.378 485.517 459.185 485.289 459.048C473.252 452.735 492.386 439.856 493.196 452.204C493.197 452.501 493.285 452.791 493.45 453.039C493.615 453.286 493.85 453.479 494.124 453.594C494.398 453.709 494.7 453.741 494.992 453.685C495.285 453.629 495.554 453.488 495.766 453.28C497.003 451.996 498.095 450.58 499.025 449.059L499.168 449.246C510.012 434.656 524.237 422.918 540.62 415.041C542.397 414.243 540.88 411.609 539.13 412.408Z" fill="#755C33"/>
<path d="M508.012 405.255C503.127 404.643 498.167 407.652 495.587 411.631C492.575 416.198 495.089 421.328 499.494 423.721C503.669 426.005 508.091 424.009 510.398 420.197C511.59 418.108 512.137 415.713 511.968 413.314C511.8 410.914 510.924 408.619 509.451 406.717C509.416 406.345 509.254 405.996 508.992 405.73C508.73 405.463 508.384 405.295 508.012 405.255V405.255ZM508.328 417.494C507.26 420.717 504.18 422.544 500.991 421.089C492.522 417.223 500.343 408.555 506.79 408.233C506.837 408.332 506.898 408.424 506.97 408.507C507.944 409.756 508.58 411.236 508.818 412.802C509.057 414.368 508.889 415.969 508.33 417.452L508.328 417.494Z" fill="#755C33"/>
<path d="M373.78 394.804C373.571 394.767 373.357 394.786 373.158 394.859C372.959 394.932 372.783 395.056 372.647 395.218C372.518 395.083 372.362 394.978 372.189 394.909C372.016 394.841 371.83 394.809 371.644 394.818C371.458 394.827 371.276 394.876 371.111 394.961C370.945 395.046 370.8 395.165 370.684 395.311C369.604 396.512 368.815 397.947 368.381 399.503C367.947 401.059 367.879 402.694 368.182 404.28C368.938 407.944 372.735 409.195 376.016 408.322C377.53 407.842 378.822 406.835 379.656 405.483C380.49 404.132 380.811 402.526 380.561 400.958C380.339 399.297 379.536 397.768 378.295 396.642C377.054 395.516 375.455 394.864 373.78 394.804V394.804ZM375.25 405.393C369.833 407.296 370.598 399.974 372.88 397.452C373.134 397.678 373.452 397.821 373.79 397.86C377.564 398.206 379.337 403.964 375.251 405.38L375.25 405.393Z" fill="#755C33"/>
<path d="M401.102 406.9C400.898 406.767 400.662 406.691 400.419 406.679C400.176 406.666 399.934 406.718 399.717 406.829C399.544 406.648 399.325 406.518 399.084 406.452C398.843 406.386 398.588 406.386 398.347 406.453C392.709 408.066 394.457 415.67 399.712 416.384C402.209 416.721 405.169 415.609 405.26 412.752C405.258 410.35 402.987 408.066 401.102 406.9ZM400.322 413.443C398.183 413.445 396.435 410.147 399.043 409.405L399.299 409.293C399.392 409.383 399.495 409.463 399.606 409.532C400.633 410.159 401.463 411.063 402 412.14C402.578 413.323 401.211 413.433 400.308 413.443L400.322 413.443Z" fill="#755C33"/>
<path d="M312.568 742.61C310.937 740.046 310.002 737.102 309.854 734.068C309.389 724.46 318.036 715.654 323.321 708.48C329.636 699.915 332.175 692.407 331.945 681.728C331.788 674.775 330.982 666.4 336.383 661.038C341.051 656.417 350.067 658.81 355.656 659.792L355.919 659.805C356.194 659.882 356.485 659.873 356.754 659.779C360.538 658.584 364.961 657.103 368.749 659.075C373.281 661.419 373.182 669.025 373.648 673.216C374.184 678.296 375.024 683.339 376.164 688.318C377.17 692.537 378.824 696.566 379.788 700.783C375.259 702.213 371.327 705.096 368.602 708.986C364.13 714.937 363.407 722.525 356.466 726.502C351.915 729.116 348.131 730.866 344.499 734.791C340.368 739.232 337.046 744.673 331.121 747.007L331.017 746.863C328.779 744.193 326.509 741.076 323.036 739.995C319.564 738.914 315.637 741.004 312.686 742.477L312.568 742.61Z" fill="#FDD821"/>
<path d="M320.889 748.556C318.448 748.019 316.219 746.779 314.474 744.99C316.825 743.847 319.655 742.284 322.304 742.906C324.953 743.528 327.245 747.035 328.936 748.997C326.246 749.254 323.534 749.105 320.889 748.556V748.556Z" fill="#E63220"/>
<path d="M349.941 738.369C346.827 742.255 342.866 745.377 338.361 747.497C338.141 747.429 337.908 747.417 337.682 747.462L335.616 747.926C343.089 743.059 347.294 734.191 355.68 730.205L356.422 729.827C354.031 732.565 352.106 735.702 349.941 738.369Z" fill="#E63220"/>
<path d="M363.495 724.334C364.5 723.083 365.375 721.732 366.105 720.302C369.667 713.415 372.212 706.323 380.33 703.753C380.388 704.243 380.46 704.732 380.505 705.221C381.324 716.041 371.441 719.714 363.495 724.334Z" fill="#E63220"/>
<path d="M546.086 733.25C536.805 731.135 532.296 722.111 529.595 713.861C529.489 713.537 529.279 713.258 528.997 713.067C528.976 712.897 528.922 712.734 528.836 712.586C528.751 712.439 528.636 712.31 528.499 712.208C523.712 708.222 518.049 705.428 511.973 704.053C506.013 702.469 506.298 697.72 506.844 692.762C513.657 692.625 518.601 695.879 523.544 700.245C528.487 704.61 533.064 709.067 536.602 714.805C539.444 719.506 542.047 724.265 546.176 727.991C550.304 731.717 555.402 733.062 560.572 733.8C560.856 733.949 561.182 733.995 561.496 733.931V733.931C556.362 734.664 551.136 734.434 546.086 733.25Z" fill="#E63220"/>
<path d="M574.052 729.589C570.553 731.64 566.719 733.056 562.726 733.771C563.014 733.489 563.185 733.108 563.206 732.706C563.226 732.303 563.095 731.907 562.838 731.596C562.319 725.208 570.89 723.009 574.859 727.408C575.038 727.619 575.277 727.772 575.545 727.846C575.102 728.472 574.603 729.055 574.052 729.589V729.589Z" fill="#E63220"/>
<path d="M576.942 725.264C571.172 718.898 560.409 722.651 559.884 730.708C556.451 730.177 553.172 728.918 550.265 727.015C547.359 725.112 544.893 722.61 543.034 719.676C539.652 714.655 537.112 709.218 532.938 704.754C526.188 697.462 517.517 689.684 507.124 689.761C507.309 686.159 506.952 682.571 506.79 678.966C506.785 678.655 506.684 678.354 506.501 678.103C506.803 672.984 506.82 667.852 506.554 662.731C506.21 657.796 503.625 651.344 510.124 649.191C513.374 648.122 516.756 648.532 519.954 647.113C524.217 645.234 526.722 642.168 531.744 642.551C531.866 642.579 531.993 642.585 532.118 642.57C534.214 643.136 536.018 644.521 538.116 645.309C540.215 646.097 543.01 644.949 545.031 644.275C551.745 642.273 551.814 654.457 552.157 658.864C551.972 658.609 551.716 658.412 551.422 658.299C542.545 654.815 533.331 653.286 526.37 661.179C525.088 662.613 527.201 664.749 528.498 663.302C534.75 656.234 542.844 658.191 550.659 661.259C550.809 661.328 550.972 661.366 551.137 661.369C551.302 661.373 551.466 661.343 551.619 661.28C551.772 661.218 551.91 661.125 552.026 661.006C552.141 660.888 552.231 660.747 552.29 660.593C552.298 660.773 552.341 660.95 552.416 661.114C553.905 664.796 554.756 668.706 554.934 672.674C549.357 667.415 541.753 670.233 536.487 674.866C535.031 676.18 537.16 678.261 538.614 676.989C542.833 673.275 549.014 670.578 553.459 675.432C553.664 675.68 553.955 675.842 554.274 675.887C554.593 675.931 554.917 675.855 555.183 675.673C555.233 676.314 555.298 676.943 555.363 677.571C553.072 676.517 550.48 676.315 548.053 677.003C545.627 677.691 543.525 679.222 542.128 681.322C541.059 682.948 543.677 684.43 544.731 682.845C547.292 678.948 552.224 678.924 555.925 681.239C556.371 683.406 557.164 685.487 558.275 687.402C553.147 685.013 547.187 685.054 543.39 690.012C542.229 691.522 544.327 693.671 545.504 692.135C549.09 687.471 554.514 688.431 559.01 691.217C559.257 691.39 559.557 691.471 559.858 691.446C560.158 691.421 560.441 691.291 560.656 691.08C561.954 692.841 563.255 694.546 564.555 696.28C568.241 701.316 571.583 706.572 575.225 711.648C576.644 713.585 577.547 715.851 577.847 718.234C578.148 720.616 577.836 723.036 576.942 725.264V725.264Z" fill="#FDD821"/>
<path d="M553.737 665.375C546.871 661.411 541.305 662.139 534.418 665.619C532.664 666.501 534.237 669.138 535.908 668.251C541.84 665.25 546.303 664.618 552.241 668.007C552.59 668.205 553.003 668.257 553.39 668.15C553.777 668.044 554.106 667.788 554.305 667.439C554.503 667.09 554.555 666.677 554.448 666.29C554.342 665.903 554.086 665.574 553.737 665.375V665.375Z" fill="#222114"/>
<path d="M573.391 703.26C571.209 700.037 569.269 696.701 566.944 693.554C564.049 689.614 561.022 686.097 559.713 681.28C557.764 674.068 558.943 666.795 555.886 659.791C555.931 659.614 555.94 659.431 555.914 659.251C555.353 653.666 555.603 646.651 551.323 642.348C549.223 640.24 546.241 640.697 543.688 641.455C540.5 642.417 538.601 641.805 535.809 640.176C534.22 639.275 532.405 638.849 530.581 638.949C530.242 638.947 529.915 639.068 529.66 639.29C526.11 639.719 523.567 641.644 520.175 643.595C515.752 646.146 510.393 644.759 506.071 647.774C502.596 650.262 502.777 654.855 503.25 658.616C503.965 665.377 504.117 672.186 503.705 678.973C503.692 679.164 503.719 679.356 503.784 679.536C503.848 679.716 503.95 679.881 504.082 680.02C504.501 684.874 504.372 689.759 503.695 694.584C503.177 697.627 503.352 701.261 505.604 703.655C507.555 705.619 510.041 706.964 512.753 707.522C517.931 708.753 522.746 711.189 526.805 714.633C526.895 714.706 526.995 714.767 527.101 714.814C527.093 714.851 527.091 714.888 527.096 714.925C529.869 723.401 534.316 732.547 543.316 735.801C553.288 739.257 564.222 738.636 573.739 734.071C573.943 734.157 574.166 734.183 574.384 734.148C574.602 734.112 574.806 734.016 574.972 733.871C575.538 733.469 576.08 733.033 576.594 732.565C576.823 732.438 577.052 732.311 577.267 732.169C577.452 732.065 577.61 731.92 577.729 731.746C577.849 731.572 577.927 731.372 577.958 731.163C580.553 728.206 581.935 724.377 581.828 720.444C581.973 713.299 577.106 708.813 573.391 703.26ZM546.819 733.842C537.457 731.694 532.909 722.613 530.184 714.278C530.079 713.947 529.863 713.661 529.573 713.469C529.552 713.3 529.497 713.137 529.411 712.989C529.326 712.842 529.212 712.713 529.076 712.61C524.248 708.6 518.546 705.781 512.428 704.38C506.398 702.793 506.7 698.002 507.248 693.002C514.117 692.855 519.101 696.153 524.083 700.562C529.065 704.971 533.686 709.389 537.218 715.251C540.099 719.996 542.714 724.797 546.883 728.553C551.051 732.309 556.176 733.669 561.402 734.41C561.689 734.562 562.021 734.609 562.339 734.542V734.542C557.164 735.251 551.902 734.99 546.823 733.773L546.819 733.842ZM575.024 730.137C571.485 732.206 567.608 733.634 563.571 734.355C563.86 734.07 564.032 733.687 564.053 733.282C564.074 732.877 563.942 732.479 563.684 732.166C563.167 725.723 571.809 723.514 575.804 727.941C575.987 728.155 576.231 728.308 576.504 728.38C576.037 728.984 575.52 729.547 574.959 730.064L575.024 730.137ZM577.942 725.787C572.105 719.362 561.271 723.153 560.73 731.264C557.267 730.731 553.958 729.462 551.026 727.543C548.094 725.625 545.607 723.1 543.731 720.141C540.324 715.077 537.772 709.598 533.559 705.09C526.753 697.796 518.005 689.902 507.529 689.975C507.715 686.346 507.36 682.716 507.199 679.083C507.184 678.772 507.079 678.472 506.896 678.22C507.201 673.059 507.221 667.885 506.956 662.722C506.601 657.746 503.99 651.236 510.549 649.018C513.841 647.937 517.251 648.334 520.477 646.916C524.741 645.024 527.288 641.933 532.352 642.318L532.726 642.337C534.85 642.904 536.667 644.303 538.792 645.107C540.918 645.91 543.714 644.735 545.79 644.077C552.575 642.051 552.639 654.332 552.98 658.78C552.799 658.521 552.542 658.323 552.245 658.215C543.286 654.699 533.992 653.111 526.985 661.084C525.688 662.546 527.828 664.697 529.125 663.236C535.436 656.101 543.585 658.075 551.455 661.16C551.605 661.232 551.769 661.271 551.936 661.276C552.103 661.281 552.269 661.251 552.423 661.188C552.578 661.126 552.718 661.032 552.834 660.912C552.951 660.793 553.041 660.651 553.1 660.495C553.114 660.68 553.161 660.861 553.239 661.03C554.739 664.744 555.594 668.686 555.766 672.688C550.149 667.371 542.475 670.227 537.18 674.886C535.723 676.2 537.851 678.31 539.306 677.023C543.568 673.284 549.788 670.617 554.276 675.459C554.494 675.697 554.788 675.851 555.108 675.895C555.428 675.939 555.753 675.871 556.028 675.701C556.078 676.343 556.142 676.985 556.207 677.613C553.896 676.552 551.281 676.35 548.835 677.044C546.388 677.738 544.269 679.283 542.859 681.4C541.789 683.04 544.421 684.536 545.476 682.924C548.053 678.986 553.04 678.965 556.67 681.304C557.125 683.486 557.927 685.582 559.046 687.51C553.864 685.105 547.862 685.143 544.022 690.141C542.86 691.665 544.971 693.829 546.161 692.292C549.779 687.575 555.246 688.481 559.779 691.353C560.03 691.531 560.335 691.615 560.641 691.59C560.947 691.565 561.235 691.433 561.453 691.216C562.751 692.992 564.052 694.711 565.35 696.473C569.062 701.538 572.429 706.85 576.111 711.956C577.545 713.913 578.459 716.201 578.767 718.607C579.076 721.013 578.77 723.458 577.877 725.714L577.942 725.787Z" fill="#222114"/>
<path d="M563.235 698.707C561.195 696.907 558.836 695.504 556.28 694.572C553.76 693.873 550.971 694.633 548.548 695.3C548.169 695.409 547.848 695.661 547.652 696.002C547.456 696.344 547.402 696.749 547.5 697.13C547.598 697.512 547.841 697.84 548.177 698.045C548.513 698.25 548.917 698.315 549.301 698.228C551.436 697.419 553.754 697.216 555.998 697.641C558.106 698.236 560.041 700.043 561.738 701.339C563.436 702.634 564.774 699.842 563.235 698.707Z" fill="#222114"/>
<path d="M561.056 703.825C559.86 703.286 558.525 703.135 557.239 703.392C555.953 703.65 554.78 704.304 553.884 705.262C553.601 705.546 553.442 705.931 553.442 706.332C553.442 706.733 553.602 707.118 553.886 707.401C554.169 707.685 554.554 707.844 554.955 707.843C555.356 707.843 555.741 707.684 556.025 707.4C556.444 706.9 557.006 706.541 557.636 706.372C558.266 706.203 558.933 706.232 559.545 706.455C559.896 706.646 560.307 706.694 560.693 706.59C561.078 706.486 561.409 706.237 561.616 705.895C561.814 705.546 561.866 705.132 561.761 704.745C561.656 704.357 561.403 704.027 561.056 703.825V703.825Z" fill="#222114"/>
<path fill-rule="evenodd" clip-rule="evenodd" d="M377.279 682.828C376.279 677.707 376.136 672.367 375.22 667.222C375.153 667.192 375.094 667.146 375.049 667.088C375.003 667.03 374.972 666.962 374.959 666.889C374.953 665.791 374.779 664.7 374.445 663.654C374.149 663.151 373.973 662.586 373.932 662.003C370.889 653.916 362.451 654.316 355.189 656.707C349.175 655.634 342.809 654.363 336.951 656.479C335.964 656.829 335.035 657.325 334.194 657.949C334.19 657.907 334.192 657.865 334.201 657.824C333.429 658.52 332.737 659.29 331.988 660.071C329.71 663.069 328.34 666.657 328.04 670.411C327.192 678.548 329.06 687.061 326.611 694.991C324.777 700.966 320.383 706.199 316.67 711.148C310.082 719.893 302.621 729.954 306.965 741.372C311.775 754.009 325.313 753.815 336.467 751.36C336.665 751.446 336.879 751.488 337.095 751.485C337.31 751.481 337.523 751.432 337.718 751.341C342.942 749.038 347.544 745.528 351.147 741.1C355.583 735.855 358.809 730.382 364.921 726.848C370.176 723.785 375.913 721.607 379.763 716.679C382.927 712.675 383.158 707.381 382.519 702.501C381.613 695.801 378.578 689.451 377.279 682.828ZM319.702 749.208C317.243 748.664 314.999 747.408 313.248 745.598C315.612 744.456 318.471 742.88 321.147 743.518C323.823 744.155 326.115 747.662 327.777 749.65C325.055 749.908 322.31 749.757 319.633 749.204L319.702 749.208ZM349.009 738.921C345.858 742.87 341.841 746.043 337.269 748.193C337.049 748.125 336.815 748.113 336.59 748.158L334.51 748.621C342.04 743.715 346.333 734.769 354.734 730.756L355.476 730.363C353.073 733.073 351.133 736.238 348.954 738.918L349.009 738.921ZM355.58 726.994C351.001 729.62 347.188 731.382 343.513 735.332C339.351 739.827 335.945 745.305 330.031 747.669L329.928 747.51C327.663 744.824 325.364 741.72 321.95 740.587C318.536 739.453 314.477 741.689 311.516 743.092L311.358 743.196C309.7 740.615 308.751 737.645 308.605 734.582C308.148 724.835 316.865 716.019 322.194 708.792C328.569 700.147 331.11 692.583 330.886 681.807C330.734 674.757 329.915 666.354 335.374 660.94C340.072 656.278 349.17 658.704 354.8 659.687L355.064 659.701C355.343 659.773 355.637 659.764 355.912 659.675C359.728 658.399 364.19 656.975 368.008 658.907C372.58 661.281 372.478 668.956 372.955 673.189C373.493 678.307 374.341 683.388 375.493 688.404C376.499 692.622 378.163 696.735 379.139 700.98C374.574 702.42 370.611 705.327 367.867 709.249C363.236 715.317 362.537 722.962 355.497 726.989L355.58 726.994ZM362.639 724.773C363.652 723.524 364.531 722.172 365.263 720.74C368.855 713.8 371.431 706.64 379.606 704.06C379.664 704.549 379.736 705.039 379.78 705.541C380.597 716.403 370.643 720.1 362.625 724.772L362.639 724.773Z" fill="#222114"/>
<path fill-rule="evenodd" clip-rule="evenodd" d="M324.552 712.385C322.994 713.514 324.469 716.159 326.041 715.018C329.085 712.813 334.605 712.43 336.038 716.712C336.651 718.563 339.58 717.796 338.967 715.945C336.931 709.882 329.37 708.897 324.552 712.385Z" fill="#222114"/>
<path fill-rule="evenodd" clip-rule="evenodd" d="M327.673 704.881C326.101 706.009 327.576 708.654 329.163 707.514C332.29 705.299 337.209 705.802 339.283 709.242C340.294 710.905 342.926 709.429 341.929 707.753C341.188 706.62 340.229 705.647 339.109 704.888C337.988 704.13 336.728 703.601 335.401 703.334C334.075 703.067 332.708 703.066 331.382 703.332C330.055 703.598 328.794 704.124 327.673 704.881Z" fill="#222114"/>
<path fill-rule="evenodd" clip-rule="evenodd" d="M340.276 695.041C336.941 694.8 333.786 696.18 330.476 696.538C328.562 696.759 328.532 699.785 330.473 699.565C332.876 699.3 335.188 698.641 337.489 698.189C341.052 697.497 343.101 699.255 344.68 702.323C345.576 704.063 348.212 702.504 347.312 700.833C345.876 697.967 343.735 695.302 340.276 695.041Z" fill="#222114"/>
<path fill-rule="evenodd" clip-rule="evenodd" d="M342.297 688.964C339.477 687.902 336.213 688.166 333.272 688.376C331.333 688.526 331.317 691.553 333.269 691.403C335.819 691.083 338.404 691.188 340.92 691.713C343.471 692.615 345.742 694.168 347.508 696.218C348.827 697.577 351.047 695.455 349.646 694.078C347.584 691.874 345.08 690.131 342.297 688.964V688.964Z" fill="#222114"/>
<path fill-rule="evenodd" clip-rule="evenodd" d="M351.111 686.668C346.12 682.967 341.356 680.806 335.044 680.926C334.845 680.926 334.648 680.965 334.464 681.041C334.281 681.117 334.114 681.228 333.973 681.368C333.689 681.652 333.529 682.037 333.529 682.438C333.528 682.84 333.687 683.225 333.971 683.509C334.255 683.793 334.64 683.953 335.041 683.954C340.852 683.849 345.041 685.856 349.614 689.3C351.18 690.463 352.663 687.817 351.111 686.668Z" fill="#222114"/>
<path fill-rule="evenodd" clip-rule="evenodd" d="M345.404 674.688C341.668 673.885 337.603 674.606 333.823 674.634C333.624 674.634 333.428 674.674 333.244 674.749C333.06 674.825 332.893 674.936 332.752 675.077C332.468 675.361 332.308 675.745 332.308 676.147C332.308 676.548 332.467 676.934 332.75 677.218C333.034 677.502 333.419 677.662 333.821 677.662C337.016 677.646 340.228 677.311 343.428 677.475C347.362 677.677 350.233 680.2 352.785 682.956C354.1 684.412 356.253 682.245 354.923 680.816C352.484 677.811 349.149 675.664 345.404 674.688V674.688Z" fill="#222114"/>
<path fill-rule="evenodd" clip-rule="evenodd" d="M385.404 131.641C381.87 132.308 378.375 133.172 374.937 134.228C370.502 135.389 356.595 136.55 352.184 137.782C351.246 138.09 350.38 138.584 349.637 139.235C349.625 139.47 349.752 139.699 349.796 139.937C349.927 140.625 350.029 141.338 350.118 142.037C351.007 141.407 351.966 140.883 352.977 140.476C356.659 139.095 370.197 138.36 373.969 137.387C377.742 136.414 381.62 135.002 385.427 134.434C387.328 134.198 387.195 131.372 385.404 131.641Z" fill="#755C33"/>
<path fill-rule="evenodd" clip-rule="evenodd" d="M657.824 277.538C653.687 268.858 648.094 260.951 641.288 254.16C634.29 247.092 626.566 240.903 620.007 233.386C612.813 224.837 606.098 215.895 599.896 206.602C599.722 206.354 599.497 206.146 599.237 205.992C598.976 205.838 598.686 205.741 598.385 205.709C598.084 205.676 597.78 205.708 597.492 205.803C597.205 205.898 596.941 206.053 596.719 206.258C595.757 198.106 593.978 190.072 591.408 182.276C589.935 178.111 587.955 174.142 585.515 170.459C582.934 166.632 579.949 163.076 577.079 159.47C573.895 155.473 570.793 151.244 567.427 147.28C565.778 146.112 564.113 144.998 562.388 143.979C557.626 141.126 552.471 138.99 547.088 137.637C544.329 136.945 541.504 136.554 538.661 136.469C536.113 136.338 533.541 136.372 530.985 136.394C528.36 136.342 525.74 136.609 523.18 137.187C521.947 137.514 520.755 137.974 519.623 138.561C518.698 139.141 517.601 139.384 516.518 139.248C515.516 139.02 514.559 138.623 513.689 138.075C512.692 137.482 511.721 136.919 510.664 136.406C507.952 135.118 505.211 133.866 502.44 132.65C502.39 132.631 502.349 132.594 502.326 132.547C502.302 132.499 502.298 132.444 502.314 132.394C482.83 129.629 459.936 131.328 458.403 133.597C456.148 136.75 453.608 139.688 450.813 142.374C449.495 143.696 448.108 145.013 446.712 146.233C440.064 150.681 433.879 155.784 428.249 161.466C425.476 161.599 422.719 160.978 420.271 159.667C411.351 153.792 403.867 146.172 396.086 138.911C394.323 137.279 392.49 135.101 390.249 134.125C387.681 133.007 385.23 134.214 382.773 135.005C377.102 136.805 371.191 137.733 365.242 137.757C364.751 137.759 364.276 137.931 363.897 138.244C354.084 137.813 344.254 138.553 334.616 140.449C331.444 141.091 328.307 141.875 325.248 142.746C320.75 143.246 316.297 143.675 311.89 144.032C307.482 144.389 303.12 144.693 298.773 144.956C268.926 148.437 238.663 142.716 209.839 154.153C206.824 154.984 203.81 155.788 200.761 156.464C197.713 157.141 194.646 157.887 191.521 158.434C187.488 160.7 184.942 164.569 184.782 171.2C183.675 170.814 182.538 170.524 181.382 170.331C179.379 169.815 177.257 170.052 175.417 170.997C171.327 173.564 173.252 179.08 176.789 181.068C178.839 182.137 181.113 182.706 183.426 182.728C186.378 187.185 186.092 192.74 184.278 198.05C182.957 197.085 181.338 196.619 179.707 196.732C178.764 196.975 177.936 197.541 177.368 198.332C176.799 199.122 176.526 200.087 176.595 201.058C176.825 205.237 181.596 206.732 185.485 206.723C185.241 209.308 185.099 212.079 186.413 213.535C191.812 216.591 196.324 209.877 201.783 211.755C235.643 228.564 270.845 219.26 307.147 215.569C315.529 214.61 322.029 223.278 325.379 230.256C326.603 233.471 328.244 237.486 329.701 236.172C335.665 282.313 332.961 334.954 366.795 371.485C370.003 375.253 373.857 378.419 378.176 380.833C388.019 386.061 397.674 391.71 407.688 396.585C413.623 399.474 419.954 402.507 426.362 403.211C439.981 404.689 453.756 404.757 467.464 405.322C471.62 405.536 485.45 401.815 486.236 401.383C491.111 398.689 496.211 396.465 501.098 393.813C504.428 391.97 508.132 390.174 510.513 387.352C516.03 380.761 521.191 373.882 525.975 366.742C528.619 362.85 531.394 358.59 532.387 354.113C536.576 335.299 540.133 316.342 543.869 297.422C544.715 293.105 545.04 288.677 546.119 284.427C547.404 278.347 548.346 272.2 548.94 266.015C551.728 268.851 555.077 271.074 558.773 272.541C562.47 274.008 566.432 274.687 570.406 274.534C570.583 274.735 570.802 274.894 571.048 274.998C571.294 275.103 571.56 275.151 571.827 275.14C572.094 275.128 572.355 275.057 572.591 274.931C572.827 274.806 573.032 274.628 573.19 274.413C573.546 273.973 573.928 273.562 574.297 273.151C574.187 273.395 574.063 273.639 573.967 273.898C573.895 274.209 573.895 274.532 573.967 274.843C574.039 275.155 574.182 275.445 574.383 275.693C574.585 275.94 574.841 276.138 575.131 276.272C575.421 276.405 575.738 276.471 576.057 276.464C581.625 276.222 587.338 275.876 592.983 275.75C594.909 275.695 596.836 275.794 598.746 276.045L598.159 276.112C595.802 276.146 593.546 277.072 591.845 278.705C588.377 282.694 592.069 288.147 595.63 290.483C596.613 291.186 597.738 291.666 598.925 291.89C600.113 292.114 601.336 292.077 602.508 291.781C604.808 290.962 606.901 289.647 608.636 287.929C609.579 287.222 610.367 286.329 610.95 285.306C611.533 284.282 611.899 283.149 612.025 281.977C612.039 281.638 612.023 281.298 611.98 280.961L619.259 284.182C621.945 285.192 624.455 286.62 626.695 288.412C630.505 291.857 630.657 297.282 631.841 302.079C630.498 302.289 629.285 303.002 628.447 304.071C627.801 304.973 627.51 306.082 627.63 307.185C627.75 308.288 628.273 309.308 629.098 310.05C630.263 311.203 631.725 312.012 633.321 312.386C634.918 312.759 636.586 312.684 638.143 312.167C639.305 316.253 640.859 320.217 642.785 324.003C643.08 324.469 643.548 324.8 644.086 324.921C644.624 325.042 645.188 324.945 645.655 324.65C652.335 319.785 656.322 312.475 658.449 304.598C659.497 300.635 660.17 296.582 660.459 292.493C660.95 287.361 660.039 282.192 657.824 277.538ZM380.472 140.054C380.922 139.938 381.385 139.85 381.878 139.723C383.103 139.383 384.304 138.986 385.509 138.521C386.713 138.055 387.922 137.519 389.12 138.261C391.096 139.717 392.919 141.37 394.561 143.194C389.929 141.878 385.224 140.829 380.472 140.054Z" fill="#F6A320"/>
<path fill-rule="evenodd" clip-rule="evenodd" d="M548.664 267.059C548.038 266.38 547.449 265.669 546.899 264.927C543.354 293.121 539.542 327.051 535.962 342.66C531.144 364.26 519.159 383.701 499.93 395.186C481.745 406.072 459.646 407.993 438.981 405.501C415.419 402.638 391.726 393.949 373.71 378.287C372.195 376.963 370.764 375.544 369.428 374.039L368.883 374.109C368.012 374.133 367.142 374.089 366.278 373.975L366.057 373.964C369.178 377.972 372.781 381.581 376.783 384.709C394.75 398.341 416.808 405.613 438.993 408.516C458.763 411.115 479.414 409.008 497.388 400.056C517.345 390.094 530.567 371.453 537.047 350.466C541.78 335.125 543.816 318.729 546.723 302.961C547.882 296.631 549.237 283.215 550.728 269.068C550.038 268.436 549.352 267.734 548.664 267.059Z" fill="#755C33"/>
<path d="M380.313 66.0987C380.53 71.7263 381.039 77.339 381.838 82.9138C377.924 78.5321 374.82 68.9278 380.313 66.0987Z" fill="#FCC87F"/>
<path fill-rule="evenodd" clip-rule="evenodd" d="M424.949 163.798C415.095 154.444 402.069 143.858 390.851 133.212C390.581 131.434 389.776 129.532 390.138 127.898C392.308 118.106 389.73 108.793 387.854 99.3487C384.663 82.5175 382.798 65.824 385.459 48.6267C387.164 37.6028 392.878 30.7294 402.573 26.6715C413.615 22.0717 425.322 21.5755 436.863 23.7516C447.565 25.7735 453.863 33.5 457.862 43.2612C462.082 53.5756 462.045 64.5739 462.078 75.2982C462.115 91.6202 460.818 107.943 459.856 124.242C457.739 140.314 433.63 154.313 424.949 163.798Z" fill="#FBC783"/>
<path d="M404.857 63.3441C406.925 60.3947 411.328 62.0097 413.612 63.7937C415.119 65.01 417.217 62.8262 415.696 61.6092C411.695 58.3897 405.524 57.1143 402.196 61.8741C401.029 63.5087 403.706 64.924 404.857 63.3441Z" fill="#755C33"/>
<path d="M452.219 65.5149C448.398 60.6796 442.833 58.9494 437.22 61.9668C435.491 62.9058 437.039 65.4855 438.767 64.5603C442.782 62.3914 446.859 63.5868 449.625 67.0762C450.824 68.5962 453.432 67.0495 452.219 65.5149Z" fill="#755C33"/>
<path d="M423.154 80.5556C425.925 82.0258 429.105 82.537 432.197 82.0098C435.29 81.4827 438.121 79.9466 440.248 77.6413C441.532 76.1794 439.348 74.0812 438.051 75.5424C434.863 79.1844 430.784 79.6556 426.273 78.5072C424.455 77.9954 422.788 77.0521 421.414 75.7575C418.599 73.2379 419.567 69.8012 421.061 66.9473C421.155 66.7697 421.213 66.5755 421.232 66.3755C421.25 66.1755 421.23 65.9737 421.17 65.7817C421.111 65.5897 421.015 65.4112 420.887 65.2565C420.759 65.1017 420.601 64.9739 420.424 64.88C420.246 64.7861 420.052 64.7281 419.852 64.7092C419.652 64.6904 419.45 64.7112 419.258 64.7703C419.066 64.8294 418.888 64.9258 418.733 65.0539C418.578 65.1821 418.45 65.3392 418.356 65.5168C415.147 71.755 416.777 77.3391 423.154 80.5556Z" fill="#755C33"/>
<path d="M422.425 81.2206C416.32 81.6432 410.256 82.8872 405.17 86.4456C404.889 86.6215 404.672 86.8841 404.554 87.1939C404.435 87.5037 404.421 87.8436 404.513 88.1623C404.605 88.481 404.798 88.7613 405.063 88.9603C405.329 89.1593 405.652 89.2663 405.983 89.2653C409.588 89.4119 413.197 89.131 416.735 88.4285C419.088 88.0493 424.183 87.2832 424.048 83.9706C424.043 83.7095 423.964 83.4551 423.821 83.2367C423.938 83.0128 423.991 82.7615 423.975 82.5097C423.959 82.2579 423.874 82.0152 423.731 81.8078C423.587 81.6004 423.389 81.4361 423.159 81.3326C422.929 81.229 422.675 81.1905 422.425 81.2206V81.2206Z" fill="#222114"/>
<path d="M444.862 91.9427L445.211 92.1828C446.838 93.2385 448.267 90.5618 446.642 89.4783C443.146 87.2293 439.948 84.593 436 83.3069C434.333 82.7768 429.492 82.1113 428.568 84.4112C427.644 86.711 429.744 88.5553 431.83 89.3152C433.292 89.7095 434.799 89.913 436.313 89.9204C438.868 90.0854 441.367 90.7417 443.672 91.8538C443.852 91.9562 444.052 92.0173 444.257 92.0327C444.463 92.0481 444.67 92.0174 444.862 91.9427V91.9427Z" fill="#222114"/>
<path d="M411.753 95.1187C421.328 95.027 431.236 98.4389 440.749 96.0384C442.649 95.5526 441.798 92.6476 439.912 93.1202C430.738 95.427 420.927 92.0064 411.687 92.0875C411.285 92.0963 410.903 92.2643 410.625 92.5548C410.347 92.8453 410.195 93.2343 410.204 93.6363C410.213 94.0383 410.381 94.4203 410.672 94.6983C410.962 94.9763 411.351 95.1275 411.753 95.1187V95.1187Z" fill="#755C33"/>
<path d="M447.449 109.454C440.917 113.63 433.272 115.726 425.524 115.467C417.775 115.208 410.288 112.606 404.049 108.003C402.469 106.866 401.053 109.543 402.619 110.707C409.315 115.57 417.321 118.303 425.593 118.549C433.865 118.796 442.02 116.545 448.994 112.089C450.647 111.007 449.085 108.413 447.449 109.454Z" fill="#755C33"/>
<path d="M462.827 86.4059C470.331 81.9994 472.445 69.774 463.543 65.4417C463.308 65.326 463.047 65.2741 462.786 65.2916C462.528 60.684 461.942 56.1008 461.032 51.5763C459.09 42.0734 454.559 32.3957 446.524 26.5662C436.428 19.2419 423.906 19.3907 411.982 20.07C411.614 20.0512 411.255 20.1791 410.981 20.4256C410.708 20.672 410.544 21.0168 410.525 21.3842C402.279 23.7386 394.043 26.4406 388.191 33.0154C382.339 39.5901 380.914 49.2256 380.414 57.6169C380.316 59.5147 380.219 61.4127 380.274 63.3184C370.067 66.5166 375.288 82.2297 381.968 86.5867C382.092 86.6723 382.229 86.7359 382.375 86.7744C384.091 97.9741 386.362 109.202 387.278 120.569C387.266 120.67 387.261 120.772 387.263 120.874L387.385 122.811C387.391 123.017 387.442 123.218 387.536 123.402C387.392 123.535 387.279 123.697 387.202 123.878C387.126 124.058 387.089 124.253 387.093 124.449C386.992 128.041 386.712 131.86 389.156 134.846C392.628 139.192 397.434 141.883 401.482 145.549C408.967 152.351 415.37 160.735 424.562 165.374C424.917 165.556 425.328 165.593 425.71 165.478C426.091 165.363 426.413 165.105 426.608 164.757C431.322 157.068 439.644 151.079 447.128 146.255C452.529 142.782 457.738 139.535 458.209 132.795C458.583 132.76 458.934 132.596 459.201 132.331C459.468 132.066 459.634 131.717 459.672 131.343C459.82 129.809 459.955 128.274 460.103 126.74C460.266 125.958 460.339 125.16 460.322 124.362C461.484 111.741 462.37 99.0912 462.827 86.4059ZM462.949 82.6757C463.093 77.9884 463.14 73.2825 462.964 68.5927C467.926 71.7782 467.082 79.0128 462.949 82.6757ZM380.44 66.5768C380.647 71.8957 381.125 77.2006 381.874 82.4707C378.114 78.333 375.177 69.2511 380.37 66.5733L380.44 66.5768ZM455.336 131.939C455.315 139.925 445.543 143.59 440.006 147.819C434.469 152.049 428.846 156.344 424.896 162.127C417.928 158.255 412.454 152.057 406.851 146.478C403.893 143.569 400.737 140.868 397.405 138.395C395.622 137.054 393.947 135.574 392.396 133.971C389.758 131.238 390.128 127.827 390.22 124.415C390.23 124.21 390.198 124.005 390.126 123.813C390.26 123.674 390.363 123.509 390.43 123.329C390.497 123.148 390.525 122.955 390.513 122.763L390.416 121.133L390.513 121.138C389.213 102.918 384.628 85.0843 383.581 66.8076C383.048 57.1688 383.743 47.1488 388.301 38.452C392.927 29.5087 403.55 26.5819 412.554 24.0719C412.802 24.0128 413.028 23.8865 413.209 23.7071C413.39 23.5278 413.518 23.3022 413.579 23.055C425.361 22.4378 437.534 22.5905 446.919 30.7811C454.895 37.7465 457.938 48.806 459.267 58.9024C460.387 67.3908 459.752 89.4842 459.701 90.7455C459.257 101.834 458.411 112.902 457.412 123.963C457.377 124.098 457.37 124.239 457.391 124.378V124.378L457.345 125.278C457.302 125.772 457.212 126.261 457.075 126.737C456.994 126.978 456.981 127.237 457.037 127.485L456.761 130.415C456.562 130.414 456.365 130.452 456.182 130.529C455.998 130.605 455.831 130.717 455.692 130.859C455.552 131.001 455.443 131.169 455.37 131.354C455.297 131.539 455.262 131.737 455.267 131.936L455.336 131.939Z" fill="#755C33"/>
<path d="M462.991 82.6852C463.121 77.9834 463.168 73.2913 462.992 68.6016C467.953 71.787 467.11 79.0216 462.991 82.6852Z" fill="#FCC87F"/>
<path d="M434.947 359.946C425.707 358.929 415.546 353.393 407.078 346.014C399.731 339.5 394.262 331.138 391.237 321.797C389.135 315.214 389.182 308.134 391.373 301.581C390.85 313.11 401.124 321.846 410.411 327.087C424.343 334.914 439.513 334.86 453.905 332.099C454.21 332.037 454.5 331.915 454.757 331.74C454.874 331.898 455.004 332.058 455.136 332.204C455.799 338.488 456.781 344.788 459.189 350.093C459.301 350.339 459.477 350.549 459.7 350.702C451.79 357.06 444.239 361.02 434.947 359.946Z" fill="#FDD821"/>
<path d="M459.691 337.603C459.325 335.251 459.06 332.848 458.835 330.462C458.798 330.133 458.667 329.822 458.459 329.565C458.251 329.309 457.973 329.117 457.659 329.012C451.646 321.689 446.578 312.748 439.048 305.75C454.75 306.959 469.87 311.93 485.242 312.289C486.2 320.684 486.277 329.155 485.471 337.566C477.975 335.861 468.493 337.138 459.691 337.603Z" fill="#FDD821"/>
<path d="M487.33 308.131C487.18 308.25 487.055 308.399 486.965 308.569C486.875 308.739 486.821 308.926 486.808 309.118C469.195 308.589 451.989 301.774 433.978 301.433C433.579 301.454 433.195 301.591 432.872 301.826C432.549 302.061 432.301 302.385 432.158 302.759C432.015 303.132 431.984 303.539 432.068 303.93C432.152 304.32 432.347 304.679 432.63 304.961C432.746 305.408 433.016 305.801 433.393 306.069C441.42 312.037 446.689 320.864 452.287 328.429C439.862 330.472 427.462 330.418 415.309 325.002C405.022 320.307 394.616 311.703 395.442 299.412C396.364 287.403 408.179 278.024 417.218 273.224C426.256 268.424 435.903 266.933 444.982 266.482C445.319 266.474 445.642 266.342 445.889 266.113C456.566 266.202 467.441 269.455 478.226 276.357C484.95 280.647 490.672 286.066 493.571 291.826C496.801 298.159 492.526 303.523 487.33 308.131Z" fill="#FDD821"/>
<path d="M497.947 319.681C496.594 324.653 495.726 332.373 489.114 336.714C490.103 328.193 490.079 319.585 489.042 311.07C489.042 311.07 489.049 310.932 489.052 310.876C489.468 310.839 489.861 310.669 490.174 310.392C493.421 307.818 495.929 304.429 497.442 300.571C499.917 306.67 500.096 313.459 497.947 319.681V319.681Z" fill="#FDD821"/>
<path d="M499.283 296.36C499 295.884 498.563 295.519 498.045 295.324C497.492 290.129 493.335 284.527 485.839 278.502C472.409 267.66 458.235 262.098 444.722 262.085C444.537 262.071 444.351 262.102 444.18 262.175C444.009 262.249 443.859 262.363 443.742 262.507C434.264 262.246 424.861 264.249 416.312 268.349C407.764 272.448 400.315 278.527 394.585 286.08C388.118 297.068 384.306 306.914 386.573 318.753C388.706 329.974 396.209 340.471 405.022 348.716C413.245 356.469 423.508 361.717 434.607 363.847C445.112 365.636 454.257 359.856 463.332 351.905C464.947 350.488 464.17 348.295 462.715 348.512C462.761 348.184 462.716 347.85 462.584 347.547C461.699 345.505 461.018 343.381 460.548 341.206C468.915 340.566 478.101 339.107 484.917 341.068C485.489 341.127 486.065 341 486.558 340.705C487.051 340.41 487.436 339.963 487.654 339.431V339.431C488.047 339.896 488.86 340.021 489.864 339.406C497.192 334.921 499.499 327.858 500.924 322.556C503.657 312.891 504.576 305.799 499.283 296.36ZM435.104 359.844C425.879 358.815 415.704 353.292 407.239 345.843C399.886 339.338 394.419 330.973 391.412 321.627C389.298 315.048 389.34 307.964 391.534 301.41C390.941 312.95 401.284 321.69 410.571 326.931C424.504 334.744 439.673 334.703 454.065 331.942C454.371 331.883 454.662 331.761 454.917 331.583L455.295 332.061C455.958 338.359 456.941 344.646 459.363 349.951C459.461 350.205 459.641 350.419 459.873 350.56C451.947 356.959 444.396 360.919 435.104 359.844ZM459.863 337.504C459.498 335.152 459.246 332.75 459.007 330.376C458.987 330.033 458.865 329.704 458.656 329.43C458.448 329.157 458.162 328.953 457.836 328.844C451.823 321.521 446.754 312.58 439.224 305.582C454.926 306.791 470.047 311.762 485.432 312.122C486.376 320.512 486.453 328.978 485.662 337.384C478.134 335.762 468.665 337.053 459.849 337.503L459.863 337.504ZM487.502 308.047C487.355 308.166 487.235 308.314 487.147 308.482C487.06 308.649 487.008 308.833 486.994 309.021C469.381 308.506 452.175 301.677 434.15 301.349C433.75 301.367 433.365 301.501 433.041 301.735C432.717 301.968 432.468 302.292 432.325 302.665C432.182 303.038 432.151 303.445 432.236 303.835C432.321 304.226 432.518 304.583 432.802 304.863C432.927 305.314 433.201 305.71 433.578 305.986C441.605 311.954 446.875 320.767 452.459 328.332C440.048 330.375 427.634 330.321 415.481 324.905C405.194 320.21 394.788 311.606 395.614 299.314C396.535 287.319 408.365 277.927 417.39 273.126C426.415 268.325 436.089 266.836 445.153 266.399C445.493 266.387 445.816 266.25 446.062 266.015C456.752 266.106 467.612 269.372 478.397 276.273C485.122 280.549 490.844 285.968 493.742 291.742C496.973 298.075 492.656 303.423 487.488 308.047L487.502 308.047ZM498.118 319.579C496.766 324.551 495.91 332.285 489.285 336.612C490.281 328.096 490.257 319.492 489.212 310.982C489.224 310.914 489.227 310.844 489.223 310.774C489.643 310.737 490.041 310.568 490.359 310.291C493.596 307.715 496.097 304.332 497.613 300.483C500.091 306.577 500.266 313.365 498.105 319.578L498.118 319.579Z" fill="#9D7637"/>
<path d="M467.255 315.533C466.942 315.349 466.581 315.263 466.218 315.287C465.855 315.31 465.508 315.442 465.221 315.665C464.911 315.436 464.541 315.303 464.157 315.283C463.773 315.263 463.391 315.358 463.06 315.554C462.107 316.108 461.341 316.935 460.859 317.927C460.378 318.919 460.203 320.031 460.357 321.123C460.754 323.394 463.205 324.353 465.354 324.158C466.484 324.153 467.577 323.762 468.453 323.049C469.329 322.335 469.934 321.343 470.167 320.238C470.199 319.254 469.94 318.283 469.422 317.445C468.904 316.608 468.15 315.943 467.255 315.533V315.533ZM466.228 320.397C466.44 320.061 465.958 320.508 466.228 320.397C466.08 320.497 465.91 320.56 465.732 320.58C465.349 320.635 464.958 320.615 464.582 320.521C464.582 320.521 464.058 320.188 464.285 320.367C464.237 320.326 464.197 320.277 464.167 320.222C464.123 320.033 464.133 319.837 464.196 319.654C464.357 319.274 464.624 318.95 464.967 318.721L465.082 318.63L465.311 318.781L465.514 318.888L465.674 319.007C465.771 319.115 465.877 319.213 465.992 319.301C466.1 319.453 466.199 319.611 466.288 319.775C466.174 319.561 466.273 320.066 466.356 320.056C466.44 320.047 466.345 320.278 466.343 320.319L466.228 320.397Z" fill="#9D7637"/>
<path d="M482.763 324.855C482.666 324.788 482.562 324.731 482.452 324.686C482.181 324.436 481.828 324.294 481.459 324.288C480.081 324.176 478.699 324.451 477.469 325.083C476.239 325.714 475.21 326.677 474.497 327.861C472.976 330.436 473.736 333.225 476.173 334.17C478.611 335.115 481.749 333.776 483.524 331.395C483.933 330.928 484.24 330.381 484.424 329.789C484.608 329.196 484.667 328.572 484.595 327.956C484.523 327.34 484.323 326.746 484.008 326.212C483.692 325.677 483.268 325.215 482.763 324.855V324.855ZM480.585 329.952C480.377 330.366 480.028 330.692 479.601 330.871C479.174 331.05 478.697 331.071 478.256 330.93C476.301 330.329 478.324 327.725 480.078 327.648C480.435 327.899 480.685 328.275 480.778 328.702C480.872 329.128 480.803 329.574 480.585 329.952V329.952Z" fill="#9D7637"/>
<path d="M483.229 316.077C482.868 314.17 480.864 313.178 478.721 312.97C478.174 312.833 477.597 312.877 477.076 313.094C476.123 313.462 475.339 314.167 474.872 315.075C474.406 315.983 474.289 317.031 474.545 318.02C475.239 320.195 477.603 320.955 479.98 320.382C480.964 320.207 481.846 319.665 482.449 318.867C483.051 318.069 483.33 317.072 483.229 316.077V316.077ZM479.103 317.171C478.906 317.223 478.698 317.212 478.507 317.14L478.396 317.134L478.28 316.962L478.284 316.893C478.287 316.865 478.289 316.837 478.288 316.809L478.295 316.685C478.29 316.639 478.292 316.592 478.302 316.546C478.302 316.546 478.377 316.439 478.408 316.371L478.671 316.385C478.505 316.376 478.865 316.395 478.99 316.401C478.865 316.395 479.286 316.583 479.248 316.511L479.381 316.629L479.375 316.74C479.37 316.786 479.368 316.832 479.368 316.879C479.368 316.879 479.278 316.999 479.276 317.041C479.274 317.082 479.328 317.113 479.103 317.171Z" fill="#9D7637"/>
<path d="M451.853 311.212C449.322 311.277 449.299 315.248 451.836 315.058C454.374 314.869 454.371 311.133 451.853 311.212Z" fill="#9D7637"/>
<path d="M464.838 328.808C462.379 329.085 462.283 332.844 464.718 332.483C467.154 332.122 467.366 328.536 464.838 328.808Z" fill="#9D7637"/>
<path d="M474.14 321.304C471.656 321.523 471.543 325.087 473.96 324.808C476.377 324.53 476.624 321.084 474.14 321.304Z" fill="#9D7637"/>
<path fill-rule="evenodd" clip-rule="evenodd" d="M658.694 269.005C654.207 260.093 646.208 254.113 638.842 247.721C631.564 241.38 624.744 234.532 618.435 227.227C611.224 218.837 604.716 209.867 598.978 200.408C598.789 200.08 598.508 199.815 598.17 199.644C596.533 188.604 593.053 177.918 587.877 168.031C583.792 160.21 578.824 158.496 572.825 151.98C566.826 145.463 560.019 142.252 552.31 138.204C549.886 136.871 547.167 136.167 544.401 136.158C541.44 136.201 538.391 134.183 535.512 134.799C529.277 136.118 516.493 136.767 516.351 136.843L505.231 132.952C504.965 132.888 504.689 132.877 504.419 132.92C504.149 132.963 503.89 133.058 503.657 133.201C503.424 133.344 503.221 133.531 503.061 133.752C502.9 133.974 502.785 134.224 502.721 134.49C502.603 135.026 502.697 135.587 502.984 136.055C503.271 136.523 503.728 136.861 504.259 137C509.332 139.023 514.764 139.992 520.224 139.847C521.352 139.794 530.037 140.254 533.803 139.406C538.932 138.483 544.219 139.113 548.989 141.213C552.782 142.797 565.808 150.689 568.709 153.699C580.237 165.611 588.263 175.107 592.299 191.176C594.543 200.147 595.393 209.41 594.82 218.639C594.682 221.313 598.857 221.166 598.993 218.506C599.205 215.075 599.214 211.634 599.022 208.202C608.043 221.96 618.673 234.592 630.689 245.829C637.567 252.252 645.787 257.716 651.539 265.248C656.937 272.405 659.596 281.257 659.036 290.204C658.281 300.104 653.982 309.401 646.927 316.388C645.037 318.305 648.072 321.142 649.961 319.239C662.942 306.099 667.163 285.843 658.694 269.005Z" fill="#755C33"/>
<path fill-rule="evenodd" clip-rule="evenodd" d="M654.314 305.611C652.287 309.711 649.728 313.525 646.704 316.957C645.355 312.992 643.695 309.141 641.74 305.437C641.543 305.064 641.265 304.74 640.924 304.49C640.584 304.241 640.191 304.072 639.776 303.997C639.36 303.922 638.933 303.943 638.527 304.058C638.121 304.173 637.746 304.379 637.432 304.661C635.312 306.455 630.952 308.05 629.265 304.936C627.259 301.263 631.687 300.768 634.379 301.365C634.893 301.535 635.445 301.551 635.967 301.411C636.49 301.272 636.96 300.982 637.321 300.578C637.681 300.175 637.915 299.674 637.995 299.139C638.074 298.604 637.996 298.058 637.769 297.567C635.294 291.662 630.491 287.276 625.035 283.982C622.192 282.323 619.254 280.832 616.236 279.516C613.523 278.265 609.747 276.863 608.315 280.679C607.19 283.663 607.297 287.251 604.305 289.265C601.313 291.278 597.656 290.798 594.565 289.598C592.937 289.042 591.415 288.212 590.066 287.144C588.498 285.772 589.247 284.977 590.734 283.873C593.747 281.718 597.441 280.733 601.127 281.101C604.46 281.369 604.918 277.06 602.244 275.839C595.85 272.955 588.411 274.753 581.902 276.266C578.815 276.85 575.783 277.698 572.841 278.801C574.158 274.818 576.518 271.26 579.676 268.499C582.364 266.192 578.71 262.157 576.021 264.478C572.765 267.324 570.206 270.88 568.543 274.872C568.558 274.907 568.565 274.946 568.563 274.984C568.561 275.023 568.55 275.06 568.531 275.094C567.459 277.292 566.694 279.626 566.258 282.033V282.033C566.149 282.541 566.067 283.051 565.971 283.574C565.755 285.124 565.642 286.686 565.633 288.251C565.63 288.309 565.608 288.366 565.571 288.411C565.534 288.457 565.483 288.489 565.426 288.504L565.368 289.626C565.418 294.663 565.753 299.693 566.372 304.692C566.727 308.877 566.406 314.306 561.923 316.423L561.736 316.538C560.729 315.475 559.603 314.532 558.38 313.727C554.134 310.939 549.539 310.897 544.633 310.951C538.672 311.006 532.335 310.528 526.515 312.174C526.007 312.305 525.547 312.578 525.188 312.96C524.829 313.342 524.586 313.818 524.487 314.333L522.42 316.172C521.722 316.679 521.234 317.425 521.049 318.268C520.953 318.914 520.919 319.569 520.948 320.221C520.995 321.348 521.3 322.45 521.839 323.44C522.378 324.431 523.137 325.285 524.058 325.937C523.876 326.378 523.741 326.836 523.654 327.305C523.21 329.695 523.034 332.127 523.129 334.556C523.199 335.594 523.525 336.598 524.076 337.48C524.351 337.828 524.666 338.142 525.014 338.417C523.768 340.231 523.167 342.411 523.307 344.607C523.437 345.874 523.93 347.076 524.727 348.069C525.11 348.543 525.556 348.963 526.051 349.318L526.472 349.52C526.36 350.038 526.282 350.563 526.238 351.091C526.204 352.326 526.385 353.557 526.774 354.73C527.225 356.079 527.94 357.324 528.877 358.394C528.656 358.587 528.47 358.817 528.328 359.074C523.503 367.84 535.499 373.331 542.391 374.908C549.488 376.536 560.336 377.065 563.856 369.926C564.467 370.105 565.12 370.085 565.72 369.869C577.87 365.472 589.66 360.139 600.985 353.916C612.138 347.961 623.542 342.004 634.03 334.945C644.045 328.51 652.39 319.789 658.379 309.501L658.61 309.054C657.198 307.884 655.757 306.741 654.314 305.611ZM563.873 342.274C563.51 346.266 562.842 350.225 561.876 354.116C561.099 358.146 560.432 362.223 559.504 366.231C559.437 367.003 559.156 367.742 558.693 368.364C558.229 368.986 557.6 369.465 556.878 369.749C555.133 370.306 553.308 370.573 551.476 370.541C547.548 370.632 543.639 369.959 539.967 368.561C538.101 367.84 531.336 365.145 533.005 362.134C533.143 361.867 533.241 361.582 533.298 361.287C537.592 362.976 542.085 364.108 546.667 364.655C547.386 364.692 548.09 364.449 548.633 363.977C549.175 363.505 549.513 362.84 549.575 362.123C549.613 361.388 549.357 360.669 548.864 360.123C548.371 359.576 547.682 359.248 546.947 359.21C545.866 359.155 544.795 358.919 543.722 358.725L543.362 358.707L542.511 358.511C541.975 358.4 541.453 358.276 540.919 358.137C538.783 357.569 536.685 356.867 534.637 356.037C534.42 355.96 534.194 355.911 533.964 355.891C533.361 355.455 532.856 354.897 532.483 354.253C532.109 353.61 531.875 352.894 531.795 352.154C531.774 351.756 531.794 351.357 531.856 350.963C537.656 352.203 543.68 351.89 549.32 350.054C550.03 349.913 550.656 349.5 551.065 348.903C551.475 348.307 551.635 347.574 551.512 346.861C551.35 346.157 550.919 345.543 550.311 345.151C549.704 344.759 548.967 344.62 548.258 344.763C546.878 345.225 545.467 345.589 544.036 345.852C543.321 345.982 542.634 346.1 541.894 346.173C541.502 346.227 541.112 346.262 540.722 346.279L540.015 346.243C537.223 346.334 534.433 346.022 531.729 345.317C531.201 345.193 530.65 345.208 530.13 345.36L529.807 345.163C529.308 344.874 529.046 344.833 528.851 344.295C528.753 343.833 528.757 343.356 528.862 342.896C528.967 342.436 529.171 342.004 529.46 341.631C529.625 341.654 529.792 341.663 529.959 341.657L536.566 341.732C538.767 341.819 540.971 341.681 543.143 341.32C547.05 340.631 550.525 338.422 552.806 335.177C554.721 332.234 550.138 329.262 548.211 332.163C547.447 333.262 546.458 334.186 545.309 334.871C544.16 335.557 542.878 335.99 541.548 336.141C539.868 336.354 538.173 336.42 536.482 336.339L530.472 336.266C530.126 335.814 529.749 335.386 529.343 334.986C528.894 334.533 528.768 334.554 528.721 333.857C528.726 332.93 528.806 332.006 528.96 331.091C529.009 330.136 529.058 329.18 529.232 328.23C529.405 327.281 529.617 327.222 530.504 326.712C532.48 325.587 534.561 324.657 536.717 323.934C537.422 323.783 538.041 323.364 538.442 322.765C538.844 322.166 538.996 321.434 538.867 320.725C538.706 320.02 538.275 319.407 537.667 319.015C537.059 318.623 536.323 318.484 535.614 318.627C532.788 319.565 529.203 320.673 526.685 322.641L526.243 322.327L526.124 322.209C526.207 322.214 526.268 322.383 526.124 322.209C525.999 322.075 525.881 321.935 525.771 321.788L525.655 321.616C525.579 321.473 525.503 321.33 525.44 321.188C525.402 321.106 525.369 321.02 525.342 320.933C525.34 320.887 525.343 320.84 525.35 320.795C525.354 320.711 525.358 320.628 525.362 320.545C525.324 320.31 525.299 320.072 525.288 319.833C525.286 319.796 525.288 319.759 525.293 319.722L525.301 319.584C525.3 319.496 525.304 319.408 525.314 319.32L525.533 319.123L527.293 317.561C527.441 317.543 527.586 317.513 527.729 317.472C531.751 316.574 535.875 316.216 539.992 316.408C543.674 316.374 547.813 315.837 551.443 316.551C558.194 317.898 561.623 324.699 562.885 330.681C563.684 334.491 564.016 338.384 563.873 342.274V342.274ZM636.034 327.02C630.636 331.07 624.943 334.71 619.002 337.91C613.022 341.297 607.03 344.657 600.973 347.929C589.596 354.257 577.769 359.741 565.587 364.335C566.418 360.335 567.112 356.287 567.887 352.285C569.021 347.394 569.471 342.369 569.223 337.354C568.801 331.776 567.758 325.847 565.025 320.929C574.375 316.006 571.711 304.327 571.115 295.921C570.887 292.94 570.911 289.944 571.186 286.967C571.19 286.883 571.277 286.819 571.309 286.723C572.129 284.821 574.356 283.921 576.235 283.309C579.059 282.398 581.938 281.796 584.79 281.165L585.885 280.93C584.917 281.748 584.217 282.838 583.874 284.058C583.532 285.278 583.563 286.573 583.964 287.776C584.905 290.282 587.265 291.931 589.576 293.161C594.268 295.652 599.728 296.974 604.928 294.977C607.39 294.04 609.481 292.33 610.887 290.103C611.616 288.907 612.194 287.625 612.611 286.288C612.741 285.92 612.87 284.76 613.069 283.853C613.584 284.102 614.097 284.392 614.504 284.58C615.576 285.065 616.648 285.565 617.702 286.133C619.909 287.214 622.041 288.442 624.083 289.808C626.543 291.416 628.709 293.435 630.485 295.776C628.601 295.934 626.829 296.736 625.466 298.046C624.45 299.133 623.766 300.487 623.495 301.949C623.223 303.412 623.374 304.922 623.931 306.301C626.188 312.389 632.96 313.043 638.199 310.548C639.897 314.071 641.299 317.729 642.388 321.485C640.37 323.442 638.249 325.29 636.034 327.02V327.02Z" fill="#755C33"/>
<path fill-rule="evenodd" clip-rule="evenodd" d="M636.034 327.021C630.636 331.071 624.943 334.711 619.001 337.91C613.022 341.298 607.03 344.657 600.972 347.929C589.594 354.255 577.767 359.738 565.587 364.335C566.404 360.321 567.111 356.288 567.886 352.286C569.021 347.394 569.47 342.369 569.223 337.354C568.801 331.777 567.758 325.848 565.024 320.929C574.375 316.007 571.71 304.328 571.114 295.922C570.887 292.94 570.91 289.945 571.185 286.967C571.19 286.884 571.276 286.819 571.309 286.723C572.129 284.821 574.356 283.921 576.234 283.309C579.059 282.399 581.937 281.797 584.789 281.165L585.885 280.93C584.917 281.748 584.216 282.838 583.874 284.058C583.531 285.279 583.563 286.574 583.964 287.776C584.904 290.283 587.264 291.932 589.576 293.162C594.268 295.653 599.742 296.975 604.928 294.978C607.39 294.041 609.481 292.33 610.887 290.103C611.615 288.907 612.194 287.626 612.611 286.289C612.741 285.92 612.87 284.76 613.069 283.854C613.584 284.102 614.097 284.393 614.504 284.58C615.576 285.066 616.648 285.565 617.702 286.133C619.909 287.215 622.04 288.442 624.083 289.809C626.543 291.417 628.709 293.435 630.485 295.776C628.601 295.935 626.829 296.736 625.466 298.046C624.45 299.133 623.766 300.488 623.494 301.95C623.222 303.412 623.374 304.922 623.93 306.301C626.187 312.39 632.96 313.043 638.199 310.548C639.897 314.071 641.298 317.73 642.387 321.486C640.37 323.443 638.249 325.29 636.034 327.021V327.021Z" fill="#FDD821"/>
<path fill-rule="evenodd" clip-rule="evenodd" d="M561.931 354.122C561.154 358.152 560.487 362.229 559.559 366.237C559.492 367.009 559.211 367.748 558.748 368.37C558.284 368.992 557.655 369.471 556.933 369.755C555.188 370.312 553.363 370.579 551.531 370.547C547.603 370.638 543.694 369.965 540.022 368.567C538.156 367.846 531.391 365.151 533.06 362.14C533.198 361.873 533.296 361.588 533.353 361.293C537.647 362.982 542.14 364.114 546.722 364.661C547.441 364.698 548.145 364.455 548.688 363.983C549.23 363.511 549.568 362.846 549.63 362.129C549.668 361.395 549.412 360.675 548.919 360.129C548.427 359.583 547.737 359.254 547.002 359.217C545.921 359.161 544.85 358.925 543.777 358.731L543.417 358.713L542.566 358.517C542.03 358.406 541.508 358.282 540.974 358.143C538.838 357.575 536.74 356.873 534.692 356.043C534.475 355.966 534.249 355.917 534.019 355.897C533.416 355.461 532.911 354.903 532.538 354.259C532.164 353.616 531.93 352.9 531.85 352.16C531.829 351.762 531.849 351.363 531.911 350.969C537.711 352.209 543.735 351.896 549.375 350.06C550.085 349.919 550.711 349.506 551.12 348.91C551.53 348.313 551.69 347.58 551.567 346.867C551.405 346.163 550.974 345.549 550.366 345.157C549.759 344.765 549.022 344.626 548.313 344.769C546.933 345.231 545.522 345.595 544.091 345.858C543.376 345.988 542.689 346.106 541.949 346.179C541.557 346.233 541.167 346.268 540.777 346.285L540.07 346.249C537.278 346.34 534.488 346.028 531.784 345.323C531.256 345.199 530.705 345.214 530.185 345.366L529.862 345.169C529.363 344.88 529.101 344.839 528.906 344.301C528.808 343.839 528.812 343.362 528.917 342.902C529.022 342.442 529.226 342.01 529.515 341.637C529.68 341.66 529.847 341.669 530.014 341.663L536.621 341.738C538.822 341.825 541.026 341.687 543.198 341.326C547.105 340.637 550.58 338.428 552.861 335.183C554.777 332.24 550.193 329.268 548.266 332.169C547.496 333.274 546.498 334.201 545.339 334.887C544.18 335.572 542.887 336.001 541.548 336.144C539.868 336.357 538.173 336.423 536.482 336.342L530.471 336.27C530.125 335.817 529.748 335.39 529.343 334.99C528.894 334.536 528.768 334.557 528.72 333.86C528.726 332.934 528.806 332.009 528.959 331.095C529.008 330.139 529.058 329.183 529.231 328.233C529.405 327.284 529.616 327.226 530.504 326.716C532.48 325.591 534.56 324.66 536.716 323.937C537.421 323.787 538.04 323.368 538.442 322.769C538.844 322.17 538.996 321.438 538.867 320.728C538.705 320.023 538.274 319.41 537.667 319.018C537.059 318.626 536.322 318.487 535.614 318.63C532.788 319.569 529.203 320.676 526.685 322.644L526.243 322.33L526.124 322.213C526.207 322.217 526.268 322.387 526.124 322.213C525.999 322.079 525.881 321.938 525.77 321.792L525.654 321.619C525.578 321.476 525.502 321.334 525.44 321.191C525.401 321.109 525.369 321.023 525.342 320.936L525.349 320.798C525.353 320.715 525.358 320.632 525.362 320.549C525.323 320.313 525.299 320.075 525.287 319.836C525.285 319.799 525.287 319.762 525.293 319.725L525.3 319.587C525.299 319.499 525.304 319.411 525.314 319.324L525.532 319.127L527.293 317.564C527.44 317.546 527.586 317.517 527.728 317.475C531.75 316.577 535.875 316.219 539.992 316.411C543.674 316.378 547.813 315.84 551.443 316.554C558.194 317.901 561.622 324.702 562.884 330.684C563.727 334.495 564.101 338.395 563.996 342.297C563.61 346.286 562.919 350.239 561.931 354.122V354.122Z" fill="#FDD821"/>
<path fill-rule="evenodd" clip-rule="evenodd" d="M573.03 268.893C568.352 268.685 563.709 267.981 559.179 266.793C554.542 265.423 550.46 262.616 547.521 258.778C540.348 249.687 533.525 240.294 526.555 231.047C530.017 229.032 533.139 226.483 535.804 223.494C537.588 221.488 534.554 218.638 532.77 220.643C521.46 233.438 503.368 234.676 487.428 235.121C486.874 235.139 486.351 235.375 485.972 235.779C485.593 236.183 485.39 236.721 485.407 237.274C485.425 237.828 485.662 238.352 486.066 238.73C486.469 239.109 487.007 239.312 487.561 239.295C499.342 238.969 512.111 238.069 522.856 233.038L534.56 248.528C538.177 253.297 541.615 258.294 545.506 262.841C552.505 270.992 563.076 272.313 573.161 273.108C575.834 273.26 575.672 269.098 573.03 268.893Z" fill="#755C33"/>
<path fill-rule="evenodd" clip-rule="evenodd" d="M508.199 133.573C494.725 130.353 473.697 127.635 457.69 132.619C455.841 133.204 455.56 135.69 457.535 135.638C471.805 135.26 485.949 131.111 508.544 137.938C508.341 136.484 508.236 135.02 508.199 133.573Z" fill="#755C33"/>
<path d="M468.291 60.3263C468.061 60.1293 467.776 60.008 467.475 59.9789C466.468 59.9332 465.48 59.6867 464.57 59.2536C463.659 58.8204 462.845 58.2094 462.174 57.4567C461.185 56.1559 461.108 54.4159 462.997 54.1379C463.245 54.1089 463.478 54.0042 463.665 53.8385C472.002 54.8132 480.452 53.8992 488.387 51.1637C495.81 48.6004 505.485 42.7774 512.665 48.7435C512.009 49.4536 511.499 50.2867 511.167 51.1946C510.834 52.1024 510.684 53.0673 510.726 54.0332C510.828 55.0007 511.135 55.9352 511.627 56.774C506.755 55.6348 501.128 57.8459 497.007 60.19C491.773 63.1157 486.768 64.8311 480.724 63.2568C478.229 62.6147 475.859 61.4373 473.399 60.6581C471.732 60.2297 469.999 60.1171 468.291 60.3263V60.3263Z" fill="#E63220"/>
<path d="M512.917 84.1579C505.961 88.4397 497.11 83.0962 491.556 78.9915C485.574 74.5869 480.194 70.0742 472.642 70.2836C468.486 67.9035 472.105 65.5894 475.362 65.7289C479.102 65.9209 482.752 68.1363 485.803 70.1264C485.981 70.2402 486.186 70.3058 486.397 70.3166C486.609 70.3275 486.819 70.2833 487.008 70.1883C490.741 71.88 494.616 73.7733 498.767 74.0837C504.178 74.4589 510.165 72.0163 515.142 74.633C512.677 77.4649 511.24 80.8356 512.917 84.1579Z" fill="#E63220"/>
<path d="M459.366 61.8365C459.041 62.095 458.786 62.4305 458.623 62.8126C458.461 63.1947 458.396 63.6112 458.435 64.0247C458.687 65.013 459.257 65.8913 460.056 66.5247C460.677 67.1399 460.427 69.3216 459.789 70.3861C457.009 70.4101 454.608 69.0367 451.847 68.9783C447.547 68.8686 443.568 70.081 439.26 69.0402C436.214 68.3143 434.082 65.7327 431.632 63.9541C429.181 62.1754 425.978 62.6217 423.351 62.9174C416.492 63.6902 410.972 68.6709 403.987 68.6456C396.71 68.6191 390.13 64.7673 382.782 64.5149C382.674 64.3906 382.542 64.2894 382.394 64.2173C381.728 63.9593 381.187 63.4543 380.884 62.8074C380.581 62.1605 380.539 61.4214 380.767 60.7444C380.985 59.7417 382.066 58.9777 382.447 58.0528C382.775 57.3336 382.817 56.5163 382.564 55.7672C382.399 55.2032 381.465 54.1829 382.24 53.9588C389.279 54.8342 396.154 53.479 403.018 52.3453C407.374 51.6384 412.286 50.9321 416.627 52.1411C419.256 52.8734 421.616 54.5086 424.225 55.3787C431.49 57.7797 438.041 49.7687 445.195 52.7195C447.916 53.8315 449.804 56.8175 452.381 58.3109C454.306 59.2431 456.422 59.7132 458.56 59.6839C458.686 59.7903 458.832 59.8692 458.99 59.9155C459.148 59.9619 459.314 59.9747 459.477 59.9531C462.948 59.7146 459.658 61.5598 459.366 61.8365Z" fill="#E63220"/>
<path d="M402.117 59.6329C400.953 61.1982 403.599 62.6952 404.816 61.1604C406.952 58.2561 411.308 59.9798 413.544 61.8725C415.022 63.1151 417.173 60.9892 415.682 59.732C411.687 56.3878 405.565 54.9626 402.117 59.6329Z" fill="#75160D"/>
<path d="M437.181 60.5896C435.426 61.4857 437 64.1084 438.67 63.2358C442.721 61.166 446.78 62.4576 449.458 66.0258C450.615 67.5575 453.26 66.0823 452.09 64.536C448.399 59.5963 442.829 57.7129 437.181 60.5896Z" fill="#75160D"/>
<path d="M462.179 63.3582C465.503 61.376 464.18 57.3774 460.769 56.9939C460.536 56.8323 460.261 56.7412 459.977 56.7311C458.176 56.7376 456.393 56.3795 454.734 55.6785C453.075 54.9775 451.576 53.9479 450.325 52.6518C448.57 50.8307 446.285 49.61 443.796 49.1636C436.542 47.8882 430.809 54.844 423.465 51.8001C421.214 50.6979 418.898 49.735 416.53 48.9163C413.353 48.0309 409.603 48.5604 406.418 48.9246C398.75 49.7531 391.367 51.7909 383.626 51.0739C383.43 50.9759 383.214 50.9221 382.995 50.9164C381.832 50.8566 379.971 51.1221 379.393 52.3702C379.001 52.9924 378.863 53.7409 379.007 54.4617C379.364 55.3689 380.501 56.4828 379.697 57.5249C377.421 60.4637 377.628 64.0162 380.566 66.0422C380.607 66.3609 380.767 66.6522 381.014 66.858C381.261 67.0638 381.577 67.169 381.898 67.1523C389.28 67.0036 395.525 70.6301 402.719 71.1802C409.527 71.6826 414.362 68.4028 420.636 66.3221C425.412 64.7339 429.394 65.0913 433.181 68.4386C435.215 70.1941 437.662 71.4045 440.292 71.9568C443.708 72.785 447.242 71.8413 450.728 71.5897C453.669 71.3796 456.441 72.8418 459.391 73.021C459.6 73.2038 459.859 73.3196 460.134 73.3535C460.41 73.3875 460.689 73.3379 460.936 73.2113C462.944 72.2588 462.831 70.3918 463.526 68.4969C463.792 67.6367 463.731 66.7086 463.354 65.8909C462.975 65.1631 461.39 63.8316 462.179 63.3582ZM459.668 61.6735C459.342 61.932 459.086 62.267 458.921 62.6486C458.756 63.0303 458.687 63.4469 458.722 63.8612C458.979 64.8475 459.548 65.7244 460.344 66.3613C460.965 66.9765 460.714 69.1582 460.076 70.2227C457.297 70.2467 454.895 68.8733 452.148 68.8156C447.834 68.7051 443.855 69.9175 439.56 68.8914C436.501 68.1509 434.37 65.569 431.919 63.7903C429.469 62.0116 426.265 62.4583 423.639 62.754C416.765 63.5399 411.246 68.5068 404.274 68.4822C396.984 68.455 390.418 64.6035 383.055 64.3504C382.948 64.2261 382.816 64.1249 382.668 64.0528C382.002 63.7948 381.461 63.2898 381.158 62.6429C380.854 61.9961 380.813 61.2573 381.041 60.5803C381.259 59.5776 382.353 58.8143 382.734 57.8894C383.056 57.1686 383.098 56.3535 382.852 55.6035C382.686 55.0394 381.739 54.0188 382.514 53.7947C389.553 54.6701 396.428 53.3145 403.292 52.1808C407.662 51.4747 412.573 50.7687 416.9 51.977C419.543 52.71 421.904 54.3452 424.516 55.146C431.781 57.547 438.318 49.5352 445.486 52.4867C448.207 53.5987 450.109 56.5854 452.672 58.0782C454.597 59.0094 456.713 59.4795 458.851 59.4511C458.978 59.5564 459.124 59.6355 459.281 59.6841C459.438 59.7327 459.604 59.7497 459.767 59.7342C463.249 59.5519 459.945 61.4099 459.668 61.6735Z" fill="#75160D"/>
<path d="M479.909 65.9116C483.078 66.7463 486.392 66.8692 489.613 66.2712C497.064 65.3344 504.706 55.8236 512.707 60.1236C512.924 60.2381 513.166 60.2935 513.411 60.2841C513.655 60.2747 513.893 60.2008 514.099 60.0699C515.223 60.6277 516.616 58.9352 515.609 57.7168C513.677 55.312 512.522 53.1832 514.675 50.4881C514.83 50.2987 514.933 50.0712 514.972 49.8293C515.011 49.5873 514.986 49.3395 514.898 49.1107C515.049 48.9999 515.173 48.8567 515.262 48.6919C515.351 48.5271 515.402 48.3447 515.412 48.1577C515.421 47.9708 515.389 47.7841 515.318 47.611C515.246 47.438 515.137 47.2829 514.998 47.1572C508.737 41.4188 500.729 43.4661 493.507 46.1647C489.113 47.9818 484.589 49.4672 479.973 50.6087C473.581 52.0028 467.781 51.6217 461.378 50.8206C459.57 50.5889 459.592 53.4095 461.374 53.5983C470.416 54.9555 479.651 54.1248 488.305 51.1756C495.742 48.613 505.403 42.7893 512.583 48.7554C511.261 50.1921 510.564 52.0948 510.645 54.0451C510.748 55.01 511.061 55.9407 511.56 56.7727C506.673 55.6467 501.046 57.8439 496.926 60.188C491.705 63.1283 486.687 64.8291 480.642 63.2686C478.161 62.6273 475.791 61.4499 473.331 60.6707C470.871 59.8916 468.385 60.417 466.074 60.5344C464.277 60.6366 464.257 63.4551 466.07 63.3121C468.75 62.9816 471.469 63.154 474.086 63.8207C476.042 64.4073 477.943 65.255 479.909 65.9116Z" fill="#75160D"/>
<path d="M518.212 73.8245C518.14 73.4608 517.933 73.1378 517.633 72.9199C514.285 70.5118 510.593 70.4471 506.629 70.8407C503.611 71.3188 500.544 71.4087 497.503 71.1083C494.071 70.5987 490.867 68.8924 487.73 67.4952C486.101 66.7587 484.67 69.1989 486.341 69.9375C490.279 71.6954 494.365 73.8081 498.752 74.1167C504.176 74.5064 510.164 72.05 515.126 74.6799C512.664 77.4564 511.227 80.827 512.904 84.1493C505.947 88.4312 497.111 83.0745 491.557 78.9836C485.308 74.3708 479.716 69.653 471.641 70.3077C469.841 70.4653 469.821 73.2838 471.637 73.0854C482.056 72.2316 489.438 82.1109 498.142 86.5303C502.757 88.8924 510.713 89.2176 515.031 86.0086C515.127 85.9455 515.214 85.8708 515.292 85.7861C515.49 85.6789 515.664 85.5301 515.799 85.3499C515.935 85.1697 516.03 84.9624 516.078 84.742C516.127 84.5216 516.127 84.2934 516.079 84.073C516.031 83.8526 515.936 83.6452 515.8 83.4649C513.56 80.572 516.104 77.5497 518.125 75.5145C518.346 75.2936 518.478 74.9986 518.494 74.6864C518.51 74.3741 518.409 74.0669 518.212 73.8245V73.8245Z" fill="#75160D"/>
<path fill-rule="evenodd" clip-rule="evenodd" d="M375.183 147.036C364.117 137.773 349.168 136.769 335.396 137.451C331.943 137.626 328.488 137.911 325.032 138.308C322.03 138.316 319.035 138.628 316.095 139.238C312.229 139.331 308.147 140.663 304.008 141.742C270.747 141.659 237.287 144.107 205.78 154.504C201.785 155.479 197.792 156.413 193.79 157.263C189.742 157.452 185.687 157.369 181.65 157.015C178.273 157.05 174.892 157.154 171.511 157.272C161.366 157.667 151.23 158.397 141.136 159.156C128.057 159.977 115.029 161.459 102.101 163.597C89.625 165.817 76.6914 168.57 66.1844 176.003C60.2326 180.197 54.5256 184.765 48.7433 189.177L29.9521 203.49C27.7554 205.155 30.7061 208.279 32.889 206.613C43.4907 198.509 54.1204 190.402 64.778 182.292C69.5659 178.431 74.9485 175.372 80.7159 173.235C86.7036 171.267 92.8162 169.701 99.0128 168.549C111.741 166.192 124.596 164.58 137.512 163.721C150.663 162.688 163.851 161.74 177.049 161.404C179.622 161.341 182.206 161.321 184.776 161.314C184.778 163.981 184.711 166.645 184.574 169.318C182.407 168.108 179.9 167.651 177.446 168.021C175.738 168.257 174.145 169.017 172.888 170.196C171.631 171.376 170.771 172.916 170.427 174.606C170.228 176.325 170.506 178.065 171.232 179.636C171.957 181.208 173.101 182.548 174.539 183.512C177.367 185.279 180.763 185.9 184.033 185.249C184.716 188.635 184.898 192.103 184.574 195.541C184.574 195.541 183.189 195.47 182.967 195.195C182.1 194.815 181.166 194.611 180.22 194.595C179.271 194.591 178.332 194.782 177.46 195.155C176.588 195.528 175.802 196.076 175.15 196.766C173.912 198.136 173.263 199.939 173.345 201.784C173.427 203.629 174.233 205.367 175.588 206.622C177.691 208.355 180.365 209.24 183.086 209.104C183.105 209.951 183.062 210.799 182.956 211.64L167.781 211.791L145.697 212.046C138.755 212.227 131.809 211.917 124.911 211.117C118.019 210.158 111.248 208.475 104.71 206.093C104.763 205.762 104.742 205.423 104.648 205.101C104.554 204.779 104.39 204.482 104.167 204.232C103.781 203.82 103.251 203.574 102.688 203.545C102.125 203.516 101.572 203.707 101.147 204.077C97.7465 206.981 93.9992 209.453 89.9907 211.435C85.7734 213.277 81.1079 213.839 76.5738 213.052C76.4958 213.041 76.4171 213.037 76.3384 213.039C76.2553 213.035 76.186 213.032 76.089 213.027L75.5626 213L75.4379 212.993C75.1309 212.981 74.8286 212.914 74.5453 212.794C73.9292 212.63 73.3227 212.432 72.7285 212.201L72.4717 212.063C72.2689 211.955 72.0433 211.749 71.8398 211.655L71.642 211.451L71.5536 211.28L71.5614 211.127C71.5571 211.09 71.559 211.053 71.5671 211.017C71.5671 211.017 71.5671 211.016 71.5706 210.947C71.6114 210.859 71.6576 210.773 71.7088 210.69L71.7983 210.57L71.9468 210.383L72.2374 210.134C72.5099 209.967 72.7684 209.8 73.0533 209.662L73.806 209.34L74.3154 209.158C74.8519 209.009 75.3175 208.673 75.628 208.211C75.9264 207.72 76.0214 207.132 75.8927 206.572C75.742 206.032 75.3881 205.573 74.9053 205.289C74.4226 205.005 73.8486 204.919 73.3041 205.05C71.6686 205.494 70.1579 206.31 68.8898 207.434C68.2027 208.08 67.6991 208.896 67.4307 209.8C67.1622 210.704 67.1384 211.663 67.3617 212.578C68.4743 216.066 72.6809 217.185 75.8869 217.503L76.0393 217.51L76.3718 217.527C81.5299 218.323 86.8079 217.631 91.586 215.531C95.0589 213.929 98.3175 211.899 101.286 209.487C114.3 214.324 128.103 216.686 141.985 216.452C153.028 216.436 164.063 216.294 175.099 216.153L186.147 216.026C188.876 215.083 191.769 214.707 194.649 214.921C225.833 229.745 261.922 230.209 294.495 217.993C310.089 211.849 329.127 219.771 327.038 238.275C327.288 241.524 327.523 244.773 327.773 248.036C328.744 261.031 329.744 274.027 330.924 287.004C332.59 305.146 335.322 323.343 343.353 339.797C347.461 348.231 360.336 369.073 367.261 375.415C369.29 377.27 371.201 375.771 369.158 373.902C342.042 349.092 335.754 294.114 333.05 260.21C332.344 251.062 331.629 241.914 330.904 232.766C334.231 235.369 337.846 237.581 341.677 239.361C347.936 242.165 354.381 244.534 360.966 246.449C361.499 246.58 362.062 246.502 362.539 246.232C363.017 245.962 363.373 245.519 363.535 244.995C363.696 244.471 363.652 243.905 363.41 243.413C363.168 242.92 362.747 242.539 362.233 242.347C354.03 239.787 345.43 237.137 338.039 232.576C335.562 231.059 333.247 229.293 331.129 227.305C315.586 213.534 311.183 191.085 293.814 177.692C300.243 187.745 306.529 200.568 312.957 210.621C273.316 225.252 231.615 225.889 192.082 211.358C189.382 209.831 186.754 206.918 184.48 204.954C182.3 205.203 178.41 204.961 177.667 202.381C177.477 201.723 177.552 201.016 177.876 200.412C178.2 199.808 178.748 199.356 179.403 199.151C181.109 198.655 182.064 200.065 183.496 200.583C185.458 200.04 187.189 198.872 188.427 197.256C189.665 195.641 190.343 193.665 190.359 191.63C190.351 189.547 189.87 187.492 188.953 185.622C188.037 183.751 186.707 182.113 185.066 180.83C181.295 181.775 174.416 181.311 174.598 175.875C174.705 174.918 175.15 174.03 175.854 173.371C176.557 172.712 177.472 172.325 178.435 172.281C179.625 172.235 180.811 172.426 181.927 172.841C183.043 173.255 184.065 173.886 184.936 174.698C185.62 174.914 188.39 175.056 188.461 173.671C186.979 168.733 187.568 165.639 189.446 163.693C193.572 159.891 199.034 159.56 204.53 159.356C210.079 159.502 215.62 159.787 219.989 155.845C218.533 157.159 218.39 159.93 216.934 161.244C242.794 144.515 273.057 150.236 302.015 147.557C305.427 147.166 308.816 146.603 312.171 145.87C315.59 145.119 318.954 144.137 322.239 142.928C327.158 142.178 332.117 141.714 337.089 141.538C342.018 141.377 346.952 141.585 351.85 142.157C359.083 143.029 366.413 145.266 372.086 150.016C374.149 151.761 377.299 148.839 375.183 147.036Z" fill="#755C33"/>
<path fill-rule="evenodd" clip-rule="evenodd" d="M280.382 181.768C261.939 187.946 242.986 184.848 225.266 182.896C242.58 192.48 265.441 193.584 281.9 184.929C283.504 184.261 281.997 181.142 280.382 181.768Z" fill="#755C33"/>
<path fill-rule="evenodd" clip-rule="evenodd" d="M63.7341 192.61C63.3372 192.206 62.7992 191.971 62.2329 191.955C61.6666 191.938 61.1161 192.142 60.6968 192.523C60.1245 193.119 59.5121 193.685 58.8873 194.222L57.9157 195.019L57.3666 195.436C57.3666 195.436 57.2835 195.431 57.2799 195.501L57.1829 195.496C55.7989 196.457 54.3288 197.289 52.7914 197.979C52.2931 198.249 51.9219 198.706 51.7588 199.249C51.5956 199.792 51.6536 200.378 51.9202 200.878C52.2036 201.367 52.6628 201.73 53.2042 201.892C53.7456 202.054 54.3285 202.003 54.8338 201.75C58.1273 200.266 61.1132 198.176 63.6366 195.591C64.0261 195.198 64.2527 194.673 64.2708 194.12C64.2889 193.567 64.0971 193.027 63.7341 192.61V192.61Z" fill="#755C33"/>
<path d="M30.8777 210.62C30.8777 210.62 30.947 210.624 30.9886 210.626C31.9731 211.013 33.009 211.253 34.0632 211.339C35.0994 211.377 36.1284 211.153 37.0551 210.688C37.9105 210.236 38.8035 209.858 39.7241 209.561C40.2899 209.439 40.8653 209.366 41.4437 209.343C42.0183 209.225 42.6029 209.162 43.1895 209.155C45.3296 209.465 47.4499 209.898 49.5398 210.454C51.5761 210.762 53.6543 210.641 55.6415 210.1C59.612 209.054 63.0392 206.688 66.9117 205.387C70.1057 204.315 74.2482 203.708 76.7887 206.436C77.189 206.801 77.7122 207.001 78.2536 206.996C78.795 206.992 79.3148 206.784 79.7092 206.413C80.1037 206.042 80.3436 205.536 80.3812 204.996C80.4188 204.456 80.2512 203.921 79.9119 203.499C74.6439 197.895 66.6577 200.596 60.7626 203.419C57.3308 205.062 53.8423 206.73 49.9958 206.172C49.9109 205.725 49.6831 205.319 49.3469 205.013C49.3895 204.932 49.4399 204.856 49.4975 204.785C49.6783 204.595 49.8731 204.419 50.0801 204.259C50.9141 203.754 51.7965 203.334 52.714 203.005C53.3357 202.801 53.9711 202.598 54.6038 202.45C55.126 202.31 55.5745 201.975 55.8566 201.514C56.1388 201.052 56.2331 200.5 56.1199 199.972C55.9772 199.448 55.6395 198.999 55.1761 198.717C54.7127 198.435 54.1588 198.341 53.6283 198.455C51.2864 198.937 49.0759 199.918 47.1471 201.33C46.1493 202.087 45.4226 203.146 45.0753 204.349C45.008 204.672 44.9679 205 44.9555 205.329C42.6896 204.895 40.3474 205.097 38.1892 205.912C36.7435 206.48 35.3921 207.262 34.181 208.234C33.7927 207.897 33.4308 207.53 33.0984 207.137V207.137C33.1091 206.929 33.1204 206.708 33.1311 206.5C33.1418 206.292 33.1474 206.181 33.2661 206.035C33.6648 205.773 33.9674 205.389 34.1279 204.94C34.2965 204.409 34.2513 203.834 34.002 203.336C33.7383 202.857 33.3007 202.497 32.7795 202.331C32.2583 202.164 31.6931 202.204 31.2005 202.442C30.7546 202.665 30.3584 202.975 30.0357 203.355C29.7131 203.734 29.4707 204.176 29.3231 204.651C29.1775 205.098 29.0748 205.558 29.0164 206.025C28.971 206.364 28.9534 206.707 28.9638 207.05C28.9671 208.195 29.4074 209.295 30.1947 210.127C30.4129 210.304 30.6409 210.469 30.8777 210.62Z" fill="#755C33"/>
<path fill-rule="evenodd" clip-rule="evenodd" d="M82.0728 205.485C81.958 204.953 81.6375 204.487 81.181 204.19L80.693 203.957C80.3349 203.841 79.9528 203.821 79.5848 203.9C78.6537 204 77.723 204.091 76.7929 204.173L75.496 204.273C75.2174 204.241 74.9354 204.289 74.6833 204.412C74.423 204.479 74.1856 204.616 73.9963 204.807C73.5865 205.176 73.3401 205.693 73.3113 206.244C73.2835 206.795 73.4757 207.335 73.8455 207.744C74.0263 207.949 74.2469 208.116 74.4939 208.233C74.7409 208.351 75.0092 208.418 75.2826 208.429C77.0387 208.311 78.797 208.151 80.5428 207.963C81.0754 207.848 81.5411 207.527 81.8387 207.071C82.1127 206.591 82.1963 206.025 82.0728 205.485V205.485Z" fill="#755C33"/>
<path d="M385.539 138.129C387.051 138.206 388.409 138.347 389.876 138.68C390.406 138.8 390.844 138.925 391.361 139.075C391.554 139.131 391.654 139.21 391.709 139.406C391.748 139.549 390.859 139.505 390.81 139.504C389.072 139.461 387.257 139.448 385.534 139.217C384.571 139.089 383.584 138.824 382.601 138.923C382.301 138.953 382.256 139.065 382.593 139.087C383.678 139.156 384.737 139.229 385.797 139.498C387.439 139.915 389.049 140.679 390.738 140.892C390.975 140.922 391.387 141.188 391.562 141.35C391.802 141.571 392.43 141.66 392.737 141.775C393.147 141.929 392.736 141.549 392.633 141.405C392.401 141.08 392.14 140.8 391.868 140.508C391.679 140.306 391.432 140.202 391.246 140.014C391.219 139.987 391.002 139.86 391.095 139.955C391.455 140.325 391.944 140.561 392.319 140.927C392.831 141.427 393.254 142.202 393.819 142.622C394.18 142.89 394.331 143.107 393.744 142.967C392.533 142.678 391.43 142.005 390.153 141.884C389.373 141.81 388.536 141.901 387.781 141.665C387.248 141.497 386.539 141.334 385.982 141.295C385.549 141.264 385.205 141.07 384.783 141.048C383.732 140.994 382.787 140.484 381.723 140.429C381.478 140.416 381.264 140.424 381.389 140.114C381.568 139.673 382.017 139.797 382.401 139.817C383.544 139.875 384.69 139.912 385.791 140.222C386.524 140.428 387.342 140.492 388.094 140.571C389.158 140.684 390.13 141.316 391.146 141.555C391.431 141.622 391.708 141.739 392.002 141.784C392.444 141.851 392.845 142.186 393.259 142.223C393.805 142.272 394.056 142.819 394.542 142.844" stroke="#F6A320" stroke-linecap="round"/>
</svg>
