<svg width="501" height="724" viewBox="0 0 501 724" fill="none" xmlns="http://www.w3.org/2000/svg">
<path fill-rule="evenodd" clip-rule="evenodd" d="M179.713 399.912C180.055 398.503 180.417 397.094 180.76 395.705C185.993 393.189 183.054 388.419 183.819 384.675L185.832 378.234C188.247 379.281 191.085 379.824 193.017 381.455C199.055 386.567 204.671 392.243 210.749 397.355C215.448 401.239 220.367 404.848 225.483 408.164C226.201 408.381 226.962 408.419 227.698 408.275C228.435 408.131 229.125 407.81 229.709 407.339C232.829 404.279 239.914 402.709 243.336 404.742C246.073 406.372 246.979 412.692 244.926 416.215C244.181 417.483 243.134 418.57 242.47 419.858C241.202 422.333 240.659 424.467 244.241 425.896C246.918 426.923 249.052 429.418 251.749 430.244C259.236 432.498 261.672 439.301 265.174 444.876C270.407 453.249 276.063 456.449 284.436 458.422C279.243 468.687 274.533 478.791 269.099 488.492C264.349 496.946 258.693 504.896 253.601 513.168C247.764 522.689 241.283 531.927 236.593 541.991C232.668 550.404 230.796 559.804 228.26 568.821C226.247 576.268 224.376 583.816 222.524 591.323C220.733 598.529 219.927 606.117 217.069 612.859C212.883 622.661 207.227 631.86 202.457 640.857C188.146 633.51 174.278 636.409 159.948 634.678C157.314 626.885 156.993 618.496 159.022 610.525C160.612 604.788 160.652 598.649 161.739 592.752C163.329 584.017 165.221 575.342 166.992 566.586C168.18 560.75 169.206 554.852 170.615 549.056C173.031 539.153 171.682 529.29 170.957 519.368C169.951 505.701 168.301 491.954 168.703 478.308C169.066 465.99 171.622 453.732 173.614 441.515C175.063 432.578 177.398 423.783 178.908 414.846C179.653 409.995 182.994 405.104 179.713 399.912Z" fill="#F6A320"/>
<path fill-rule="evenodd" clip-rule="evenodd" d="M380.627 442.44L380.445 444.735C379.781 448.398 379.097 452.041 378.433 455.704C376.098 472.088 373.663 488.451 371.449 504.835C370.623 510.873 369.315 517.233 369.858 523.312C371.328 539.535 373.743 555.677 375.635 571.879C376.138 576.247 375.997 580.695 376.339 585.083C376.722 589.994 377.93 594.925 377.688 599.776C377.414 607.018 376.519 614.223 375.011 621.312C373.884 626.344 369.174 627.169 363.418 625.559C359.918 624.664 356.25 624.664 352.75 625.559C346.168 627.27 339.869 630.027 333.347 632C332.601 632.089 331.844 631.995 331.142 631.725C330.44 631.455 329.816 631.017 329.322 630.45C324.089 622.56 318.976 614.59 314.146 606.458C311.828 602.644 309.919 598.596 308.45 594.382C306.308 587.916 304.494 581.346 303.015 574.697C301.888 569.766 301.466 564.634 300.721 559.622C300.057 555.274 299.372 550.907 298.708 546.559C297.782 532.007 297.863 517.294 295.649 502.923C293.515 488.834 288.987 475.308 285.585 461.501C285.317 460.093 285.162 458.666 285.122 457.234L294.3 453.369C295.327 452.705 296.736 452.302 297.299 451.356C301.325 444.735 308.248 442.561 314.971 440.488C319.198 439.179 318.996 437.569 317.386 434.127C316.373 431.563 316.211 428.74 316.923 426.076C317.165 425.11 320.949 424.185 322.74 424.768C324.532 425.352 326.041 427.747 328.215 429.921C328.718 429.478 329.966 428.331 331.274 427.284C344.693 416.55 358.178 405.815 371.73 395.08C373.743 393.47 375.756 393.369 376.581 396.59C377.269 398.448 377.801 400.36 378.171 402.306C379.077 415.489 379.822 428.955 380.627 442.44Z" fill="#F6A320"/>
<path fill-rule="evenodd" clip-rule="evenodd" d="M315.834 385.44L320.987 385.179C327.71 382.22 334.794 379.865 341.114 376.081C346.67 372.602 351.705 368.353 356.069 363.461C360.183 358.496 363.975 353.272 367.421 347.822C369.259 362.864 371.084 377.946 372.896 393.069C365.67 398.04 357.78 403.132 350.333 408.728C342.886 414.323 336.123 420.502 328.937 426.48C323 422.978 318.29 423.038 314.405 426.863C311.205 430.023 310.843 435.236 313.781 440.428C309.753 440.975 305.905 442.446 302.54 444.726C299.174 447.006 296.381 450.033 294.379 453.572C283.892 458 272.098 455.122 266.381 444.414C261.382 434.817 252.796 427.584 242.49 424.286C248.528 419.375 248.428 413.498 246.818 407.52C246.268 405.861 245.167 404.441 243.698 403.495C238.384 400.073 229.448 402.005 225.221 407.923C217.311 401.12 209.542 394.216 201.511 387.634C197.485 384.333 192.796 381.817 188.69 378.557C187.958 377.933 187.365 377.163 186.949 376.297C186.533 375.43 186.303 374.486 186.274 373.525C186.979 366.48 188.287 359.436 189.132 353.277H203.423C222.965 369.447 245.968 380.9 270.648 386.749C283.933 389.889 297.015 388.319 310.199 388.459C311.99 388.419 313.822 386.467 315.834 385.44Z" fill="#FDD821"/>
<path fill-rule="evenodd" clip-rule="evenodd" d="M202.782 349.495C201.232 346.455 167.237 238.794 164.661 234.004C161.199 227.603 158.22 221.142 152.584 214.762C149.324 219.713 143.809 233.863 140.508 238.452C129.438 253.588 118.589 268.904 106.935 283.577C96.3281 296.902 84.9762 309.743 73.5841 322.323C60.9608 335.993 49.5146 350.704 39.3675 366.301C29.8473 381.396 17.6299 394.821 13.1013 412.735C10.7061 422.215 7.96878 431.634 5.61388 441.155C4.13678 446.766 2.98759 452.458 2.17211 458.203C1.38714 464.241 1.30663 470.501 0.944336 476.619C9.27708 475.432 16.221 474.184 23.2254 473.54C30.2297 472.896 36.8114 472.775 43.5943 472.735C58.0055 472.735 69.4177 480.484 81.4338 487.005C102.588 498.498 121.689 514.197 146.184 518.927C153.289 520.296 160.434 521.503 168.525 522.953C168.022 512.064 168.324 502.825 167.036 493.748C164.952 479.554 165.636 465.092 169.048 451.158C171.987 439.082 173.939 426.683 176.576 414.486C177.623 409.655 179.313 404.966 180.722 400.195C181.044 398.847 181.386 397.498 181.729 396.17C182.071 392.607 182.393 389.065 182.735 385.523L182.977 382.262L183.278 379.303C181.95 365.576 186.137 343.195 190.464 340.88C190.766 341.746 191.007 342.671 191.269 343.557C191.046 344.823 191.143 346.126 191.551 347.345C191.959 348.565 192.664 349.663 193.604 350.541C196.12 352.836 199.219 352.554 202.178 351.366C202.343 351.285 202.489 351.172 202.609 351.033C202.729 350.895 202.82 350.733 202.877 350.558C202.933 350.384 202.954 350.2 202.937 350.017C202.921 349.834 202.868 349.656 202.782 349.495Z" fill="#E63220"/>
<path d="M375.816 395.585H375.917H376.098C376.762 395.304 377.486 395.062 377.567 394.357V393.693C374.91 381.476 371.972 369.259 370.945 356.78C370.724 354.143 370.663 351.506 370.643 348.87C370.643 347.219 367.624 347.119 367.624 348.87C367.765 364.871 372.032 380.389 375.393 396.008C375.505 395.841 375.649 395.697 375.816 395.585Z" fill="#755C33"/>
<path d="M382.256 432.943C382.432 421.069 381.141 409.218 378.412 397.66C378.17 397.137 377.909 396.493 377.345 396.332C376.782 396.171 376.077 396.171 375.936 396.674C375.868 396.886 375.787 397.095 375.695 397.298C377.636 405.827 378.842 414.507 379.298 423.242C380.244 449.77 372.816 475.875 370.301 502.222C367.704 529.414 374.487 556.304 374.628 583.476C374.628 591.829 375.413 600.162 374.99 608.515C374.904 613.386 374.034 618.211 372.414 622.805L375.795 621.779C376.457 619.582 376.969 617.342 377.325 615.076C378.754 606.361 378.09 597.445 377.748 588.689C377.285 576.975 376.922 565.361 375.634 553.688C374.105 539.739 372.213 525.791 372.676 511.762C373.662 485.295 381.23 459.451 382.256 432.943Z" fill="#755C33"/>
<path d="M172.005 524.036C153.77 524.921 136.742 520.01 120.559 511.959C104.961 504.13 91.0325 493.563 75.8967 484.969C65.4707 479.051 54.3201 475.227 42.2437 475.549C29.1206 475.911 16.078 479.574 3.15625 481.768C2.06624 460.944 5.04002 440.107 11.9117 420.42C18.5537 401.399 28.8791 383.869 40.5328 367.525C64.3234 334.134 94.0113 305.452 119.03 272.926C130.925 257.468 146.302 234.503 154.615 216.912C153.899 215.977 153.291 214.964 152.803 213.893C121.687 281.48 50.7978 332.846 17.5272 399.608C4.49569 425.581 -1.4476 454.533 0.298161 483.539C0.296679 483.767 0.345889 483.992 0.4422 484.198C0.538511 484.403 0.679512 484.585 0.854938 484.73C1.03036 484.874 1.23582 484.978 1.45634 485.033C1.67686 485.088 1.90691 485.094 2.12976 485.049C15.4138 482.915 28.7181 479.212 42.2034 478.608C56.0913 478.004 68.4898 483.861 80.0832 490.946C108.845 508.578 136.44 528.866 171.945 527.176C173.816 526.934 173.937 523.854 172.005 524.036Z" fill="#75160D"/>
<path d="M306.515 442.904L305.106 443.307C303.677 443.79 302.309 444.333 300.96 444.937C301.085 446.038 301.037 447.152 300.819 448.238C302.423 447.457 304.077 446.784 305.771 446.225L308.045 445.521C307.654 444.585 307.139 443.705 306.515 442.904Z" fill="#755C33"/>
<path d="M298.588 446.627C298.364 447.529 298.018 448.395 297.561 449.204C294.985 453.712 288.484 454.336 283.915 454.135C270.933 453.571 265.136 442.058 260.044 431.733C259.178 429.982 256.522 431.391 257.367 433.122C260.93 440.247 264.351 447.332 270.631 452.484C275.699 456.176 281.978 457.808 288.202 457.053C293.133 456.631 298.668 454.336 300.782 449.526C301.493 447.9 301.87 446.148 301.889 444.373C300.638 444.876 299.512 445.646 298.588 446.627Z" fill="#755C33"/>
<path fill-rule="evenodd" clip-rule="evenodd" d="M283.632 460.254C295.991 491.351 292.649 524.219 298.104 556.463L239.996 536.657C241.922 532.34 244.1 528.14 246.517 524.078C259.238 504.594 273.629 486.097 281.519 463.816C282.105 462.563 282.813 461.369 283.632 460.254Z" fill="#E63220"/>
<path fill-rule="evenodd" clip-rule="evenodd" d="M294.158 558.858C295.003 558.556 294.42 557.187 294.017 556.724C293.399 556.166 292.663 555.753 291.864 555.517C291.811 555.53 291.755 555.53 291.703 555.517C275.782 551.29 261.049 543.239 244.725 540.562C244.643 540.612 244.549 540.638 244.453 540.638C244.358 540.638 244.264 540.612 244.182 540.562C244.036 540.481 243.881 540.42 243.719 540.381H243.477C242.818 540.35 242.163 540.504 241.585 540.824C240.398 541.589 241.203 542.555 242.088 543.158C260.102 545.453 276.064 554.993 293.615 559.099H293.896C293.914 559.039 293.947 558.984 293.993 558.942C294.04 558.899 294.097 558.87 294.158 558.858Z" fill="#75160D"/>
<path fill-rule="evenodd" clip-rule="evenodd" d="M185.389 381.596C185.233 381.372 185.02 381.191 184.773 381.073C184.526 380.954 184.253 380.901 183.98 380.92C183.706 380.938 183.442 381.026 183.213 381.177C182.984 381.327 182.798 381.534 182.672 381.777C180.8 396.672 178.969 411.566 176.07 426.359C173.554 439.04 170.133 451.579 168.18 464.32C166.228 477.06 167.275 489.68 169.026 502.562C171.079 515.669 171.539 528.976 170.394 542.193C168.885 556.02 164.678 569.646 161.8 583.293C159.292 594.975 158.177 606.913 158.479 618.858C158.54 621.61 158.741 624.358 159.083 627.09C159.094 627.143 159.094 627.198 159.083 627.251C159.083 627.855 159.385 628.68 160.009 628.922C160.286 629.036 160.598 629.037 160.877 628.924C161.155 628.811 161.378 628.594 161.498 628.318C161.762 627.726 161.919 627.092 161.961 626.446C161.961 625.681 161.8 624.957 161.74 624.313C159.385 599.274 167.114 575.141 172.045 550.666C174.284 538.253 174.677 525.577 173.212 513.048C171.964 499.925 169.187 487.023 170.092 473.8C170.978 460.194 174.601 446.789 177.56 433.424C180.418 420.462 182.612 407.379 184.323 394.276C184.826 390.392 185.289 386.507 185.752 382.623C185.727 382.254 185.602 381.899 185.389 381.596Z" fill="#755C33"/>
<path fill-rule="evenodd" clip-rule="evenodd" d="M320.767 611.995C310.703 595.893 305.35 577.779 302.008 559.865C295.648 525.548 296.755 490.265 285.665 456.652C283.851 456.683 282.046 456.397 280.331 455.807C278.218 471.305 268.818 485.998 260.546 499.584C251.529 514.458 239.392 528.305 234.38 544.689C231.985 552.378 231.12 560.348 229.288 568.138C227.275 577.054 224.498 585.89 222.284 594.786C220.17 603.24 217.775 610.707 212.502 618.154C208.963 622.582 206.007 627.446 203.706 632.626C203.724 632.705 203.724 632.788 203.706 632.867L203.606 633.069C203.445 633.511 203.304 633.974 203.163 634.437C203.144 634.746 203.144 635.055 203.163 635.363C203.163 635.846 203.364 636.893 204.068 636.571C204.544 636.325 204.962 635.982 205.296 635.564C208.274 628.991 212.126 622.85 216.749 617.309C222.425 611.271 223.371 603.22 225.323 595.531C227.577 586.635 230.093 577.759 232.327 568.862C234.34 560.61 235.306 552.177 237.862 543.985C237.963 543.663 238.084 543.341 238.205 543.039C238.313 541.674 238.793 540.366 239.593 539.255C245.732 524.24 257.708 510.936 265.759 496.786C272.884 484.448 280.734 471.768 283.189 458.041C293.656 490.245 293.253 524.018 298.707 556.987C299.098 557.591 299.333 558.283 299.392 559C299.53 559.966 299.597 560.942 299.593 561.918C300.177 565.018 300.801 568.118 301.606 571.217C306.032 590.901 314.693 609.383 326.987 625.38C328.472 627.325 330.072 629.18 331.777 630.935H332.079C332.291 630.108 332.66 629.329 333.166 628.641C328.455 623.547 324.299 617.967 320.767 611.995Z" fill="#755C33"/>
<path d="M210.208 372.541C209.866 372.494 209.549 372.338 209.302 372.098C207.008 374.513 206.021 381.759 211.456 380.149C215.522 378.8 213.952 373.044 210.208 372.541Z" fill="#F5AC23"/>
<path d="M235.446 384.98C235.334 384.916 235.232 384.834 235.144 384.738H234.883C232.266 385.382 233.917 388.764 236.01 388.764C236.916 388.764 238.284 388.764 237.741 387.536C237.228 386.488 236.433 385.603 235.446 384.98Z" fill="#F5AC23"/>
<path d="M341.82 387.131C335.42 387.272 327.369 395.584 335.661 399.69C336.355 400.036 337.116 400.223 337.891 400.239C338.666 400.254 339.434 400.097 340.141 399.78C340.848 399.462 341.475 398.991 341.978 398.401C342.481 397.812 342.846 397.117 343.048 396.369C343.658 394.911 343.881 393.32 343.694 391.751C343.507 390.181 342.917 388.687 341.981 387.413L341.82 387.131Z" fill="#F5AC23"/>
<path fill-rule="evenodd" clip-rule="evenodd" d="M243.216 422.779C248.831 418.854 250.945 412.534 247.241 405.992C244.242 400.759 239.693 399.954 234.883 400.276C234.723 400.245 234.559 400.245 234.4 400.276C229.126 400.699 226.671 402.712 226.127 407.16C221.599 404.443 217.775 400.759 213.266 398.002C213.045 397.855 212.786 397.778 212.521 397.78L212.723 397.619C209.945 395.225 207.348 392.628 204.953 389.85C199.801 384.194 194.386 378.519 186.698 376.667H186.577C187.624 367.992 188.711 359.317 190.14 350.662C190.857 351.68 191.776 352.54 192.839 353.189C193.902 353.838 195.087 354.263 196.321 354.436C197.554 354.61 198.81 354.529 200.011 354.198C201.212 353.867 202.332 353.294 203.303 352.514C204.812 351.306 202.759 349.133 201.29 350.32C196.963 353.802 191.528 349.897 191.226 345.047C191.347 344.483 191.428 343.92 191.549 343.336C191.195 342.72 190.791 342.134 190.341 341.585C189.967 341.546 189.591 341.639 189.278 341.849C188.965 342.059 188.736 342.371 188.63 342.732C188.64 342.873 188.64 343.014 188.63 343.155C188.431 343.4 188.318 343.704 188.308 344.02C188.308 344.362 188.308 344.684 188.308 345.006C186.456 355.07 185.047 365.255 183.739 375.419V375.761C183.749 375.783 183.753 375.807 183.753 375.832C183.753 375.856 183.749 375.88 183.739 375.902C183.718 376.499 183.821 377.094 184.043 377.648C184.265 378.203 184.6 378.705 185.027 379.122L185.53 379.324C185.67 379.403 185.818 379.464 185.973 379.505H186.134H186.356C197.023 382.282 202.599 392.688 210.69 399.511C210.833 399.334 210.988 399.166 211.153 399.008C211.106 399.285 211.147 399.57 211.269 399.822C211.392 400.075 211.59 400.283 211.837 400.417C217.05 403.597 221.357 408.045 226.852 410.763C227.078 410.893 227.333 410.965 227.593 410.969C227.854 410.974 228.112 410.911 228.341 410.788C228.571 410.665 228.766 410.486 228.907 410.266C229.048 410.047 229.13 409.795 229.147 409.535C229.147 405.308 230.012 403.497 234.44 403.134C234.598 403.122 234.754 403.088 234.903 403.034C236.578 402.855 238.272 403.062 239.856 403.637C241.44 404.213 242.871 405.142 244.041 406.355C249.676 411.507 244.987 418.713 239.774 421.35C239.543 421.477 239.35 421.662 239.212 421.886C239.073 422.11 238.996 422.366 238.985 422.629C238.975 422.893 239.033 423.154 239.154 423.388C239.274 423.622 239.453 423.821 239.673 423.966C246.617 427.992 253.481 432.259 260.102 436.787C259.506 435.407 259.139 433.939 259.016 432.44C253.742 429.26 248.489 425.939 243.216 422.779Z" fill="#755C33"/>
<path fill-rule="evenodd" clip-rule="evenodd" d="M373.763 393.411C357.414 400.661 342.998 411.651 331.676 425.494C331.472 425.523 331.278 425.6 331.11 425.719C330.942 425.838 330.805 425.996 330.71 426.179C330.275 426.873 329.805 427.545 329.301 428.191C327.47 422.918 321.754 421.268 316.359 425.011C315.178 425.728 314.185 426.715 313.462 427.891C312.738 429.068 312.306 430.4 312.199 431.777C312.093 433.154 312.317 434.537 312.851 435.81C313.385 437.084 314.215 438.212 315.272 439.101C312.395 440.163 309.58 441.386 306.839 442.764C305.209 443.79 306.598 446.447 308.228 445.441C311.549 443.428 315.514 442.784 318.755 440.59C318.98 440.454 319.165 440.262 319.295 440.033C319.424 439.803 319.492 439.545 319.492 439.282C319.492 439.019 319.424 438.76 319.295 438.531C319.165 438.302 318.98 438.11 318.755 437.973C307.02 431.311 326.423 419.174 326.806 431.452C326.806 431.746 326.892 432.032 327.051 432.279C327.211 432.525 327.437 432.72 327.705 432.841C327.972 432.962 328.268 433.004 328.559 432.961C328.849 432.918 329.121 432.792 329.342 432.599C330.605 431.384 331.733 430.034 332.703 428.574C332.756 428.636 332.804 428.704 332.844 428.775C344.08 414.644 358.587 403.46 375.111 396.189C376.943 395.323 375.534 392.667 373.763 393.411Z" fill="#755C33"/>
<path d="M343.128 385.238C340.7 385.012 338.255 385.442 336.05 386.483C333.844 387.524 331.958 389.138 330.589 391.156C327.409 395.604 329.784 400.736 334.071 403.232C335.937 404.262 338.136 404.51 340.185 403.922C342.233 403.333 343.965 401.956 345 400.092C346.229 398.07 346.837 395.73 346.747 393.365C346.658 390.999 345.875 388.712 344.497 386.788C344.487 386.41 344.344 386.048 344.094 385.765C343.844 385.481 343.502 385.295 343.128 385.238ZM343.128 397.315C342.921 398.062 342.551 398.753 342.046 399.341C341.541 399.929 340.912 400.398 340.205 400.715C339.498 401.032 338.729 401.189 337.954 401.176C337.179 401.162 336.417 400.978 335.721 400.636C327.449 396.61 335.48 388.217 341.9 388.076C341.946 388.174 342 388.269 342.061 388.358C342.998 389.648 343.582 391.161 343.755 392.746C343.928 394.331 343.684 395.933 343.048 397.395L343.128 397.315Z" fill="#755C33"/>
<path d="M210.308 370.547C210.1 370.51 209.886 370.526 209.685 370.593C209.485 370.659 209.305 370.775 209.16 370.929C209.037 370.782 208.884 370.663 208.71 370.581C208.536 370.499 208.346 370.457 208.154 370.457C207.962 370.457 207.772 370.499 207.598 370.581C207.424 370.663 207.27 370.782 207.148 370.929C206.036 372.089 205.208 373.49 204.726 375.023C204.244 376.555 204.122 378.178 204.37 379.765C204.994 383.428 208.717 384.777 211.998 384.032C213.51 383.598 214.816 382.636 215.68 381.322C216.544 380.007 216.909 378.427 216.708 376.867C216.545 375.232 215.816 373.706 214.648 372.552C213.479 371.398 211.944 370.689 210.308 370.547ZM211.435 381.114C205.98 382.825 206.987 375.579 209.281 373.063C209.524 373.305 209.845 373.455 210.187 373.485C213.951 374.069 215.521 379.826 211.435 381.114Z" fill="#755C33"/>
<path d="M237.016 383.444C236.806 383.318 236.566 383.252 236.322 383.252C236.077 383.252 235.837 383.318 235.627 383.444C235.456 383.249 235.233 383.106 234.983 383.031C234.734 382.956 234.469 382.953 234.218 383.022C228.563 384.431 230.052 392.039 235.245 392.924C237.7 393.327 240.679 392.321 240.86 389.503C241.021 386.987 238.848 384.652 237.016 383.444ZM236.01 389.905C233.997 389.905 232.266 386.504 234.883 385.88L235.144 385.779L235.426 386.021C236.435 386.671 237.232 387.601 237.721 388.698C238.284 389.865 236.915 389.925 236.01 389.905Z" fill="#755C33"/>
<path d="M138.291 713.578C136.753 710.987 135.92 708.037 135.876 705.024C135.715 695.463 144.591 686.909 150.066 680.086C156.289 672.803 159.639 663.499 159.486 653.92C159.486 646.976 159.023 638.684 164.558 633.552C169.348 629.103 178.204 631.78 183.719 632.927H183.981C184.25 633.009 184.537 633.009 184.806 632.927C188.61 631.78 193.038 630.553 196.741 632.606C201.149 635.101 200.767 642.669 201.129 646.815C201.496 651.87 202.168 656.897 203.142 661.871C204.007 666.118 205.497 670.163 206.322 674.37C201.785 675.638 197.795 678.369 194.97 682.139C190.301 687.896 189.375 695.383 182.35 699.126C177.761 701.562 173.937 703.152 170.274 706.936C166.027 711.223 162.505 716.517 156.607 718.63L156.507 718.489C154.373 715.772 152.22 712.672 148.858 711.404C145.497 710.136 141.472 712.25 138.513 713.538L138.291 713.578Z" fill="#FDD821"/>
<path d="M146.342 719.757C143.937 719.154 141.766 717.851 140.103 716.013C142.457 714.946 145.316 713.497 147.932 714.202C150.549 714.906 152.702 718.449 154.272 720.461C151.608 720.626 148.935 720.388 146.342 719.757Z" fill="#E63220"/>
<path d="M175.508 710.599C172.272 714.374 168.217 717.361 163.653 719.334C163.429 719.272 163.193 719.272 162.969 719.334L160.956 719.717C168.524 715.148 173.033 706.473 181.426 702.79L182.17 702.447C179.735 705.003 177.722 708.023 175.508 710.599Z" fill="#E63220"/>
<path d="M189.395 697.113C190.428 695.912 191.338 694.61 192.112 693.228C195.876 686.526 198.633 679.562 206.764 677.287C206.764 677.77 206.865 678.253 206.885 678.756C207.348 689.464 197.445 692.785 189.395 697.113Z" fill="#E63220"/>
<path d="M370.178 711.886C361.041 709.491 356.854 700.393 354.439 692.121C354.352 691.789 354.152 691.497 353.875 691.295C353.837 690.958 353.671 690.649 353.412 690.43C348.79 686.342 343.276 683.392 337.31 681.815C331.433 680.044 331.876 675.354 332.58 670.443C339.343 670.443 344.154 673.925 348.904 678.494C353.811 682.782 358.021 687.807 361.383 693.389C364.06 698.139 366.475 702.949 370.44 706.773C374.414 710.204 379.318 712.375 384.529 713.013C384.804 713.168 385.124 713.225 385.435 713.174C380.314 713.693 375.14 713.256 370.178 711.886Z" fill="#E63220"/>
<path d="M398.096 709.167C394.541 711.08 390.679 712.354 386.684 712.931C386.987 712.666 387.177 712.295 387.214 711.895C387.252 711.494 387.134 711.094 386.885 710.778C386.583 704.437 395.157 702.546 398.961 707.034C399.14 707.247 399.378 707.401 399.646 707.477C399.178 708.083 398.659 708.649 398.096 709.167Z" fill="#E63220"/>
<path d="M401.115 705.005C395.58 698.483 384.792 701.865 384.007 709.835C380.617 709.199 377.402 707.844 374.58 705.862C371.757 703.879 369.392 701.315 367.643 698.342C364.463 693.25 362.108 687.776 358.123 683.207C351.662 675.82 343.309 667.769 332.984 667.507C333.165 663.933 333.165 660.353 332.984 656.779C332.987 656.471 332.896 656.169 332.722 655.914C333.175 650.848 333.357 645.762 333.266 640.677C333.085 635.766 330.73 629.265 337.291 627.353C340.552 626.407 343.893 626.91 347.113 625.622C351.38 623.891 353.977 620.932 358.948 621.476H359.331C361.343 622.12 363.135 623.488 365.188 624.394C367.241 625.3 370.038 624.193 372.071 623.649C378.814 621.878 378.472 633.955 378.673 638.343C378.501 638.082 378.256 637.879 377.969 637.759C369.274 634.015 360.176 632.204 353.031 639.772C351.702 641.16 353.735 643.334 355.044 641.945C361.484 635.142 369.435 637.336 377.083 640.637C377.23 640.711 377.391 640.754 377.555 640.763C377.72 640.772 377.884 640.748 378.039 640.691C378.193 640.635 378.335 640.547 378.454 640.434C378.574 640.321 378.669 640.184 378.734 640.033C378.74 640.212 378.773 640.388 378.834 640.557C380.202 644.257 380.924 648.165 380.968 652.11C375.594 646.695 367.965 649.252 362.591 653.659C361.122 654.887 363.155 657.061 364.604 655.853C368.911 652.311 375.131 649.815 379.378 654.787C379.574 655.041 379.858 655.213 380.174 655.269C380.491 655.325 380.817 655.261 381.088 655.088L381.209 656.96C378.966 655.846 376.4 655.567 373.97 656.171C371.54 656.776 369.404 658.226 367.945 660.261C366.858 661.831 369.394 663.401 370.501 661.831C373.158 658.047 378.049 658.188 381.592 660.603C381.967 662.764 382.687 664.851 383.725 666.783C378.713 664.247 372.796 664.106 368.871 668.795C367.663 670.245 369.676 672.458 370.884 670.969C374.587 666.46 379.941 667.527 384.309 670.486C384.539 670.683 384.831 670.791 385.134 670.791C385.437 670.791 385.729 670.683 385.959 670.486C387.147 672.277 388.435 674.008 389.643 675.779C393.145 680.892 396.285 686.226 399.706 691.358C401.084 693.324 401.937 695.61 402.184 697.998C402.43 700.387 402.063 702.798 401.115 705.005Z" fill="#FDD821"/>
<path d="M380.022 644.799C373.36 640.653 367.805 641.177 360.861 644.417C359.089 645.242 360.498 647.899 362.249 647.074C368.288 644.296 372.695 643.773 378.452 647.356C378.788 647.513 379.17 647.541 379.525 647.434C379.88 647.328 380.184 647.094 380.378 646.778C380.572 646.462 380.643 646.086 380.577 645.721C380.512 645.356 380.314 645.028 380.022 644.799Z" fill="#222114"/>
<path d="M398.357 683.024C396.345 679.764 394.493 676.382 392.319 673.182C389.562 669.157 386.684 665.594 385.536 660.784C383.846 653.558 385.254 646.372 382.457 639.328C382.48 639.154 382.48 638.978 382.457 638.804C382.094 633.229 382.557 626.305 378.431 621.938C376.419 619.764 373.44 620.126 370.884 620.811C369.561 621.199 368.164 621.263 366.812 620.996C365.459 620.73 364.191 620.142 363.114 619.281C361.569 618.326 359.778 617.843 357.962 617.892C357.627 617.878 357.298 617.985 357.036 618.194C353.493 618.516 350.998 620.328 347.475 622.22C343.027 624.595 337.693 623.045 333.386 625.903C329.844 628.258 329.884 632.827 330.226 636.57C330.728 643.273 330.661 650.006 330.025 656.698C329.998 656.887 330.015 657.079 330.074 657.261C330.134 657.442 330.234 657.608 330.367 657.744C330.621 662.572 330.331 667.413 329.502 672.176C329.066 673.707 328.982 675.318 329.257 676.887C329.533 678.455 330.16 679.941 331.092 681.233C332.973 683.233 335.402 684.633 338.076 685.258C343.168 686.646 347.864 689.21 351.783 692.746C351.863 692.831 351.958 692.899 352.064 692.947C352.055 692.987 352.055 693.028 352.064 693.068C354.54 701.582 358.666 710.78 367.482 714.302C377.251 718.038 388.1 717.77 397.673 713.558C397.869 713.656 398.09 713.695 398.308 713.67C398.526 713.645 398.732 713.557 398.901 713.417C399.485 712.994 400.048 712.572 400.571 712.109L401.236 711.746C401.418 711.646 401.577 711.508 401.702 711.341C401.827 711.174 401.915 710.983 401.96 710.78C404.618 707.923 406.111 704.175 406.147 700.274C406.408 693.269 401.799 688.6 398.357 683.024ZM370.964 712.43C361.746 709.995 357.519 700.837 355.083 692.484C355.005 692.149 354.804 691.855 354.52 691.659C354.505 691.491 354.457 691.328 354.377 691.179C354.298 691.03 354.189 690.899 354.057 690.793C349.396 686.651 343.824 683.666 337.794 682.078C331.877 680.307 332.319 675.577 333.024 670.626C339.847 670.626 344.698 674.128 349.488 678.677C354.434 682.992 358.678 688.051 362.068 693.672C364.765 698.482 367.2 703.313 371.226 707.177C375.223 710.652 380.175 712.841 385.436 713.457C385.714 713.622 386.044 713.679 386.361 713.618C381.173 714.181 375.925 713.778 370.884 712.43H370.964ZM399.142 709.673C395.562 711.616 391.663 712.905 387.63 713.477C387.939 713.212 388.132 712.837 388.17 712.431C388.207 712.025 388.086 711.621 387.831 711.303C387.529 704.903 396.184 702.991 400.008 707.519C400.18 707.735 400.411 707.895 400.672 707.982C400.154 708.59 399.589 709.155 398.981 709.673H399.142ZM402.182 705.446C396.606 698.885 385.717 702.286 384.932 710.317C381.514 709.681 378.272 708.318 375.424 706.321C372.577 704.325 370.191 701.741 368.428 698.744C365.208 693.611 362.853 688.076 358.827 683.467C352.306 676.02 343.893 667.909 333.487 667.647C333.668 664.04 333.668 660.426 333.487 656.819C333.49 656.51 333.399 656.208 333.225 655.953C333.695 650.842 333.883 645.708 333.789 640.576C333.608 635.624 331.233 629.083 337.814 627.151C341.115 626.185 344.476 626.708 347.717 625.4C352.024 623.648 354.641 620.67 359.652 621.233H360.035C362.048 621.877 363.879 623.246 365.952 624.192C368.025 625.138 370.843 623.971 372.896 623.427C379.679 621.636 379.337 633.833 379.538 638.261C379.373 637.991 379.126 637.78 378.834 637.657C370.058 633.894 360.9 632.062 353.675 639.67C352.366 641.079 354.399 643.273 355.687 641.864C362.188 635 370.219 637.214 377.928 640.535C378.075 640.612 378.236 640.657 378.401 640.668C378.566 640.679 378.731 640.655 378.887 640.599C379.042 640.542 379.184 640.453 379.303 640.338C379.422 640.223 379.516 640.085 379.579 639.932C379.59 640.112 379.631 640.288 379.699 640.455C381.066 644.191 381.787 648.131 381.833 652.109C376.439 646.654 368.73 649.231 363.316 653.679C361.826 654.927 363.879 657.1 365.328 655.893C369.676 652.31 375.935 649.855 380.223 654.806C380.422 655.062 380.71 655.235 381.03 655.291C381.35 655.346 381.679 655.281 381.954 655.108L382.074 657.12C379.813 655.992 377.223 655.707 374.77 656.315C372.317 656.924 370.161 658.387 368.69 660.441C367.583 662.032 370.139 663.602 371.266 662.011C373.943 658.207 378.874 658.328 382.457 660.784C382.836 662.959 383.563 665.059 384.61 667.003C379.558 664.447 373.601 664.306 369.615 669.137C368.408 670.606 370.441 672.84 371.628 671.33C375.372 666.782 380.766 667.848 385.174 670.847C385.404 671.044 385.696 671.153 385.999 671.153C386.302 671.153 386.595 671.044 386.824 670.847C388.032 672.639 389.32 674.41 390.548 676.181C394.07 681.334 397.25 686.708 400.732 691.901C402.058 693.873 402.87 696.145 403.095 698.51C403.32 700.876 402.951 703.26 402.021 705.446H402.182Z" fill="#222114"/>
<path d="M388.293 678.174C386.327 676.329 384.034 674.868 381.531 673.866C378.965 673.334 376.305 673.494 373.822 674.329C373.435 674.417 373.098 674.655 372.887 674.991C372.676 675.327 372.606 675.734 372.695 676.121C372.783 676.508 373.021 676.844 373.357 677.055C373.693 677.267 374.099 677.336 374.486 677.248C376.631 676.516 378.936 676.391 381.148 676.885C383.221 677.833 385.108 679.142 386.723 680.75C388.293 681.957 389.863 679.381 388.293 678.174Z" fill="#222114"/>
<path d="M386.038 683.185C384.873 682.609 383.556 682.414 382.274 682.627C380.992 682.84 379.809 683.451 378.893 684.373C378.616 684.643 378.456 685.011 378.446 685.397C378.435 685.784 378.576 686.159 378.837 686.444C379.099 686.729 379.461 686.901 379.847 686.924C380.233 686.947 380.612 686.819 380.906 686.567C381.341 686.083 381.914 685.745 382.547 685.598C383.181 685.45 383.844 685.5 384.448 685.742C384.784 685.899 385.166 685.927 385.521 685.82C385.876 685.714 386.18 685.48 386.374 685.164C386.568 684.848 386.639 684.472 386.573 684.107C386.508 683.742 386.31 683.414 386.018 683.185H386.038Z" fill="#222114"/>
<path fill-rule="evenodd" clip-rule="evenodd" d="M204.409 656.395C203.584 651.282 203.624 645.969 202.879 640.836C202.812 640.807 202.753 640.76 202.711 640.699C202.668 640.639 202.643 640.568 202.638 640.494C202.67 639.405 202.527 638.318 202.215 637.274C201.951 636.762 201.8 636.199 201.772 635.623C199.015 627.573 190.642 627.572 183.356 629.746C177.418 628.498 171.279 627.029 165.241 628.941C164.249 629.255 163.307 629.709 162.443 630.29V630.169C161.659 630.853 160.934 631.578 160.169 632.343C157.821 635.223 156.347 638.715 155.922 642.406C154.815 650.457 156.405 658.951 153.708 666.761C151.695 672.618 147.167 677.67 143.322 682.42C136.499 690.873 128.77 700.534 132.715 712.087C137.063 724.768 150.508 725.029 161.658 722.936C161.851 723.026 162.06 723.073 162.272 723.073C162.485 723.073 162.694 723.026 162.886 722.936C168.151 720.829 172.836 717.496 176.553 713.214C181.122 708.142 184.503 702.849 190.642 699.508C195.956 696.65 201.712 694.677 205.697 689.927C208.958 685.902 209.36 680.809 208.897 675.838C208.294 669.397 205.496 662.997 204.409 656.395ZM145.094 720.36C142.673 719.733 140.485 718.418 138.794 716.576C141.189 715.509 144.067 714.04 146.704 714.764C149.341 715.489 151.494 719.031 153.084 721.064C150.401 721.217 147.709 720.98 145.094 720.36ZM174.5 711.101C171.243 714.909 167.161 717.924 162.564 719.917C162.332 719.866 162.092 719.866 161.86 719.917L159.847 720.319C167.495 715.69 171.923 706.955 180.498 703.251L181.242 702.889C178.767 705.445 176.734 708.525 174.5 711.041V711.101ZM181.403 699.488C176.774 701.943 172.93 703.513 169.166 707.378C164.879 711.685 161.336 717.019 155.379 719.152V719.011C153.245 716.274 151.051 713.134 147.67 711.886C144.289 710.638 140.223 712.711 137.244 714.02H137.083C135.528 711.405 134.688 708.427 134.648 705.385C134.487 695.764 143.423 687.27 148.958 680.246C155.257 672.875 158.636 663.452 158.458 653.758C158.458 646.754 157.995 638.401 163.571 633.208C168.401 628.72 177.338 631.417 182.893 632.604H182.994C183.261 632.695 183.551 632.695 183.819 632.604C187.663 631.457 192.131 630.209 195.895 632.282C200.343 634.798 199.921 642.346 200.323 646.613C200.68 651.708 201.353 656.777 202.336 661.789C203.201 666.076 204.711 670.142 205.556 674.389C200.973 675.672 196.94 678.431 194.084 682.238C189.434 688.156 188.488 695.724 181.403 699.488ZM188.508 697.475C189.559 696.276 190.477 694.966 191.246 693.57C195.05 686.787 197.827 679.783 206.019 677.468C206.019 677.971 206.12 678.455 206.14 678.958C206.623 689.806 196.62 693.148 188.508 697.515V697.475Z" fill="#222114"/>
<path fill-rule="evenodd" clip-rule="evenodd" d="M151.152 683.99C149.562 685.077 150.951 687.734 152.541 686.647C155.64 684.634 161.135 684.353 162.403 688.66C162.947 690.512 165.885 689.847 165.342 687.996C163.53 681.917 156.043 680.689 151.152 683.99Z" fill="#222114"/>
<path fill-rule="evenodd" clip-rule="evenodd" d="M154.495 676.645C152.905 677.712 154.273 680.389 155.884 679.322C156.67 678.773 157.559 678.389 158.498 678.193C159.436 677.996 160.405 677.992 161.345 678.18C162.285 678.368 163.178 678.744 163.969 679.287C164.76 679.829 165.433 680.526 165.947 681.335C166.893 683.025 169.57 681.637 168.624 679.946C167.932 678.781 167.012 677.768 165.919 676.967C164.825 676.167 163.582 675.596 162.262 675.287C160.943 674.979 159.575 674.94 158.24 675.174C156.905 675.407 155.632 675.908 154.495 676.645Z" fill="#222114"/>
<path fill-rule="evenodd" clip-rule="evenodd" d="M167.317 667.303C164.016 666.941 160.856 668.209 157.575 668.47C155.663 668.611 155.563 671.63 157.475 671.469C159.87 671.288 162.184 670.704 164.539 670.342C168.102 669.779 170.074 671.57 171.544 674.67C172.389 676.421 175.046 675.032 174.221 673.281C172.932 670.382 170.739 667.665 167.317 667.303Z" fill="#222114"/>
<path fill-rule="evenodd" clip-rule="evenodd" d="M169.511 661.347C166.636 660.42 163.596 660.118 160.594 660.462C158.582 660.462 158.582 663.541 160.474 663.461C163.016 663.227 165.579 663.411 168.062 664.004C170.556 664.985 172.759 666.585 174.462 668.653C175.791 670.062 177.984 668.009 176.656 666.641C174.682 664.384 172.245 662.579 169.511 661.347Z" fill="#222114"/>
<path fill-rule="evenodd" clip-rule="evenodd" d="M178.345 659.357C173.992 655.483 168.41 653.273 162.585 653.117C162.214 653.146 161.867 653.31 161.611 653.578C161.354 653.847 161.205 654.2 161.192 654.572C161.18 654.943 161.305 655.306 161.543 655.591C161.781 655.876 162.116 656.063 162.484 656.116C167.781 656.278 172.845 658.335 176.754 661.913C178.284 663.1 179.834 660.544 178.345 659.357Z" fill="#222114"/>
<path fill-rule="evenodd" clip-rule="evenodd" d="M173.072 647.215C169.388 646.289 165.343 646.872 161.579 646.772C161.208 646.8 160.862 646.965 160.605 647.233C160.348 647.501 160.199 647.855 160.186 648.226C160.174 648.598 160.299 648.96 160.537 649.245C160.776 649.53 161.111 649.718 161.478 649.771C164.658 649.771 167.859 649.63 171.019 649.912C174.923 650.234 177.681 652.83 180.116 655.648C181.404 657.097 183.578 655.044 182.33 653.635C180.005 650.565 176.762 648.316 173.072 647.215Z" fill="#222114"/>
<path fill-rule="evenodd" clip-rule="evenodd" d="M495.875 263.467C492.066 254.716 486.776 246.688 480.236 239.737C473.533 232.491 466.146 226.09 459.806 218.442C452.948 209.724 446.578 200.633 440.726 191.21C440.573 190.945 440.362 190.719 440.108 190.548C439.855 190.377 439.566 190.266 439.264 190.223C438.961 190.18 438.653 190.207 438.362 190.301C438.071 190.396 437.806 190.555 437.586 190.767C436.898 182.646 435.395 174.615 433.097 166.795C431.769 162.623 429.937 158.629 427.643 154.9C425.207 151.015 422.349 147.392 419.592 143.709C416.553 139.684 413.554 135.356 410.394 131.311C408.824 130.103 407.193 128.936 405.523 127.869C400.886 124.909 395.841 122.644 390.548 121.146C387.83 120.37 385.036 119.89 382.215 119.717C379.679 119.576 377.143 119.456 374.607 119.395C372.005 119.263 369.396 119.446 366.838 119.939C365.605 120.212 364.409 120.631 363.275 121.186C362.338 121.725 361.245 121.931 360.176 121.77C359.184 121.51 358.244 121.081 357.398 120.502C356.432 119.878 355.486 119.294 354.46 118.751C351.803 117.382 349.126 116.034 346.409 114.726C346.361 114.704 346.322 114.665 346.3 114.617C346.278 114.569 346.273 114.515 346.288 114.464C327.066 111.082 304.302 112.028 302.692 114.222C294.54 125.353 275.238 137.691 269.743 143.749C269.172 144.168 268.473 144.376 267.765 144.34C267.058 144.303 266.384 144.023 265.859 143.548C259.821 136.161 238.405 111.244 229.629 112.733C218.821 114.565 206.523 116.175 195.695 117.845L194.869 118.006C192.654 118.844 190.512 119.867 188.469 121.066C185.228 122.495 181.766 123.541 178.405 124.729C177.979 124.888 177.604 125.16 177.318 125.514C166.49 122.032 154.876 124.648 144.853 129.539C134.442 134.374 125.226 141.446 117.862 150.25C110.576 159.449 105.645 170.378 100.391 180.824C97.493 186.52 94.6752 192.236 91.9983 198.013C89.3213 203.789 87.208 209.244 84.5109 214.698C81.6056 220.47 77.854 225.775 73.3804 230.438C68.9927 235.047 64.1822 239.213 59.5328 243.521C59.3844 243.649 59.2556 243.798 59.1504 243.964C51.0994 250.666 46.0877 260.066 42.5855 269.868C41.5368 272.507 40.7546 275.244 40.2508 278.039C39.9574 280.704 40.2038 283.402 40.9753 285.969C42.2361 290.86 44.5053 295.433 47.6375 299.394C51.2682 303.904 56.2716 307.105 61.8877 308.512C62.9142 310.062 65.9132 309.72 65.6515 307.486C65.3589 304.627 65.4605 301.742 65.9535 298.911C66.1468 297.864 66.4998 296.853 67.0001 295.912C67.2372 295.476 67.5354 295.077 67.8857 294.725L68.2681 294.403C68.3939 294.661 68.5492 294.905 68.731 295.127C69.198 295.692 69.7558 296.175 70.3815 296.557C71.6525 297.335 73.1469 297.668 74.6284 297.502C76.2057 297.219 77.6551 296.45 78.7738 295.302C79.8925 294.155 80.6246 292.686 80.8678 291.102C81.532 287.801 81.6729 283.393 78.1305 281.783C77.0634 281.311 75.9594 280.927 74.8296 280.636C79.2916 275.947 84.5103 272.041 90.2673 269.083C90.4388 269.999 90.8492 270.854 91.4571 271.561C92.065 272.268 92.8488 272.801 93.7292 273.108C96.8892 274.135 99.3246 271.478 99.7675 268.539C100.19 265.258 98.6202 262.179 97.3321 259.301C97.1509 258.878 96.9496 258.455 96.7483 258.033C97.0024 257.927 97.2397 257.784 97.4528 257.61C99.3792 255.883 101.602 254.519 104.014 253.584C106.808 252.801 109.712 252.489 112.609 252.659C112.946 252.658 113.277 252.573 113.572 252.411C113.867 252.249 114.118 252.016 114.299 251.733C114.501 252.015 114.722 252.276 114.923 252.538C115.125 252.8 115.708 253.444 116.131 253.866C116.836 254.538 117.589 255.157 118.385 255.718C118.449 255.977 118.563 256.22 118.721 256.434C118.879 256.648 119.078 256.828 119.306 256.965C119.535 257.102 119.788 257.192 120.051 257.23C120.315 257.268 120.583 257.254 120.841 257.187C129.895 255.135 138.392 251.128 145.735 245.447C153.078 239.766 159.09 232.548 163.35 224.299C168.925 233.276 171.2 263.145 171.2 263.145C174.078 275.523 176.614 287.982 179.915 300.26C183.216 312.538 186.657 325.56 195.091 335.906C201.129 343.393 206.282 352.007 215.057 357.019C224.658 362.534 234.057 368.452 243.839 373.604C249.616 376.663 255.815 379.884 262.135 380.769C275.6 382.682 289.267 383.205 302.853 384.171C306.878 384.453 320.807 381.253 321.612 380.85C326.523 378.354 331.675 376.301 336.586 373.785C340.1 372.344 343.336 370.301 346.147 367.747C351.857 361.383 357.232 354.725 362.249 347.801C365.242 344.146 367.535 339.97 369.012 335.483C373.782 316.945 377.928 298.247 382.255 279.609C383.222 275.362 383.705 270.975 384.912 266.788C386.375 260.817 387.503 254.77 388.294 248.673C390.984 251.54 394.242 253.815 397.86 255.353C401.477 256.892 405.376 257.66 409.307 257.61C409.473 257.819 409.684 257.989 409.924 258.105C410.165 258.221 410.428 258.282 410.695 258.282C410.963 258.282 411.226 258.221 411.467 258.105C411.707 257.989 411.918 257.819 412.084 257.61C412.447 257.187 412.829 256.785 413.211 256.402C413.111 256.644 412.97 256.885 412.869 257.127C412.772 257.436 412.75 257.764 412.807 258.083C412.863 258.402 412.996 258.703 413.193 258.96C413.391 259.217 413.648 259.422 413.942 259.559C414.236 259.695 414.558 259.759 414.882 259.744C420.477 259.744 426.073 259.522 431.688 259.582C433.602 259.574 435.513 259.715 437.405 260.005H436.801C434.464 259.974 432.202 260.822 430.461 262.38C426.898 266.204 430.461 271.76 433.842 274.195C434.792 274.908 435.882 275.411 437.041 275.671C438.2 275.932 439.401 275.943 440.565 275.705C442.879 274.959 445.002 273.716 446.784 272.061C447.737 271.381 448.54 270.511 449.142 269.507C449.745 268.503 450.134 267.386 450.286 266.225C450.306 265.889 450.306 265.553 450.286 265.218L457.391 268.66C460.029 269.736 462.476 271.231 464.637 273.088C468.3 276.63 468.28 282.004 469.286 286.815C467.955 286.983 466.734 287.644 465.865 288.667C465.17 289.547 464.831 290.657 464.917 291.776C465.003 292.895 465.506 293.94 466.328 294.705C467.445 295.886 468.868 296.734 470.438 297.157C472.008 297.58 473.664 297.56 475.224 297.1C476.249 301.191 477.664 305.175 479.451 308.995C479.582 309.234 479.76 309.444 479.975 309.611C480.19 309.779 480.437 309.902 480.7 309.971C480.964 310.041 481.238 310.056 481.508 310.017C481.778 309.977 482.036 309.883 482.269 309.74C488.815 304.964 493.526 298.087 495.613 290.257C496.768 286.36 497.556 282.364 497.968 278.321C498.625 273.272 497.902 268.138 495.875 263.467Z" fill="#F6A320"/>
<path fill-rule="evenodd" clip-rule="evenodd" d="M387.953 249.521C387.35 248.827 386.785 248.102 386.262 247.347C381.834 275.203 376.923 308.776 372.958 324.113C367.463 345.387 354.964 364.367 335.521 375.055C317.124 385.26 295.145 386.447 274.716 383.287C251.449 379.684 228.222 370.305 210.831 354.183C182.19 327.615 169.49 237.042 164.538 228.528C164.417 227.989 164.263 227.457 164.076 226.938C163.104 228.596 162.23 230.31 161.459 232.07C162.526 234.667 163.472 237.203 164.196 239.618C165.102 242.536 180.419 333.693 213.589 360.644C230.979 374.733 252.616 382.784 274.535 386.286C294.058 389.507 314.608 388.077 332.723 379.785C352.85 370.546 366.577 352.492 373.682 331.882C378.875 316.826 381.431 300.624 384.813 285.086C386.181 278.826 387.953 265.582 389.885 251.573C389.261 250.929 388.597 250.225 387.953 249.521Z" fill="#755C33"/>
<path d="M227.477 44.7051C227.511 50.2927 227.827 55.8751 228.423 61.4309C224.699 56.9023 221.922 47.3216 227.477 44.7051Z" fill="#FCC87F"/>
<path fill-rule="evenodd" clip-rule="evenodd" d="M268.576 143.063C259.095 133.462 246.536 122.533 235.748 111.624C235.267 109.903 235.083 108.113 235.204 106.33C237.68 96.6892 235.345 87.3501 233.876 77.9305C231.239 61.1845 229.85 44.4989 233.151 27.612C233.826 22.7799 235.839 18.2329 238.961 14.4842C242.084 10.7355 246.193 7.93449 250.823 6.39761C261.767 2.43441 273.641 1.81103 284.939 4.60637C295.506 6.96127 301.484 14.8311 305.066 24.7338C308.931 35.0994 308.549 46.0084 308.226 56.6356C307.723 72.7376 305.912 88.9804 304.422 105.123C301.866 120.822 277.593 133.925 268.576 143.063Z" fill="#FBC783"/>
<path d="M251.85 42.8119C254.004 39.9538 258.311 41.6848 260.525 43.5767C261.974 44.8246 264.128 42.7314 262.659 41.4634C258.794 38.1424 252.716 36.6932 249.254 41.3023C248.107 42.8119 250.703 44.3013 251.85 42.8119Z" fill="#755C33"/>
<path d="M298.828 46.4575C295.185 41.5464 289.691 39.6343 284.055 42.432C282.324 43.2975 283.793 45.9141 285.504 45.0687C287.311 44.0875 289.425 43.8349 291.412 44.3626C293.4 44.8903 295.11 46.1584 296.192 47.9067C297.339 49.4566 299.976 48.0274 298.828 46.4575Z" fill="#755C33"/>
<path d="M269.543 60.4257C272.244 61.9745 275.381 62.5855 278.465 62.1631C281.549 61.7407 284.407 60.3088 286.591 58.0909C287.92 56.682 285.806 54.5284 284.478 55.9373C281.197 59.4395 277.131 59.7816 272.703 58.5135C270.918 57.9393 269.296 56.9454 267.974 55.6152C265.256 53.0187 266.343 49.577 267.974 46.8598C268.127 46.5193 268.15 46.1337 268.036 45.7778C267.922 45.4219 267.68 45.1209 267.357 44.9331C267.034 44.7452 266.652 44.6839 266.287 44.761C265.921 44.838 265.597 45.048 265.377 45.3503C261.835 51.4489 263.284 57.0241 269.543 60.4257Z" fill="#755C33"/>
<path d="M268.758 61.0702C262.681 61.0061 256.701 62.607 251.469 65.6995C251.183 65.8641 250.958 66.118 250.83 66.4222C250.702 66.7264 250.677 67.0643 250.759 67.384C250.842 67.7037 251.026 67.9876 251.285 68.1923C251.544 68.397 251.863 68.5112 252.193 68.5174C255.756 68.7797 259.337 68.6176 262.861 68.0343C265.236 67.7324 270.308 67.1487 270.268 63.8478C270.265 63.5954 270.203 63.3472 270.087 63.1232C270.194 62.9021 270.243 62.6569 270.228 62.4115C270.213 62.1661 270.135 61.9287 270.001 61.7223C269.868 61.5159 269.683 61.3473 269.465 61.2331C269.248 61.1189 269.004 61.0628 268.758 61.0702Z" fill="#222114"/>
<path d="M290.658 72.4369L291 72.6786C292.59 73.7856 294.08 71.1689 292.51 70.0821C289.108 67.7272 286.089 65.01 282.144 63.6011C280.514 63.0375 275.743 62.2123 274.757 64.4464C273.771 66.6806 275.703 68.6127 277.817 69.4178C279.259 69.8672 280.755 70.1179 282.265 70.1627C284.79 70.4199 287.243 71.1577 289.491 72.3363C289.667 72.4346 289.862 72.4945 290.063 72.5119C290.265 72.5292 290.467 72.5036 290.658 72.4369Z" fill="#222114"/>
<path d="M257.729 74.5132C267.229 74.7346 276.93 78.5386 286.451 76.3649C288.343 75.9422 287.598 73.0438 285.706 73.4464C276.528 75.4591 266.927 71.7154 257.749 71.4336C257.341 71.431 256.948 71.5907 256.657 71.8776C256.367 72.1645 256.202 72.555 256.199 72.9633C256.197 73.3717 256.356 73.7644 256.643 74.0551C256.93 74.3457 257.321 74.5105 257.729 74.5132Z" fill="#755C33"/>
<path d="M292.648 89.8919C286.04 93.8292 278.393 95.6697 270.718 95.1702C263.042 94.6707 255.698 91.8547 249.656 87.0942C248.126 85.9268 246.637 88.5433 248.147 89.6906C254.634 94.7321 262.489 97.7032 270.688 98.2166C278.888 98.73 287.052 96.7618 294.118 92.5688C295.708 91.5423 294.319 88.9057 292.648 89.8919Z" fill="#755C33"/>
<path d="M308.67 67.5286C316.258 63.5032 318.734 51.4267 310.059 46.7572C309.83 46.6337 309.574 46.5713 309.314 46.576C309.196 42.0031 308.766 37.4438 308.026 32.9296C306.396 23.4295 302.209 13.6879 294.44 7.64964C284.658 0.0414828 272.3 -0.200085 260.385 0.0615708C260.023 0.0692367 259.676 0.208267 259.41 0.452718C259.143 0.697169 258.974 1.03028 258.935 1.38993C250.703 3.40266 242.431 5.8582 236.413 12.1983C230.395 18.5385 228.664 28.0386 227.899 36.3512C227.718 38.2432 227.637 40.115 227.577 42.007C217.352 44.845 222.022 60.5847 228.503 65.1335C228.621 65.2279 228.759 65.2964 228.905 65.3347C230.234 76.5658 232.126 87.7767 232.649 99.028C232.639 99.1283 232.639 99.2295 232.649 99.3299V101.343C232.65 101.55 232.691 101.755 232.77 101.946C232.627 102.073 232.512 102.227 232.432 102.401C232.352 102.574 232.31 102.762 232.307 102.953C232.085 106.535 231.703 110.299 233.998 113.339C237.319 117.686 242.048 120.584 245.893 124.368C253.098 131.353 259.177 139.866 268.134 144.777C268.477 144.953 268.873 144.995 269.245 144.895C269.617 144.794 269.938 144.559 270.146 144.234C275.078 136.767 283.531 131.071 291.099 126.542C296.574 123.281 301.847 120.222 302.531 113.56C302.903 113.531 303.254 113.375 303.525 113.119C303.796 112.863 303.971 112.521 304.021 112.151C304.222 110.642 304.403 109.132 304.604 107.602C304.79 106.831 304.884 106.041 304.886 105.247C306.517 92.6074 307.785 80.0882 308.67 67.5286ZM308.912 63.8252C309.193 59.1757 309.395 54.5263 309.375 49.8567C314.205 53.1778 313.118 60.3431 308.912 63.8252ZM227.516 45.167C227.547 50.4524 227.849 55.7329 228.422 60.9872C224.88 56.7605 222.283 47.6628 227.516 45.167ZM299.734 112.453C299.452 120.363 289.67 123.684 283.994 127.649C278.318 131.614 272.662 135.7 268.556 141.356C261.753 137.33 256.48 130.95 251.166 125.254C248.323 122.276 245.276 119.498 242.048 116.941C240.334 115.555 238.719 114.048 237.218 112.433C234.662 109.615 235.205 106.254 235.386 102.872C235.42 102.672 235.42 102.468 235.386 102.268C235.521 102.134 235.627 101.973 235.7 101.797C235.772 101.621 235.809 101.433 235.809 101.242V99.6318C235.125 81.5171 231.139 63.6843 230.717 45.5093C230.495 35.9286 231.522 26.0259 236.312 17.5523C241.102 9.07865 251.83 6.26079 260.847 4.0669C261.098 4.02031 261.33 3.90248 261.516 3.7276C261.701 3.55271 261.833 3.32819 261.894 3.08068C273.608 2.85928 285.665 3.4228 294.722 11.8361C302.411 19.0014 305.067 30.0715 306.054 40.1352C306.879 48.5887 305.55 70.5074 305.45 71.7352C304.645 82.7248 303.437 93.6741 302.109 104.603C302.086 104.743 302.086 104.886 302.109 105.026L301.988 105.911C301.929 106.404 301.821 106.89 301.666 107.361C301.596 107.604 301.596 107.862 301.666 108.105L301.304 111.004C301.103 110.987 300.902 111.012 300.712 111.077C300.522 111.143 300.347 111.247 300.2 111.383C300.052 111.519 299.934 111.685 299.854 111.869C299.774 112.053 299.733 112.252 299.734 112.453Z" fill="#755C33"/>
<path d="M308.952 63.8239C309.234 59.1745 309.435 54.525 309.395 49.8555C314.226 53.1765 313.159 60.3217 308.952 63.8239Z" fill="#FCC87F"/>
<path d="M272.118 337.962C262.98 336.653 253.078 330.816 244.926 323.188C237.849 316.492 232.698 308.018 230.012 298.653C228.114 292.032 228.39 284.978 230.797 278.525C229.891 289.938 239.814 298.935 248.911 304.449C262.477 312.661 277.512 313.104 291.903 310.77C292.202 310.712 292.488 310.603 292.749 310.447L293.111 310.91C293.321 317.013 294.489 323.044 296.573 328.784C296.659 329.035 296.83 329.248 297.056 329.387C288.905 335.647 281.296 339.33 272.118 337.962Z" fill="#FDD821"/>
<path d="M297.378 316.546C297.096 314.191 296.915 311.816 296.774 309.441C296.765 309.099 296.653 308.768 296.451 308.491C296.25 308.214 295.97 308.005 295.647 307.891C289.931 300.424 285.181 291.387 277.955 284.201C293.493 285.912 308.327 291.346 323.564 292.252C324.239 300.603 324.037 309.002 322.96 317.311C315.593 315.479 306.133 316.546 297.378 316.546Z" fill="#FDD821"/>
<path d="M325.758 288.368C325.46 288.608 325.265 288.954 325.215 289.334C307.765 288.248 290.998 280.941 273.065 279.995C272.658 279.98 272.255 280.09 271.911 280.308C271.567 280.527 271.298 280.845 271.138 281.22C270.979 281.596 270.937 282.011 271.019 282.41C271.101 282.809 271.302 283.175 271.596 283.457C271.707 283.908 271.97 284.306 272.34 284.584C280.15 290.804 285.041 299.68 290.354 307.369C277.956 308.999 265.658 308.536 253.763 302.759C243.699 297.848 233.635 288.892 234.903 276.735C236.171 264.578 248.228 255.923 257.345 251.455C266.059 247.509 275.537 245.536 285.101 245.678C285.442 245.687 285.774 245.565 286.027 245.336C297.479 245.931 308.522 249.793 317.848 256.466C324.329 260.915 329.925 266.53 332.562 272.307C335.48 278.687 331.032 283.86 325.758 288.368Z" fill="#FDD821"/>
<path d="M335.962 300.06C334.452 304.951 333.345 312.599 326.643 316.665C327.883 308.249 328.12 299.715 327.347 291.244C327.338 291.17 327.338 291.096 327.347 291.022C327.757 291 328.15 290.852 328.474 290.6C331.773 288.147 334.369 284.871 336.002 281.1C338.295 287.214 338.28 293.955 335.962 300.06Z" fill="#FDD821"/>
<path d="M337.975 276.976C337.701 276.497 337.277 276.122 336.767 275.91C336.385 270.737 332.46 265.041 325.214 258.821C312.252 247.631 298.364 241.653 284.959 241.21C284.776 241.19 284.591 241.214 284.419 241.281C284.248 241.347 284.095 241.454 283.973 241.592C274.581 241.032 265.19 242.715 256.577 246.502C247.964 250.289 240.376 256.071 234.44 263.37C227.677 274.058 223.571 283.719 225.422 295.574C227.174 306.765 234.279 317.432 242.752 325.886C250.658 333.849 260.67 339.392 271.615 341.867C281.98 343.98 291.199 338.546 300.498 330.958C302.148 329.609 301.444 327.395 299.995 327.556C300.083 327.24 300.083 326.906 299.995 326.59C299.181 324.543 298.574 322.419 298.183 320.25C306.536 319.888 315.674 318.741 322.336 320.874C322.901 320.948 323.476 320.84 323.976 320.565C324.475 320.29 324.874 319.862 325.113 319.345C325.496 319.807 326.281 319.968 327.307 319.345C334.714 315.138 337.23 308.194 338.82 303.001C341.799 293.521 342.946 286.517 337.975 276.976ZM272.279 337.882C263.161 336.553 253.259 330.737 245.087 323.088C238.013 316.389 232.863 307.917 230.173 298.553C228.284 291.931 228.559 284.88 230.957 278.426C230.052 289.858 239.975 298.855 249.072 304.35C262.638 312.562 277.693 313.004 292.064 310.67C292.367 310.628 292.656 310.518 292.91 310.348L293.272 310.831C293.492 316.932 294.66 322.962 296.734 328.704C296.827 328.956 296.996 329.174 297.217 329.328C289.085 335.547 281.457 339.23 272.279 337.882ZM297.559 316.547C297.257 314.212 297.096 311.817 296.935 309.442C296.922 309.103 296.811 308.776 296.614 308.501C296.417 308.226 296.144 308.014 295.828 307.892C290.092 300.445 285.362 291.408 278.116 284.222C293.654 285.933 308.488 291.347 323.725 292.273C324.396 300.63 324.201 309.035 323.141 317.352C315.835 315.379 306.315 316.346 297.559 316.547ZM325.898 288.187C325.745 288.297 325.617 288.438 325.523 288.601C325.43 288.764 325.372 288.946 325.355 289.133C307.884 288.046 291.038 280.76 273.185 279.814C272.783 279.808 272.389 279.922 272.053 280.141C271.717 280.361 271.454 280.676 271.298 281.046C271.142 281.416 271.1 281.824 271.178 282.218C271.256 282.612 271.45 282.973 271.736 283.256C271.841 283.704 272.097 284.101 272.46 284.383C280.27 290.603 285.161 299.499 290.474 307.167C278.076 308.798 265.778 308.335 253.903 302.578C243.839 297.647 233.775 288.711 235.023 276.534C236.271 264.356 248.348 255.742 257.465 251.274C266.176 247.318 275.656 245.345 285.221 245.497C285.56 245.497 285.889 245.375 286.147 245.155C297.567 245.791 308.567 249.681 317.847 256.366C324.329 260.834 329.924 266.43 332.561 272.206C335.66 278.607 331.212 283.759 325.898 288.187ZM335.962 299.982C334.453 304.873 333.346 312.501 326.643 316.587C327.884 308.164 328.12 299.624 327.348 291.146C327.348 291.146 327.348 291.005 327.348 290.945C327.76 290.916 328.153 290.762 328.475 290.502C331.773 288.05 334.369 284.774 336.002 281.002C338.334 287.109 338.362 293.855 336.083 299.982H335.962Z" fill="#9D7637"/>
<path d="M305.612 294.968C305.314 294.769 304.964 294.663 304.605 294.663C304.247 294.663 303.897 294.769 303.599 294.968C303.299 294.737 302.939 294.595 302.561 294.56C302.184 294.524 301.804 294.596 301.466 294.767C300.499 295.281 299.709 296.074 299.199 297.043C298.689 298.013 298.483 299.113 298.607 300.201C298.879 301.244 299.526 302.15 300.426 302.745C301.325 303.339 302.412 303.58 303.478 303.421C304.546 303.548 305.624 303.282 306.51 302.673C307.396 302.064 308.03 301.153 308.294 300.11C308.558 299.068 308.433 297.965 307.943 297.007C307.453 296.05 306.632 295.303 305.632 294.907L305.612 294.968ZM304.444 299.738C304.666 299.416 304.163 299.839 304.444 299.738C304.293 299.833 304.12 299.888 303.941 299.899C303.562 299.971 303.173 299.971 302.794 299.899C302.794 299.899 302.291 299.537 302.512 299.738L302.391 299.577C302.348 299.392 302.348 299.199 302.391 299.013C302.56 298.636 302.841 298.32 303.197 298.108H303.317L303.539 298.269L303.74 298.389L303.881 298.51L304.183 298.812C304.299 298.959 304.394 299.122 304.465 299.295C304.364 299.074 304.465 299.577 304.465 299.557C304.446 299.643 304.446 299.732 304.465 299.819L304.444 299.738Z" fill="#9D7637"/>
<path d="M320.687 304.708L320.385 304.527C320.128 304.27 319.783 304.119 319.419 304.104C318.056 303.956 316.678 304.187 315.438 304.773C314.198 305.359 313.145 306.277 312.394 307.425C311.983 307.905 311.691 308.475 311.54 309.088C311.39 309.702 311.386 310.342 311.529 310.957C311.672 311.573 311.958 312.146 312.364 312.63C312.769 313.114 313.283 313.497 313.864 313.745C315.2 314.154 316.632 314.132 317.954 313.68C319.277 313.228 320.423 312.371 321.23 311.23C321.652 310.78 321.975 310.246 322.178 309.664C322.381 309.081 322.459 308.463 322.408 307.848C322.357 307.234 322.177 306.636 321.881 306.096C321.584 305.555 321.178 305.082 320.687 304.708ZM318.372 309.7C318.139 310.093 317.778 310.395 317.35 310.556C316.922 310.717 316.452 310.727 316.017 310.585C314.105 309.921 316.199 307.426 318.03 307.385C318.359 307.664 318.575 308.052 318.638 308.478C318.701 308.904 318.606 309.338 318.372 309.7Z" fill="#9D7637"/>
<path d="M321.431 296.015C321.16 295.072 320.585 294.244 319.795 293.662C319.005 293.079 318.045 292.774 317.063 292.795C316.535 292.615 315.962 292.615 315.433 292.795C314.463 293.111 313.649 293.783 313.156 294.676C312.663 295.569 312.527 296.616 312.776 297.605C313.158 298.631 313.924 299.467 314.913 299.937C315.901 300.406 317.033 300.473 318.07 300.121C319.032 299.961 319.904 299.456 320.523 298.7C321.141 297.945 321.464 296.991 321.431 296.015ZM317.405 296.961C317.216 297.026 317.011 297.026 316.822 296.961H316.721L316.6 296.78V296.418C316.597 296.371 316.597 296.324 316.6 296.277L316.721 296.116H316.983H317.285C317.164 296.116 317.566 296.297 317.546 296.236L317.667 296.357V296.458C317.66 296.511 317.66 296.565 317.667 296.619C317.667 296.619 317.667 296.72 317.667 296.78C317.667 296.84 317.506 296.921 317.305 296.961H317.405Z" fill="#9D7637"/>
<path d="M290.475 290.178C287.959 290.178 287.818 294.022 290.334 293.982C292.85 293.941 292.97 290.178 290.475 290.178Z" fill="#9D7637"/>
<path d="M302.834 308.052C300.398 308.253 300.177 311.956 302.592 311.695C305.007 311.433 305.309 307.87 302.834 308.052Z" fill="#9D7637"/>
<path d="M312.252 300.903C309.796 301.044 309.555 304.566 312.011 304.365C314.466 304.163 314.728 300.762 312.252 300.903Z" fill="#9D7637"/>
<path fill-rule="evenodd" clip-rule="evenodd" d="M496.982 255.035C492.836 246.039 485.087 239.839 477.982 233.258C470.974 226.744 464.437 219.742 458.418 212.305C451.512 203.746 445.325 194.631 439.921 185.052C439.738 184.722 439.466 184.451 439.136 184.268C437.874 173.261 434.771 162.545 429.958 152.567C426.154 144.677 421.303 142.825 415.547 136.223C409.79 129.622 403.148 126.16 395.641 121.893C393.278 120.486 390.599 119.697 387.851 119.598C384.933 119.598 381.974 117.445 379.096 117.968C372.856 119.075 360.156 119.296 360.015 119.377L349.106 115.15C348.844 115.071 348.569 115.046 348.298 115.077C348.026 115.108 347.764 115.194 347.527 115.33C347.289 115.465 347.082 115.648 346.918 115.866C346.753 116.084 346.635 116.334 346.57 116.599C346.491 116.861 346.466 117.136 346.497 117.407C346.528 117.679 346.614 117.941 346.75 118.179C346.885 118.416 347.068 118.623 347.286 118.788C347.504 118.952 347.754 119.07 348.019 119.135C352.983 121.309 358.339 122.446 363.759 122.476C364.886 122.476 373.48 123.201 377.244 122.476C382.366 121.719 387.597 122.518 392.259 124.771C395.983 126.482 408.643 134.714 411.42 137.793C422.47 149.991 430.139 159.672 433.561 175.733C435.493 184.708 436.036 193.927 435.171 203.067C434.929 205.723 439.055 205.703 439.317 203.067C439.619 199.667 439.74 196.254 439.679 192.842C448.168 206.794 458.305 219.674 469.87 231.205C476.492 237.806 484.463 243.503 489.998 251.151C495.106 258.424 497.454 267.28 496.62 276.129C495.549 285.936 490.975 295.027 483.738 301.731C481.725 303.563 484.745 306.481 486.677 304.65C500.041 291.949 504.892 272.003 496.982 255.035Z" fill="#755C33"/>
<path fill-rule="evenodd" clip-rule="evenodd" d="M217.998 221.202C207.941 221.656 197.918 219.746 188.733 215.626C184.707 213.835 180.682 211.601 176.093 211.863C173.431 211.94 170.869 212.896 168.806 214.58L167.418 212.346C167.418 212.567 167.297 212.768 167.216 212.97C162.136 227.133 152.557 239.243 139.944 247.448C133.798 251.597 127.167 254.977 120.199 257.512C115.733 249.54 109.214 242.91 101.319 238.31C98.582 236.74 96.0459 241.309 98.7832 242.879C103.245 245.449 107.234 248.765 110.578 252.681C104.796 253.36 99.1839 255.078 94.0131 257.753C93.6436 258.002 93.3409 258.337 93.1316 258.73C92.9224 259.124 92.8129 259.562 92.8129 260.007C92.8129 260.453 92.9224 260.891 93.1316 261.284C93.3409 261.677 93.6436 262.013 94.0131 262.262C96.9718 263.832 100.474 267.716 97.8775 271.46C94.7175 275.989 91.6581 270.091 90.853 267.092C90.7812 266.775 90.6448 266.475 90.4523 266.212C90.2598 265.95 90.0153 265.729 89.7341 265.565C89.4528 265.401 89.1408 265.296 88.8173 265.258C88.4939 265.219 88.166 265.248 87.854 265.341C83.8586 266.811 80.2591 269.189 77.3392 272.287C74.4192 275.385 72.2586 279.119 71.0275 283.194C70.8874 283.613 70.8639 284.062 70.9595 284.494C71.0551 284.925 71.2662 285.322 71.5701 285.643C71.8741 285.963 72.2596 286.195 72.6852 286.313C73.1108 286.431 73.5605 286.432 73.9863 286.314C74.7484 286.028 75.5763 285.966 76.3723 286.136C77.1684 286.305 77.8994 286.699 78.4791 287.27C79.0588 287.841 79.4631 288.566 79.6442 289.36C79.8253 290.153 79.7757 290.982 79.5012 291.748C79.3105 292.541 78.9141 293.268 78.3519 293.858C77.7898 294.448 77.0819 294.88 76.2997 295.108C75.5176 295.337 74.6889 295.355 73.8975 295.161C73.1061 294.967 72.3799 294.567 71.7924 294.003C70.5244 292.875 69.2765 291.648 67.4449 291.99C65.6133 292.332 64.5868 294.003 64.1037 296.015C63.1919 299.694 62.779 303.478 62.876 307.267C54.2413 302.879 45.3249 297.203 42.8693 287.139C39.4074 272.728 49.3101 259.162 57.9246 248.897C67.8835 237.164 77.074 224.8 85.4388 211.883C90.3297 204.214 94.8785 196.284 99.065 188.173C99.3651 188.209 99.6695 188.186 99.9607 188.104C100.252 188.023 100.524 187.885 100.762 187.698C100.999 187.511 101.197 187.279 101.345 187.015C101.492 186.751 101.586 186.46 101.621 186.16C103.272 172.896 112.349 162.007 120.32 151.943C122.332 149.367 124.345 146.771 126.358 144.114C128.417 140.918 131.109 138.178 134.268 136.063C140.61 131.881 147.402 128.424 154.516 125.758C160.908 123.318 167.901 122.931 174.523 124.651C172.407 125.474 170.183 125.989 167.921 126.18C165.284 126.361 165.264 130.488 167.921 130.306C173.465 129.611 178.812 127.804 183.64 124.993C188.733 122.457 194.388 119.619 200.245 120.525C202.842 120.927 203.969 116.962 201.352 116.499C195.314 115.573 189.618 117.505 184.204 120.082L179.796 122.255C164.68 115.03 148.76 122.819 135.516 130.488C131.982 132.259 128.787 134.636 126.076 137.512C123.6 140.431 121.487 143.671 119.132 146.71C114.744 152.346 110.155 157.861 106.25 163.839C103.33 168.209 101.002 172.946 99.3267 177.928C99.3267 177.767 99.1455 177.606 99.0449 177.445L98.8638 177.103C94.8383 185.596 90.531 193.929 85.6602 202.04C77.1931 216.14 67.5943 229.529 56.9585 242.074C47.3577 253.385 36.8311 266.408 37.294 282.329C37.7972 297.042 48.7667 305.536 59.9977 311.393C66.8612 314.955 73.8454 318.236 80.6887 321.859C88.0151 325.723 95.1402 329.91 102.165 334.378C108.827 338.585 115.771 342.731 123.56 344.22C127.586 344.965 131.611 345.086 135.455 346.233C138.572 347.217 141.456 348.826 143.929 350.963C148.8 354.989 153.047 359.96 158.702 362.738C161.42 364.077 164.415 364.755 167.444 364.716C170.473 364.678 173.45 363.924 176.133 362.516C181.627 359.467 186.425 355.306 190.222 350.299C193.521 346.591 196.303 342.454 198.494 338.001C198.761 338.04 199.033 338.04 199.299 338.001C203.929 336.814 208.719 335.264 211.778 330.977C213.108 329.16 213.855 326.983 213.919 324.733C213.984 322.483 213.364 320.266 212.141 318.377C210.314 315.748 207.981 313.51 205.277 311.795C205.607 311.417 205.797 310.936 205.815 310.434C205.834 309.932 205.679 309.44 205.378 309.038C199.863 300.987 192.174 292.594 181.769 293.56C176.576 294.043 172.53 297.163 168.404 300.403C164.902 303.181 160.756 306.441 156.327 306.26C151.114 306.139 146.525 300.947 142.701 297.827C138.19 294.536 133.894 290.959 129.84 287.119C126.579 283.657 127.243 277.84 126.257 273.271C125.416 269.448 124.174 265.724 122.554 262.161C135.72 257.359 147.573 249.526 157.153 239.296C162.363 233.654 166.601 227.186 169.692 220.155C169.692 220.155 169.692 220.155 169.692 220.055C169.884 219.88 170.047 219.676 170.175 219.451C171.866 216.21 175.891 215.626 179.152 216.371C183.338 217.317 187.203 219.652 191.228 221.162C199.796 224.364 208.921 225.808 218.058 225.408C220.655 225.207 220.655 221.081 217.998 221.202ZM124.325 288.226C126.881 292.553 131.712 295.432 135.435 298.471C139.652 302.291 144.117 305.827 148.8 309.058C150.737 310.306 152.947 311.069 155.242 311.283C157.536 311.497 159.849 311.155 161.983 310.286C166.452 308.514 170.034 305.274 173.919 302.355C178.709 298.753 183.721 297.565 189.095 300.001C192.64 301.756 195.717 304.33 198.072 307.508C194.672 305.817 191.112 304.468 187.444 303.483C184.405 302.678 183.077 307.77 186.116 308.555C190.171 309.611 194.083 311.152 197.77 313.144C201.186 314.845 204.301 317.096 206.988 319.806C208.113 320.794 208.831 322.165 209.002 323.653C209.173 325.141 208.786 326.639 207.914 327.857C205.94 330.135 203.25 331.675 200.286 332.224C200.858 329.153 200.508 325.98 199.279 323.107C197.971 320.088 193.704 322.825 194.992 325.824C197.488 331.601 193.1 338.424 189.759 342.912C186.296 347.879 182.063 352.261 177.22 355.894C172.55 359.115 167.156 360.544 161.963 358.39C156.77 356.236 152.423 351.225 147.874 347.461C143.131 342.982 136.974 340.298 130.464 339.873C126.687 339.508 122.962 338.731 119.353 337.558C115.848 336.234 112.478 334.576 109.29 332.607C102.648 328.581 96.227 324.375 89.4844 320.53C82.7417 316.686 75.9386 313.345 69.0752 309.943C68.6525 309.762 68.25 309.541 67.8273 309.34C67.5691 306.593 67.6028 303.827 67.9279 301.087C68.0688 300.041 68.3909 299.075 68.5921 297.907L68.8337 298.109C70.4807 299.493 72.5577 300.262 74.7093 300.284C76.8609 300.306 78.9533 299.58 80.6283 298.229C82.4018 296.734 83.6511 294.71 84.1942 292.455C84.7372 290.199 84.5457 287.829 83.6474 285.69C83.0417 284.397 82.1324 283.27 80.9969 282.404C79.8614 281.538 78.5334 280.96 77.1261 280.719C79.2447 276.509 82.6695 273.098 86.8879 270.997C87.7198 273.657 89.5141 275.91 91.9198 277.317C93.4367 278.021 95.1458 278.195 96.7735 277.812C98.4011 277.429 99.853 276.51 100.897 275.204C105.143 270.413 103.755 264.295 100.112 260.309C104.604 258.527 109.37 257.533 114.201 257.371C114.905 258.437 115.57 259.524 116.214 260.672C116.203 261.118 116.304 261.56 116.508 261.957C116.712 262.354 117.012 262.694 117.381 262.946C119.163 266.517 120.515 270.287 121.406 274.177C122.433 278.867 121.99 284.341 124.325 288.226Z" fill="#755C33"/>
<path fill-rule="evenodd" clip-rule="evenodd" d="M124.321 288.005C126.878 292.332 131.708 295.21 135.432 298.25C139.648 302.069 144.113 305.606 148.796 308.837C150.734 310.085 152.943 310.848 155.238 311.062C157.533 311.275 159.845 310.933 161.98 310.064C166.448 308.293 170.031 305.053 173.915 302.134C178.706 298.552 183.717 297.344 189.091 299.779C192.636 301.535 195.713 304.108 198.068 307.287C194.668 305.596 191.108 304.247 187.441 303.261C184.402 302.456 183.073 307.548 186.113 308.333C190.167 309.39 194.08 310.931 197.766 312.922C201.183 314.624 204.297 316.875 206.985 319.585C208.11 320.573 208.828 321.944 208.999 323.432C209.17 324.919 208.782 326.418 207.911 327.636C205.936 329.914 203.246 331.454 200.282 332.003C200.855 328.931 200.504 325.759 199.276 322.886C197.968 319.866 193.701 322.604 194.989 325.603C197.485 331.379 193.097 338.202 189.756 342.691C186.298 347.662 182.064 352.045 177.216 355.673C172.547 358.893 167.153 360.322 161.96 358.169C156.767 356.015 152.419 351.003 147.87 347.24C145.671 345.269 143.221 343.598 140.584 342.268C137.387 340.88 133.991 340.004 130.521 339.672C126.745 339.29 123.021 338.507 119.41 337.337C115.905 336.013 112.535 334.354 109.347 332.386C102.705 328.36 96.284 324.154 89.5413 320.309C82.7986 316.465 75.9955 313.124 69.1321 309.742L67.8842 309.118C67.626 306.372 67.6597 303.606 67.9849 300.866C68.1258 299.82 68.4478 298.853 68.6491 297.686L68.8906 297.887C70.5376 299.272 72.6147 300.041 74.7662 300.063C76.9178 300.085 79.0102 299.359 80.6852 298.008C82.4587 296.512 83.708 294.489 84.2511 292.233C84.7942 289.978 84.6026 287.608 83.7044 285.469C83.0986 284.176 82.1893 283.048 81.0538 282.183C79.9183 281.317 78.5903 280.739 77.1831 280.497C79.3017 276.287 82.7264 272.877 86.9449 270.776C87.7767 273.435 89.571 275.689 91.9767 277.096C93.4829 277.811 95.1851 278.001 96.8119 277.636C98.4387 277.271 99.8967 276.372 100.954 275.083C105.2 270.293 103.812 264.174 100.169 260.189C104.661 258.406 109.427 257.412 114.258 257.25C114.962 258.317 115.626 259.404 116.271 260.551C116.26 260.997 116.361 261.439 116.565 261.837C116.769 262.234 117.069 262.574 117.438 262.825C119.22 266.396 120.572 270.166 121.463 274.056C122.429 278.645 121.987 284.04 124.321 288.005Z" fill="#FDD821"/>
<path fill-rule="evenodd" clip-rule="evenodd" d="M491.508 291.187C489.366 295.193 486.699 298.896 483.578 302.197C482.393 298.225 480.892 294.355 479.089 290.623C478.898 290.253 478.627 289.929 478.295 289.676C477.963 289.422 477.579 289.246 477.171 289.159C476.762 289.073 476.34 289.078 475.934 289.174C475.528 289.271 475.148 289.457 474.822 289.718C472.669 291.429 468.301 292.858 466.772 289.718C464.92 286.014 469.328 285.692 471.964 286.336C472.467 286.513 473.01 286.541 473.528 286.417C474.046 286.294 474.517 286.024 474.886 285.64C475.255 285.256 475.506 284.774 475.609 284.252C475.712 283.729 475.663 283.188 475.467 282.693C473.007 276.869 468.728 271.997 463.269 268.805C460.507 267.061 457.644 265.481 454.695 264.075C451.978 262.747 448.335 261.237 446.785 264.981C445.577 267.9 445.557 271.462 442.538 273.374C441.045 274.147 439.389 274.551 437.708 274.551C436.026 274.551 434.37 274.147 432.877 273.374C431.278 272.772 429.794 271.9 428.489 270.798C426.98 269.389 427.745 268.624 429.254 267.578C432.312 265.529 436.013 264.67 439.66 265.162C440.299 265.214 440.936 265.037 441.456 264.662C441.976 264.287 442.345 263.739 442.498 263.116C442.651 262.493 442.577 261.837 442.289 261.264C442.001 260.691 441.519 260.239 440.928 259.99C434.688 256.91 427.302 258.46 420.801 259.748C417.717 260.226 414.68 260.967 411.723 261.962C413.16 258.033 415.62 254.559 418.848 251.898C421.586 249.704 418.104 245.578 415.346 247.873C412.023 250.592 409.366 254.034 407.577 257.937C407.596 257.97 407.607 258.008 407.607 258.047C407.607 258.086 407.596 258.124 407.577 258.158C406.452 260.312 405.62 262.607 405.101 264.981C404.98 265.484 404.88 266.008 404.779 266.511C404.51 268.041 404.348 269.588 404.296 271.14C404.292 271.2 404.268 271.256 404.228 271.3C404.188 271.344 404.134 271.373 404.075 271.382C404.075 271.744 404.075 272.126 404.075 272.489C403.953 277.485 404.115 282.485 404.558 287.463C404.779 291.67 404.296 297.024 399.767 298.976H399.586C398.617 297.893 397.53 296.921 396.346 296.078C392.32 293.18 387.671 292.998 382.74 292.878C376.822 292.737 370.542 292.052 364.726 293.481C364.238 293.6 363.792 293.851 363.437 294.206C363.082 294.561 362.832 295.006 362.713 295.494L360.6 297.245C359.895 297.721 359.387 298.436 359.17 299.258C359.106 299.927 359.106 300.601 359.17 301.271C359.175 302.389 359.439 303.491 359.942 304.49C360.445 305.489 361.173 306.358 362.069 307.027C361.858 307.475 361.709 307.949 361.626 308.436C361.101 310.795 360.845 313.205 360.861 315.622C360.884 316.651 361.176 317.657 361.707 318.54C361.959 318.905 362.264 319.23 362.612 319.506C361.334 321.255 360.676 323.38 360.74 325.544C360.829 326.798 361.277 328 362.029 329.006C362.392 329.504 362.834 329.939 363.337 330.295L363.739 330.516C363.616 331.027 363.522 331.544 363.458 332.066C363.376 333.296 363.52 334.53 363.88 335.709C364.3 337.058 364.984 338.31 365.893 339.392C365.67 339.581 365.479 339.805 365.329 340.056C360.257 348.59 371.992 354.427 378.775 356.158C385.557 357.889 396.426 358.875 400.23 351.911C400.826 352.104 401.467 352.104 402.062 351.911C414.267 347.942 426.144 343.029 437.587 337.218C449.002 331.872 460.139 325.954 470.958 319.486C481.066 313.387 489.585 304.979 495.815 294.951L496.057 294.508C494.266 293.542 492.957 292.395 491.508 291.187ZM400.593 324.598C400.111 328.542 399.337 332.444 398.278 336.272C397.372 340.298 396.587 344.323 395.521 348.208C395.428 348.971 395.124 349.693 394.644 350.294C394.165 350.895 393.527 351.35 392.803 351.609C391.06 352.119 389.243 352.33 387.429 352.233C383.529 352.185 379.675 351.385 376.077 349.879C374.246 349.094 367.624 346.215 369.375 343.277C369.526 343.013 369.634 342.728 369.697 342.431C373.9 344.265 378.326 345.537 382.86 346.215C383.211 346.254 383.565 346.223 383.903 346.124C384.241 346.025 384.557 345.861 384.832 345.641C385.106 345.42 385.335 345.148 385.504 344.839C385.674 344.53 385.781 344.19 385.819 343.84C385.857 343.49 385.826 343.136 385.728 342.798C385.629 342.459 385.465 342.144 385.244 341.869C385.024 341.594 384.751 341.366 384.442 341.196C384.134 341.027 383.794 340.92 383.444 340.882C382.357 340.721 381.311 340.519 380.244 340.298L379.882 340.197L379.036 339.996L377.486 339.553C375.38 338.927 373.316 338.168 371.307 337.279C371.105 337.185 370.886 337.131 370.663 337.118C370.082 336.662 369.603 336.09 369.257 335.439C368.91 334.787 368.704 334.07 368.65 333.334C368.6 332.94 368.6 332.541 368.65 332.146C374.37 333.564 380.362 333.446 386.02 331.804C386.74 331.676 387.38 331.272 387.805 330.677C388.23 330.083 388.406 329.346 388.295 328.624C388.158 327.92 387.75 327.298 387.159 326.891C386.568 326.485 385.841 326.326 385.135 326.45C383.754 326.856 382.349 327.172 380.928 327.396C380.224 327.497 379.519 327.577 378.795 327.638H377.627H376.923C374.136 327.645 371.362 327.244 368.691 326.45C368.176 326.319 367.636 326.319 367.121 326.45L366.799 326.249C366.316 325.947 366.054 325.907 365.873 325.363C365.791 324.9 365.81 324.426 365.928 323.971C366.047 323.516 366.261 323.091 366.557 322.727C366.724 322.757 366.894 322.757 367.06 322.727L373.602 323.028C375.783 323.193 377.976 323.126 380.143 322.827C382.074 322.555 383.931 321.905 385.61 320.914C387.289 319.923 388.755 318.61 389.925 317.051C390.289 316.458 390.411 315.748 390.267 315.067C390.123 314.387 389.723 313.788 389.151 313.393C388.578 312.998 387.876 312.838 387.189 312.946C386.501 313.053 385.882 313.42 385.457 313.971C384.649 315.035 383.621 315.913 382.444 316.545C381.267 317.177 379.967 317.549 378.634 317.634C376.96 317.785 375.276 317.785 373.602 317.634L367.564 317.373C367.245 316.908 366.888 316.47 366.497 316.064C366.074 315.602 365.953 315.622 365.913 314.937C365.95 314.005 366.057 313.076 366.235 312.16C366.376 311.214 366.457 310.268 366.618 309.322C366.779 308.376 367.02 308.336 367.926 307.873C369.92 306.81 372.017 305.953 374.185 305.316C374.884 305.179 375.506 304.785 375.928 304.21C376.349 303.636 376.539 302.925 376.46 302.217C376.323 301.512 375.916 300.888 375.326 300.478C374.735 300.068 374.009 299.905 373.3 300.023C370.12 300.763 367.082 302.014 364.303 303.726L363.88 303.384L363.76 303.263C363.76 303.263 363.9 303.445 363.76 303.263C363.634 303.125 363.52 302.977 363.417 302.821L363.297 302.66L363.115 302.217L363.015 301.975C363.015 301.975 363.015 301.975 363.015 301.834V301.573C363.015 301.331 363.015 301.09 363.015 300.868V300.627C363.009 300.54 363.009 300.452 363.015 300.365L363.236 300.164L365.028 298.674H365.491C369.5 297.9 373.597 297.677 377.668 298.01C381.459 297.8 385.263 297.976 389.019 298.533C395.682 300.083 398.862 306.927 399.908 312.904C400.618 316.759 400.848 320.687 400.593 324.598ZM472.649 311.797C467.175 315.646 461.415 319.071 455.42 322.042C449.381 325.202 443.343 328.362 437.204 331.402C425.71 337.309 413.796 342.361 401.559 346.517C402.525 342.492 403.33 338.607 404.236 334.662C405.528 329.847 406.138 324.874 406.047 319.889C406.018 314.212 404.783 308.607 402.424 303.445C411.864 298.876 409.59 287.202 409.288 278.849C409.151 275.879 409.266 272.903 409.63 269.953L409.771 269.731C410.337 268.879 411.072 268.151 411.931 267.594C412.789 267.036 413.753 266.661 414.762 266.491C417.56 265.686 420.479 265.182 423.316 264.639L424.424 264.438C423.428 265.219 422.691 266.282 422.311 267.489C421.93 268.696 421.923 269.989 422.29 271.2C423.373 273.623 425.286 275.579 427.684 276.715C429.899 278.168 432.402 279.125 435.021 279.521C437.641 279.917 440.315 279.743 442.86 279.01C445.319 278.158 447.437 276.534 448.898 274.381C449.67 273.223 450.293 271.971 450.75 270.657C450.871 270.295 451.052 269.148 451.273 268.242C451.777 268.503 452.26 268.825 452.682 269.007C453.729 269.53 454.695 270.053 455.802 270.617C457.954 271.766 460.031 273.05 462.021 274.461C464.397 276.11 466.473 278.152 468.16 280.499C466.296 280.574 464.513 281.284 463.108 282.512C462.082 283.549 461.369 284.855 461.053 286.279C460.736 287.704 460.827 289.189 461.317 290.563C463.33 296.601 470.052 297.547 475.406 295.253C476.985 298.801 478.257 302.478 479.21 306.242C477.129 308.228 474.938 310.096 472.649 311.838V311.797Z" fill="#755C33"/>
<path fill-rule="evenodd" clip-rule="evenodd" d="M472.648 311.836C467.169 315.678 461.41 319.103 455.419 322.081C449.38 325.241 443.342 328.401 437.203 331.44C425.709 337.348 413.795 342.4 401.558 346.556C402.524 342.531 403.329 338.646 404.235 334.681C405.528 329.873 406.138 324.906 406.046 319.928C406.017 314.251 404.782 308.646 402.423 303.483C411.863 298.915 409.588 287.241 409.287 278.888C409.15 275.918 409.264 272.942 409.629 269.991L409.77 269.77C410.336 268.917 411.071 268.19 411.93 267.633C412.788 267.075 413.752 266.7 414.761 266.53C417.559 265.725 420.477 265.221 423.315 264.678L424.422 264.477C423.427 265.258 422.69 266.321 422.31 267.528C421.929 268.735 421.922 270.028 422.289 271.239C423.372 273.662 425.285 275.618 427.683 276.754C429.898 278.207 432.401 279.164 435.02 279.56C437.64 279.956 440.313 279.782 442.859 279.049C445.318 278.197 447.436 276.573 448.897 274.42C449.669 273.261 450.291 272.01 450.749 270.696C450.87 270.334 451.051 269.186 451.272 268.281C451.776 268.542 452.279 268.864 452.681 269.046C453.728 269.569 454.694 270.092 455.801 270.656C457.953 271.805 460.03 273.089 462.02 274.5C464.395 276.149 466.471 278.191 468.159 280.538C466.295 280.613 464.512 281.323 463.107 282.551C462.081 283.588 461.368 284.894 461.051 286.318C460.735 287.743 460.826 289.227 461.316 290.602C463.329 296.64 470.051 297.586 475.405 295.292C476.987 298.839 478.259 302.515 479.209 306.281C477.127 308.253 474.936 310.108 472.648 311.836Z" fill="#FDD821"/>
<path fill-rule="evenodd" clip-rule="evenodd" d="M398.358 336.31C397.452 340.335 396.667 344.361 395.6 348.245C395.507 349.008 395.204 349.731 394.724 350.331C394.244 350.932 393.607 351.387 392.883 351.647C391.14 352.156 389.323 352.367 387.509 352.271C383.609 352.222 379.755 351.422 376.157 349.916C374.325 349.131 367.704 346.253 369.455 343.314C369.605 343.051 369.714 342.765 369.777 342.469C373.973 344.3 378.392 345.572 382.92 346.253C383.638 346.327 384.358 346.118 384.925 345.671C385.493 345.224 385.863 344.574 385.959 343.857C386.016 343.147 385.793 342.442 385.338 341.894C384.883 341.345 384.232 340.995 383.524 340.919C382.437 340.758 381.39 340.557 380.323 340.335L379.961 340.235L379.116 340.033L377.566 339.59C375.46 338.965 373.396 338.205 371.387 337.316C371.184 337.223 370.966 337.168 370.743 337.155C370.162 336.699 369.683 336.128 369.336 335.476C368.99 334.824 368.783 334.107 368.73 333.371C368.68 332.977 368.68 332.578 368.73 332.184C374.449 333.601 380.441 333.483 386.1 331.841C386.813 331.695 387.44 331.277 387.85 330.676C388.259 330.075 388.419 329.338 388.294 328.621C388.157 327.917 387.749 327.295 387.158 326.888C386.567 326.482 385.84 326.323 385.134 326.447C383.753 326.853 382.348 327.169 380.927 327.393C380.223 327.494 379.518 327.574 378.794 327.635H377.626H376.922C374.135 327.642 371.361 327.241 368.69 326.447C368.175 326.316 367.635 326.316 367.12 326.447L366.798 326.246C366.315 325.944 366.053 325.904 365.872 325.36C365.79 324.897 365.809 324.423 365.927 323.968C366.046 323.513 366.26 323.089 366.556 322.724C366.723 322.754 366.893 322.754 367.059 322.724L373.601 323.026C375.782 323.19 377.975 323.123 380.142 322.824C382.073 322.552 383.93 321.902 385.609 320.911C387.288 319.92 388.754 318.607 389.924 317.048C390.288 316.455 390.41 315.745 390.266 315.064C390.122 314.384 389.723 313.785 389.15 313.39C388.577 312.995 387.875 312.835 387.188 312.943C386.5 313.05 385.881 313.417 385.456 313.968C384.648 315.032 383.62 315.91 382.443 316.542C381.266 317.174 379.966 317.546 378.633 317.631C376.959 317.782 375.275 317.782 373.601 317.631L367.563 317.37C367.244 316.905 366.887 316.467 366.496 316.062C366.073 315.599 365.952 315.619 365.912 314.934C365.949 314.002 366.056 313.073 366.234 312.157C366.375 311.211 366.456 310.265 366.617 309.319C366.778 308.373 367.019 308.333 367.925 307.87C369.919 306.807 372.016 305.95 374.185 305.313C374.883 305.176 375.505 304.782 375.927 304.207C376.348 303.633 376.538 302.922 376.459 302.214C376.322 301.509 375.915 300.885 375.325 300.475C374.734 300.065 374.008 299.902 373.299 300.02C370.119 300.76 367.081 302.011 364.302 303.723L363.879 303.381L363.759 303.261C363.759 303.261 363.899 303.442 363.759 303.261C363.633 303.122 363.519 302.974 363.416 302.818L363.296 302.657L363.114 302.214L363.014 301.972C363.023 301.926 363.023 301.878 363.014 301.831C363.023 301.744 363.023 301.657 363.014 301.57C363.014 301.328 363.014 301.087 363.014 300.865V300.624C363.008 300.537 363.008 300.449 363.014 300.362L363.235 300.161L365.027 298.671C365.174 298.683 365.322 298.683 365.469 298.671C369.486 297.897 373.59 297.674 377.667 298.007C381.458 297.797 385.262 297.973 389.018 298.53C395.681 300.08 398.861 306.924 399.907 312.901C400.628 316.714 400.878 320.601 400.652 324.475C400.185 328.472 399.418 332.428 398.358 336.31Z" fill="#FDD821"/>
<path fill-rule="evenodd" clip-rule="evenodd" d="M412.045 252.134C407.417 251.756 402.842 250.885 398.399 249.538C393.84 248.03 389.879 245.112 387.087 241.205C380.264 231.966 373.803 222.426 367.181 213.026C370.684 211.141 373.864 208.709 376.601 205.821C378.432 203.808 375.514 200.97 373.682 202.902C362.048 215.22 344.055 215.864 328.234 215.784C327.701 215.784 327.189 215.996 326.811 216.373C326.434 216.751 326.222 217.263 326.222 217.797C326.222 218.33 326.434 218.842 326.811 219.22C327.189 219.597 327.701 219.809 328.234 219.809C339.949 219.809 352.629 219.387 363.457 214.757L374.568 230.497C377.989 235.348 381.23 240.42 384.953 245.049C391.636 253.362 402.062 255.113 412.045 256.139C414.682 256.562 414.661 252.416 412.045 252.134Z" fill="#755C33"/>
<path fill-rule="evenodd" clip-rule="evenodd" d="M352.063 115.772C338.82 112.149 318.048 108.728 302.007 113.196C300.155 113.719 299.793 116.175 301.725 116.195C315.814 116.195 330.064 112.612 352.245 120.12C352.124 118.671 352.063 117.221 352.063 115.772Z" fill="#755C33"/>
<path d="M314.931 41.8236C314.708 41.6209 314.426 41.4941 314.126 41.4614C313.129 41.38 312.159 41.1015 311.271 40.642C310.383 40.1824 309.595 39.551 308.953 38.7844C308.027 37.456 308.007 35.725 309.879 35.5237C310.129 35.4965 310.367 35.3988 310.563 35.2419C318.797 36.477 327.203 35.8442 335.159 33.3902C342.626 31.0957 352.448 25.6412 359.312 31.7801C357.98 33.1762 357.256 35.0437 357.299 36.9729C357.365 37.933 357.64 38.8672 358.104 39.7103C353.294 38.4221 347.658 40.4349 343.492 42.5885C338.218 45.3258 333.187 46.8555 327.249 45.1044C324.793 44.3798 322.479 43.0916 320.063 42.2865C318.395 41.8202 316.656 41.6634 314.931 41.8236Z" fill="#E63220"/>
<path d="M358.424 66.9613C351.38 70.9868 342.785 65.3913 337.411 61.1444C331.614 56.5755 326.422 51.9261 318.914 51.8859C314.889 49.3901 318.552 47.2163 321.772 47.4578C325.476 47.7396 329.018 50.0744 331.997 52.1476C332.157 52.2816 332.351 52.3678 332.557 52.3963C332.764 52.4248 332.974 52.3943 333.164 52.3085C336.727 54.3963 340.632 55.8344 344.697 56.5555C350.071 57.119 356.089 54.8848 360.94 57.6423C358.404 60.279 356.874 63.5799 358.424 66.9613Z" fill="#E63220"/>
<path d="M306.034 43.0503C305.704 43.2953 305.439 43.6184 305.263 43.9907C305.087 44.3629 305.007 44.7727 305.028 45.1838C305.252 46.166 305.789 47.0489 306.558 47.6997C307.161 48.3438 306.839 50.4975 306.175 51.524C303.398 51.524 301.063 50.0345 298.346 49.8735C294.078 49.632 290.093 50.6987 285.846 49.5314C282.847 48.7061 280.815 46.0694 278.44 44.2378C276.064 42.4062 272.884 42.7283 270.389 42.9497C263.545 43.4931 257.91 48.2432 250.986 48.0017C243.76 47.74 237.36 43.6944 230.073 43.2113C229.967 43.0887 229.845 42.9804 229.711 42.8892C229.055 42.6205 228.53 42.106 228.248 41.4555C227.966 40.8049 227.949 40.0698 228.202 39.4072C228.443 38.421 229.55 37.6964 229.973 36.7705C230.306 36.0584 230.363 35.2481 230.134 34.4961C229.993 33.9326 229.087 32.8859 229.872 32.7048C236.816 33.8118 243.619 32.7049 250.523 31.7991C254.99 30.9253 259.592 31.0007 264.028 32.0205C266.625 32.8256 268.919 34.5364 271.475 35.4824C278.601 38.0989 285.343 30.37 292.388 33.4696C295.045 34.6571 296.836 37.6762 299.332 39.2462C301.194 40.2322 303.263 40.7634 305.37 40.796C305.491 40.9079 305.634 40.994 305.79 41.0493C305.946 41.1047 306.111 41.128 306.276 41.118C309.657 41.0576 306.316 42.8087 306.034 43.0503Z" fill="#E63220"/>
<path d="M249.415 39.0045C248.207 40.514 250.784 42.084 251.971 40.5745C254.185 37.7768 258.452 39.6285 260.606 41.5607C262.035 42.8488 264.229 40.816 262.8 39.5479C258.915 36.086 252.877 34.4758 249.415 39.0045Z" fill="#75160D"/>
<path d="M284.053 41.0813C282.302 41.9065 283.711 44.5632 285.442 43.7581C287.276 42.8195 289.401 42.6199 291.378 43.2003C293.354 43.7806 295.034 45.0969 296.069 46.878C297.156 48.4278 299.833 47.0591 298.726 45.469C295.224 40.4573 289.669 38.4245 284.053 41.0813Z" fill="#75160D"/>
<path d="M308.772 44.644C309.461 44.3422 310.026 43.8158 310.377 43.1508C310.727 42.4857 310.842 41.7214 310.702 40.9829C310.561 40.2443 310.175 39.5753 309.605 39.085C309.035 38.5947 308.316 38.3122 307.565 38.2838C307.348 38.1069 307.079 38.0076 306.8 38.002C305.013 37.9464 303.257 37.531 301.635 36.7805C300.013 36.03 298.559 34.9599 297.36 33.6344C295.679 31.7734 293.453 30.4913 291 29.9712C283.834 28.4616 277.917 35.164 270.731 31.9839C268.539 30.8206 266.281 29.7857 263.969 28.8843C260.66 28.1777 257.25 28.0754 253.905 28.5824C246.277 29.1459 238.89 30.9373 231.221 29.9712C231.035 29.869 230.829 29.8073 230.617 29.7901C229.45 29.7901 227.598 29.79 226.974 31.0983C226.58 31.69 226.422 32.4083 226.532 33.111C226.854 34.0369 227.961 35.1238 227.115 36.1906C226.537 36.755 226.089 37.4383 225.801 38.1931C225.513 38.948 225.393 39.7563 225.449 40.5623C225.504 41.3682 225.734 42.1525 226.123 42.8607C226.511 43.569 227.049 44.1843 227.699 44.6641C227.734 44.9843 227.888 45.2798 228.13 45.4921C228.372 45.7045 228.685 45.8184 229.007 45.8114C236.334 45.8114 242.412 49.7162 249.537 50.481C256.26 51.1854 261.171 48.106 267.471 46.2341C269.551 45.4058 271.827 45.2007 274.021 45.6439C276.216 46.087 278.234 47.1593 279.829 48.7299C281.788 50.5478 284.178 51.8362 286.773 52.4736C290.134 53.3793 293.737 52.5742 297.139 52.4736C300.057 52.4736 302.774 53.9027 305.673 54.1643C305.87 54.3602 306.122 54.4903 306.396 54.5372C306.67 54.584 306.951 54.5452 307.202 54.426C309.215 53.5404 309.215 51.6886 309.94 49.8168C310.219 48.9742 310.184 48.0587 309.839 47.2405C309.497 46.4555 307.987 45.0868 308.772 44.644ZM306.337 42.8929C305.999 43.1315 305.729 43.4533 305.553 43.8272C305.376 44.201 305.3 44.6142 305.33 45.0264C305.549 46.0165 306.086 46.9075 306.86 47.5625C307.444 48.1864 307.142 50.3401 306.478 51.3867C303.7 51.3867 301.365 49.8772 298.648 49.7363C294.361 49.4746 290.396 50.5615 286.149 49.3942C283.15 48.5689 281.117 45.9322 278.742 44.0805C276.367 42.2288 273.187 42.591 270.59 42.7923C263.767 43.3357 258.112 48.0858 251.208 47.8443C243.982 47.5827 237.582 43.5572 230.295 43.054C230.185 42.933 230.056 42.831 229.913 42.752C229.256 42.4796 228.731 41.9601 228.453 41.3052C228.174 40.6504 228.164 39.9124 228.424 39.2499C228.665 38.2636 229.772 37.539 230.175 36.6132C230.524 35.9062 230.589 35.0921 230.356 34.3388C230.215 33.7953 229.309 32.7488 230.094 32.5475C237.038 33.6344 243.841 32.5475 250.745 31.6216C255.213 30.7484 259.814 30.8238 264.25 31.843C266.847 32.6682 269.121 34.3791 271.698 35.305C278.823 37.9417 285.565 30.1926 292.61 33.2922C295.247 34.4798 297.038 37.519 299.554 39.0688C301.414 40.0633 303.483 40.6014 305.592 40.6387C305.714 40.7489 305.857 40.8328 306.013 40.8847C306.169 40.9367 306.334 40.9557 306.498 40.9406C309.94 40.9004 306.619 42.6313 306.337 42.8125V42.8929Z" fill="#75160D"/>
<path d="M326.262 47.743C329.38 48.6754 332.664 48.909 335.883 48.4273C343.31 47.7228 351.18 38.5448 358.989 43.0734C359.196 43.2061 359.437 43.2766 359.683 43.2766C359.93 43.2766 360.171 43.2061 360.378 43.0734C361.485 43.6571 362.914 42.0268 361.988 40.7789C360.156 38.3233 359.07 36.1898 361.284 33.5934C361.46 33.4015 361.58 33.1646 361.629 32.9087C361.679 32.6529 361.657 32.3882 361.565 32.1443C361.723 32.0284 361.852 31.8769 361.941 31.702C362.029 31.5272 362.075 31.3339 362.075 31.1379C362.075 30.9419 362.029 30.7486 361.941 30.5738C361.852 30.3989 361.723 30.2474 361.565 30.1315C355.527 24.2342 347.476 26.106 340.291 28.4609C335.873 30.1317 331.339 31.4771 326.725 32.4864C320.597 33.4406 314.348 33.3043 308.268 32.0838C306.477 31.802 306.396 34.5998 308.167 34.8816C317.093 36.5042 326.278 35.9729 334.957 33.3317C342.404 31.0372 352.246 25.5827 359.11 31.7215C357.796 33.1293 357.075 34.9891 357.097 36.9144C357.18 37.8741 357.461 38.8062 357.922 39.6517C353.112 38.3636 347.476 40.3763 343.31 42.5299C338.016 45.2673 333.005 46.797 327.047 45.0459C324.591 44.3213 322.297 43.0332 319.882 42.2281C317.526 41.6857 315.094 41.5631 312.696 41.8658C310.885 41.8658 310.784 44.7037 312.595 44.6634C315.263 44.423 317.953 44.6824 320.526 45.4283C322.478 46.1126 324.35 47.0385 326.262 47.743Z" fill="#75160D"/>
<path d="M363.96 56.9001C363.93 56.7194 363.865 56.5464 363.768 56.391C363.671 56.2355 363.545 56.1007 363.396 55.9943C360.155 53.4985 356.492 53.2973 352.527 53.559C349.52 53.9415 346.477 53.9415 343.47 53.559C340.116 52.6836 336.894 51.3636 333.889 49.6341C332.279 48.8693 330.81 51.2443 332.42 52.0293C336.284 53.9011 340.27 56.0548 344.597 56.5781C349.971 57.1416 355.989 54.9075 360.84 57.6649C358.304 60.3419 356.814 63.7031 358.324 66.9839C351.279 71.0094 342.685 65.4139 337.311 61.1671C331.273 56.3969 325.878 51.5261 317.827 51.9287C316.036 51.9287 315.936 54.8068 317.727 54.7061C328.113 54.2029 335.097 64.2465 343.591 68.9161C348.099 71.3917 355.989 71.9754 360.357 68.9161C360.457 68.8588 360.545 68.7838 360.618 68.6947C360.821 68.5984 360.999 68.4589 361.141 68.286C361.284 68.1131 361.386 67.9109 361.442 67.694C361.498 67.477 361.505 67.2506 361.464 67.0305C361.422 66.8104 361.333 66.6021 361.202 66.4203C359.069 63.5219 361.625 60.5632 363.778 58.6108C364.014 58.3981 364.163 58.1058 364.196 57.7901C364.23 57.4743 364.145 57.1574 363.96 56.9001Z" fill="#75160D"/>
<path fill-rule="evenodd" clip-rule="evenodd" d="M232.973 110.419C230.326 110.675 227.737 111.355 225.305 112.432C222.608 113.378 219.87 114.243 217.093 114.948C211.567 116.43 205.833 116.988 200.125 116.598C197.529 116.377 197.549 120.422 200.125 120.624C205.785 121.008 211.471 120.499 216.972 119.114C219.762 118.457 222.516 117.658 225.224 116.719C227.679 115.592 230.292 114.852 232.973 114.525C235.55 114.364 235.57 110.339 232.973 110.419Z" fill="#755C33"/>
</svg>
