<svg width="458" height="353" viewBox="0 0 458 353" fill="none" xmlns="http://www.w3.org/2000/svg">
<path d="M435.98 321.1L435.98 321.093C436.334 312.565 435.967 304.046 435.597 295.461C435.458 292.216 435.317 288.961 435.216 285.693C435.164 284.082 435.115 282.574 435.07 281.154C434.424 261.173 434.348 258.811 434.82 236.215C435.221 217.012 435.984 207.469 437.2 192.271C437.517 188.302 437.866 183.947 438.246 178.933C439.59 161.236 441.228 149.143 443.202 134.563C443.937 129.134 444.718 123.361 445.549 116.825C447.821 98.9137 450.452 85.0143 453.447 69.1941C454.327 64.5492 455.237 59.7388 456.179 54.6127C443.319 55.3901 430.439 55.9167 417.56 56.2459C418.689 60.881 419.573 65.5934 420.242 70.3013L420.243 70.3058C423.131 91.0872 421.599 106.593 419.691 125.911C419.427 128.588 419.155 131.339 418.887 134.188L418.886 134.194C418.427 138.877 417.994 141.884 417.618 144.5C417.024 148.628 416.57 151.784 416.37 159.016L435.98 321.1ZM435.98 321.1L435.979 321.107M435.98 321.1L435.979 321.107M435.979 321.107C435.8 326.737 435.101 332.346 433.888 337.881C433.813 338.203 433.739 338.53 433.664 338.859C433.197 340.909 432.701 343.09 431.876 345.121C430.925 347.461 429.61 349.406 427.604 350.569L427.553 350.599M435.979 321.107L427.553 350.599M427.553 350.599L427.505 350.632M427.553 350.599L427.505 350.632M427.505 350.632C426.829 351.098 425.99 351.399 425.085 351.478C424.204 351.554 423.323 351.414 422.548 351.085C421.114 350.261 420.219 348.632 419.399 346.834C417.104 341.76 415.501 336.479 414.62 331.095L414.617 331.082M427.505 350.632L414.617 331.082M414.617 331.082C412.76 320.348 413.487 309.298 414.846 298.371L414.846 298.368M414.617 331.082L414.846 298.368M414.846 298.368C415.524 292.817 416.409 287.271 417.311 281.7C417.368 281.349 417.425 280.997 417.482 280.646C418.327 275.432 419.176 270.193 419.863 264.948L419.863 264.94M414.846 298.368L419.863 264.94M419.863 264.94C421.371 252.963 422.031 240.918 421.839 228.872C421.715 216.735 420.955 214.125 419.935 211.483C419.899 211.391 419.863 211.299 419.827 211.206C419.406 210.124 418.983 209.036 418.565 206.948C418.104 204.643 417.648 201.109 417.268 195.105L417.268 195.104M419.863 264.94L417.268 195.104M417.268 195.104C416.492 183.07 416.045 171.037 416.37 159.017L417.268 195.104Z" fill="#7E5F2F" stroke="#6B4003" stroke-width="3"/>
<path d="M440.769 151.024L441 152.498C440.865 152.256 440.79 151.756 440.769 151.024L427 62.998L456 58.498C450.559 86.324 440.479 140.887 440.769 151.024Z" fill="#5A4522"/>
<path d="M77.3032 293.364L77.3036 293.356C77.7031 285.183 77.2895 277.026 76.8719 268.789C76.7138 265.671 76.5551 262.542 76.4397 259.396L77.3032 293.364ZM77.3032 293.364L77.3029 293.373M77.3032 293.364L77.3029 293.373M77.3029 293.373C77.1009 298.756 76.3137 304.121 74.9476 309.418C74.8627 309.728 74.7785 310.042 74.6936 310.359C74.1658 312.327 73.6101 314.399 72.6858 316.331C71.631 318.536 70.1533 320.42 67.827 321.566L67.7785 321.59M77.3029 293.373L67.7785 321.59M67.7785 321.59L67.7319 321.618M67.7785 321.59L67.7319 321.618M67.7319 321.618C66.9303 322.087 65.9226 322.396 64.8279 322.477C63.7562 322.556 62.6871 322.41 61.7523 322.069C60.0668 321.254 59.0559 319.668 58.1452 317.972C55.5565 313.114 53.7518 308.063 52.7607 302.92L52.7592 302.912M67.7319 321.618L52.7592 302.912M52.7592 302.912L52.7576 302.905M52.7592 302.912L52.7576 302.905M52.7576 302.905C50.668 292.646 51.4842 282.078 53.0186 271.596L53.0191 271.592M52.7576 302.905L53.0191 271.592M53.0191 271.592C53.7843 266.27 54.7839 260.952 55.8036 255.603C55.868 255.265 55.9325 254.927 55.997 254.589C56.9518 249.585 57.9122 244.552 58.6893 239.511L58.6906 239.503M53.0191 271.592L58.6906 239.503M58.6906 239.503C60.3974 227.991 61.144 216.412 60.9262 204.833C60.7866 193.168 59.9256 190.619 58.7533 188.042C58.7128 187.953 58.6723 187.864 58.6318 187.776C58.1572 186.739 57.6862 185.711 57.2188 183.729C56.7014 181.535 56.1876 178.158 55.7585 172.401L55.7584 172.399M58.6906 239.503L55.7584 172.399M55.7584 172.399C54.8821 160.852 54.377 149.311 54.7446 137.785C54.9274 132.162 55.3066 129.077 55.7997 125.995C55.9139 125.281 56.0352 124.562 56.1624 123.809C56.588 121.286 57.0788 118.377 57.5871 113.977L57.5878 113.97M55.7584 172.399L57.5878 113.97M57.5878 113.97C57.8908 111.238 58.1979 108.598 58.4969 106.027C60.654 87.4828 62.3899 72.5592 59.1187 52.5694L59.1178 52.5642M57.5878 113.97L59.1178 52.5642M59.1178 52.5642C58.368 48.0817 57.3789 43.5947 56.1183 39.1795C70.7928 38.8623 85.4682 38.3527 100.12 37.5983C99.0644 42.4756 98.0432 47.0566 97.0567 51.4819C93.6706 66.6718 90.6935 80.0269 88.1236 97.2311C87.1854 103.501 86.3022 109.041 85.4715 114.251M59.1178 52.5642L85.4715 114.251M85.4715 114.251C83.2396 128.251 81.3869 139.872 79.8666 156.871M85.4715 114.251L79.8666 156.871M79.8666 156.871C79.4363 161.682 79.0426 165.862 78.6837 169.672M79.8666 156.871L78.6837 169.672M78.6837 169.672C77.3093 184.264 76.4455 193.435 75.9921 211.88M78.6837 169.672L75.9921 211.88M75.9921 211.88C75.4586 233.58 75.545 235.852 76.2746 255.041M75.9921 211.88L76.2746 255.041M76.2746 255.041C76.3264 256.404 76.3815 257.851 76.4397 259.396L76.2746 255.041Z" fill="#7E5F2F" stroke="#6B4003" stroke-width="3"/>
<path d="M56 281.998L72.5 315.998L77 295.998L70.4459 272.998L56 281.998Z" fill="#6B4003"/>
<path d="M81.7695 145.524L82 146.998C81.8654 146.756 81.7905 146.256 81.7695 145.524L68 57.498L97 52.998C91.5592 80.824 81.4785 135.387 81.7695 145.524Z" fill="#5A4522"/>
<path d="M24.5045 56.2341C0.857687 82.4351 23.0094 103.209 36.2212 103.1C168.966 125.371 322.679 128.287 383.699 126.868C399.554 128.702 431.653 101.362 439.939 93.3922C457.069 74.6149 472.405 29.3814 434.248 23.0931C386.551 15.2329 119.528 14.0547 95.0075 14.0547C70.4874 14.0547 54.063 23.483 24.5045 56.2341Z" fill="#6B4003"/>
<path d="M38.9037 85.9753L38.5587 85.9174L38.2088 85.9203C35.2505 85.9447 31.4952 85.5385 27.9146 84.5481C24.2834 83.5436 21.1988 82.0399 19.2214 80.1228C17.4029 78.3597 16.4557 76.2221 16.8944 73.2339C17.3737 69.9698 19.5742 65.3006 25.2456 59.0166C54.8974 26.162 72.4582 12.6973 95.0075 12.6973C107.192 12.6973 179.948 14.2643 255.668 16.8165C331.542 19.3738 409.808 22.9059 433.329 26.7822C442.047 28.2187 446.488 31.6432 448.662 35.573C450.929 39.6696 451.24 45.2155 449.772 51.8074C446.838 64.982 437.301 80.0053 429.04 89.0925C425.083 92.8828 418.189 98.4793 410.431 102.893C402.474 107.419 394.314 110.293 387.693 109.527L387.418 109.496L387.14 109.502C326.259 110.918 171.307 108.189 38.9037 85.9753Z" fill="#755C33" stroke="#5A4522" stroke-width="8"/>
<path d="M38.649 91.5593L38.6048 91.5517L38.56 91.5521C32.0726 91.6071 23.8129 88.7943 20.0666 82.7908C16.3711 76.8686 16.9154 67.5508 28.6465 54.22C35.3766 46.5722 41.0202 39.6573 46.0082 33.5458C46.4839 32.9629 46.9536 32.3873 47.4178 31.8191C52.7528 25.2883 57.3412 19.7411 61.7682 15.2411C70.6017 6.26197 78.7452 1.49805 90.7864 1.49805C102.986 1.49805 176.97 5.09534 253.867 9.69871C330.773 14.3026 410.515 19.9084 434.249 23.9198C443.695 25.5164 448.98 28.7391 451.445 32.85C453.908 36.9579 453.646 42.1035 451.636 47.7637C447.613 59.0945 436.741 72.0559 428.194 81.665C426.589 83.2497 424.565 85.5207 422.246 88.1246C421.563 88.8911 420.854 89.6864 420.123 90.5016C416.893 94.1032 413.204 98.1123 409.283 101.806C405.361 105.502 401.223 108.867 397.097 111.19C392.968 113.516 388.899 114.77 385.097 114.319L385.048 114.313L384.999 114.317C334.077 118.331 170.909 114.317 38.649 91.5593Z" fill="#7E5F2F" stroke="#755C33"/>
<path d="M11.7164 240.066C-11.9304 266.267 10.2213 287.041 23.4331 286.932C156.178 309.203 309.891 312.119 370.911 310.7C386.766 312.534 418.865 285.194 427.151 277.224C444.281 258.447 459.617 213.213 421.46 206.925C373.763 199.065 106.74 197.887 82.2195 197.887C57.6993 197.887 41.2749 207.315 11.7164 240.066Z" fill="#6B4003"/>
<path d="M26.1156 269.807L25.7706 269.749L25.4208 269.752C22.4624 269.777 18.7071 269.371 15.1266 268.38C11.4953 267.376 8.41068 265.872 6.43329 263.955C4.61481 262.192 3.66765 260.054 4.10636 257.066C4.5856 253.802 6.78608 249.133 12.4575 242.849C42.1093 209.994 59.6701 196.529 82.2194 196.529C94.4034 196.529 167.16 198.096 242.88 200.648C318.754 203.206 397.02 206.738 420.541 210.614C429.259 212.051 433.7 215.475 435.874 219.405C438.141 223.502 438.452 229.048 436.984 235.639C434.05 248.814 424.513 263.837 416.252 272.925C412.295 276.715 405.4 282.311 397.643 286.725C389.686 291.251 381.526 294.125 374.905 293.36L374.63 293.328L374.352 293.334C313.471 294.75 158.519 292.021 26.1156 269.807Z" fill="#755C33" stroke="#5A4522" stroke-width="8"/>
<path d="M25.8609 275.391L25.8167 275.384L25.7719 275.384C19.2845 275.439 11.0248 272.626 7.27853 266.623C3.58301 260.701 4.12735 251.383 15.8585 238.052C22.5885 230.404 28.2321 223.489 33.2201 217.378C33.6958 216.795 34.1655 216.219 34.6297 215.651C39.9647 209.12 44.5531 203.573 48.9801 199.073C57.8136 190.094 65.9572 185.33 77.9983 185.33C90.1981 185.33 164.182 188.927 241.079 193.531C317.985 198.135 397.727 203.74 421.461 207.752C430.907 209.348 436.192 212.571 438.657 216.682C441.12 220.79 440.858 225.936 438.848 231.596C434.825 242.927 423.953 255.888 415.406 265.497C413.801 267.082 411.777 269.353 409.458 271.957C408.775 272.723 408.066 273.518 407.335 274.334C404.105 277.935 400.415 281.944 396.495 285.638C392.573 289.334 388.434 292.699 384.309 295.022C380.18 297.348 376.111 298.602 372.309 298.151L372.26 298.145L372.211 298.149C321.289 302.163 158.121 298.149 25.8609 275.391Z" fill="#7E5F2F" stroke="#755C33"/>
<path d="M77.9332 185.325L77.9655 185.329L77.9981 185.329C102.413 185.329 355.46 199.996 406.947 205.494C416.504 206.515 423.935 208.319 429.441 210.734C434.948 213.149 438.494 216.16 440.344 219.574C443.876 226.095 441.354 234.413 433.603 243.541C434.317 230.46 429.304 222.651 426.414 220.191C426.125 219.547 425.559 218.964 424.807 218.429C424 217.855 422.933 217.303 421.638 216.769C419.046 215.702 415.471 214.679 411.062 213.698C402.239 211.733 390 209.914 375.432 208.234C346.293 204.873 307.782 202.06 268.529 199.747C229.275 197.434 189.272 195.622 157.146 194.262C146.688 193.82 137.066 193.425 128.576 193.077C110.983 192.356 98.2548 191.834 93.0322 191.497C72.3352 190.162 57.5616 194.974 50.2285 198.887C62.6359 186.796 73.7894 184.783 77.9332 185.325Z" fill="#5A4522" stroke="#755C33"/>
</svg>
