<svg width="38" height="38" viewBox="0 0 38 38" fill="none" xmlns="http://www.w3.org/2000/svg">
<path fill-rule="evenodd" clip-rule="evenodd" d="M19 0C8.50659 0 0 8.50659 0 19C0 29.4934 8.50659 38 19 38C29.4934 38 38 29.4934 38 19C38 8.50659 29.4934 0 19 0ZM14.8226 8.92789C15.9035 8.8787 16.2489 8.86667 19.001 8.86667H18.9978C21.7507 8.86667 22.0948 8.8787 23.1757 8.92789C24.2545 8.97729 24.9913 9.14808 25.6373 9.39867C26.3044 9.65729 26.8681 10.0035 27.4318 10.5672C27.9954 11.1304 28.3417 11.6958 28.6013 12.3623C28.8504 13.0066 29.0214 13.743 29.0721 14.8217C29.1207 15.9026 29.1333 16.248 29.1333 19.0001C29.1333 21.7522 29.1207 22.0967 29.0721 23.1776C29.0214 24.256 28.8504 24.9926 28.6013 25.6371C28.3417 26.3034 27.9954 26.8687 27.4318 27.432C26.8687 27.9956 26.3042 28.3427 25.6379 28.6015C24.9932 28.8521 24.256 29.0229 23.1772 29.0723C22.0963 29.1215 21.752 29.1335 18.9997 29.1335C16.2478 29.1335 15.9027 29.1215 14.8218 29.0723C13.7432 29.0229 13.0066 28.8521 12.3619 28.6015C11.6958 28.3427 11.1304 27.9956 10.5674 27.432C10.0039 26.8687 9.65771 26.3034 9.39867 25.6369C9.14829 24.9926 8.9775 24.2562 8.92789 23.1774C8.87891 22.0965 8.86667 21.7522 8.86667 19.0001C8.86667 16.248 8.87933 15.9024 8.92768 14.8215C8.97623 13.7432 9.14724 13.0066 9.39846 12.3621C9.65813 11.6958 10.0044 11.1304 10.568 10.5672C11.1313 10.0037 11.6966 9.6575 12.3631 9.39867C13.0074 9.14808 13.7438 8.97729 14.8226 8.92789Z" fill="white"/>
<path fill-rule="evenodd" clip-rule="evenodd" d="M18.0916 10.693C18.2681 10.6927 18.458 10.6928 18.6629 10.6929L19.0007 10.693C21.7063 10.693 22.027 10.7027 23.0954 10.7512C24.0834 10.7964 24.6197 10.9615 24.9769 11.1002C25.4498 11.2839 25.7869 11.5034 26.1414 11.8581C26.496 12.2128 26.7156 12.5505 26.8997 13.0234C27.0384 13.3802 27.2037 13.9165 27.2487 14.9045C27.2972 15.9727 27.3078 16.2936 27.3078 18.9979C27.3078 21.7023 27.2972 22.0232 27.2487 23.0914C27.2035 24.0794 27.0384 24.6157 26.8997 24.9725C26.716 25.4454 26.496 25.7821 26.1414 26.1365C25.7867 26.4912 25.45 26.7108 24.9769 26.8944C24.6201 27.0338 24.0834 27.1984 23.0954 27.2436C22.0272 27.2922 21.7063 27.3027 19.0007 27.3027C16.2948 27.3027 15.9741 27.2922 14.9059 27.2436C13.9179 27.198 13.3817 27.0329 13.0243 26.8942C12.5514 26.7106 12.2136 26.491 11.8589 26.1363C11.5042 25.7817 11.2847 25.4447 11.1006 24.9716C10.9619 24.6148 10.7966 24.0786 10.7516 23.0906C10.7031 22.0224 10.6934 21.7015 10.6934 18.9954C10.6934 16.2894 10.7031 15.9702 10.7516 14.9019C10.7968 13.9139 10.9619 13.3777 11.1006 13.0205C11.2843 12.5476 11.5042 12.2098 11.8589 11.8551C12.2136 11.5005 12.5514 11.2809 13.0243 11.0968C13.3815 10.9575 13.9179 10.7928 14.9059 10.7474C15.8407 10.7052 16.203 10.6925 18.0916 10.6904V10.693ZM24.4098 12.3755C23.7385 12.3755 23.1938 12.9196 23.1938 13.5911C23.1938 14.2625 23.7385 14.8071 24.4098 14.8071C25.0812 14.8071 25.6258 14.2625 25.6258 13.5911C25.6258 12.9198 25.0812 12.3751 24.4098 12.3751V12.3755ZM13.7967 19.0003C13.7967 16.1265 16.1267 13.7964 19.0005 13.7963C21.8743 13.7963 24.2038 16.1264 24.2038 19.0003C24.2038 21.8742 21.8746 24.2032 19.0007 24.2032C16.1268 24.2032 13.7967 21.8742 13.7967 19.0003Z" fill="white"/>
<path d="M19.0009 15.6221C20.8663 15.6221 22.3787 17.1343 22.3787 18.9999C22.3787 20.8653 20.8663 22.3777 19.0009 22.3777C17.1353 22.3777 15.623 20.8653 15.623 18.9999C15.623 17.1343 17.1353 15.6221 19.0009 15.6221Z" fill="white"/>
</svg>
