<svg width="39" height="38" viewBox="0 0 39 38" fill="none" xmlns="http://www.w3.org/2000/svg">
<path fill-rule="evenodd" clip-rule="evenodd" d="M19.5 0C9.00659 0 0.5 8.50659 0.5 19C0.5 29.4934 9.00659 38 19.5 38C29.9934 38 38.5 29.4934 38.5 19C38.5 8.50659 29.9934 0 19.5 0ZM15.3226 8.92789C16.4035 8.8787 16.7489 8.86667 19.501 8.86667H19.4978C22.2507 8.86667 22.5948 8.8787 23.6757 8.92789C24.7545 8.97729 25.4913 9.14808 26.1373 9.39867C26.8044 9.65729 27.3681 10.0035 27.9318 10.5672C28.4954 11.1304 28.8417 11.6958 29.1013 12.3623C29.3504 13.0066 29.5214 13.743 29.5721 14.8217C29.6207 15.9026 29.6333 16.248 29.6333 19.0001C29.6333 21.7522 29.6207 22.0967 29.5721 23.1776C29.5214 24.256 29.3504 24.9926 29.1013 25.6371C28.8417 26.3034 28.4954 26.8687 27.9318 27.432C27.3687 27.9956 26.8042 28.3427 26.1379 28.6015C25.4932 28.8521 24.756 29.0229 23.6772 29.0723C22.5963 29.1215 22.252 29.1335 19.4997 29.1335C16.7478 29.1335 16.4027 29.1215 15.3218 29.0723C14.2432 29.0229 13.5066 28.8521 12.8619 28.6015C12.1958 28.3427 11.6304 27.9956 11.0674 27.432C10.5039 26.8687 10.1577 26.3034 9.89867 25.6369C9.64829 24.9926 9.4775 24.2562 9.42789 23.1774C9.37891 22.0965 9.36667 21.7522 9.36667 19.0001C9.36667 16.248 9.37933 15.9024 9.42768 14.8215C9.47623 13.7432 9.64724 13.0066 9.89846 12.3621C10.1581 11.6958 10.5044 11.1304 11.068 10.5672C11.6313 10.0037 12.1966 9.6575 12.8631 9.39867C13.5074 9.14808 14.2438 8.97729 15.3226 8.92789Z" fill="#7E5F2F"/>
<path fill-rule="evenodd" clip-rule="evenodd" d="M18.5916 10.692C18.7681 10.6917 18.958 10.6918 19.1629 10.6919L19.5007 10.692C22.2063 10.692 22.527 10.7017 23.5954 10.7503C24.5834 10.7954 25.1197 10.9605 25.4769 11.0992C25.9498 11.2829 26.2869 11.5025 26.6414 11.8571C26.996 12.2118 27.2156 12.5496 27.3997 13.0225C27.5384 13.3792 27.7037 13.9155 27.7487 14.9035C27.7972 15.9717 27.8078 16.2926 27.8078 18.997C27.8078 21.7013 27.7972 22.0222 27.7487 23.0905C27.7035 24.0785 27.5384 24.6147 27.3997 24.9715C27.216 25.4444 26.996 25.7811 26.6414 26.1356C26.2867 26.4902 25.95 26.7098 25.4769 26.8935C25.1201 27.0328 24.5834 27.1975 23.5954 27.2426C22.5272 27.2912 22.2063 27.3017 19.5007 27.3017C16.7948 27.3017 16.4741 27.2912 15.4059 27.2426C14.4179 27.197 13.8817 27.0319 13.5243 26.8932C13.0514 26.7096 12.7136 26.49 12.3589 26.1353C12.0042 25.7807 11.7847 25.4437 11.6006 24.9706C11.4619 24.6139 11.2966 24.0776 11.2516 23.0896C11.2031 22.0214 11.1934 21.7005 11.1934 18.9944C11.1934 16.2884 11.2031 15.9692 11.2516 14.901C11.2968 13.9129 11.4619 13.3767 11.6006 13.0195C11.7843 12.5466 12.0042 12.2088 12.3589 11.8542C12.7136 11.4995 13.0514 11.2799 13.5243 11.0958C13.8815 10.9565 14.4179 10.7918 15.4059 10.7465C16.3407 10.7042 16.703 10.6916 18.5916 10.6895V10.692ZM24.9098 12.3746C24.2385 12.3746 23.6938 12.9186 23.6938 13.5901C23.6938 14.2615 24.2385 14.8062 24.9098 14.8062C25.5812 14.8062 26.1258 14.2615 26.1258 13.5901C26.1258 12.9188 25.5812 12.3741 24.9098 12.3741V12.3746ZM14.2967 18.9993C14.2967 16.1255 16.6267 13.7955 19.5005 13.7954C22.3743 13.7954 24.7038 16.1254 24.7038 18.9993C24.7038 21.8732 22.3746 24.2022 19.5007 24.2022C16.6268 24.2022 14.2967 21.8732 14.2967 18.9993Z" fill="#7E5F2F"/>
<path d="M19.5009 15.623C21.3663 15.623 22.8787 17.1353 22.8787 19.0009C22.8787 20.8663 21.3663 22.3787 19.5009 22.3787C17.6353 22.3787 16.123 20.8663 16.123 19.0009C16.123 17.1353 17.6353 15.623 19.5009 15.623Z" fill="#7E5F2F"/>
</svg>
