<svg width="24" height="24" viewBox="0 0 24 24" fill="none" xmlns="http://www.w3.org/2000/svg">
<path d="M12.2104 23.7896C10.4692 23.7896 8.8715 23.5113 7.41745 22.9548C5.9634 22.3984 4.70682 21.6085 3.64769 20.5853C2.58857 19.5621 1.77179 18.3504 1.19735 16.9502C0.622913 15.532 0.335693 13.9613 0.335693 12.238C0.335693 10.389 0.622913 8.71953 1.19735 7.22957C1.78974 5.72167 2.63345 4.42918 3.72847 3.35211C4.84145 2.27504 6.16086 1.44928 7.68672 0.874842C9.21257 0.300403 10.909 0.0131836 12.7759 0.0131836C14.9659 0.0131836 16.8598 0.435037 18.4575 1.27874C20.0731 2.1045 21.3296 3.28031 22.2272 4.80616C23.1248 6.31406 23.5735 8.10021 23.5735 10.1646C23.5735 11.7084 23.3492 13.0458 22.9004 14.1767C22.4516 15.3076 21.8233 16.1872 21.0155 16.8155C20.2256 17.4259 19.2922 17.731 18.2151 17.731C17.1021 17.731 16.2046 17.4438 15.5224 16.8694C14.8582 16.277 14.4454 15.4333 14.2838 14.3383L15.4955 13.5574C15.0647 14.9576 14.4364 16.0077 13.6106 16.7078C12.7849 17.39 11.8514 17.731 10.8102 17.731C9.30233 17.731 8.1355 17.2643 7.30974 16.3308C6.50194 15.3794 6.09804 14.1049 6.09804 12.5072C6.09804 11.1968 6.34038 10.0389 6.82506 9.03367C7.32769 8.01045 8.00086 7.21162 8.84457 6.63718C9.70623 6.04479 10.6935 5.7486 11.8065 5.7486C12.74 5.7486 13.4939 5.98196 14.0684 6.4487C14.6608 6.89748 15.0826 7.59757 15.3339 8.54899H14.6877L14.8762 7.52577C15.0736 6.5205 15.7019 6.01787 16.7611 6.01787C17.3355 6.01787 17.7574 6.17943 18.0266 6.50255C18.2959 6.80772 18.3677 7.2565 18.242 7.84889L17.515 11.9418C17.4612 12.3008 17.4163 12.6239 17.3804 12.9111C17.3445 13.1804 17.3265 13.4227 17.3265 13.6382C17.3265 14.1408 17.4163 14.5088 17.5958 14.7422C17.7933 14.9576 18.0805 15.0653 18.4575 15.0653C18.9062 15.0653 19.3101 14.8678 19.6692 14.4729C20.0282 14.06 20.3064 13.4856 20.5039 12.7496C20.7014 11.9956 20.8001 11.134 20.8001 10.1646C20.8001 8.54899 20.4859 7.19367 19.8576 6.09865C19.2294 4.98567 18.3138 4.15094 17.1111 3.59445C15.9263 3.02001 14.4813 2.73279 12.7759 2.73279C10.8731 2.73279 9.22155 3.11874 7.82135 3.89065C6.42116 4.66255 5.33511 5.75757 4.56321 7.17572C3.80925 8.59387 3.43228 10.2813 3.43228 12.238C3.43228 14.069 3.7913 15.6487 4.50935 16.9771C5.24535 18.2875 6.26857 19.2928 7.57901 19.9929C8.88945 20.7109 10.4333 21.07 12.2104 21.07C13.2336 21.07 14.1851 20.9623 15.0647 20.7468C15.9622 20.5314 16.788 20.2173 17.5419 19.8044C17.9907 19.5531 18.3767 19.4992 18.6998 19.6428C19.0409 19.7865 19.2653 20.0198 19.373 20.3429C19.4986 20.684 19.4986 21.043 19.373 21.42C19.2473 21.797 18.9691 22.1022 18.5382 22.3355C17.7484 22.7843 16.8149 23.1344 15.7378 23.3857C14.6608 23.6549 13.485 23.7896 12.2104 23.7896ZM11.5642 14.8768C12.1207 14.8768 12.5964 14.7063 12.9913 14.3652C13.4042 14.0241 13.7273 13.5484 13.9607 12.9381C14.194 12.3098 14.3107 11.5738 14.3107 10.7301C14.3107 10.0479 14.1581 9.52733 13.853 9.16831C13.5657 8.79133 13.117 8.60284 12.5066 8.60284C11.9501 8.60284 11.4565 8.7644 11.0256 9.08753C10.6128 9.41065 10.2896 9.85943 10.0563 10.4339C9.82291 11.0083 9.70623 11.6815 9.70623 12.4534C9.70623 13.2612 9.86779 13.8715 10.1909 14.2844C10.514 14.6793 10.9718 14.8768 11.5642 14.8768Z" fill="#7E5F2F"/>
</svg>
