<svg width="22" height="22" viewBox="0 0 22 22" fill="none" xmlns="http://www.w3.org/2000/svg">
<path d="M19.4155 10.438H21.6594C21.6594 4.68238 17.3141 0.341553 11.5507 0.341553V2.58546C16.108 2.58546 19.4155 5.88736 19.4155 10.438Z" fill="#7E5F2F"/>
<path d="M11.5614 7.07324C13.9208 7.07324 14.9272 8.07963 14.9272 10.4391H17.1711C17.1711 6.8208 15.1797 4.82933 11.5614 4.82933V7.07324ZM15.4007 13.18C15.1851 12.9841 14.9018 12.8796 14.6106 12.8886C14.3194 12.8976 14.0431 13.0194 13.8401 13.2283L11.1552 15.9894C10.509 15.866 9.20977 15.4609 7.87241 14.1269C6.53504 12.7885 6.13002 11.4859 6.00997 10.8441L8.76884 8.15816C8.97799 7.95523 9.09997 7.67889 9.10898 7.38761C9.11798 7.09634 9.0133 6.81299 8.81709 6.59753L4.67148 2.03904C4.47519 1.8229 4.20237 1.6918 3.91097 1.67358C3.61957 1.65535 3.33254 1.75144 3.11084 1.94143L0.676211 4.02938C0.482238 4.22406 0.366462 4.48316 0.350845 4.75753C0.334015 5.03802 0.0131375 11.6822 5.16514 16.8365C9.65967 21.3299 15.2896 21.6586 16.8402 21.6586C17.0668 21.6586 17.2059 21.6519 17.2429 21.6496C17.5173 21.6343 17.7762 21.518 17.97 21.3231L20.0568 18.8874C20.2469 18.6658 20.3432 18.3789 20.3252 18.0875C20.3072 17.7961 20.1763 17.5232 19.9603 17.3267L15.4007 13.18Z" fill="#7E5F2F"/>
</svg>
