<svg width="38" height="38" viewBox="0 0 38 38" fill="none" xmlns="http://www.w3.org/2000/svg">
<path d="M19 38C29.4934 38 38 29.4934 38 19C38 8.50659 29.4934 0 19 0C8.50659 0 0 8.50659 0 19C0 29.4934 8.50659 38 19 38Z" fill="#7E5F2F"/>
<path fill-rule="evenodd" clip-rule="evenodd" d="M8.59914 18.8009C14.138 16.3877 17.8315 14.7968 19.6795 14.0281C24.956 11.8334 26.0524 11.4522 26.7671 11.4396C26.9242 11.4368 27.2757 11.4758 27.5033 11.6605C27.6955 11.8165 27.7484 12.0272 27.7737 12.175C27.799 12.3229 27.8305 12.6598 27.8055 12.923C27.5196 15.9273 26.2823 23.2181 25.6529 26.583C25.3865 28.0068 24.8621 28.4842 24.3544 28.531C23.251 28.6325 22.4132 27.8018 21.3445 27.1013C19.6723 26.0051 18.7276 25.3227 17.1044 24.253C15.2285 23.0169 16.4445 22.3374 17.5136 21.227C17.7934 20.9365 22.6548 16.5146 22.7489 16.1135C22.7607 16.0633 22.7716 15.8763 22.6605 15.7775C22.5494 15.6788 22.3855 15.7126 22.2671 15.7394C22.0994 15.7775 19.428 17.5432 14.2528 21.0366C13.4946 21.5573 12.8077 21.811 12.1924 21.7977C11.514 21.783 10.209 21.4141 9.23888 21.0988C8.049 20.712 7.10331 20.5075 7.18566 19.8506C7.22855 19.5085 7.69972 19.1586 8.59914 18.8009Z" fill="#FFFEF7"/>
</svg>
