<svg width="99" height="96" viewBox="0 0 99 96" fill="none" xmlns="http://www.w3.org/2000/svg">
<path d="M78.0209 24.3849C77.887 24.1355 77.6631 23.9471 77.3949 23.8581C77.3275 23.8345 77.2574 23.8188 77.1863 23.8116C76.6707 23.2199 75.9979 22.7872 75.2465 22.5641L72.5649 21.4329C71.282 20.8906 70.6174 22.9826 71.8848 23.494L73.8399 24.3151L74.8137 24.7335L75.1923 24.9117L75.0688 25.0048C74.823 25.1336 74.5638 25.2349 74.2959 25.3069C73.6702 25.4658 73.0312 25.5671 72.387 25.6091C70.4241 25.7796 68.4844 26.0353 66.5523 26.3839C66.4659 26.2956 66.3623 26.2259 66.248 26.1792C66.1337 26.1326 66.0111 26.11 65.8877 26.1127L64.7903 26.1747C64.7982 25.6297 64.8447 25.0859 64.9294 24.5476C64.9886 24.2392 65.0634 23.9341 65.1535 23.6334C65.198 23.4963 65.2147 23.3516 65.2028 23.208C65.1908 23.0643 65.1504 22.9244 65.084 22.7965C65.0601 22.7499 65.0317 22.7058 64.999 22.6649L68.863 23.9975C68.998 24.0423 69.1405 24.0599 69.2823 24.0495C69.4241 24.0391 69.5624 24.0008 69.6894 23.9368C69.8165 23.8728 69.9296 23.7842 70.0225 23.6763C70.1154 23.5684 70.1863 23.4434 70.2309 23.308C70.2756 23.1727 70.2932 23.0299 70.2828 22.8877C70.2724 22.7456 70.2341 22.6069 70.1703 22.4795C70.1064 22.3522 70.0182 22.2386 69.9106 22.1455C69.8029 22.0523 69.6781 21.9814 69.5431 21.9366L57.9509 17.9619C54.2491 16.699 50.5241 14.9945 46.5441 15.1417C42.5641 15.2889 38.445 15.6607 34.4109 15.9629C30.3768 16.265 26.2654 16.606 22.2004 16.9624C17.6047 17.3653 13.0116 17.8019 8.4211 18.2719C8.14109 18.335 7.89721 18.5061 7.74239 18.7484C7.58756 18.9907 7.53429 19.2844 7.59418 19.5657C7.6255 19.7046 7.68325 19.8362 7.76423 19.9531L6.9141 20.0615C7.0574 19.913 7.15543 19.7266 7.1966 19.5241C7.23776 19.3217 7.22034 19.1115 7.14646 18.9186C7.07257 18.7257 6.94528 18.558 6.77953 18.4352C6.61378 18.3123 6.41649 18.2396 6.21086 18.2254C4.69247 18.0946 3.1638 18.2928 1.72854 18.8065C1.4253 18.9326 1.15226 19.1219 0.92747 19.3618C0.70268 19.6017 0.531271 19.8868 0.424602 20.1981C0.317933 20.5094 0.278431 20.8398 0.308708 21.1675C0.338985 21.4953 0.438332 21.8129 0.600212 22.0993C1.26483 23.4242 2.64819 24.2067 3.85378 24.9582C5.18303 25.7873 6.55863 26.5543 7.9497 27.2826C7.88659 28.853 7.91237 30.4259 8.02696 31.9934C7.93215 31.9413 7.83081 31.902 7.7256 31.877C7.73898 30.3691 7.42795 28.8761 6.81368 27.4996C6.67242 27.2615 6.44568 27.0866 6.17997 27.0108C5.91425 26.935 5.62965 26.9641 5.38456 27.0919C5.13946 27.2197 4.95242 27.4367 4.86178 27.6984C4.77114 27.96 4.78376 28.2465 4.89706 28.4991C5.42352 29.7735 5.65601 31.1507 5.57715 32.5279C5.57715 34.186 5.59518 35.8388 5.63125 37.4865C5.63125 40.6399 5.59262 43.8087 5.78582 46.9544C5.94811 49.6351 6.45818 52.3316 8.15837 54.4855C9.85857 56.6394 12.5634 57.7394 14.9669 59.0023C17.631 60.3993 20.057 62.2118 22.1541 64.3718C22.3905 64.8104 22.6958 65.2079 23.0582 65.5493C25.5158 67.8736 29.2408 66.4946 32.1079 65.8283C39.0246 64.209 45.9104 62.4501 52.6957 60.335C56.0652 59.289 59.4192 58.1734 62.7423 56.9027C64.1688 56.4431 65.4414 55.5988 66.4209 54.4622C67.2986 53.2004 67.8653 51.748 68.0747 50.2241C68.8524 46.3281 69.8483 42.479 71.0578 38.6952C71.5475 36.8915 72.1594 35.1234 72.8894 33.4033C73.5231 32.0785 74.6591 30.6838 76.2666 30.6993C76.4167 30.7032 76.566 30.6752 76.7046 30.6172C76.8432 30.5593 76.968 30.4725 77.0709 30.3628C77.1738 30.2531 77.2524 30.1228 77.3016 29.9805C77.3507 29.8383 77.3694 29.6872 77.3563 29.5372C77.4829 29.4507 77.5875 29.3355 77.6614 29.2008C77.7352 29.0662 77.7763 28.9159 77.7814 28.7624C77.7813 27.6065 77.8821 26.4529 78.0828 25.3146V25.2526C78.1711 24.9657 78.1489 24.6562 78.0209 24.3849V24.3849ZM63.8475 22.2542C63.6764 22.2965 63.519 22.382 63.3904 22.5028C63.2619 22.6235 63.1665 22.7753 63.1133 22.9437C62.7986 23.9995 62.6398 25.096 62.6419 26.198C62.6419 26.2367 62.6419 26.2754 62.6419 26.3141L61.2276 26.4303C61.2569 26.287 61.2775 26.1423 61.2894 25.9965C61.2894 25.5859 61.2895 25.1674 61.3436 24.749L61.4594 22.0605C61.4606 21.8089 61.3791 21.5639 61.2276 21.3633L63.8475 22.2542ZM53.4376 19.6664C53.6825 19.736 53.9436 19.7211 54.179 19.6242C54.4144 19.5273 54.6105 19.3539 54.7359 19.1318L56.0343 19.5813L60.107 20.9759C59.8926 21.0372 59.7027 21.1644 59.5641 21.3395C59.4254 21.5146 59.345 21.7289 59.3342 21.9522C59.3342 22.7269 59.2646 23.5636 59.2337 24.3616C59.2337 24.7645 59.2337 25.1365 59.1796 25.5703V26.012C59.0417 26.2006 58.9564 26.4224 58.9324 26.655L57.804 26.7868C57.9531 25.929 58.0409 25.0615 58.0668 24.1912L58.2291 21.526C58.2418 21.24 58.142 20.9604 57.9513 20.7474C57.7605 20.5344 57.4939 20.4051 57.209 20.3871C56.9235 20.3784 56.6457 20.4808 56.4339 20.6729C56.2221 20.865 56.0928 21.1318 56.0729 21.4174C56.0188 22.2697 55.9647 23.122 55.9184 23.982C55.9184 24.3849 55.8643 24.7956 55.8411 25.2062C55.8411 25.4077 55.8411 25.6091 55.787 25.8106C55.7329 26.012 55.787 26.043 55.787 26.1592C55.787 26.2754 55.787 26.1591 55.787 26.221V26.3141C55.7377 26.5562 55.751 26.8069 55.8256 27.0424C54.8519 27.1741 53.8704 27.3213 52.8889 27.4763L52.9353 26.8099C53.0281 26.9255 53.1459 27.0184 53.2798 27.0815C53.4137 27.1446 53.5602 27.1764 53.7081 27.1742C53.9946 27.1869 54.2746 27.0857 54.4873 26.8927C54.6999 26.6998 54.8282 26.4308 54.8441 26.1437C54.8441 25.2682 54.8828 24.385 54.9291 23.5017C54.9291 23.0756 54.991 22.6571 55.0373 22.231L55.1301 21.6266C55.1301 21.6266 55.1301 21.5725 55.1301 21.557V21.5105C55.1301 21.3788 55.1842 21.2393 55.2151 21.1076C55.301 20.8352 55.2771 20.54 55.1486 20.2851C55.02 20.0302 54.797 19.836 54.5273 19.7439C54.295 19.6759 54.0471 19.6835 53.8194 19.7657C53.5916 19.8478 53.3957 20.0003 53.2599 20.2011C53.2599 19.9997 53.2599 19.7982 53.2599 19.5968C53.2367 19.62 53.3371 19.6354 53.4376 19.6664ZM50.5937 27.4685C50.5856 27.5892 50.6014 27.7103 50.64 27.8249L50.0063 27.9412C50.3693 25.0164 50.4315 22.0617 50.1918 19.1241L50.9646 19.2249C50.9603 19.2816 50.9603 19.3386 50.9646 19.3953C50.9234 22.0916 50.7997 24.7826 50.5937 27.4685V27.4685ZM39.0014 27.3136H39.1096C39.2587 27.3824 39.4208 27.418 39.5849 27.418C39.749 27.418 39.9111 27.3824 40.0602 27.3136C41.1817 26.8849 42.3766 26.6821 43.5765 26.717C45.037 26.6292 46.4875 26.4166 47.912 26.0816H48.0125C47.9584 26.7635 47.8888 27.4454 47.8038 28.1194C47.7844 28.2218 47.7844 28.3269 47.8038 28.4293C44.6353 29.0568 41.4744 29.7852 38.2904 30.3895C38.4956 30.3241 38.6756 30.1966 38.8056 30.0246C38.9357 29.8526 39.0095 29.6445 39.0169 29.4288C39.0401 28.747 39.1096 27.9799 39.0246 27.3136H39.0014ZM42.8655 18.9847C44.574 18.8788 46.2871 18.8658 47.997 18.9459C48.1322 20.6261 48.1709 22.3128 48.1129 23.9975C47.9027 23.8919 47.6626 23.8618 47.4329 23.9122C47.1469 23.9819 46.861 24.0439 46.5673 24.0981C46.5899 24.0617 46.6081 24.0228 46.6214 23.982C46.9782 22.9676 47.1459 21.896 47.116 20.8208C47.1179 20.5376 47.0193 20.263 46.8378 20.046C46.7423 19.9377 46.6262 19.8497 46.4962 19.7871C46.3663 19.7244 46.2252 19.6883 46.0812 19.6811C45.9372 19.6739 45.7933 19.6957 45.6578 19.7451C45.5223 19.7944 45.3979 19.8705 45.2922 19.9686C45.1838 20.067 45.0964 20.1864 45.0353 20.3195C44.9742 20.4527 44.9406 20.5969 44.9366 20.7434C44.9506 21.2803 44.9145 21.8171 44.8285 22.3471C44.7547 22.6827 44.6618 23.0139 44.5502 23.3389C44.4944 23.5239 44.4871 23.7203 44.5291 23.909C44.571 24.0976 44.6608 24.2722 44.7898 24.4159L43.7929 24.5166C43.7929 23.2382 43.7929 21.9675 43.7929 20.6891C43.8104 20.5415 43.7974 20.3919 43.7548 20.2495C43.7122 20.1072 43.6408 19.975 43.5452 19.8614C43.4495 19.7478 43.3316 19.6552 43.1987 19.5892C43.0658 19.5232 42.9208 19.4852 42.7727 19.4778C42.6246 19.4703 42.4766 19.4936 42.3378 19.5459C42.199 19.5982 42.0724 19.6785 41.9658 19.782C41.8593 19.8854 41.7752 20.0096 41.7185 20.147C41.6619 20.2844 41.6341 20.4321 41.6368 20.5808C41.6368 21.9444 41.6368 23.3079 41.6368 24.6792C41.0304 24.7403 40.432 24.8652 39.8515 25.0513C39.8515 23.6877 39.9211 22.324 40.0448 20.9604C40.0574 20.6732 39.9566 20.3924 39.7641 20.1792C39.5717 19.966 39.3032 19.8375 39.0169 19.8215C38.7327 19.8148 38.4569 19.918 38.2468 20.11C38.0367 20.3019 37.9084 20.5675 37.8886 20.8518C37.7379 22.5105 37.676 24.1761 37.7031 25.8414C37.4202 25.8177 37.1359 25.8177 36.853 25.8414C36.7294 25.1751 36.6289 24.5089 36.5516 23.8348C36.5516 23.6489 36.5052 23.463 36.4975 23.277C36.4975 23.5404 36.4975 23.1994 36.4975 23.1452V22.8198C36.4975 22.4169 36.4821 22.014 36.4511 21.6111C36.4582 21.4687 36.4373 21.3263 36.3895 21.1919C36.3417 21.0576 36.268 20.9339 36.1725 20.8282C36.0771 20.7224 35.9618 20.6366 35.8332 20.5755C35.7047 20.5144 35.5654 20.4793 35.4233 20.4722C35.2812 20.4651 35.1391 20.4861 35.0051 20.534C34.8711 20.582 34.7479 20.6559 34.6424 20.7516C34.5369 20.8473 34.4513 20.9628 34.3903 21.0917C34.3294 21.2206 34.2944 21.3603 34.2873 21.5027C34.3179 22.9831 34.4573 24.4592 34.7046 25.919H33.9318C33.9434 25.8419 33.9434 25.7635 33.9318 25.6865L33.4681 21.309C33.4036 21.0338 33.2344 20.7946 32.9966 20.6426C32.8176 20.5217 32.6063 20.4577 32.3904 20.4589C32.1745 20.4602 31.964 20.5265 31.7863 20.6494C31.6086 20.7724 31.4719 20.9463 31.3942 21.1482C31.3165 21.3502 31.3013 21.5708 31.3506 21.7815C31.5051 23.1916 31.6519 24.5942 31.8065 25.9965H30.9487L29.6581 26.0506C29.6619 26.0197 29.6619 25.9886 29.6581 25.9577C29.6581 25.8415 29.6581 25.7176 29.6581 25.6014C29.601 24.5871 29.6685 23.5696 29.859 22.5718V22.6959C29.9367 22.4228 29.912 22.1306 29.7895 21.8746C29.6566 21.6257 29.4363 21.4353 29.1712 21.34C29.0332 21.2953 28.8877 21.2783 28.7431 21.2903C28.5985 21.3023 28.4577 21.3428 28.3288 21.4096C28.2041 21.4722 28.0933 21.5594 28.003 21.666C27.9127 21.7725 27.8448 21.8961 27.8033 22.0295C27.5181 23.3785 27.4399 24.7633 27.5715 26.1359C27.1387 26.1359 26.7059 26.1592 26.2732 26.2057L26.4123 23.3156C26.4123 22.8042 26.4509 22.2929 26.4818 21.766C26.4818 21.5723 26.4818 21.3786 26.5359 21.1849C26.558 21.1328 26.5735 21.0782 26.5823 21.0223C28.9471 20.7201 31.2965 20.2941 33.6458 19.9842C36.6907 19.5813 39.782 19.1629 42.8964 18.9847H42.8655ZM27.9733 18.6283L25.4694 18.9691C23.9309 19.1548 22.3821 19.2429 20.8325 19.2326C23.2437 19.026 25.6343 18.8246 28.0043 18.6283H27.9733ZM24.1866 22.9437L24.0243 26.3839H23.9393C24.0668 24.6818 24.0668 22.9724 23.9393 21.2702C24.0552 21.2702 24.1634 21.2702 24.2716 21.2702C24.2484 21.8203 24.2406 22.3859 24.2175 22.9437H24.1866ZM21.7444 26.8176L21.304 26.9185C21.3078 26.8824 21.3078 26.8459 21.304 26.8099C21.2421 26.3218 21.103 25.8493 21.0103 25.3611C21.0103 25.2139 20.9562 25.0589 20.9407 24.9117C20.9407 24.9117 20.9407 24.7567 20.9407 24.7103C20.9407 24.4778 20.9407 24.2455 20.9407 24.013C20.9552 23.1491 21.0275 22.2871 21.1571 21.4329H21.8758C21.8758 21.5104 21.8758 21.5879 21.8758 21.6576C21.8758 21.9133 21.8758 22.1612 21.9145 22.4324C21.9145 22.9515 21.9145 23.4706 21.9145 23.982C21.9222 24.8807 21.8604 25.8338 21.7754 26.7868L21.7444 26.8176ZM5.19847 23.215C4.56727 22.8473 3.9559 22.4464 3.3669 22.014C3.09642 21.7971 2.42408 21.2392 2.50909 20.8441C2.50909 20.937 2.64818 20.7977 2.77956 20.7434C3.10199 20.6426 3.43322 20.5726 3.76878 20.5342C4.17508 20.4636 4.58552 20.4196 4.99753 20.4026C4.1088 20.8984 4.61888 22.5641 5.83992 22.3936C7.43192 22.169 9.03166 21.9753 10.6237 21.8281C10.6237 21.8823 10.6237 21.9443 10.6237 22.0062C10.5259 22.7303 10.5052 23.4628 10.5618 24.1912C10.5522 24.335 10.5788 24.4788 10.6391 24.6096C10.6717 24.7471 10.7412 24.873 10.84 24.9737C11.0423 25.1877 11.3191 25.3153 11.6128 25.3301C11.8965 25.3393 12.1729 25.2397 12.3857 25.0513C12.4951 24.9538 12.5832 24.8345 12.6444 24.7012C12.7056 24.5678 12.7386 24.4233 12.7412 24.2765C12.6819 23.5483 12.7 22.8159 12.7953 22.0916C12.8113 21.935 12.7846 21.7769 12.718 21.6344H12.9653C12.7991 23.1315 12.9065 24.6464 13.2821 26.1049C13.3449 26.3853 13.516 26.6292 13.758 26.7832C13.9999 26.9372 14.293 26.9886 14.5727 26.9262C14.8503 26.8597 15.0911 26.6873 15.244 26.4458C15.3969 26.2042 15.45 25.9125 15.3919 25.6324C15.2605 24.9506 15.1292 24.2687 15.0596 23.5791C15.0555 23.4991 15.0555 23.4189 15.0596 23.3389C15.0596 23.1529 15.0596 22.967 15.0596 22.7888C15.0659 22.4432 15.0995 22.0987 15.1601 21.7585C15.1753 21.6869 15.1753 21.613 15.1601 21.5415H15.3147C15.5465 21.5415 15.7861 21.5415 16.0256 21.5415C15.9158 23.4268 15.9882 25.3182 16.242 27.1895C16.3146 27.4593 16.4883 27.6907 16.7269 27.8353C16.9655 27.9799 17.2505 28.0266 17.5225 27.9656C17.7946 27.9047 18.0326 27.7409 18.1871 27.5083C18.3416 27.2756 18.4006 26.9922 18.3518 26.717C18.3518 26.4846 18.2745 26.2522 18.2513 26.012C18.2513 26.012 18.2513 25.7718 18.2513 25.7563C18.2513 25.7408 18.2513 25.578 18.2513 25.485C18.2513 25.0357 18.2513 24.5785 18.2513 24.1214C18.2513 23.2459 18.2513 22.3705 18.2513 21.5027H19.1246C19.0024 22.3548 18.9378 23.2142 18.9314 24.0751C18.9343 24.6463 18.9834 25.2163 19.0783 25.7796C19.171 26.2987 19.3255 26.81 19.3951 27.3291C19.4128 27.4806 19.4746 27.6234 19.5728 27.7398C19.4582 27.8606 19.3755 28.0081 19.3323 28.1692C19.2891 28.3302 19.2868 28.4996 19.3256 28.6617C19.3902 28.941 19.5617 29.1836 19.8031 29.3372C20.0446 29.4909 20.3366 29.5433 20.6162 29.4831C23.2824 28.5533 26.1341 28.4836 28.9317 28.3286C30.3846 28.2512 31.8374 28.1892 33.2903 28.1349L35.4001 28.0574H36.5902H37.0462C37.0462 28.1814 37.0462 28.2975 37.0462 28.3517C37.0462 28.6926 37.0462 29.0258 37.0462 29.359C37.0395 29.6447 37.1423 29.922 37.3335 30.134C37.5248 30.3459 37.7898 30.4761 38.074 30.4979H38.1513C35.709 30.9801 33.2428 31.332 30.7632 31.5517C27.8729 31.7841 24.3334 32.1405 21.7599 30.5289C21.5432 30.3858 21.2808 30.3295 21.0246 30.3712C20.7684 30.4128 20.5371 30.5492 20.3766 30.7536C18.1509 29.7464 15.9174 28.7392 13.6994 27.7088C10.7752 26.3898 7.93604 24.8889 5.19847 23.215ZM11.381 35.9834L12.0688 36.2082C12.0652 36.2468 12.0652 36.2857 12.0688 36.3243C11.6747 39.1058 12.3779 41.9726 11.8756 44.7231C11.636 44.5604 11.3964 44.3977 11.1646 44.2273C11.2685 44.0774 11.3226 43.8983 11.3192 43.7158C11.1846 41.1343 11.2052 38.547 11.381 35.9679V35.9834ZM7.81833 37.7267C7.81833 36.5955 7.81833 35.4644 7.81833 34.3332C8.31293 34.6199 8.81527 34.8833 9.32533 35.108C9.091 37.5385 9.02644 39.9824 9.13213 42.422C8.96211 42.236 8.79208 42.0578 8.63751 41.8641C8.54675 41.7458 8.42954 41.6505 8.2953 41.5859C8.16107 41.5213 8.01357 41.4892 7.8647 41.4923C7.82606 40.2604 7.83379 38.9741 7.81833 37.7112V37.7267ZM7.96517 47.0629C7.91107 46.1409 7.88015 45.2111 7.8647 44.2736C8.15837 44.568 8.4675 44.847 8.78435 45.1182C8.74533 45.2216 8.71433 45.3277 8.69162 45.4358C8.51096 47.0388 8.5866 48.6604 8.91572 50.2395C9.01618 50.8825 9.12436 51.518 9.24028 52.1533C8.44459 50.5666 8.00916 48.8229 7.96517 47.0474V47.0629ZM10.1754 33.1633C10.2387 32.9606 10.2598 32.7469 10.2372 32.5357V32.2722C10.2372 32.2722 10.2372 32.0554 10.2372 32.0244L10.1909 31.3813C10.1909 30.9319 10.1754 30.4825 10.1445 30.0331C10.1445 29.4675 10.1445 28.9097 10.1445 28.3441L10.9173 28.7083C10.8086 28.9258 10.7753 29.1735 10.8229 29.4121C10.8705 29.6507 10.9962 29.8665 11.1801 30.0254C11.172 30.0793 11.172 30.1341 11.1801 30.188V30.2346C11.1801 30.6995 11.2264 31.1644 11.2496 31.6292C11.2496 32.3033 11.2496 32.9773 11.2883 33.6436C10.8864 33.4886 10.5309 33.2873 10.1754 33.1478V33.1633ZM11.0564 49.9296C10.8489 48.8288 10.7479 47.7105 10.755 46.5902C11.1182 46.8382 11.5278 47.0707 11.8756 47.3032C11.8035 48.8527 11.7803 50.4023 11.806 51.9519C11.806 52.5485 11.806 53.1527 11.8524 53.757C11.503 52.495 11.2371 51.2113 11.0564 49.9141V49.9296ZM13.3749 31.3347C13.3726 30.8377 13.3442 30.3412 13.2898 29.8472L14.31 30.3119C14.1881 30.4313 14.1008 30.5816 14.0573 30.7466C14.0137 30.9117 14.0156 31.0855 14.0626 31.2496C14.2892 31.9928 14.4471 32.7552 14.5341 33.5274C14.5417 33.6228 14.5417 33.7186 14.5341 33.814C14.5341 33.814 14.5341 33.8683 14.5341 33.8993C14.5341 34.0853 14.5341 34.2789 14.5341 34.4649C14.5341 34.6508 14.5341 34.674 14.5341 34.7747C14.1554 34.6275 13.7613 34.4958 13.3903 34.3796C13.4289 33.3414 13.4135 32.3264 13.3671 31.3115L13.3749 31.3347ZM14.1477 36.9287L14.5882 37.1068C14.5805 37.1452 14.5805 37.1848 14.5882 37.2232C14.65 38.9355 14.7659 40.6554 14.7427 42.3677C14.7377 43.1488 14.6549 43.9275 14.4955 44.692C14.3824 45.1905 14.2972 45.6949 14.2404 46.2028L13.7999 45.9473C14.5264 42.9411 13.8386 39.9116 14.1477 36.9054V36.9287ZM14.31 56.2983C14.3478 56.0678 14.3098 55.8314 14.2018 55.6244C14.0245 55.0829 13.9587 54.5107 14.0086 53.943C14.0086 53.2147 13.9622 52.4943 13.9622 51.7737C13.9622 50.7045 13.9622 49.643 13.9622 48.5815L14.5882 48.9379C14.4894 49.1643 14.4521 49.4128 14.48 49.6584C14.6036 50.868 14.5802 52.0883 14.4104 53.2923C14.3024 54.3063 14.2868 55.328 14.3641 56.3449L14.31 56.2983ZM16.2729 31.2263L16.7443 31.4433L18.0504 32.032C17.6912 33.4637 17.6912 34.9624 18.0504 36.3941C17.6176 36.1617 17.1849 35.9446 16.7521 35.7277C16.8371 34.1983 16.6753 32.6653 16.2729 31.1876V31.2263ZM16.3347 47.0474C16.331 46.2966 16.4404 45.5495 16.6593 44.8315C16.8164 43.9961 16.8965 43.148 16.8989 42.2979C16.8989 40.9188 16.8293 39.5398 16.7675 38.1606L17.7335 38.6874C17.7162 38.751 17.7033 38.8158 17.6949 38.8811L17.3317 44.3047C17.2699 45.1802 17.208 46.0558 17.1539 46.9313C17.1539 47.2102 17.0998 47.4968 17.0766 47.799L16.3038 47.3883C16.3302 47.2636 16.3406 47.136 16.3347 47.0087V47.0474ZM17.4553 50.6889C17.1771 53.0133 16.9607 55.2602 16.7907 57.5536L16.582 57.445C16.5979 57.3553 16.5979 57.2636 16.582 57.174C16.4468 55.8681 16.4468 54.5516 16.582 53.2457C16.7146 52.1974 16.7431 51.1385 16.6671 50.0845L17.1694 50.3635L17.4476 50.5107C17.4479 50.5573 17.4505 50.6038 17.4553 50.6501V50.6889ZM20.1679 45.5985C20.0674 46.4198 19.8897 47.2257 19.797 48.0469C19.7488 48.4583 19.7282 48.8723 19.7351 49.2865L19.3951 49.1161C19.4022 48.9221 19.3511 48.7305 19.2483 48.566C19.205 48.3095 19.205 48.0476 19.2483 47.7912C19.2483 47.3883 19.3023 47.0164 19.3333 46.5825C19.3874 45.738 19.4492 44.8934 19.5033 44.0489L19.7892 39.8341L20.2143 40.0666C20.1258 40.2191 20.068 40.3875 20.0443 40.5624C19.967 41.4306 19.9982 42.3052 20.137 43.1657C20.247 43.9593 20.2574 44.7637 20.1679 45.5599V45.5985ZM20.7707 60.2188C20.7399 59.6511 20.7399 59.0821 20.7707 58.5143C20.8304 57.8294 20.9572 57.152 21.1494 56.492C21.4229 55.0353 21.5728 53.5579 21.5976 52.0758C21.6015 52.0371 21.6015 51.9983 21.5976 51.9596H21.6517C21.6053 53.8398 21.5487 55.7224 21.4817 57.6077C21.4817 58.5762 21.3735 59.6376 21.3967 60.7068L20.7707 60.2188ZM29.1558 64.2787C28.7539 64.3717 28.3829 64.4569 27.9502 64.5189C28.061 64.3662 28.1181 64.1807 28.1125 63.9919C27.9824 61.0864 28.0728 58.1751 28.3829 55.2833L29.1558 55.1051C29.0553 55.8102 28.9471 56.5152 28.8853 57.2281C28.8709 58.013 28.9698 58.7959 29.179 59.5524C29.4804 61.133 29.1558 62.7291 29.1558 64.2787ZM30.1759 49.8367C29.8622 50.7207 29.7256 51.6579 29.774 52.5948C29.774 52.6413 29.774 52.6879 29.774 52.7267L28.5761 53.0055C28.6534 52.2695 28.7307 51.5258 28.8157 50.7897C29.0785 48.3569 29.3361 45.9213 29.5885 43.4833C29.7986 43.5703 30.028 43.5998 30.2531 43.5686H30.4618C30.3136 44.888 30.262 46.2163 30.3072 47.5432C30.3377 48.3216 30.2833 49.101 30.145 49.8676L30.1759 49.8367ZM31.3351 63.7441C31.4742 62.309 31.4742 60.8637 31.3351 59.4285C31.1544 58.7452 31.0532 58.0433 31.0337 57.3366C31.1032 56.5076 31.2424 55.6786 31.3428 54.8573C31.3578 54.7702 31.3578 54.681 31.3428 54.5939L31.9611 54.4622C31.8039 55.716 31.7625 56.9816 31.8374 58.2431C32.0152 59.8134 32.0152 61.399 31.8374 62.9693C31.8046 63.1872 31.8572 63.4094 31.9842 63.5892L31.3351 63.7441ZM31.8992 52.2695C31.9031 52.2205 31.9031 52.1713 31.8992 52.1223C31.8852 51.7776 31.9459 51.434 32.077 51.1151C32.1794 50.7767 32.2619 50.4326 32.3243 50.0845C32.4712 49.2691 32.5411 48.4416 32.533 47.613C32.4342 46.1357 32.5225 44.6518 32.7957 43.1968L33.1976 43.1425C32.7655 44.2201 32.5578 45.3751 32.5871 46.5361C32.6489 48.2794 32.7416 50.0149 32.8189 51.7582C32.825 51.8658 32.8431 51.9723 32.873 52.0758L31.8992 52.2695ZM34.0091 63.1165C34.5191 60.1646 33.6149 57.1584 34.1791 54.1987C34.1828 54.1497 34.1828 54.1005 34.1791 54.0515L35.3151 53.8423L34.8746 62.7912C34.8746 62.8376 34.8746 62.8841 34.8746 62.9306L34.0091 63.1165ZM34.9673 51.6729C34.8978 50.1233 34.8205 48.5737 34.7587 47.0242C34.694 46.3304 34.7304 45.631 34.8669 44.9478C35.0354 44.2403 35.2952 43.5579 35.6397 42.9178V42.8559L36.2425 42.7783C36.1961 44.204 36.3661 45.6141 36.2425 47.0397C36.0302 48.515 35.9913 50.0103 36.1266 51.4947L34.9673 51.6729ZM38.36 60.7146C38.0397 61.0103 37.8367 61.4122 37.7881 61.8459C37.7648 61.9584 37.7648 62.0744 37.7881 62.1868L37.0616 62.3727L37.5022 53.4317L38.275 53.3078C38.275 54.7876 38.3291 56.2597 38.36 57.7318C38.36 58.5918 38.36 59.4517 38.4141 60.3117C38.4141 60.4047 38.4141 60.4977 38.4141 60.5907L38.36 60.7146ZM40.1606 46.6368C39.8175 48.0586 39.5594 49.4997 39.3878 50.9524C39.0401 50.9989 38.7001 51.0608 38.3523 51.1151C38.2519 49.7213 38.3063 48.3207 38.5145 46.939C38.6305 45.4592 38.4218 43.9792 38.5145 42.4916C39.1714 42.4219 39.8361 42.3445 40.5007 42.2826C40.5179 43.7503 40.3937 45.2162 40.1298 46.66L40.1606 46.6368ZM40.493 61.5049C40.6123 61.186 40.6623 60.8452 40.6398 60.5054C40.6398 59.6144 40.6011 58.7234 40.5857 57.8324L40.4852 52.9281C40.6433 52.9807 40.814 52.9807 40.9721 52.9281H41.0494C40.8768 55.5434 40.851 58.1662 40.9721 60.7844C40.9858 60.9872 41.0411 61.185 41.1344 61.3655L40.493 61.5049ZM43.6538 60.6683L43.136 60.8077C42.9982 57.9333 43.0421 55.053 43.2674 52.1842L44.0402 51.9519C43.9916 53.1818 44.02 54.4135 44.1252 55.6399C44.2889 57.0497 44.0948 58.478 43.5611 59.7926C43.4931 59.9351 43.4631 60.0927 43.4739 60.2502C43.4847 60.4077 43.536 60.5598 43.6228 60.6915L43.6538 60.6683ZM46.3973 59.8935L45.779 60.0717C46.2284 58.7819 46.4047 57.4123 46.2968 56.0504C46.1191 54.4852 46.1191 52.905 46.2968 51.3398L46.9228 51.2079L46.4359 59.8314L46.3973 59.8935ZM49.334 54.47C49.2414 56.0062 49.0556 57.5353 48.7776 59.0489C48.7738 59.116 48.7738 59.1832 48.7776 59.2503L48.623 59.2969C48.7853 56.4766 48.9398 53.6485 49.1021 50.8205L49.7358 50.7199C49.4749 51.9562 49.33 53.2143 49.3031 54.4777L49.334 54.47ZM52.1548 58.0261C52.1509 58.088 52.1509 58.1501 52.1548 58.212L51.0187 58.5609C51.2196 57.3599 51.3665 56.1511 51.4592 54.927C51.5597 53.5091 51.4592 51.9982 51.9925 50.6501C52.0297 50.5457 52.048 50.4356 52.0466 50.3248L52.5643 50.2319C52.2009 52.8157 52.0536 55.4254 52.1238 58.0339L52.1548 58.0261ZM54.3109 56.3061C54.3287 54.1777 54.4861 52.0528 54.7823 49.9451C54.7901 49.9016 54.7901 49.857 54.7823 49.8135L55.5551 49.6508C55.4302 51.9191 55.0013 54.1602 54.28 56.3139L54.3109 56.3061ZM56.4052 56.8562C56.8429 55.5237 57.1737 54.1583 57.3944 52.773C57.3249 54.0359 57.2785 55.3067 57.2399 56.5696L56.4052 56.8562ZM59.9988 55.3066C59.9874 55.4018 59.9874 55.4981 59.9988 55.5934L59.4579 55.7871C59.5429 53.393 59.6743 51.0066 59.8752 48.628L60.2848 48.5117C60.1331 49.4838 60.0427 50.4646 60.0143 51.4482C60.0143 52.1222 60.0143 52.7886 60.0143 53.4627C60.0869 54.0868 60.0713 54.7179 59.9679 55.3376L59.9988 55.3066ZM62.2014 54.0205C62.2014 53.3 62.1241 52.5794 62.1318 51.8666C62.1482 50.5668 62.2749 49.2709 62.5105 47.9926L63.0051 47.8998C62.7732 49.9917 62.5105 52.0293 62.1704 54.0515L62.2014 54.0205ZM63.3374 45.6528L62.2555 45.8465C62.8214 43.66 63.1122 41.4112 63.121 39.1524C63.5306 39.0594 63.9402 38.9431 64.3498 38.8424C64.2184 41.004 63.3606 43.0728 63.2833 45.3042C63.2718 45.4312 63.2797 45.5591 63.3065 45.6838L63.3374 45.6528ZM66.1273 49.0697C65.9742 50.4855 65.5068 51.8488 64.7594 53.0598C64.6772 53.1793 64.5841 53.2908 64.4812 53.3929C64.7903 51.4404 65.0479 49.4803 65.254 47.5124L66.5369 47.2799C66.3462 47.8997 66.1994 48.5065 66.0963 49.1005L66.1273 49.0697ZM67.2556 44.0258L67.0237 44.9866L65.4781 45.2654C65.5655 44.1794 65.7491 43.1034 66.0268 42.0501C66.3467 40.8483 66.5257 39.6132 66.5601 38.3698C66.5601 38.3698 66.5601 38.3078 66.5601 38.2845L69.1722 37.5563C68.4225 39.7257 67.7966 41.8873 67.2247 44.0567L67.2556 44.0258ZM70.3005 34.0775C70.1459 34.5114 70.0068 34.9452 69.8523 35.3868C69.7485 35.3253 69.6331 35.2859 69.5134 35.2713C69.3937 35.2566 69.2722 35.267 69.1567 35.3017C66.9542 35.9448 64.7439 36.5412 62.5105 37.0758C62.2887 36.9634 62.0367 36.9254 61.7918 36.9674C55.2383 37.8507 48.7235 38.9509 42.2473 40.268C42.1504 40.2849 42.0566 40.3161 41.9691 40.3609V40.3609C41.8336 40.2431 41.6745 40.156 41.5025 40.1052C41.3305 40.0544 41.1496 40.0412 40.9721 40.0666C37.2677 40.4127 33.5788 40.875 29.9054 41.4535C30.0445 40.1286 30.1914 38.8036 30.3382 37.4787C30.3713 37.2796 30.3376 37.0751 30.2426 36.8971C30.1475 36.7191 29.9963 36.5775 29.8126 36.4947C29.7127 36.2627 29.5357 36.0726 29.3117 35.9568C29.0876 35.8409 28.8304 35.8066 28.5839 35.8595C28.2825 35.9293 27.9888 36.0068 27.6797 36.061L27.3397 36.1229H27.1078C26.9764 36.1229 26.961 36.1229 27.0537 36.1229C26.7964 36.1413 26.5382 36.1413 26.2809 36.1229H26.2191L26.0568 36.0843L25.709 35.9757L25.3689 35.844H25.2917L25.1526 35.7742C24.9362 35.658 24.7275 35.5263 24.5189 35.3868C24.0784 35.1002 23.661 34.767 23.2437 34.4416C23.1245 34.3636 22.9912 34.31 22.8513 34.2837C22.7113 34.2574 22.5676 34.2591 22.4283 34.2886C22.2891 34.3181 22.157 34.3748 22.0396 34.4556C21.9223 34.5364 21.8219 34.6395 21.7444 34.7592C21.5981 34.989 21.5455 35.2664 21.5976 35.534C21.5824 35.6393 21.5824 35.7465 21.5976 35.8518C21.7559 36.6977 21.8413 37.5558 21.8526 38.4164L20.6162 37.7422C20.6955 37.47 20.6735 37.1781 20.5543 36.9209C20.5079 36.8202 20.4539 36.7118 20.4152 36.6033L20.3766 36.5102C20.3093 36.3251 20.2525 36.1363 20.2065 35.9447C20.1524 35.751 20.1061 35.5495 20.0674 35.3481C20.0288 35.1466 20.0674 35.1157 20.0133 34.9994C19.9592 34.8832 20.0133 34.8677 20.0133 34.798C20.0133 34.7283 20.0133 34.6043 20.0133 34.581C20.0133 34.5578 20.0133 34.3797 20.0133 34.2789C20.0133 34.1782 20.0133 33.8605 20.0133 33.6591C20.0133 33.4576 20.0675 33.2562 20.0906 33.0547V32.9463L21.559 33.6125C22.9404 34.3184 24.3976 34.8643 25.9022 35.2397C27.5215 35.5003 29.1709 35.5134 30.7941 35.2785H31.0646C30.9861 35.4804 30.9621 35.6994 30.9951 35.9136C30.9951 35.9136 30.9951 35.9757 30.9951 36.0067V36.2237C30.9951 36.3941 30.9951 36.5723 30.9951 36.7427C30.9951 37.0681 30.9101 37.3935 30.856 37.7112C30.7145 38.3756 30.6496 39.0542 30.6628 39.7335C30.6588 40.017 30.7576 40.2923 30.941 40.5083C31.1433 40.7223 31.42 40.8499 31.7138 40.8646C31.9993 40.8733 32.277 40.7709 32.4888 40.5788C32.7006 40.3867 32.83 40.1198 32.8498 39.8341C32.8354 39.1288 32.9028 38.4242 33.0507 37.7345C33.1997 36.969 33.231 36.1851 33.1435 35.4101C33.1198 35.2739 33.0671 35.1444 32.9889 35.0305L33.7618 34.9374L33.4295 39.5243C33.4223 39.6667 33.4433 39.8091 33.4911 39.9434C33.5389 40.0778 33.6126 40.2014 33.7081 40.3072C33.8035 40.413 33.9188 40.4988 34.0474 40.5599C34.1759 40.621 34.3152 40.6561 34.4573 40.6632C34.5993 40.6703 34.7414 40.6493 34.8754 40.6013C35.0094 40.5534 35.1327 40.4795 35.2381 40.3838C35.3436 40.2881 35.4293 40.1726 35.4903 40.0437C35.5512 39.9148 35.5862 39.7751 35.5933 39.6327C35.7067 37.9746 35.8251 36.3192 35.9488 34.6663L36.7216 34.5578C36.6443 35.2628 36.5748 35.9756 36.513 36.6884C36.4357 37.5175 36.2502 38.4705 36.7062 39.2298C36.8425 39.4815 37.0707 39.6706 37.3431 39.7573C37.6154 39.844 37.9106 39.8215 38.1668 39.6947C38.418 39.5582 38.6062 39.3288 38.6913 39.0554C38.7765 38.7819 38.7519 38.4858 38.6228 38.2303V38.1606C38.6228 38.0677 38.6228 37.8197 38.6228 37.7732C38.6228 37.3936 38.6923 36.9985 38.7232 36.6421C38.7902 35.8725 38.8675 35.0977 38.9551 34.3177C38.9551 34.3177 38.9551 34.2634 38.9551 34.2402L39.4574 34.1626C39.5501 35.5107 39.6197 36.859 39.6506 38.2072C39.6435 38.3496 39.6644 38.492 39.7123 38.6263C39.7601 38.7607 39.8338 38.8841 39.9292 38.9899C40.0247 39.0957 40.14 39.1815 40.2685 39.2426C40.3971 39.3037 40.5363 39.339 40.6784 39.3461C40.8205 39.3532 40.9626 39.3322 41.0966 39.2842C41.2306 39.2363 41.3539 39.1624 41.4593 39.0667C41.5648 38.971 41.6505 38.8555 41.7114 38.7266C41.7724 38.5977 41.8074 38.458 41.8145 38.3156C41.7758 36.859 41.7063 35.4102 41.5981 33.9536C41.5981 33.9149 41.5981 33.876 41.5981 33.8373L42.6568 33.6668C42.6105 34.4416 42.5718 35.2164 42.5332 35.9912C42.4173 36.8032 42.4173 37.6275 42.5332 38.4395C42.5641 38.5789 42.6222 38.7109 42.704 38.8278C42.7858 38.9447 42.8898 39.0442 43.01 39.1208C43.1302 39.1974 43.2642 39.2497 43.4045 39.2744C43.5448 39.2991 43.6886 39.2958 43.8277 39.2648C43.9667 39.2337 44.0983 39.1754 44.2149 39.0934C44.3315 39.0114 44.4308 38.9073 44.5073 38.7868C44.5837 38.6662 44.6357 38.5317 44.6603 38.391C44.6849 38.2504 44.6817 38.1063 44.6507 37.9669C44.6507 37.8817 44.6507 37.7887 44.5966 37.7034V37.6416C44.585 37.4636 44.585 37.2849 44.5966 37.1068C44.5966 36.7427 44.5966 36.3786 44.6507 36.0067L44.7666 33.7752C44.7749 33.6124 44.7431 33.4502 44.6739 33.3027L45.323 33.1866C45.323 34.5967 45.2458 35.999 45.1453 37.4014C45.1327 37.6886 45.2335 37.9692 45.4259 38.1824C45.6183 38.3956 45.8868 38.5242 46.1732 38.5403C46.4587 38.549 46.7364 38.4466 46.9482 38.2545C47.16 38.0624 47.2893 37.7954 47.3092 37.5098C47.4097 36.0841 47.4637 34.6585 47.4869 33.2252C47.4883 33.077 47.4621 32.93 47.4097 32.7914H47.6106C47.6106 34.2325 47.6724 35.6735 47.7961 37.1068C47.8587 37.3849 48.0281 37.6272 48.2675 37.781C48.512 37.9399 48.8092 37.9956 49.0944 37.9359C49.3686 37.8705 49.6068 37.701 49.759 37.4632C49.9026 37.2124 49.9571 36.9202 49.9136 36.6343C49.9098 36.6035 49.9098 36.5721 49.9136 36.5413C49.9136 36.4483 49.9136 36.3554 49.9136 36.2625C49.9136 36.1695 49.9136 35.9059 49.9136 35.7277C49.9136 35.3558 49.9136 34.953 49.8595 34.6121C49.8595 33.8373 49.8595 33.1246 49.8595 32.3808L51.1501 32.1173C50.9569 33.5894 50.81 35.0692 50.725 36.549C50.7107 36.8367 50.8109 37.1184 51.0037 37.3319C51.1965 37.5455 51.4659 37.6736 51.7529 37.6879C52.0398 37.7023 52.3207 37.6018 52.5338 37.4086C52.7468 37.2153 52.8746 36.9453 52.8889 36.6576C52.9817 34.9996 53.1414 33.3492 53.3681 31.7066C53.3719 31.6861 53.3719 31.665 53.3681 31.6446L54.4036 31.42C54.0091 33.0079 53.8323 34.6422 53.8781 36.278C53.8847 36.5523 53.9948 36.814 54.1861 37.0102C54.3775 37.2064 54.636 37.3226 54.9094 37.3353C55.1829 37.3481 55.451 37.2566 55.6597 37.079C55.8684 36.9015 56.0023 36.6512 56.0343 36.3786C56.0086 35.5094 56.0447 34.6393 56.1425 33.7752C56.1425 33.5815 56.1966 33.3803 56.2275 33.1788C56.2584 32.9774 56.2661 32.9617 56.2816 32.8455C56.2859 32.7888 56.2859 32.7318 56.2816 32.6751C56.3743 32.249 56.4748 31.8307 56.5985 31.4123C56.6332 31.2436 56.6332 31.0695 56.5985 30.9008L57.6958 30.6375C57.2523 32.2404 57.1418 33.9175 57.3713 35.565C57.4338 35.8465 57.6053 36.0916 57.8481 36.2464C58.0908 36.4011 58.3849 36.4528 58.6657 36.3901C58.9465 36.3275 59.191 36.1557 59.3453 35.9123C59.4997 35.6689 59.5513 35.374 59.4888 35.0925L59.4424 34.7515C59.4462 34.7102 59.4462 34.6688 59.4424 34.6276V34.6276V34.0387C59.4425 33.6013 59.4658 33.1643 59.512 32.7294C59.512 32.5434 59.5583 32.3575 59.5892 32.1793C59.5892 32.1406 59.5892 32.0166 59.5892 32.0011C59.5892 31.9856 59.6433 31.7763 59.6665 31.6678C59.7745 31.2424 59.9061 30.8235 60.0607 30.4128C60.0979 30.3084 60.1162 30.1983 60.1148 30.0874L60.8876 29.8937L60.7871 32.5589C60.7871 33.1013 60.7871 33.6435 60.7253 34.1859C60.6696 34.7764 60.7035 35.372 60.8257 35.9524C60.8984 36.2222 61.0721 36.4536 61.3106 36.5982C61.5492 36.7428 61.8342 36.7895 62.1063 36.7285C62.3783 36.6676 62.6164 36.5036 62.7709 36.271C62.9254 36.0383 62.9844 35.7551 62.9356 35.4799C62.9356 35.4024 62.9355 35.3249 62.8814 35.2552C62.8846 35.2217 62.8846 35.1879 62.8814 35.1544V34.8368C62.8814 34.5733 62.8814 34.3099 62.8814 34.062L62.9356 32.5124L63.0514 29.359L64.2725 29.0957C64.2648 29.2759 64.3048 29.455 64.3884 29.6147C64.3884 29.7077 64.3884 29.8007 64.3498 29.8937C64.3498 30.1571 64.2803 30.4206 64.2416 30.6685L64.0329 32.1716C63.8861 33.1943 63.7393 34.217 63.5847 35.2707C63.5774 35.4122 63.598 35.5536 63.6454 35.687C63.6927 35.8205 63.7659 35.9434 63.8607 36.0485C63.9554 36.1536 64.0699 36.2389 64.1976 36.2995C64.3253 36.3602 64.4637 36.3949 64.6048 36.4019C64.889 36.4107 65.1658 36.3094 65.3773 36.1189C65.5889 35.9284 65.7191 35.6634 65.7409 35.3791C65.9186 34.2169 66.0886 33.0547 66.2509 31.8848C66.3359 31.3269 66.4132 30.7614 66.4905 30.2036C66.5328 29.9604 66.556 29.7143 66.5601 29.4676C66.5588 29.1934 66.4811 28.9251 66.3359 28.6928C66.8151 28.5998 67.3097 28.5145 67.7965 28.437C67.2073 29.9761 66.9238 31.6158 66.9619 33.2639C66.9486 33.5516 67.0498 33.8329 67.2433 34.0457C67.4368 34.2586 67.7067 34.3857 67.9936 34.3991C68.2806 34.4124 68.5611 34.3108 68.7734 34.1168C68.9857 33.9229 69.1124 33.6524 69.1258 33.3648C69.1117 32.9227 69.1246 32.4801 69.1644 32.0397C69.1644 31.815 69.1644 31.5982 69.234 31.3735L69.2804 31.0945V30.9628V30.8698C69.4459 30.0173 69.7051 29.1858 70.0532 28.3905C70.1049 28.2629 70.126 28.1249 70.115 27.9876H70.2541C71.9002 27.7861 73.6622 27.8405 75.2388 27.2904C75.4011 27.2361 75.5556 27.1664 75.7179 27.0967C75.7179 27.5848 75.6561 28.0728 75.6484 28.5687C72.8121 28.9406 71.166 31.5672 70.2695 34.1085L70.3005 34.0775Z" fill="#DB3C17"/>
<path d="M37.6563 19.0929C36.582 14.0258 34.9437 9.09818 33.3749 4.17053C32.9576 2.85339 30.84 3.30285 31.2651 4.64323C32.8107 9.57088 34.4645 14.4985 35.5465 19.5657C35.6191 19.8355 35.7928 20.0667 36.0314 20.2112C36.2699 20.3558 36.5549 20.4025 36.827 20.3416C37.099 20.2806 37.3371 20.1168 37.4916 19.8842C37.6461 19.6516 37.7051 19.3681 37.6563 19.0929Z" fill="#321811"/>
<path d="M84.3972 42.6382C84.1178 42.6545 83.8424 42.5661 83.6244 42.3902C82.8604 41.696 82.1784 40.9161 81.5919 40.0658C81.275 39.6474 80.9659 39.229 80.649 38.8494C80.3322 38.4697 80.0772 38.1289 79.7912 37.7415C79.1215 36.7727 78.3436 35.8837 77.4728 35.0918C76.9013 34.6692 76.2303 34.4023 75.5253 34.317L75.1234 34.2317C74.6134 34.0964 74.1168 33.9149 73.6396 33.6893C72.2931 33.0337 71.1655 32 70.3938 30.7141C70.2834 30.5364 70.1324 30.3878 69.9533 30.2804C68.7596 29.5921 67.4497 29.1299 66.0892 28.9167C66.025 28.9091 65.9601 28.9091 65.896 28.9167C65.6979 28.9171 65.5025 28.9621 65.3241 29.0484C64.7565 29.2621 64.1526 29.362 63.5466 29.3427H63.253C62.797 29.3427 62.3333 29.3427 61.8774 29.3427C61.4214 29.3427 61.0273 29.3428 60.6022 29.2886C59.7248 29.2317 58.8603 29.0462 58.0364 28.7383C57.2793 28.4995 56.6098 28.0412 56.1121 27.4212C55.7103 26.6465 56.5449 25.8717 57.0859 25.4998C57.3012 25.3456 57.4618 25.1267 57.5445 24.8748C57.6272 24.6229 57.6277 24.3511 57.5458 24.0989C57.464 23.8467 57.3041 23.6271 57.0893 23.4722C56.8746 23.3173 56.6162 23.2351 56.3517 23.2375H55.9498C53.075 23.2375 51.6144 22.5944 51.0502 21.0913C50.4861 19.5882 51.6993 18.1626 52.9049 17.38C53.111 17.2419 53.2719 17.0459 53.3673 16.8165C53.4628 16.5872 53.4886 16.3346 53.4416 16.0905C53.3946 15.8465 53.2768 15.622 53.103 15.4448C52.9291 15.2676 52.707 15.1457 52.4644 15.0944C51.3899 14.8556 50.3733 14.4053 49.4736 13.7696C48.9378 13.4106 48.4218 13.0226 47.928 12.6074C47.5527 12.3457 47.2517 11.9905 47.0547 11.5769C46.961 10.6759 47.2063 9.77236 47.7425 9.04331C48.2375 8.23985 48.9257 7.57383 49.7441 7.10634C50.5387 6.66556 51.4327 6.43627 52.3408 6.44013C53.4104 6.43755 54.4577 6.74707 55.3548 7.33106C55.5593 7.46546 55.798 7.5381 56.0426 7.54026C56.2228 7.54081 56.4011 7.50241 56.5652 7.42753C56.7292 7.35264 56.8752 7.243 56.9932 7.10634C57.6246 7.76786 58.056 8.59536 58.2374 9.49274C58.2991 9.77078 58.454 10.0192 58.6761 10.1968C58.8982 10.3744 59.1743 10.4705 59.4585 10.469H59.5512C59.8519 10.447 60.1345 10.3163 60.3463 10.1011C60.5581 9.88588 60.6847 9.60084 60.7027 9.29905C60.6881 8.94097 60.7494 8.58386 60.8826 8.2513C61.0158 7.91875 61.2179 7.61831 61.4755 7.36983C62.0394 7.04497 62.6911 6.90669 63.338 6.97468H63.4925C64.5004 6.92923 65.5045 6.82061 66.4988 6.64933C67.8034 6.41998 69.1237 6.29047 70.4479 6.26194C71.0273 6.2583 71.606 6.29968 72.179 6.38584C72.3094 6.48247 72.4524 6.56072 72.604 6.61831L76.6304 12.1114C76.7393 12.2661 76.8398 12.4266 76.9318 12.5919C77.2705 13.2923 77.7844 13.8929 78.4233 14.3352C78.7393 14.4943 79.09 14.5716 79.4434 14.5599C79.6521 14.5599 79.8762 14.5599 80.0849 14.5599H80.3476C81.0664 14.5599 81.7851 14.6063 82.5038 14.6605C83.6862 14.7535 84.9768 14.9085 86.4529 15.1332C90.657 15.784 94.8998 16.6827 96.6 20.1151C96.6 20.1151 96.6 20.1151 96.6 20.1771C95.9493 19.9594 95.2688 19.8443 94.5829 19.836C94.1606 19.8158 93.7383 19.8793 93.3405 20.0229C92.9427 20.1665 92.5771 20.3874 92.2645 20.6729C92.0024 20.8967 91.8073 21.189 91.7009 21.5173C91.5945 21.8455 91.5809 22.197 91.6617 22.5325C91.9476 23.6249 93.1532 24.0819 94.0419 24.3298C95.4484 24.725 95.5876 25.1047 95.5335 25.9492C95.4517 27.3032 95.0167 28.6119 94.2722 29.7445C93.5276 30.8771 92.4996 31.794 91.2907 32.4033H91.2288C91.0556 32.4025 90.8841 32.4371 90.7246 32.505C90.5652 32.573 90.4212 32.6728 90.3015 32.7984C90.2668 32.8288 90.2236 32.8476 90.1778 32.8525C89.9911 32.5713 89.7385 32.3404 89.4421 32.1797C89.1457 32.019 88.8146 31.9334 88.4777 31.9306C88.2106 31.931 87.9463 31.9854 87.7006 32.0906C87.455 32.1958 87.233 32.3495 87.048 32.5427C86.7002 32.9068 86.0047 33.9294 87.048 35.5255C87.948 36.8588 89.2805 37.8389 90.8193 38.2993V38.2993C90.5272 38.332 90.2547 38.4631 90.0465 38.6712C89.8874 38.8279 89.7703 39.0225 89.7064 39.2368C89.6675 39.3242 89.6364 39.415 89.6137 39.508C89.6013 39.5774 89.5806 39.6451 89.5519 39.7095C89.4809 39.9178 89.393 40.1199 89.2892 40.3138C89.0854 40.6515 88.8238 40.9504 88.5164 41.197C87.7744 41.7454 86.9311 42.1404 86.0355 42.3592C85.5039 42.5233 84.9531 42.6172 84.3972 42.6382V42.6382Z" fill="#FDD821"/>
<path d="M85.0149 44.7314C84.5403 44.7494 84.0755 44.5922 83.7088 44.2897C82.8522 43.5229 82.0895 42.657 81.4367 41.7098C81.1199 41.2759 80.7953 40.8574 80.4785 40.47C80.1616 40.0826 79.8602 39.6952 79.551 39.2768C78.8828 38.3069 78.1048 37.4177 77.2326 36.6271C76.734 36.258 76.148 36.0255 75.5324 35.953L75.0842 35.8523C74.4948 35.7064 73.9222 35.4987 73.3762 35.2325C72.2929 34.6954 71.3258 33.9497 70.5302 33.0377C69.7345 32.1257 69.126 31.0653 68.7393 29.9173C68.6975 29.8258 68.6798 29.7251 68.6879 29.6247C68.696 29.5243 68.7298 29.4276 68.7858 29.344C68.8705 29.2376 68.979 29.1529 69.1025 29.0964C69.2261 29.0399 69.361 29.0132 69.4967 29.0186C69.6681 29.0113 69.8372 29.0613 69.9772 29.1609C70.1171 29.2605 70.2199 29.404 70.2695 29.5687C70.6876 30.7355 71.3856 31.7812 72.3021 32.6136C73.2186 33.4459 74.3254 34.0394 75.5247 34.3415C76.8076 34.6592 77.7659 34.8992 78.616 35.7593C79.2806 36.4566 79.9065 37.247 80.517 38.0063C80.8107 38.3782 81.1044 38.781 81.4058 39.1141L82.9514 40.9891C83.0751 41.1363 83.2065 41.3299 83.3456 41.5314C83.6723 42.0776 84.1029 42.5542 84.613 42.9338C84.8479 43.0678 85.1159 43.1322 85.3858 43.1197C86.2818 43.0367 87.1518 42.7732 87.9438 42.345C88.4228 42.119 88.8434 41.7856 89.1731 41.3704C89.5028 40.9552 89.7327 40.4696 89.845 39.951C89.8942 39.8254 89.9027 39.6875 89.8694 39.5568C89.8361 39.4261 89.7627 39.3091 89.6595 39.2225C88.7862 38.7034 85.9886 36.7975 86.5141 34.2252C86.6249 33.5824 86.9618 33.0007 87.4637 32.5856C87.9656 32.1705 88.5994 31.9496 89.2499 31.9629C89.9257 31.9639 90.5835 32.1811 91.1278 32.5827C91.2159 32.6525 91.3247 32.6906 91.4369 32.6911C91.5358 32.6891 91.6321 32.6597 91.7151 32.606C91.7621 32.5768 91.8062 32.543 91.8466 32.5052C92.7915 32.0379 93.6254 31.3728 94.292 30.5548C94.9586 29.7368 95.4423 28.7851 95.7106 27.7636L95.7493 27.6162C96.0044 27.0429 96.0455 26.3968 95.8652 25.7956C95.8035 25.6945 95.7101 25.6167 95.5996 25.5747C95.4891 25.5326 95.3678 25.5285 95.2547 25.5631L94.9455 25.4545C94.091 25.2764 93.2942 24.8876 92.6271 24.3234C92.3389 24.0521 92.1093 23.7244 91.9524 23.3606C91.7955 22.9968 91.7148 22.6046 91.7151 22.2082C91.7259 21.8533 91.8106 21.5045 91.9636 21.1843C92.1167 20.8641 92.3347 20.5796 92.6039 20.3488C93.2603 19.7852 94.0656 19.4245 94.9223 19.3105C95.024 19.2927 95.1182 19.245 95.1925 19.1732C95.2669 19.1014 95.3181 19.0088 95.3397 18.9076C95.3647 18.8075 95.359 18.7022 95.3231 18.6054C95.2872 18.5085 95.223 18.4248 95.1388 18.3653C94.0938 17.6574 92.9359 17.1333 91.7151 16.8157C89.1049 16.0835 86.4278 15.6163 83.7243 15.4211C83.0055 15.3513 82.2713 15.3515 81.5681 15.3437C80.8648 15.336 80.0225 15.3436 79.3038 15.2506C78.3223 15.1499 77.8664 14.5921 77.2017 13.7011C76.0116 12.0973 74.8369 10.4857 73.6622 8.88191L72.217 6.90617C72.1329 6.79724 72.012 6.72284 71.877 6.69696C71.3655 6.61904 70.8488 6.58026 70.3314 6.58082C69.0818 6.61537 67.8365 6.74488 66.6064 6.96821L65.2076 7.17742C64.6435 7.2549 64.0793 7.32461 63.5074 7.35561H62.7346C62.4592 7.3521 62.1843 7.3806 61.9154 7.44073C61.0344 7.67316 61.0112 8.66496 61.0035 9.2538C60.8873 10.2419 61.165 11.2361 61.7763 12.0198C62.3913 12.5682 63.1409 12.9425 63.9479 13.1045L64.1489 13.1665C66.1344 13.7146 68.0297 14.5498 69.775 15.6458C69.9213 15.7361 70.0334 15.8728 70.0936 16.0341C70.1537 16.1955 70.1585 16.3723 70.1072 16.5367C70.0691 16.7 69.982 16.8479 69.8576 16.9601C69.7333 17.0723 69.5777 17.1435 69.4117 17.1644C69.2708 17.1573 69.1345 17.1118 69.0175 17.0327C68.0896 16.4291 67.1093 15.9105 66.0886 15.4831C65.4382 15.2275 64.7753 15.005 64.1025 14.8167L63.1442 14.5224C61.1348 13.8638 59.9447 12.717 59.6201 11.1132L59.5815 10.8732C59.5597 10.7514 59.4959 10.6411 59.4013 10.5618C59.3066 10.4825 59.1871 10.4391 59.0637 10.4392V10.4392C58.9381 10.4444 58.8186 10.4951 58.7276 10.5821C58.6366 10.669 58.5803 10.7864 58.5691 10.9119C58.4929 11.7934 58.2009 12.6423 57.719 13.3835C57.3397 13.9504 56.8667 14.4482 56.3202 14.8555C56.2369 14.9192 56.1742 15.0062 56.1398 15.1054C56.1055 15.2046 56.101 15.3116 56.127 15.4133C56.1567 15.5157 56.2157 15.607 56.2968 15.6759C56.3779 15.7448 56.4774 15.7882 56.583 15.8007C56.8071 15.8007 57.0235 15.855 57.2399 15.886H57.3249C57.4387 15.8883 57.55 15.8528 57.6417 15.7852L57.7577 15.6768C57.8554 15.6351 57.9606 15.6139 58.0668 15.6148C58.2196 15.6171 58.3698 15.6564 58.5043 15.7292C58.6388 15.8021 58.7538 15.9063 58.8396 16.0332C58.9346 16.1635 59.0406 16.2853 59.1565 16.3973C59.2858 16.4785 59.4052 16.5748 59.512 16.6841C59.5416 16.719 59.5753 16.7501 59.6124 16.777C59.852 16.9397 60.0993 17.0792 60.3852 17.2186L60.5089 17.2884C61.1368 17.6173 61.7298 18.0093 62.2786 18.4584C62.8163 18.8648 63.2104 19.4326 63.4036 20.0793C63.5969 20.7259 63.5791 21.4175 63.3528 22.0533C62.9946 22.8015 62.364 23.3838 61.5908 23.6804C61.4897 23.7256 61.4054 23.8014 61.3499 23.8974C61.2944 23.9934 61.2705 24.1046 61.2817 24.215C61.2925 24.325 61.3381 24.4286 61.4118 24.5108C61.4855 24.5931 61.5834 24.6494 61.6913 24.672L63.3374 25.0053H63.4456H63.5383H63.7006C63.8226 25.0059 63.9423 25.0378 64.0484 25.0982C64.1253 25.1478 64.2084 25.187 64.2957 25.2145L65.3776 25.4392C65.543 25.4978 65.6835 25.611 65.7762 25.7602C65.8689 25.9095 65.9082 26.0858 65.8877 26.2604C65.8799 26.3896 65.9213 26.5169 66.0036 26.6167C66.2024 26.8486 66.364 27.1099 66.4827 27.3915C66.6706 27.8358 66.7268 28.3249 66.6446 28.8004C66.5623 29.2758 66.3452 29.7175 66.0191 30.0724C65.3854 30.7078 64.3652 30.7464 63.3837 30.7929H63.0437C62.5568 30.7929 62.0622 30.8395 61.5676 30.8395C61.073 30.8395 60.6248 30.8394 60.1534 30.7774C59.156 30.7128 58.1739 30.4986 57.2399 30.142C56.2696 29.8369 55.4221 29.2288 54.821 28.4065C54.0482 27.0352 55.4547 25.8343 56.0729 25.3772C56.1636 25.3127 56.2309 25.2202 56.2643 25.1139C56.2978 25.0076 56.2957 24.8933 56.2584 24.7883C56.2241 24.6841 56.1577 24.5936 56.0689 24.5296C55.98 24.4655 55.8732 24.4313 55.7638 24.432H55.3465C51.9925 24.432 50.1841 23.5796 49.4654 21.6737C48.7467 19.7677 50.2382 17.7997 51.7142 16.839C51.8032 16.7829 51.8731 16.7009 51.9145 16.6041C51.9559 16.5072 51.9669 16.4 51.9461 16.2967C51.9274 16.1947 51.8782 16.1007 51.8051 16.0273C51.7319 15.954 51.6383 15.9048 51.5365 15.886C50.3037 15.5964 49.1385 15.0702 48.1052 14.3365C47.5225 13.9424 46.9626 13.5155 46.4282 13.0579C45.9096 12.6948 45.507 12.189 45.2689 11.6014C44.9057 10.3385 45.8022 8.75796 46.0804 8.30858C46.6671 7.34613 47.4856 6.54688 48.4607 5.98422C49.4097 5.46939 50.4729 5.20291 51.5519 5.20943C52.8303 5.20863 54.0815 5.57998 55.1533 6.27854C55.2387 6.33326 55.3378 6.36287 55.4392 6.36385C55.5138 6.36388 55.5874 6.34805 55.6554 6.31732C55.7233 6.2866 55.784 6.2417 55.8334 6.18567C55.9097 6.09113 56.0047 6.01335 56.1125 5.95736C56.2202 5.90136 56.3383 5.86842 56.4593 5.86032C56.5521 5.86327 56.6432 5.88539 56.727 5.92539C56.8108 5.96539 56.8855 6.02227 56.9462 6.0926C57.7261 6.90657 58.2618 7.92422 58.4918 9.02908C58.5152 9.14735 58.5788 9.25387 58.6719 9.33022C58.765 9.40656 58.8816 9.44799 59.0019 9.44749V9.44749C59.1286 9.44011 59.2482 9.38635 59.338 9.29636C59.4277 9.20637 59.4814 9.08652 59.4888 8.95947C59.4763 8.47079 59.5693 7.98519 59.7614 7.53587C59.9534 7.08656 60.24 6.68406 60.6016 6.3561C61.3227 5.90889 62.1678 5.70523 63.0128 5.77501H63.1751C64.2113 5.72277 65.2436 5.60898 66.2664 5.43415C67.6708 5.18882 69.0916 5.04894 70.5169 5.01573C71.2054 5.01288 71.893 5.06728 72.5726 5.17841C72.6647 5.19933 72.7483 5.24794 72.8121 5.31782C72.8684 5.37273 72.9375 5.41279 73.013 5.43415C73.1843 5.48887 73.3334 5.59749 73.4381 5.74399L77.6422 11.4853C77.7727 11.6633 77.8914 11.8496 77.9977 12.0431C78.2903 12.6517 78.7219 13.1825 79.2574 13.5927C79.477 13.6958 79.7184 13.7436 79.9606 13.7321C80.1538 13.7321 80.3703 13.7321 80.5635 13.7321C80.6793 13.7261 80.7953 13.7261 80.9112 13.7321C81.684 13.7321 82.4568 13.7862 83.2296 13.8405C84.5048 13.9412 85.8341 14.104 87.4338 14.352C92.0707 15.0648 96.7075 16.0953 98.6705 20.0002C98.7351 20.1438 98.7627 20.3012 98.7506 20.4583C98.7384 20.6154 98.6869 20.767 98.601 20.8989C98.5478 20.9977 98.47 21.0809 98.3752 21.1406C98.2804 21.2004 98.1719 21.2345 98.06 21.2397C97.9814 21.237 97.9034 21.2239 97.8281 21.201C97.1925 20.9748 96.5242 20.8544 95.8498 20.8446C95.5027 20.8217 95.1546 20.8683 94.8256 20.9814C94.4966 21.0944 94.1932 21.2718 93.9331 21.5032C93.7604 21.6426 93.6294 21.827 93.5544 22.0361C93.4795 22.2452 93.4634 22.471 93.5081 22.6887C93.6627 23.2698 94.281 23.6881 95.4634 24.0213C97.1172 24.4862 97.6582 25.1137 97.5963 26.5083C97.5033 28.0704 97.0033 29.5806 96.1463 30.8885C95.2893 32.1963 94.1052 33.2561 92.7121 33.9619C92.6014 34.0157 92.4796 34.0422 92.3566 34.0393C92.19 34.0363 92.0279 34.0941 91.9006 34.2019C91.809 34.2989 91.6989 34.3764 91.5767 34.4297C91.4546 34.4829 91.3229 34.511 91.1897 34.512C91.0583 34.5122 90.9291 34.4788 90.8141 34.4151C90.6992 34.3514 90.6024 34.2595 90.5328 34.1478C90.408 33.962 90.2402 33.8091 90.0437 33.7026C89.8472 33.596 89.6278 33.5388 89.4044 33.5357C89.2301 33.537 89.0578 33.574 88.8983 33.6447C88.7388 33.7153 88.5954 33.818 88.4771 33.9464C87.9593 34.4887 87.9825 35.2091 88.5543 36.1001C89.4022 37.3451 90.6523 38.2591 92.0938 38.688C92.2788 38.7456 92.4354 38.8708 92.5328 39.0387C92.6301 39.2066 92.661 39.4048 92.6194 39.5944C92.6067 39.7621 92.5339 39.9194 92.4147 40.0376C92.2954 40.1558 92.1376 40.2268 91.9702 40.2376C91.8239 40.2368 91.6829 40.2922 91.5761 40.3925C91.4692 40.4905 91.4053 40.627 91.3984 40.7721C91.3984 40.8186 91.3442 40.8342 91.3365 40.8884C91.3086 41.0045 91.2724 41.1184 91.2283 41.2293C90.9799 41.9807 90.5079 42.6377 89.8758 43.112C89.0166 43.7569 88.0361 44.2208 86.9932 44.4756C86.3483 44.6499 85.6828 44.736 85.0149 44.7314V44.7314ZM58.8087 25.8111C58.1044 25.8805 57.4344 26.1492 56.8766 26.5859C56.7552 26.6884 56.6416 26.7997 56.5366 26.919L56.3202 27.1437C56.267 27.1845 56.2245 27.2376 56.1966 27.2986C56.1698 27.3624 56.156 27.4309 56.156 27.5001C56.156 27.5693 56.1698 27.6378 56.1966 27.7015C56.2178 27.7692 56.2527 27.8317 56.2993 27.885C56.3459 27.9384 56.403 27.9813 56.4671 28.0114C56.6014 28.0762 56.7306 28.1514 56.8535 28.2361C57.0302 28.3548 57.2133 28.4634 57.4022 28.5614C57.6862 28.6838 57.9779 28.7874 58.2754 28.8715C58.9502 29.0657 59.6453 29.1801 60.3466 29.2123C60.7098 29.2123 61.0653 29.2123 61.4285 29.2123C61.7918 29.2123 62.2863 29.2123 62.7114 29.2123C63.1364 29.2123 63.4842 29.2123 63.8706 29.1425H64.1566C64.2129 29.1506 64.2702 29.1506 64.3266 29.1425L64.5121 29.104C64.5822 29.0897 64.6487 29.0609 64.7072 29.0196C64.7657 28.9782 64.8151 28.9252 64.8521 28.8637C64.8679 28.8422 64.8808 28.8187 64.8907 28.7939C64.9134 28.7467 64.9315 28.6974 64.9448 28.6468C64.9571 28.5724 64.9571 28.4964 64.9448 28.422C64.9563 28.3736 64.9563 28.3233 64.9448 28.2749C64.9331 28.2044 64.9176 28.1345 64.8985 28.0657L64.8444 27.9107L64.7671 27.7636C64.7458 27.7244 64.7198 27.6879 64.6898 27.655C64.3497 27.288 63.9562 26.9746 63.5228 26.7253C63.467 26.6942 63.4072 26.6706 63.3451 26.6555L61.6295 26.3069L61.0653 26.183C60.4079 26.0135 59.7343 25.9148 59.056 25.8885L58.8087 25.8111ZM55.532 17.2419C54.6575 17.2341 53.7912 17.4109 52.9894 17.761C52.4735 17.9801 52.0078 18.3028 51.621 18.7092C51.2343 19.1156 50.9346 19.5971 50.7405 20.1241C50.6764 20.3945 50.6781 20.6765 50.7453 20.9462C50.8125 21.2158 50.9434 21.4653 51.1269 21.6737C51.4975 22.0384 51.9376 22.3245 52.4209 22.5149C52.9042 22.7052 53.4209 22.7959 53.94 22.7816C54.3341 22.7816 54.7127 22.7816 55.1223 22.7816C55.8952 22.7816 56.668 22.7429 57.6958 22.6654H58.0204C58.9573 22.6535 59.8853 22.4804 60.7639 22.1539C61.6836 21.7665 62.0313 21.201 61.784 20.4882C61.3792 19.6779 60.6876 19.048 59.8443 18.7217L59.5351 18.5513C59.1259 18.321 58.7334 18.0621 58.3604 17.7765C58.3116 17.739 58.2567 17.7103 58.1982 17.6913C57.3393 17.3989 56.439 17.2471 55.532 17.2419V17.2419ZM51.3974 6.759C50.4109 6.75852 49.4479 7.0613 48.6385 7.62667C47.9886 8.10758 47.4594 8.7337 47.0928 9.45525C46.9012 9.84682 46.7584 10.2606 46.6677 10.6872C46.6601 10.7645 46.6601 10.8422 46.6677 10.9195C46.6637 11.059 46.7074 11.1957 46.7914 11.3069L46.9537 11.5161L47.1933 11.7253C49.1485 13.4686 50.9028 14.3441 52.5412 14.4138H52.7266C53.5721 14.4216 54.4012 14.1797 55.1104 13.7181C55.8195 13.2565 56.3774 12.5958 56.7143 11.8184C56.9807 11.1566 57.0757 10.438 56.9906 9.72953C56.9055 9.02104 56.643 8.3457 56.2275 7.76627C56.1863 7.70581 56.1325 7.65505 56.0697 7.61759C56.007 7.58012 55.9369 7.55682 55.8643 7.5493H55.7947C55.6705 7.55027 55.5505 7.59397 55.4547 7.6732C55.2951 7.81721 55.0897 7.89964 54.8751 7.90567C54.7731 7.90849 54.6729 7.87855 54.5891 7.82036C53.6647 7.1356 52.5468 6.76391 51.3974 6.759V6.759Z" fill="#755C33"/>
<path d="M55.0373 8.89711C54.8094 7.92005 54.2661 7.04582 53.4917 6.41007C52.5547 5.78842 51.504 5.35908 50.4004 5.14707C45.5317 3.73695 40.6012 2.5128 35.6397 1.47458C33.5531 1.03295 31.2501 0.366732 29.179 1.18801C27.2701 1.96279 26.4354 3.86867 25.9485 5.72816C25.3472 8.18765 24.5565 10.5968 23.5837 12.9337C22.5249 15.3319 21.2304 17.6186 19.7197 19.7596C18.9468 20.9063 20.7243 22.084 21.5281 20.9451C23.9949 17.4352 25.9009 13.5612 27.1773 9.46269C27.4787 8.4787 27.7183 7.49467 27.9502 6.50294C28.1229 5.66557 28.4309 4.86225 28.8621 4.12448C29.8745 2.57491 31.8529 2.90794 33.3985 3.21785C38.0354 4.14243 42.6285 5.23487 47.1778 6.49519C48.2752 6.79736 49.3649 7.09967 50.4545 7.42508C51.301 7.55119 52.067 7.99747 52.5953 8.67239C53.5999 10.3459 52.5953 12.4379 51.8224 13.9875C49.5242 18.6429 47.6289 23.4876 46.1577 28.4682C45.7713 29.8086 47.8192 30.4904 48.2134 29.15C49.6196 24.3811 51.4294 19.7415 53.6231 15.2813C54.6123 13.3056 55.6247 11.144 55.0373 8.89711Z" fill="#321811"/>
<path d="M61.4984 15.6057C61.0734 13.8237 60.5093 11.8791 59.2882 10.4922C59.2666 10.6368 59.233 10.7792 59.1877 10.9182C58.9547 11.4655 58.6618 11.9852 58.3145 12.4677C59.0322 13.8362 59.5254 15.3119 59.7751 16.8376C60.4697 16.9993 61.1295 17.2854 61.7226 17.6822L62.0549 17.9223L61.4984 15.6057Z" fill="#321811"/>
<path d="M64.025 25.2215C63.597 24.1035 63.2484 22.9564 62.9817 21.7891C62.5305 22.3607 61.9575 22.824 61.3047 23.1449C61.5254 24.0268 61.8015 24.8938 62.1316 25.7406C62.2087 25.9868 62.3758 26.1947 62.5994 26.3226C62.823 26.4505 63.0865 26.4888 63.3372 26.43C63.5871 26.3594 63.7994 26.1931 63.928 25.967C64.0567 25.7408 64.0916 25.4732 64.025 25.2215V25.2215Z" fill="#321811"/>
<path d="M78.8401 92.9922C68.894 88.4365 59.0328 82.8503 54.0172 72.8478C53.9189 72.6464 53.7676 72.4758 53.5796 72.3543C53.3917 72.2328 53.1742 72.1649 52.9507 72.1581C45.2226 71.8792 38.9319 68.3229 36.1188 62.6592C35.2594 60.9399 34.7174 59.0789 34.5191 57.1661C34.2872 54.9192 34.8668 54.2993 35.4619 53.9894C35.7802 53.8174 36.1359 53.7268 36.4975 53.7259C37.2764 53.7668 38.0262 54.0362 38.6536 54.5007C38.86 54.6373 39.1019 54.7101 39.3492 54.7099C39.5367 54.7113 39.7219 54.6689 39.8902 54.586C40.0867 54.4946 40.2553 54.3524 40.3789 54.174C40.5025 53.9956 40.5765 53.7875 40.5934 53.571C40.6613 52.7055 40.8459 51.8532 41.1421 51.0374C41.3109 50.5547 41.6639 50.1591 42.1236 49.9373C42.3027 49.8642 42.4944 49.8274 42.6878 49.8289C43.0168 49.8368 43.3415 49.9051 43.646 50.0303C44.2956 50.3197 44.8793 50.7388 45.3617 51.2621C45.4772 51.3782 45.6146 51.4703 45.7658 51.5328C45.917 51.5953 46.0791 51.627 46.2427 51.6262C46.4068 51.6261 46.5695 51.5946 46.7218 51.5334C46.9504 51.4396 47.1459 51.2797 47.2836 51.0741C47.4212 50.8685 47.4946 50.6265 47.4946 50.3789C47.5102 50.3176 47.5455 50.2631 47.5951 50.224C48.2423 49.5722 49.038 49.0882 49.9136 48.8139C50.1671 48.7561 50.4264 48.7274 50.6864 48.7286C51.2369 48.7349 51.7796 48.859 52.2784 49.0927C53.7235 49.7358 54.6741 51.1614 55.4778 52.6025C55.5592 52.7495 55.6698 52.8784 55.8027 52.981C55.9356 53.0836 56.088 53.1578 56.2507 53.1991C56.9015 53.3708 57.5715 53.4594 58.2445 53.4626C59.6858 53.4664 61.0965 53.0461 62.3018 52.2539C62.9386 51.8115 63.5175 51.291 64.0252 50.7043C64.8753 49.7746 65.4008 49.2555 66.2586 49.2555C66.9409 49.2614 67.5941 49.5331 68.0802 50.0131C68.5662 50.4932 68.847 51.1438 68.863 51.8277C68.8732 52.6078 68.6169 53.3679 68.1366 53.9816C67.712 54.4663 67.2262 54.8936 66.6914 55.2524L66.135 55.6784C65.4117 56.2867 64.8235 57.0402 64.4082 57.8902C63.9929 58.7402 63.7598 59.668 63.7238 60.6139C63.6941 60.9201 63.7777 61.2265 63.9586 61.4751C64.1396 61.7236 64.4053 61.8969 64.7053 61.962L94.2964 68.323C94.0733 68.3787 93.8702 68.4962 93.7104 68.6619C93.5505 68.8277 93.4403 69.035 93.3922 69.2604C93.1572 70.2359 92.644 71.1216 91.9153 71.8095C91.1866 72.4974 90.2739 72.9578 89.2886 73.1343C89.069 73.1713 88.8465 73.1895 88.6239 73.1886V73.1886C88.2725 73.1844 87.9217 73.1611 87.5728 73.1188H87.4338C87.2313 73.0924 87.0274 73.077 86.8232 73.0725C86.3616 73.044 85.9055 73.1858 85.541 73.4712C85.1765 73.7567 84.929 74.1661 84.8449 74.6221C84.7709 74.9508 84.7714 75.2919 84.8463 75.6204C84.9212 75.9489 85.0686 76.2564 85.2776 76.5203C85.5939 76.8578 85.9816 77.1201 86.4122 77.2877C86.8428 77.4553 87.3054 77.524 87.7661 77.4887C88.2408 77.4854 88.7133 77.4229 89.1726 77.3028C89.1726 77.3028 89.1726 77.3647 89.1726 77.3957C88.3225 79.2164 86.1896 81.1845 84.2421 81.1845H84.0257C83.7474 81.1845 83.5002 80.9676 83.0906 80.6189C82.4427 79.9686 81.5854 79.5703 80.6717 79.4953C80.1767 79.4799 79.685 79.5804 79.2356 79.7889C78.7861 79.9974 78.3914 80.3081 78.0827 80.6963C77.781 81.085 77.5707 81.5372 77.4677 82.0189C77.3646 82.5005 77.3714 82.9992 77.4877 83.4778C77.6469 84.1685 78.0444 84.7805 78.61 85.2058C79.1756 85.6311 79.873 85.8423 80.5789 85.8022C81.106 85.8038 81.6293 85.7119 82.1246 85.5309C82.2681 85.4773 82.4196 85.4486 82.5728 85.4458C82.7187 85.4347 82.8639 85.4758 82.9824 85.562C83.0464 85.6661 83.0711 85.7898 83.0519 85.9106C82.9901 86.9643 82.14 88.3822 81.5063 89.4204C80.8444 90.5132 80.0671 91.5316 79.1878 92.4577C79.0633 92.5838 78.9706 92.7377 78.9174 92.9069L78.8401 92.9922Z" fill="#FDD821"/>
<path d="M80.2549 95.0683C80.1368 95.0648 80.0208 95.0357 79.9149 94.983C69.8683 90.3807 58.8943 84.2289 53.5078 73.4904C53.4663 73.4055 53.4028 73.3335 53.3239 73.2817C53.2451 73.2299 53.1537 73.2003 53.0596 73.1961C44.659 72.8939 37.8042 69.0045 34.7207 62.7907C33.7784 60.901 33.1841 58.8564 32.9663 56.7551C32.7345 54.5392 33.1673 53.2763 34.3729 52.6487C34.8194 52.4079 35.3188 52.2828 35.8258 52.2845C36.8038 52.3348 37.7451 52.6745 38.5306 53.2608C38.6161 53.3155 38.7152 53.3449 38.8166 53.3459C38.8961 53.3455 38.9748 53.3299 39.0484 53.2996C39.1295 53.2575 39.1989 53.1956 39.2501 53.1199C39.3014 53.0441 39.333 52.9567 39.3421 52.8656C39.4154 51.8853 39.6262 50.9203 39.9681 49.999C40.0913 49.6501 40.2825 49.3293 40.5306 49.0553C40.7787 48.7812 41.0788 48.5595 41.4132 48.4029C41.6986 48.28 42.0069 48.2192 42.3174 48.2247C42.7637 48.2296 43.2047 48.3216 43.6158 48.4957C44.3982 48.8377 45.1029 49.3361 45.6869 49.9602C45.7353 50.0095 45.7931 50.0486 45.8568 50.0752C45.9205 50.1018 45.9888 50.1154 46.0578 50.1151C46.1273 50.1137 46.1957 50.0978 46.2588 50.0686C46.353 50.0288 46.4333 49.9621 46.4897 49.8766C46.5461 49.7911 46.576 49.6908 46.5756 49.5883C46.5811 49.4398 46.6177 49.2941 46.6829 49.1606C46.7482 49.0271 46.8406 48.9089 46.9543 48.8135C47.7245 48.0424 48.6719 47.4729 49.7132 47.1554C50.0229 47.087 50.3391 47.0533 50.6561 47.0547C51.3442 47.0606 52.0235 47.2111 52.65 47.4964C54.3734 48.2712 55.4553 49.8827 56.3672 51.5175C56.4018 51.5787 56.4483 51.6323 56.5041 51.6749C56.5599 51.7175 56.6238 51.7484 56.6918 51.7655C57.3118 51.9321 57.9511 52.0153 58.5929 52.0133C59.9483 52.0172 61.2752 51.6241 62.4107 50.8821C63.0299 50.4381 63.5907 49.9174 64.0799 49.3326C64.9532 48.3796 65.7105 47.5583 67.0011 47.5583C67.9208 47.5699 68.8004 47.9377 69.4558 48.5846C70.1112 49.2316 70.4916 50.1076 70.5175 51.0293C70.5366 52.0274 70.2117 53.0016 69.5978 53.7876C69.1116 54.3574 68.55 54.8578 67.9285 55.2751C67.7353 55.4223 67.5421 55.5618 67.3566 55.7168C66.6801 56.2919 66.1311 57.0026 65.7451 57.8032C65.3591 58.6039 65.1446 59.4767 65.1155 60.3655C65.105 60.4945 65.1415 60.6228 65.2183 60.7268C65.295 60.8308 65.4068 60.9034 65.5328 60.9311L96.5923 67.6021C96.7594 67.6286 96.911 67.7159 97.0179 67.8474C97.1249 67.979 97.1797 68.1454 97.1719 68.3149C97.1853 68.4935 97.1396 68.6715 97.0418 68.8214C96.944 68.9713 96.7996 69.0847 96.631 69.1439C96.5363 69.1674 96.45 69.2168 96.3818 69.2866C96.3136 69.3563 96.2661 69.4438 96.2445 69.5391C95.9546 70.7107 95.3325 71.773 94.4535 72.5979C93.5744 73.4229 92.476 73.975 91.2908 74.1878C91.0199 74.2312 90.7458 74.252 90.4715 74.2499C90.0774 74.2499 89.6988 74.2498 89.2815 74.1723H89.1269C88.9449 74.1481 88.7617 74.1351 88.5782 74.1335C88.2718 74.1025 87.9654 74.1917 87.7233 74.3825C87.4812 74.5732 87.3222 74.8506 87.2798 75.1563C87.2205 75.3879 87.2155 75.63 87.2651 75.8639C87.3147 76.0978 87.4176 76.3171 87.5657 76.5044C87.83 76.7589 88.145 76.9547 88.4899 77.0789C88.8348 77.2031 89.202 77.2528 89.5674 77.2249C90.0088 77.2253 90.4482 77.1654 90.8734 77.0467C90.9512 77.0232 91.0318 77.0101 91.113 77.008C91.2264 77.0113 91.3371 77.0436 91.4345 77.102C91.5318 77.1603 91.6128 77.2427 91.6694 77.3412C91.7529 77.4758 91.8022 77.6287 91.8129 77.7867C91.8237 77.9448 91.7957 78.103 91.7312 78.2477C90.7188 80.4248 88.2381 82.6795 85.8424 82.6795H85.6337C85.0789 82.591 84.5699 82.3181 84.1885 81.9047C83.6436 81.3328 82.9108 80.9778 82.1252 80.9052V80.9052C81.7305 80.8936 81.3385 80.9745 80.9803 81.1412C80.6221 81.308 80.3076 81.5561 80.0617 81.8659C79.8168 82.1792 79.6463 82.5445 79.5633 82.9339C79.4802 83.3232 79.4868 83.7265 79.5826 84.1129C79.7114 84.6602 80.0301 85.1438 80.4816 85.4773C80.9332 85.8108 81.4883 85.9724 82.0478 85.9335C82.4966 85.9336 82.9418 85.8522 83.3617 85.6933C83.6097 85.6048 83.8712 85.5603 84.1345 85.5616C84.3184 85.5513 84.5025 85.579 84.6753 85.643C84.8482 85.7069 85.006 85.8058 85.1391 85.9335C85.2502 86.0637 85.3332 86.2156 85.3824 86.3797C85.4316 86.5438 85.4462 86.7164 85.4251 86.8865C85.3401 88.1881 84.3972 89.7687 83.7094 90.9231C82.9794 92.1207 82.1217 93.2352 81.1514 94.247C81.0988 94.299 81.0591 94.3627 81.0355 94.4329C80.9919 94.6095 80.8922 94.767 80.7513 94.8816C80.6105 94.9962 80.4362 95.0618 80.2549 95.0683V95.0683ZM53.8478 71.8247C54.0118 71.8233 54.1724 71.8704 54.3099 71.9599C54.4473 72.0495 54.5554 72.1775 54.6207 72.3282C59.4198 82.6019 69.4278 88.3741 79.5362 93.077C79.6044 93.1071 79.6781 93.123 79.7526 93.1236C79.8255 93.125 79.8978 93.1104 79.9646 93.081C80.0313 93.0516 80.0908 93.008 80.139 92.9531C80.8945 92.1554 81.5676 91.2831 82.1483 90.3498C82.5139 89.7552 82.8443 89.1395 83.1375 88.5059L83.2071 88.3432C83.2473 88.2478 83.2628 88.1437 83.252 88.0407C83.2411 87.9377 83.2044 87.8392 83.1453 87.7543C83.0954 87.6895 83.0325 87.6361 82.9606 87.5973C82.8886 87.5586 82.8093 87.5355 82.7279 87.5296H82.6352C82.4499 87.542 82.264 87.542 82.0788 87.5296C81.775 87.529 81.4722 87.4978 81.1746 87.4366C80.4622 87.2941 79.8002 86.9648 79.2564 86.4819C78.7125 85.999 78.3064 85.3801 78.0792 84.6883C77.8521 83.9965 77.8122 83.2567 77.9637 82.5444C78.1151 81.8321 78.4524 81.1729 78.9412 80.6341C79.332 80.204 79.8099 79.8625 80.3431 79.6327C80.8762 79.4029 81.4522 79.2898 82.0325 79.3013C82.8516 79.2906 83.6564 79.5166 84.3509 79.9522C84.4932 80.0525 84.6252 80.1666 84.745 80.293C85.0583 80.6671 85.4887 80.924 85.9661 81.0215C86.652 80.9578 87.307 80.7056 87.8594 80.293C88.19 80.0878 88.5005 79.8518 88.7869 79.5881C88.8592 79.5235 88.912 79.44 88.9393 79.3469C88.9666 79.2538 88.9673 79.1548 88.9414 79.0613C88.9187 78.9655 88.8686 78.8785 88.7971 78.811C88.7257 78.7435 88.6362 78.6986 88.5395 78.6816C87.771 78.5392 87.0659 78.16 86.5225 77.5968C86.057 77.075 85.77 76.4178 85.7032 75.7209C85.6365 75.0241 85.7936 74.3239 86.1515 73.7229C86.3385 73.4297 86.5828 73.1777 86.8697 72.9819C87.1566 72.7862 87.4802 72.6507 87.8208 72.5839C88.0037 72.5452 88.1903 72.527 88.3772 72.5297C88.6851 72.5362 88.9922 72.5622 89.2968 72.6072C89.6429 72.6523 89.9913 72.6782 90.3402 72.6848C90.4741 72.6927 90.6082 72.6927 90.742 72.6848C91.648 72.5796 92.5031 72.2089 93.2 71.6191C93.8969 71.0292 94.4048 70.2465 94.6602 69.3687C94.6836 69.2985 94.6917 69.224 94.684 69.1504C94.6763 69.0768 94.653 69.0057 94.6157 68.9419C94.5784 68.8781 94.5279 68.823 94.4676 68.7804C94.4073 68.7377 94.3386 68.7084 94.2661 68.6945L65.0382 62.4111C64.9157 62.3936 64.8012 62.34 64.7091 62.2573C64.6169 62.1746 64.5513 62.0662 64.5204 61.9461C64.4905 61.8614 64.4404 61.7854 64.3743 61.7246C64.3083 61.6638 64.2285 61.6202 64.1418 61.5975C63.8249 61.52 63.4926 61.241 63.508 60.9389C63.6626 58.4208 64.2809 56.5768 65.4864 55.2906C65.8469 54.9371 66.2374 54.6156 66.6534 54.3299C67.6967 53.5551 68.8791 52.7106 68.9719 51.2695C69.0125 50.8466 68.9155 50.4218 68.6954 50.0587C68.4753 49.6956 68.1439 49.4138 67.7508 49.2552C67.5496 49.1731 67.3343 49.1309 67.1171 49.1311C66.785 49.1621 66.4642 49.2674 66.178 49.4391C65.8918 49.6107 65.6476 49.8443 65.4632 50.1229C64.3649 51.5626 62.8637 52.6416 61.151 53.222C60.3325 53.4755 59.4805 53.6035 58.6238 53.6016C57.8961 53.603 57.1713 53.5093 56.4677 53.3228C56.4243 53.3148 56.3797 53.3148 56.3363 53.3228H56.2049C56.1511 53.3305 56.0964 53.3305 56.0426 53.3228C55.9188 53.3323 55.7946 53.3094 55.6822 53.2564C55.5698 53.2035 55.473 53.1222 55.4012 53.0206C54.9506 52.1479 54.4339 51.3113 53.8556 50.518C53.6039 50.1731 53.3106 49.8609 52.9823 49.5883C52.8509 49.4721 52.7118 49.3712 52.5727 49.2705L52.4104 49.1699L52.1013 48.9995L51.769 48.8445L51.6299 48.798C51.4332 48.7326 51.2316 48.6834 51.027 48.6508H50.8493H50.6484H50.262H50.1151L49.7365 48.767L49.4583 48.8831L49.2496 48.9995L48.8941 49.2242C48.4767 49.5186 48.1213 49.8517 47.7039 50.1849C47.621 50.2584 47.5131 50.2971 47.4025 50.2933H47.2248H47.1166C47.017 50.2928 46.9193 50.3208 46.8349 50.3739C46.7505 50.427 46.6828 50.503 46.6399 50.5931C46.5969 50.6832 46.5805 50.7839 46.5924 50.8831C46.6042 50.9823 46.644 51.076 46.707 51.1534L47.0548 51.5949C48.0747 52.9369 48.8588 54.4435 49.3732 56.0499C49.4082 56.148 49.4231 56.2522 49.417 56.3562C49.4109 56.4601 49.384 56.5619 49.3378 56.6552C49.2916 56.7485 49.2272 56.8315 49.1483 56.8992C49.0694 56.967 48.9777 57.018 48.8786 57.0494C48.804 57.0749 48.7256 57.088 48.6468 57.0882C48.4773 57.0965 48.3098 57.0486 48.1701 56.952C48.0304 56.8554 47.9263 56.7154 47.8739 56.5536C47.4752 55.2651 46.8781 54.047 46.1042 52.9432C45.7408 52.3978 45.3378 51.8798 44.8986 51.3936C44.479 50.9349 44.0099 50.5243 43.4998 50.1694L43.0979 49.9524L42.8893 49.8671C42.8229 49.8399 42.7523 49.8243 42.6806 49.8208V49.8208C42.6806 49.8208 42.6807 49.8208 42.6034 49.8208C42.5395 49.8092 42.4741 49.8092 42.4102 49.8208V49.8208C41.9233 49.8208 41.7456 49.9989 41.6837 50.1694L41.5523 50.3631C41.4978 50.4689 41.4488 50.5775 41.4055 50.6884C41.3603 50.7643 41.3313 50.8488 41.3205 50.9364C40.9334 52.2524 40.7971 53.6297 40.9186 54.9963C40.9111 55.0321 40.9111 55.0689 40.9186 55.1047C40.912 55.1779 40.921 55.2518 40.945 55.3213C40.969 55.3907 41.0074 55.4541 41.0578 55.5076C41.8924 56.4296 42.6033 57.3981 43.2448 58.2194C43.325 58.3099 43.3767 58.4223 43.3932 58.5422C43.4097 58.6622 43.3903 58.7846 43.3375 58.8935C43.2547 59.0389 43.1357 59.1604 42.9921 59.2459C42.8486 59.3315 42.6853 59.3781 42.5183 59.3815C42.3976 59.3824 42.2786 59.3532 42.172 59.2964C42.0654 59.2396 41.9746 59.157 41.9078 59.0562C40.9004 57.6944 39.7501 56.4449 38.4765 55.3294C37.7037 54.6941 36.6759 53.927 35.818 53.927C35.4471 53.927 34.5815 54.082 34.5042 55.4766C34.3574 58.382 35.5862 61.8377 37.7964 64.7277C41.0345 68.958 46.6529 71.4838 53.2528 71.662C53.3929 71.6667 53.5292 71.7095 53.6469 71.7859C53.727 71.8315 53.8176 71.8556 53.9097 71.8557L53.8478 71.8247Z" fill="#755C33"/>
</svg>
