<svg width="385" height="717" viewBox="0 0 385 717" fill="none" xmlns="http://www.w3.org/2000/svg">
<path d="M164.977 474.83C162.866 481.327 161.454 488.031 160.767 494.827C160.759 495.063 160.828 495.295 160.963 495.488C161.098 495.682 161.292 495.826 161.516 495.9C155.295 517.857 152.101 540.56 152.023 563.382C152.228 569.051 151.752 574.726 150.606 580.282C148.876 585.802 146.807 591.209 144.413 596.475C141.661 603.944 139.991 611.769 139.454 619.711C138.563 619.954 137.835 620.52 138.017 621.31C139.029 625.621 136.236 629.973 132.855 633.596C131.402 635.382 129.417 636.658 127.188 637.239C124.152 637.887 120.529 636.47 117.877 635.64C112.149 633.839 107.514 631.106 105.187 627.2C104.028 625.076 102.994 622.886 102.09 620.642L99.5397 614.975L100.046 615.663C97.9037 609.214 94.7023 603.167 90.5732 597.77C85.25 590.463 79.1981 583.339 76.2632 575.506C73.5403 567.532 73.0435 558.966 74.8262 550.731C76.9425 541.098 80.035 531.705 84.0558 522.698C84.4201 521.808 83.4891 521.201 82.4163 521.039C82.7536 508.166 83.1989 495.293 83.7522 482.42C83.7506 482.186 83.6782 481.959 83.5445 481.767C83.4108 481.576 83.222 481.429 83.0033 481.347C84.0153 471.005 81.2626 460.743 79.36 450.501C78.2632 445.296 77.7138 439.992 77.7205 434.673C77.9659 429.115 79.1569 423.639 81.2424 418.481L87.3145 402.086C87.78 400.811 88.2455 399.556 88.7313 398.301C89.0913 396.994 89.7033 395.77 90.5327 394.698C92.3543 392.674 96.6048 391.48 99.7421 390.448C114.254 385.713 129.565 383.924 144.777 385.185C152.671 385.894 160.666 387.776 166.313 391.541C171.494 394.981 174.672 399.94 173.093 404.758C172.709 405.911 174.449 406.64 175.785 406.458C184.408 429.289 171.879 452.505 164.977 474.83Z" fill="#F6A320"/>
<path d="M362.523 430.625C357.766 443.255 351.856 455.4 346.938 467.949C343.173 477.523 339.752 487.238 336.818 497.095L337.951 496.569C336.852 498.436 335.592 500.203 334.186 501.852C330.604 506.122 327.102 510.433 323.459 514.643C321.823 516.569 320.058 518.382 318.176 520.068C317.711 520.473 316.031 522.234 315.423 522.092C315.16 522.092 314.594 521.12 314.452 520.938C314.31 520.756 313.723 519.967 313.379 519.461C310.73 515.31 308.986 510.648 308.258 505.778C307.412 499.46 307.202 493.072 307.631 486.712C307.654 486.42 307.599 486.127 307.471 485.863C307.343 485.6 307.146 485.376 306.902 485.214C307.36 481.856 307.36 478.452 306.902 475.094C306.232 470.937 305.112 466.865 303.563 462.949C301.862 458.314 299.96 453.76 298.725 448.963C297.52 444.279 297.238 439.405 297.895 434.613C299.272 424.493 304.19 415.101 309.594 406.58C309.734 406.331 309.815 406.054 309.833 405.77C309.851 405.485 309.805 405.201 309.698 404.936C309.592 404.672 309.427 404.435 309.216 404.243C309.005 404.051 308.754 403.909 308.481 403.827C280.144 399.779 252.273 408.847 223.977 409.312C216.503 409.474 209.035 408.795 201.713 407.288C204.864 405.055 207.528 402.204 209.543 398.909C211.557 395.614 212.881 391.943 213.432 388.121C213.948 383.919 213.604 379.656 212.42 375.592C211.614 373.2 211.224 370.687 211.266 368.164C211.751 365.93 212.429 363.743 213.29 361.626C213.787 359.144 213.704 356.581 213.048 354.137C212.362 351.86 212.035 349.491 212.076 347.114C212.255 346.897 212.376 346.639 212.429 346.363C212.482 346.087 212.465 345.802 212.38 345.535C211.61 342.721 210.72 338.835 214.262 337.702C217.096 336.791 220.334 337.439 223.249 337.358C227.297 337.236 231.223 336.589 235.211 336.265C239.198 335.941 243.59 335.9 247.78 335.9C264.175 335.9 280.549 336.022 296.924 336.103C301.458 336.103 305.991 336.103 310.505 336.346C315.007 336.737 319.434 337.745 323.661 339.341H323.884C324.014 339.396 324.15 339.436 324.289 339.463C334.672 341.669 346.25 344.361 351.978 354.38C355.216 360.047 357.058 366.524 359.284 372.718C361.653 379.215 364.304 385.692 366.247 392.331C370.032 405.285 367.239 418.279 362.523 430.625Z" fill="#F6A320"/>
<path d="M179.145 403.886C178.998 403.614 178.782 403.386 178.519 403.222C178.257 403.059 177.956 402.967 177.647 402.955C177.683 400.927 177.261 398.916 176.413 397.073C175.565 395.23 174.313 393.601 172.749 392.309C167.698 388.012 161.615 385.103 155.099 383.869C142.136 381.327 128.813 381.224 115.813 383.565L114.173 383.949L111.663 384.415C110.024 384.739 108.425 385.164 106.826 385.569C106.037 385.771 105.267 385.974 104.458 386.135C103.683 386.269 102.918 386.459 102.171 386.702C100.894 387.311 99.5267 387.707 98.1225 387.876L96.3009 388.483C92.8195 389.698 88.9536 390.993 86.9296 393.26C85.2021 395.626 83.9384 398.298 83.2053 401.134C82.0921 404.109 80.9991 407.064 79.8859 410.019C77.5398 415.525 75.6181 421.202 74.1376 427.001C73.106 432.635 73.0239 438.402 73.8948 444.064C75.5747 456.795 79.9669 469.425 78.5096 482.237C78.4915 482.485 78.5604 482.732 78.7044 482.935C78.8484 483.138 79.0586 483.285 79.2989 483.35C78.7457 496.574 78.2937 509.798 77.9428 523.021C77.95 523.292 78.0475 523.553 78.2199 523.762C78.3922 523.971 78.6296 524.116 78.8941 524.175C72.6803 539.537 66.7499 555.528 70.5753 571.437C72.4577 579.533 77.4773 586.92 83.0029 594.247C87.7866 600.087 91.7561 606.549 94.8031 613.456C94.6852 613.585 94.6102 613.748 94.5885 613.922C94.5667 614.096 94.5993 614.272 94.6816 614.427C96.564 618.637 98.2642 622.908 100.41 627.077C102.563 630.994 105.93 634.105 110.004 635.943C112.544 637.112 115.178 638.066 117.877 638.796C120.69 639.788 123.659 640.262 126.641 640.193C128.853 639.929 130.984 639.202 132.896 638.058C134.807 636.914 136.455 635.379 137.733 633.554C140.228 630.843 141.806 627.416 142.247 623.758H143.279C143.535 618.675 144.144 613.617 145.101 608.618C146.368 602.798 148.24 597.127 150.687 591.697C153.185 586.287 154.87 580.537 155.686 574.634C156.334 568.785 156.091 562.895 156.253 557.025C156.415 551.156 156.759 545.245 157.346 539.355C158.546 527.333 160.65 515.418 163.641 503.712C164.349 500.878 165.139 498.045 165.948 495.231C166.13 494.604 165.725 494.118 165.098 493.814C167.466 470.052 182.606 447.525 182.93 423.58C183.082 416.821 181.791 410.108 179.145 403.886ZM164.977 474.829C162.865 481.326 161.454 488.03 160.767 494.826C160.759 495.062 160.828 495.294 160.963 495.487C161.098 495.681 161.292 495.825 161.515 495.899C155.294 517.856 152.101 540.56 152.023 563.381C152.227 569.051 151.752 574.725 150.606 580.282C148.875 585.801 146.807 591.209 144.412 596.474C141.661 603.943 139.991 611.768 139.453 619.71C138.563 619.953 137.834 620.52 138.016 621.309C139.028 625.62 136.235 629.972 132.855 633.595C131.401 635.381 129.416 636.657 127.188 637.238C124.152 637.886 120.529 636.469 117.877 635.639C112.149 633.838 107.514 631.105 105.186 627.199C104.027 625.075 102.993 622.885 102.09 620.641L99.5393 614.974L100.045 615.662C97.9033 609.213 94.702 603.166 90.5728 597.769C85.2496 590.463 79.1977 583.338 76.2629 575.505C73.54 567.531 73.0431 558.965 74.8258 550.73C76.9421 541.097 80.0346 531.704 84.0554 522.697C84.4198 521.807 83.4887 521.2 82.416 521.038C82.7533 508.165 83.1986 495.292 83.7518 482.419C83.7503 482.185 83.6779 481.958 83.5441 481.766C83.4104 481.575 83.2217 481.428 83.0029 481.346C84.015 471.004 81.2623 460.742 79.3597 450.5C78.2629 445.296 77.7134 439.991 77.7202 434.672C77.9656 429.114 79.1566 423.638 81.242 418.48L87.3141 402.085C87.7797 400.81 88.2452 399.555 88.731 398.3C89.091 396.993 89.7029 395.769 90.5324 394.697C92.354 392.673 96.6045 391.479 99.7417 390.447C114.253 385.712 129.564 383.923 144.777 385.184C152.67 385.893 160.665 387.775 166.312 391.54C171.494 394.98 174.672 399.939 173.093 404.757C172.708 405.91 174.449 406.639 175.785 406.457C184.407 429.288 171.879 452.504 164.977 474.829Z" fill="#755C33"/>
<path d="M370.619 394.131C368.759 387.401 366.508 380.785 363.879 374.316C361.511 367.819 359.446 361.058 356.471 354.824C353.727 348.957 349.055 344.206 343.234 341.365C337.529 338.769 331.516 336.912 325.341 335.839H325.037L324.714 335.677C316.617 332.742 308.177 332.56 299.595 332.519H272.878C263.992 332.519 255.107 332.398 246.242 332.418C241.829 332.418 237.437 332.56 233.065 333.005C228.894 333.591 224.687 333.875 220.476 333.855C217.176 333.754 213.351 333.592 210.659 335.879C207.663 338.43 207.967 342.397 208.837 345.878C208.109 350.23 209.991 354.096 210.193 358.387C210.107 360.503 209.561 362.575 208.594 364.459C207.777 366.648 207.527 369.008 207.866 371.32C208.412 375.692 210.214 379.761 210.214 384.213C210.209 388.004 209.336 391.742 207.663 395.143C205.785 399.026 202.898 402.332 199.304 404.717C198.598 406.679 198.598 408.827 199.304 410.789C227.297 417.307 255.491 408.765 283.484 406.984C290.664 406.451 297.877 406.545 305.04 407.267C300.587 414.219 297.273 421.838 295.223 429.835C294.149 434.263 293.787 438.834 294.151 443.376C294.636 447.837 295.691 452.218 297.288 456.411C300.243 464.73 304.17 472.927 303.704 481.995C303.57 484.083 303.292 486.159 302.874 488.209L303.664 488.978L304.028 489.383C303.745 500.616 304.028 512.639 310.788 522.071C312.246 524.095 314.006 526.706 316.86 525.755C318.003 525.266 319.051 524.581 319.957 523.731C321.202 522.695 322.391 521.593 323.519 520.431C327.912 515.918 331.798 510.837 335.826 506.02C338.141 503.553 340.178 500.838 341.898 497.924C343.478 494.841 344.31 491.43 344.327 487.966C344.329 487.688 344.274 487.412 344.165 487.156C345.838 482.191 347.612 477.272 349.488 472.401C354.467 459.407 360.438 446.878 365.518 433.944C370.234 421.233 373.736 407.611 370.619 394.131ZM362.685 430.564C357.928 443.194 352.018 455.338 347.1 467.887C343.335 477.461 339.914 487.176 336.979 497.034L338.113 496.507C337.014 498.374 335.754 500.142 334.348 501.79C330.766 506.061 327.264 510.372 323.621 514.582C321.985 516.508 320.22 518.32 318.338 520.006C317.872 520.411 316.192 522.172 315.585 522.03C315.322 522.03 314.755 521.059 314.614 520.877C314.472 520.694 313.885 519.905 313.541 519.399C310.892 515.248 309.147 510.586 308.42 505.717C307.574 499.398 307.363 493.011 307.793 486.65C307.816 486.358 307.761 486.065 307.633 485.802C307.505 485.538 307.308 485.314 307.064 485.152C307.521 481.795 307.521 478.39 307.064 475.032C306.394 470.875 305.274 466.803 303.724 462.888C302.024 458.253 300.122 453.699 298.887 448.902C297.681 444.218 297.4 439.343 298.057 434.551C299.433 424.431 304.352 415.04 309.756 406.518C309.895 406.27 309.977 405.993 309.995 405.708C310.013 405.424 309.967 405.139 309.86 404.875C309.753 404.611 309.588 404.374 309.378 404.182C309.167 403.99 308.916 403.848 308.643 403.766C280.306 399.718 252.435 408.785 224.139 409.251C216.665 409.413 209.197 408.734 201.875 407.227C205.026 404.993 207.69 402.143 209.704 398.847C211.719 395.552 213.042 391.882 213.594 388.059C214.11 383.857 213.765 379.595 212.582 375.53C211.776 373.138 211.386 370.626 211.428 368.102C211.913 365.869 212.59 363.681 213.452 361.564C213.949 359.083 213.866 356.52 213.209 354.076C212.524 351.799 212.196 349.429 212.238 347.052C212.416 346.835 212.538 346.577 212.591 346.301C212.644 346.026 212.627 345.741 212.541 345.473C211.772 342.66 210.882 338.774 214.424 337.64C217.257 336.729 220.496 337.377 223.41 337.296C227.458 337.175 231.385 336.527 235.372 336.203C239.36 335.879 243.752 335.839 247.942 335.839C264.336 335.839 280.711 335.96 297.085 336.041C301.619 336.041 306.153 336.041 310.667 336.284C315.117 336.709 319.488 337.737 323.661 339.34H323.884C324.014 339.395 324.15 339.436 324.289 339.462C334.672 341.668 346.249 344.36 351.977 354.379C355.216 360.046 357.058 366.523 359.284 372.717C361.652 379.214 364.304 385.691 366.247 392.33C370.032 405.284 367.239 418.278 362.523 430.625L362.685 430.564Z" fill="#755C33"/>
<path d="M299.21 501.264C300.749 497.56 301.113 492.135 304.149 489.383C304.818 489.377 305.466 489.149 305.991 488.735C308.077 487.094 310.519 485.967 313.121 485.443C315.722 484.919 318.41 485.013 320.969 485.719C325.462 486.974 328.64 490.617 332.911 492.338C334.967 492.93 337.087 493.277 339.226 493.37C342.667 493.957 342.059 496.629 341.553 499.564C340.434 504.781 338.953 509.914 337.121 514.926C334.246 523.893 338.841 529.823 346.816 533.567C351.559 535.777 356.456 537.637 361.47 539.133C365.822 540.449 370.659 541.158 374.768 543.06C379.848 545.53 382.034 550.772 377.298 554.921C373.721 557.652 369.369 559.176 364.87 559.273C354.75 560.022 344.63 556.601 334.51 556.034C328.832 555.815 323.146 556.133 317.528 556.986C313.055 557.593 308.015 559.334 303.522 559.01C299.028 558.686 294.009 554.334 290.932 551.46C287.781 548.722 285.478 545.14 284.293 541.137C281.763 531.341 287.673 521.727 292.531 513.691C295.064 509.721 297.297 505.567 299.21 501.264Z" fill="#FFD900"/>
<path d="M284.112 551.298C288.929 558.139 297.349 565.041 305.263 565.041C305.9 565.034 306.535 564.987 307.166 564.899L312.793 564.009C317.361 563.185 321.968 562.59 326.597 562.227C327.993 562.227 329.37 562.106 330.746 562.106C335.898 562.144 341.037 562.618 346.108 563.523L346.776 563.644C352.162 564.695 357.625 565.304 363.11 565.466C368.354 565.648 373.55 564.41 378.149 561.883C380.036 560.892 381.648 559.449 382.842 557.683C384.036 555.918 384.774 553.884 384.99 551.763C385.068 549.959 384.688 548.164 383.885 546.546C383.081 544.929 381.881 543.541 380.396 542.513C376.994 540.256 373.163 538.727 369.142 538.02L366.754 537.413C360.394 535.802 354.221 533.53 348.335 530.632C346.048 529.479 342.587 527.697 341.554 524.337C340.964 521.328 341.421 518.207 342.85 515.492C343.093 514.885 343.315 514.319 343.518 513.752C345.464 508.811 346.651 503.604 347.039 498.308C347.039 496.811 346.797 491.872 342.506 490.738C341.563 490.528 340.597 490.433 339.632 490.455C338.029 490.504 336.434 490.236 334.936 489.666C333.326 488.92 331.806 487.997 330.402 486.913C329.693 486.407 328.985 485.901 328.236 485.435C324.968 483.401 321.196 482.321 317.347 482.318C312.366 482.363 307.54 484.057 303.624 487.136C303.347 487.353 303.004 487.467 302.652 487.46C302.293 487.45 301.945 487.58 301.681 487.824C299.11 490.05 298.118 493.491 297.046 497.114C296.517 499.098 295.841 501.04 295.022 502.923C293.32 506.394 291.435 509.772 289.375 513.043C288.059 515.229 286.743 517.395 285.529 519.642C280.833 528.406 276.785 540.934 284.112 551.298ZM368.575 562.106C369.85 560.689 370.781 558.989 372.057 557.552C374.364 554.961 377.42 555.528 380.375 556.317C379.972 556.846 379.518 557.335 379.019 557.775C376.026 560.178 372.411 561.68 368.596 562.106H368.575ZM331.778 559.191C338.478 555.933 345.218 557.835 351.472 561.215L352.363 561.681C350.642 561.438 348.942 561.155 347.262 560.871C343.248 560.099 339.194 559.559 335.118 559.252C334.005 559.212 332.891 559.191 331.778 559.191ZM292.006 555.629C299.353 553.382 306.66 557.876 313.481 560.244L315.201 560.77L313.724 561.094C310.932 561.786 308.077 562.193 305.203 562.308H304.11C299.9 561.985 295.406 558.665 292.006 555.629ZM283.464 543.222C280.793 532.94 286.824 522.981 291.662 514.885L291.864 514.541C294.352 510.621 296.544 506.521 298.422 502.275C298.903 501.035 299.302 499.763 299.616 498.47C300.17 495.266 301.607 492.28 303.765 489.848C304.032 489.59 304.387 489.445 304.757 489.443C305.089 489.445 305.412 489.33 305.668 489.119C308.936 486.515 312.986 485.089 317.165 485.071C318.82 485.067 320.469 485.292 322.063 485.739C324.621 486.588 327.021 487.853 329.167 489.484C330.721 490.642 332.398 491.626 334.167 492.418C335.316 492.836 336.526 493.062 337.749 493.086C338.557 493.126 339.361 493.214 340.158 493.349C344.307 494.078 344.388 497.155 344.044 499.725C337.729 495.09 329.471 495.677 322.124 497.357C320.099 497.802 320.99 500.838 322.953 500.393C329.592 498.875 337.587 497.985 343.194 502.903C343.282 502.989 343.385 503.057 343.497 503.105C343.174 504.623 342.809 506.121 342.384 507.599C340.549 507.027 338.799 506.21 337.182 505.17C335.102 504.303 332.855 503.909 330.604 504.016C326.318 503.83 322.103 505.163 318.703 507.781C317.144 509.096 319.391 511.323 320.929 510.027C324.06 507.783 327.907 506.767 331.738 507.174C333.788 507.245 335.784 507.852 337.526 508.935C338.737 509.697 340.053 510.277 341.433 510.655C341.129 511.606 340.826 512.537 340.502 513.468C340.178 514.399 340.097 514.744 339.874 515.492C331.521 512.642 322.409 512.981 314.29 516.444C314.111 516.546 313.954 516.684 313.829 516.847C313.703 517.011 313.611 517.198 313.559 517.398C313.506 517.597 313.493 517.806 313.522 518.01C313.55 518.215 313.619 518.412 313.724 518.589C313.939 518.943 314.282 519.2 314.682 519.305C315.082 519.411 315.508 519.357 315.869 519.156C323.248 516.113 331.487 515.883 339.024 518.508C338.766 519.576 338.631 520.669 338.619 521.767C335.147 520.364 331.282 520.277 327.75 521.524C323.958 523.223 320.405 525.415 317.185 528.041C316.827 528.253 316.567 528.596 316.461 528.998C316.355 529.399 316.411 529.827 316.618 530.187C316.721 530.366 316.858 530.523 317.022 530.649C317.186 530.774 317.373 530.866 317.572 530.919C317.772 530.972 317.98 530.984 318.185 530.956C318.389 530.928 318.586 530.859 318.764 530.754C321.711 528.389 324.908 526.353 328.297 524.681C331.92 522.981 335.381 523.953 339.004 525.187H339.227C340.401 528.608 343.275 531.442 348.234 533.729C352.914 535.905 357.743 537.745 362.685 539.234C364.163 539.68 365.681 540.044 367.219 540.388C370.31 541.01 373.323 541.967 376.206 543.242C377.721 543.871 379.058 544.862 380.099 546.129C381.14 547.396 381.854 548.9 382.177 550.508C382.293 551.474 382.203 552.454 381.914 553.382C378.695 552.411 375.032 551.621 371.976 553.382C369.446 554.941 368.312 557.714 366.369 559.819C361.532 565.061 353.638 558.26 348.74 556.236C345.681 554.902 342.399 554.153 339.065 554.03C335.841 554.101 332.682 554.948 329.855 556.5C326.71 558.271 323.062 558.941 319.492 558.402C316.006 557.686 312.611 556.579 309.372 555.103C303.3 552.613 296.499 550.225 290.063 552.795C289.881 552.869 289.715 552.98 289.577 553.119C286.698 550.42 284.589 547.004 283.464 543.222Z" fill="#222114"/>
<path d="M292.005 554.475C299.352 552.228 306.659 556.722 313.48 559.07C314.047 559.272 314.634 559.454 315.2 559.616L313.723 559.94C310.931 560.632 308.076 561.039 305.202 561.154H304.109C299.899 560.85 295.405 557.491 292.005 554.475Z" fill="#E12613"/>
<path d="M167.224 704.519C161.516 697.779 150.344 701.28 149.534 709.518C146.029 708.859 142.706 707.458 139.788 705.409C136.869 703.36 134.423 700.71 132.613 697.637C129.314 692.354 126.885 686.687 122.756 681.971C116.056 674.32 107.434 666.001 96.747 665.779C97.0708 662.095 96.747 658.391 96.747 654.687C96.7365 654.37 96.6384 654.061 96.4636 653.796C96.946 648.548 97.1352 643.278 97.0303 638.009C96.8482 632.929 94.4193 626.229 101.078 624.245C104.459 623.254 107.92 623.78 111.199 622.424C115.611 620.643 118.303 617.586 123.343 618.153H123.727C125.801 619.056 127.827 620.063 129.8 621.169C131.986 622.08 134.819 620.946 136.924 620.4C143.887 618.558 143.543 631.066 143.745 635.621C143.572 635.342 143.318 635.122 143.017 634.993C134.01 631.127 124.618 629.245 117.21 637.017C115.854 638.454 117.939 640.721 119.234 639.284C125.893 632.24 134.131 634.507 142.045 637.908C142.195 637.985 142.36 638.031 142.529 638.043C142.698 638.054 142.868 638.03 143.027 637.973C143.187 637.916 143.333 637.828 143.456 637.712C143.58 637.596 143.678 637.456 143.745 637.3C143.759 637.481 143.8 637.658 143.867 637.827C145.276 641.659 146.015 645.706 146.053 649.789C140.507 644.202 132.613 646.834 127.067 651.408C125.529 652.663 127.634 654.91 129.091 653.655C133.544 649.991 139.96 647.421 144.373 652.562C144.574 652.825 144.867 653.002 145.194 653.058C145.52 653.115 145.856 653.046 146.134 652.865L146.255 654.889C143.937 653.731 141.282 653.436 138.767 654.06C136.251 654.683 134.041 656.183 132.532 658.29C131.399 659.909 134.03 661.528 135.163 659.909C137.916 655.982 142.996 656.124 146.64 658.634C147.041 660.87 147.792 663.028 148.866 665.03C143.684 662.399 137.552 662.257 133.483 667.216C132.249 668.734 134.333 671.001 135.507 669.462C139.353 664.787 144.879 665.9 149.392 668.977C149.635 669.176 149.939 669.285 150.252 669.285C150.566 669.285 150.87 669.176 151.113 668.977C152.327 670.819 153.663 672.62 154.918 674.442C158.541 679.724 161.8 685.25 165.362 690.634C166.817 692.604 167.751 694.91 168.077 697.337C168.402 699.765 168.109 702.235 167.224 704.519Z" fill="#FDD821"/>
<path d="M164.309 681.81C162.285 678.43 160.261 674.928 158.035 671.69C155.181 667.54 152.205 663.836 151.031 658.837C149.27 651.368 150.728 643.94 147.813 636.573C147.845 636.392 147.845 636.207 147.813 636.026C147.429 630.258 147.914 623.092 143.765 618.559C141.741 616.332 138.604 616.697 135.952 617.405C134.576 617.819 133.12 617.892 131.709 617.617C130.298 617.342 128.976 616.727 127.856 615.826C126.255 614.832 124.396 614.332 122.513 614.389C122.171 614.385 121.837 614.491 121.561 614.693C117.918 615.017 115.226 616.899 111.684 618.741C107.069 621.19 101.564 619.611 97.1109 622.566C93.4676 624.995 93.4879 629.711 93.8522 633.597C94.3649 640.561 94.2904 647.555 93.6295 654.506C93.6077 654.703 93.6289 654.903 93.6918 655.092C93.7547 655.281 93.8578 655.454 93.9939 655.599C94.2532 660.589 93.9545 665.592 93.1033 670.516C92.6451 672.1 92.5546 673.767 92.8388 675.391C93.1229 677.015 93.7741 678.553 94.7428 679.887C96.6865 681.973 99.1985 683.443 101.969 684.117C107.237 685.548 112.092 688.204 116.137 691.87C116.217 691.955 116.314 692.023 116.42 692.072C116.411 692.112 116.411 692.153 116.42 692.193C118.991 700.998 123.241 710.511 132.37 714.174C142.497 718.037 153.736 717.761 163.661 713.405C163.865 713.506 164.094 713.545 164.32 713.52C164.545 713.495 164.759 713.406 164.937 713.264C165.544 712.818 166.11 712.373 166.657 711.907L167.345 711.523C167.539 711.422 167.707 711.279 167.836 711.103C167.966 710.928 168.054 710.725 168.094 710.511C170.854 707.562 172.401 703.681 172.425 699.642C172.79 692.396 167.952 687.578 164.309 681.81ZM135.972 712.171C126.419 709.742 122.047 700.229 119.638 691.525C119.544 691.184 119.337 690.885 119.051 690.675C119.003 690.324 118.83 690.001 118.566 689.764C113.743 685.489 107.981 682.411 101.746 680.778C95.6738 678.936 96.0786 674.038 96.8073 668.917C103.871 668.917 108.952 672.54 113.829 677.236C118.957 681.694 123.349 686.933 126.844 692.76C129.637 697.739 132.167 702.739 136.317 706.746C140.463 710.333 145.588 712.596 151.031 713.243C151.322 713.399 151.656 713.456 151.983 713.405C146.612 714.013 141.174 713.608 135.952 712.211L135.972 712.171ZM165.058 709.337C161.349 711.368 157.315 712.738 153.136 713.385C153.454 713.11 153.655 712.724 153.696 712.306C153.737 711.888 153.617 711.47 153.359 711.138C153.035 704.499 161.981 702.516 165.928 707.212C166.12 707.426 166.364 707.586 166.637 707.677C166.156 708.291 165.621 708.86 165.038 709.377L165.058 709.337ZM168.195 704.965C162.427 698.164 151.173 701.686 150.343 710.005C146.805 709.343 143.45 707.932 140.503 705.865C137.557 703.798 135.087 701.124 133.26 698.022C129.941 692.699 127.492 686.992 123.342 682.235C116.582 674.503 107.879 666.043 97.0299 665.84C97.3538 662.116 97.0299 658.392 97.0299 654.647C97.0195 654.33 96.9214 654.022 96.7466 653.757C97.2288 648.468 97.418 643.157 97.3133 637.848C97.1311 632.727 94.682 625.946 101.483 623.963C104.883 622.951 108.365 623.477 111.724 622.121C116.177 620.32 118.89 617.243 124.071 617.81H124.456C126.621 618.478 128.504 619.955 130.528 620.866C132.552 621.777 135.588 620.643 137.713 620.077C144.737 618.215 144.392 630.845 144.595 635.419C144.427 635.174 144.196 634.978 143.927 634.852C134.859 630.966 125.367 629.063 117.918 636.876C116.542 638.334 118.647 640.6 119.942 639.143C126.682 632.059 134.981 634.346 142.955 637.787C143.109 637.864 143.276 637.91 143.447 637.92C143.619 637.93 143.79 637.905 143.952 637.846C144.113 637.787 144.26 637.696 144.385 637.578C144.509 637.46 144.609 637.318 144.676 637.16C144.68 637.348 144.721 637.534 144.797 637.706C146.226 641.597 146.973 645.706 147.003 649.85C141.417 644.224 133.442 646.875 127.836 651.49C126.298 652.765 128.423 655.032 129.961 653.757C134.454 650.053 140.931 647.462 145.384 652.644C145.589 652.908 145.884 653.086 146.213 653.146C146.542 653.206 146.881 653.142 147.165 652.967L147.287 654.991C144.946 653.829 142.268 653.536 139.732 654.167C137.196 654.797 134.966 656.309 133.442 658.432C132.289 660.072 134.94 661.691 136.094 660.051C138.867 656.003 143.988 656.246 147.671 658.776C148.098 661.033 148.884 663.206 149.999 665.213C144.757 662.561 138.583 662.42 134.495 667.419C133.24 668.937 135.345 671.224 136.519 669.686C140.405 664.97 145.971 666.083 150.525 669.18C150.766 669.383 151.071 669.494 151.386 669.494C151.7 669.494 152.005 669.383 152.246 669.18C153.501 671.042 154.837 672.843 156.112 674.705C159.755 680.029 163.034 685.595 166.637 690.898C168.068 692.925 168.964 695.282 169.24 697.749C169.516 700.215 169.163 702.712 168.215 705.006L168.195 704.965Z" fill="#222114"/>
<path d="M154.047 676.787C152.011 674.874 149.636 673.357 147.044 672.314C144.397 671.766 141.651 671.933 139.09 672.8C138.713 672.912 138.392 673.163 138.192 673.502C137.992 673.842 137.928 674.244 138.013 674.628C138.098 675.013 138.324 675.351 138.648 675.575C138.972 675.799 139.368 675.892 139.758 675.836C141.979 675.074 144.368 674.941 146.66 675.451C148.807 676.449 150.76 677.82 152.428 679.499C154.047 680.694 155.586 678.042 154.047 676.787Z" fill="#222114"/>
<path d="M324.672 141.691C324.194 139.785 323.039 138.118 321.423 137.001C319.807 135.884 317.839 135.392 315.888 135.618C314.352 133.451 312.535 131.497 310.483 129.809C305.403 125.761 298.845 123.737 292.692 121.976C279.994 118.157 266.346 119.026 254.235 124.426C253.293 124.804 252.443 125.381 251.744 126.118C251.045 126.855 250.514 127.735 250.187 128.696C247.797 131.237 245.649 133.995 243.771 136.934C239.865 129.851 234.233 123.871 227.397 119.548C219.194 114.939 210.137 112.053 200.78 111.067C190.114 109.691 181.471 113.597 172.707 119.163C171.942 119.638 171.259 120.232 170.683 120.924C157.263 111.249 141.334 104.185 124.859 110.682C120.926 112.138 117.353 114.425 114.384 117.387C111.415 120.349 109.119 123.917 107.654 127.846C104.031 138.371 105.165 151.507 104.557 162.478C101.906 210.872 100.509 236.234 97.7567 284.628C97.6829 285.798 97.8552 286.97 98.2627 288.069L97.4733 312.176C97.1697 321.142 98.3437 328.145 107.088 332.416C124.717 340.877 145.342 339.318 164.165 336.97C168.505 336.735 172.858 336.993 177.14 337.739C176.998 336.586 176.856 335.452 176.735 334.298C175.942 327.487 175.604 320.631 175.723 313.775C175.83 299.978 176.857 286.204 178.799 272.545C179.892 265.987 181.269 259.449 182.706 252.932C184.143 246.415 185.782 239.675 187.624 233.117C188.356 230.289 189.338 227.532 190.559 224.879C191.725 222.463 193.121 220.165 194.728 218.017C198.002 213.719 202.003 210.027 206.549 207.108C208.94 205.509 211.507 204.192 214.2 203.181C216.729 202.336 219.367 201.859 222.033 201.764C225.636 201.562 229.218 201.764 232.821 201.946C232.821 201.036 232.821 200.388 232.821 200.125C250.632 201.622 270.488 204.679 289.494 207.148L294.413 207.29C297.71 207.418 301.006 207.001 304.168 206.055C306.819 205.277 309.252 203.891 311.273 202.007C312.238 201.07 313.014 199.957 313.56 198.728C314.155 197.232 314.384 195.615 314.228 194.012C313.985 190.652 312.71 187.414 312.872 184.013C312.869 183.958 312.88 183.903 312.903 183.853C312.927 183.803 312.961 183.76 313.005 183.726C313.049 183.692 313.1 183.669 313.154 183.659C313.208 183.65 313.264 183.653 313.317 183.669C313.327 183.609 313.327 183.547 313.317 183.487C314.673 179.095 318.843 175.391 321.089 171.343C323.608 166.879 325.222 161.962 325.836 156.874C326.451 151.785 326.055 146.626 324.672 141.691Z" fill="#F6A320"/>
<path d="M245.129 142.261L245.837 140.237C246.444 138.699 244.177 137.889 243.408 139.185C237.842 129.874 231.264 121.191 221.771 115.605C216.794 112.612 211.266 110.647 205.516 109.826C199.766 109.006 193.91 109.346 188.294 110.828C182.19 112.506 176.58 115.63 171.939 119.936C164.695 112.301 154.73 107.835 144.21 107.509C135.527 107.325 127.038 110.086 120.124 115.342C112.311 121.414 107.838 130.967 104.782 140.156C97.5154 162.117 100.956 185.211 102.171 207.78C103.385 230.348 102.171 229.781 99.9645 252.308C97.7583 274.836 95.9164 296.837 98.3655 319.102C98.6691 321.875 99.0537 324.627 99.499 327.38C99.7621 329.101 102.414 328.514 102.13 326.793C95.1878 283.863 105.268 263.947 105.227 220.956C105.227 199.258 100.956 177.439 103.952 155.802C105.24 145.229 108.766 135.052 114.295 125.948C119.058 118.472 126.579 113.177 135.223 111.213C139.859 110.142 144.661 109.997 149.353 110.785C154.046 111.574 158.536 113.28 162.568 115.807C170.683 120.93 176.825 128.649 179.995 137.707C180.562 139.326 183.213 138.76 182.647 137.12C180.67 131.561 177.662 126.424 173.781 121.98C177.738 118.367 182.416 115.635 187.506 113.964C192.597 112.292 197.984 111.72 203.312 112.285C214.547 113.647 224.855 119.198 232.175 127.83C235.98 132.387 239.335 137.301 242.194 142.504C240.599 147.316 239.599 152.306 239.219 157.361C239.238 157.694 239.379 158.008 239.616 158.244C239.853 158.479 240.168 158.619 240.501 158.637C240.834 158.654 241.163 158.548 241.423 158.339C241.683 158.13 241.856 157.832 241.911 157.502C242.246 153.192 243.047 148.93 244.299 144.791C244.544 144.812 244.789 144.763 245.008 144.651C245.226 144.539 245.409 144.368 245.536 144.157C245.662 143.947 245.727 143.705 245.723 143.459C245.719 143.213 245.646 142.974 245.513 142.767C245.412 142.686 245.27 142.484 245.129 142.261Z" fill="#755C33"/>
<path d="M313.663 178.307C316.09 175.92 318.23 173.257 320.039 170.373C321.944 167.472 323.239 164.214 323.845 160.797C324.45 157.38 324.354 153.875 323.561 150.497C323.095 148.817 320.464 149.383 320.909 151.084C321.64 154.156 321.726 157.347 321.162 160.454C320.597 163.562 319.395 166.519 317.63 169.138C315.981 171.734 314.039 174.131 311.842 176.283C310.02 178.125 307.47 179.744 306.255 182.092C304.231 186.14 307.551 189.5 309.838 192.435C310.609 193.192 311.194 194.119 311.545 195.141C311.896 196.163 312.005 197.253 311.862 198.325C311.334 199.72 310.431 200.942 309.252 201.856C308.073 202.771 306.665 203.342 305.182 203.506C301.998 204.019 298.768 204.188 295.548 204.012C292.107 204.012 288.686 203.749 285.266 203.446C278.384 202.838 271.563 201.847 264.722 200.936C250.916 199.112 237.012 198.125 223.087 197.981C207.34 197.819 191.593 198.466 175.866 199.134C174.146 199.134 173.984 201.907 175.745 201.847C194.346 201.057 212.947 200.369 231.507 200.976V201.239H231.953C231.953 201.523 231.953 201.786 231.953 202.069H234.645L234.766 201.057C234.935 201.047 235.104 201.047 235.272 201.057C244.522 201.442 253.772 202.15 263.022 203.365C270.187 204.296 277.332 205.389 284.537 206.016C291.329 206.94 298.21 207.015 305.02 206.239C309.979 205.449 315.606 201.745 314.716 195.997C314.259 193.976 313.298 192.103 311.922 190.552C310.407 189.072 309.227 187.285 308.461 185.31C308.371 184.623 308.471 183.924 308.749 183.289C309.027 182.654 309.474 182.107 310.04 181.707C311.174 180.594 312.469 179.44 313.663 178.307Z" fill="#755C33"/>
<path d="M326.496 150.802C321.341 130.454 316.537 110.011 312.084 89.4738C312.048 89.2964 311.974 89.1286 311.868 88.9814C311.762 88.8342 311.627 88.7108 311.47 88.6192C311.314 88.5276 311.14 88.47 310.96 88.4498C310.78 88.4297 310.597 88.4476 310.425 88.5023C310.425 88.1785 310.425 87.8547 310.425 87.5308C313.927 85.6865 316.981 83.0954 319.371 79.9407C322.265 75.6295 322.731 56.6845 322.792 51.6041C322.792 48.8919 322.792 46.1999 322.792 43.5079C322.881 40.9396 322.704 38.3689 322.265 35.8368C321.415 32.1328 318.318 28.1049 314.048 28.7323C312.671 28.9681 311.423 29.6854 310.526 30.7564C309.817 28.0644 308.502 25.7369 305.486 25.2916C304.265 25.1802 303.035 25.384 301.916 25.8837C300.796 26.3834 299.823 27.1622 299.09 28.1454C298.6 28.7652 298.192 29.4455 297.876 30.1695C297.161 29.0089 296.156 28.0549 294.96 27.4017C293.763 26.7486 292.417 26.4189 291.055 26.4452C289.907 26.5039 288.789 26.8223 287.782 27.3763C286.776 27.9302 285.909 28.7053 285.246 29.6432C284.818 28.4414 284.055 27.3872 283.047 26.6053C282.039 25.8233 280.828 25.3464 279.558 25.2308C278.545 25.1154 277.52 25.2993 276.61 25.7597C275.7 26.2201 274.945 26.9369 274.437 27.8216C272.819 30.5008 271.386 33.2869 270.146 36.1607C267.616 41.7673 265.369 61.2588 266.382 67.4119C267.394 73.5649 270.43 79.0905 273.506 84.4137C273.549 84.4845 273.596 84.5522 273.648 84.6162C273.648 84.6162 273.648 84.6162 273.648 84.7376C265.886 98.7869 259.024 113.315 253.104 128.234C251.606 131.979 250.068 135.723 248.793 139.549C247.517 143.374 250.331 144.528 253.124 146.026C257.933 148.635 263.158 150.388 268.567 151.207C269.27 151.441 270.025 151.468 270.743 151.285C271.461 151.102 272.111 150.717 272.616 150.175C273.628 148.819 272.98 147.159 273.466 145.661C273.745 144.939 274.208 144.303 274.807 143.813C275.407 143.324 276.123 142.998 276.886 142.868C280.408 142.322 282.068 146.795 280.185 149.325C280.077 149.499 280.009 149.696 279.986 149.901C279.964 150.105 279.987 150.312 280.055 150.506C280.123 150.701 280.234 150.877 280.379 151.023C280.524 151.169 280.7 151.28 280.894 151.349C287.638 154.084 295.011 154.89 302.187 153.676C302.439 153.609 302.667 153.471 302.843 153.28C303.02 153.088 303.139 152.85 303.185 152.593C303.232 152.336 303.205 152.072 303.107 151.83C303.009 151.588 302.844 151.379 302.632 151.227C299.556 148.94 296.013 146.329 295.427 142.241C295.296 141.52 295.325 140.78 295.512 140.073C295.699 139.365 296.039 138.707 296.509 138.146C296.978 137.584 297.564 137.132 298.227 136.822C298.89 136.512 299.613 136.351 300.345 136.351C307.733 135.845 309.089 144.71 306.417 149.892C306.053 150.6 306.174 151.733 307.105 151.916C313.188 153.241 319.468 153.386 325.605 152.341C325.914 152.234 326.174 152.02 326.337 151.738C326.501 151.455 326.557 151.123 326.496 150.802Z" fill="#FDD821"/>
<path d="M326.738 147.947C321.583 127.585 316.779 107.142 312.326 86.6183C312.244 86.2742 312.03 85.9759 311.731 85.7873C311.431 85.5986 311.07 85.5343 310.724 85.6082C310.378 85.6822 310.075 85.8885 309.879 86.1831C309.683 86.4776 309.61 86.8372 309.675 87.185C314.033 107.25 318.756 127.227 323.843 147.117C319.136 147.779 314.352 147.684 309.675 146.834C310.429 145.097 310.801 143.219 310.766 141.326C310.731 139.434 310.29 137.571 309.472 135.863C308.59 134.171 307.212 132.788 305.523 131.899C303.835 131.009 301.915 130.655 300.02 130.884C298.077 131.019 296.259 131.893 294.941 133.328C293.623 134.762 292.906 136.648 292.936 138.596C292.936 142.866 295.669 146.004 298.745 148.594C293.586 148.998 288.399 148.308 283.524 146.57C285.123 142.522 282.209 137.078 277.452 137.381C276.147 137.473 274.892 137.919 273.822 138.672C272.752 139.424 271.907 140.455 271.38 141.652C271.12 142.297 270.97 142.981 270.935 143.676C270.935 144.162 271.137 145.073 270.935 145.477C270.166 146.692 265.854 145.133 264.721 144.83C260.95 143.838 257.324 142.362 253.933 140.437C253.427 140.134 251.909 139.527 251.625 138.96C251.342 138.393 251.949 137.118 252.172 136.47C252.901 134.446 253.649 132.422 254.419 130.398C257.32 122.842 260.45 115.42 263.81 108.134C267.656 99.7543 271.812 91.5164 276.278 83.4203C276.42 83.1828 276.484 82.9074 276.462 82.6319C276.44 82.3563 276.334 82.0943 276.157 81.882C276.365 81.6988 276.501 81.448 276.542 81.1739C276.583 80.8997 276.525 80.62 276.379 80.3842C273.793 76.2354 271.714 71.7912 270.186 67.147C268.769 62.1679 269.72 43.7086 271.36 38.8105C272.194 36.3896 273.195 34.0294 274.355 31.7466C274.922 30.6333 275.509 29.5404 276.096 28.4474C276.399 27.4273 276.879 26.4682 277.513 25.6137C278.97 24.379 281.237 25.3708 282.31 26.6662C283.178 27.8472 283.691 29.2517 283.787 30.7143C283.592 32.0148 283.724 33.3437 284.172 34.5802C284.31 34.8404 284.53 35.0484 284.797 35.1728C285.065 35.2971 285.365 35.331 285.653 35.2692C285.942 35.2075 286.202 35.0534 286.395 34.8304C286.588 34.6075 286.703 34.3278 286.722 34.0336C286.686 32.9499 286.591 31.8689 286.439 30.7952C286.688 29.6114 287.317 28.5415 288.231 27.7485C289.144 26.9556 290.292 26.4831 291.499 26.4031C292.943 26.5265 294.291 27.176 295.287 28.2283C296.284 29.2807 296.859 30.6624 296.903 32.1109C296.903 32.7586 296.761 33.4063 296.701 34.1349C296.695 34.4561 296.803 34.7688 297.006 35.0176C297.21 35.2664 297.495 35.435 297.81 35.4933C298.126 35.5517 298.453 35.4959 298.731 35.3361C299.01 35.1763 299.223 34.9228 299.332 34.6207C299.497 33.9587 299.578 33.2788 299.575 32.5966C299.66 30.824 300.182 29.0998 301.093 27.5769C301.555 26.7251 302.296 26.0586 303.192 25.6899C304.088 25.3212 305.084 25.2728 306.011 25.5529C308.4 26.6661 308.541 30.4106 308.987 33.143C309.034 33.6337 309.143 34.1165 309.311 34.5802L309.432 34.9242C309.581 35.2231 309.835 35.4566 310.145 35.5798C310.456 35.7031 310.801 35.7075 311.114 35.5922C311.428 35.4768 311.687 35.2499 311.844 34.9548C312 34.6598 312.042 34.3174 311.962 33.9932C311.841 33.5884 311.719 33.1431 311.618 32.6775C311.545 31.8366 311.77 30.9967 312.253 30.3045C312.736 29.6123 313.447 29.1116 314.261 28.8899C315.076 28.6682 315.942 28.7396 316.709 29.0915C317.477 29.4434 318.096 30.0536 318.459 30.8155C319.745 32.9449 320.345 35.4178 320.18 37.8996C320.18 40.5713 320.18 43.2633 320.18 45.9958C320.18 48.7282 319.451 64.6777 319.35 67.2482C319.411 69.8201 318.892 72.3728 317.832 74.7169C315.808 78.6031 311.76 80.9711 308.157 83.1369C306.679 84.0275 307.894 86.4361 309.412 85.5455C313.357 83.5792 316.814 80.7582 319.532 77.2875C322.426 72.9763 322.872 54.0312 322.932 49.0521C322.932 46.3601 322.932 43.6681 322.932 40.9559C323.031 38.3942 322.854 35.8292 322.406 33.305C321.556 29.5808 318.479 25.5731 314.209 26.2006C312.825 26.4335 311.57 27.1509 310.667 28.2246C309.978 25.5529 308.764 23.2051 305.627 22.7598C304.409 22.652 303.184 22.8576 302.068 23.3571C300.952 23.8567 299.982 24.6335 299.251 25.6137C298.749 26.2289 298.334 26.9099 298.016 27.6377C297.311 26.4731 296.311 25.5154 295.117 24.8614C293.922 24.2075 292.577 23.8804 291.216 23.9134C290.067 23.9698 288.947 24.2849 287.937 24.8351C286.928 25.3854 286.056 26.1566 285.386 27.0912C284.954 25.892 284.19 24.8405 283.183 24.0592C282.176 23.2779 280.968 22.7991 279.699 22.6788C278.684 22.5732 277.661 22.7636 276.752 23.2269C275.844 23.6902 275.088 24.4067 274.578 25.2899C272.951 27.9605 271.523 30.7478 270.307 33.6289C267.757 39.2153 265.531 58.7068 266.543 64.8598C267.555 71.0129 270.591 76.5385 273.667 81.8617C273.702 81.943 273.75 82.0183 273.809 82.0845L273.708 82.1856C265.996 96.1613 259.155 110.6 253.224 125.419C251.747 129.164 250.188 132.928 248.933 136.754C247.679 140.579 250.451 141.713 253.265 143.231C258.078 145.813 263.292 147.564 268.688 148.412C269.393 148.624 270.142 148.641 270.856 148.459C271.569 148.277 272.219 147.904 272.736 147.38C273.728 146.024 273.08 144.344 273.586 142.866C273.854 142.141 274.31 141.499 274.907 141.008C275.505 140.517 276.223 140.195 276.987 140.073C280.508 139.527 282.188 144 280.306 146.51C280.193 146.682 280.121 146.878 280.095 147.082C280.069 147.287 280.09 147.494 280.156 147.689C280.223 147.885 280.333 148.062 280.478 148.208C280.623 148.355 280.8 148.466 280.994 148.534C287.74 151.264 295.109 152.077 302.287 150.882C302.545 150.822 302.779 150.688 302.962 150.496C303.144 150.304 303.267 150.064 303.314 149.803C303.362 149.543 303.332 149.274 303.228 149.031C303.125 148.787 302.953 148.579 302.732 148.432C299.656 146.145 296.114 143.514 295.527 139.446C295.397 138.725 295.426 137.984 295.613 137.275C295.8 136.567 296.14 135.908 296.608 135.344C297.077 134.781 297.664 134.327 298.326 134.015C298.989 133.702 299.712 133.539 300.445 133.536C307.853 133.03 309.189 141.915 306.517 147.097C306.409 147.271 306.341 147.468 306.318 147.673C306.295 147.877 306.319 148.084 306.387 148.278C306.455 148.472 306.566 148.649 306.711 148.795C306.856 148.94 307.032 149.052 307.226 149.121C313.299 150.462 319.575 150.613 325.705 149.566C325.879 149.528 326.044 149.455 326.191 149.353C326.337 149.251 326.461 149.121 326.557 148.97C326.653 148.82 326.719 148.652 326.749 148.477C326.78 148.301 326.776 148.121 326.738 147.947Z" fill="#755C33"/>
<path fill-rule="evenodd" clip-rule="evenodd" d="M228.672 54.8601C226.466 54.1517 227.356 50.1239 227.093 48.282C226.971 47.445 226.781 46.6191 226.526 45.8126C228.975 30.3894 221.426 13.428 206.772 7.53803C204.702 6.13658 202.399 5.11535 199.971 4.52223C190.366 1.87565 180.191 2.15037 170.744 5.31151C166.736 6.50868 163.146 8.81074 160.386 11.9538C157.626 15.0968 155.808 18.9537 155.138 23.0826C153.868 29.1968 153.19 35.4191 153.114 41.6633C150.87 53.3181 147.861 64.8125 144.107 76.072C140.282 87.4674 134.25 96.0291 127.713 106.028C126.973 107.33 126.585 108.802 126.589 110.299C126.592 111.797 126.987 113.267 127.733 114.566C128.479 115.864 129.552 116.945 130.844 117.702C132.136 118.458 133.603 118.865 135.1 118.881C137.712 118.664 140.34 119.033 142.791 119.961C145.242 120.889 147.455 122.352 149.269 124.244C150.301 125.176 151.542 125.846 152.888 126.199C154.233 126.551 155.644 126.575 157 126.268C157.427 127.324 158.044 128.291 158.822 129.122C166.368 124.931 174.154 121.187 182.139 117.909C183.012 118.084 183.906 118.125 184.791 118.03C192.138 117.281 204.626 118.375 210.678 113.719C212.007 112.619 213.082 111.244 213.83 109.69C214.577 108.135 214.98 106.437 215.01 104.712C215.091 102.932 214.989 101.148 214.706 99.389V98.883C216.405 97.3069 217.415 95.1258 217.519 92.8109C217.671 91.331 217.484 89.836 216.973 88.4389C217.928 86.8525 218.359 85.0061 218.207 83.1607C218.054 81.3154 217.325 79.5649 216.123 78.1569C216.366 75.9911 216.629 73.8456 216.872 71.7002C220.836 72.0556 224.83 71.8923 228.753 71.2144C237.679 70.1417 235.877 57.2282 228.672 54.8601Z" fill="#FBC783"/>
<path d="M227.336 51.9263C226.932 51.7239 226 51.4608 225.859 51.0357C225.717 50.6107 228.328 44.2147 228.166 39.8833C227.883 32.5765 225.899 22.3348 222.094 15.9388C218.134 9.81229 212.155 5.26516 205.193 3.08621C200.876 1.64358 196.395 0.746032 191.855 0.414462C187.822 -0.0170041 183.76 -0.111817 179.711 0.131066C171.898 0.799 165.927 6.20325 160.422 11.3241C157.556 13.8701 155.141 16.8809 153.277 20.2299C151.454 24.1601 150.376 28.3946 150.099 32.7182C148.925 42.9396 147.63 53.1408 146.051 63.3217C145.261 68.2806 144.432 73.2597 143.521 78.2186C142.671 82.8537 121.803 114.651 122.309 119.347C122.491 121.149 125.345 120.966 125.143 119.145C124.717 115.218 145.383 84.2908 146.01 80.4249C146.638 76.5589 147.488 72.187 148.176 68.0377C149.525 59.8336 150.713 51.6025 151.738 43.3444C152.224 39.2963 152.629 35.2482 153.155 31.2002C153.514 27.2135 154.737 23.3526 156.738 19.8857C158.799 16.8404 161.295 14.1128 164.146 11.7896C166.737 9.36929 169.542 7.18803 172.525 5.27221C175.705 3.52442 179.304 2.68417 182.929 2.84334C187.086 2.79908 191.24 3.06978 195.357 3.653C202.85 4.4443 209.918 7.52572 215.597 12.4778C220.758 17.376 222.924 24.116 223.693 31.018C224.584 38.6081 226.567 38.4665 224.482 45.8745C223.683 47.5604 223.164 49.3652 222.944 51.218C222.944 52.7765 224.219 53.5051 225.454 54.1932C228.854 56.0149 232.538 58.3628 233.834 62.2894C234.188 63.1294 234.357 64.0361 234.329 64.9474C234.301 65.8588 234.077 66.7535 233.671 67.5701C233.266 68.3868 232.689 69.1063 231.98 69.6796C231.271 70.2528 230.446 70.6662 229.563 70.8916C225.515 72.0453 221.244 70.7904 217.135 70.8916C216.783 70.9507 216.465 71.1391 216.244 71.42C216.023 71.7008 215.914 72.0539 215.939 72.4105C215.965 72.767 216.122 73.1014 216.381 73.3483C216.639 73.5951 216.98 73.7368 217.338 73.7456C223.693 73.4622 233.53 76.2351 236.525 68.2806C239.359 61.0345 233.085 55.1243 227.336 51.9263Z" fill="#755C33"/>
<path d="M173.599 66.2383C171.575 67.1086 168.843 65.6716 167.062 64.6191C166.112 64.1036 165.324 63.3352 164.785 62.3992C164.245 61.4632 163.975 60.396 164.005 59.3161C164.182 57.1316 165.163 55.0904 166.758 53.588C168.074 52.2521 170.28 50.6531 172.243 51.4425C174.207 52.2319 175.198 49.5804 173.498 48.8922C168.863 47.0099 164.086 51.1996 162.184 55.1667C161.057 57.4238 160.861 60.0328 161.637 62.4331C162.524 64.6734 164.232 66.4907 166.414 67.5134C168.823 68.7683 171.899 70.0435 174.51 68.9303C176.312 68.2219 175.3 65.5298 173.599 66.2383Z" fill="#755C33"/>
<path d="M216.933 48.8688C214.99 47.0338 212.49 45.9011 209.829 45.6507C208.561 45.5255 207.282 45.6145 206.044 45.9138C204.564 46.1866 203.198 46.8908 202.117 47.9379C201.864 48.2141 201.724 48.5752 201.724 48.9499C201.724 49.3246 201.864 49.6857 202.117 49.9619C202.389 50.2241 202.752 50.3706 203.129 50.3706C203.507 50.3706 203.87 50.2241 204.141 49.9619C204.9 49.2923 205.8 48.801 206.773 48.5243C207.747 48.2476 208.77 48.1925 209.768 48.3628C211.694 48.5431 213.503 49.3626 214.909 50.6905C215.183 50.9481 215.545 51.0915 215.921 51.0915C216.297 51.0915 216.659 50.9481 216.933 50.6905C217.144 50.4337 217.259 50.1118 217.259 49.7797C217.259 49.4476 217.144 49.1257 216.933 48.8688Z" fill="#755C33"/>
<path d="M172.993 53.5872C172.045 53.4395 171.076 53.5494 170.185 53.9056C169.295 54.2617 168.517 54.8509 167.933 55.6112C167.227 56.4475 166.853 57.5132 166.88 58.6068C166.978 59.2366 167.224 59.8344 167.597 60.3514C167.97 60.8684 168.459 61.2902 169.026 61.5822C169.555 61.9368 170.156 62.1696 170.786 62.2641C171.416 62.3586 172.059 62.3123 172.669 62.1286C173.023 61.9998 173.312 61.7355 173.471 61.3939C173.631 61.0523 173.648 60.6613 173.519 60.307C173.39 59.9527 173.126 59.6641 172.784 59.5047C172.443 59.3452 172.052 59.328 171.698 59.4569H171.252H170.949L170.726 59.3354L170.463 59.1736H170.341L170.078 58.9307C170.02 58.8718 169.972 58.8033 169.937 58.7282C169.937 58.7282 169.937 58.7283 169.937 58.5664C169.93 58.5194 169.93 58.4717 169.937 58.4247C169.928 58.3779 169.928 58.3298 169.937 58.283L170.058 58.0401L170.402 57.615L170.888 57.2912H171.171H171.394H171.961H172.224C172.594 57.3631 172.977 57.2866 173.292 57.0784C173.606 56.8701 173.826 56.5467 173.904 56.1779C174.138 55.9888 174.308 55.7319 174.39 55.4424C174.472 55.1529 174.462 54.8451 174.363 54.5612C174.263 54.2773 174.078 54.0313 173.832 53.8569C173.587 53.6825 173.294 53.5883 172.993 53.5872Z" fill="#755C33"/>
<path d="M222.177 78.2409C222.257 77.1682 221.95 76.1024 221.311 75.2371C220.672 74.3717 219.744 73.7641 218.696 73.5248C218.331 73.4355 217.946 73.4884 217.619 73.6726C217.292 73.8568 217.047 74.1585 216.935 74.5166C216.915 74.6372 216.915 74.7604 216.935 74.881C216.45 75.1037 215.941 75.2668 215.417 75.3668L213.19 76.0145C211.774 76.4193 210.357 76.8038 208.98 77.33C206.405 78.2069 204.084 79.701 202.22 81.6818C201.995 81.9278 201.862 82.2446 201.845 82.5778C201.827 82.911 201.927 83.2398 202.125 83.5079C202.324 83.776 202.61 83.9666 202.933 84.047C203.257 84.1274 203.599 84.0927 203.9 83.9487C207.948 82.1271 212.563 82.208 216.874 81.6413C217.964 81.5426 219.042 81.3393 220.092 81.0341C220.679 80.8291 221.19 80.4537 221.562 79.9561C221.933 79.4584 222.147 78.8612 222.177 78.2409Z" fill="#010101"/>
<path d="M220.112 85.3451C220.234 84.3736 220.355 83.3211 220.497 82.4305C220.558 82.0588 220.474 81.6779 220.264 81.3656C220.053 81.0534 219.731 80.8333 219.363 80.7505C218.994 80.685 218.613 80.767 218.303 80.9788C217.992 81.1907 217.777 81.5156 217.704 81.884C217.582 82.7341 217.461 83.6045 217.36 84.4748C217.325 84.8017 217.271 85.1261 217.198 85.4463V85.6892V85.8512V86.0131H217.097H216.914H216.267L213.656 86.3369C213.28 86.3679 212.931 86.5434 212.682 86.8265C212.433 87.1096 212.303 87.4782 212.32 87.8549C212.361 88.2288 212.542 88.5731 212.828 88.8175C213.114 89.062 213.482 89.1883 213.858 89.1706L216.732 88.8264C217.257 88.8223 217.776 88.7107 218.257 88.4983C218.737 88.286 219.169 87.9774 219.525 87.5918C219.889 86.8972 220.09 86.1289 220.112 85.3451Z" fill="#755C33"/>
<path d="M216.791 108.032C216.715 105.642 216.424 103.265 215.921 100.927C215.868 100.689 215.772 100.463 215.638 100.259H215.84C216.323 100.075 216.796 99.8653 217.257 99.6319C217.801 99.2771 218.257 98.8028 218.59 98.2451C218.924 97.6874 219.125 97.061 219.18 96.4136C219.585 94.2681 220.637 91.2524 218.654 89.5522C218.372 89.3026 218.002 89.1751 217.626 89.1979C217.251 89.2207 216.899 89.3918 216.65 89.6737C216.4 89.9555 216.273 90.3248 216.295 90.7006C216.318 91.0764 216.489 91.4278 216.771 91.6774V91.8595C216.771 92.0619 216.771 92.2846 216.771 92.5072C216.771 92.2239 216.771 92.7703 216.771 92.8513C216.609 93.924 216.366 94.9968 216.144 96.0696V96.3934C216.155 96.4603 216.155 96.5289 216.144 96.5958C216.102 96.7451 216.018 96.8788 215.901 96.9804C216.103 96.778 215.739 96.9804 215.638 97.1221H215.415C214.509 97.3914 213.682 97.8777 213.006 98.539C213.086 99.3466 213.086 100.16 213.006 100.968C213.396 102.975 213.673 105.002 213.836 107.04C213.978 108.03 213.838 109.04 213.431 109.954C212.957 110.87 212.416 111.75 211.812 112.586C210.724 113.994 209.201 115.004 207.481 115.46C205.457 116.108 203.534 116.573 201.53 117.039C201.353 117.098 201.189 117.192 201.049 117.315C200.908 117.437 200.793 117.587 200.71 117.754C200.627 117.922 200.579 118.104 200.566 118.29C200.554 118.476 200.579 118.663 200.64 118.84C200.772 119.193 201.035 119.482 201.373 119.647C201.712 119.813 202.101 119.843 202.461 119.731C206.671 118.779 211.468 117.949 214.14 114.205C215.645 112.474 216.572 110.315 216.791 108.032Z" fill="#755C33"/>
<path d="M319.087 175.941C321.525 171.105 322.981 165.834 323.37 160.431C323.76 155.029 323.074 149.603 321.354 144.467C320.748 142.493 319.438 140.809 317.674 139.734C315.91 138.66 313.813 138.27 311.78 138.638C310.031 136.433 307.988 134.479 305.708 132.829C300.162 128.781 293.159 127.101 286.581 125.563C273.041 122.245 258.76 123.904 246.343 130.238C245.367 130.686 244.5 131.339 243.802 132.153C243.103 132.967 242.589 133.923 242.295 134.955C239.919 137.753 237.812 140.769 236 143.961C231.497 136.718 225.229 130.736 217.783 126.575C208.949 122.171 199.304 119.629 189.447 119.106C178.173 118.236 169.206 122.81 160.402 129.226C159.628 129.794 158.945 130.476 158.378 131.251C143.764 121.798 126.641 115.261 109.679 122.992C105.622 124.728 101.989 127.323 99.0293 130.596C96.0699 133.87 93.8547 137.746 92.5358 141.958C89.2771 153.13 91.3011 166.914 91.1594 178.492C90.9975 229.498 90.8356 256.215 90.6737 307.241C90.6415 308.473 90.8835 309.696 91.3821 310.823L91.8678 336.185C92.0298 345.637 93.649 352.944 103.081 356.891C122.067 364.825 143.562 362.072 163.296 358.571C170.138 357.356 177.465 359.542 184.346 358.429C189.366 357.599 189.366 351.183 191.936 349.321C200.154 343.249 209.343 336.508 215.699 328.675C222.491 320.407 227.998 311.161 232.033 301.25C235.777 291.635 233.672 280.625 232.68 270.464C231.506 258.32 228.956 246.439 228.794 234.213C228.612 220.49 228.147 212.192 227.904 210.917C254.115 211.767 284.577 215.592 310.889 216.705C318.985 217.05 321.212 207.435 316.961 202.112C313.986 198.408 310.383 194.158 311.638 189.138C312.772 184.462 316.941 180.212 319.087 175.941Z" fill="#F6A320"/>
<path d="M237.801 149.386C238.004 148.698 238.206 148.009 238.429 147.362C238.995 145.722 236.546 144.973 235.818 146.39C229.462 136.918 222.155 128.174 211.792 122.77C206.394 119.888 200.473 118.117 194.379 117.561C188.285 117.005 182.142 117.675 176.311 119.531C169.986 121.639 164.259 125.235 159.612 130.016C151.578 122.371 140.845 118.216 129.758 118.458C120.623 118.73 111.851 122.099 104.882 128.012C96.9887 134.833 92.7382 145.095 90.1069 154.932C83.6502 178.39 88.5079 202.476 91.0177 226.137C93.5276 249.798 92.2322 249.272 91.1189 272.974C90.0057 296.675 89.2771 320.033 93.143 343.269C93.6085 346.163 94.1752 349.057 94.7825 351.911C95.167 353.713 97.9197 352.944 97.5352 351.162C87.9007 306.411 97.3935 284.936 95.0253 239.84C93.8312 217.029 88.1638 194.34 90.1272 171.428C90.8997 160.209 94.0603 149.285 99.3973 139.387C103.998 131.274 111.613 125.303 120.589 122.77C130.312 120.003 140.734 121.204 149.573 126.109C158.373 131.06 165.247 138.832 169.085 148.171C169.773 149.851 172.526 149.123 171.838 147.422C169.47 141.688 166.036 136.454 161.717 131.999C165.679 127.983 170.449 124.854 175.711 122.82C180.973 120.786 186.607 119.892 192.24 120.199C204.115 121.026 215.244 126.294 223.41 134.954C227.65 139.546 231.439 144.535 234.725 149.851C233.321 154.994 232.546 160.289 232.417 165.619C232.459 165.968 232.627 166.289 232.89 166.523C233.153 166.756 233.493 166.885 233.844 166.885C234.196 166.885 234.535 166.756 234.798 166.523C235.061 166.289 235.229 165.968 235.271 165.619C235.382 161.067 235.986 156.54 237.073 152.118C237.307 152.111 237.535 152.045 237.737 151.925C237.938 151.805 238.105 151.636 238.223 151.433C238.341 151.23 238.404 151.001 238.409 150.767C238.413 150.532 238.357 150.301 238.246 150.094L237.801 149.386Z" fill="#755C33"/>
<path d="M311.761 183.489C314.191 180.855 316.297 177.94 318.035 174.806C319.882 171.657 321.066 168.163 321.515 164.54C321.963 160.917 321.668 157.241 320.646 153.736C320.079 151.995 317.327 152.744 317.893 154.485C318.828 157.674 319.092 161.022 318.667 164.317C318.242 167.613 317.137 170.785 315.424 173.632C313.83 176.451 311.929 179.084 309.757 181.485C307.935 183.51 305.324 185.351 304.17 187.881C302.146 192.152 305.952 195.593 308.502 198.548C309.356 199.299 310.022 200.239 310.447 201.294C310.872 202.348 311.045 203.487 310.951 204.62C310.475 206.119 309.593 207.457 308.404 208.486C307.214 209.515 305.763 210.195 304.211 210.449C300.886 211.167 297.492 211.52 294.091 211.502C290.468 211.623 286.845 211.502 283.242 211.502C275.976 211.239 268.75 210.571 261.524 209.984C246.907 208.807 232.232 208.53 217.582 209.154C201.025 209.822 184.529 211.381 168.033 212.939C166.232 213.101 166.212 215.955 168.033 215.773C187.545 213.951 207.057 212.21 226.609 211.725V212.008L227.095 211.887C225.658 237.916 231.143 239.292 232.722 265.18C233.552 278.113 233.977 291.492 229.524 303.899C225.611 314.553 219.246 324.135 210.943 331.872C209.252 333.444 207.482 334.93 205.64 336.325C205.891 336.583 206.121 336.86 206.328 337.154C206.664 337.679 206.916 338.253 207.077 338.855C208.211 337.984 209.344 337.094 210.437 336.163C218.853 328.938 225.582 319.956 230.151 309.85C232.733 304.204 234.472 298.21 235.313 292.059C236.061 285.4 236.265 278.692 235.92 272.001C235.454 258.622 231.872 245.688 230.414 232.37C228.714 217.534 229.099 226.561 229.949 211.623H230.475C240.231 211.522 249.987 211.765 259.763 212.534C267.353 213.121 274.923 213.85 282.533 214.154C289.721 214.746 296.953 214.453 304.069 213.283C309.251 212.17 314.959 207.98 313.704 201.969C313.118 199.877 312.011 197.969 310.485 196.423C308.804 194.948 307.464 193.125 306.559 191.079C306.432 190.364 306.501 189.627 306.757 188.947C307.014 188.266 307.448 187.668 308.016 187.214C309.271 186.08 310.566 184.866 311.761 183.489Z" fill="#755C33"/>
<path d="M142.509 35.4092C142.757 35.2168 143.065 35.1166 143.379 35.1258C144.415 35.1872 145.452 35.0396 146.429 34.6918C147.406 34.3441 148.303 33.8034 149.067 33.1018C150.221 31.8874 150.484 30.1061 148.601 29.6204C148.346 29.571 148.113 29.4437 147.933 29.2561C139.315 29.3194 130.793 27.4449 122.997 23.771C115.69 20.3301 106.42 13.3066 98.4658 18.6096C99.6564 20.2193 100.159 22.2361 99.8624 24.2162C99.6539 25.1996 99.2325 26.1254 98.6277 26.9285C103.749 26.301 109.234 29.1752 113.181 31.9886C118.2 35.5509 123.139 37.8583 129.373 36.9272C132.004 36.5427 134.554 35.6116 137.145 35.0853C138.938 34.8589 140.757 34.9688 142.509 35.4092Z" fill="#E63220"/>
<path d="M94.2983 54.7979C100.917 59.939 110.491 55.4659 116.664 51.8833C123.283 48.0376 129.274 44.0301 136.904 45.0826C141.398 43.0585 137.957 40.3463 134.617 40.1439C130.772 39.8808 126.804 41.7632 123.465 43.4634C123.279 43.568 123.07 43.623 122.858 43.623C122.645 43.623 122.436 43.568 122.25 43.4634C118.289 45.0707 114.075 45.9682 109.802 46.1149C104.216 45.9124 98.3666 42.755 93.0029 44.8802C95.3508 47.977 96.3628 51.5797 94.2983 54.7979Z" fill="#E63220"/>
<path d="M150.323 37.7572C150.56 38.0867 150.726 38.4621 150.809 38.8595C150.893 39.2568 150.893 39.6674 150.808 40.0646C150.517 40.9991 149.97 41.8335 149.23 42.4732C148.636 43.7425 148.55 45.1902 148.987 46.5213C151.173 46.7642 153.217 45.5497 155.383 45.6914C158.783 45.9342 174.429 49.4764 176.433 49.9622C181.736 51.298 200.903 55.8521 206.388 56.3784C211.874 56.9046 217.743 53.5042 223.552 53.8078C223.653 53.6977 223.769 53.6023 223.896 53.5244C224.511 53.2213 225.009 52.7239 225.313 52.1091C225.617 51.4944 225.709 50.7967 225.576 50.124C225.576 49.0715 224.767 48.2214 224.585 47.2094C224.423 46.4252 224.486 45.6114 224.767 44.8616C224.969 44.3151 225.819 43.3435 225.232 43.0601C219.605 43.4245 214.404 41.5017 209.04 39.8217C205.7 38.749 196.693 36.3201 193.131 37.2309C187.934 37.7294 182.702 37.7294 177.505 37.2309C173.559 36.8058 170.401 34.9842 167.385 34.7211C157.467 33.8103 157.083 34.1341 155.929 34.4985C149.857 36.4011 152.792 35.7129 151.132 35.6522C151.031 35.7482 150.909 35.8184 150.775 35.8571C150.641 35.8959 150.5 35.902 150.363 35.8748C147.752 35.3283 150.14 37.4738 150.323 37.7572Z" fill="#E63220"/>
<path d="M216.206 48.3037C217.117 50.0241 214.465 51.279 213.555 49.5788C211.875 46.4011 207.482 47.7369 205.276 49.4371C204.96 49.6706 204.563 49.7687 204.174 49.7099C203.785 49.6511 203.435 49.4401 203.202 49.1233C202.968 48.8066 202.87 48.4101 202.929 48.021C202.988 47.6319 203.199 47.2823 203.515 47.0488C207.563 44.0532 213.494 43.1828 216.206 48.3037Z" fill="#75160D"/>
<path d="M226.913 46.867C226.407 45.7335 227.419 44.6809 227.803 43.7701C228.027 43.0724 228.027 42.3224 227.803 41.6247C227.5 40.309 226.063 39.9245 225.132 39.8637C224.957 39.8456 224.78 39.8809 224.626 39.965C218.554 40.1067 212.907 37.4552 206.956 35.917C204.413 35.0202 201.691 34.7494 199.022 35.1276C197.686 35.4514 190.359 36.0586 189.104 36.6456H189.003C186.533 36.929 180.906 35.9777 178.336 36.2813C175.765 36.5849 170.098 32.638 167.588 32.9618C165.078 33.2857 161.961 31.8081 159.492 31.9093C157.468 31.9093 151.538 32.476 150.526 32.4153C150.291 32.4152 150.063 32.4936 149.878 32.6379C149.197 32.7579 148.564 33.0659 148.049 33.527C147.535 33.9881 147.16 34.584 146.966 35.2473C146.772 35.9105 146.768 36.6147 146.953 37.2803C147.139 37.9459 147.507 38.5463 148.016 39.0137C148.582 39.5602 147.186 40.7948 146.781 41.5032C146.391 42.3219 146.237 43.2331 146.336 44.1346C146.66 46.1586 146.336 48.0207 147.813 49.1541C147.979 49.3137 148.201 49.4028 148.431 49.4028C148.661 49.4028 148.882 49.3137 149.048 49.1541C151.234 49.1541 153.42 48.1016 155.565 48.3242C155.727 48.3242 161.213 46.6847 173.276 52.3723C175.3 53.3438 177.911 52.3724 180.218 52.4939C181.433 52.4939 185.886 53.8499 187.1 53.9309C188.238 53.8566 189.376 54.058 190.419 54.5179H190.541C195.72 57.1431 201.383 58.6792 207.178 59.0315C212.886 59.0315 218.25 55.7931 224.039 56.5419C224.328 56.5486 224.61 56.4461 224.827 56.2548C225.045 56.0636 225.182 55.7977 225.213 55.5097C226.449 54.4858 227.293 53.0663 227.603 51.4914C227.913 49.9164 227.669 48.2828 226.913 46.867ZM223.776 53.2831C223.645 53.3559 223.528 53.452 223.432 53.5665C217.623 53.2427 211.996 56.6634 206.268 56.1371C201.419 55.3521 196.742 53.736 192.443 51.3603H192.342C188.995 50.1189 185.482 49.3823 181.918 49.1744C179.53 49.0732 177.142 48.9922 174.753 49.0124C172.365 49.0327 168.094 46.3407 163.722 45.4501C161.189 45.1537 158.626 45.2219 156.112 45.6526L155.262 45.5513C153.096 45.4096 151.052 46.6241 148.846 46.3812C148.421 45.0468 148.515 43.6014 149.109 42.3331C149.849 41.6882 150.389 40.8456 150.667 39.9043C150.755 39.5118 150.759 39.1051 150.679 38.7109C150.599 38.3167 150.436 37.944 150.202 37.6171C149.999 37.3135 147.631 35.168 150.202 35.593C150.335 35.6203 150.473 35.6142 150.604 35.5754C150.735 35.5366 150.854 35.4662 150.951 35.3704C151.78 35.3704 154.857 35.168 154.857 35.1276C156.823 34.473 158.942 34.4377 160.929 35.0264C163.743 35.8158 165.483 35.0263 168.56 36.0991C170.786 36.848 177.061 38.8922 179.388 38.5886C181.716 38.285 189.509 39.0541 189.731 38.9934H190.075C190.541 38.9934 197.585 38.4267 198.172 38.2851C201.775 37.7145 205.466 38.1487 208.838 39.54C214.161 41.2401 219.343 43.1427 225.031 42.7986C225.618 43.082 224.747 44.0536 224.565 44.6001C224.266 45.3453 224.196 46.1625 224.363 46.9479C224.565 47.9599 225.314 48.81 225.375 49.8423C225.507 50.5204 225.414 51.2233 225.111 51.8442C224.808 52.4651 224.311 52.9702 223.695 53.2831H223.776Z" fill="#75160D"/>
<path d="M130.022 39.7829C126.7 40.2939 123.305 40.0587 120.084 39.0946C112.575 37.2932 105.916 26.7277 97.1722 30.2496C96.9407 30.3513 96.6853 30.3863 96.4349 30.3505C96.1846 30.3147 95.9492 30.2097 95.7554 30.0472C94.541 30.4723 93.3063 28.6101 94.4398 27.4564C96.6864 25.2097 98.1033 23.1857 96.2007 20.1902C96.0633 19.9608 95.9908 19.6985 95.9908 19.4311C95.9908 19.1638 96.0633 18.9015 96.2007 18.6721C96.0588 18.5376 95.9492 18.3727 95.8801 18.1898C95.8111 18.0069 95.7843 17.8107 95.8018 17.616C95.8193 17.4213 95.8807 17.233 95.9813 17.0654C96.082 16.8978 96.2192 16.7551 96.3828 16.6481C103.406 11.4665 111.361 14.4621 118.425 18.0244C122.722 20.36 127.18 22.3891 131.763 24.0965C137.901 25.968 144.322 26.7355 150.728 26.3635C152.59 26.3635 152.267 29.1971 150.425 29.2376C141.043 29.6257 131.706 27.7514 123.201 23.7727C115.895 20.3319 106.624 13.3084 98.67 18.6113C99.8544 20.224 100.356 22.2382 100.067 24.218C99.8442 25.1905 99.4239 26.1069 98.8319 26.91C103.933 26.3028 109.438 29.1769 113.385 31.9903C118.404 35.5527 123.323 37.8601 129.577 36.929C132.188 36.5444 134.738 35.6133 137.349 35.0871C139.839 34.8746 142.346 35.1007 144.757 35.755C146.599 36.0586 146.296 38.9327 144.454 38.6291C141.755 37.993 138.961 37.8694 136.216 38.2648C134.151 38.7101 132.107 39.3578 130.022 39.7829Z" fill="#75160D"/>
<path d="M90.0873 43.6518C90.1998 43.2798 90.4543 42.9671 90.7957 42.7815C94.4795 40.7574 98.2644 41.0409 102.292 41.8708C105.313 42.7047 108.429 43.1401 111.562 43.166C115.125 42.7638 118.617 41.8857 121.946 40.5551C123.707 39.9883 124.881 42.5791 123.12 43.2066C118.889 44.5627 114.477 46.2629 109.963 46.1009C104.397 45.8985 98.5478 42.7208 93.1841 44.8663C95.3903 47.9631 96.4833 51.5658 94.3985 54.784C101.037 59.9048 110.591 55.4317 116.784 51.8694C123.686 47.8213 129.9 43.6518 138.077 45.2103C139.899 45.5747 139.616 48.4488 137.774 48.1047C127.228 46.0807 118.586 55.3306 109.214 58.8929C104.235 60.7752 96.0784 60.2288 92.0101 56.545L91.7875 56.2819C91.5947 56.1518 91.4325 55.9812 91.3124 55.782C91.1923 55.5828 91.1171 55.3598 91.092 55.1286C91.067 54.8973 91.0927 54.6634 91.1674 54.4431C91.242 54.2228 91.3639 54.0214 91.5244 53.853C94.1151 51.2015 91.9292 47.7809 90.0266 45.4735C89.7947 45.2231 89.671 44.8913 89.6824 44.5502C89.6937 44.2091 89.8392 43.8862 90.0873 43.6518Z" fill="#75160D"/>
<path d="M226.405 54.1341H219.463H219.24C219.205 54.0887 219.164 54.0479 219.119 54.0126C219.119 53.8912 219.018 53.7698 218.977 53.6281C218.937 53.4864 218.977 53.4661 218.977 53.4053V53.2839C218.977 52.9601 218.977 52.6362 218.977 52.3124C218.933 51.6384 218.933 50.9623 218.977 50.2884C219.041 49.6926 219.156 49.1034 219.321 48.5275L220.718 48.3452C221.973 48.244 223.228 48.1833 224.483 48.2035C224.996 48.2021 225.499 48.0624 225.94 47.7988C225.882 49.1537 225.97 50.5109 226.203 51.8469C226.372 52.6285 226.588 53.399 226.851 54.1542C226.703 54.1363 226.554 54.1296 226.405 54.1341Z" fill="#65543A"/>
<path d="M259.802 60.0255H230.434C230.474 59.6728 230.395 59.3167 230.211 59.0135C228.731 56.6559 227.785 54.0031 227.438 51.2411C227.185 48.3721 227.287 45.4829 227.742 42.6389C234.34 41.9103 250.856 40.8174 257.333 39.3398C256.784 42.1857 256.607 45.0909 256.807 47.9824C257.075 51.3564 257.796 54.6788 258.952 57.8597C259.215 58.6086 259.519 59.3373 259.802 60.066V60.0255Z" fill="#755C33"/>
<path d="M324.067 37.857C323.547 34.9063 322.191 32.1668 320.161 29.9633C317.793 27.9392 313.137 28.9108 310.385 29.5787C309.789 30.529 309.154 31.4541 308.482 32.3516V58.0974C308.306 59.7762 308.353 61.4709 308.624 63.1372C309.251 65.3029 312.125 65.8292 314.068 65.5864C319.776 64.8779 322.063 59.1297 323.298 54.2518C324.835 48.9226 325.099 43.3067 324.067 37.857Z" fill="#755C33"/>
<path d="M339.834 48.4854C339.902 43.2774 338.499 38.1559 335.786 33.71C334.596 31.844 332.971 30.2951 331.05 29.1964C328.823 28.1034 325.666 29.0546 323.378 29.4797C323.139 29.5485 322.922 29.6784 322.748 29.8565C322.574 30.0345 322.449 30.2548 322.386 30.4956C322.323 30.7364 322.323 30.9895 322.387 31.2301C322.451 31.4707 322.576 31.6906 322.751 31.8681C323.603 32.8036 324.171 33.9617 324.39 35.2077C324.853 36.7904 325.184 38.4083 325.382 40.0452C325.615 42.9977 325.575 45.9655 325.261 48.9105C325.196 51.7647 324.663 54.5887 323.682 57.2698C322.711 59.5165 321.172 61.4394 320.363 63.7468C320.062 63.8752 319.814 64.1006 319.657 64.387C319.501 64.6734 319.445 65.0042 319.498 65.3262C319.552 65.6482 319.712 65.9429 319.953 66.1629C320.195 66.383 320.503 66.5157 320.828 66.5398C323.849 66.8027 326.888 66.7417 329.896 66.3578C332.243 66.0288 334.396 64.8734 335.968 63.0991C337.864 61.4171 339.193 59.1901 339.773 56.7233C340.097 53.988 340.117 51.2252 339.834 48.4854Z" fill="#65543A"/>
<path d="M225.859 54.1334H220.84H220.678V54.0119C220.666 53.884 220.666 53.7553 220.678 53.6274C220.664 53.5537 220.664 53.4782 220.678 53.4046V53.2832C220.678 52.9593 220.678 52.6355 220.678 52.3117C220.634 51.6377 220.634 50.9616 220.678 50.2876C220.717 49.6957 220.799 49.1073 220.92 48.5267L221.932 48.3445C222.826 48.2368 223.725 48.1894 224.624 48.2028C225.011 48.1915 225.382 48.0488 225.677 47.7981C225.631 49.1502 225.692 50.5037 225.859 51.8462C225.981 52.6153 226.142 53.3844 226.325 54.1535C226.171 54.1232 226.014 54.1164 225.859 54.1334ZM333.133 28.6101C332.889 28.3966 332.585 28.2624 332.263 28.2255C332.139 27.9513 331.936 27.7203 331.68 27.5618C331.424 27.4032 331.127 27.3242 330.826 27.335L315.038 27.5577C310.16 27.5577 290.973 27.5577 286.297 29.1769H286.196L274.456 29.7032C270.926 29.625 267.396 29.8009 263.891 30.2294C261.341 30.7152 260.308 33.3465 259.681 35.7956C259.39 35.7134 259.081 35.7134 258.79 35.7956C251.929 37.3945 235.008 38.5684 228.005 39.2768C227.6 39.2949 227.215 39.4516 226.912 39.7207C226.61 39.9898 226.41 40.3549 226.345 40.7544C226.193 41.017 226.09 41.3052 226.041 41.6045C225.9 42.819 225.758 44.0334 225.657 45.2681C225.504 45.1103 225.322 44.9843 225.12 44.8974C224.919 44.8106 224.702 44.7646 224.483 44.762C223.289 44.7735 222.099 44.8749 220.92 45.0656C220.722 44.7651 220.419 44.5488 220.07 44.4584C219.645 44.3686 219.201 44.4413 218.826 44.6623C218.452 44.8834 218.174 45.2367 218.046 45.6526C217.585 47.2296 217.293 48.8512 217.176 50.49C216.991 51.95 217.074 53.4314 217.419 54.862C217.62 55.5579 218.005 56.1869 218.532 56.6835C219.277 57.2815 220.209 57.5969 221.163 57.5741C222.742 57.5741 224.341 57.5741 225.92 57.5741C226.153 57.5684 226.383 57.5153 226.596 57.4179C226.808 57.3204 226.998 57.1808 227.155 57.0075C227.564 58.0445 228.044 59.0522 228.592 60.0233C228.2 60.1315 227.861 60.3779 227.637 60.7169C227.413 61.056 227.32 61.4646 227.374 61.8672C227.429 62.2698 227.627 62.6391 227.933 62.9066C228.238 63.1742 228.631 63.3219 229.037 63.3225C236.526 63.3225 253.973 63.3225 261.422 63.3225C261.65 63.3252 261.876 63.2797 262.085 63.189C262.294 63.0984 262.482 62.9645 262.636 62.7962C263.107 64.3476 263.855 65.8012 264.842 67.0872C265.95 67.938 267.277 68.4574 268.668 68.5849C270.57 68.9897 272.493 69.3338 274.436 69.5969C278.204 70.1499 282.004 70.4609 285.811 70.528C286.183 70.553 286.551 70.4382 286.843 70.2061C287.135 69.974 287.33 69.6413 287.39 69.2732C299.597 68.3118 311.85 68.0686 324.086 68.5445C327.547 68.7672 331.271 69.6172 334.57 68.1397C337.109 66.8437 339.218 64.8401 340.643 62.3711C347.949 50.996 342.667 36.7872 333.194 28.6101H333.133ZM261.32 60.0233H231.952C231.992 59.6706 231.913 59.3145 231.729 59.0112C230.249 56.6537 229.302 54.0009 228.956 51.2389C228.703 48.3699 228.805 45.4807 229.26 42.6367C235.858 41.908 252.374 40.8152 258.851 39.3376C258.302 42.1835 258.125 45.0887 258.325 47.9802C258.592 51.3541 259.314 54.6766 260.47 57.8575C260.733 58.6064 261.037 59.3351 261.32 60.0638V60.0233ZM315.585 64.294C315.379 64.5044 315.226 64.7612 315.14 65.0429C309.594 65.0429 289.819 65.5489 284.313 66.3383C284.074 66.3656 283.845 66.4546 283.65 66.5965C283.455 66.7383 283.3 66.9283 283.2 67.1479C280.873 67.0265 278.545 66.8847 276.238 66.5811C274.679 66.3787 273.161 66.1359 271.623 65.8525C270.195 65.7631 268.789 65.4559 267.453 64.9417C266.522 64.3142 265.996 62.3711 265.551 61.3591C264.903 59.9018 264.296 58.4243 263.769 56.9063C262.734 54.1289 262.054 51.2318 261.745 48.2839C261.355 43.9596 261.908 39.6022 263.365 35.5122C263.688 34.5811 263.83 33.9132 264.862 33.6298C265.706 33.4975 266.561 33.4568 267.413 33.5084L286.115 32.6785C286.208 32.6965 286.305 32.6965 286.398 32.6785C286.657 32.7471 286.929 32.7471 287.188 32.6785C291.762 31.1604 310.828 31.2414 315.524 31.1604H317.548C322.102 34.9454 323.479 42.6773 323.094 48.2839C322.606 54.3121 319.97 59.9648 315.666 64.213L315.585 64.294ZM336.959 61.8651C336.147 63.0867 335.037 64.0811 333.733 64.754C332.43 65.427 330.976 65.7563 329.51 65.7108C326.171 65.5894 322.851 65.1846 319.491 65.0834C323.643 60.3558 326.131 54.3981 326.575 48.1219C326.818 44.5431 326.378 40.951 325.28 37.5362C324.579 35.1923 323.528 32.9677 322.163 30.9378L330.482 30.8164C330.545 30.9192 330.619 31.0144 330.704 31.0998C339.367 38.4268 344.691 51.7247 337.04 61.7842L336.959 61.8651Z" fill="#331711"/>
<path d="M319.753 152.093C313.182 130.975 307.015 109.73 301.253 88.3558C301.208 88.1733 301.125 88.0024 301.009 87.8543C300.893 87.7062 300.747 87.5842 300.581 87.4963C300.415 87.4084 300.232 87.3566 300.044 87.3442C299.857 87.3319 299.669 87.3593 299.492 87.4247C299.492 87.0806 299.492 86.7567 299.492 86.4127C303.071 84.2749 306.138 81.3803 308.479 77.9319C311.272 73.2361 310.726 53.3196 310.503 48.0773C310.402 45.2437 310.26 42.3898 310.058 39.5562C310.024 36.8305 309.698 34.1164 309.086 31.46C307.993 27.5941 304.532 23.5459 300.079 24.4365C298.65 24.7222 297.371 25.5126 296.477 26.663C295.586 23.8901 294.19 21.4815 290.89 21.1981C289.599 21.1436 288.316 21.4221 287.164 22.007C286.012 22.5919 285.03 23.4634 284.312 24.5377C283.825 25.2293 283.437 25.9855 283.158 26.7845C282.343 25.6055 281.236 24.6589 279.944 24.0379C278.652 23.4168 277.221 23.1427 275.791 23.2424C274.588 23.3699 273.43 23.7651 272.4 24.3991C271.37 25.0331 270.496 25.8896 269.84 26.9059C269.319 25.6713 268.458 24.6095 267.359 23.8431C266.259 23.0766 264.965 22.6368 263.626 22.5744C262.554 22.5132 261.487 22.7658 260.556 23.3015C259.625 23.8371 258.87 24.6324 258.384 25.5902C256.826 28.4941 255.473 31.5039 254.336 34.5973C251.968 40.6694 250.673 61.2336 252.089 67.6296C253.506 74.0256 257.028 79.6727 260.489 85.1174L260.671 85.34H260.57C253.193 100.544 246.771 116.193 241.342 132.196C239.986 136.245 238.569 140.293 237.435 144.341C236.302 148.389 239.318 149.482 242.354 150.919C245.901 152.597 249.629 153.86 253.466 154.684C255.245 155.051 257.042 155.327 258.85 155.513C259.602 155.727 260.399 155.718 261.146 155.488C261.893 155.259 262.558 154.817 263.06 154.218C264.031 152.74 263.262 151.02 263.707 149.421C263.956 148.645 264.405 147.948 265.009 147.401C265.614 146.853 266.351 146.475 267.148 146.304C270.812 145.535 272.816 150.15 270.974 152.902C270.875 153.088 270.819 153.293 270.809 153.503C270.8 153.713 270.837 153.922 270.918 154.116C271 154.31 271.123 154.483 271.28 154.623C271.436 154.763 271.622 154.867 271.824 154.927C279.054 157.435 286.84 157.884 294.311 156.222C294.574 156.141 294.809 155.987 294.987 155.777C295.165 155.567 295.279 155.31 295.315 155.037C295.351 154.764 295.308 154.486 295.191 154.237C295.074 153.988 294.888 153.778 294.655 153.631C291.295 151.384 287.429 148.814 286.559 144.563C286.383 143.815 286.374 143.036 286.531 142.284C286.689 141.531 287.01 140.822 287.471 140.206C287.932 139.59 288.522 139.084 289.201 138.721C289.879 138.358 290.628 138.149 291.396 138.107C299.148 137.176 301.031 146.426 298.46 152.012C298.136 152.761 298.339 154.036 299.31 154.036C305.775 155.11 312.387 154.925 318.782 153.489C319.071 153.39 319.321 153.201 319.496 152.95C319.671 152.699 319.761 152.399 319.753 152.093Z" fill="#FDD821"/>
<path d="M319.856 149.081C313.325 127.95 307.165 106.724 301.376 85.4045C301.243 85.0797 300.997 84.8146 300.682 84.6593C300.367 84.5039 300.007 84.4691 299.668 84.5612C299.33 84.6533 299.037 84.8659 298.844 85.1592C298.652 85.4525 298.573 85.8061 298.623 86.1534C304.291 107.001 310.309 127.741 316.678 148.372C311.756 149.326 306.712 149.483 301.74 148.838C302.434 146.972 302.721 144.978 302.581 142.992C302.442 141.006 301.879 139.072 300.931 137.321C299.91 135.612 298.4 134.248 296.596 133.408C294.791 132.567 292.776 132.287 290.811 132.605C288.782 132.873 286.931 133.898 285.628 135.475C284.325 137.052 283.667 139.064 283.787 141.106C284.071 145.579 287.066 148.737 290.446 151.226C285.015 151.939 279.495 151.484 274.254 149.891C275.711 145.458 272.351 139.973 267.271 140.56C265.919 140.741 264.64 141.284 263.572 142.132C262.503 142.98 261.683 144.101 261.199 145.377C260.967 146.069 260.844 146.793 260.834 147.522C260.834 148.028 261.138 148.98 260.834 149.405C260.106 150.741 255.471 149.405 254.277 149.081C250.26 148.232 246.369 146.872 242.699 145.033C242.132 144.749 240.533 144.183 240.189 143.596C239.845 143.009 240.412 141.572 240.635 140.964C241.282 138.819 241.97 136.694 242.659 134.569C245.357 126.472 248.245 118.484 251.322 110.604C254.904 101.577 258.851 92.6911 263.081 83.9472C263.216 83.6874 263.267 83.3922 263.227 83.1022C263.187 82.8123 263.058 82.5419 262.859 82.328C263.067 82.1255 263.196 81.8547 263.222 81.5649C263.248 81.2752 263.17 80.9857 263 80.7492C260.079 76.5173 257.661 71.9595 255.795 67.168C254.034 62.0067 254.013 42.5556 255.471 37.3134C256.21 34.7262 257.137 32.1961 258.244 29.7433C258.77 28.5492 259.337 27.3551 259.883 26.1811C260.253 25.0853 260.815 24.0639 261.543 23.1652C263.02 21.7686 265.449 22.6998 266.644 24.0154C267.601 25.1733 268.218 26.575 268.425 28.0635C268.277 29.4426 268.486 30.8365 269.032 32.1116C269.195 32.3709 269.438 32.5712 269.723 32.683C270.008 32.7949 270.322 32.8126 270.618 32.7334C270.915 32.6543 271.178 32.4825 271.369 32.2431C271.561 32.0038 271.671 31.7094 271.683 31.4031C271.587 30.2612 271.425 29.1259 271.198 28.0027C271.4 26.7482 272.005 25.5936 272.921 24.7135C273.838 23.8334 275.016 23.2757 276.278 23.1248C277.817 23.1548 279.291 23.7553 280.413 24.8099C281.535 25.8644 282.225 27.298 282.35 28.8326C282.35 29.5208 282.35 30.1887 282.35 30.8567C282.369 31.1888 282.504 31.5039 282.729 31.7482C282.955 31.9926 283.259 32.1509 283.589 32.1963C283.918 32.2417 284.253 32.1714 284.537 31.9972C284.82 31.823 285.035 31.5558 285.143 31.2412C285.28 30.5075 285.328 29.7599 285.285 29.0147C285.281 27.1465 285.733 25.3055 286.601 23.6511C287.047 22.7382 287.793 22.0054 288.713 21.5747C289.633 21.1439 290.674 21.0409 291.661 21.2829C294.231 22.3354 294.596 26.262 295.203 29.0956C295.288 29.6158 295.43 30.125 295.628 30.6137C295.683 30.7177 295.731 30.8261 295.769 30.9376C296.478 32.3747 298.927 31.3627 298.38 29.8446C298.215 29.4005 298.073 28.9477 297.955 28.4884C297.82 27.6048 298.002 26.7018 298.469 25.9394C298.936 25.177 299.657 24.6045 300.506 24.3233C301.355 24.042 302.275 24.0702 303.105 24.4028C303.935 24.7355 304.62 25.3511 305.04 26.1406C306.494 28.3135 307.263 30.8731 307.246 33.4879C307.468 36.3013 307.63 39.135 307.752 41.9484C307.873 44.7618 307.995 61.6018 308.035 64.2128C308.238 66.9185 307.837 69.6355 306.861 72.1673C304.837 76.3368 300.789 79.049 297.146 81.5386C295.628 82.5506 297.045 85.02 298.583 83.9877C302.591 81.6973 306.046 78.5531 308.703 74.7783C311.516 70.0825 310.95 50.1458 310.727 44.9035C310.633 42.0699 310.491 39.2362 310.302 36.4025C310.261 33.6762 309.928 30.962 309.31 28.3064C308.217 24.4607 304.756 20.4125 300.303 21.3031C298.877 21.5836 297.599 22.3665 296.701 23.5094C295.83 20.7364 294.413 18.3481 291.114 18.0445C289.825 17.9957 288.544 18.279 287.396 18.8673C286.248 19.4557 285.27 20.3293 284.556 21.4043C284.059 22.0928 283.663 22.8496 283.382 23.6511C282.579 22.4601 281.473 21.5043 280.178 20.8819C278.884 20.2594 277.447 19.9927 276.015 20.109C274.81 20.2279 273.648 20.6195 272.617 21.2542C271.586 21.889 270.713 22.7502 270.064 23.7725C269.551 22.5322 268.692 21.465 267.591 20.6973C266.49 19.9296 265.192 19.4937 263.85 19.441C262.778 19.3824 261.712 19.6362 260.782 20.1715C259.851 20.7069 259.096 21.5007 258.608 22.4568C257.054 25.356 255.702 28.3587 254.56 31.4436C252.212 37.5157 250.917 58.08 252.313 64.4962C253.71 70.9124 257.272 76.5392 260.733 81.9838C260.776 82.0598 260.83 82.1282 260.895 82.1863V82.3078C253.522 97.5065 247.1 113.149 241.667 129.144C240.311 133.192 238.894 137.24 237.781 141.288C236.667 145.336 239.643 146.409 242.679 147.846C246.223 149.53 249.953 150.794 253.791 151.611C255.568 151.994 257.366 152.278 259.175 152.461C259.929 152.672 260.728 152.66 261.475 152.427C262.222 152.193 262.885 151.748 263.385 151.145C264.377 149.668 263.607 147.947 264.032 146.369C264.278 145.59 264.726 144.891 265.33 144.344C265.935 143.796 266.675 143.419 267.473 143.252C271.137 142.482 273.141 147.077 271.299 149.83C271.207 150.016 271.157 150.221 271.151 150.429C271.145 150.636 271.184 150.843 271.264 151.035C271.345 151.227 271.465 151.399 271.618 151.54C271.77 151.681 271.952 151.788 272.149 151.854C279.388 154.352 287.178 154.801 294.656 153.149C294.923 153.069 295.162 152.913 295.342 152.7C295.522 152.487 295.636 152.226 295.67 151.949C295.705 151.673 295.658 151.392 295.535 151.141C295.412 150.89 295.22 150.681 294.98 150.538C291.64 148.312 287.754 145.741 286.884 141.491C286.709 140.741 286.699 139.962 286.857 139.208C287.014 138.454 287.334 137.744 287.795 137.126C288.256 136.509 288.846 136.001 289.525 135.636C290.203 135.271 290.953 135.058 291.721 135.014C299.473 134.083 301.376 143.353 298.806 148.939C298.711 149.125 298.657 149.33 298.65 149.539C298.642 149.748 298.68 149.956 298.761 150.148C298.842 150.341 298.964 150.514 299.118 150.655C299.273 150.795 299.456 150.901 299.656 150.963C306.113 152.048 312.72 151.862 319.107 150.417C319.346 150.289 319.544 150.095 319.677 149.859C319.81 149.622 319.872 149.352 319.856 149.081Z" fill="#755C33"/>
<path fill-rule="evenodd" clip-rule="evenodd" d="M211.47 380.611C210.751 377.229 210.751 373.732 211.47 370.35C211.935 368.528 212.745 366.787 213.15 364.925C213.565 362.991 213.565 360.99 213.15 359.055C212.239 354.42 210.6 349.826 209.284 345.292C207.968 340.758 210.944 341.082 209.567 336.285C209.472 335.975 209.309 335.69 209.09 335.451C208.871 335.212 208.601 335.025 208.301 334.903C208.001 334.781 207.677 334.727 207.354 334.746C207.03 334.764 206.714 334.854 206.43 335.01C200.074 338.066 189.104 335.313 182.405 337.479C182.405 337.479 182.405 337.479 182.405 337.601C181.109 338.37 181.069 339.787 181.109 341.122C181.198 341.913 181.59 342.638 182.202 343.146H182.324C184.445 343.97 186.218 345.5 187.343 347.478C187.679 348.533 187.713 349.66 187.441 350.734C187.169 351.807 186.603 352.782 185.805 353.55C184.803 354.483 183.586 355.156 182.262 355.509C180.939 355.862 179.549 355.884 178.215 355.574C176.807 355.408 175.451 354.939 174.242 354.198C173.033 353.457 171.999 352.463 171.212 351.283C170.813 350.28 170.689 349.188 170.853 348.121C171.016 347.053 171.462 346.049 172.143 345.211C172.669 344.118 173.074 342.883 172.143 341.892C171.212 340.9 170.119 341.224 168.985 341.224C168.844 341.224 168.783 341.224 168.742 341.021C160.694 342.875 152.512 344.087 144.272 344.644C143.789 344.637 143.321 344.803 142.95 345.111C142.578 345.419 142.33 345.849 142.248 346.324C142.035 346.501 141.864 346.722 141.747 346.972C141.63 347.222 141.569 347.495 141.569 347.771C141.569 348.048 141.63 348.32 141.747 348.571C141.864 348.821 142.035 349.042 142.248 349.219C145.263 351.911 143.26 356.546 139.778 357.618C135.305 359.035 131.034 356.161 128.484 352.68C127.487 350.838 126.336 349.084 125.043 347.437C123.161 345.656 120.024 346.182 117.656 346.182H99.9857C97.7774 345.907 95.5487 346.502 93.7719 347.842C92.0879 349.675 90.72 351.775 89.7238 354.056C87.1767 358.622 85.0885 363.429 83.4897 368.406C80.6595 377.492 81.1984 387.294 85.0078 396.014C89.164 405.132 95.9337 412.811 104.459 418.076C105.896 420.101 109.195 417.955 107.94 415.648C104.823 409.839 106.847 402.653 111.26 398.14C116.057 393.201 123.019 391.035 129.719 390.428C137.391 389.814 145.107 390.031 152.732 391.076C159.573 391.946 166.597 393.99 171.799 398.767C175.219 401.925 178.903 407.916 178.012 412.935C178.049 412.96 178.078 412.994 178.099 413.032C178.121 413.071 178.132 413.114 178.134 413.158C178.134 413.947 177.992 414.717 178.012 415.506C177.938 415.883 177.973 416.274 178.113 416.633C178.252 416.991 178.491 417.302 178.802 417.53C179.104 417.698 179.432 417.815 179.773 417.874L181.089 418.157C181.957 418.326 182.837 418.434 183.72 418.481C183.752 418.468 183.787 418.461 183.821 418.461C183.856 418.461 183.891 418.468 183.923 418.481C189.593 418.589 195.215 417.427 200.378 415.081C203.254 413.753 205.831 411.856 207.953 409.504C210.075 407.152 211.698 404.395 212.725 401.398C214.769 394.537 212.745 387.412 211.47 380.611Z" fill="#FFD900"/>
<path d="M213.594 384.192C213.351 382.896 213.088 381.642 212.885 380.366C212.215 377.183 212.215 373.895 212.885 370.712C213.088 369.943 213.371 369.133 213.634 368.344C214.011 367.324 214.329 366.283 214.585 365.227C215.031 363.104 215.031 360.912 214.585 358.79C213.87 355.466 212.978 352.182 211.914 348.953C211.509 347.597 211.084 346.241 210.699 344.905L211.63 336.02C211.5 335.527 211.262 335.07 210.933 334.681C210.604 334.292 210.192 333.982 209.728 333.773C209.255 333.565 208.746 333.455 208.23 333.449C207.634 333.456 207.046 333.594 206.509 333.854C200.296 336.829 188.698 333.975 181.958 336.182L181.391 336.404V336.627C180.752 337.184 180.265 337.894 179.975 338.69C179.685 339.487 179.601 340.343 179.731 341.181C179.776 341.775 179.941 342.354 180.216 342.883C180.491 343.412 180.87 343.879 181.33 344.258L181.674 344.541C183.486 345.212 185.019 346.474 186.026 348.124C186.265 348.935 186.276 349.797 186.058 350.614C185.841 351.431 185.402 352.173 184.792 352.759C183.518 353.939 181.831 354.571 180.096 354.519C179.552 354.517 179.01 354.462 178.476 354.357C177.08 354.094 173.68 353.204 172.404 350.815C172.135 350.005 172.08 349.139 172.247 348.301C172.414 347.463 172.796 346.684 173.356 346.039C173.832 345.302 174.07 344.437 174.037 343.561C174.005 342.685 173.703 341.84 173.174 341.141C172.754 340.725 172.248 340.407 171.692 340.207C171.136 340.008 170.543 339.933 169.955 339.987H169.814L169.672 339.541L168.397 339.845C160.406 341.669 152.285 342.867 144.108 343.428C143.408 343.47 142.735 343.72 142.177 344.145C141.618 344.57 141.198 345.152 140.971 345.816C140.431 346.448 140.137 347.252 140.141 348.083C140.161 348.544 140.276 348.995 140.478 349.409C140.68 349.824 140.965 350.192 141.315 350.492C141.717 350.836 142.014 351.285 142.175 351.789C142.336 352.293 142.354 352.832 142.226 353.345C142.059 354.069 141.709 354.738 141.209 355.287C140.709 355.837 140.077 356.248 139.372 356.483C138.715 356.675 138.033 356.771 137.348 356.766C135.809 356.603 134.327 356.094 133.013 355.278C131.698 354.461 130.586 353.358 129.758 352.05C129.295 351.412 128.888 350.735 128.543 350.026C127.929 348.706 127.102 347.495 126.094 346.444C124.556 345.185 122.591 344.568 120.609 344.723H119.051H117.735H99.9437C97.3967 344.454 94.8444 345.18 92.8191 346.747C91.2732 348.318 90.025 350.156 89.1353 352.172L88.5281 353.345C85.9287 357.983 83.8061 362.873 82.1929 367.939C79.2213 377.369 79.7604 387.556 83.7109 396.619C87.9462 405.901 94.8065 413.74 103.445 419.167C103.751 419.515 104.128 419.792 104.551 419.981C104.973 420.17 105.432 420.265 105.894 420.26C106.612 420.267 107.316 420.063 107.918 419.673C108.704 419.208 109.276 418.455 109.514 417.574C109.752 416.694 109.637 415.755 109.194 414.957C106.178 409.351 108.667 402.813 112.27 399.129C117.29 393.988 124.597 392.329 129.839 391.843C132.308 391.62 134.939 391.499 137.652 391.499C142.633 391.526 147.608 391.858 152.549 392.49C160.645 393.523 166.575 395.911 170.765 399.817C174.206 402.995 177.303 408.44 176.533 412.711L176.371 413.662L176.614 413.824C176.624 413.945 176.624 414.067 176.614 414.188C176.614 414.633 176.614 415.099 176.614 415.544C176.556 416.149 176.662 416.758 176.923 417.307C177.183 417.856 177.587 418.324 178.092 418.661C178.522 418.903 178.986 419.081 179.468 419.188L180.865 419.471C181.641 419.621 182.425 419.729 183.213 419.795L183.334 419.916H183.962C189.851 420.029 195.691 418.812 201.045 416.354C204.097 414.947 206.831 412.933 209.079 410.434C211.327 407.936 213.042 405.005 214.12 401.821C215.901 395.891 214.768 389.94 213.594 384.192ZM184.245 417.062C184.097 417.043 183.948 417.043 183.8 417.062C182.978 417.011 182.16 416.91 181.351 416.759L180.096 416.496C179.901 416.453 179.712 416.392 179.529 416.313C179.529 416.313 179.529 416.192 179.529 415.605C179.51 415.241 179.51 414.876 179.529 414.512C179.529 414.107 179.529 413.682 179.529 413.277C179.55 413.109 179.55 412.939 179.529 412.771C180.197 407.367 176.533 401.255 172.789 397.814C168.113 393.482 161.616 390.851 152.933 389.718C147.88 389.051 142.789 388.707 137.692 388.685C134.899 388.685 132.187 388.807 129.596 389.05C123.888 389.576 115.873 391.418 110.266 397.146C107.747 399.556 106.046 402.696 105.403 406.123C104.761 409.551 105.209 413.093 106.684 416.253C106.733 416.334 106.765 416.425 106.777 416.519C106.789 416.613 106.782 416.709 106.755 416.801C106.728 416.892 106.683 416.977 106.622 417.049C106.561 417.122 106.486 417.182 106.4 417.224C106.26 417.31 106.1 417.359 105.935 417.366C105.793 417.366 105.692 417.366 105.51 417.082L105.206 416.819C96.9459 411.69 90.3781 404.242 86.3219 395.405C82.6474 386.961 82.1443 377.473 84.9051 368.688C86.4501 363.806 88.4845 359.093 90.9772 354.621C91.1594 354.256 91.3618 353.892 91.6047 353.386C92.3566 351.687 93.3898 350.126 94.661 348.771C96.1548 347.7 97.9998 347.237 99.8223 347.476V346.767L99.9235 347.476H112.068H119.01H120.467C121.722 347.352 122.978 347.682 124.01 348.407C124.776 349.254 125.405 350.218 125.872 351.261C126.289 352.106 126.769 352.917 127.309 353.69C128.422 355.392 129.916 356.812 131.672 357.838C133.428 358.864 135.399 359.467 137.429 359.6C138.376 359.599 139.318 359.456 140.222 359.175C141.404 358.785 142.465 358.098 143.305 357.18C144.145 356.262 144.735 355.144 145.019 353.933C145.257 352.924 145.213 351.869 144.892 350.884C144.571 349.898 143.984 349.02 143.197 348.346C143.09 348.26 143.019 348.138 142.995 348.002C143.01 347.815 143.097 347.641 143.238 347.516L143.521 347.233V346.848C143.542 346.682 143.623 346.529 143.751 346.421C143.878 346.312 144.042 346.255 144.209 346.261C152.309 345.699 160.354 344.522 168.275 342.739C168.463 342.77 168.654 342.77 168.842 342.739H169.854C170.056 342.739 170.704 342.739 170.927 342.982C171.149 343.225 171.291 343.387 170.724 344.561C169.896 345.599 169.366 346.842 169.192 348.158C169.017 349.474 169.204 350.812 169.733 352.03C171.514 355.552 175.926 356.726 177.829 357.07C178.535 357.214 179.254 357.288 179.974 357.292C181.216 357.321 182.451 357.104 183.608 356.652C184.765 356.2 185.821 355.524 186.714 354.661C187.726 353.682 188.433 352.431 188.753 351.06C189.072 349.689 188.99 348.255 188.516 346.929C187.323 344.684 185.372 342.934 183.01 341.991C182.701 341.738 182.487 341.389 182.403 340.999C182.403 339.683 182.403 338.975 183.01 338.732H183.172C189.852 336.546 201.389 339.38 207.663 336.404C207.813 336.326 207.98 336.284 208.149 336.283C208.256 336.262 208.366 336.262 208.473 336.283C208.559 336.328 208.635 336.391 208.694 336.467C208.753 336.544 208.795 336.633 208.817 336.728L207.886 345.614C208.27 347.01 208.716 348.427 209.141 349.824C210.156 352.929 211.013 356.084 211.711 359.276C212.086 361.017 212.086 362.818 211.711 364.559C211.485 365.506 211.201 366.439 210.861 367.352C210.578 368.182 210.274 369.052 210.052 369.943C209.29 373.519 209.29 377.215 210.052 380.791C210.274 382.067 210.517 383.382 210.78 384.678C211.853 390.082 212.946 395.688 211.347 400.87C210.383 403.683 208.858 406.27 206.865 408.476C204.871 410.682 202.45 412.46 199.749 413.702C194.891 415.948 189.597 417.095 184.245 417.062Z" fill="#755C33"/>
<path d="M129.192 122.769C129.308 121.766 129.213 120.75 128.914 119.786C128.615 118.821 128.118 117.93 127.456 117.168C126.793 116.406 125.979 115.791 125.065 115.361C124.151 114.932 123.158 114.697 122.149 114.673C121.413 113.838 120.51 113.167 119.498 112.703C118.486 112.24 117.388 111.994 116.276 111.983C115.163 111.971 114.06 112.194 113.039 112.637C112.018 113.079 111.101 113.732 110.348 114.552C79.9878 145.884 65.5159 190.514 50.4166 230.489C33.8194 274.41 9.26783 480.761 6.96042 527.577C1.71816 532.172 6.41393 543.648 15.5019 542.333C23.598 541.179 32.5645 544.114 40.3369 545.935C48.1092 547.757 56.2661 549.984 64.0991 552.514C80.2851 557.738 96.0115 564.291 111.118 572.106C112.331 572.759 113.686 573.107 115.064 573.118C119.882 575.851 128.059 573.462 128.706 566.014C136.985 471.451 122.189 217.373 129.192 122.769Z" fill="#E63220"/>
<path d="M116.096 575.626C114.454 575.637 112.832 575.263 111.36 574.533C109.89 574.455 108.455 574.062 107.15 573.38C92.1021 565.617 76.4446 559.098 60.3341 553.888C52.5415 551.398 44.5871 549.192 36.6933 547.35L32.6452 546.318C25.8647 544.618 18.8615 542.837 12.4048 543.768C10.0865 544.11 7.72002 543.677 5.67372 542.534C3.62741 541.392 2.01606 539.606 1.09042 537.453C0.210897 535.791 -0.14934 533.902 0.0563549 532.033C0.26205 530.164 1.0242 528.399 2.24412 526.968C4.51105 482.075 28.5567 275.36 45.761 230.041C47.2858 225.993 48.8106 221.945 50.3353 217.897C64.1798 180.614 78.5302 142.056 105.996 113.679C106.837 112.74 107.863 111.985 109.008 111.459C110.154 110.933 111.395 110.649 112.656 110.623C115.197 110.639 117.636 111.623 119.477 113.376C120.631 113.473 121.754 113.803 122.777 114.345C123.801 114.887 124.705 115.63 125.435 116.529C126.164 117.429 126.704 118.467 127.023 119.581C127.342 120.694 127.432 121.861 127.289 123.01C123.849 169.361 129.192 191.828 134.353 237.227C139.717 284.225 131.014 518.022 126.804 566.235C126.673 567.932 126.109 569.567 125.167 570.984C124.224 572.402 122.934 573.554 121.42 574.331C119.777 575.188 117.95 575.633 116.096 575.626ZM16.0278 540.732C21.872 540.995 27.6626 541.967 33.2727 543.626L37.3208 544.618C45.2955 546.5 53.3309 548.666 61.1842 551.236C77.444 556.463 93.2447 563.023 108.425 570.849C109.452 571.384 110.588 571.674 111.745 571.7H112.109L112.413 571.882C113.597 572.499 114.913 572.821 116.248 572.821C117.584 572.821 118.899 572.499 120.084 571.882C121.182 571.315 122.115 570.472 122.789 569.436C123.463 568.399 123.856 567.206 123.929 565.971C128.139 518.022 136.863 284.387 131.52 237.51C126.358 192.01 120.995 169.32 124.456 122.767C124.571 121.944 124.509 121.104 124.274 120.307C124.038 119.509 123.634 118.771 123.09 118.142C122.545 117.513 121.873 117.008 121.117 116.661C120.361 116.313 119.539 116.132 118.707 116.128H118.181L117.817 115.764C117.158 115.057 116.363 114.489 115.48 114.096C114.596 113.703 113.643 113.493 112.676 113.477C111.799 113.505 110.936 113.71 110.14 114.078C109.344 114.447 108.63 114.972 108.041 115.622C80.9793 143.595 66.7503 181.849 53.0071 218.848C51.4688 222.897 49.9508 227.046 48.4327 230.993C31.3093 276.311 7.26374 482.905 5.05754 527.758V528.345L4.61225 528.749C3.67765 529.756 3.08604 531.033 2.9224 532.396C2.75875 533.76 3.03149 535.14 3.70143 536.339C4.37036 537.934 5.55084 539.261 7.05693 540.112C8.56302 540.962 10.3091 541.287 12.0202 541.035C13.3467 540.835 14.6863 540.733 16.0278 540.732Z" fill="#75160D"/>
<path d="M135.284 711.764C125.831 709.275 121.5 699.883 119.091 691.301C118.991 690.968 118.785 690.677 118.504 690.471C118.486 690.298 118.434 690.13 118.351 689.977C118.267 689.825 118.154 689.69 118.018 689.581C113.242 685.33 107.527 682.271 101.34 680.655C95.2683 678.813 95.7136 673.955 96.4422 668.875C103.445 668.875 108.404 672.478 113.343 677.133C118.419 681.562 122.77 686.759 126.236 692.536C129.009 697.475 131.519 702.433 135.628 706.401C139.74 709.956 144.823 712.198 150.221 712.837C150.508 713.004 150.846 713.062 151.172 712.999C145.845 713.573 140.458 713.155 135.284 711.764Z" fill="#E63220"/>
<path d="M164.998 709.376C161.316 711.358 157.316 712.68 153.178 713.282C153.487 713.006 153.68 712.622 153.717 712.209C153.755 711.796 153.634 711.384 153.38 711.056C153.077 704.478 161.942 702.515 165.868 707.17C166.049 707.387 166.288 707.548 166.557 707.635C166.081 708.253 165.56 708.835 164.998 709.376Z" fill="#E63220"/>
<path d="M145.425 642.258C138.503 637.967 132.775 638.513 125.589 641.853C123.768 642.703 125.205 645.455 127.026 644.605C133.098 641.731 137.814 641.185 143.785 644.909C144.137 645.126 144.561 645.195 144.963 645.1C145.365 645.006 145.713 644.755 145.931 644.403C146.148 644.051 146.217 643.628 146.122 643.225C146.027 642.823 145.776 642.475 145.425 642.258Z" fill="#222114"/>
<path d="M154.492 679.116C153.283 678.52 151.918 678.319 150.589 678.541C149.26 678.762 148.034 679.395 147.084 680.351C146.879 680.638 146.779 680.987 146.798 681.34C146.818 681.692 146.957 682.028 147.192 682.291C147.427 682.555 147.745 682.73 148.093 682.79C148.441 682.849 148.799 682.788 149.108 682.617C149.551 682.114 150.14 681.761 150.793 681.609C151.447 681.456 152.131 681.512 152.751 681.767C153.106 681.975 153.526 682.037 153.925 681.943C154.324 681.849 154.672 681.605 154.897 681.261C155.124 680.922 155.209 680.507 155.133 680.106C155.057 679.705 154.827 679.349 154.492 679.116Z" fill="#222114"/>
</svg>
