<svg width="52" height="58" viewBox="0 0 52 58" fill="none" xmlns="http://www.w3.org/2000/svg">
<path d="M30.7813 7.16375C32.1276 8.09418 32.7073 9.55491 32.415 11.2711C32.1659 12.7319 31.179 13.8021 29.7753 14.1444C29.7273 14.154 29.6938 14.2022 29.7034 14.2504C29.7178 14.3565 29.6459 14.4529 29.5405 14.4674C29.5022 14.4722 29.4686 14.5011 29.4639 14.5397C29.4543 14.5783 29.4686 14.6168 29.5022 14.6409L29.6603 14.7518C29.6746 14.7615 29.6938 14.7711 29.713 14.7711C29.7178 14.7711 29.7226 14.7711 29.7321 14.7711C30.4747 14.6361 31.1407 14.3035 31.7108 13.7828C32.6258 12.9488 33.1289 11.7098 33.1001 10.3841C33.0666 8.99569 32.4533 7.70851 31.4137 6.8504C31.294 6.75398 31.1454 6.5274 31.1838 6.32974C31.3658 5.39449 31.5575 4.45924 31.7491 3.52399L31.9503 2.55017C32.0365 2.12111 32.2905 2.03434 32.4821 2.03434C32.5587 2.03434 32.6402 2.0488 32.7312 2.07773C32.9372 2.1404 33.148 2.19343 33.3588 2.25128C33.6223 2.31877 33.8858 2.39108 34.1445 2.47304C37.6562 3.61559 40.7942 5.55358 43.4723 8.22917C44.4832 9.23673 45.4126 10.3648 46.2462 11.5749C46.8595 12.4667 47.3673 13.4454 47.856 14.3951C48.0093 14.694 48.1674 14.9929 48.3255 15.2869C48.4405 15.4991 48.5458 15.7015 48.4692 15.8847C48.3973 16.0631 48.2009 16.1209 47.947 16.1933C47.741 16.2559 47.5398 16.3282 47.3194 16.4102L47.0224 16.5163C47.0032 16.5211 46.9792 16.5259 46.9601 16.5259C46.9361 16.5259 46.4427 16.4922 46.4427 16.4922C46.3995 16.4873 46.3564 16.4681 46.3229 16.4391C46.0833 16.2125 45.7336 16.0776 45.3599 16.0776C44.785 16.0776 44.2916 16.3668 44.1095 16.8152C43.8508 17.437 43.4196 17.6877 42.8447 17.8661C42.701 17.9095 42.5621 17.9577 42.4231 18.0107C42.0494 18.1602 41.6805 18.3144 41.3117 18.4735L41.1679 18.5314C41.1248 18.5507 41.1009 18.5989 41.1104 18.6423C41.12 18.6808 41.12 18.7242 41.1009 18.7628L41.005 19.0087C40.9907 19.0424 41.0002 19.0858 41.0242 19.1099C41.0434 19.1292 41.0673 19.1388 41.0913 19.1388C41.1009 19.1388 41.1152 19.1388 41.1248 19.134L41.6518 18.9412C42.5477 18.6182 43.4484 18.2903 44.3443 17.9722C44.4065 17.9529 44.4353 17.9336 44.4257 17.9336C44.464 17.9288 44.4976 17.8999 44.5072 17.8613C44.5119 17.8372 44.5167 17.7986 44.5119 17.7504C44.4736 17.384 44.4928 16.9405 44.9814 16.7718C45.13 16.7187 45.2737 16.6946 45.4126 16.6946C45.7288 16.6946 45.9923 16.8296 46.184 17.0803C46.2941 17.2249 46.3708 17.2442 46.4427 17.2442C46.5049 17.2442 46.5816 17.2249 46.687 17.1912C47.0128 17.0755 47.3481 16.9887 47.6787 16.8971C47.8176 16.8585 47.9566 16.8248 48.0907 16.7862C48.1051 16.7814 48.1243 16.7814 48.1434 16.7814C48.1626 16.7814 48.177 16.7814 48.1913 16.7862C48.1961 16.7862 48.2009 16.7862 48.2057 16.7862C48.2344 16.7862 48.2776 16.7718 48.2967 16.7573C48.3159 16.7525 48.3446 16.738 48.383 16.7332L48.4117 16.6368L48.4596 16.7428C48.4692 16.7477 48.4788 16.7477 48.4884 16.7477C48.5171 16.7477 48.5458 16.7332 48.565 16.7091C48.589 16.6753 48.6273 16.6512 48.6656 16.6416L49.3315 16.4584C49.3555 16.4536 49.3795 16.4343 49.389 16.4102C49.4034 16.3861 49.4034 16.3572 49.3938 16.3331C47.8033 11.9075 45.0437 8.29184 40.9571 5.27879C38.1449 3.20581 35.0644 1.85115 31.8018 1.24854C31.797 1.24854 31.7922 1.24854 31.7826 1.24854C31.7443 1.24854 31.706 1.27264 31.6916 1.31603C31.2461 2.64659 30.9921 4.02054 30.7478 5.36074C30.6711 5.77052 30.5993 6.17547 30.5178 6.58525C30.4604 6.86968 30.513 6.97574 30.7813 7.16375Z" fill="#FFFEF7"/>
<path d="M49.5232 22.3158C49.4992 22.258 49.4705 22.1905 49.4609 22.1133C49.4226 21.8096 49.389 21.5059 49.3507 21.1974C49.2836 20.5851 49.2118 19.9488 49.1016 19.3317C49.001 18.7676 48.8525 18.194 48.7087 17.6347L48.5985 17.2105C48.5938 17.1816 48.5746 17.1623 48.5506 17.1478C48.5363 17.143 48.5219 17.1382 48.5075 17.1382C48.4979 17.1382 48.4836 17.1382 48.474 17.143C48.45 17.1526 48.4213 17.1623 48.3877 17.1671C48.3638 17.1671 48.3398 17.1816 48.3207 17.2009C48.3015 17.2201 48.2776 17.2394 48.2536 17.2491L48.0141 17.3599C47.832 17.4419 47.6452 17.5287 47.4583 17.601C46.9217 17.8083 46.3852 18.0059 45.8438 18.1988C45.6665 18.2614 45.6234 18.3145 45.6186 18.4687C45.6138 18.7387 45.4701 18.9894 45.3887 19.1147C45.2018 19.3944 44.9335 19.5583 44.6509 19.5583C44.373 19.5583 44.1047 19.404 43.9131 19.134C43.8939 19.1099 43.8652 19.0955 43.8364 19.0955C43.8316 19.0955 43.8269 19.0955 43.8221 19.0955C43.7885 19.1003 43.755 19.1244 43.7454 19.1581C43.7262 19.216 43.6783 19.2594 43.6208 19.2738C42.8735 19.4956 42.1309 19.727 41.3883 19.9584L41.0577 20.0596C41.0338 20.0693 41.0146 20.0837 41.0002 20.1078C40.9907 20.1319 40.9859 20.1561 40.9955 20.1802L41.0194 20.2525C41.0338 20.291 41.0673 20.32 41.1104 20.32C41.1152 20.32 41.12 20.32 41.12 20.32C41.211 20.3103 41.2973 20.2959 41.3835 20.2718C41.647 20.1946 41.9105 20.1175 42.1788 20.0355C42.4998 19.9391 42.8256 19.8427 43.1465 19.7511C43.2088 19.7318 43.2807 19.727 43.3526 19.727C43.4532 19.727 43.5921 19.7463 43.6927 19.8282C43.9658 20.0548 44.2868 20.1753 44.6126 20.1753C45.2545 20.1753 45.8725 19.7222 46.1073 19.0714C46.1648 18.9074 46.3085 18.7098 46.4858 18.6278C46.7349 18.517 46.9936 18.4205 47.2906 18.3097C47.4296 18.2566 47.5637 18.2084 47.6979 18.1554C47.7937 18.1168 47.8703 18.1024 47.9374 18.1024C48.0811 18.1024 48.268 18.1747 48.3159 18.5266C48.3686 18.893 48.4357 19.2594 48.5027 19.6306C48.6321 20.3392 48.7614 21.072 48.7998 21.8048C48.8668 23.0968 48.9291 24.7986 48.7854 26.4859C48.6225 28.419 48.1722 30.2799 47.4535 32.0251C47.0894 32.9025 46.663 33.7654 46.2367 34.6332C46.0833 34.9417 45.93 35.2502 45.7815 35.5588C45.7624 35.5973 45.7719 35.6407 45.8007 35.6696L46.1313 36.0071C46.1504 36.0264 46.1744 36.0312 46.1983 36.0312C46.2031 36.0312 46.2079 36.0312 46.2175 36.0312C46.2462 36.0264 46.275 36.0071 46.2894 35.9782L46.3373 35.8962C48.0045 32.9362 49.0249 29.8267 49.3651 26.6546C49.3938 26.3702 49.4369 26.0857 49.4753 25.8061L49.528 25.4446V22.3737C49.5375 22.3592 49.528 22.3303 49.5232 22.3158Z" fill="#FFFEF7"/>
<path d="M31.5096 29.0022C31.4905 28.9877 31.4713 28.9829 31.4522 28.9829C31.4378 28.9829 31.4282 28.9877 31.4138 28.9926C31.3803 29.007 31.3611 29.0359 31.3563 29.0697L31.3036 29.5277C31.2989 29.5614 31.3132 29.5952 31.342 29.6144L31.7013 29.8941C32.2043 30.2894 32.7074 30.6847 33.2104 31.0848C33.2727 31.133 33.3158 31.1909 33.3398 31.2343C33.3589 31.2584 33.3829 31.2728 33.4164 31.2776H33.4212C33.4499 31.2776 33.4787 31.2632 33.4931 31.2439C33.5458 31.1812 33.608 31.1089 33.6895 31.0559C34.2404 30.6943 34.8872 30.5015 35.5483 30.5015C36.5832 30.5015 37.5653 30.9595 38.2408 31.7597C38.2552 31.7742 38.2695 31.7838 38.2935 31.7887L38.993 31.9574C39.0026 31.9574 39.0073 31.9622 39.0169 31.9622C39.0457 31.9622 39.0744 31.9478 39.0936 31.9236C39.1175 31.8899 39.1175 31.8513 39.0936 31.8176C38.7534 31.2873 38.26 30.8438 37.5749 30.4533C36.9425 30.0917 36.2766 29.9133 35.5963 29.9133C35.007 29.9133 34.3937 30.0483 33.7757 30.3183C33.656 30.3713 33.5649 30.3906 33.4739 30.3906C33.3014 30.3906 33.1721 30.3038 33.0667 30.2171C32.6068 29.841 32.1277 29.4795 31.663 29.1275L31.5096 29.0022Z" fill="#FFFEF7"/>
<path d="M10.4589 19.8135C10.2864 18.9795 9.73547 18.3238 9.27555 17.8514C8.85875 17.4175 8.37487 17.1909 7.8862 17.1909C7.50772 17.1909 7.13404 17.3211 6.77472 17.5814C5.99381 18.1503 5.48598 19.4374 5.64408 20.4498C5.66324 20.5655 5.67282 20.6812 5.6872 20.7969C5.70636 20.9898 5.72552 21.1681 5.76864 21.3369C5.85967 21.6695 5.9459 21.7804 6.00818 21.819C6.53039 22.1468 7.00947 22.4312 7.51251 22.5951C7.79518 22.6867 8.08742 22.7301 8.37008 22.7301C9.03601 22.7301 9.64924 22.4794 10.0469 22.0407C10.4062 21.6502 10.5691 21.144 10.5212 20.5848C10.5116 20.498 10.5068 20.4161 10.502 20.3293C10.502 20.1461 10.4924 19.9774 10.4589 19.8135ZM9.65403 21.5538C9.36658 21.9202 8.90666 22.1082 8.3078 22.113L8.13054 22.0938C7.9916 22.0793 7.84788 22.0696 7.70415 22.0263C6.99989 21.8334 6.48248 21.3176 6.28126 20.6089C6.05609 19.8231 6.27168 18.9746 6.86096 18.3335C7.18674 17.9815 7.52689 17.7983 7.87662 17.7983C8.20719 17.7983 8.52818 17.9574 8.83479 18.2708C9.27076 18.7191 9.74026 19.2832 9.90795 20.069C10.0325 20.6764 9.94627 21.1874 9.65403 21.5538Z" fill="#FFFEF7"/>
<path d="M14.6021 20.956C14.444 20.8789 14.2955 20.8403 14.1518 20.8403C13.9745 20.8403 13.8116 20.8982 13.6583 21.0139C13.4475 21.173 13.3086 21.5153 13.3086 21.8961C13.3086 22.2721 13.4332 22.6048 13.644 22.759C13.7733 22.8603 13.917 22.9085 14.056 22.9085C14.1757 22.9085 14.2907 22.8699 14.4009 22.7976C14.8273 22.5132 15.0093 22.1613 14.9519 21.7322C14.9519 21.7129 14.9519 21.6936 14.9519 21.6792C15.0189 21.2164 14.7842 21.0428 14.6021 20.956ZM14.5063 22.1371C14.4249 22.2432 14.2811 22.3252 14.1326 22.3493C14.1087 22.3541 14.0799 22.3541 14.056 22.3541C14.0081 22.3541 13.9649 22.3444 13.9266 22.3252C13.8548 22.2866 13.8164 22.1902 13.7973 22.1371C13.7446 21.9588 13.8021 21.7467 13.941 21.5924C13.9985 21.5297 14.0847 21.4912 14.1901 21.4863L14.2093 21.3947V21.4863C14.2955 21.4863 14.377 21.5201 14.444 21.5731C14.444 21.5924 14.4536 21.6117 14.468 21.6261C14.6021 21.7804 14.6165 21.9925 14.5063 22.1371Z" fill="#FFFEF7"/>
<path d="M41.5946 12.727C41.8772 12.3028 41.9683 11.7821 41.8533 11.2663C41.5083 9.7236 40.3202 9.06796 39.0554 8.58105C38.9883 8.58105 38.9021 8.60998 38.8159 8.63891C37.9583 8.92816 37.3547 9.31383 36.9187 9.84895C36.2336 10.683 36.1521 11.6568 36.6983 12.4426C37.254 13.2428 38.0445 13.6333 39.1177 13.6333H39.1943C39.1991 13.6333 39.1991 13.6333 39.2039 13.6333C39.3333 13.6189 39.4578 13.6092 39.592 13.5996C39.8699 13.5755 40.1286 13.5562 40.3873 13.508C40.8951 13.4164 41.3215 13.1416 41.5946 12.727ZM40.4831 12.8186C39.9848 12.9729 39.5728 13.0452 39.1848 13.0452C38.8494 13.0452 38.538 12.9922 38.2362 12.8813C37.4984 12.6113 37.072 12.1533 36.9666 11.5121C36.8325 10.7215 37.3547 10.1912 37.7523 9.85859C38.1835 9.49702 38.5763 9.33311 38.9788 9.33311C39.247 9.33311 39.5249 9.41507 39.798 9.56934C40.713 10.0948 41.2832 10.9095 41.2832 11.6953C41.2879 12.3028 41.0484 12.6402 40.4831 12.8186Z" fill="#FFFEF7"/>
<path d="M33.3887 15.2243C33.3887 15.8655 33.8246 16.2993 34.4666 16.2993C34.5002 16.2993 34.5576 16.3042 34.5624 16.3042C34.8595 16.3042 35.2188 16.1643 35.2475 15.4942C35.2571 15.2725 35.1421 15.0073 34.9361 14.7904C34.7062 14.5445 34.4091 14.3999 34.1456 14.3999C33.6905 14.4095 33.3887 14.7374 33.3887 15.2243ZM34.3421 14.9929C34.3852 14.9929 34.4331 15.0122 34.4858 15.0459C34.4954 15.0555 34.5049 15.0555 34.5145 15.0555C34.5241 15.0555 34.5337 15.0555 34.5433 15.0555C34.6295 15.0845 34.6918 15.1568 34.7157 15.2532C34.7397 15.3496 34.7349 15.4557 34.7109 15.5376C34.6678 15.6678 34.5576 15.7497 34.4091 15.7546C34.2798 15.7546 34.1504 15.6823 34.0786 15.5714C33.9971 15.4412 34.0163 15.2628 34.1265 15.123C34.1744 15.0604 34.2414 15.017 34.2989 15.0025C34.3181 14.9929 34.3325 14.9929 34.3421 14.9929Z" fill="#FFFEF7"/>
<path d="M22.3214 8.20991C22.5274 7.26502 21.8519 5.61627 21.047 5.1149C20.9224 5.03777 20.7356 4.98474 20.5487 4.9751H20.4913C20.3619 4.9751 20.223 4.99438 20.0697 5.01849C19.993 5.02813 19.9163 5.04259 19.8014 5.05223C19.7151 5.04259 19.6337 5.03777 19.5522 5.03777C18.8336 5.03777 18.1341 5.34148 17.4826 5.93927C17.061 6.32494 16.8215 6.86488 16.8262 7.41928C16.8262 7.92548 17.0275 8.38828 17.3916 8.7161C18.1294 9.3862 18.9869 9.77187 19.9403 9.86347C20.0649 9.87793 20.1846 9.88275 20.2996 9.88275C21.4159 9.88275 22.0722 9.33799 22.3214 8.20991ZM19.672 9.20301C19.0827 9.11141 18.503 8.83662 17.8994 8.36418C17.885 8.34971 17.8467 8.34489 17.818 8.34489C17.8132 8.34489 17.8084 8.34489 17.8036 8.34489C17.7269 8.34489 17.6551 8.29668 17.6263 8.22437L17.564 8.07974C17.5497 8.05564 17.5353 8.03153 17.5305 8.00261C17.4203 7.43857 17.5161 6.91791 17.7988 6.50814C18.1102 6.0598 18.6228 5.76572 19.284 5.65966C19.4564 5.63074 19.6624 5.60181 19.8636 5.60181C19.9643 5.60181 20.0649 5.60663 20.1655 5.62592C20.7308 5.72233 21.2386 6.14175 21.5261 6.74918C21.8231 7.38554 21.8183 8.07974 21.5165 8.60522C21.277 9.02464 21.0182 9.2705 20.4098 9.2705C20.2278 9.28014 19.9978 9.25604 19.672 9.20301Z" fill="#FFFEF7"/>
<path d="M41.7966 29.6386C42.2805 29.9085 42.7884 30.0483 43.2962 30.0483C43.5836 30.0483 43.8855 30.0049 44.1825 29.9133C44.5801 29.7976 44.8772 29.6434 45.0688 29.4602C45.2077 29.33 45.2892 29.1227 45.3802 28.901C45.4185 28.8094 45.4521 28.7226 45.4904 28.6406C45.8928 27.7777 45.9551 26.9581 45.6868 26.1338C45.3994 25.2515 44.7478 24.7261 43.943 24.7261C43.622 24.7261 43.2914 24.808 42.9608 24.9671C42.338 25.266 41.7583 25.7433 41.2026 26.4327C40.8337 26.8858 40.642 27.3052 40.6708 27.609C40.6804 28.5972 41.0205 29.2095 41.7966 29.6386ZM41.4373 27.1799C41.8589 26.4134 42.5153 25.8349 43.3872 25.4637C43.5788 25.3817 43.7657 25.3431 43.9477 25.3431C44.6185 25.3431 45.1263 25.8879 45.2173 26.7026C45.2269 26.7894 45.2269 26.8762 45.2269 26.9678C45.2269 26.9919 45.2365 27.016 45.2556 27.0353C45.2652 27.0497 45.2748 27.0594 45.2844 27.0787C45.3083 27.1269 45.3131 27.1799 45.2988 27.2281C45.2604 27.3486 45.2269 27.474 45.1934 27.5945C45.1167 27.8693 45.0353 28.1537 44.9299 28.4285C44.676 29.089 44.1633 29.4361 43.4447 29.4361H43.3728C42.7788 29.4168 41.9308 29.2963 41.4373 28.4478C41.1978 28.0477 41.2026 27.609 41.4373 27.1799Z" fill="#FFFEF7"/>
<path d="M37.1006 28.1201C37.5606 28.1201 37.9534 27.5513 37.9534 26.8811C37.9534 26.6739 37.8863 26.5003 37.757 26.3701C37.6133 26.2255 37.3929 26.1436 37.139 26.1436C36.5736 26.1436 36.2383 26.481 36.2383 27.0499C36.2383 27.6187 36.6263 28.1105 37.0863 28.1249H37.1006V28.1201ZM36.9138 27.2234C36.885 27.1608 36.8755 27.1029 36.8803 27.0499C36.885 26.992 36.9042 26.9438 36.9425 26.9004C36.9761 26.8619 37.024 26.8281 37.0815 26.8088C37.1006 26.804 37.1246 26.7992 37.1438 26.7992C37.1725 26.7992 37.206 26.804 37.2252 26.8137C37.2348 26.8378 37.2539 26.8522 37.2779 26.8619L37.3306 26.9101C37.3641 26.939 37.3929 26.9679 37.412 26.9969C37.4408 27.0354 37.4312 27.0836 37.4216 27.1077C37.4073 27.1656 37.3737 27.2186 37.3258 27.2765C37.2875 27.3247 37.2396 27.3584 37.1869 27.3777C37.1725 27.3825 37.1533 27.3873 37.139 27.3873C37.0479 27.3873 36.9569 27.315 36.9138 27.2234Z" fill="#FFFEF7"/>
<path d="M22.4266 24.3645C22.9823 24.4417 23.5764 24.3886 24.1273 24.3356C24.5058 24.297 25.3154 24.2247 25.325 23.6944C25.325 23.6462 25.3154 23.6077 25.2963 23.5787C25.3538 23.4389 25.2867 23.2461 25.0951 23.2461C24.1273 23.2557 23.1596 23.3955 22.3259 23.9162C22.1104 24.0464 22.187 24.3308 22.4266 24.3645Z" fill="#FFFEF7"/>
<path d="M26.5037 24.62C26.7193 24.7116 26.9733 24.726 27.2032 24.7549C27.6152 24.808 27.9841 24.9333 28.3434 25.131C28.4105 25.1695 28.4728 25.1695 28.5303 25.1503C28.5447 25.1647 28.5638 25.1792 28.583 25.1888C28.8321 25.372 29.0812 24.9622 28.8321 24.779C28.3003 24.3886 27.8308 23.9402 27.208 23.6992C26.9541 23.5979 26.1923 23.4485 26.0295 23.8052C25.8522 24.1957 26.1684 24.4802 26.5037 24.62Z" fill="#FFFEF7"/>
<path d="M23.2984 24.866C22.9917 24.8516 22.9726 25.3337 23.2792 25.3481C24.7883 25.4253 26.3214 26.0568 27.8449 25.7627C28.1467 25.7049 28.0413 25.2324 27.7395 25.2951C26.2735 25.5795 24.7548 24.9384 23.2984 24.866Z" fill="#FFFEF7"/>
<path d="M28.7797 27.9563C26.5472 29.2001 23.9266 28.9253 21.948 27.3248C21.7084 27.1319 21.4593 27.5417 21.6988 27.7345C23.802 29.4363 26.6382 29.7015 29.0001 28.3854C29.2684 28.2311 29.048 27.8069 28.7797 27.9563Z" fill="#FFFEF7"/>
<path d="M40.8414 20.0788C40.5396 19.6739 40.3623 19.322 40.7264 18.8881C40.7887 18.8109 40.7983 18.7242 40.7695 18.6518C40.8606 18.5747 40.8941 18.4397 40.7887 18.3337C40.3288 17.8805 39.797 17.7021 39.246 17.6829C38.5609 17.6202 37.8327 17.813 37.1428 18.0492C36.4003 18.2999 35.6816 18.5603 34.9103 18.7049C34.3977 18.8013 33.9042 18.8254 33.4203 18.8061C32.9604 18.782 32.5005 18.7242 32.0214 18.647C31.9975 18.6422 31.9783 18.647 31.9591 18.6518C31.9304 18.647 31.9016 18.6422 31.8777 18.6422C31.6525 18.6036 31.595 18.8688 31.71 19.0182C31.7292 19.1918 31.8537 19.3171 32.0023 19.4232C32.0597 19.4618 32.122 19.5051 32.1795 19.5437C32.2083 19.563 32.2418 19.5871 32.2705 19.6112C32.2753 19.616 32.2753 19.6112 32.2753 19.616C32.2801 19.6208 32.2801 19.6208 32.2849 19.6257C32.2993 19.6353 32.3137 19.6498 32.328 19.6594C32.352 19.6835 32.3759 19.7028 32.3999 19.7269C32.3999 19.7269 32.4382 19.7751 32.4239 19.751C32.4047 19.7269 32.4382 19.7751 32.443 19.7799C32.4478 19.7848 32.4478 19.7896 32.4526 19.7944C32.4574 19.7992 32.4622 19.804 32.4622 19.8089C32.4622 19.8137 32.467 19.8185 32.467 19.8233C32.467 19.8233 32.467 19.8281 32.467 19.8233C32.5292 19.939 32.6011 20.0547 32.6203 20.1849C32.6299 20.2524 32.6299 20.3247 32.6059 20.3874C32.5867 20.4404 32.5484 20.4934 32.5436 20.5513C32.5292 20.6477 32.6586 20.6814 32.7305 20.7007C32.8646 20.7345 33.0035 20.72 33.1425 20.7296C33.1521 20.7296 33.1521 20.7345 33.1569 20.7393C33.2 20.7393 33.2479 20.7393 33.291 20.7393C33.4874 20.7538 33.6838 20.7875 33.8803 20.855C34.1965 20.9659 34.5031 21.1201 34.8193 21.2358C35.0876 21.3323 35.3702 21.3708 35.6577 21.3805C35.9547 21.3997 36.2565 21.3853 36.544 21.3564C37.5261 21.2648 38.5561 20.2668 39.5862 20.2668C39.7922 20.2861 39.9982 20.344 40.2042 20.4645C40.2665 20.5031 40.324 20.4982 40.3767 20.4838C40.4485 20.5127 40.5204 20.5079 40.5779 20.4741C40.7599 20.5561 40.9947 20.2861 40.8414 20.0788Z" fill="#FFFEF7"/>
<path d="M32.0885 20.7201C32.1316 20.696 32.3951 20.5369 32.352 20.0838C32.3472 20.0163 32.2323 19.6547 31.7627 19.621C31.3364 19.592 31.0393 19.457 31.0393 19.4619C30.7423 19.3462 30.4788 19.1726 30.2105 18.8978C29.9039 18.5845 29.5925 18.382 29.1613 18.2904C29.0559 18.2663 28.9505 18.2615 28.8499 18.2566C27.9732 18.1602 27.2018 18.758 26.3587 18.7532C26.1862 18.7387 26.0089 18.6953 25.8317 18.6134C25.4532 18.4398 25.113 18.2277 24.7154 18.1024C24.5477 18.0493 24.3657 18.0252 24.1836 18.0156C23.7668 17.9674 23.3165 18.0108 22.9188 18.0445C21.8313 18.1265 20.7773 18.3531 19.6994 18.3145C19.5748 18.3049 19.455 18.3 19.3305 18.2856C19.3017 18.2711 19.2682 18.2615 19.2299 18.2566C19.1963 18.2566 19.158 18.2566 19.1197 18.2566C19.1101 18.2566 19.1053 18.2518 19.0957 18.2518C19.1053 18.2518 19.1149 18.247 19.1197 18.247C19.1772 18.2422 19.2394 18.2422 19.2969 18.2518C19.2969 18.2518 19.2969 18.2518 19.2969 18.247C19.2921 18.247 19.2873 18.247 19.2826 18.2422C19.2921 18.2422 19.2921 18.2422 19.2778 18.2422C19.2682 18.2422 19.2586 18.2422 19.249 18.2374C19.1963 18.2325 19.1436 18.2374 19.0909 18.2422C18.9951 18.2518 18.8753 18.2856 18.7843 18.3241C18.6837 18.3675 18.5927 18.4206 18.5208 18.5025C18.4969 18.5266 18.4873 18.5555 18.4729 18.5796C18.4729 18.5893 18.4729 18.5989 18.4681 18.6037C18.4537 18.6279 18.4489 18.652 18.4489 18.6761C18.4489 18.6953 18.4489 18.7146 18.4489 18.7339C18.4489 18.7436 18.4489 18.7532 18.4489 18.7628C18.4489 18.7628 18.4537 18.7869 18.4489 18.7773C18.4585 18.8352 18.4729 18.893 18.4825 18.9509C18.5448 19.0666 18.5975 19.1919 18.5064 19.3076C18.3148 19.539 18.2334 19.7993 18.2429 20.05C18.3052 20.2911 18.425 20.5128 18.6214 20.6719C18.722 20.7539 18.837 20.8117 18.9568 20.8503C19.0718 20.8888 19.1915 20.9129 19.3017 20.9515C20.2982 21.0913 21.1797 21.5686 22.1906 21.6746C22.2385 21.6795 22.2816 21.6795 22.3295 21.6843C22.3343 21.6843 22.3343 21.6843 22.3391 21.6843C22.3535 21.6843 22.3679 21.6843 22.3822 21.6843C22.4254 21.6891 22.4685 21.6891 22.5164 21.6891C22.9571 21.7084 23.8914 21.4818 24.0543 21.3613C24.1357 21.3034 24.2267 21.2697 24.3177 21.2263C24.4998 21.1347 24.6723 21.0287 24.8639 20.9563C25.0412 20.8888 25.2424 20.8551 25.4388 20.8551C25.4771 20.8551 25.5107 20.8455 25.549 20.8358C25.5969 20.8262 25.6448 20.8214 25.6975 20.8165C25.7981 20.8117 25.8939 20.8069 25.9946 20.8262C26.0568 20.8406 26.1191 20.8551 26.1814 20.8792C26.5359 20.9322 26.8665 21.0865 27.1827 21.3854C27.5133 21.6988 27.8917 21.8819 28.3229 22.0025C28.4906 22.0459 28.6583 22.0651 28.8259 22.07C29.2667 22.1085 29.7218 22.0266 30.1578 22.0073C30.2153 22.0121 30.2728 22.0121 30.3255 22.0218C30.5315 22.0555 30.7327 22.1182 30.9387 22.176C30.9435 22.176 30.9435 22.1712 30.9483 22.1712C31.1495 22.1905 31.3459 22.2339 31.5472 22.2821C31.7053 22.3158 31.8681 22.3496 31.9735 22.1953C32.0167 22.1326 32.0215 22.0459 32.0358 21.9687C32.0502 21.8868 32.0742 21.8096 32.1173 21.7373C32.1604 21.6554 32.4478 21.4047 32.2658 21.1444C32.1939 21.0287 31.9592 20.7924 32.0885 20.7201ZM23.8482 20.0789C23.7764 20.0982 23.6949 20.0838 23.6231 20.0211C23.4267 19.8427 23.12 19.674 22.8278 19.6354C22.6457 19.6402 22.4781 19.7077 22.3487 19.8668C22.2673 19.9681 22.1523 19.9825 22.0517 19.9488C21.8505 19.9922 21.6301 19.7945 21.7834 19.5968C22.0852 19.2112 22.4972 19.0955 22.914 19.1533C23.3452 19.1678 23.7908 19.3799 24.1309 19.6884C24.3417 19.8813 24.0782 20.1657 23.8482 20.0789ZM30.1339 20.8696C30.038 20.8888 29.9278 20.8647 29.856 20.7635C29.6021 20.4019 29.2619 20.1754 28.8834 20.1223C28.6822 20.1175 28.4666 20.1561 28.2558 20.2573C28.184 20.2911 28.1121 20.2862 28.0546 20.2621C27.7959 20.32 27.6139 19.9343 27.8822 19.809C28.2463 19.6402 28.6008 19.5872 28.9361 19.6306C29.5254 19.6595 30.0524 19.9873 30.4405 20.5417C30.5842 20.7539 30.3303 20.9371 30.1339 20.8696Z" fill="#FFFEF7"/>
<path d="M31.3897 18.8929C31.3897 18.8109 31.1214 15.9811 29.3919 14.7903C28.496 14.1732 27.5761 13.7683 26.5509 13.5995C26.5557 13.5947 26.5605 13.5947 26.5653 13.5899C26.5844 13.561 26.5844 13.5224 26.5653 13.4887C26.4982 13.3778 26.4311 13.2717 26.3497 13.1464C26.1341 12.8089 25.9089 12.4618 25.8035 12.0761C25.5257 11.0397 25.7173 9.90675 26.3257 8.96668C26.9629 7.98804 27.9738 7.32758 29.0948 7.15885C29.1859 7.14438 29.3248 7.04797 29.3775 6.97083C29.7272 5.51493 30.1297 3.79869 30.4794 2.06318C30.5561 1.68233 30.5752 1.53288 30.5273 1.43164C30.4698 1.37861 30.3309 1.33522 29.9333 1.26291C29.3631 1.15685 28.7739 1.08454 28.1942 1.01705C27.9403 0.988121 27.6863 0.954375 27.4564 0.920629L27.0731 0.906167L26.6084 0.853137C26.6084 0.853137 24.0692 0.785645 24.0549 0.785645C17.9992 1.10382 12.6862 3.43231 8.26898 7.72289C8.24982 7.74217 8.24023 7.76628 8.24023 7.7952C8.24023 7.82413 8.25461 7.84823 8.27377 7.86752L8.70016 8.22908C9.21278 8.66296 9.70624 9.08238 10.1949 9.50662L10.238 9.54518C10.4344 9.71391 10.559 9.81997 10.7123 9.81997C10.789 9.81997 10.88 9.79105 10.9806 9.7332C11.1004 9.6657 11.2249 9.63196 11.3543 9.63196C11.6082 9.63196 11.8717 9.76694 12.116 10.0176C12.3747 10.2876 12.3843 10.6347 12.14 10.9963C12.0394 11.1505 12.0538 11.2228 12.2358 11.4012C13.0503 12.1918 13.8551 12.9873 14.6648 13.7827L15.6325 14.7373C15.6517 14.7566 15.6756 14.7662 15.6996 14.7662C15.7236 14.7662 15.7427 14.7566 15.7619 14.7421C16.1308 14.4287 16.4422 14.2841 16.744 14.2841C17.0506 14.2841 17.3381 14.4432 17.592 14.7614C17.7309 14.9349 17.9082 15.1953 17.8651 15.5183C17.8267 15.8123 17.6207 16.0823 17.1848 16.4246C17.1608 16.4439 17.1464 16.468 17.1464 16.4969C17.1464 16.5258 17.156 16.5547 17.18 16.574C17.3812 16.7476 17.5968 16.9018 17.8076 17.0561C17.9561 17.1622 18.1046 17.2731 18.2483 17.3839C18.4016 17.5045 18.5502 17.6298 18.6987 17.7503C18.7035 17.7503 18.7035 17.7503 18.7083 17.7503C18.8712 17.8371 19.0772 17.8033 19.2305 17.7118C19.3071 17.6684 19.3838 17.6105 19.4317 17.5334C19.4604 17.49 19.4844 17.4418 19.5035 17.3888C19.5323 17.3261 19.561 17.2634 19.5802 17.1959C19.585 17.1815 19.5994 17.1766 19.6042 17.1622C19.7335 16.8054 19.8868 16.4631 20.088 16.1305C20.9121 14.7517 22.5889 14.3709 24.0501 14.1443C25.0035 13.9997 27.9977 14.0672 29.4063 15.4508C30.3405 16.3715 30.7621 17.6587 30.9633 18.9459C30.9872 19.0134 31.0256 19.0761 31.0783 19.1194C31.1549 19.1821 31.2651 19.1966 31.3466 19.1628C31.3849 19.1436 31.3945 19.1194 31.3945 19.0761C31.404 19.023 31.3897 18.9604 31.3897 18.8929ZM22.6224 13.5754C22.5553 13.6188 22.4787 13.6429 22.3972 13.6429C22.311 13.6429 22.2248 13.6188 22.1385 13.5754C22.0475 13.5272 21.9229 13.4405 21.8654 13.3151C21.808 13.1994 21.8175 13.0692 21.8846 12.9632C21.9469 12.8716 22.0331 12.8234 22.1577 12.8137H22.2008C22.2775 12.8137 22.3541 12.8282 22.4308 12.8427C22.4356 12.8427 22.4403 12.8427 22.4499 12.8427C22.4787 12.8427 22.5026 12.8234 22.5218 12.7945C22.6272 12.8282 22.7086 12.8812 22.7661 12.9584C22.8092 13.0162 22.8332 13.0982 22.8284 13.1801C22.8332 13.3344 22.7518 13.4838 22.6224 13.5754ZM22.9769 13.8358C23.0919 13.6767 23.2069 13.5079 23.2931 13.3344C23.3985 13.1078 23.3889 12.8427 23.2596 12.6305C23.1925 12.5197 23.044 12.3317 22.7565 12.3172C22.7086 12.3172 22.6607 12.3124 22.6128 12.3124C22.1721 12.3124 21.8367 12.4329 21.5972 12.6836C21.3049 12.9825 21.3001 13.3585 21.5828 13.7056C21.7457 13.9081 21.9373 14.0238 22.1768 14.0768C21.4295 14.3371 20.7252 14.6987 20.1455 15.282C19.6377 15.793 19.3119 16.4487 19.0915 17.1525L18.2915 16.4921C18.2196 16.4342 18.2004 16.333 18.2436 16.251C18.6412 15.5279 18.555 14.8626 17.9896 14.2841C17.5776 13.8599 17.1321 13.6429 16.6626 13.6429C16.4326 13.6429 16.1979 13.696 15.9535 13.7972C15.9104 13.8165 15.8673 13.8213 15.8146 13.8213C15.6661 13.8213 15.4744 13.7393 15.369 13.6381C14.6792 12.9632 13.8743 12.1677 13.1125 11.3627C12.9784 11.2228 12.9401 11.03 12.9017 10.8275C12.8922 10.789 12.8874 10.7504 12.8778 10.7167C12.849 10.5913 12.8299 10.466 12.8107 10.3358C12.7772 10.114 12.7484 9.90193 12.6574 9.74284C12.4035 9.28485 12.0106 9.07756 11.3926 9.07756C11.2728 9.07756 11.1531 9.0872 11.0141 9.10166C10.995 9.10166 10.9758 9.09684 10.9567 9.09202L10.3961 8.91365C10.3674 8.90401 10.3386 8.88954 10.3147 8.86544L9.28464 7.82413C9.24631 7.78556 9.22715 7.73253 9.22715 7.6795C9.23194 7.62647 9.2559 7.57344 9.29901 7.5397C9.52418 7.36132 9.74456 7.18295 9.96494 6.99976L10.0368 6.94191C10.5542 6.52249 11.086 6.08861 11.6322 5.68848C13.2611 4.48808 15.1439 3.4998 17.2231 2.75256C19.2305 2.02461 21.2426 1.59073 23.2021 1.45093C23.6668 1.41718 24.1698 1.40272 24.692 1.40272C25.2095 1.40272 25.7508 1.41718 26.3449 1.45093C26.9342 1.48467 27.5234 1.55699 28.0936 1.62448C28.5056 1.67751 28.9128 1.72572 29.3248 1.76428C29.5356 1.78357 29.6889 1.85588 29.7799 1.98122C29.9045 2.14995 29.871 2.36689 29.8374 2.51634C29.5787 3.68299 29.2961 4.92196 28.9895 6.15128C28.932 6.37304 28.6924 6.58516 28.496 6.64783C27.6241 6.93709 26.9246 7.37097 26.3545 7.97358C25.1041 9.2945 24.51 11.6182 25.7652 13.5128C23.892 13.3392 23.2404 13.7635 22.9769 13.8358Z" fill="#FFFEF7"/>
<path d="M48.5173 40.3075C47.3483 37.1112 44.6367 34.5947 41.5753 33.2545C38.1403 31.7552 34.3459 31.5286 30.6474 31.707C30.3504 31.7215 30.3312 32.1843 30.6282 32.1746C33.9195 32.0155 37.254 32.1795 40.3872 33.2834C43.5779 34.4067 46.3423 36.6966 47.7987 39.7916C49.0539 42.4576 49.0156 45.6683 47.1807 48.1076C45.3985 50.4795 39.2182 51.381 37.3259 51.5931C37.2396 51.6028 37.1917 51.6462 37.1678 51.704C37.1438 51.569 37.0049 51.4389 36.8372 51.4967C36.818 51.4003 36.7462 51.3183 36.6216 51.3135C34.5088 51.2894 32.4583 50.7977 30.4414 50.1951C29.6269 49.954 28.8077 49.713 27.9837 49.4623C28.3142 48.9465 28.3526 48.3776 28.3526 47.7798C28.3526 47.6159 28.2088 47.5388 28.0843 47.5581C28.0555 47.5484 28.022 47.5484 27.9837 47.5532C27.289 47.6738 26.326 47.317 26.7189 46.4493C27.083 45.649 27.9549 46.4541 28.1801 46.9314C28.2424 47.0663 28.3813 47.076 28.4819 47.0133C28.5298 47.0133 28.5825 46.994 28.6257 46.941C29.0329 46.4444 29.052 45.8997 28.985 45.3115C29.9719 45.5526 30.9684 45.784 31.9793 45.8611C32.0703 45.8659 32.1374 45.8322 32.1757 45.7743C32.2044 45.7406 32.2284 45.6924 32.2284 45.6297C32.2907 43.2289 34.4705 40.0134 37.0815 40.0857C37.3881 40.0953 37.4073 39.6133 37.1007 39.6036C34.3124 39.5265 31.9697 42.7275 31.7685 45.3549C29.2149 45.1091 26.8195 44.0822 24.2228 44.0967C21.9616 44.1063 19.8344 44.5209 17.7504 45.3453C16.9216 45.0994 16.0688 44.9355 15.1777 44.9018C15.4699 44.1834 15.6424 43.4169 15.6855 42.5926C15.7861 40.7317 15.24 38.8612 14.8519 37.063C14.7849 36.7593 14.3201 36.8654 14.3872 37.1691C14.7274 38.731 15.1346 40.2978 15.2112 41.9032C15.2639 42.9686 15.0675 43.9713 14.6651 44.8969C14.6507 44.8969 14.6411 44.8969 14.6315 44.8969C14.392 44.9018 14.3297 45.2007 14.4639 45.326C14.2052 45.8177 13.8842 46.2854 13.5057 46.7289C13.3045 46.9603 13.6303 47.317 13.8315 47.0808C14.2914 46.5457 14.6747 45.9768 14.9717 45.379C15.6712 45.3887 16.3515 45.4899 17.0174 45.6442C17.2761 45.5863 17.5252 45.7358 17.7552 45.8659C17.7696 45.8611 17.7791 45.8563 17.7935 45.8515C17.9756 45.9045 18.1576 45.9672 18.3349 46.0298C17.8941 46.8012 17.4102 47.5195 17.2426 48.4114C17.209 48.5801 17.3767 48.7874 17.5588 48.6717C18.1145 48.3246 18.6223 48.7874 18.7709 49.3225C19.0008 50.1758 17.9229 50.2674 17.5204 49.8094C17.4055 49.6792 17.2378 49.7419 17.1707 49.8576C17.1324 49.8721 17.0988 49.901 17.0701 49.9444C16.5383 50.7832 16.2173 51.892 16.294 52.89C16.3083 53.0539 16.5287 53.2322 16.6677 53.0635C17.233 52.3741 18.2822 52.7019 18.4738 53.5456C18.7134 54.6158 17.3911 54.7797 16.7299 54.3989C16.6581 54.3603 16.591 54.3603 16.5335 54.3844C16.409 54.2398 16.1071 54.3459 16.1502 54.5869C16.27 55.2618 16.1359 55.9512 16.4185 56.5731C15.216 56.4574 14.0039 56.2405 12.7919 55.8982C9.63947 55.0111 6.72663 53.2081 4.82945 50.4843C2.85082 47.64 1.97888 43.6387 2.72147 40.2351C4.25454 33.2304 12.9068 31.4081 18.9194 30.9405C19.02 30.9308 19.0823 30.873 19.1206 30.8055C19.1541 31.0321 19.226 31.249 19.3649 31.4515C19.8727 32.165 20.6057 32.6471 21.2094 33.2642C22.3305 34.4115 23.2599 35.8048 24.6684 36.6243C24.7882 36.6918 24.9223 36.6532 24.999 36.5472C25.8134 35.3709 27.1836 34.4983 28.4053 33.8041C29.2868 33.3027 30.1396 32.8351 30.2785 31.7697C30.3887 31.76 30.4989 31.6877 30.518 31.5527C30.5564 31.3117 30.5899 31.0707 30.6282 30.8296C30.6618 30.7091 30.6809 30.5789 30.6857 30.4536C30.9828 28.4577 31.2367 26.4571 31.4283 24.4468C32.2954 24.0032 32.7362 22.9234 32.4535 22.0556C32.4488 22.0556 32.4392 22.0508 32.4344 22.0508C32.4296 22.0508 32.4248 22.0508 32.42 22.0508C32.4104 22.0508 32.4056 22.0556 32.3961 22.0556C32.3673 22.0701 32.3386 22.0894 32.3098 22.1086C32.305 22.1135 32.3002 22.1086 32.2955 22.1086C32.2523 22.1713 32.2044 22.234 32.1661 22.3015C32.1421 22.3449 32.1182 22.3834 32.0942 22.4316C32.0847 22.4509 32.0799 22.4606 32.0751 22.4847C32.123 22.986 31.8978 23.526 31.4858 23.8538C31.5097 23.5645 31.5241 23.2705 31.5433 22.9812C31.5097 22.9523 31.5002 22.9041 31.5193 22.8655C31.5241 22.8559 31.5289 22.8414 31.5385 22.8318C31.5241 22.8607 31.5433 22.8221 31.5433 22.8173C31.5481 22.8077 31.5481 22.798 31.5529 22.7836V22.7787C31.5529 22.7691 31.5529 22.7595 31.5529 22.7498C31.5529 22.7498 31.5529 22.745 31.5529 22.7402C31.5529 22.745 31.5577 22.7546 31.5529 22.7402C31.5529 22.7354 31.5433 22.7016 31.5385 22.692C31.5385 22.692 31.5385 22.692 31.5385 22.6871C31.5385 22.6823 31.5337 22.6775 31.5337 22.6775C31.5289 22.6679 31.5241 22.663 31.5193 22.6582C31.5193 22.6534 31.5145 22.6534 31.5145 22.6486C31.5097 22.6438 31.505 22.6341 31.5002 22.6341C31.4906 22.6197 31.4762 22.61 31.4618 22.6004C31.4618 22.6004 31.4571 22.5955 31.4523 22.5955C31.4475 22.5907 31.4379 22.5859 31.4331 22.5811C31.4187 22.5714 31.3996 22.5618 31.3852 22.5522C31.3804 22.5522 31.3804 22.5473 31.3756 22.5473C31.3708 22.5425 31.3612 22.5425 31.3564 22.5425C31.3373 22.5377 31.3229 22.5329 31.3037 22.5281C31.2942 22.5281 31.2846 22.5232 31.2798 22.5232C31.2798 22.5232 31.2798 22.5232 31.275 22.5232C31.2558 22.5232 31.2367 22.5232 31.2175 22.5232C31.2127 22.5232 31.2079 22.5232 31.1983 22.5232H31.1936C31.184 22.5232 31.1552 22.5377 31.1456 22.5377C31.1456 22.5377 31.1409 22.5377 31.1409 22.5425C31.1361 22.5473 31.1265 22.5522 31.1217 22.557L31.1121 22.5666C31.1121 22.5666 31.1169 22.5666 31.1169 22.5618C31.1121 22.5666 31.1073 22.5714 31.1025 22.5763C31.0977 22.5811 31.0977 22.5811 31.0929 22.5859C31.0882 22.5907 31.0882 22.5955 31.0834 22.6004C31.0834 22.6004 31.0738 22.6148 31.0738 22.6245C31.0067 23.8538 30.9061 25.0012 30.8965 25.112C30.724 26.8668 30.4893 28.6168 30.2306 30.362C30.2258 30.3813 30.221 30.4054 30.221 30.4295C30.221 30.4343 30.221 30.4343 30.221 30.4391C30.2114 30.4873 30.2066 30.5355 30.2018 30.5837H30.1827C30.1731 30.6609 30.1539 30.738 30.1252 30.8151C30.1108 30.8537 30.1108 30.8971 30.1204 30.9357C30.0964 31.0899 30.0725 31.2442 30.0485 31.3985C29.9288 31.3937 29.809 31.4708 29.7994 31.6202C29.7228 32.8881 28.1466 33.3799 27.2363 33.9921C26.3212 34.6044 25.3966 35.2407 24.7211 36.1229C23.6575 35.4432 22.8479 34.4067 22.0191 33.4715C21.5783 32.9749 21.1088 32.5314 20.6057 32.1023C20.3327 31.8709 20.0883 31.6299 19.8536 31.3599C19.4559 30.9019 19.5518 30.362 19.5997 29.822C19.6045 29.7883 19.5997 29.7546 19.5901 29.7256C19.6332 29.6822 19.662 29.6292 19.662 29.5617V29.3014H19.6763C19.6428 26.5728 19.0918 21.1637 19.0823 21.1493C19.0775 21.1445 19.0775 21.1396 19.0727 21.1396C19.0631 21.13 19.0583 21.1252 19.0487 21.1155C19.0391 21.1059 19.0296 21.1011 19.0248 21.0914C19.0391 21.1011 19.0104 21.0818 19.0056 21.0818C18.9864 21.0673 18.9625 21.0577 18.9385 21.0432C18.9289 21.0384 18.9146 21.0336 18.905 21.0288C18.8906 21.0239 18.8906 21.0239 18.9002 21.0239C18.8954 21.0239 18.8906 21.0191 18.8858 21.0191C18.8619 21.0095 18.8427 21.0095 18.8188 21.0047C18.8092 21.0047 18.8092 21.0047 18.8188 21.0047C18.814 21.0047 18.8044 21.0047 18.7996 21.0047C18.79 21.0047 18.7804 21.0047 18.7709 21.0047C18.7565 21.0047 18.7469 21.0047 18.7325 21.0047C18.7277 21.0047 18.6942 21.0095 18.7134 21.0047C18.6894 21.0095 18.6175 21.0336 18.6319 21.0239C18.6223 21.0288 18.6175 22.3931 18.6655 23.068C17.669 21.911 18.2103 20.8022 18.2295 20.725C18.2295 20.7154 18.2343 20.7058 18.2343 20.7009C18.2343 20.7009 18.2391 20.672 18.2391 20.6865C18.2391 20.6672 18.2391 20.6527 18.2391 20.6334C18.2391 20.6045 18.2295 20.5708 18.2151 20.537C18.1864 20.4744 18.1576 20.4213 18.1049 20.3828C18.1193 20.3924 18.0714 20.3683 18.0953 20.3731C18.081 20.3683 18.081 20.3683 18.0666 20.3731C18.0426 20.3779 18.0235 20.3828 17.9995 20.3876C17.2186 21.2264 17.8175 23.0969 18.6655 23.7285C18.6846 23.7429 18.7086 23.7526 18.7277 23.7622C18.7804 24.3359 18.8427 24.9144 18.905 25.4881L18.79 25.5266C18.2151 25.7243 17.6354 25.922 17.0605 26.1293C16.9072 26.1823 16.7826 26.2112 16.6629 26.2112C16.4569 26.2112 16.2652 26.1293 16.0736 25.9653C15.1921 25.1892 14.2722 24.8132 13.2614 24.8132C13.0362 24.8132 12.8062 24.8324 12.5763 24.871C10.4731 25.2085 8.88251 26.8138 8.62381 28.8627C8.58069 29.2098 8.42738 29.4074 8.11598 29.5376L7.51712 29.7787C6.55415 30.1643 5.5864 30.5548 4.62344 30.9501C4.52283 30.9935 4.4318 31.0128 4.35036 31.0128C4.13956 31.0128 3.98625 30.8826 3.89523 30.6271C3.12869 28.5011 2.7023 26.3607 2.62565 24.2587C2.58253 23.0246 2.66877 21.7712 2.755 20.5611L2.78375 20.1658C2.87477 18.8401 3.16223 17.4613 3.71797 15.6969C4.40306 13.5082 5.35165 11.5557 6.62123 9.7238C6.64997 9.68041 6.69788 9.65148 6.77933 9.64184C6.82244 9.64184 6.87035 9.6563 6.90389 9.68523L7.22008 9.9552C7.48358 10.177 7.7375 10.3939 7.9962 10.606C8.2597 10.823 8.37947 11.0929 8.36989 11.4545C8.3651 11.7968 8.5232 12.1583 8.80586 12.4524C9.0981 12.7513 9.48616 12.9345 9.85027 12.9345C9.98441 12.9345 10.1138 12.9104 10.2335 12.867C10.2958 12.8429 10.3629 12.8333 10.4395 12.8333C10.6264 12.8333 10.8468 12.9056 11.0049 13.0116C11.3498 13.2527 11.69 13.5034 12.0253 13.7589C12.3463 13.9999 12.6673 14.241 12.9979 14.4724C13.4913 14.8146 13.8123 15.2051 13.7644 15.9813C13.7309 16.4923 13.9704 16.8635 14.1764 17.0853C14.5261 17.4613 15.0388 17.6831 15.5466 17.6831C15.8197 17.6831 16.0784 17.6204 16.3083 17.4951C16.409 17.442 16.5191 17.4324 16.6006 17.4324C16.6533 17.4324 16.8449 17.442 16.9743 17.5384C17.324 17.7988 17.6929 18.0928 18.0953 18.4255C18.1001 18.4255 18.1097 18.4303 18.1145 18.4303C18.1241 18.4303 18.1241 18.4303 18.1145 18.4303C18.1193 18.4303 18.1289 18.4303 18.1337 18.4303C18.148 18.4303 18.1576 18.4303 18.172 18.4303C18.1864 18.4303 18.1816 18.4303 18.172 18.4303C18.1768 18.4303 18.1816 18.4303 18.1912 18.4255C18.2007 18.4207 18.2151 18.4207 18.2247 18.4158C18.2103 18.4207 18.2343 18.411 18.2343 18.411C18.2439 18.4062 18.2582 18.3966 18.2678 18.3917C18.2582 18.4014 18.2822 18.3773 18.287 18.3773C18.2966 18.3676 18.3061 18.3628 18.3157 18.3532C18.3349 18.3339 18.354 18.3194 18.3732 18.3001C18.3924 18.2809 18.4115 18.2616 18.4259 18.2423C18.4451 18.2182 18.4451 18.2182 18.4642 18.1941C18.469 18.1844 18.4786 18.17 18.4834 18.1603C18.4978 18.1362 18.4786 18.1748 18.4882 18.1507C18.493 18.1411 18.493 18.1266 18.4978 18.1169C18.4978 18.1073 18.4978 18.1073 18.4978 18.1169C18.4978 18.1121 18.4978 18.1073 18.4978 18.0977C18.4978 18.088 18.4978 18.0832 18.4978 18.0784C18.4978 18.088 18.4978 18.088 18.4978 18.0784C18.4978 18.0736 18.4882 18.0446 18.4882 18.0543C18.4738 18.0254 18.4547 17.9964 18.4403 17.9675C18.402 17.9145 18.3636 17.8614 18.3205 17.8132C18.3061 17.794 18.0666 17.5915 17.9564 17.5047C17.827 17.4035 17.7121 17.2878 17.5923 17.1769C17.3815 16.9696 17.1659 16.7575 16.888 16.6321C16.8737 16.6225 16.8593 16.6128 16.8449 16.608C16.8162 16.6032 16.7922 16.5887 16.7779 16.5791L16.5814 16.3911C16.5718 16.3814 16.5575 16.3814 16.5431 16.3814C16.5 16.3814 16.4521 16.4104 16.4281 16.4393C16.27 16.6466 16.1119 16.8587 15.8772 16.9407C15.7957 16.9696 15.6999 16.984 15.5993 16.984C15.355 16.984 15.0675 16.9021 14.8328 16.7623C14.5836 16.6177 14.3201 16.232 14.3441 15.9331C14.368 15.6535 14.4878 15.3932 14.6028 15.1376L14.6555 15.0219C14.6747 14.9834 14.6603 14.9303 14.6268 14.9062L10.6647 11.9607C10.6456 11.9462 10.6264 11.9414 10.6072 11.9414C10.5833 11.9414 10.5641 11.951 10.5449 11.9655C10.291 12.1776 10.0419 12.2837 9.7784 12.2837C9.62031 12.2837 9.46221 12.2451 9.29932 12.168C9.27536 12.1583 9.2562 12.1391 9.23704 12.1198L9.15559 12.033C9.12685 11.9993 9.10768 11.9559 9.10768 11.9125C9.10768 11.9125 9.07415 11.0785 9.05498 10.741C9.05498 10.7121 9.04061 10.6832 9.01666 10.6639C8.69567 10.4084 8.37468 10.1577 8.0489 9.90217L7.70396 9.6322L7.11948 9.08262L6.78412 8.66802C6.76495 8.64874 6.741 8.63428 6.71225 8.63428C6.68351 8.63428 6.65955 8.64874 6.64039 8.66802C6.62123 8.68731 6.60685 8.71141 6.59248 8.7307C5.57203 10.0854 4.71926 11.5461 4.05812 13.0743C3.06162 15.3739 2.42443 17.8084 2.16573 20.3056C2.13219 20.6383 2.09386 20.9709 2.05075 21.3084L1.99805 21.7278V24.2154C1.99805 24.225 2.01242 24.2732 2.01721 24.2829C2.04116 24.3552 2.06991 24.4323 2.0747 24.5239C2.14177 26.1437 2.41485 27.7491 2.87957 29.2966C3.06162 29.8992 3.26283 30.497 3.46405 31.0803L3.51196 31.2153L3.56466 31.3503C3.56945 31.3551 3.57424 31.3647 3.58382 31.3695C3.72755 31.5142 3.93835 31.5865 4.20663 31.5865C4.31203 31.5865 4.41743 31.5768 4.51325 31.5624C4.81986 31.5142 5.13606 31.4129 5.4283 31.2731C5.51454 31.2297 5.60556 31.1864 5.6918 31.1381C5.78762 31.0899 5.88343 31.0369 5.97925 30.9887C6.14693 30.9116 6.32419 30.8778 6.50625 30.8441L6.59248 30.8296C6.91347 30.7718 7.20571 30.6368 7.49316 30.5114C7.61773 30.4536 7.74229 30.4005 7.83331 30.3523C7.8429 30.3523 7.85248 30.3572 7.86206 30.3572C7.88122 30.3572 7.8956 30.3523 7.90997 30.3475L8.07765 30.2607C8.37468 30.1113 8.6813 29.957 8.9927 29.8269C9.14601 29.7642 9.17955 29.7112 9.17955 29.5328C9.21308 27.2236 11.0097 25.4109 13.2662 25.4109C13.4003 25.4109 13.5392 25.4158 13.6782 25.4302C14.6028 25.517 15.4029 25.9943 16.0496 26.8476C16.1359 26.9584 16.1934 27.0018 16.2604 27.0018C16.3036 27.0018 16.361 26.9874 16.4281 26.9633C17.1611 26.7029 17.8989 26.4571 18.6367 26.2112L18.9721 26.1003C19.0056 26.4089 19.0296 26.7174 19.0583 27.0259L16.1934 28.101C16.155 28.1155 16.1311 28.1733 16.1311 28.2167C16.1311 28.3565 16.1311 28.477 16.1311 28.5927C16.1167 29.2146 15.9395 29.8124 15.5801 30.4247C15.561 30.4584 15.561 30.497 15.5849 30.5259C15.6041 30.5548 15.6328 30.5693 15.6664 30.5693C15.6712 30.5693 16.2029 30.497 16.2029 30.497C16.2413 30.4921 16.27 30.4632 16.2844 30.4295L16.3754 30.1402C16.4904 29.7738 16.5958 29.4267 16.6677 29.0652C16.7587 28.5686 17.0509 28.4047 17.3528 28.3035C17.8893 28.1203 18.4307 27.913 18.9625 27.7057L19.1254 27.643C19.1637 28.1492 19.1924 28.6554 19.2068 29.1616C19.202 29.176 19.202 29.1953 19.202 29.2098V29.5183C19.202 29.5521 19.2068 29.5858 19.2212 29.6147C19.1781 29.6533 19.1493 29.7063 19.1397 29.7787C19.1206 30.0197 19.0966 30.2704 19.1014 30.5163C19.0631 30.4777 19.0104 30.4536 18.9385 30.4584C14.3153 30.82 8.73879 31.8227 5.18876 35.1539L4.40785 33.2883C4.39348 33.2497 4.38869 33.2111 4.39827 33.1726L4.55158 32.4928C4.56595 32.4205 4.62344 32.3626 4.6953 32.3482L4.84382 32.3193C4.92526 32.3048 5.00671 32.2855 5.08815 32.2614L6.214 31.9143C6.90389 31.7022 7.58898 31.4852 8.27887 31.278C8.36989 31.249 8.50883 31.2201 8.63339 31.2201C8.74837 31.2201 8.8394 31.2442 8.91126 31.2972C9.18913 31.5045 9.45263 31.7408 9.71133 31.977L9.86464 32.1168C9.8838 32.1312 9.90297 32.1409 9.92692 32.1409C9.9365 32.1409 9.95088 32.1409 9.96046 32.1361L10.4012 31.9673C10.4348 31.9529 10.4587 31.924 10.4635 31.8902C10.4683 31.8565 10.4539 31.8179 10.4252 31.7986L10.3725 31.76C9.95567 31.4804 9.5197 31.1864 9.12206 30.8634C8.96396 30.738 8.85377 30.6898 8.72921 30.6898C8.70525 30.6898 8.67651 30.6898 8.64776 30.6946C8.4705 30.7187 8.29324 30.7477 8.11598 30.7718L8.04411 30.7814L7.87164 30.8151C7.62252 30.9694 7.32069 31.0273 6.99012 31.0948C6.6883 31.1574 6.39127 31.249 6.10381 31.3358L5.85948 31.4081C5.71575 31.4515 5.57203 31.4901 5.42351 31.5286C5.16001 31.601 4.90131 31.6733 4.6426 31.76C4.44618 31.8275 4.25454 31.8998 4.0677 31.9818C3.93355 32.0445 3.83774 32.0686 3.73713 32.0734C3.71317 32.0734 3.67964 32.0975 3.66048 32.112L3.44968 32.2711C3.41135 32.2952 3.40177 32.3434 3.41614 32.3868L4.748 35.5589C4.24017 36.0892 3.78025 36.6677 3.38261 37.3137C1.68664 40.0423 1.75371 43.3976 2.4963 46.4252C3.24846 49.5057 5.09294 52.1524 7.64168 53.9988C11.1342 56.5297 15.676 57.3396 19.9015 57.1516C25.8997 56.8865 31.6104 54.2687 37.0432 51.9258C37.1007 51.9017 37.1342 51.8583 37.1534 51.8149C37.1678 51.9354 37.2684 52.0559 37.4265 52.0415C39.2757 51.8294 45.432 51.3858 47.6214 48.2908C49.303 45.8997 49.4803 42.9445 48.5173 40.3075ZM24.7738 44.5788C26.0482 44.598 27.2842 44.8921 28.5203 45.1958C28.5873 45.6297 28.64 46.0829 28.4196 46.4637C27.8974 45.7117 26.7716 45.2392 26.2925 46.3046C25.7799 47.4424 26.9249 48.0884 27.9022 48.0112C27.8926 48.4499 27.8447 48.8597 27.5908 49.2454C27.5717 49.2743 27.5621 49.3032 27.5573 49.3321C26.5847 49.0284 25.617 48.7103 24.6732 48.3439C22.5796 47.5291 20.5866 46.3287 18.4738 45.5815C20.5051 44.8535 22.5748 44.545 24.7738 44.5788ZM16.9455 56.6165C16.5814 56.0814 16.6581 55.4547 16.615 54.8424C17.6019 55.3197 18.8858 54.934 18.9194 53.6854C18.9529 52.538 17.6067 51.921 16.7204 52.4223C16.7539 51.6799 16.9982 50.9086 17.3719 50.2867C18.0235 50.7929 18.9625 50.547 19.1924 49.6792C19.4224 48.8163 18.5601 48.016 17.7648 48.1221C17.9852 47.4231 18.3876 46.8205 18.7517 46.1793C20.8788 46.9796 22.891 48.1992 25.0038 48.985C26.8195 49.66 28.7263 50.1903 30.5803 50.7447C32.4008 51.2846 34.2645 51.7137 36.1665 51.786C30.0437 54.4134 23.5857 57.0745 16.9455 56.6165Z" fill="#FFFEF7"/>
<path d="M27.6096 22.4844C27.0731 23.034 26.4263 23.0677 25.722 22.846C25.4346 22.7544 25.1902 22.576 24.9794 22.3639C24.6824 22.0602 24.692 21.7034 24.8118 21.3659C24.8118 21.3611 24.8118 21.3611 24.8118 21.3563C24.8118 21.3515 24.8118 21.3467 24.8118 21.3418C24.8118 21.3322 24.807 21.3274 24.807 21.3177V21.3129C24.807 21.3129 24.807 21.3129 24.807 21.3081C24.8022 21.3033 24.8022 21.2985 24.7974 21.2936C24.7974 21.2888 24.7926 21.2888 24.7926 21.284C24.7926 21.284 24.7926 21.284 24.7878 21.2792C24.7878 21.2792 24.783 21.2792 24.783 21.2744C24.7782 21.2744 24.7686 21.2695 24.7686 21.2695H24.7639C24.7543 21.2695 24.7495 21.2695 24.7399 21.2695C24.5914 21.3226 24.4477 21.3852 24.3279 21.4913C24.2273 22.1421 24.5195 22.7254 25.219 23.1352C26.1005 23.651 27.2264 23.5595 27.9402 22.8315C28.151 22.6194 27.8252 22.2626 27.6096 22.4844Z" fill="#FFFEF7"/>
<path d="M41.1678 22.7351C41.1583 22.682 41.1295 22.6242 41.0768 22.5856C40.7079 22.2964 40.3007 22.1951 39.8695 22.1758C39.6348 22.1517 39.3952 22.1566 39.1461 22.1758C38.7868 22.2 38.4562 22.2337 38.1113 22.2192C38.0107 22.2096 37.9053 22.1999 37.7999 22.1807C37.2441 22.0794 36.7267 21.7805 36.2237 21.5347C36.1662 21.5057 36.1087 21.5057 36.056 21.5202C36.0177 21.5057 35.9793 21.5057 35.9458 21.5057C35.9123 21.4961 35.8739 21.4961 35.8308 21.5106C35.438 21.6263 35.026 21.5973 34.6235 21.607C34.4127 21.6118 34.2067 21.6263 34.0007 21.6648C33.7947 21.7034 33.6126 21.795 33.4114 21.848C33.3156 21.8721 33.2677 21.9444 33.2485 22.0168C33.1671 22.1566 33.215 22.3735 33.421 22.3639C33.4546 22.3639 33.4833 22.3639 33.5168 22.3639C33.5312 22.3687 33.5456 22.3735 33.5647 22.3735C33.6414 22.3687 33.718 22.3735 33.7899 22.3783C35.2942 22.5278 36.377 24.003 37.6705 24.7165C38.049 24.9237 38.5664 25.0539 39.0838 25.0636C39.63 25.0973 40.1857 25.0057 40.5738 24.7406C40.5881 24.7309 40.6025 24.7165 40.6169 24.702C40.7367 24.6393 40.8181 24.4658 40.7127 24.326C40.363 23.8487 40.7846 23.357 41.1343 23.034C41.2397 22.9375 41.2301 22.817 41.1678 22.7351Z" fill="#FFFEF7"/>
</svg>
