<svg width="49" height="58" viewBox="0 0 49 58" fill="none" xmlns="http://www.w3.org/2000/svg">
<path d="M29.7813 7.16375C31.1276 8.09418 31.7073 9.55491 31.415 11.2711C31.1659 12.7319 30.179 13.8021 28.7753 14.1444C28.7273 14.154 28.6938 14.2022 28.7034 14.2504C28.7178 14.3565 28.6459 14.4529 28.5405 14.4674C28.5022 14.4722 28.4686 14.5011 28.4639 14.5397C28.4543 14.5783 28.4686 14.6168 28.5022 14.6409L28.6603 14.7518C28.6746 14.7615 28.6938 14.7711 28.713 14.7711C28.7178 14.7711 28.7226 14.7711 28.7321 14.7711C29.4747 14.6361 30.1407 14.3035 30.7108 13.7828C31.6258 12.9488 32.1289 11.7098 32.1001 10.3841C32.0666 8.99569 31.4533 7.70851 30.4137 6.8504C30.294 6.75398 30.1454 6.5274 30.1838 6.32974C30.3658 5.39449 30.5575 4.45924 30.7491 3.52399L30.9503 2.55017C31.0365 2.12111 31.2905 2.03434 31.4821 2.03434C31.5587 2.03434 31.6402 2.0488 31.7312 2.07773C31.9372 2.1404 32.148 2.19343 32.3588 2.25128C32.6223 2.31877 32.8858 2.39108 33.1445 2.47304C36.6562 3.61559 39.7942 5.55358 42.4723 8.22917C43.4832 9.23673 44.4126 10.3648 45.2462 11.5749C45.8595 12.4667 46.3673 13.4454 46.856 14.3951C47.0093 14.694 47.1674 14.9929 47.3255 15.2869C47.4405 15.4991 47.5458 15.7015 47.4692 15.8847C47.3973 16.0631 47.2009 16.1209 46.947 16.1933C46.741 16.2559 46.5398 16.3282 46.3194 16.4102L46.0224 16.5163C46.0032 16.5211 45.9792 16.5259 45.9601 16.5259C45.9361 16.5259 45.4427 16.4922 45.4427 16.4922C45.3995 16.4873 45.3564 16.4681 45.3229 16.4391C45.0833 16.2125 44.7336 16.0776 44.3599 16.0776C43.785 16.0776 43.2916 16.3668 43.1095 16.8152C42.8508 17.437 42.4196 17.6877 41.8447 17.8661C41.701 17.9095 41.5621 17.9577 41.4231 18.0107C41.0494 18.1602 40.6805 18.3144 40.3117 18.4735L40.1679 18.5314C40.1248 18.5507 40.1009 18.5989 40.1104 18.6423C40.12 18.6808 40.12 18.7242 40.1009 18.7628L40.005 19.0087C39.9907 19.0424 40.0002 19.0858 40.0242 19.1099C40.0434 19.1292 40.0673 19.1388 40.0913 19.1388C40.1009 19.1388 40.1152 19.1388 40.1248 19.134L40.6518 18.9412C41.5477 18.6182 42.4484 18.2903 43.3443 17.9722C43.4065 17.9529 43.4353 17.9336 43.4257 17.9336C43.464 17.9288 43.4976 17.8999 43.5072 17.8613C43.5119 17.8372 43.5167 17.7986 43.5119 17.7504C43.4736 17.384 43.4928 16.9405 43.9814 16.7718C44.13 16.7187 44.2737 16.6946 44.4126 16.6946C44.7288 16.6946 44.9923 16.8296 45.184 17.0803C45.2941 17.2249 45.3708 17.2442 45.4427 17.2442C45.5049 17.2442 45.5816 17.2249 45.687 17.1912C46.0128 17.0755 46.3481 16.9887 46.6787 16.8971C46.8176 16.8585 46.9566 16.8248 47.0907 16.7862C47.1051 16.7814 47.1243 16.7814 47.1434 16.7814C47.1626 16.7814 47.177 16.7814 47.1913 16.7862C47.1961 16.7862 47.2009 16.7862 47.2057 16.7862C47.2344 16.7862 47.2776 16.7718 47.2967 16.7573C47.3159 16.7525 47.3446 16.738 47.383 16.7332L47.4117 16.6368L47.4596 16.7428C47.4692 16.7477 47.4788 16.7477 47.4884 16.7477C47.5171 16.7477 47.5458 16.7332 47.565 16.7091C47.589 16.6753 47.6273 16.6512 47.6656 16.6416L48.3315 16.4584C48.3555 16.4536 48.3795 16.4343 48.389 16.4102C48.4034 16.3861 48.4034 16.3572 48.3938 16.3331C46.8033 11.9075 44.0437 8.29184 39.9571 5.27879C37.1449 3.20581 34.0644 1.85115 30.8018 1.24854C30.797 1.24854 30.7922 1.24854 30.7826 1.24854C30.7443 1.24854 30.706 1.27264 30.6916 1.31603C30.2461 2.64659 29.9921 4.02054 29.7478 5.36074C29.6711 5.77052 29.5993 6.17547 29.5178 6.58525C29.4604 6.86968 29.513 6.97574 29.7813 7.16375Z" fill="#FFFEF7"/>
<path d="M48.5232 22.3158C48.4992 22.258 48.4705 22.1905 48.4609 22.1133C48.4226 21.8096 48.389 21.5059 48.3507 21.1974C48.2836 20.5851 48.2118 19.9488 48.1016 19.3317C48.001 18.7676 47.8525 18.194 47.7087 17.6347L47.5985 17.2105C47.5938 17.1816 47.5746 17.1623 47.5506 17.1478C47.5363 17.143 47.5219 17.1382 47.5075 17.1382C47.4979 17.1382 47.4836 17.1382 47.474 17.143C47.45 17.1526 47.4213 17.1623 47.3877 17.1671C47.3638 17.1671 47.3398 17.1816 47.3207 17.2009C47.3015 17.2201 47.2776 17.2394 47.2536 17.2491L47.0141 17.3599C46.832 17.4419 46.6452 17.5287 46.4583 17.601C45.9217 17.8083 45.3852 18.0059 44.8438 18.1988C44.6665 18.2614 44.6234 18.3145 44.6186 18.4687C44.6138 18.7387 44.4701 18.9894 44.3887 19.1147C44.2018 19.3944 43.9335 19.5583 43.6509 19.5583C43.373 19.5583 43.1047 19.404 42.9131 19.134C42.8939 19.1099 42.8652 19.0955 42.8364 19.0955C42.8316 19.0955 42.8269 19.0955 42.8221 19.0955C42.7885 19.1003 42.755 19.1244 42.7454 19.1581C42.7262 19.216 42.6783 19.2594 42.6208 19.2738C41.8735 19.4956 41.1309 19.727 40.3883 19.9584L40.0577 20.0596C40.0338 20.0693 40.0146 20.0837 40.0002 20.1078C39.9907 20.1319 39.9859 20.1561 39.9955 20.1802L40.0194 20.2525C40.0338 20.291 40.0673 20.32 40.1104 20.32C40.1152 20.32 40.12 20.32 40.12 20.32C40.211 20.3103 40.2973 20.2959 40.3835 20.2718C40.647 20.1946 40.9105 20.1175 41.1788 20.0355C41.4998 19.9391 41.8256 19.8427 42.1465 19.7511C42.2088 19.7318 42.2807 19.727 42.3526 19.727C42.4532 19.727 42.5921 19.7463 42.6927 19.8282C42.9658 20.0548 43.2868 20.1753 43.6126 20.1753C44.2545 20.1753 44.8725 19.7222 45.1073 19.0714C45.1648 18.9074 45.3085 18.7098 45.4858 18.6278C45.7349 18.517 45.9936 18.4205 46.2906 18.3097C46.4296 18.2566 46.5637 18.2084 46.6979 18.1554C46.7937 18.1168 46.8703 18.1024 46.9374 18.1024C47.0811 18.1024 47.268 18.1747 47.3159 18.5266C47.3686 18.893 47.4357 19.2594 47.5027 19.6306C47.6321 20.3392 47.7614 21.072 47.7998 21.8048C47.8668 23.0968 47.9291 24.7986 47.7854 26.4859C47.6225 28.419 47.1722 30.2799 46.4535 32.0251C46.0894 32.9025 45.663 33.7654 45.2367 34.6332C45.0833 34.9417 44.93 35.2502 44.7815 35.5588C44.7624 35.5973 44.7719 35.6407 44.8007 35.6696L45.1313 36.0071C45.1504 36.0264 45.1744 36.0312 45.1983 36.0312C45.2031 36.0312 45.2079 36.0312 45.2175 36.0312C45.2462 36.0264 45.275 36.0071 45.2894 35.9782L45.3373 35.8962C47.0045 32.9362 48.0249 29.8267 48.3651 26.6546C48.3938 26.3702 48.4369 26.0857 48.4753 25.8061L48.528 25.4446V22.3737C48.5375 22.3592 48.528 22.3303 48.5232 22.3158Z" fill="#FFFEF7"/>
<path d="M30.5096 29.0022C30.4905 28.9877 30.4713 28.9829 30.4522 28.9829C30.4378 28.9829 30.4282 28.9877 30.4138 28.9926C30.3803 29.007 30.3611 29.0359 30.3563 29.0697L30.3036 29.5277C30.2989 29.5614 30.3132 29.5952 30.342 29.6144L30.7013 29.8941C31.2043 30.2894 31.7074 30.6847 32.2104 31.0848C32.2727 31.133 32.3158 31.1909 32.3398 31.2343C32.3589 31.2584 32.3829 31.2728 32.4164 31.2776H32.4212C32.4499 31.2776 32.4787 31.2632 32.4931 31.2439C32.5458 31.1812 32.608 31.1089 32.6895 31.0559C33.2404 30.6943 33.8872 30.5015 34.5483 30.5015C35.5832 30.5015 36.5653 30.9595 37.2408 31.7597C37.2552 31.7742 37.2695 31.7838 37.2935 31.7887L37.993 31.9574C38.0026 31.9574 38.0073 31.9622 38.0169 31.9622C38.0457 31.9622 38.0744 31.9478 38.0936 31.9236C38.1175 31.8899 38.1175 31.8513 38.0936 31.8176C37.7534 31.2873 37.26 30.8438 36.5749 30.4533C35.9425 30.0917 35.2766 29.9133 34.5963 29.9133C34.007 29.9133 33.3937 30.0483 32.7757 30.3183C32.656 30.3713 32.5649 30.3906 32.4739 30.3906C32.3014 30.3906 32.1721 30.3038 32.0667 30.2171C31.6068 29.841 31.1277 29.4795 30.663 29.1275L30.5096 29.0022Z" fill="#FFFEF7"/>
<path d="M9.45889 19.8135C9.28642 18.9795 8.73547 18.3238 8.27555 17.8514C7.85875 17.4175 7.37487 17.1909 6.8862 17.1909C6.50772 17.1909 6.13404 17.3211 5.77472 17.5814C4.99381 18.1503 4.48598 19.4374 4.64408 20.4498C4.66324 20.5655 4.67282 20.6812 4.6872 20.7969C4.70636 20.9898 4.72552 21.1681 4.76864 21.3369C4.85967 21.6695 4.9459 21.7804 5.00818 21.819C5.53039 22.1468 6.00947 22.4312 6.51251 22.5951C6.79518 22.6867 7.08742 22.7301 7.37008 22.7301C8.03601 22.7301 8.64924 22.4794 9.04688 22.0407C9.40619 21.6502 9.56908 21.144 9.52117 20.5848C9.51159 20.498 9.5068 20.4161 9.50201 20.3293C9.50201 20.1461 9.49243 19.9774 9.45889 19.8135ZM8.65403 21.5538C8.36658 21.9202 7.90666 22.1082 7.3078 22.113L7.13054 22.0938C6.9916 22.0793 6.84788 22.0696 6.70415 22.0263C5.99989 21.8334 5.48248 21.3176 5.28126 20.6089C5.05609 19.8231 5.27168 18.9746 5.86096 18.3335C6.18674 17.9815 6.52689 17.7983 6.87662 17.7983C7.20719 17.7983 7.52818 17.9574 7.83479 18.2708C8.27076 18.7191 8.74026 19.2832 8.90795 20.069C9.03251 20.6764 8.94627 21.1874 8.65403 21.5538Z" fill="#FFFEF7"/>
<path d="M13.6021 20.956C13.444 20.8789 13.2955 20.8403 13.1518 20.8403C12.9745 20.8403 12.8116 20.8982 12.6583 21.0139C12.4475 21.173 12.3086 21.5153 12.3086 21.8961C12.3086 22.2721 12.4332 22.6048 12.644 22.759C12.7733 22.8603 12.917 22.9085 13.056 22.9085C13.1757 22.9085 13.2907 22.8699 13.4009 22.7976C13.8273 22.5132 14.0093 22.1613 13.9519 21.7322C13.9519 21.7129 13.9519 21.6936 13.9519 21.6792C14.0189 21.2164 13.7842 21.0428 13.6021 20.956ZM13.5063 22.1371C13.4249 22.2432 13.2811 22.3252 13.1326 22.3493C13.1087 22.3541 13.0799 22.3541 13.056 22.3541C13.0081 22.3541 12.9649 22.3444 12.9266 22.3252C12.8548 22.2866 12.8164 22.1902 12.7973 22.1371C12.7446 21.9588 12.8021 21.7467 12.941 21.5924C12.9985 21.5297 13.0847 21.4912 13.1901 21.4863L13.2093 21.3947V21.4863C13.2955 21.4863 13.377 21.5201 13.444 21.5731C13.444 21.5924 13.4536 21.6117 13.468 21.6261C13.6021 21.7804 13.6165 21.9925 13.5063 22.1371Z" fill="#FFFEF7"/>
<path d="M40.5946 12.727C40.8772 12.3028 40.9683 11.7821 40.8533 11.2663C40.5083 9.7236 39.3202 9.06796 38.0554 8.58105C37.9883 8.58105 37.9021 8.60998 37.8159 8.63891C36.9583 8.92816 36.3547 9.31383 35.9187 9.84895C35.2336 10.683 35.1521 11.6568 35.6983 12.4426C36.254 13.2428 37.0445 13.6333 38.1177 13.6333H38.1943C38.1991 13.6333 38.1991 13.6333 38.2039 13.6333C38.3333 13.6189 38.4578 13.6092 38.592 13.5996C38.8699 13.5755 39.1286 13.5562 39.3873 13.508C39.8951 13.4164 40.3215 13.1416 40.5946 12.727ZM39.4831 12.8186C38.9848 12.9729 38.5728 13.0452 38.1848 13.0452C37.8494 13.0452 37.538 12.9922 37.2362 12.8813C36.4984 12.6113 36.072 12.1533 35.9666 11.5121C35.8325 10.7215 36.3547 10.1912 36.7523 9.85859C37.1835 9.49702 37.5763 9.33311 37.9788 9.33311C38.247 9.33311 38.5249 9.41507 38.798 9.56934C39.713 10.0948 40.2832 10.9095 40.2832 11.6953C40.2879 12.3028 40.0484 12.6402 39.4831 12.8186Z" fill="#FFFEF7"/>
<path d="M32.3887 15.2243C32.3887 15.8655 32.8246 16.2993 33.4666 16.2993C33.5002 16.2993 33.5576 16.3042 33.5624 16.3042C33.8595 16.3042 34.2188 16.1643 34.2475 15.4942C34.2571 15.2725 34.1421 15.0073 33.9361 14.7904C33.7062 14.5445 33.4091 14.3999 33.1456 14.3999C32.6905 14.4095 32.3887 14.7374 32.3887 15.2243ZM33.3421 14.9929C33.3852 14.9929 33.4331 15.0122 33.4858 15.0459C33.4954 15.0555 33.5049 15.0555 33.5145 15.0555C33.5241 15.0555 33.5337 15.0555 33.5433 15.0555C33.6295 15.0845 33.6918 15.1568 33.7157 15.2532C33.7397 15.3496 33.7349 15.4557 33.7109 15.5376C33.6678 15.6678 33.5576 15.7497 33.4091 15.7546C33.2798 15.7546 33.1504 15.6823 33.0786 15.5714C32.9971 15.4412 33.0163 15.2628 33.1265 15.123C33.1744 15.0604 33.2414 15.017 33.2989 15.0025C33.3181 14.9929 33.3325 14.9929 33.3421 14.9929Z" fill="#FFFEF7"/>
<path d="M21.3214 8.20991C21.5274 7.26502 20.8519 5.61627 20.047 5.1149C19.9224 5.03777 19.7356 4.98474 19.5487 4.9751H19.4913C19.3619 4.9751 19.223 4.99438 19.0697 5.01849C18.993 5.02813 18.9163 5.04259 18.8014 5.05223C18.7151 5.04259 18.6337 5.03777 18.5522 5.03777C17.8336 5.03777 17.1341 5.34148 16.4826 5.93927C16.061 6.32494 15.8215 6.86488 15.8262 7.41928C15.8262 7.92548 16.0275 8.38828 16.3916 8.7161C17.1294 9.3862 17.9869 9.77187 18.9403 9.86347C19.0649 9.87793 19.1846 9.88275 19.2996 9.88275C20.4159 9.88275 21.0722 9.33799 21.3214 8.20991ZM18.672 9.20301C18.0827 9.11141 17.503 8.83662 16.8994 8.36418C16.885 8.34971 16.8467 8.34489 16.818 8.34489C16.8132 8.34489 16.8084 8.34489 16.8036 8.34489C16.7269 8.34489 16.6551 8.29668 16.6263 8.22437L16.564 8.07974C16.5497 8.05564 16.5353 8.03153 16.5305 8.00261C16.4203 7.43857 16.5161 6.91791 16.7988 6.50814C17.1102 6.0598 17.6228 5.76572 18.284 5.65966C18.4564 5.63074 18.6624 5.60181 18.8636 5.60181C18.9643 5.60181 19.0649 5.60663 19.1655 5.62592C19.7308 5.72233 20.2386 6.14175 20.5261 6.74918C20.8231 7.38554 20.8183 8.07974 20.5165 8.60522C20.277 9.02464 20.0182 9.2705 19.4098 9.2705C19.2278 9.28014 18.9978 9.25604 18.672 9.20301Z" fill="#FFFEF7"/>
<path d="M40.7966 29.6386C41.2805 29.9085 41.7884 30.0483 42.2962 30.0483C42.5836 30.0483 42.8855 30.0049 43.1825 29.9133C43.5801 29.7976 43.8772 29.6434 44.0688 29.4602C44.2077 29.33 44.2892 29.1227 44.3802 28.901C44.4185 28.8094 44.4521 28.7226 44.4904 28.6406C44.8928 27.7777 44.9551 26.9581 44.6868 26.1338C44.3994 25.2515 43.7478 24.7261 42.943 24.7261C42.622 24.7261 42.2914 24.808 41.9608 24.9671C41.338 25.266 40.7583 25.7433 40.2026 26.4327C39.8337 26.8858 39.642 27.3052 39.6708 27.609C39.6804 28.5972 40.0205 29.2095 40.7966 29.6386ZM40.4373 27.1799C40.8589 26.4134 41.5153 25.8349 42.3872 25.4637C42.5788 25.3817 42.7657 25.3431 42.9477 25.3431C43.6185 25.3431 44.1263 25.8879 44.2173 26.7026C44.2269 26.7894 44.2269 26.8762 44.2269 26.9678C44.2269 26.9919 44.2365 27.016 44.2556 27.0353C44.2652 27.0497 44.2748 27.0594 44.2844 27.0787C44.3083 27.1269 44.3131 27.1799 44.2988 27.2281C44.2604 27.3486 44.2269 27.474 44.1934 27.5945C44.1167 27.8693 44.0353 28.1537 43.9299 28.4285C43.676 29.089 43.1633 29.4361 42.4447 29.4361H42.3728C41.7788 29.4168 40.9308 29.2963 40.4373 28.4478C40.1978 28.0477 40.2026 27.609 40.4373 27.1799Z" fill="#FFFEF7"/>
<path d="M36.1006 28.1201C36.5606 28.1201 36.9534 27.5513 36.9534 26.8811C36.9534 26.6739 36.8863 26.5003 36.757 26.3701C36.6133 26.2255 36.3929 26.1436 36.139 26.1436C35.5736 26.1436 35.2383 26.481 35.2383 27.0499C35.2383 27.6187 35.6263 28.1105 36.0863 28.1249H36.1006V28.1201ZM35.9138 27.2234C35.885 27.1608 35.8755 27.1029 35.8803 27.0499C35.885 26.992 35.9042 26.9438 35.9425 26.9004C35.9761 26.8619 36.024 26.8281 36.0815 26.8088C36.1006 26.804 36.1246 26.7992 36.1438 26.7992C36.1725 26.7992 36.206 26.804 36.2252 26.8137C36.2348 26.8378 36.2539 26.8522 36.2779 26.8619L36.3306 26.9101C36.3641 26.939 36.3929 26.9679 36.412 26.9969C36.4408 27.0354 36.4312 27.0836 36.4216 27.1077C36.4073 27.1656 36.3737 27.2186 36.3258 27.2765C36.2875 27.3247 36.2396 27.3584 36.1869 27.3777C36.1725 27.3825 36.1533 27.3873 36.139 27.3873C36.0479 27.3873 35.9569 27.315 35.9138 27.2234Z" fill="#FFFEF7"/>
<path d="M21.4266 24.3645C21.9823 24.4417 22.5764 24.3886 23.1273 24.3356C23.5058 24.297 24.3154 24.2247 24.325 23.6944C24.325 23.6462 24.3154 23.6077 24.2963 23.5787C24.3538 23.4389 24.2867 23.2461 24.0951 23.2461C23.1273 23.2557 22.1596 23.3955 21.3259 23.9162C21.1104 24.0464 21.187 24.3308 21.4266 24.3645Z" fill="#FFFEF7"/>
<path d="M25.5037 24.62C25.7193 24.7116 25.9733 24.726 26.2032 24.7549C26.6152 24.808 26.9841 24.9333 27.3434 25.131C27.4105 25.1695 27.4728 25.1695 27.5303 25.1503C27.5447 25.1647 27.5638 25.1792 27.583 25.1888C27.8321 25.372 28.0812 24.9622 27.8321 24.779C27.3003 24.3886 26.8308 23.9402 26.208 23.6992C25.9541 23.5979 25.1923 23.4485 25.0295 23.8052C24.8522 24.1957 25.1684 24.4802 25.5037 24.62Z" fill="#FFFEF7"/>
<path d="M22.2984 24.866C21.9917 24.8516 21.9726 25.3337 22.2792 25.3481C23.7883 25.4253 25.3214 26.0568 26.8449 25.7627C27.1467 25.7049 27.0413 25.2324 26.7395 25.2951C25.2735 25.5795 23.7548 24.9384 22.2984 24.866Z" fill="#FFFEF7"/>
<path d="M27.7797 27.9563C25.5472 29.2001 22.9266 28.9253 20.948 27.3248C20.7084 27.1319 20.4593 27.5417 20.6988 27.7345C22.802 29.4363 25.6382 29.7015 28.0001 28.3854C28.2684 28.2311 28.048 27.8069 27.7797 27.9563Z" fill="#FFFEF7"/>
<path d="M39.8414 20.0788C39.5396 19.6739 39.3623 19.322 39.7264 18.8881C39.7887 18.8109 39.7983 18.7242 39.7695 18.6518C39.8606 18.5747 39.8941 18.4397 39.7887 18.3337C39.3288 17.8805 38.797 17.7021 38.246 17.6829C37.5609 17.6202 36.8327 17.813 36.1428 18.0492C35.4003 18.2999 34.6816 18.5603 33.9103 18.7049C33.3977 18.8013 32.9042 18.8254 32.4203 18.8061C31.9604 18.782 31.5005 18.7242 31.0214 18.647C30.9975 18.6422 30.9783 18.647 30.9591 18.6518C30.9304 18.647 30.9016 18.6422 30.8777 18.6422C30.6525 18.6036 30.595 18.8688 30.71 19.0182C30.7292 19.1918 30.8537 19.3171 31.0023 19.4232C31.0597 19.4618 31.122 19.5051 31.1795 19.5437C31.2083 19.563 31.2418 19.5871 31.2705 19.6112C31.2753 19.616 31.2753 19.6112 31.2753 19.616C31.2801 19.6208 31.2801 19.6208 31.2849 19.6257C31.2993 19.6353 31.3137 19.6498 31.328 19.6594C31.352 19.6835 31.3759 19.7028 31.3999 19.7269C31.3999 19.7269 31.4382 19.7751 31.4239 19.751C31.4047 19.7269 31.4382 19.7751 31.443 19.7799C31.4478 19.7848 31.4478 19.7896 31.4526 19.7944C31.4574 19.7992 31.4622 19.804 31.4622 19.8089C31.4622 19.8137 31.467 19.8185 31.467 19.8233C31.467 19.8233 31.467 19.8281 31.467 19.8233C31.5292 19.939 31.6011 20.0547 31.6203 20.1849C31.6299 20.2524 31.6299 20.3247 31.6059 20.3874C31.5867 20.4404 31.5484 20.4934 31.5436 20.5513C31.5292 20.6477 31.6586 20.6814 31.7305 20.7007C31.8646 20.7345 32.0035 20.72 32.1425 20.7296C32.1521 20.7296 32.1521 20.7345 32.1569 20.7393C32.2 20.7393 32.2479 20.7393 32.291 20.7393C32.4874 20.7538 32.6838 20.7875 32.8803 20.855C33.1965 20.9659 33.5031 21.1201 33.8193 21.2358C34.0876 21.3323 34.3702 21.3708 34.6577 21.3805C34.9547 21.3997 35.2565 21.3853 35.544 21.3564C36.5261 21.2648 37.5561 20.2668 38.5862 20.2668C38.7922 20.2861 38.9982 20.344 39.2042 20.4645C39.2665 20.5031 39.324 20.4982 39.3767 20.4838C39.4485 20.5127 39.5204 20.5079 39.5779 20.4741C39.7599 20.5561 39.9947 20.2861 39.8414 20.0788Z" fill="#FFFEF7"/>
<path d="M31.0885 20.7201C31.1316 20.696 31.3951 20.5369 31.352 20.0838C31.3472 20.0163 31.2323 19.6547 30.7627 19.621C30.3364 19.592 30.0393 19.457 30.0393 19.4619C29.7423 19.3462 29.4788 19.1726 29.2105 18.8978C28.9039 18.5845 28.5925 18.382 28.1613 18.2904C28.0559 18.2663 27.9505 18.2615 27.8499 18.2566C26.9732 18.1602 26.2018 18.758 25.3587 18.7532C25.1862 18.7387 25.0089 18.6953 24.8317 18.6134C24.4532 18.4398 24.113 18.2277 23.7154 18.1024C23.5477 18.0493 23.3657 18.0252 23.1836 18.0156C22.7668 17.9674 22.3165 18.0108 21.9188 18.0445C20.8313 18.1265 19.7773 18.3531 18.6994 18.3145C18.5748 18.3049 18.455 18.3 18.3305 18.2856C18.3017 18.2711 18.2682 18.2615 18.2299 18.2566C18.1963 18.2566 18.158 18.2566 18.1197 18.2566C18.1101 18.2566 18.1053 18.2518 18.0957 18.2518C18.1053 18.2518 18.1149 18.247 18.1197 18.247C18.1772 18.2422 18.2394 18.2422 18.2969 18.2518C18.2969 18.2518 18.2969 18.2518 18.2969 18.247C18.2921 18.247 18.2873 18.247 18.2826 18.2422C18.2921 18.2422 18.2921 18.2422 18.2778 18.2422C18.2682 18.2422 18.2586 18.2422 18.249 18.2374C18.1963 18.2325 18.1436 18.2374 18.0909 18.2422C17.9951 18.2518 17.8753 18.2856 17.7843 18.3241C17.6837 18.3675 17.5927 18.4206 17.5208 18.5025C17.4969 18.5266 17.4873 18.5555 17.4729 18.5796C17.4729 18.5893 17.4729 18.5989 17.4681 18.6037C17.4537 18.6279 17.4489 18.652 17.4489 18.6761C17.4489 18.6953 17.4489 18.7146 17.4489 18.7339C17.4489 18.7436 17.4489 18.7532 17.4489 18.7628C17.4489 18.7628 17.4537 18.7869 17.4489 18.7773C17.4585 18.8352 17.4729 18.893 17.4825 18.9509C17.5448 19.0666 17.5975 19.1919 17.5064 19.3076C17.3148 19.539 17.2334 19.7993 17.2429 20.05C17.3052 20.2911 17.425 20.5128 17.6214 20.6719C17.722 20.7539 17.837 20.8117 17.9568 20.8503C18.0718 20.8888 18.1915 20.9129 18.3017 20.9515C19.2982 21.0913 20.1797 21.5686 21.1906 21.6746C21.2385 21.6795 21.2816 21.6795 21.3295 21.6843C21.3343 21.6843 21.3343 21.6843 21.3391 21.6843C21.3535 21.6843 21.3679 21.6843 21.3822 21.6843C21.4254 21.6891 21.4685 21.6891 21.5164 21.6891C21.9571 21.7084 22.8914 21.4818 23.0543 21.3613C23.1357 21.3034 23.2267 21.2697 23.3177 21.2263C23.4998 21.1347 23.6723 21.0287 23.8639 20.9563C24.0412 20.8888 24.2424 20.8551 24.4388 20.8551C24.4771 20.8551 24.5107 20.8455 24.549 20.8358C24.5969 20.8262 24.6448 20.8214 24.6975 20.8165C24.7981 20.8117 24.8939 20.8069 24.9946 20.8262C25.0568 20.8406 25.1191 20.8551 25.1814 20.8792C25.5359 20.9322 25.8665 21.0865 26.1827 21.3854C26.5133 21.6988 26.8917 21.8819 27.3229 22.0025C27.4906 22.0459 27.6583 22.0651 27.8259 22.07C28.2667 22.1085 28.7218 22.0266 29.1578 22.0073C29.2153 22.0121 29.2728 22.0121 29.3255 22.0218C29.5315 22.0555 29.7327 22.1182 29.9387 22.176C29.9435 22.176 29.9435 22.1712 29.9483 22.1712C30.1495 22.1905 30.3459 22.2339 30.5472 22.2821C30.7053 22.3158 30.8681 22.3496 30.9735 22.1953C31.0167 22.1326 31.0215 22.0459 31.0358 21.9687C31.0502 21.8868 31.0742 21.8096 31.1173 21.7373C31.1604 21.6554 31.4478 21.4047 31.2658 21.1444C31.1939 21.0287 30.9592 20.7924 31.0885 20.7201ZM22.8482 20.0789C22.7764 20.0982 22.6949 20.0838 22.6231 20.0211C22.4267 19.8427 22.12 19.674 21.8278 19.6354C21.6457 19.6402 21.4781 19.7077 21.3487 19.8668C21.2673 19.9681 21.1523 19.9825 21.0517 19.9488C20.8505 19.9922 20.6301 19.7945 20.7834 19.5968C21.0852 19.2112 21.4972 19.0955 21.914 19.1533C22.3452 19.1678 22.7908 19.3799 23.1309 19.6884C23.3417 19.8813 23.0782 20.1657 22.8482 20.0789ZM29.1339 20.8696C29.038 20.8888 28.9278 20.8647 28.856 20.7635C28.6021 20.4019 28.2619 20.1754 27.8834 20.1223C27.6822 20.1175 27.4666 20.1561 27.2558 20.2573C27.184 20.2911 27.1121 20.2862 27.0546 20.2621C26.7959 20.32 26.6139 19.9343 26.8822 19.809C27.2463 19.6402 27.6008 19.5872 27.9361 19.6306C28.5254 19.6595 29.0524 19.9873 29.4405 20.5417C29.5842 20.7539 29.3303 20.9371 29.1339 20.8696Z" fill="#FFFEF7"/>
<path d="M30.3897 18.8929C30.3897 18.8109 30.1214 15.9811 28.3919 14.7903C27.496 14.1732 26.5761 13.7683 25.5509 13.5995C25.5557 13.5947 25.5605 13.5947 25.5653 13.5899C25.5844 13.561 25.5844 13.5224 25.5653 13.4887C25.4982 13.3778 25.4311 13.2717 25.3497 13.1464C25.1341 12.8089 24.9089 12.4618 24.8035 12.0761C24.5257 11.0397 24.7173 9.90675 25.3257 8.96668C25.9629 7.98804 26.9738 7.32758 28.0948 7.15885C28.1859 7.14438 28.3248 7.04797 28.3775 6.97083C28.7272 5.51493 29.1297 3.79869 29.4794 2.06318C29.5561 1.68233 29.5752 1.53288 29.5273 1.43164C29.4698 1.37861 29.3309 1.33522 28.9333 1.26291C28.3631 1.15685 27.7739 1.08454 27.1942 1.01705C26.9403 0.988121 26.6863 0.954375 26.4564 0.920629L26.0731 0.906167L25.6084 0.853137C25.6084 0.853137 23.0692 0.785645 23.0549 0.785645C16.9992 1.10382 11.6862 3.43231 7.26898 7.72289C7.24982 7.74217 7.24023 7.76628 7.24023 7.7952C7.24023 7.82413 7.25461 7.84823 7.27377 7.86752L7.70016 8.22908C8.21278 8.66296 8.70624 9.08238 9.19491 9.50662L9.23802 9.54518C9.43445 9.71391 9.55901 9.81997 9.71232 9.81997C9.78897 9.81997 9.88 9.79105 9.98061 9.7332C10.1004 9.6657 10.2249 9.63196 10.3543 9.63196C10.6082 9.63196 10.8717 9.76694 11.116 10.0176C11.3747 10.2876 11.3843 10.6347 11.14 10.9963C11.0394 11.1505 11.0538 11.2228 11.2358 11.4012C12.0503 12.1918 12.8551 12.9873 13.6648 13.7827L14.6325 14.7373C14.6517 14.7566 14.6756 14.7662 14.6996 14.7662C14.7236 14.7662 14.7427 14.7566 14.7619 14.7421C15.1308 14.4287 15.4422 14.2841 15.744 14.2841C16.0506 14.2841 16.3381 14.4432 16.592 14.7614C16.7309 14.9349 16.9082 15.1953 16.8651 15.5183C16.8267 15.8123 16.6207 16.0823 16.1848 16.4246C16.1608 16.4439 16.1464 16.468 16.1464 16.4969C16.1464 16.5258 16.156 16.5547 16.18 16.574C16.3812 16.7476 16.5968 16.9018 16.8076 17.0561C16.9561 17.1622 17.1046 17.2731 17.2483 17.3839C17.4016 17.5045 17.5502 17.6298 17.6987 17.7503C17.7035 17.7503 17.7035 17.7503 17.7083 17.7503C17.8712 17.8371 18.0772 17.8033 18.2305 17.7118C18.3071 17.6684 18.3838 17.6105 18.4317 17.5334C18.4604 17.49 18.4844 17.4418 18.5035 17.3888C18.5323 17.3261 18.561 17.2634 18.5802 17.1959C18.585 17.1815 18.5994 17.1766 18.6042 17.1622C18.7335 16.8054 18.8868 16.4631 19.088 16.1305C19.9121 14.7517 21.5889 14.3709 23.0501 14.1443C24.0035 13.9997 26.9977 14.0672 28.4063 15.4508C29.3405 16.3715 29.7621 17.6587 29.9633 18.9459C29.9872 19.0134 30.0256 19.0761 30.0783 19.1194C30.1549 19.1821 30.2651 19.1966 30.3466 19.1628C30.3849 19.1436 30.3945 19.1194 30.3945 19.0761C30.404 19.023 30.3897 18.9604 30.3897 18.8929ZM21.6224 13.5754C21.5553 13.6188 21.4787 13.6429 21.3972 13.6429C21.311 13.6429 21.2248 13.6188 21.1385 13.5754C21.0475 13.5272 20.9229 13.4405 20.8654 13.3151C20.808 13.1994 20.8175 13.0692 20.8846 12.9632C20.9469 12.8716 21.0331 12.8234 21.1577 12.8137H21.2008C21.2775 12.8137 21.3541 12.8282 21.4308 12.8427C21.4356 12.8427 21.4403 12.8427 21.4499 12.8427C21.4787 12.8427 21.5026 12.8234 21.5218 12.7945C21.6272 12.8282 21.7086 12.8812 21.7661 12.9584C21.8092 13.0162 21.8332 13.0982 21.8284 13.1801C21.8332 13.3344 21.7518 13.4838 21.6224 13.5754ZM21.9769 13.8358C22.0919 13.6767 22.2069 13.5079 22.2931 13.3344C22.3985 13.1078 22.3889 12.8427 22.2596 12.6305C22.1925 12.5197 22.044 12.3317 21.7565 12.3172C21.7086 12.3172 21.6607 12.3124 21.6128 12.3124C21.1721 12.3124 20.8367 12.4329 20.5972 12.6836C20.3049 12.9825 20.3001 13.3585 20.5828 13.7056C20.7457 13.9081 20.9373 14.0238 21.1768 14.0768C20.4295 14.3371 19.7252 14.6987 19.1455 15.282C18.6377 15.793 18.3119 16.4487 18.0915 17.1525L17.2915 16.4921C17.2196 16.4342 17.2004 16.333 17.2436 16.251C17.6412 15.5279 17.555 14.8626 16.9896 14.2841C16.5776 13.8599 16.1321 13.6429 15.6626 13.6429C15.4326 13.6429 15.1979 13.696 14.9535 13.7972C14.9104 13.8165 14.8673 13.8213 14.8146 13.8213C14.6661 13.8213 14.4744 13.7393 14.369 13.6381C13.6792 12.9632 12.8743 12.1677 12.1125 11.3627C11.9784 11.2228 11.9401 11.03 11.9017 10.8275C11.8922 10.789 11.8874 10.7504 11.8778 10.7167C11.849 10.5913 11.8299 10.466 11.8107 10.3358C11.7772 10.114 11.7484 9.90193 11.6574 9.74284C11.4035 9.28485 11.0106 9.07756 10.3926 9.07756C10.2728 9.07756 10.1531 9.0872 10.0141 9.10166C9.99498 9.10166 9.97582 9.09684 9.95665 9.09202L9.39612 8.91365C9.36738 8.90401 9.33863 8.88954 9.31468 8.86544L8.28464 7.82413C8.24631 7.78556 8.22715 7.73253 8.22715 7.6795C8.23194 7.62647 8.2559 7.57344 8.29901 7.5397C8.52418 7.36132 8.74456 7.18295 8.96494 6.99976L9.03681 6.94191C9.55422 6.52249 10.086 6.08861 10.6322 5.68848C12.2611 4.48808 14.1439 3.4998 16.2231 2.75256C18.2305 2.02461 20.2426 1.59073 22.2021 1.45093C22.6668 1.41718 23.1698 1.40272 23.692 1.40272C24.2095 1.40272 24.7508 1.41718 25.3449 1.45093C25.9342 1.48467 26.5234 1.55699 27.0936 1.62448C27.5056 1.67751 27.9128 1.72572 28.3248 1.76428C28.5356 1.78357 28.6889 1.85588 28.7799 1.98122C28.9045 2.14995 28.871 2.36689 28.8374 2.51634C28.5787 3.68299 28.2961 4.92196 27.9895 6.15128C27.932 6.37304 27.6924 6.58516 27.496 6.64783C26.6241 6.93709 25.9246 7.37097 25.3545 7.97358C24.1041 9.2945 23.51 11.6182 24.7652 13.5128C22.892 13.3392 22.2404 13.7635 21.9769 13.8358Z" fill="#FFFEF7"/>
<path d="M47.5173 40.3075C46.3483 37.1112 43.6367 34.5947 40.5753 33.2545C37.1403 31.7552 33.3459 31.5286 29.6474 31.707C29.3504 31.7215 29.3312 32.1843 29.6282 32.1746C32.9195 32.0155 36.254 32.1795 39.3872 33.2834C42.5779 34.4067 45.3423 36.6966 46.7987 39.7916C48.0539 42.4576 48.0156 45.6683 46.1807 48.1076C44.3985 50.4795 38.2182 51.381 36.3259 51.5931C36.2396 51.6028 36.1917 51.6462 36.1678 51.704C36.1438 51.569 36.0049 51.4389 35.8372 51.4967C35.818 51.4003 35.7462 51.3183 35.6216 51.3135C33.5088 51.2894 31.4583 50.7977 29.4414 50.1951C28.6269 49.954 27.8077 49.713 26.9837 49.4623C27.3142 48.9465 27.3526 48.3776 27.3526 47.7798C27.3526 47.6159 27.2088 47.5388 27.0843 47.5581C27.0555 47.5484 27.022 47.5484 26.9837 47.5532C26.289 47.6738 25.326 47.317 25.7189 46.4493C26.083 45.649 26.9549 46.4541 27.1801 46.9314C27.2424 47.0663 27.3813 47.076 27.4819 47.0133C27.5298 47.0133 27.5825 46.994 27.6257 46.941C28.0329 46.4444 28.052 45.8997 27.985 45.3115C28.9719 45.5526 29.9684 45.784 30.9793 45.8611C31.0703 45.8659 31.1374 45.8322 31.1757 45.7743C31.2044 45.7406 31.2284 45.6924 31.2284 45.6297C31.2907 43.2289 33.4705 40.0134 36.0815 40.0857C36.3881 40.0953 36.4073 39.6133 36.1007 39.6036C33.3124 39.5265 30.9697 42.7275 30.7685 45.3549C28.2149 45.1091 25.8195 44.0822 23.2228 44.0967C20.9616 44.1063 18.8344 44.5209 16.7504 45.3453C15.9216 45.0994 15.0688 44.9355 14.1777 44.9018C14.4699 44.1834 14.6424 43.4169 14.6855 42.5926C14.7861 40.7317 14.24 38.8612 13.8519 37.063C13.7849 36.7593 13.3201 36.8654 13.3872 37.1691C13.7274 38.731 14.1346 40.2978 14.2112 41.9032C14.2639 42.9686 14.0675 43.9713 13.6651 44.8969C13.6507 44.8969 13.6411 44.8969 13.6315 44.8969C13.392 44.9018 13.3297 45.2007 13.4639 45.326C13.2052 45.8177 12.8842 46.2854 12.5057 46.7289C12.3045 46.9603 12.6303 47.317 12.8315 47.0808C13.2914 46.5457 13.6747 45.9768 13.9717 45.379C14.6712 45.3887 15.3515 45.4899 16.0174 45.6442C16.2761 45.5863 16.5252 45.7358 16.7552 45.8659C16.7696 45.8611 16.7791 45.8563 16.7935 45.8515C16.9756 45.9045 17.1576 45.9672 17.3349 46.0298C16.8941 46.8012 16.4102 47.5195 16.2426 48.4114C16.209 48.5801 16.3767 48.7874 16.5588 48.6717C17.1145 48.3246 17.6223 48.7874 17.7709 49.3225C18.0008 50.1758 16.9229 50.2674 16.5204 49.8094C16.4055 49.6792 16.2378 49.7419 16.1707 49.8576C16.1324 49.8721 16.0988 49.901 16.0701 49.9444C15.5383 50.7832 15.2173 51.892 15.294 52.89C15.3083 53.0539 15.5287 53.2322 15.6677 53.0635C16.233 52.3741 17.2822 52.7019 17.4738 53.5456C17.7134 54.6158 16.3911 54.7797 15.7299 54.3989C15.6581 54.3603 15.591 54.3603 15.5335 54.3844C15.409 54.2398 15.1071 54.3459 15.1502 54.5869C15.27 55.2618 15.1359 55.9512 15.4185 56.5731C14.216 56.4574 13.0039 56.2405 11.7919 55.8982C8.63947 55.0111 5.72663 53.2081 3.82945 50.4843C1.85082 47.64 0.978883 43.6387 1.72147 40.2351C3.25454 33.2304 11.9068 31.4081 17.9194 30.9405C18.02 30.9308 18.0823 30.873 18.1206 30.8055C18.1541 31.0321 18.226 31.249 18.3649 31.4515C18.8727 32.165 19.6057 32.6471 20.2094 33.2642C21.3305 34.4115 22.2599 35.8048 23.6684 36.6243C23.7882 36.6918 23.9223 36.6532 23.999 36.5472C24.8134 35.3709 26.1836 34.4983 27.4053 33.8041C28.2868 33.3027 29.1396 32.8351 29.2785 31.7697C29.3887 31.76 29.4989 31.6877 29.518 31.5527C29.5564 31.3117 29.5899 31.0707 29.6282 30.8296C29.6618 30.7091 29.6809 30.5789 29.6857 30.4536C29.9828 28.4577 30.2367 26.4571 30.4283 24.4468C31.2954 24.0032 31.7362 22.9234 31.4535 22.0556C31.4488 22.0556 31.4392 22.0508 31.4344 22.0508C31.4296 22.0508 31.4248 22.0508 31.42 22.0508C31.4104 22.0508 31.4056 22.0556 31.3961 22.0556C31.3673 22.0701 31.3386 22.0894 31.3098 22.1086C31.305 22.1135 31.3002 22.1086 31.2955 22.1086C31.2523 22.1713 31.2044 22.234 31.1661 22.3015C31.1421 22.3449 31.1182 22.3834 31.0942 22.4316C31.0847 22.4509 31.0799 22.4606 31.0751 22.4847C31.123 22.986 30.8978 23.526 30.4858 23.8538C30.5097 23.5645 30.5241 23.2705 30.5433 22.9812C30.5097 22.9523 30.5002 22.9041 30.5193 22.8655C30.5241 22.8559 30.5289 22.8414 30.5385 22.8318C30.5241 22.8607 30.5433 22.8221 30.5433 22.8173C30.5481 22.8077 30.5481 22.798 30.5529 22.7836V22.7787C30.5529 22.7691 30.5529 22.7595 30.5529 22.7498C30.5529 22.7498 30.5529 22.745 30.5529 22.7402C30.5529 22.745 30.5577 22.7546 30.5529 22.7402C30.5529 22.7354 30.5433 22.7016 30.5385 22.692C30.5385 22.692 30.5385 22.692 30.5385 22.6871C30.5385 22.6823 30.5337 22.6775 30.5337 22.6775C30.5289 22.6679 30.5241 22.663 30.5193 22.6582C30.5193 22.6534 30.5145 22.6534 30.5145 22.6486C30.5097 22.6438 30.505 22.6341 30.5002 22.6341C30.4906 22.6197 30.4762 22.61 30.4618 22.6004C30.4618 22.6004 30.4571 22.5955 30.4523 22.5955C30.4475 22.5907 30.4379 22.5859 30.4331 22.5811C30.4187 22.5714 30.3996 22.5618 30.3852 22.5522C30.3804 22.5522 30.3804 22.5473 30.3756 22.5473C30.3708 22.5425 30.3612 22.5425 30.3564 22.5425C30.3373 22.5377 30.3229 22.5329 30.3037 22.5281C30.2942 22.5281 30.2846 22.5232 30.2798 22.5232C30.2798 22.5232 30.2798 22.5232 30.275 22.5232C30.2558 22.5232 30.2367 22.5232 30.2175 22.5232C30.2127 22.5232 30.2079 22.5232 30.1983 22.5232H30.1936C30.184 22.5232 30.1552 22.5377 30.1456 22.5377C30.1456 22.5377 30.1409 22.5377 30.1409 22.5425C30.1361 22.5473 30.1265 22.5522 30.1217 22.557L30.1121 22.5666C30.1121 22.5666 30.1169 22.5666 30.1169 22.5618C30.1121 22.5666 30.1073 22.5714 30.1025 22.5763C30.0977 22.5811 30.0977 22.5811 30.0929 22.5859C30.0882 22.5907 30.0882 22.5955 30.0834 22.6004C30.0834 22.6004 30.0738 22.6148 30.0738 22.6245C30.0067 23.8538 29.9061 25.0012 29.8965 25.112C29.724 26.8668 29.4893 28.6168 29.2306 30.362C29.2258 30.3813 29.221 30.4054 29.221 30.4295C29.221 30.4343 29.221 30.4343 29.221 30.4391C29.2114 30.4873 29.2066 30.5355 29.2018 30.5837H29.1827C29.1731 30.6609 29.1539 30.738 29.1252 30.8151C29.1108 30.8537 29.1108 30.8971 29.1204 30.9357C29.0964 31.0899 29.0725 31.2442 29.0485 31.3985C28.9288 31.3937 28.809 31.4708 28.7994 31.6202C28.7228 32.8881 27.1466 33.3799 26.2363 33.9921C25.3212 34.6044 24.3966 35.2407 23.7211 36.1229C22.6575 35.4432 21.8479 34.4067 21.0191 33.4715C20.5783 32.9749 20.1088 32.5314 19.6057 32.1023C19.3327 31.8709 19.0883 31.6299 18.8536 31.3599C18.4559 30.9019 18.5518 30.362 18.5997 29.822C18.6045 29.7883 18.5997 29.7546 18.5901 29.7256C18.6332 29.6822 18.662 29.6292 18.662 29.5617V29.3014H18.6763C18.6428 26.5728 18.0918 21.1637 18.0823 21.1493C18.0775 21.1445 18.0775 21.1396 18.0727 21.1396C18.0631 21.13 18.0583 21.1252 18.0487 21.1155C18.0391 21.1059 18.0296 21.1011 18.0248 21.0914C18.0391 21.1011 18.0104 21.0818 18.0056 21.0818C17.9864 21.0673 17.9625 21.0577 17.9385 21.0432C17.9289 21.0384 17.9146 21.0336 17.905 21.0288C17.8906 21.0239 17.8906 21.0239 17.9002 21.0239C17.8954 21.0239 17.8906 21.0191 17.8858 21.0191C17.8619 21.0095 17.8427 21.0095 17.8188 21.0047C17.8092 21.0047 17.8092 21.0047 17.8188 21.0047C17.814 21.0047 17.8044 21.0047 17.7996 21.0047C17.79 21.0047 17.7804 21.0047 17.7709 21.0047C17.7565 21.0047 17.7469 21.0047 17.7325 21.0047C17.7277 21.0047 17.6942 21.0095 17.7134 21.0047C17.6894 21.0095 17.6175 21.0336 17.6319 21.0239C17.6223 21.0288 17.6175 22.3931 17.6655 23.068C16.669 21.911 17.2103 20.8022 17.2295 20.725C17.2295 20.7154 17.2343 20.7058 17.2343 20.7009C17.2343 20.7009 17.2391 20.672 17.2391 20.6865C17.2391 20.6672 17.2391 20.6527 17.2391 20.6334C17.2391 20.6045 17.2295 20.5708 17.2151 20.537C17.1864 20.4744 17.1576 20.4213 17.1049 20.3828C17.1193 20.3924 17.0714 20.3683 17.0953 20.3731C17.081 20.3683 17.081 20.3683 17.0666 20.3731C17.0426 20.3779 17.0235 20.3828 16.9995 20.3876C16.2186 21.2264 16.8175 23.0969 17.6655 23.7285C17.6846 23.7429 17.7086 23.7526 17.7277 23.7622C17.7804 24.3359 17.8427 24.9144 17.905 25.4881L17.79 25.5266C17.2151 25.7243 16.6354 25.922 16.0605 26.1293C15.9072 26.1823 15.7826 26.2112 15.6629 26.2112C15.4569 26.2112 15.2652 26.1293 15.0736 25.9653C14.1921 25.1892 13.2722 24.8132 12.2614 24.8132C12.0362 24.8132 11.8062 24.8324 11.5763 24.871C9.47308 25.2085 7.88251 26.8138 7.62381 28.8627C7.58069 29.2098 7.42738 29.4074 7.11598 29.5376L6.51712 29.7787C5.55415 30.1643 4.5864 30.5548 3.62344 30.9501C3.52283 30.9935 3.4318 31.0128 3.35036 31.0128C3.13956 31.0128 2.98625 30.8826 2.89523 30.6271C2.12869 28.5011 1.7023 26.3607 1.62565 24.2587C1.58253 23.0246 1.66877 21.7712 1.755 20.5611L1.78375 20.1658C1.87477 18.8401 2.16223 17.4613 2.71797 15.6969C3.40306 13.5082 4.35165 11.5557 5.62123 9.7238C5.64997 9.68041 5.69788 9.65148 5.77933 9.64184C5.82244 9.64184 5.87035 9.6563 5.90389 9.68523L6.22008 9.9552C6.48358 10.177 6.7375 10.3939 6.9962 10.606C7.2597 10.823 7.37947 11.0929 7.36989 11.4545C7.3651 11.7968 7.5232 12.1583 7.80586 12.4524C8.0981 12.7513 8.48616 12.9345 8.85027 12.9345C8.98441 12.9345 9.11376 12.9104 9.23354 12.867C9.29582 12.8429 9.36289 12.8333 9.43954 12.8333C9.62639 12.8333 9.84677 12.9056 10.0049 13.0116C10.3498 13.2527 10.69 13.5034 11.0253 13.7589C11.3463 13.9999 11.6673 14.241 11.9979 14.4724C12.4913 14.8146 12.8123 15.2051 12.7644 15.9813C12.7309 16.4923 12.9704 16.8635 13.1764 17.0853C13.5261 17.4613 14.0388 17.6831 14.5466 17.6831C14.8197 17.6831 15.0784 17.6204 15.3083 17.4951C15.409 17.442 15.5191 17.4324 15.6006 17.4324C15.6533 17.4324 15.8449 17.442 15.9743 17.5384C16.324 17.7988 16.6929 18.0928 17.0953 18.4255C17.1001 18.4255 17.1097 18.4303 17.1145 18.4303C17.1241 18.4303 17.1241 18.4303 17.1145 18.4303C17.1193 18.4303 17.1289 18.4303 17.1337 18.4303C17.148 18.4303 17.1576 18.4303 17.172 18.4303C17.1864 18.4303 17.1816 18.4303 17.172 18.4303C17.1768 18.4303 17.1816 18.4303 17.1912 18.4255C17.2007 18.4207 17.2151 18.4207 17.2247 18.4158C17.2103 18.4207 17.2343 18.411 17.2343 18.411C17.2439 18.4062 17.2582 18.3966 17.2678 18.3917C17.2582 18.4014 17.2822 18.3773 17.287 18.3773C17.2966 18.3676 17.3061 18.3628 17.3157 18.3532C17.3349 18.3339 17.354 18.3194 17.3732 18.3001C17.3924 18.2809 17.4115 18.2616 17.4259 18.2423C17.4451 18.2182 17.4451 18.2182 17.4642 18.1941C17.469 18.1844 17.4786 18.17 17.4834 18.1603C17.4978 18.1362 17.4786 18.1748 17.4882 18.1507C17.493 18.1411 17.493 18.1266 17.4978 18.1169C17.4978 18.1073 17.4978 18.1073 17.4978 18.1169C17.4978 18.1121 17.4978 18.1073 17.4978 18.0977C17.4978 18.088 17.4978 18.0832 17.4978 18.0784C17.4978 18.088 17.4978 18.088 17.4978 18.0784C17.4978 18.0736 17.4882 18.0446 17.4882 18.0543C17.4738 18.0254 17.4547 17.9964 17.4403 17.9675C17.402 17.9145 17.3636 17.8614 17.3205 17.8132C17.3061 17.794 17.0666 17.5915 16.9564 17.5047C16.827 17.4035 16.7121 17.2878 16.5923 17.1769C16.3815 16.9696 16.1659 16.7575 15.888 16.6321C15.8737 16.6225 15.8593 16.6128 15.8449 16.608C15.8162 16.6032 15.7922 16.5887 15.7779 16.5791L15.5814 16.3911C15.5718 16.3814 15.5575 16.3814 15.5431 16.3814C15.5 16.3814 15.4521 16.4104 15.4281 16.4393C15.27 16.6466 15.1119 16.8587 14.8772 16.9407C14.7957 16.9696 14.6999 16.984 14.5993 16.984C14.355 16.984 14.0675 16.9021 13.8328 16.7623C13.5836 16.6177 13.3201 16.232 13.3441 15.9331C13.368 15.6535 13.4878 15.3932 13.6028 15.1376L13.6555 15.0219C13.6747 14.9834 13.6603 14.9303 13.6268 14.9062L9.66471 11.9607C9.64555 11.9462 9.62639 11.9414 9.60722 11.9414C9.58327 11.9414 9.56411 11.951 9.54494 11.9655C9.29103 12.1776 9.0419 12.2837 8.7784 12.2837C8.62031 12.2837 8.46221 12.2451 8.29932 12.168C8.27536 12.1583 8.2562 12.1391 8.23704 12.1198L8.15559 12.033C8.12685 11.9993 8.10768 11.9559 8.10768 11.9125C8.10768 11.9125 8.07415 11.0785 8.05498 10.741C8.05498 10.7121 8.04061 10.6832 8.01666 10.6639C7.69567 10.4084 7.37468 10.1577 7.0489 9.90217L6.70396 9.6322L6.11948 9.08262L5.78412 8.66802C5.76495 8.64874 5.741 8.63428 5.71225 8.63428C5.68351 8.63428 5.65955 8.64874 5.64039 8.66802C5.62123 8.68731 5.60685 8.71141 5.59248 8.7307C4.57203 10.0854 3.71926 11.5461 3.05812 13.0743C2.06162 15.3739 1.42443 17.8084 1.16573 20.3056C1.13219 20.6383 1.09386 20.9709 1.05075 21.3084L0.998047 21.7278V24.2154C0.998047 24.225 1.01242 24.2732 1.01721 24.2829C1.04116 24.3552 1.06991 24.4323 1.0747 24.5239C1.14177 26.1437 1.41485 27.7491 1.87957 29.2966C2.06162 29.8992 2.26283 30.497 2.46405 31.0803L2.51196 31.2153L2.56466 31.3503C2.56945 31.3551 2.57424 31.3647 2.58382 31.3695C2.72755 31.5142 2.93835 31.5865 3.20663 31.5865C3.31203 31.5865 3.41743 31.5768 3.51325 31.5624C3.81986 31.5142 4.13606 31.4129 4.4283 31.2731C4.51454 31.2297 4.60556 31.1864 4.6918 31.1381C4.78762 31.0899 4.88343 31.0369 4.97925 30.9887C5.14693 30.9116 5.32419 30.8778 5.50625 30.8441L5.59248 30.8296C5.91347 30.7718 6.20571 30.6368 6.49316 30.5114C6.61773 30.4536 6.74229 30.4005 6.83331 30.3523C6.8429 30.3523 6.85248 30.3572 6.86206 30.3572C6.88122 30.3572 6.8956 30.3523 6.90997 30.3475L7.07765 30.2607C7.37468 30.1113 7.6813 29.957 7.9927 29.8269C8.14601 29.7642 8.17955 29.7112 8.17955 29.5328C8.21308 27.2236 10.0097 25.4109 12.2662 25.4109C12.4003 25.4109 12.5392 25.4158 12.6782 25.4302C13.6028 25.517 14.4029 25.9943 15.0496 26.8476C15.1359 26.9584 15.1934 27.0018 15.2604 27.0018C15.3036 27.0018 15.361 26.9874 15.4281 26.9633C16.1611 26.7029 16.8989 26.4571 17.6367 26.2112L17.9721 26.1003C18.0056 26.4089 18.0296 26.7174 18.0583 27.0259L15.1934 28.101C15.155 28.1155 15.1311 28.1733 15.1311 28.2167C15.1311 28.3565 15.1311 28.477 15.1311 28.5927C15.1167 29.2146 14.9395 29.8124 14.5801 30.4247C14.561 30.4584 14.561 30.497 14.5849 30.5259C14.6041 30.5548 14.6328 30.5693 14.6664 30.5693C14.6712 30.5693 15.2029 30.497 15.2029 30.497C15.2413 30.4921 15.27 30.4632 15.2844 30.4295L15.3754 30.1402C15.4904 29.7738 15.5958 29.4267 15.6677 29.0652C15.7587 28.5686 16.0509 28.4047 16.3528 28.3035C16.8893 28.1203 17.4307 27.913 17.9625 27.7057L18.1254 27.643C18.1637 28.1492 18.1924 28.6554 18.2068 29.1616C18.202 29.176 18.202 29.1953 18.202 29.2098V29.5183C18.202 29.5521 18.2068 29.5858 18.2212 29.6147C18.1781 29.6533 18.1493 29.7063 18.1397 29.7787C18.1206 30.0197 18.0966 30.2704 18.1014 30.5163C18.0631 30.4777 18.0104 30.4536 17.9385 30.4584C13.3153 30.82 7.73879 31.8227 4.18876 35.1539L3.40785 33.2883C3.39348 33.2497 3.38869 33.2111 3.39827 33.1726L3.55158 32.4928C3.56595 32.4205 3.62344 32.3626 3.6953 32.3482L3.84382 32.3193C3.92526 32.3048 4.00671 32.2855 4.08815 32.2614L5.214 31.9143C5.90389 31.7022 6.58898 31.4852 7.27887 31.278C7.36989 31.249 7.50883 31.2201 7.63339 31.2201C7.74837 31.2201 7.8394 31.2442 7.91126 31.2972C8.18913 31.5045 8.45263 31.7408 8.71133 31.977L8.86464 32.1168C8.8838 32.1312 8.90297 32.1409 8.92692 32.1409C8.9365 32.1409 8.95088 32.1409 8.96046 32.1361L9.40122 31.9673C9.43475 31.9529 9.45871 31.924 9.4635 31.8902C9.46829 31.8565 9.45391 31.8179 9.42517 31.7986L9.37247 31.76C8.95567 31.4804 8.5197 31.1864 8.12206 30.8634C7.96396 30.738 7.85377 30.6898 7.72921 30.6898C7.70525 30.6898 7.67651 30.6898 7.64776 30.6946C7.4705 30.7187 7.29324 30.7477 7.11598 30.7718L7.04411 30.7814L6.87164 30.8151C6.62252 30.9694 6.32069 31.0273 5.99012 31.0948C5.6883 31.1574 5.39127 31.249 5.10381 31.3358L4.85948 31.4081C4.71575 31.4515 4.57203 31.4901 4.42351 31.5286C4.16001 31.601 3.90131 31.6733 3.6426 31.76C3.44618 31.8275 3.25454 31.8998 3.0677 31.9818C2.93355 32.0445 2.83774 32.0686 2.73713 32.0734C2.71317 32.0734 2.67964 32.0975 2.66048 32.112L2.44968 32.2711C2.41135 32.2952 2.40177 32.3434 2.41614 32.3868L3.748 35.5589C3.24017 36.0892 2.78025 36.6677 2.38261 37.3137C0.686641 40.0423 0.753713 43.3976 1.4963 46.4252C2.24846 49.5057 4.09294 52.1524 6.64168 53.9988C10.1342 56.5297 14.676 57.3396 18.9015 57.1516C24.8997 56.8865 30.6104 54.2687 36.0432 51.9258C36.1007 51.9017 36.1342 51.8583 36.1534 51.8149C36.1678 51.9354 36.2684 52.0559 36.4265 52.0415C38.2757 51.8294 44.432 51.3858 46.6214 48.2908C48.303 45.8997 48.4803 42.9445 47.5173 40.3075ZM23.7738 44.5788C25.0482 44.598 26.2842 44.8921 27.5203 45.1958C27.5873 45.6297 27.64 46.0829 27.4196 46.4637C26.8974 45.7117 25.7716 45.2392 25.2925 46.3046C24.7799 47.4424 25.9249 48.0884 26.9022 48.0112C26.8926 48.4499 26.8447 48.8597 26.5908 49.2454C26.5717 49.2743 26.5621 49.3032 26.5573 49.3321C25.5847 49.0284 24.617 48.7103 23.6732 48.3439C21.5796 47.5291 19.5866 46.3287 17.4738 45.5815C19.5051 44.8535 21.5748 44.545 23.7738 44.5788ZM15.9455 56.6165C15.5814 56.0814 15.6581 55.4547 15.615 54.8424C16.6019 55.3197 17.8858 54.934 17.9194 53.6854C17.9529 52.538 16.6067 51.921 15.7204 52.4223C15.7539 51.6799 15.9982 50.9086 16.3719 50.2867C17.0235 50.7929 17.9625 50.547 18.1924 49.6792C18.4224 48.8163 17.5601 48.016 16.7648 48.1221C16.9852 47.4231 17.3876 46.8205 17.7517 46.1793C19.8788 46.9796 21.891 48.1992 24.0038 48.985C25.8195 49.66 27.7263 50.1903 29.5803 50.7447C31.4008 51.2846 33.2645 51.7137 35.1665 51.786C29.0437 54.4134 22.5857 57.0745 15.9455 56.6165Z" fill="#FFFEF7"/>
<path d="M26.6096 22.4844C26.0731 23.034 25.4263 23.0677 24.722 22.846C24.4346 22.7544 24.1902 22.576 23.9794 22.3639C23.6824 22.0602 23.692 21.7034 23.8118 21.3659C23.8118 21.3611 23.8118 21.3611 23.8118 21.3563C23.8118 21.3515 23.8118 21.3467 23.8118 21.3418C23.8118 21.3322 23.807 21.3274 23.807 21.3177V21.3129C23.807 21.3129 23.807 21.3129 23.807 21.3081C23.8022 21.3033 23.8022 21.2985 23.7974 21.2936C23.7974 21.2888 23.7926 21.2888 23.7926 21.284C23.7926 21.284 23.7926 21.284 23.7878 21.2792C23.7878 21.2792 23.783 21.2792 23.783 21.2744C23.7782 21.2744 23.7686 21.2695 23.7686 21.2695H23.7639C23.7543 21.2695 23.7495 21.2695 23.7399 21.2695C23.5914 21.3226 23.4477 21.3852 23.3279 21.4913C23.2273 22.1421 23.5195 22.7254 24.219 23.1352C25.1005 23.651 26.2264 23.5595 26.9402 22.8315C27.151 22.6194 26.8252 22.2626 26.6096 22.4844Z" fill="#FFFEF7"/>
<path d="M40.1678 22.7351C40.1583 22.682 40.1295 22.6242 40.0768 22.5856C39.7079 22.2964 39.3007 22.1951 38.8695 22.1758C38.6348 22.1517 38.3952 22.1566 38.1461 22.1758C37.7868 22.2 37.4562 22.2337 37.1113 22.2192C37.0107 22.2096 36.9053 22.1999 36.7999 22.1807C36.2441 22.0794 35.7267 21.7805 35.2237 21.5347C35.1662 21.5057 35.1087 21.5057 35.056 21.5202C35.0177 21.5057 34.9793 21.5057 34.9458 21.5057C34.9123 21.4961 34.8739 21.4961 34.8308 21.5106C34.438 21.6263 34.026 21.5973 33.6235 21.607C33.4127 21.6118 33.2067 21.6263 33.0007 21.6648C32.7947 21.7034 32.6126 21.795 32.4114 21.848C32.3156 21.8721 32.2677 21.9444 32.2485 22.0168C32.1671 22.1566 32.215 22.3735 32.421 22.3639C32.4546 22.3639 32.4833 22.3639 32.5168 22.3639C32.5312 22.3687 32.5456 22.3735 32.5647 22.3735C32.6414 22.3687 32.718 22.3735 32.7899 22.3783C34.2942 22.5278 35.377 24.003 36.6705 24.7165C37.049 24.9237 37.5664 25.0539 38.0838 25.0636C38.63 25.0973 39.1857 25.0057 39.5738 24.7406C39.5881 24.7309 39.6025 24.7165 39.6169 24.702C39.7367 24.6393 39.8181 24.4658 39.7127 24.326C39.363 23.8487 39.7846 23.357 40.1343 23.034C40.2397 22.9375 40.2301 22.817 40.1678 22.7351Z" fill="#FFFEF7"/>
</svg>
