<svg width="132" height="107" viewBox="0 0 132 107" fill="none" xmlns="http://www.w3.org/2000/svg">
<path d="M82.0393 8.17945C95.6995 5.90294 119.542 21.0549 131.165 37.3168C132.709 33.9342 132.479 51.4303 127.304 63.2674C127.414 71.9176 125.584 78.8372 124.524 81.5274C123.094 85.1562 120.736 87.3923 119.323 87.9255C90.4453 100.145 27.5837 107.88 22.806 106.92C13.8805 103.235 11.1415 94.5875 9.50366 90.5247C15.7141 86.8863 11.3357 81.9273 6.73571 81.5274C5.49223 76.2445 2.15453 70.939 2 67.7315C6.47951 58.0215 21.2246 46.3258 34.7452 32.7429C40.0928 32.7429 46.437 32.4558 43.5087 27.3009C55.1281 14.8335 72.1807 9.82242 82.0393 8.17945Z" fill="#F4E7CE"/>
<path d="M29.5844 73.7386C27.833 76.015 25.8189 80.8409 31.7737 81.9336C39.2171 83.2994 33.0872 70.0964 29.5844 73.7386Z" fill="#F4E7CE"/>
<path d="M113.508 32.2482C111.664 29.6473 107.305 25.6428 104.618 30.4312C101.259 36.4167 116.272 37.0319 113.508 32.2482Z" fill="#F4E7CE"/>
<path d="M34.8386 86.4865C34.1089 87.8523 33.6126 90.4018 37.4657 89.6734C42.282 88.7628 36.1522 83.7548 34.8386 86.4865Z" fill="#F4E7CE"/>
<path d="M99.1377 30.7562C98.0471 29.5186 95.7792 27.9859 95.4321 31.7569C94.9982 36.4707 101.358 33.1005 99.1377 30.7562Z" fill="#F4E7CE"/>
<path d="M109.547 65.3393C114.498 65.9556 120.192 72.1171 110.785 79.5111C99.0251 88.7536 94.6927 62.2585 109.547 65.3393Z" fill="#F4E7CE"/>
<path d="M64.4519 24.3351C65.6544 27.0304 63.8136 32.3655 56.4656 30.756C47.2806 28.7441 61.573 15.7443 64.4519 24.3351Z" fill="#F4E7CE"/>
<path d="M126.321 29.8631C115.134 13.8793 92.1857 -1.0137 79.0379 1.22389C69.5489 2.83878 53.1358 7.76416 41.9521 20.0185C44.7706 25.0852 38.6643 25.3675 33.5173 25.3675C20.5036 38.7182 6.31153 50.2139 2 59.7579M126.321 29.8631C127.807 26.5384 127.586 43.7354 122.605 55.3702C122.711 63.8725 120.95 70.6738 119.93 73.318C118.553 76.8848 116.283 79.0827 114.923 79.6068C87.1286 91.617 26.6243 99.2198 22.0258 98.2765C13.435 94.6542 10.7987 86.1549 9.22227 82.1616C15.1999 78.5853 10.9856 73.7111 6.55812 73.318C5.36127 68.1254 2.14873 62.9107 2 59.7579M126.321 29.8631C120.853 33.2657 107.826 36.1961 96.4 39.5784M2 59.7579C20.6284 56.7903 51.6794 51.0895 78.2786 44.47M78.2786 44.47C80.6667 41.2089 87.6343 35.6651 96.4 39.5784M78.2786 44.47C82.0714 48.9119 91.0057 54.1523 96.4 39.5784M28.55 65.6624C26.8643 67.8999 24.9257 72.6433 30.6572 73.7173C37.8214 75.0597 31.9215 62.0825 28.55 65.6624ZM109.327 24.8812C107.552 22.3248 103.356 18.3887 100.77 23.0953C97.5366 28.9785 111.987 29.5831 109.327 24.8812ZM33.6072 78.1923C32.9048 79.5348 32.4272 82.0408 36.1357 81.3248C40.7714 80.4298 34.8714 75.5074 33.6072 78.1923ZM95.495 23.4148C94.4454 22.1982 92.2625 20.6918 91.9284 24.3984C91.5107 29.0315 97.6321 25.719 95.495 23.4148ZM105.514 57.4067C110.279 58.0124 115.76 64.0686 106.705 71.3362C95.3867 80.4207 91.2168 54.3785 105.514 57.4067ZM62.11 17.1034C63.2673 19.7526 61.4956 24.9965 54.4231 23.4145C45.5826 21.437 59.339 8.6594 62.11 17.1034Z" stroke="#7E5F2F" stroke-width="2"/>
</svg>
