<svg width="126" height="149" viewBox="0 0 126 149" fill="none" xmlns="http://www.w3.org/2000/svg">
<path d="M70.7148 36.5093C71.0012 36.2199 71.275 35.7038 71.5738 35.6912C75.9931 35.4899 79.2672 32.5699 79.9892 28.3157C80.649 24.414 79.5535 20.6004 75.9558 18.0958C75.1715 17.5545 74.8603 17.1014 75.0595 16.082C76.0056 11.2866 76.6529 6.41578 78.3335 1.6582C87.4087 3.23148 95.5751 6.91923 102.957 12.3816C113.302 20.0466 121.033 29.7506 125.328 42.2486C124.357 42.5129 123.498 42.7521 122.826 42.9409C123.336 45.0931 123.958 47.2202 124.344 49.385C124.768 51.789 124.967 54.2433 125.278 56.6724C125.303 56.8738 125.415 57.0626 125.477 57.2639C125.477 59.9826 125.477 62.7012 125.477 65.4198C125.328 66.4896 125.166 67.5594 125.054 68.6293C124.133 77.3137 121.369 85.3815 117.124 92.9584C116.912 93.3359 116.701 93.7261 116.489 94.1163C116.277 93.8771 116.053 93.638 115.842 93.3989C117.497 89.4972 119.253 85.6332 120.796 81.6937C123.361 75.1615 124.519 68.3272 124.568 61.3041C124.581 58.6358 124.444 55.955 124.12 53.3119C123.772 50.5303 123.099 47.7866 122.589 45.0176C122.465 44.3128 122.029 44.0485 121.431 44.275C120.46 44.6526 119.439 45.005 118.618 45.6217C117.261 46.6538 116.066 47.8998 114.771 49.0074C112.979 50.5429 112.095 50.5177 110.302 49.02C110.103 48.8564 109.717 48.7557 109.48 48.8312C107.016 49.5612 104.563 50.3415 102.111 51.0967C102.036 50.9079 101.961 50.7191 101.899 50.5303C104.688 49.599 107.476 48.655 110.252 47.7236C110.501 48.139 110.626 48.4033 110.788 48.6424C111.634 49.8633 113.003 49.8759 113.813 48.6298C114.086 48.2145 114.311 47.6984 114.323 47.2076C114.335 46.5153 114.672 46.2384 115.232 46.0371C116.626 45.5336 118.02 45.0176 119.415 44.4764C120.112 44.1995 120.784 43.8722 121.469 43.5702C121.431 43.4821 121.394 43.394 121.357 43.3059C120.149 43.6457 118.917 43.9226 117.734 44.3505C116.95 44.6274 116.414 44.6274 115.879 43.8974C115.232 43.0416 114.273 42.9283 113.315 43.2555C112.356 43.5954 112.344 44.4638 112.431 45.2819C112.493 45.9238 112.244 46.1755 111.671 46.3769C108.36 47.56 105.061 48.7683 101.75 49.9765C102.036 49.2465 102.322 48.5166 102.609 47.774C105.36 46.7797 108.111 45.8105 110.85 44.7659C111.161 44.6526 111.447 44.1869 111.547 43.8345C112.057 42.0095 112.829 41.3676 114.734 41.3802C115.481 41.3802 116.24 41.4809 116.987 41.5312C117.423 41.5564 117.858 41.5816 118.294 41.6193C119.925 41.9969 121.518 41.9466 123.087 41.3047C123.809 41.0152 124.133 40.6376 123.734 39.8195C123.149 38.5986 122.701 37.3149 122.116 36.094C118.219 27.9381 112.692 21.0913 105.796 15.3394C98.4881 9.24767 90.3217 4.90544 81.0473 2.79096C79.4663 2.42596 79.4041 2.41337 79.068 3.99923C78.2962 7.64923 77.6239 11.3118 76.8147 14.9492C76.628 15.8177 76.8147 16.2582 77.487 16.7616C80.3378 18.9013 81.732 21.8968 81.8192 25.3706C81.9561 30.619 78.9186 35.3136 72.9681 36.2576C72.3456 36.3583 72.0344 36.5597 72.0344 37.189C71.5738 36.9624 71.1506 36.7359 70.7148 36.5093ZM121.855 43.2429C121.879 43.2681 121.904 43.3185 121.917 43.3185C121.979 43.3059 122.029 43.2807 122.079 43.2555C122.054 43.2304 122.029 43.18 122.016 43.1926C121.967 43.1926 121.917 43.2178 121.855 43.2429Z" fill="#A5782E"/>
<path d="M8.8066 93.65C7.35009 90.1511 5.89358 86.6647 4.42463 83.1783C4.94747 82.8007 5.22135 82.6119 5.47032 82.4231C4.71095 80.1199 3.91422 77.8795 3.22954 75.614C1.99711 71.5109 1.28753 67.3071 1.11324 63.0278C1.1008 62.7887 0.988755 62.5622 0.914062 62.323C0.914062 60.1204 0.914062 57.9179 0.914062 55.7027C1.06345 54.4441 1.21283 53.198 1.34977 51.9394C2.03446 45.3443 3.6777 39.0008 6.30439 32.9217C8.07212 28.8312 10.288 25.0302 12.9521 21.4809C13.1014 21.2795 13.2757 21.1033 13.6865 20.625C14.1845 21.2417 14.6575 21.8207 15.1181 22.3871C14.7447 22.2738 14.3837 22.1605 13.9853 22.0472C11.2341 25.6972 9.10537 29.6493 7.37499 33.8279C4.56156 40.6874 2.96812 47.8615 2.71914 55.2873C2.6071 58.8618 2.83118 62.474 3.1175 66.0485C3.49096 70.7054 4.7234 75.1861 6.37909 79.5535C6.64051 80.2583 6.91439 80.5604 7.71111 80.2457C10.9478 78.9494 14.172 77.6278 17.4585 76.4951C19.1142 75.9287 19.6993 74.9847 19.9483 73.2604C20.6952 68.0246 25.6623 63.8837 30.8908 63.8963C33.9034 63.8963 36.3807 65.1046 38.3352 67.4078C38.7833 67.949 39.2066 68.012 39.829 67.7854C42.1196 66.9673 44.4226 66.1996 46.7256 65.4192C46.7879 66.0108 46.8501 66.6023 46.9124 67.1939C44.2981 68.0749 41.6714 68.9308 39.0821 69.8621C38.3601 70.1264 37.9866 69.988 37.5384 69.3839C36.0695 67.4456 34.1773 66.1115 31.7248 65.8723C25.6747 65.2934 20.6703 69.8999 20.5707 76.0923C20.5583 76.7342 20.3715 77.0614 19.774 77.3132C18.6163 77.804 17.5083 78.4081 16.3755 78.9619C15.0061 79.3773 13.5869 79.7045 12.2674 80.2457C10.5619 80.9506 9.10537 82.0078 8.53273 83.9461C8.39579 84.5376 8.25886 85.1292 8.13437 85.7207C7.93519 88.1247 8.7817 90.2643 9.8523 92.3285C9.51618 92.7564 9.16762 93.2095 8.8066 93.65Z" fill="#A5782E"/>
<path d="M58.7266 0.550988C58.7266 0.488057 58.7266 0.425126 58.739 0.349609C60.5565 0.349609 62.3741 0.349609 64.1916 0.349609C64.1916 0.437713 64.1916 0.525816 64.204 0.626505C63.2579 0.664263 62.2994 0.689436 61.3533 0.727195C60.4694 0.67685 59.598 0.613919 58.7266 0.550988Z" fill="#A5782E"/>
<path d="M45.6669 50.0024C45.2561 51.1855 44.5839 52.2428 44.0859 53.3504C42.9531 55.855 43.7996 58.2715 45.4428 60.2853C46.1897 61.2041 46.613 62.06 46.5757 63.2179C46.5632 63.6458 46.6628 64.0864 46.7001 64.5269C44.6087 65.2569 42.5173 65.9617 40.4384 66.7043C39.6666 66.9812 39.0815 66.9938 38.3719 66.3645C35.6705 63.9731 32.5832 62.79 28.8859 63.3815C23.2466 64.2877 18.9144 68.5796 18.2048 74.2434C18.1053 74.9986 17.8065 75.351 17.184 75.6027C14.159 76.8236 11.1339 78.0444 8.10887 79.2779C7.44909 79.5422 7.11297 79.3786 6.87644 78.7241C4.95933 73.4001 3.80159 67.8874 3.60241 62.2488C3.47792 58.7121 3.76424 55.1502 4.00077 51.6135C4.27464 47.6614 5.22075 43.8352 6.40339 40.0593C8.10887 34.5718 10.5488 29.4366 13.8851 24.6035C14.8686 25.4342 15.7898 26.2397 16.7359 27.0075C17.3085 27.4858 17.5451 28.0395 17.5326 28.8199C17.4828 31.4252 20.483 33.955 23.0474 32.9733C23.4707 32.8097 24.1803 33.0111 24.5911 33.3006C26.3464 34.5214 28.0145 35.8807 29.7698 37.1016C31.0147 37.97 31.6496 38.8511 31.5375 40.588C31.3134 44.2128 35.7328 46.7426 38.8823 45.0183C39.1935 44.8547 39.8035 44.8799 40.0774 45.0812C41.4965 46.1511 42.8784 47.2712 44.2228 48.4292C44.7581 48.8948 45.1814 49.4738 45.6669 50.0024ZM24.1056 52.6833C24.0433 51.991 24.0558 51.2862 23.9188 50.6191C23.4831 48.4543 22.1636 46.7426 20.7195 45.2448C18.5534 43.0045 15.8894 42.7905 13.5739 44.4897C11.2833 46.1636 10.0135 49.7129 10.4368 52.4693C10.5613 53.2622 10.5737 54.0803 10.7729 54.8481C10.9223 55.4145 11.1713 56.1319 11.607 56.4088C12.8892 57.2143 14.2088 58.0324 15.6404 58.4855C20.122 59.8826 24.479 57.1262 24.1056 52.6833ZM35.5958 55.6788C35.7452 54.6216 35.434 53.7405 34.4132 53.2371C33.4048 52.7462 32.384 52.7462 31.4504 53.451C29.9939 54.546 29.969 57.7178 31.413 58.8128C32.2222 59.4169 33.1559 59.4798 33.965 58.9386C35.0481 58.196 35.795 57.1765 35.5958 55.6788Z" fill="#FFD900"/>
<path d="M118.27 41.6193C117.834 41.5941 117.398 41.569 116.963 41.5438C115.108 39.744 111.41 40.2348 110.402 42.7017C109.805 44.1743 108.809 44.7155 107.526 45.1309C107.116 45.2567 106.692 45.3952 106.294 45.5588C104.962 46.1 103.642 46.6664 102.323 47.2076C100.045 45.3322 97.4554 45.3196 94.8038 46.0622C93.0609 46.5531 91.3554 47.1824 89.6251 47.7362C86.5378 48.7179 83.4131 48.6676 80.2636 48.1893C79.9275 48.1389 79.554 48.3403 79.2054 48.4158C79.3175 48.7179 79.4668 49.02 79.5415 49.3346C79.6411 49.7374 79.666 50.1527 79.7283 50.5681C79.5664 50.6184 79.4171 50.6562 79.2552 50.7065C79.1058 50.3289 78.8693 49.9639 78.8195 49.5738C78.446 46.2762 77.4999 43.1926 75.5081 40.5117C74.8608 39.6433 74.0392 38.9007 73.3047 38.0952C75.4832 37.7554 77.3879 36.8114 79.0062 35.3388C84.2721 30.5183 84.048 21.343 78.2095 16.4721C77.973 16.2833 77.7365 15.8554 77.7863 15.5911C78.4212 12.2935 79.1058 9.00852 79.7656 5.72353C79.9275 4.91801 80.3383 4.61594 81.1723 4.86767C82.3799 5.23266 83.6247 5.49697 84.8323 5.89973C94.0319 8.90783 102.037 13.9549 108.871 20.8144C111.498 23.4575 113.913 26.39 116.017 29.4736C118.083 32.4943 119.664 35.8674 121.394 39.1147C122.042 40.3229 121.917 40.411 120.71 40.7635C119.876 41.0026 119.079 41.3298 118.27 41.6193ZM98.1774 35.0745C99.2231 34.9738 100.269 34.9235 101.302 34.7473C104.34 34.2061 106.17 31.2986 105.497 28.2905C104.589 24.1623 101.526 22.3121 98.0031 20.9276C97.7168 20.8144 97.2811 20.9402 96.9574 21.0535C94.9781 21.7331 93.173 22.6897 91.8036 24.3637C90.0857 26.4781 89.513 29.2974 91.2061 31.7517C92.8991 34.1935 95.2893 35.1374 98.1774 35.0745ZM85.7659 42.0347C87.6084 42.1983 88.2681 40.8516 88.3304 39.4545C88.4051 37.8057 86.5502 36.0562 84.9568 36.0814C83.5003 36.1066 82.5044 37.1764 82.5044 38.7245C82.5044 40.6754 83.8488 42.0347 85.7659 42.0347Z" fill="#FFD900"/>
<path d="M63.084 34.937C60.9179 34.6098 58.9261 35.3146 56.9094 35.9313C56.5981 36.0194 56.2745 36.0824 55.9633 36.1453L55.901 36.0698C56.3492 35.3775 56.8845 34.7356 57.233 33.993C57.9302 32.5079 57.009 30.7081 55.4155 30.62C54.208 30.557 52.9631 30.7584 52.017 31.7275C51.046 32.7218 51.0709 33.993 51.9547 35.0755C52.8386 36.1705 53.9715 36.397 55.2537 36.2837L55.3159 36.3593C54.0337 37.0011 52.6768 37.5549 51.4692 38.3227C49.2907 39.7072 48.0956 41.872 47.2864 44.276C46.2407 43.4075 45.1826 42.5391 44.0996 41.6454C45.2822 39.4806 44.8963 37.5046 43.3526 35.9061C41.7716 34.2699 39.8172 33.5525 37.5141 34.5217C37.2652 34.6224 36.7548 34.4336 36.5307 34.207C34.5513 32.2562 32.5844 30.2927 30.6797 28.2789C30.3561 27.9391 30.3187 27.3224 30.1942 26.8189C29.9826 25.9253 29.9951 24.9184 29.5718 24.1507C28.551 22.3131 26.7708 21.9984 24.8537 22.2124C24.3682 22.0614 23.8827 21.8977 23.3972 21.7467C22.5631 20.9034 21.7291 20.0476 20.7207 19.0281C22.7374 17.4045 24.6919 15.7305 26.7584 14.2076C31.1777 10.9478 36.0203 8.46828 41.1492 6.60552C46.1287 4.79311 51.2701 3.61001 56.5484 3.24501C59.2373 3.05622 61.9636 3.09398 64.665 3.24501C67.2543 3.38346 69.8188 3.83656 72.3957 4.06311C73.3791 4.15122 73.4414 4.70501 73.292 5.40984C72.5824 8.58155 71.8728 11.7407 71.0886 14.8872C70.989 15.2648 70.5284 15.7053 70.13 15.8312C67.9266 16.5738 65.9845 17.7065 64.3662 19.4183C60.5942 23.471 59.5112 29.9906 63.084 34.937ZM47.747 11.6652C45.1328 11.4134 42.9667 12.6217 41.3484 14.1195C38.9706 16.3095 38.8213 20.035 41.1118 22.1243C43.0788 23.9241 45.4191 24.9939 48.0209 25.2457C51.7805 25.6107 53.9839 23.9619 54.7433 20.5258C55.3284 17.8324 53.5357 13.3769 51.2078 11.9043C50.7721 11.6274 50.1995 11.489 49.6766 11.4638C49.0417 11.4512 48.3944 11.6022 47.747 11.6652Z" fill="#FFD900"/>
<path d="M86.0518 58.095C87.471 58.9508 88.9275 59.7438 90.2969 60.6625C91.5666 61.5058 92.687 62.5756 93.9693 63.3937C95.9362 64.665 98.1272 64.7908 100.356 64.3125C100.866 64.1993 101.401 63.9601 101.812 63.6329C102.049 63.4441 102.248 62.8777 102.136 62.6512C101.501 61.4177 102.061 60.5619 102.858 59.7186C103.63 58.9005 103.605 58.3215 102.584 57.881C101.638 57.4657 100.604 57.2643 99.5837 57.0881C98.8741 56.9622 98.1396 57.0377 97.4176 57.0251C98.6874 55.7288 98.9488 54.1681 98.6625 52.4438C99.1853 52.4941 99.7206 52.5445 100.243 52.5948C100.941 52.6703 101.625 52.7584 102.322 52.8465C102.41 52.771 102.484 52.6955 102.571 52.62H102.559C103.02 52.557 103.493 52.5445 103.941 52.4186C105.472 51.9781 106.991 51.4872 108.522 51.0719C108.821 50.9838 109.281 50.9964 109.493 51.1726C112.082 53.3374 115.543 51.8145 116.564 48.9952C116.688 48.6553 116.975 48.2652 117.286 48.1141C118.307 47.6484 119.377 47.3086 120.423 46.8807C121.008 46.6415 121.269 46.78 121.357 47.4471C121.767 50.2915 122.452 53.1108 122.602 55.9679C122.813 60.0081 122.9 64.0986 122.564 68.1261C122.153 73.0348 121.021 77.8679 119.141 82.4366C117.784 85.7342 116.103 88.8933 114.572 92.1154C110.115 87.899 104.862 85.1301 99.0608 83.3554C98.1147 80.9389 96.2972 79.2901 94.156 78.0692C90.8197 76.1687 87.3341 76.1687 83.8484 77.6916C83.3131 77.9308 83.0019 77.9056 82.5288 77.5154C80.8856 76.1687 79.1676 74.8975 77.4746 73.6011C77.7111 71.4741 77.9601 69.3344 78.1966 67.2074C81.2839 65.8355 82.9272 63.5322 82.7653 60.0332C82.7529 59.7563 83.089 59.341 83.3629 59.2025C84.2219 58.7494 85.1431 58.4348 86.0518 58.095ZM101.439 71.0587C101.463 73.9661 102.584 75.6653 104.613 76.8106C106.704 77.9811 108.92 78.2454 111.198 77.5658C112.095 77.3015 113.041 76.8987 113.701 76.2694C114.298 75.703 114.547 74.7591 114.908 73.9661C115.941 71.7258 116.215 69.4351 115.443 67.0437C114.286 63.4693 111.049 62.0722 107.675 63.6958C105.771 64.6146 104.24 66.0368 102.932 67.6479C102.036 68.7555 101.339 70.0518 101.439 71.0587ZM92.7493 66.7291C91.0065 66.7291 89.911 67.8367 89.911 69.5987C89.911 71.3608 91.1309 72.8586 92.5875 72.9089C94.0813 72.9467 95.3511 71.2224 95.3635 69.1708C95.376 67.7108 94.3178 66.7291 92.7493 66.7291Z" fill="#FFD900"/>
<path d="M45.6684 50.0021C45.1953 49.486 44.7596 48.9071 44.2243 48.454C42.8674 47.2961 41.4981 46.1759 40.0789 45.1061C39.805 44.9047 39.195 44.8669 38.8838 45.0431C35.7343 46.78 31.3149 44.2376 31.539 40.6128C31.6511 38.8759 31.0037 37.9949 29.7713 37.1264C28.016 35.9056 26.3479 34.5463 24.5926 33.3254C24.1818 33.0359 23.4722 32.8471 23.0489 32.9982C20.4845 33.9799 17.4843 31.4501 17.5341 28.8447C17.5466 28.0644 17.31 27.5106 16.7374 27.0323C15.7913 26.252 14.8701 25.459 13.8866 24.6283C10.5503 29.474 8.12282 34.5966 6.40488 40.0842C5.2347 43.86 4.27614 47.6862 4.00227 51.6383C3.75329 55.175 3.46697 58.7369 3.60391 62.2736C3.81554 67.9248 4.96082 73.425 6.87794 78.7489C7.11447 79.4034 7.46303 79.567 8.11037 79.3027C11.123 78.0567 14.1605 76.8484 17.1855 75.6275C17.7955 75.3758 18.1068 75.036 18.2063 74.2682C18.9159 68.6045 23.2481 64.3251 28.8874 63.4064C32.5847 62.8148 35.6596 63.9979 38.3734 66.3893C39.083 67.0186 39.6681 67.006 40.4399 66.7291C42.5189 65.9865 44.6227 65.2691 46.7016 64.5517C46.7141 64.8538 46.7265 65.1433 46.7514 65.4453C44.4484 66.2257 42.1454 67.006 39.8548 67.8115C39.2324 68.0381 38.8091 67.9626 38.361 67.4339C36.4189 65.1307 33.9292 63.9224 30.9166 63.9224C25.6881 63.9098 20.721 68.0507 19.9741 73.2865C19.7251 75.0108 19.1525 75.9422 17.4843 76.5212C14.1978 77.6539 10.9611 78.9755 7.73691 80.2718C6.94018 80.5865 6.66631 80.2844 6.40488 79.5796C4.74919 75.2122 3.51676 70.7315 3.1433 66.0746C2.85698 62.5002 2.62045 58.9005 2.74494 55.3134C2.98146 47.8876 4.58736 40.7261 7.42569 33.8666C9.15607 29.688 11.2724 25.7359 14.036 22.0859C14.4219 22.1992 14.7954 22.3125 15.1688 22.4258C15.6543 22.8915 16.1523 23.3571 16.6378 23.8102C17.5092 25.4087 18.3682 27.0197 19.2769 28.593C19.5882 29.1342 20.0363 29.5999 20.4347 30.1033C20.5094 30.1788 20.5716 30.2544 20.6463 30.3425C21.4306 31.299 22.0032 31.3871 23.2979 30.934C23.7336 30.783 24.4183 30.7201 24.7544 30.9592C27.6176 33.0107 30.4435 35.1252 33.2445 37.2649C33.4437 37.4159 33.4686 37.9068 33.4437 38.2214C33.3814 39.0018 33.008 39.8324 33.1823 40.5373C33.9665 43.7216 37.2655 44.59 39.7926 42.1609C41.8466 43.8978 43.9131 45.6473 45.9796 47.3967C45.9174 47.9505 45.8551 48.4917 45.7929 49.0455C45.7431 49.335 45.7057 49.6623 45.6684 50.0021Z" fill="#F5CA2E"/>
<path d="M118.268 41.6197C119.077 41.3302 119.874 41.0029 120.696 40.7512C121.903 40.3862 122.015 40.3107 121.38 39.1024C119.65 35.8552 118.069 32.4821 116.003 29.4614C113.899 26.3778 111.484 23.4452 108.857 20.8021C102.023 13.9426 94.018 8.90817 84.8183 5.88749C83.6108 5.49732 82.3784 5.23301 81.1584 4.85542C80.3368 4.6037 79.926 4.90577 79.7517 5.71129C79.0795 8.99628 78.3948 12.2813 77.7723 15.5788C77.7225 15.8432 77.9591 16.2711 78.1956 16.4599C84.0341 21.3181 84.2582 30.4935 78.9923 35.3266C77.374 36.8117 75.4693 37.7431 73.2908 38.0829C72.8551 37.7809 72.4318 37.4914 71.9961 37.1893C71.9961 36.56 72.3073 36.3586 72.9298 36.2579C78.8803 35.314 81.9178 30.6193 81.7808 25.3709C81.6937 21.8971 80.2994 18.889 77.4487 16.762C76.7764 16.2585 76.5897 15.818 76.7764 14.9495C77.5856 11.3121 78.2578 7.64956 79.0297 3.99956C79.3658 2.41371 79.428 2.42629 81.009 2.79129C90.2834 4.91836 98.4498 9.26059 105.757 15.3397C112.654 21.0916 118.181 27.9385 122.078 36.0943C122.663 37.3152 123.111 38.599 123.696 39.8198C124.094 40.6505 123.771 41.0155 123.049 41.305C121.493 41.9469 119.899 41.9847 118.268 41.6197Z" fill="#F5CA2E"/>
<path d="M63.0825 34.9369C59.5097 29.9905 60.5928 23.4709 64.3772 19.4433C65.9955 17.719 67.9251 16.5988 70.141 15.8562C70.5269 15.7304 71 15.2899 71.0996 14.9123C71.8838 11.7657 72.5934 8.59401 73.303 5.43487C73.4648 4.73005 73.4026 4.17626 72.4067 4.08815C69.8298 3.8616 67.2529 3.4085 64.676 3.27005C61.9746 3.11902 59.2607 3.08126 56.5594 3.27005C51.2811 3.63505 46.1397 4.81815 41.1602 6.63056C36.0188 8.49332 31.1763 10.9728 26.7694 14.2326C24.7029 15.7555 22.7484 17.4295 20.7317 19.0531C21.7401 20.0726 22.5741 20.9285 23.4082 21.7717C22.3998 21.2809 21.3168 20.9159 20.408 20.2866C18.8644 19.2293 18.9017 18.8266 20.2213 17.5554C24.4664 13.4774 29.2965 10.268 34.4876 7.56194C41.7951 3.76091 49.6876 2.14988 57.7544 1.2185C58.9495 1.08006 60.1446 0.891263 61.3521 0.727643C62.2983 0.689885 63.2568 0.664712 64.2029 0.626953C64.6137 0.664712 65.0245 0.689885 65.4354 0.727643C65.8462 0.777988 66.257 0.815746 66.6678 0.866091C66.9915 0.878677 67.3027 0.891263 67.6263 0.903849C68.7716 1.30661 69.9418 1.63385 71.0498 2.12471C73.4275 3.18195 74.6599 5.01953 74.7097 7.71297C74.7471 10.3561 73.8881 12.7349 72.8548 15.1011C72.5187 15.8814 72.0457 16.2842 71.2116 16.4604C68.9833 16.9386 67.091 18.0714 65.5847 19.8083C63.344 22.401 62.1987 25.384 62.6468 28.8955C62.9705 31.4253 64.1905 33.4265 65.9582 35.1634C64.9872 35.1005 64.0411 35.0124 63.0825 34.9369Z" fill="#F5CA2E"/>
<path d="M61.3399 0.740659C60.1448 0.90428 58.9497 1.09307 57.7422 1.23152C49.6754 2.1629 41.7828 3.77393 34.4754 7.57495C29.2842 10.2684 24.4541 13.4905 20.2091 17.5684C18.8895 18.8396 18.8646 19.2423 20.3958 20.2996C21.3046 20.9289 22.3876 21.2939 23.396 21.7847C23.8815 21.9358 24.367 22.0994 24.8649 22.2504C25.8608 22.691 26.8816 23.0685 27.8277 23.5846C29.1722 24.3272 29.5208 25.2208 29.0602 26.6934C28.8734 27.2849 29.0104 27.6247 29.4212 28.0275C30.9026 29.4749 32.3715 30.9601 33.8156 32.4452C34.9609 33.6158 36.0688 34.8114 37.1519 35.9568C39.2557 34.522 41.0608 34.5975 42.5547 36.0197C44.0112 37.4042 44.061 38.9523 42.6543 41.2304C44.0859 42.4764 45.5299 43.7476 46.974 45.0062C46.7499 45.8495 47.1358 46.9571 45.9532 47.3599C43.8867 45.6104 41.8077 43.8609 39.7661 42.124C37.239 44.5531 33.9401 43.6847 33.1558 40.5004C32.9815 39.7956 33.355 38.9649 33.4172 38.1845C33.4421 37.8573 33.4172 37.379 33.2181 37.228C30.4171 35.0883 27.5912 32.9739 24.728 30.9223C24.3919 30.6832 23.7196 30.7461 23.2715 30.8971C21.9768 31.3502 21.4042 31.2621 20.6199 30.3056C21.8772 30.8971 22.8607 30.3685 23.757 29.4371C27.6037 32.3068 31.3756 35.1261 35.0356 37.8447C34.6497 38.839 34.1019 39.7075 34.0272 40.6263C33.9774 41.18 34.5376 42.0107 35.048 42.3128C35.6954 42.6904 36.6913 42.9673 37.3386 42.7407C38.0233 42.5016 38.4715 41.608 39.069 40.9535C39.43 41.2304 39.8035 41.5073 40.1645 41.7842C42.343 40.1857 42.6792 39.2166 41.5712 37.8195C40.3512 36.284 38.9943 36.3973 37.0523 38.2601C36.8905 38.1342 36.7286 38.0083 36.5792 37.8573C33.6164 34.9247 30.6785 31.9921 27.7032 29.0847C27.1431 28.5435 26.919 28.0778 27.392 27.3856C27.8153 26.7563 27.9647 26.064 27.3796 25.4725C26.7447 24.8054 25.8733 24.3146 25.0392 24.818C23.8566 25.5103 23.1968 24.8558 22.425 24.1761C20.6074 22.6028 18.7775 21.0548 16.8105 19.3682C28.4751 7.72599 42.3804 1.39514 58.7381 0.564453C59.5971 0.614798 60.4685 0.677729 61.3399 0.740659Z" fill="#A5782E"/>
<path d="M114.56 92.1038C116.091 88.8817 117.771 85.7226 119.128 82.425C121.008 77.8562 122.141 73.0231 122.552 68.1145C122.888 64.087 122.801 60.009 122.589 55.9563C122.44 53.0992 121.755 50.2799 121.344 47.4354C121.245 46.7684 120.996 46.6299 120.411 46.8691C119.365 47.2844 118.294 47.6368 117.273 48.1025C116.962 48.241 116.676 48.6311 116.551 48.9835C115.531 51.8028 112.07 53.3384 109.481 51.161C109.269 50.9847 108.808 50.9722 108.51 51.0603C106.978 51.4882 105.46 51.9791 103.928 52.407C103.48 52.5328 103.007 52.5454 102.547 52.6084C102.397 52.1049 102.235 51.6015 102.086 51.098C104.538 50.3303 106.991 49.5625 109.456 48.8325C109.692 48.757 110.078 48.8577 110.277 49.0213C112.07 50.5191 112.954 50.5442 114.746 49.0087C116.041 47.9011 117.236 46.6425 118.593 45.623C119.415 45.0063 120.435 44.6413 121.406 44.2763C121.992 44.0498 122.427 44.3141 122.564 45.0189C123.075 47.7879 123.747 50.5316 124.095 53.3132C124.432 55.9563 124.568 58.6497 124.544 61.3054C124.494 68.3159 123.336 75.1502 120.772 81.695C119.228 85.6345 117.473 89.4985 115.817 93.4002C115.406 92.9597 114.983 92.5317 114.56 92.1038Z" fill="#F5CA2E"/>
<path d="M8.16016 85.7095C8.29709 85.1179 8.43403 84.5264 8.55852 83.9348C8.90709 83.8593 9.2681 83.7964 9.60422 83.6957C12.3678 82.8398 15.119 81.9588 17.8951 81.1281C18.281 81.0148 18.8412 80.9016 19.1027 81.1029C20.0737 81.8455 20.97 82.7014 21.8787 83.5195C21.0073 84.0104 20.1359 84.5264 19.252 84.9921C16.0153 86.7164 13.1272 88.9064 10.5503 91.5369C9.7536 89.586 8.95688 87.6478 8.16016 85.7095Z" fill="#FFD900"/>
<path d="M65.9471 35.1756C64.1793 33.4513 62.9594 31.4375 62.6357 28.9077C62.1875 25.3961 63.3204 22.4132 65.5736 19.8205C67.0675 18.0836 68.9721 16.9508 71.2005 16.4725C72.0345 16.2963 72.5076 15.881 72.8437 15.1132C73.877 12.747 74.7359 10.3682 74.6986 7.72514C74.6612 5.0317 73.4288 3.19411 71.0386 2.13688C69.9307 1.64601 68.7605 1.31877 67.6152 0.916016C69.7938 1.2055 71.9847 1.41946 74.1384 1.80963C76.3045 2.21239 76.4041 2.31308 75.9684 4.49049C75.0969 8.78238 74.1135 13.0491 73.0927 17.3158C73.0055 17.6808 72.3831 18.1213 71.9474 18.1843C66.2956 19.0401 62.312 24.8549 63.7934 30.3928C64.142 31.7144 65.1006 32.8723 65.7977 34.0932C66.0218 34.4959 66.3454 34.8358 66.6193 35.2134C66.3952 35.2008 66.1712 35.1882 65.9471 35.1756Z" fill="#A5782E"/>
<path d="M47.348 71.1602C47.4725 73.476 47.8335 75.8045 47.1613 78.0951C44.3852 78.4098 41.634 78.737 38.8828 79.0517C39.2687 77.6924 39.7542 76.3583 40.0157 74.9738C40.1899 74.0424 40.6256 73.6522 41.4597 73.3753C43.4515 72.6831 45.3935 71.9027 47.348 71.1602Z" fill="#FFD900"/>
<path d="M77.0508 76.4328C77.1379 75.6902 77.2251 74.9477 77.3122 74.2051C79.0426 75.577 80.7979 76.9237 82.5034 78.3208C83.076 78.7864 83.5366 78.9627 84.2337 78.5347C85.989 77.4397 87.9559 77.0747 89.9726 77.3265C93.645 77.7796 96.334 79.743 98.0519 83.0658C97.168 82.8518 96.2717 82.6378 95.3879 82.4239C92.5993 78.9375 87.6945 78.0942 84.0595 80.4856C83.7856 80.6744 83.5864 80.989 83.3623 81.2407C83.1507 81.2282 82.9391 81.2282 82.7274 81.2156C82.5656 80.989 82.4411 80.7121 82.2295 80.5359C80.5116 79.1514 78.7812 77.8047 77.0508 76.4328Z" fill="#A5782E"/>
<path d="M21.8905 83.507C20.9693 82.6889 20.0855 81.8331 19.1144 81.0905C18.853 80.9017 18.2928 81.0024 17.9069 81.1157C15.1433 81.9463 12.3796 82.8274 9.61601 83.6832C9.26745 83.7839 8.91888 83.8469 8.57031 83.9224C9.13051 81.9967 10.5995 80.9269 12.305 80.222C13.6245 79.6808 15.0437 79.3536 16.4131 78.9382C17.16 78.825 17.9069 78.7117 18.6538 78.5984C19.2763 78.5103 19.7244 78.7117 20.2722 79.1522C21.7162 80.3227 23.2972 81.317 24.8284 82.3743C23.8325 82.7644 22.8615 83.142 21.8905 83.507Z" fill="#F5CA2F"/>
<path d="M46.9743 44.9929C45.5302 43.7343 44.0862 42.4631 42.6546 41.2171C44.0613 38.939 44.0239 37.3909 42.555 36.0064C41.0487 34.5842 39.2561 34.5087 37.1522 35.9435C36.0692 34.7981 34.9488 33.5899 33.8159 32.4319C32.3594 30.9468 30.9029 29.4616 29.4215 28.0142C29.0107 27.6114 28.8737 27.2716 29.0605 26.68C29.5211 25.2075 29.1725 24.3138 27.828 23.5713C26.8819 23.0552 25.8611 22.6776 24.8652 22.2371C26.7823 22.0232 28.5625 22.3252 29.5833 24.1754C30.0066 24.9432 29.9941 25.9501 30.2058 26.8437C30.3303 27.3471 30.3676 27.9638 30.6913 28.3037C32.5959 30.3175 34.5628 32.2809 36.5422 34.2318C36.7663 34.4583 37.2767 34.6471 37.5257 34.5464C39.8162 33.5773 41.7832 34.2947 43.3642 35.9309C44.9078 37.5293 45.2937 39.5054 44.1111 41.6702C45.1941 42.5638 46.2398 43.4323 47.298 44.3007C47.1735 44.5273 47.0739 44.7664 46.9743 44.9929Z" fill="#F5CA2F"/>
<path d="M47.3486 71.1603C45.3941 71.9029 43.4521 72.6958 41.4728 73.3629C40.6387 73.6523 40.203 74.0299 40.0287 74.9613C39.7673 76.3458 39.2818 77.6799 38.8959 79.0392C38.2485 79.1273 37.5887 79.2154 36.9414 79.3035C38.4602 77.4534 39.1075 75.2885 39.344 72.9349C39.3814 72.6077 39.7175 72.142 40.0163 72.0287C42.3815 71.0974 44.7717 70.2415 47.1619 69.373C47.2117 69.9646 47.2864 70.5561 47.3486 71.1603Z" fill="#F5CA2E"/>
<path d="M47.1489 69.3595C44.7587 70.2406 42.3685 71.0964 40.0033 72.0152C39.6921 72.1285 39.3559 72.5942 39.331 72.9214C39.0945 75.2751 38.4472 77.4399 36.9284 79.2901C36.418 79.3782 35.8952 79.4537 35.3848 79.5418C36.6794 77.7797 37.6131 75.8666 37.6629 73.6137C37.6753 73.148 37.6629 72.6823 37.6629 72.053C40.7626 70.8825 43.9495 69.6742 47.124 68.4785C47.1364 68.7806 47.1364 69.0701 47.1489 69.3595Z" fill="#A5782E"/>
<path d="M98.0639 83.0533C96.346 79.7306 93.6695 77.7797 89.9847 77.314C87.9679 77.0623 86.001 77.4147 84.2458 78.5223C83.5486 78.9628 83.088 78.774 82.5154 78.3084C80.8099 76.9113 79.0546 75.5646 77.3242 74.1927C77.374 73.9787 77.4238 73.7647 77.4736 73.5508C79.1666 74.8472 80.8846 76.1058 82.5278 77.4651C83.0009 77.8552 83.3121 77.8804 83.8474 77.6413C87.3331 76.131 90.8187 76.1184 94.155 78.0189C96.3086 79.2523 98.1262 80.8885 99.0598 83.3051C98.7237 83.2421 98.3876 83.154 98.0639 83.0533Z" fill="#F5CA2F"/>
<path d="M86.052 58.0952C85.1432 58.4476 84.222 58.7497 83.3381 59.1651C83.0643 59.2909 82.7281 59.7188 82.7406 59.9957C82.9024 63.5073 81.2716 65.798 78.1719 67.1699C78.2466 66.4902 78.3213 65.8231 78.3835 65.1435C78.757 64.9169 79.1553 64.7281 79.5039 64.4764C81.3837 63.1045 82.1928 60.7006 81.4459 58.8001C81.4584 58.4476 81.4584 58.0952 81.4708 57.7428C81.9937 57.617 82.5041 57.4911 83.0269 57.3652C84.0353 57.6044 85.0436 57.8561 86.052 58.0952Z" fill="#F5CA2E"/>
<path d="M102.309 47.1957C103.628 46.6419 104.96 46.0881 106.28 45.5469C106.678 45.3833 107.101 45.2574 107.512 45.119C108.807 44.7036 109.79 44.1624 110.388 42.6898C111.396 40.2355 115.094 39.7321 116.948 41.5319C116.201 41.4816 115.442 41.3935 114.695 41.3809C112.803 41.3683 112.019 42.0102 111.508 43.8352C111.409 44.1876 111.122 44.6533 110.811 44.7666C108.085 45.8112 105.321 46.7804 102.57 47.7747C102.483 47.5859 102.396 47.3971 102.309 47.1957Z" fill="#F5CA2F"/>
<path d="M98.663 52.4316C98.9493 54.1559 98.6879 55.7292 97.4181 57.013C95.7624 57.4661 94.2063 57.0885 92.7 56.3837C91.9531 56.0313 91.2186 55.6663 90.4219 55.2761C91.119 55.1754 91.8037 55.0747 92.4884 54.9866C92.8245 55.7544 93.3473 56.1949 94.2437 56.2075C96.2728 56.2201 97.2314 55.1377 97.082 52.8973C97.6048 52.7337 98.1277 52.5827 98.663 52.4316Z" fill="#A5782E"/>
<path d="M81.4577 58.8008C82.217 60.7013 81.3954 63.1053 79.5157 64.4771C79.1671 64.7289 78.7687 64.9302 78.3953 65.1442C78.2085 63.7471 79.2418 62.9542 79.8767 61.9347C80.4991 60.953 80.9348 59.858 81.4577 58.8008Z" fill="#A5782E"/>
<path d="M80.1252 81.2036C78.9177 81.2036 77.7102 81.2036 76.291 81.2036C76.4653 80.1464 76.652 79.064 76.8263 77.9941C77.9343 79.064 79.0298 80.1338 80.1252 81.2036Z" fill="#F5CA2E"/>
<path d="M8.16007 85.709C8.95679 87.6473 9.75351 89.5981 10.5627 91.5364C10.3386 91.8007 10.1145 92.0524 9.878 92.3167C8.80741 90.24 7.96089 88.1129 8.16007 85.709Z" fill="#F5CA2F"/>
<path d="M80.1251 81.2025C79.0296 80.1327 77.9217 79.0628 76.8262 77.993C76.8386 77.7665 76.8635 77.5273 76.876 77.3008C78.2453 78.5972 79.6023 79.8935 80.9716 81.2025C80.6977 81.1899 80.4114 81.2025 80.1251 81.2025Z" fill="#A5782E"/>
<path d="M81.4082 57.038C81.9933 56.8869 82.5784 56.7359 83.151 56.5723C83.1137 56.8366 83.0639 57.1009 83.0265 57.3652C82.5037 57.4911 81.9933 57.6169 81.4705 57.7302C81.458 57.5036 81.4331 57.2771 81.4082 57.038Z" fill="#A5782E"/>
<path d="M55.9505 36.1575C55.7265 36.2331 55.5148 36.3086 55.2908 36.3841L55.2285 36.3086C55.4401 36.2331 55.6642 36.1575 55.8759 36.082L55.9505 36.1575Z" fill="#FFD900"/>
<path d="M102.558 52.6074C102.47 52.6829 102.396 52.7585 102.309 52.834C102.396 52.7585 102.483 52.6829 102.558 52.6074Z" fill="#F5CA2E"/>
<path d="M66.6445 0.878683C66.2337 0.828338 65.8229 0.790579 65.4121 0.740234C65.8229 0.777993 66.2337 0.828338 66.6445 0.878683Z" fill="#A5782E"/>
<path d="M20.3965 30.0665C20.0106 29.5631 19.5624 29.0974 19.2388 28.5562C18.33 26.9829 17.471 25.3719 16.5996 23.7734C17.7822 24.7048 18.9773 25.6236 20.1475 26.5676C20.272 26.6683 20.2596 26.9577 20.272 27.1591C20.3218 28.1408 20.3591 29.0974 20.3965 30.0665Z" fill="#A5782E"/>
<path d="M24.1057 52.6833C24.4792 57.1262 20.1096 59.8826 15.6281 58.4604C14.2089 58.0073 12.8769 57.1892 11.5947 56.3836C11.159 56.1068 10.91 55.3893 10.7606 54.823C10.5614 54.0552 10.549 53.2371 10.4245 52.4442C10.0012 49.7004 11.271 46.1385 13.5616 44.4645C15.877 42.778 18.5411 42.9794 20.7072 45.2197C22.1512 46.73 23.4708 48.4292 23.9065 50.594C24.0559 51.2862 24.0435 51.9911 24.1057 52.6833ZM23.4086 51.4121C23.2965 49.499 21.9272 47.523 20.0225 45.8868C19.288 45.2575 18.3793 44.8044 17.4954 44.4268C15.1052 43.4199 13.5989 44.9428 13.0014 46.579C12.1051 49.0585 12.4163 51.6387 12.5906 54.1811C12.6155 54.5209 12.9391 54.9614 13.2379 55.1376C15.0928 56.2704 17.0099 57.1262 19.288 56.5347C21.9894 55.8299 23.4086 54.3699 23.4086 51.4121Z" fill="#F5CA2E"/>
<path d="M35.5964 55.679C35.7956 57.1767 35.0487 58.2088 33.9532 58.9388C33.144 59.48 32.2104 59.4297 31.4012 58.8129C29.9571 57.7179 29.982 54.5336 31.4385 53.4512C32.3722 52.759 33.393 52.7464 34.4014 53.2373C35.4346 53.7407 35.7458 54.6217 35.5964 55.679ZM31.924 55.6538C31.8369 56.5097 32.1855 57.1012 33.032 57.2397C33.8038 57.3781 34.6628 56.2957 34.7375 55.1881C34.7997 54.2316 34.2769 53.5897 33.393 53.5519C32.5963 53.5393 31.9863 54.3952 31.924 55.6538Z" fill="#F5CA2E"/>
<path d="M98.1761 35.0741C95.288 35.137 92.8978 34.2057 91.2048 31.7514C89.5118 29.2971 90.0844 26.4778 91.8023 24.3633C93.1593 22.6893 94.9768 21.7328 96.9561 21.0531C97.2923 20.9398 97.7155 20.814 98.0018 20.9272C101.512 22.3117 104.575 24.1619 105.496 28.2902C106.156 31.2983 104.326 34.2057 101.301 34.7469C100.268 34.9231 99.2094 34.9608 98.1761 35.0741ZM97.8027 33.312C97.8276 33.2114 97.8649 33.1107 97.8898 33.01C99.9065 33.0603 101.761 32.582 103.417 31.3864C105.172 30.1152 105.496 28.1769 104.226 26.4148C102.645 24.2374 100.355 23.0291 98.0641 21.846C97.7155 21.6698 97.0931 21.7453 96.7196 21.9467C93.707 23.4948 92.2256 24.8793 92.0887 28.7055C92.0389 30.1781 92.6364 31.4367 93.956 32.0534C95.1635 32.6324 96.5204 32.9093 97.8027 33.312Z" fill="#F5CA2E"/>
<path d="M85.7655 42.0356C83.8484 42.0356 82.5039 40.6763 82.5039 38.7254C82.5039 37.1773 83.5123 36.1075 84.9563 36.0823C86.5498 36.0571 88.4046 37.8066 88.3299 39.4554C88.2677 40.8525 87.5954 42.1992 85.7655 42.0356ZM84.2343 38.5366C84.2343 39.3169 85.143 40.2987 86.1265 40.198C86.8361 40.1225 87.334 39.7323 87.3091 38.9016C87.2842 37.9451 86.1887 36.7116 85.3173 36.7745C84.421 36.8249 84.2218 37.4668 84.2343 38.5366Z" fill="#F5CA2E"/>
<path d="M47.7471 11.6655C48.3944 11.5899 49.0418 11.4389 49.6767 11.4767C50.1995 11.5018 50.7722 11.6403 51.2079 11.9172C53.5358 13.3772 55.3284 17.8453 54.7433 20.5387C53.9964 23.9747 51.793 25.6109 48.021 25.2585C45.4192 25.0068 43.0788 23.937 41.1119 22.1372C38.8213 20.0479 38.9707 16.3349 41.3484 14.1323C42.9668 12.622 45.1329 11.4137 47.7471 11.6655ZM42.307 19.8087L42.3319 19.8339C42.4688 20.1234 42.5435 20.4632 42.7427 20.6897C45.3694 23.8741 49.6891 24.2894 52.7889 21.6085C53.237 21.2184 53.5856 20.5135 53.6727 19.922C53.8968 18.2732 53.7848 16.6118 53.0005 15.1015C52.4403 14.0317 51.8677 12.7101 50.5979 12.5717C48.1579 12.3199 45.6682 12.1689 43.39 13.5156C41.1368 14.8372 40.5766 18.0215 42.307 19.8087Z" fill="#F5CA2F"/>
<path d="M55.8873 36.0825C55.6757 36.158 55.4516 36.2335 55.24 36.3091C53.9578 36.4223 52.8249 36.1958 51.9411 35.1008C51.0697 34.0184 51.0323 32.7598 52.0033 31.7529C52.9494 30.7837 54.1943 30.5823 55.4018 30.6453C56.9953 30.7334 57.9165 32.5206 57.2193 34.0184C56.8832 34.7484 56.3355 35.3903 55.8873 36.0825ZM54.63 34.3204C55.5512 34.3079 56.6716 33.2129 56.46 32.3822C56.3479 31.9417 55.7628 31.3501 55.352 31.3123C54.0449 31.2117 52.8996 32.0172 52.8872 32.8227C52.8747 33.5653 53.7835 34.333 54.63 34.3204Z" fill="#F5CA2E"/>
<path d="M101.437 71.0591C101.338 70.0396 102.035 68.7559 102.931 67.6609C104.238 66.0498 105.769 64.6276 107.674 63.7088C111.048 62.0726 114.284 63.4697 115.442 67.0567C116.214 69.4481 115.953 71.7388 114.907 73.9791C114.533 74.772 114.297 75.716 113.699 76.2824C113.04 76.9117 112.093 77.3145 111.197 77.5788C108.919 78.2584 106.703 77.9941 104.612 76.8236C102.583 75.6783 101.462 73.9791 101.437 71.0591ZM103.429 71.4745C103.267 72.6953 103.703 73.9036 104.923 74.5833C106.018 75.1874 107.226 75.7915 108.433 75.9174C111.284 76.232 112.367 75.9426 113.513 73.4883C114.011 72.431 114.533 71.3738 114.857 70.2662C115.803 67.0315 114.098 64.3255 111.073 64.099C106.74 63.7843 103.404 66.9183 103.429 71.4745Z" fill="#F5CA2E"/>
<path d="M92.7485 66.7285C94.3046 66.7285 95.3627 67.7102 95.3627 69.1576C95.3627 71.2092 94.0805 72.9461 92.5866 72.8957C91.1177 72.858 89.9102 71.3476 89.9102 69.5856C89.9226 67.8361 91.0056 66.7285 92.7485 66.7285ZM94.3046 68.6416C94.2921 67.7983 93.7942 67.232 93.1095 67.2571C92.2879 67.2949 91.4414 68.1885 91.4538 68.994C91.4663 69.8625 92.263 70.882 92.9352 70.9197C93.7444 70.9449 94.317 69.9883 94.3046 68.6416Z" fill="#F5CA2E"/>
<path d="M23.4095 51.4118C23.4095 54.3696 21.9903 55.8296 19.2889 56.5344C17.0108 57.1386 15.0937 56.2701 13.2388 55.1373C12.9276 54.9486 12.6164 54.5206 12.5915 54.1808C12.4172 51.6384 12.106 49.0582 13.0023 46.5787C13.5874 44.9425 15.1061 43.4196 17.4963 44.4265C18.3926 44.8041 19.3014 45.2572 20.0234 45.8865C21.9281 47.5227 23.3099 49.5113 23.4095 51.4118ZM17.8947 56.2198C20.6957 56.182 22.0899 54.3193 21.5048 51.5125C21.1189 49.6875 20.0732 48.3156 18.8532 47.0696C17.3718 45.5467 15.878 45.6474 14.4464 47.2081C11.6454 50.2791 12.6911 54.9863 16.4133 56.0184C16.8863 56.1568 17.3967 56.1568 17.8947 56.2198Z" fill="#A5782E"/>
<path d="M31.9122 55.6523C31.9869 54.3937 32.5969 53.5379 33.3936 53.563C34.2774 53.5882 34.8003 54.2301 34.7381 55.1992C34.6634 56.3068 33.8044 57.3892 33.0326 57.2508C32.186 57.0998 31.8375 56.5082 31.9122 55.6523Z" fill="#A5782E"/>
<path d="M97.8028 33.3133C96.5081 32.9106 95.1637 32.6337 93.9561 32.0547C92.6366 31.438 92.039 30.1794 92.0888 28.7068C92.2257 24.8932 93.7072 23.4961 96.7198 21.948C97.0932 21.7592 97.7157 21.6711 98.0642 21.8473C100.355 23.0304 102.658 24.2387 104.226 26.4161C105.496 28.1782 105.185 30.1164 103.417 31.3876C101.762 32.5833 99.9067 33.0616 97.8899 33.0113C97.865 33.1119 97.8402 33.2126 97.8028 33.3133ZM103.031 29.5123C103.031 27.574 101.513 25.6106 99.4212 24.4023C97.5787 23.3451 96.0724 23.9366 94.6657 25.1071C93.4955 26.0763 92.5121 27.2971 92.7984 28.9585C93.0723 30.6325 94.2424 31.589 95.7737 32.1428C97.641 32.8225 99.4834 32.533 101.288 31.9666C102.608 31.5638 103.031 30.8087 103.031 29.5123Z" fill="#A5782E"/>
<path d="M84.233 38.5359C84.2205 37.4661 84.4197 36.8242 85.316 36.7613C86.175 36.7109 87.2705 37.9318 87.3078 38.8883C87.3327 39.719 86.8347 40.1092 86.1252 40.1847C85.1417 40.298 84.233 39.3163 84.233 38.5359Z" fill="#A5782E"/>
<path d="M42.3063 19.8069C40.5759 18.0323 41.1361 14.848 43.3893 13.5138C45.6674 12.1671 48.1572 12.3182 50.5972 12.5699C51.8669 12.7083 52.4396 14.0173 52.9998 15.0997C53.7841 16.61 53.8961 18.2714 53.672 19.9202C53.5849 20.5243 53.2363 21.2166 52.7882 21.6068C49.6884 24.2876 45.3687 23.8723 42.742 20.688C42.5428 20.4488 42.4681 20.1216 42.3312 19.8321C43.8375 21.1285 45.4807 22.2235 47.4352 22.5255C50.1241 22.9409 50.8959 22.7018 51.7425 21.2292C53.2114 18.6616 51.4437 14.6844 48.5805 14.1935C47.8958 14.0802 47.1488 14.1683 46.4517 14.2816C43.3644 14.785 41.7585 16.9373 42.3063 19.8069Z" fill="#A5782E"/>
<path d="M54.6297 34.3194C53.7707 34.332 52.8744 33.5642 52.8868 32.8216C52.8993 32.0161 54.0446 31.2106 55.3517 31.3113C55.7625 31.349 56.3476 31.9406 56.4597 32.3811C56.6713 33.2118 55.5509 34.3068 54.6297 34.3194Z" fill="#A5782E"/>
<path d="M103.429 71.4734C103.405 66.9172 106.741 63.7832 111.073 64.0979C114.098 64.3245 115.804 67.0305 114.857 70.2651C114.534 71.3727 114.011 72.43 113.513 73.4872C112.368 75.9415 111.285 76.231 108.434 75.9163C107.226 75.7779 106.019 75.1863 104.923 74.5822C103.691 73.9025 103.268 72.6943 103.429 71.4734ZM113.476 69.9253C113.401 69.9001 113.326 69.8875 113.252 69.8624C113.252 69.4974 113.289 69.1198 113.252 68.7674C112.978 66.3257 111.222 65.067 109.181 65.9481C107.127 66.8291 105.459 68.201 104.363 70.2022C103.865 71.121 103.803 72.065 104.351 73.0089C105.396 74.8087 107.077 75.287 108.969 75.3374C110.687 75.3877 111.92 74.6451 112.542 73.0341C112.915 72.0146 113.164 70.9574 113.476 69.9253Z" fill="#A5782E"/>
<path d="M94.304 68.6421C94.3165 70.0014 93.7438 70.9454 92.9347 70.9202C92.25 70.895 91.4657 69.8629 91.4533 68.9945C91.4408 68.189 92.2873 67.2954 93.1089 67.2576C93.7936 67.2198 94.2916 67.7988 94.304 68.6421Z" fill="#A5782E"/>
<path fill-rule="evenodd" clip-rule="evenodd" d="M2.54408 117.603C2.3449 116.155 2.00878 114.708 1.99634 113.26C1.98389 111.675 2.45694 110.076 2.43204 108.49C2.28266 101.09 5.9675 95.4762 10.9844 90.7941C15.3663 86.691 20.794 84.2241 26.6574 82.89C31.7863 81.7195 36.9401 80.6245 42.0939 79.5547C44.1106 79.1267 45.7663 79.4791 47.2726 81.2915C50.3599 85.0045 53.7336 88.4783 56.9827 92.0401C57.1321 92.2038 57.2317 92.4051 57.3935 92.5562C59.5596 94.507 60.2318 94.3812 62.622 92.4807C65.3109 90.3536 68.1866 88.4783 70.9378 86.4645C71.61 85.9736 72.1702 85.3317 72.7802 84.7653L72.8674 84.6772C73.1288 84.4129 73.3902 84.1486 73.6516 83.8843L73.7512 83.8088C75.3696 81.7824 77.5854 81.8202 79.8387 81.9838C84.4821 82.311 89.1877 82.311 93.7564 83.0914C97.9019 83.7962 101.948 85.2184 105.496 87.7357C107.973 89.4852 110.861 90.8193 112.878 92.9967C115.567 95.9167 118.007 99.2646 119.75 102.839C121.144 105.684 121.729 109.107 121.99 112.316C122.7 120.787 118.604 126.501 111.185 130.025C107.4 131.825 103.392 132.643 99.2339 132.907C97.8023 132.996 96.3458 133.738 94.9764 133.562C91.0551 133.084 87.1461 132.429 83.287 131.561C79.2785 130.655 75.3198 129.509 71.3984 128.301C67.6887 127.156 64.0163 125.872 60.3937 124.487C55.3021 122.536 50.2603 120.447 44.8078 118.245C45.5173 117.729 45.841 117.326 46.2394 117.212C52.1277 115.601 58.0284 115.111 64.1034 116.369C68.9958 117.376 73.9877 117.955 78.9673 118.559C79.4279 118.61 80.3864 117.565 80.4985 116.91C81.4321 111.624 83.6978 107.282 88.5653 104.74C89.8351 104.073 91.304 103.808 93.1963 103.204C89.6981 102.084 83.9717 104.79 82.5774 107.773C81.3201 110.454 80.1375 113.172 78.8303 115.841C77.934 117.666 76.2659 117.024 74.9463 116.646C66.9417 114.343 58.8002 113.651 50.5467 114.33C48.7167 114.481 46.812 115.085 45.1812 115.941C41.9819 117.64 39.0689 115.677 36.1932 115.853C36.3301 112.291 36.7783 108.931 36.5169 105.633C36.2554 102.411 35.272 99.2646 34.6122 96.0803C34.3259 96.1181 34.052 96.1558 33.7657 96.1936C34.0271 98.6731 34.0644 101.19 34.5873 103.607C35.8073 109.271 35.1101 114.444 31.6743 119.189C31.1639 119.893 30.9771 120.825 30.6286 121.655C30.9024 121.832 31.1888 122.02 31.4626 122.197C32.2469 121.353 33.3673 120.636 33.7657 119.629C34.7367 117.175 36.5293 117.351 38.4713 117.754C45.6045 119.251 51.7293 123.342 58.5014 125.759C62.8336 127.307 67.2405 128.641 71.6474 129.95C75.9796 131.246 80.3615 132.379 84.7186 133.625C85.0547 133.726 85.4904 134.216 85.478 134.518C85.478 134.833 85.0423 135.286 84.7062 135.425C81.0462 136.948 77.3987 138.533 73.6765 139.868C69.4688 141.365 65.1989 142.7 60.9041 143.971C55.9245 145.456 50.9077 147.281 45.6543 146.866C40.986 146.488 36.4048 145.255 31.749 144.663C26.9188 144.046 22.624 142.058 18.3665 139.905C17.1092 139.263 16.0386 138.244 14.8808 137.401C11.5197 134.833 8.90542 131.598 7.02565 127.835C5.36996 124.512 4.02549 121.026 2.54408 117.603Z" fill="#F7A400"/>
<path d="M44.5479 52.6328C44.4856 54.9613 44.5852 57.3023 44.772 59.6433C43.2657 57.7176 42.2324 53.6649 44.5479 52.6328Z" fill="#FDCD81"/>
<path fill-rule="evenodd" clip-rule="evenodd" d="M72.2211 86.1628C68.2873 88.6926 64.3659 91.2224 59.7723 94.1802C55.9506 90.0645 51.6184 85.3824 47.2613 80.7003C47.1991 79.9578 46.9127 79.1523 47.0995 78.4852C48.2323 74.4828 47.3609 70.5559 46.8505 66.6038C45.9417 59.5682 45.5807 52.5828 47.087 45.522C48.0456 41.0035 50.5602 38.2849 54.631 36.8375C59.2744 35.1887 64.0796 35.2768 68.7604 36.4599C73.105 37.5549 75.4952 40.9029 76.9019 45.0563C78.3833 49.4363 78.1094 53.9925 77.8604 58.4354C77.487 65.1942 76.5658 71.9278 75.7815 78.6614C75.5948 80.285 75.0097 81.8709 74.6113 83.4693C74.4868 83.5322 74.437 83.6455 74.4868 83.784C74.1383 84.2119 73.7897 84.6398 73.4536 85.0678C73.0303 85.4202 72.6195 85.7978 72.2211 86.1628Z" fill="#FDCE85"/>
<path d="M78.0352 61.506C78.197 59.5677 78.3339 57.6169 78.3713 55.666C80.3382 57.1008 79.8153 60.0838 78.0352 61.506Z" fill="#FDCD81"/>
<path d="M76.2043 131.334C80.9348 132.744 85.7774 133.864 90.7196 134.053C74.81 140.938 58.029 147.873 40.775 146.677C39.8413 145.292 40.0281 143.644 39.916 142.045C42.468 143.291 45.8167 142.284 45.9039 139.024C45.991 136.029 42.4929 134.418 40.1899 135.727C40.277 133.789 40.9119 131.775 41.8705 130.151C43.5635 131.473 46.0035 130.831 46.601 128.565C47.1986 126.312 44.9578 124.223 42.8913 124.5C43.4639 122.675 44.5096 121.102 45.4557 119.428C50.9705 121.517 56.2115 124.701 61.7014 126.753C66.432 128.515 71.3866 129.887 76.2043 131.334Z" fill="#FFD900"/>
<path d="M70.6015 120.17C69.2446 118.206 66.3191 116.973 65.0743 119.755C63.7422 122.725 66.7175 124.411 69.257 124.21C69.2321 125.355 69.1077 126.425 68.4479 127.432C68.3981 127.508 68.3732 127.583 68.3607 127.659C65.8336 126.866 63.319 126.035 60.8666 125.078C55.4264 122.951 50.2477 119.817 44.7578 117.867C50.0361 115.966 55.414 115.161 61.128 115.249C64.4394 115.299 67.6511 116.067 70.8629 116.86C71.0248 117.992 71.1742 119.176 70.6015 120.17Z" fill="#FFD900"/>
<path d="M54.5172 62.5997C55.9613 62.8011 57.5049 62.6626 58.9365 62.5242C59.92 62.4235 62.0238 62.2347 62.0363 60.8502C62.0363 60.7243 62.0114 60.6237 61.9616 60.5481C62.111 60.1831 61.9367 59.6797 61.4387 59.6797C58.9241 59.7049 56.4094 60.0699 54.2433 61.4292C53.6956 61.7564 53.8948 62.5116 54.5172 62.5997Z" fill="#7E5F2F"/>
<path d="M65.1109 63.2559C65.6711 63.495 66.3433 63.5328 66.9284 63.6083C67.999 63.7468 68.9576 64.074 69.8912 64.59C70.0655 64.6907 70.2273 64.6907 70.3767 64.6404C70.4141 64.6781 70.4639 64.7159 70.5137 64.7411C71.161 65.2193 71.8083 64.1495 71.161 63.6712C69.7792 62.6518 68.5592 61.4812 66.9409 60.8519C66.2811 60.5876 64.3017 60.1975 63.8785 61.1288C63.4179 62.1609 64.2395 62.8909 65.1109 63.2559Z" fill="#7E5F2F"/>
<path d="M56.7832 63.909C55.9865 63.8713 55.9367 65.1299 56.7334 65.1677C60.6548 65.369 64.6384 67.0178 68.5971 66.2501C69.3814 66.099 69.1075 64.8656 68.3232 65.0292C64.5139 65.7592 60.5801 64.0978 56.7832 63.909Z" fill="#7E5F2F"/>
<path d="M71.5978 73.0851C72.2949 72.6949 71.7223 71.5747 71.0251 71.9775C65.224 75.2247 58.4145 74.5073 53.2731 70.3287C52.6507 69.8253 52.0034 70.8951 52.6258 71.3985C58.0908 75.8289 65.4605 76.5211 71.5978 73.0851Z" fill="#7E5F2F"/>
<path d="M79.0416 48.8315C83.0127 49.4734 86.6105 49.3853 90.4945 48.1644C93.6814 47.1701 97.8766 44.8039 100.827 47.4722C100.292 48.1267 99.8809 48.8315 99.9307 49.7125C99.9556 50.1405 100.093 50.5306 100.279 50.8956C98.2252 50.3418 95.8101 51.2103 94.0299 52.1417C91.7642 53.3248 89.6231 53.9918 87.0835 53.2367C86.0378 52.922 85.0419 52.3808 84.0087 52.0158C83.0625 51.676 81.9173 51.8396 80.9338 51.8522C80.162 51.8648 80.1246 53.073 80.8965 53.0605C82.0666 53.0353 83.1621 52.9975 84.2825 53.3877C85.1041 53.6772 85.9009 54.0799 86.7225 54.382C88.0172 54.8603 89.4737 54.7974 90.8306 54.6715C94.005 54.3694 97.3787 50.3922 100.702 52.3556C100.914 52.4815 101.138 52.4563 101.3 52.3556C101.773 52.6074 102.383 51.9025 101.985 51.3613C101.2 50.3041 100.74 49.3853 101.686 48.2525C101.848 48.0512 101.873 47.8246 101.798 47.6358C102.035 47.4344 102.122 47.082 101.848 46.8051C99.2709 44.2627 95.8475 45.0179 92.7477 46.0877C90.8181 46.7422 88.9508 47.4219 86.9466 47.7994C84.2203 48.3029 81.7554 48.0637 79.054 47.6232C78.3196 47.51 78.2946 48.7182 79.0416 48.8315Z" fill="#7E5F2F"/>
<path d="M97.9636 56.8743C96.6191 56.9624 95.4364 57.1134 94.092 56.8617C92.6479 56.5974 91.3034 55.8171 89.9963 55.1752C89.3116 54.8353 88.6768 55.8674 89.3739 56.2072C91.0171 57.0253 92.7226 57.9819 94.5775 58.1707C96.8681 58.4098 99.445 57.4407 101.511 58.6364C100.428 59.7943 99.7686 61.2165 100.441 62.6639C97.4283 64.4008 93.7559 61.9843 91.4528 60.1467C88.8635 58.0826 86.5729 55.9807 83.1246 56.1443C82.3652 56.1821 82.3154 57.3903 83.0872 57.3526C87.519 57.1386 90.5067 61.4682 94.1418 63.4946C96.0713 64.5644 99.445 64.8162 101.312 63.5324C101.35 63.5072 101.387 63.4694 101.424 63.4317C101.736 63.2681 101.947 62.815 101.673 62.45C100.765 61.2039 101.86 59.9201 102.769 59.0769C103.03 58.8377 103.005 58.5357 102.843 58.3091C102.819 58.1707 102.744 58.0196 102.607 57.9189C101.225 56.8365 99.6566 56.761 97.9636 56.8743Z" fill="#7E5F2F"/>
<path d="M122.314 104.223C119.276 95.8784 112.23 89.3085 104.276 85.8095C95.3498 81.8952 85.4903 81.3036 75.8799 81.7693C75.1081 81.8071 75.0583 83.0154 75.8301 82.9902C84.3824 82.5749 93.0468 83.0028 101.188 85.885C109.479 88.8176 116.662 94.796 120.447 102.876C123.708 109.837 123.609 118.219 118.841 124.588C114.21 130.78 98.1508 133.121 93.2335 133.687C93.0094 133.713 92.8849 133.826 92.8227 133.977C92.7604 133.624 92.3994 133.285 91.9637 133.436C91.9139 133.184 91.7272 132.97 91.4035 132.957C85.9136 132.894 80.5855 131.611 75.3446 130.037C73.2283 129.408 71.0995 128.779 68.9584 128.124C69.8173 126.778 69.9169 125.292 69.9169 123.732C69.9169 123.304 69.5434 123.102 69.2198 123.153C69.1451 123.128 69.0579 123.128 68.9584 123.14C67.1533 123.455 64.6511 122.523 65.6719 120.258C66.618 118.169 68.8837 120.27 69.4688 121.516C69.6306 121.869 69.9916 121.894 70.253 121.73C70.3775 121.73 70.5145 121.68 70.6265 121.542C71.6846 120.245 71.7344 118.823 71.5602 117.288C74.1371 117.917 76.714 118.521 79.3407 118.722C79.5772 118.735 79.7515 118.647 79.8511 118.496C79.9257 118.408 79.988 118.282 79.988 118.118C80.1498 111.85 85.814 103.455 92.5986 103.644C93.3953 103.669 93.4451 102.411 92.6484 102.385C85.4032 102.184 79.3158 110.541 78.7929 117.401C72.1577 116.759 65.9333 114.078 59.186 114.116C53.3102 114.141 47.7829 115.223 42.3677 117.376C40.2141 116.734 37.9982 116.306 35.6827 116.218C36.4421 114.342 36.8902 112.341 37.0023 110.189C37.2637 105.331 35.8445 100.447 34.8362 95.7526C34.6619 94.9597 33.4544 95.2365 33.6287 96.0295C34.5125 100.107 35.5707 104.198 35.7699 108.389C35.9068 111.171 35.3964 113.789 34.3507 116.205C34.3133 116.205 34.2884 116.205 34.2635 116.205C33.6411 116.218 33.4793 116.998 33.8278 117.325C33.1556 118.609 32.3215 119.83 31.3381 120.988C30.8152 121.592 31.6617 122.523 32.1846 121.907C33.3797 120.51 34.3756 119.024 35.1474 117.464C36.9649 117.489 38.7327 117.753 40.463 118.156C41.1353 118.005 41.7826 118.395 42.3802 118.735C42.4175 118.722 42.4424 118.71 42.4798 118.697C42.9528 118.836 43.4259 118.999 43.8865 119.163C42.7536 121.177 41.4839 123.052 41.0481 125.38C40.961 125.821 41.3967 126.362 41.8698 126.06C43.3138 125.154 44.6334 126.362 45.0193 127.759C45.6169 129.987 42.8159 130.226 41.7702 129.03C41.4714 128.691 41.0357 128.854 40.8614 129.156C40.7618 129.194 40.6747 129.27 40.6 129.383C39.2182 131.573 38.3841 134.468 38.5833 137.073C38.6206 137.501 39.1933 137.967 39.5543 137.526C41.0232 135.726 43.7495 136.582 44.2475 138.785C44.8699 141.579 41.4341 142.007 39.7161 141.012C39.5294 140.912 39.3551 140.912 39.2057 140.975C38.8821 140.597 38.0978 140.874 38.2098 141.503C38.521 143.265 38.1725 145.065 38.9069 146.689C35.7823 146.387 32.6328 145.82 29.4832 144.927C21.2919 142.611 13.723 137.904 8.7933 130.793C3.65195 123.367 1.38627 112.92 3.31583 104.034C7.29944 85.7466 29.782 80.989 45.3928 79.7681C45.6542 79.743 45.816 79.6045 45.9156 79.4157C46.0028 80.0073 46.1895 80.5737 46.5505 81.1023C47.8701 82.965 49.7748 84.2236 51.3433 85.8347C54.2563 88.8302 56.6714 92.4676 60.3313 94.6072C60.6426 94.7834 60.9911 94.6828 61.1903 94.4059C63.3066 91.3348 66.867 89.0567 70.0414 87.2443C72.332 85.9354 74.5479 84.7145 74.9089 81.933C75.1952 81.9078 75.4815 81.719 75.5313 81.3666C75.6309 80.7373 75.718 80.108 75.8176 79.4787C75.9048 79.164 75.9546 78.8242 75.967 78.4969C76.7388 73.2862 77.4111 68.063 77.8966 62.8146C80.6602 61.3797 81.8802 57.4151 79.8262 55.0866C79.8884 54.7846 79.8511 54.407 79.739 54.1804C79.5772 53.8658 78.9298 53.2616 79.2784 53.0728C80.71 52.2673 80.1996 50.543 78.768 50.3291C78.6809 50.2661 78.5688 50.2158 78.4443 50.2032C78.3572 50.2032 78.2825 50.1906 78.2078 50.178C78.158 49.5613 78.0958 48.9572 78.0086 48.3404C77.436 44.3506 75.8052 40.2349 72.6556 37.6296C68.6969 34.3446 63.5556 34.1055 58.6632 34.1055C58.3022 34.1055 58.0905 34.3572 58.0532 34.6341C54.6298 35.3893 51.1815 36.3332 48.617 38.9134C46.6252 40.9272 45.6791 43.8472 45.1687 46.6791C44.8201 46.742 44.484 46.893 44.3346 47.1951C44.2101 47.4468 44.0483 47.7866 44.1479 48.0887C44.2848 48.4915 44.7579 48.9823 44.3969 49.4103C43.8242 50.1151 43.6001 50.908 43.7371 51.638C40.712 53.4127 42.3802 59.1268 44.7952 60.9392C44.845 60.977 44.9073 61.0021 44.9571 61.0273C45.3928 65.7345 46.0526 70.4418 46.1521 75.149C46.1397 75.1868 46.1397 75.2371 46.1397 75.2749V76.0804C46.1397 76.1685 46.1521 76.2566 46.1895 76.3321C46.0775 76.4328 46.0028 76.5712 45.9779 76.7474C45.9281 77.3768 45.8658 78.0312 45.8783 78.6731C45.7787 78.5725 45.6417 78.5095 45.455 78.5221C31.1513 79.6423 13.2998 83.1035 5.07111 96.4197C0.664235 103.543 0.838518 112.303 2.76808 120.208C4.72254 128.25 9.51533 135.16 16.1381 139.98C25.2133 146.588 37.0147 148.703 47.9946 148.212C63.5805 147.52 78.4194 140.685 92.5364 134.568C92.6858 134.505 92.7729 134.392 92.8227 134.279C92.86 134.594 93.1215 134.908 93.5323 134.87C98.3375 134.317 114.334 133.159 120.023 125.078C124.368 118.823 124.816 111.108 122.314 104.223ZM78.2825 57.3018C78.3821 57.3144 78.4941 57.3018 78.6062 57.2515C78.9672 57.0878 79.1664 56.8613 79.3158 56.5844C80.0253 58.1199 79.4153 60.1463 78.0335 61.2413C78.1456 59.9449 78.2203 58.6234 78.2825 57.3018ZM44.2848 52.7582C44.372 52.8463 44.4591 52.9344 44.5587 53.0099C44.5214 55.074 44.6085 57.1382 44.7703 59.2023C43.4259 57.478 42.4798 53.9413 44.2848 52.7582ZM45.953 46.6035C46.1024 46.591 46.2642 46.591 46.4136 46.6161C46.8119 44.6904 47.4468 42.8151 48.4676 41.116C50.6088 37.5163 55.0032 36.5598 58.7503 35.7417C58.9993 35.6913 59.1362 35.5277 59.1985 35.3389C64.0411 35.3641 69.0206 35.7291 72.6805 39.3539C75.4566 42.0977 76.5148 46.1001 76.938 49.9263C75.9919 49.6494 75.2076 49.146 74.386 48.3027C73.5893 47.4846 72.7801 46.956 71.6597 46.7168C68.5973 46.0749 66.0702 48.9697 63.0078 47.5601C62.0244 47.107 61.1405 46.5532 60.1073 46.226C58.7752 45.798 57.1818 45.9868 55.8249 46.0875C52.5633 46.3267 49.4013 47.107 46.1273 46.6917C46.065 46.6539 45.9779 46.6287 45.8907 46.6287C45.9032 46.6161 45.9281 46.6035 45.953 46.6035ZM73.8258 54.0168C72.7428 52.4435 71.0373 51.8394 69.2945 52.6701C68.5475 53.0225 67.95 51.8772 68.6969 51.5247C71.1369 50.3668 73.4648 51.2604 74.9711 53.4253C75.4317 54.0923 74.2989 54.6839 73.8258 54.0168ZM58.6258 51.7261C57.7046 50.8828 55.8871 50.0899 54.941 51.2982C54.4306 51.9527 53.3351 51.273 53.8455 50.6185C55.3767 48.6677 57.9536 49.3599 59.572 50.8451C60.1819 51.3989 59.2358 52.2799 58.6258 51.7261ZM45.8658 53.6015C48.6917 53.8532 51.1317 55.2628 53.9451 55.5649C56.0614 55.7915 57.7544 55.1244 59.572 54.4447C58.9744 56.4208 59.6964 58.1954 61.7629 59.4037C64.0535 60.7504 66.979 60.5113 68.8339 58.6108C69.3941 58.0318 68.5475 57.113 67.9873 57.692C66.5931 59.1268 64.9125 59.2149 63.095 58.6359C62.348 58.3968 61.7132 57.9311 61.1654 57.3773C60.1322 56.3201 60.5181 55.0111 61.1405 53.8909C61.3023 53.8406 61.4517 53.7777 61.6136 53.7399C63.6552 53.1232 65.3357 53.3372 66.9043 54.8223C67.7633 55.6404 68.7467 56.1187 69.8671 56.4334C71.3112 56.8361 72.8424 56.4837 74.2989 56.4208C75.2325 56.383 76.104 56.7354 77.0003 56.9746C76.826 60.5365 76.5148 64.1864 76.4774 64.5011C76.0293 69.0825 75.4193 73.6513 74.747 78.2074C74.7346 78.2578 74.7221 78.3207 74.7221 78.3837C74.7221 78.3962 74.7221 78.3962 74.7221 78.4088C74.6972 78.5347 74.6848 78.6605 74.6724 78.7864H74.6973C74.6723 78.9878 74.6226 79.1892 74.5479 79.3906C74.5105 79.4912 74.5105 79.6045 74.5354 79.7052C74.4732 80.108 74.4109 80.5107 74.3487 80.9135C74.0375 80.9009 73.7262 81.1023 73.7013 81.4924C73.5022 84.8026 69.4065 86.0864 67.0412 87.6848C64.6635 89.2833 62.2609 90.9447 60.5056 93.2479C57.742 91.4733 55.6381 88.7673 53.4845 86.3255C52.3392 85.0292 51.1192 83.8712 49.8121 82.7511C49.1025 82.1469 48.4676 81.5176 47.8576 80.8128C46.8244 79.6171 47.0734 78.2074 47.1978 76.7978C47.2103 76.7097 47.1978 76.6216 47.173 76.5461C47.285 76.4328 47.3597 76.2943 47.3597 76.1307V75.4259H47.397C47.285 68.1259 45.953 60.9015 45.8658 53.6015ZM60.6301 115.362C63.9415 115.412 67.1533 116.18 70.3651 116.973C70.5393 118.106 70.6763 119.289 70.1036 120.283C68.7467 118.32 65.8337 117.086 64.5764 119.868C63.2444 122.838 66.2196 124.525 68.7592 124.323C68.7343 125.469 68.6098 126.538 67.95 127.545C67.9002 127.621 67.8753 127.696 67.8629 127.772C65.3358 126.979 62.8211 126.148 60.3687 125.192C54.9286 123.065 49.7499 119.931 44.2599 117.98C49.5382 116.079 54.9037 115.286 60.6301 115.362ZM40.2763 146.79C39.3302 145.392 39.5294 143.756 39.4173 142.158C41.9818 143.404 45.3181 142.397 45.4052 139.137C45.4924 136.142 41.9943 134.531 39.6912 135.84C39.7784 133.901 40.4133 131.888 41.3843 130.264C43.0773 131.585 45.5173 130.944 46.1148 128.678C46.7123 126.425 44.4716 124.336 42.4051 124.613C42.9777 122.788 44.0234 121.214 44.9695 119.54C50.4968 121.63 55.7253 124.814 61.2152 126.866C65.9333 128.628 70.8879 130.012 75.7056 131.46C80.4361 132.869 85.2787 133.989 90.2209 134.178C74.3113 141.05 57.5303 147.985 40.2763 146.79Z" fill="#7E5F2F"/>
<path d="M81.919 51.8393C81.8319 51.7512 81.7198 51.7008 81.5829 51.6757C80.7613 51.5498 79.8774 51.2477 79.367 50.5177C78.9686 49.9388 78.9562 49.1962 79.7654 49.1081C79.8899 49.0955 79.977 49.0452 80.0517 48.9948C83.6618 49.4731 86.9981 49.3095 90.5709 48.1893C93.7578 47.195 97.9531 44.8288 100.903 47.4971C100.368 48.1515 99.9573 48.8438 100.007 49.7374C100.032 50.1528 100.169 50.5555 100.356 50.9205C98.3016 50.3667 95.8866 51.2352 94.1064 52.1665C91.8531 53.3496 89.6995 54.0167 87.16 53.2615C86.1143 52.9469 85.1184 52.4057 84.0975 52.0407C83.4129 51.8015 82.6535 51.8015 81.919 51.8393Z" fill="#7E5F2F"/>
<path d="M100.505 62.6765C97.4922 64.4134 93.8198 61.9969 91.5168 60.1593C89.0394 58.1833 86.8236 56.1695 83.6118 56.1569C81.8814 55.0745 83.4499 54.1431 84.8317 54.2438C86.4252 54.3697 87.9315 55.3766 89.2013 56.2702C89.3756 56.396 89.5498 56.396 89.7117 56.3331C91.2802 57.1135 92.8861 57.9819 94.6414 58.1707C96.932 58.4098 99.5089 57.4407 101.575 58.6364C100.505 59.8069 99.845 61.2291 100.505 62.6765Z" fill="#7E5F2F"/>
<path d="M82.2667 51.8666C82.1795 51.7785 82.0675 51.7282 81.9305 51.703C81.1089 51.5772 80.2251 51.2751 79.7147 50.5451C79.3163 49.9661 79.3038 49.2235 80.113 49.1354C80.2375 49.1229 80.3247 49.0725 80.3993 49.0222C84.0095 49.5004 87.3458 49.3368 90.9186 48.2166C94.1055 47.2223 98.3007 44.8561 101.251 47.5244C100.716 48.1789 100.305 48.8711 100.355 49.7647C100.38 50.1801 100.517 50.5829 100.703 50.9479C98.6493 50.3941 96.2342 51.2625 94.454 52.1939C92.2008 53.377 90.0472 54.0441 87.5076 53.2889C86.4619 52.9742 85.466 52.433 84.4452 52.068C83.7605 51.8289 83.0011 51.8289 82.2667 51.8666Z" fill="#E12613"/>
<path d="M100.864 62.7019C97.8515 64.4388 94.1792 62.0223 91.8761 60.1847C89.3988 58.2087 87.1829 56.1949 83.9711 56.1823C82.2408 55.0999 83.8093 54.1685 85.1911 54.2692C86.7846 54.3951 88.2909 55.4019 89.5607 56.2956C89.7349 56.4214 89.9092 56.4214 90.071 56.3585C91.6396 57.1388 93.2455 58.0073 95.0008 58.1961C97.2914 58.4352 99.8683 57.4661 101.935 58.6618C100.852 59.8323 100.192 61.2545 100.864 62.7019Z" fill="#E12613"/>
<path d="M78.4691 52.3823C78.2076 52.6214 77.9836 52.936 78.0334 53.301C78.0956 53.7667 78.3819 54.0562 78.6931 54.396C78.9421 54.6729 78.8176 55.6043 78.5313 56.0448C77.3487 56.0197 76.3528 55.3904 75.1826 55.3274C73.3526 55.2267 71.6471 55.6798 69.842 55.1764C68.5598 54.824 67.6884 53.6786 66.6801 52.8857C65.7339 52.1431 64.3023 52.2438 63.1944 52.3319C60.2689 52.571 57.8663 54.6226 54.9035 54.5093C51.8162 54.396 49.0775 52.6592 45.9653 52.4452C45.9279 52.3948 45.8657 52.3445 45.8034 52.3067C45.181 51.9543 44.9818 51.5264 45.1561 50.7964C45.2681 50.3685 45.7287 50.0538 45.9155 49.6511C46.0648 49.3112 46.0897 49.0217 45.9902 48.6693C45.9279 48.4302 45.542 47.9771 45.8781 47.889C45.8906 47.889 45.8906 47.889 45.903 47.9016C48.8783 48.3798 51.7788 47.889 54.7292 47.4988C56.5965 47.2597 58.6879 47.0205 60.5054 47.5995C61.6134 47.9519 62.5844 48.6945 63.6799 49.0973C66.7299 50.23 69.618 46.8947 72.6181 48.254C73.751 48.77 74.5228 50.079 75.5809 50.7461C76.3403 51.2243 77.2864 51.3502 78.1828 51.4131C78.2699 51.5012 78.3944 51.5516 78.5687 51.5516C80.0127 51.5264 78.5936 52.269 78.4691 52.3823Z" fill="#E12613"/>
<path d="M54.2202 50.6332C53.7098 51.2876 54.8053 51.9673 55.3157 51.3128C56.2618 50.1045 58.0918 50.8975 59.0005 51.7407C59.6105 52.2945 60.5566 51.4135 59.9342 50.8597C58.3283 49.3871 55.739 48.6823 54.2202 50.6332Z" fill="#7A1B0F"/>
<path d="M69.0714 51.5389C68.3121 51.8913 68.922 53.0493 69.669 52.6843C71.4118 51.8536 73.1173 52.4703 74.2003 54.031C74.6734 54.7106 75.8062 54.1191 75.3332 53.4269C73.8393 51.2746 71.5114 50.381 69.0714 51.5389Z" fill="#7A1B0F"/>
<path d="M79.6398 53.0748C81.0714 52.2693 80.561 50.545 79.1294 50.3311C79.0423 50.2681 78.9302 50.2178 78.8058 50.2052C77.1003 50.0793 75.9674 49.5633 74.7599 48.3173C73.9632 47.4992 73.154 46.9706 72.0336 46.7314C68.9712 46.0895 66.4441 48.9843 63.3817 47.5747C62.3982 47.1216 61.5144 46.5678 60.4811 46.2406C59.1491 45.8126 57.5557 46.0014 56.1987 46.1021C52.9372 46.3412 49.7752 47.1216 46.5011 46.7062C46.4264 46.6685 46.3393 46.6433 46.2397 46.6307C45.7417 46.593 44.9575 46.6685 44.6836 47.1971C44.5591 47.4488 44.3973 47.7887 44.4969 48.0907C44.6338 48.4935 45.1069 48.9843 44.7458 49.4123C43.7375 50.6331 43.7748 52.1561 44.9948 53.0748C45.0322 53.3392 45.2065 53.5657 45.5426 53.5783C48.6797 53.6161 51.269 55.2774 54.319 55.5921C57.1946 55.8942 59.286 54.56 61.9874 53.7545C64.029 53.1378 65.7096 53.3517 67.2782 54.8369C68.1371 55.655 69.1206 56.1333 70.241 56.4479C71.685 56.8507 73.2162 56.4983 74.6728 56.4354C75.9176 56.385 77.0754 57.0521 78.3203 57.1654C78.4821 57.3164 78.7186 57.3793 78.98 57.2661C79.8515 56.8885 79.8266 56.0829 80.1378 55.2774C80.2623 54.9754 80.2498 54.4593 80.1004 54.1573C79.9386 53.8678 79.2913 53.2636 79.6398 53.0748ZM78.5941 52.3197C78.3327 52.5588 78.1086 52.8735 78.1584 53.2511C78.2207 53.7167 78.507 54.0062 78.8182 54.3461C79.0672 54.623 78.9427 55.5543 78.6564 55.9948C77.4737 55.9697 76.4778 55.3404 75.3076 55.2774C73.4777 55.1767 71.7846 55.6298 69.9671 55.1264C68.6849 54.774 67.8135 53.6286 66.8051 52.8357C65.859 52.0931 64.4274 52.1812 63.3194 52.2819C60.394 52.5211 57.9914 54.5726 55.0286 54.4593C51.9412 54.3461 49.2025 52.6092 46.0903 52.3952C46.053 52.3448 46.0032 52.2945 45.9285 52.2568C45.306 51.9043 45.1069 51.4764 45.2811 50.7464C45.3932 50.3185 45.8538 50.0038 46.0405 49.6011C46.1899 49.2612 46.2148 48.9718 46.1152 48.6193C46.053 48.3802 45.6671 47.9271 46.0032 47.839C46.0156 47.839 46.0156 47.839 46.0281 47.8516C49.0033 48.3299 51.9039 47.839 54.8543 47.4488C56.7091 47.2097 58.813 46.9706 60.6305 47.5495C61.7385 47.9019 62.7219 48.6319 63.805 49.0473C66.8549 50.18 69.7306 46.8321 72.7432 48.204C73.876 48.72 74.6479 50.029 75.706 50.6961C76.4529 51.1743 77.4115 51.3002 78.3078 51.3757C78.3949 51.4638 78.5319 51.5142 78.6937 51.5142C80.1378 51.4638 78.7186 52.2064 78.5941 52.3197Z" fill="#7A1B0F"/>
<path d="M87.1086 54.4207C88.4033 54.8989 89.8598 54.836 91.2167 54.7101C94.3911 54.4081 97.7647 50.4308 101.089 52.3943C101.3 52.5202 101.524 52.495 101.686 52.3943C102.159 52.646 102.769 51.9412 102.371 51.4C101.587 50.3427 101.126 49.424 102.072 48.2912C102.234 48.0898 102.259 47.8633 102.184 47.6745C102.421 47.4731 102.508 47.1207 102.234 46.8438C99.657 44.3014 96.2335 45.0566 93.1338 46.1138C91.2042 46.7683 89.3369 47.4479 87.3327 47.8255C84.6064 48.329 82.1415 48.0898 79.4401 47.6493C78.6807 47.5234 78.6434 48.7317 79.4028 48.8576C83.3739 49.4995 86.9716 49.4114 90.8557 48.1905C94.0426 47.1962 98.2378 44.83 101.188 47.4983C100.653 48.1528 100.242 48.8576 100.292 49.7386C100.317 50.1665 100.454 50.5567 100.64 50.9217C98.5864 50.3679 96.1713 51.2364 94.3911 52.1677C92.1254 53.3508 89.9842 54.0179 87.4447 53.2627C86.399 52.9481 85.4031 52.4069 84.3698 52.0419C83.4237 51.7021 82.2784 51.8657 81.295 51.8783C80.5232 51.8908 80.4858 53.0991 81.2576 53.0865C82.4278 53.0614 83.5233 53.0236 84.6437 53.4138C85.4902 53.7158 86.287 54.106 87.1086 54.4207Z" fill="#7A1B0F"/>
<path d="M103.217 58.3354C103.192 58.1969 103.118 58.0459 102.981 57.9452C101.599 56.8628 100.03 56.7873 98.3249 56.888C96.9804 56.9761 95.7978 57.1271 94.4533 56.8754C93.0093 56.6111 91.6648 55.8307 90.3577 55.1888C89.673 54.849 89.0381 55.8811 89.7352 56.2209C91.3785 57.039 93.0839 57.9955 94.9388 58.1843C97.2294 58.4235 99.8063 57.4543 101.873 58.65C100.79 59.808 100.13 61.2302 100.802 62.6776C97.7896 64.4145 94.1172 61.998 91.8142 60.1604C89.2248 58.0962 86.9342 55.9943 83.4859 56.158C82.7265 56.1957 82.6767 57.404 83.4486 57.3662C87.8803 57.1523 90.8681 61.4819 94.5031 63.5083C96.4327 64.5781 99.8063 64.8298 101.674 63.5461C101.711 63.5209 101.748 63.4831 101.786 63.4454C102.097 63.2817 102.309 62.8286 102.035 62.4636C101.126 61.2176 102.221 59.9338 103.13 59.0905C103.404 58.864 103.379 58.5619 103.217 58.3354Z" fill="#7A1B0F"/>
</svg>
