<svg width="1440" height="3978" viewBox="0 0 1440 3978" fill="none" xmlns="http://www.w3.org/2000/svg">
<g clip-path="url(#clip0_830_19156)">
<path d="M1538.34 -28.3101H-128.971V4114.81H1538.34V-28.3101Z" fill="#FDCE85" fill-opacity="0.33"/>
<path d="M1473.42 69.4302V69.4402L1380.89 122.85L1308.69 164.54V549.6V921.42L1471.18 827.6L1506.34 807.31L1548.34 783.06V26.1802L1544.47 28.4202L1473.42 69.4302Z" fill="#FFFEF7"/>
<path d="M651.25 538.92L813.74 445.1L826.71 437.61L887.02 402.8L907.83 390.78L999.9 337.63L1031.73 319.25L1035.06 317.33L1304.2 161.94V-28.3101H651.25V167.11V538.92Z" fill="#FFFEF7"/>
<path d="M1353.11 133.71L1358.31 130.71L1379.11 118.69L1471.18 65.5399V65.5499L1544.47 23.2399L1548.34 20.9999V-28.3101H1308.69V159.35L1353.11 133.71Z" fill="#FFFEF7"/>
<path d="M1035.06 1084.58L1002.14 1103.59L907.83 1158.03L887.02 1170.04L651.25 1306.16V4108.15H1304.2V929.2L1035.06 1084.58Z" fill="#FFFEF7"/>
<path d="M250.39 13.4699L229.58 25.4799L-6.17969 161.6V598.44V605.12V670.33V918.48L229.58 782.36L250.39 770.35L342.46 717.2L377.62 696.89L646.76 541.51V-28.3101H322.77L250.39 13.4699Z" fill="#FFFEF7"/>
<path d="M1035.06 1079.39L1304.2 924.01V549.6V167.13L1035.06 322.52L1009.15 337.48L943.31 375.48L907.83 395.97L887.02 407.98L883.79 409.85L848.9 429.99L815.98 449L651.25 544.1V980.94V987.62V1052.83V1300.98L887.02 1164.86L907.83 1152.85L999.9 1099.69L1002.14 1103.59L999.9 1099.69L1035.06 1079.39Z" fill="#FFFEF7"/>
<path d="M1473.42 831.5L1308.69 926.6V4108.15H1548.34V788.24L1506.34 812.49L1473.42 831.5Z" fill="#FFFEF7"/>
<path d="M344.7 1483.15L344.67 1483.1L276.42 1522.49L255.61 1534.5L-6.17969 1685.65V4108.15H646.76V1308.76L377.62 1464.15L344.7 1483.15Z" fill="#FFFEF7"/>
<path d="M510.97 625.1L377.62 702.09L369.47 706.79L344.7 721.09L250.39 775.54L229.58 787.54L-6.17969 923.67V1680.47L255.61 1529.32L276.42 1517.31L368.49 1464.15L368.52 1464.21L377.62 1458.96L646.76 1303.57V1055.44V987.62V983.55V546.7L510.97 625.1Z" fill="#FFFEF7"/>
<path d="M229.58 20.2999L250.39 8.28994L313.79 -28.3101H-6.17969V156.42L229.58 20.2999Z" fill="#FFFEF7"/>
</g>
<defs>
<clipPath id="clip0_830_19156">
<rect width="1440" height="3998" fill="white"/>
</clipPath>
</defs>
</svg>
