<svg width="133" height="196" viewBox="0 0 133 196" fill="none" xmlns="http://www.w3.org/2000/svg">
<path d="M28.9309 189.624C27.9426 189.697 26.9594 189.829 25.9866 190.019L24.7578 190.22L24.9664 190.104C26.512 189.283 28.1118 188.81 29.7347 189.608L28.9309 189.624Z" fill="#E12613"/>
<path d="M96.8618 80.4484C96.3963 78.4308 96.5719 76.3176 97.3642 74.405C98.1722 72.5085 99.0908 70.6614 100.115 68.8731C100.888 67.3236 101.197 65.6578 100.2 64.1005C99.1834 62.7421 97.859 61.6453 96.3364 60.9005C94.4095 59.7849 92.4414 58.7518 90.432 57.8014C88.5773 56.9259 86.6993 56.128 84.7905 55.3842C83.8631 55.0278 83.4457 56.4688 84.2958 56.8872C82.3889 56.2384 80.4123 55.8171 78.407 55.632C76.0035 55.4692 73.7701 56.1279 71.4517 56.6935C66.5937 57.6001 61.6252 57.7491 56.7218 57.1352C55.4212 56.8383 54.1585 56.3937 52.9582 55.8101C52.1196 55.3976 51.2273 55.1056 50.3074 54.9425C50.3 54.7895 50.2396 54.644 50.1366 54.5309C50.0336 54.4177 49.8945 54.344 49.7433 54.3226C48.015 53.9586 46.2303 53.9576 44.5016 54.3196C42.7729 54.6816 41.1378 55.3987 39.6993 56.4258C38.2609 57.453 37.0504 58.7679 36.1441 60.2875C35.2379 61.8071 34.6555 63.4985 34.4338 65.2549C33.9314 69.431 35.8867 73.274 36.845 77.2409C37.9233 81.4171 38.0001 85.7899 37.0691 90.0016C35.3689 97.1064 29.7274 102.685 28.5681 109.968C27.4089 117.251 32.0304 123.271 37.6797 127.222C49.952 135.807 67.0467 138 80.3932 132.134C105.517 121.163 97.3951 82.4784 96.8618 80.4484Z" fill="#F6A320"/>
<path d="M44.7585 137.495C43.0293 135.097 40.502 133.399 37.633 132.706C37.4496 132.659 37.2551 132.686 37.0915 132.782C36.928 132.878 36.8088 133.035 36.7597 133.218C32.7179 129.073 26.3268 133.404 22.5013 135.705C17.2138 138.875 12.1361 142.385 7.30001 146.211C3.71415 149.055 -1.085 153.076 1.15617 158.228C2.05263 160.297 3.86103 161.823 5.70806 163.024C8.20588 164.513 10.7861 165.858 13.4362 167.053C16.4657 168.564 19.5492 169.989 22.5168 171.624C24.9898 172.98 27.5169 174.723 28.6143 177.435C28.6596 177.544 28.729 177.641 28.8174 177.719C28.9058 177.797 29.0108 177.853 29.1243 177.884C29.3978 178.183 29.7297 178.422 30.0991 178.587C30.4686 178.751 30.8678 178.838 31.2721 178.842C31.6764 178.845 32.0772 178.766 32.4495 178.608C32.8219 178.45 33.1579 178.217 33.4367 177.923C35.1833 176.242 35.5851 173.166 35.5619 170.865C35.5078 165.798 33.0889 161.056 30.33 156.919C34.9669 156.384 39.9438 155.501 43.4678 152.2C45.3952 150.305 46.5844 147.782 46.821 145.086C47.0576 142.39 46.3262 139.698 44.7585 137.495Z" fill="#F6A320"/>
<path d="M94.4045 139.191C94.3878 139.087 94.3449 138.989 94.28 138.906C94.2151 138.824 94.1302 138.759 94.0335 138.718C90.6795 137.068 86.9314 137.517 83.3996 138.308C80.177 139.028 77.2171 140.33 76.1506 143.731C75.2464 146.745 76.0115 150.046 76.707 153.029L79.6514 165.604C80.1305 167.664 80.5942 169.725 81.1043 171.802C81.427 173.326 81.985 174.789 82.7581 176.141C83.5172 177.477 84.7505 178.479 86.2126 178.945C86.9374 179.112 87.6957 179.053 88.3861 178.776C89.0766 178.499 89.6663 178.017 90.0767 177.396C91.1629 175.818 92.1464 174.172 93.0212 172.468C94.0799 170.647 95.1309 168.819 96.1819 166.998C98.0599 163.736 100.316 160.443 101.089 156.709C101.741 153.454 101.459 150.081 100.276 146.98C99.0926 143.879 97.0568 141.179 94.4045 139.191V139.191Z" fill="#F6A320"/>
<path d="M92.3095 124.974C92.6418 124.478 93.0823 124.075 93.4842 123.61C95.1767 120.844 95.9727 117.699 96.7764 114.576C98.6543 107.286 100.185 99.7315 99.5894 92.1618C99.5894 91.9062 99.5431 91.6582 99.5122 91.3871C99.4194 90.4651 99.3035 89.5585 99.1489 88.652C99.2339 88.807 97.2401 81.8416 96.8769 80.4547C96.4113 78.4371 96.587 76.3239 97.3792 74.4113C98.1935 72.5178 99.1119 70.671 100.13 68.8795C100.903 67.3299 101.22 65.6642 100.215 64.1068C99.199 62.7478 97.8744 61.6509 96.3513 60.9069C94.4193 59.7912 92.4487 58.7581 90.4393 57.8077C88.5923 56.9322 86.7066 56.1343 84.7977 55.3905C83.8472 55.0186 83.4298 56.5604 84.3727 56.94C88.2308 58.4338 91.9671 60.2263 95.5476 62.3015C96.8846 63.0763 98.6853 64.0215 99.203 65.5944C99.5276 66.5938 99.0716 67.5312 98.608 68.4067C98.1443 69.2823 97.6728 70.1191 97.2246 70.9869C95.679 74.024 94.5429 77.2548 95.308 80.6329C95.2389 80.8124 95.2389 81.0112 95.308 81.1907C98.1365 87.4355 98.577 94.4552 97.8351 101.204C97.4037 104.796 96.7429 108.357 95.8568 111.865C95.084 115.126 94.3884 118.613 92.8428 121.619C91.3904 124.62 88.9269 127.011 85.8874 128.368C85.7903 128.411 85.7013 128.472 85.6246 128.546C85.4005 128.639 85.1841 128.739 84.96 128.825C71.9844 134.14 56.4663 135.085 43.6221 128.879C37.8105 126.066 31.5353 121.464 30.1597 114.739C28.7532 107.867 33.7146 101.777 36.5045 95.9582C38.0955 92.7347 39.0183 89.2213 39.2171 85.6303C39.3419 81.7674 38.79 77.9126 37.5865 74.2409C36.4272 70.5452 35.1752 66.9193 36.4968 63.0841C37.3856 60.5328 39.1715 58.3937 41.5201 57.0673C43.8686 55.741 46.6189 55.3184 49.256 55.8785C50.2529 56.0799 50.6857 54.5459 49.681 54.3289C47.9529 53.9661 46.1684 53.9659 44.4402 54.3284C42.712 54.6908 41.0774 55.4082 39.6392 56.4352C38.2011 57.4621 36.9906 58.7765 36.084 60.2955C35.1774 61.8145 34.5943 63.5053 34.3715 65.2613C33.8769 69.4374 35.8244 73.2803 36.7827 77.2472C37.861 81.4234 37.9378 85.7962 37.0068 90.0079C35.3066 97.1127 29.6651 102.691 28.5059 109.974C27.3466 117.257 31.9604 123.277 37.6097 127.229C49.8897 135.813 66.3738 136.433 80.3308 132.141C83.3912 131.234 89.9215 128.546 92.3095 124.974Z" fill="#755C33"/>
<path d="M44.7736 137.495C43.0464 135.099 40.5221 133.401 37.656 132.706C37.5652 132.682 37.4704 132.676 37.3772 132.688C37.2839 132.701 37.1942 132.732 37.1129 132.779C37.0317 132.827 36.9607 132.89 36.904 132.965C36.8473 133.041 36.8061 133.127 36.7828 133.218C32.7332 129.073 26.342 133.404 22.5166 135.705C17.2305 138.873 12.1553 142.383 7.32303 146.211C3.72944 149.055 -1.06975 153.076 1.14051 158.228C2.16195 160.235 3.74343 161.902 5.6924 163.024C8.19109 164.511 10.7712 165.856 13.4206 167.053C16.45 168.564 19.5413 169.989 22.5011 171.624C24.9742 172.98 27.5013 174.723 28.6064 177.435C28.6509 177.543 28.7192 177.639 28.8062 177.717C28.8932 177.795 28.9966 177.852 29.1088 177.884C29.383 178.183 29.7153 178.422 30.0854 178.587C30.4555 178.752 30.8554 178.839 31.2603 178.842C31.6653 178.846 32.0667 178.766 32.4396 178.608C32.8126 178.45 33.1493 178.217 33.4288 177.923C35.1753 176.242 35.5772 173.166 35.5463 170.865C35.4922 165.798 33.0732 161.056 30.3143 156.919C34.9512 156.384 39.9281 155.501 43.4135 152.2C45.3515 150.314 46.5536 147.796 46.8029 145.099C47.0523 142.403 46.3326 139.706 44.7736 137.495V137.495ZM29.0391 155.563C28.5368 155.617 28.05 156.167 28.3977 156.678C30.778 160.126 32.9419 163.884 33.8074 168.037C34.2379 170.049 34.2115 172.133 33.7302 174.134C33.5546 175.153 33.0996 176.103 32.4163 176.877C31.8754 177.388 30.5538 177.745 30.1751 176.815C30.1355 176.714 30.0751 176.623 29.9979 176.547C29.9207 176.471 29.8284 176.412 29.7269 176.374C27.7485 172.368 23.4594 170.384 19.6186 168.471L11.419 164.388C9.20141 163.415 7.09704 162.202 5.14373 160.769C3.49763 159.445 2.05244 157.67 2.11426 155.431C2.17609 152.921 4.07718 150.914 5.84693 149.349C10.1448 145.668 14.715 142.319 19.5181 139.331C22.2384 137.58 25.005 135.852 27.8722 134.365C30.3838 133.055 33.8925 132.04 36.0486 134.551C36.1429 134.649 36.2634 134.718 36.3958 134.75C36.5282 134.782 36.667 134.775 36.7956 134.73C36.9242 134.686 37.0372 134.605 37.1212 134.497C37.2053 134.39 37.2568 134.26 37.2696 134.124C43.5063 135.635 47.4167 142.593 44.3254 148.559C41.4815 154.036 34.5107 154.966 29.0391 155.563Z" fill="#755C33"/>
<path d="M94.4197 139.191C94.4031 139.088 94.3612 138.991 94.2977 138.909C94.2343 138.826 94.1514 138.761 94.0565 138.718C90.6948 137.068 86.9466 137.517 83.4148 138.308C80.1999 139.028 77.2323 140.33 76.1735 143.731C75.2616 146.745 76.0268 150.046 76.7223 153.029L79.6667 165.604C80.1536 167.664 80.6095 169.725 81.1196 171.802C81.445 173.326 82.0056 174.79 82.7812 176.141C83.5354 177.478 84.7668 178.481 86.2279 178.945C86.9527 179.11 87.7102 179.049 88.4001 178.772C89.0901 178.496 89.68 178.016 90.092 177.396C91.1754 175.817 92.1588 174.171 93.0365 172.468L96.1895 166.998C98.0675 163.736 100.324 160.443 101.105 156.709C101.755 153.454 101.473 150.081 100.29 146.98C99.1067 143.88 97.0713 141.179 94.4197 139.191V139.191ZM96.8928 162.791C95.0767 165.968 93.2374 169.129 91.4136 172.29C90.6694 173.819 89.7873 175.276 88.7782 176.644C87.5726 178.039 85.9729 177.558 84.8137 176.357C82.7116 174.18 82.3484 170.531 81.6837 167.726L79.118 156.763C78.3916 153.664 77.3869 150.487 77.2632 147.287C77.1364 145.787 77.4252 144.28 78.0979 142.933C78.5632 142.222 79.1638 141.61 79.8653 141.131C80.5667 140.652 81.3553 140.317 82.1861 140.144C85.5787 139.168 89.6515 138.393 93.0055 139.88C93.0629 139.989 93.145 140.082 93.2451 140.152C95.4567 141.722 97.2339 143.83 98.41 146.277C99.5861 148.725 100.122 151.432 99.9686 154.144C99.7908 157.321 98.4462 160.079 96.8928 162.791Z" fill="#755C33"/>
<path d="M37.6243 175.84C37.2533 174.941 37.1684 173.624 36.4265 172.958C36.2672 172.953 36.1133 172.899 35.9859 172.803C35.4836 172.397 34.8931 172.115 34.2621 171.981C33.6311 171.846 32.9773 171.862 32.3537 172.028C31.2641 172.338 30.499 173.221 29.4634 173.64C28.9591 173.78 28.4406 173.864 27.9178 173.888C27.0831 174.027 27.2377 174.662 27.3536 175.391C27.6266 176.658 27.9855 177.906 28.4279 179.125C29.1234 181.302 28.0105 182.736 26.1094 183.642C24.9595 184.182 23.7712 184.635 22.5544 184.998C21.4564 185.228 20.3787 185.547 19.3318 185.951C18.103 186.548 17.5697 187.826 18.7212 188.833C19.586 189.496 20.6391 189.865 21.7275 189.887C24.2082 190.073 26.6194 189.236 29.077 189.112C30.454 189.059 31.8329 189.134 33.1961 189.337C34.3062 189.61 35.4395 189.779 36.581 189.84C37.6398 189.778 38.8994 188.702 39.6723 188.004C40.4352 187.341 40.993 186.472 41.2798 185.502C41.8903 183.123 40.4605 180.791 39.2859 178.838C38.6604 177.881 38.1051 176.879 37.6243 175.84V175.84Z" fill="#FFD900"/>
<path d="M96.182 188.352C95.6495 188.027 95.1336 187.675 94.6364 187.298C94.1158 186.754 93.7921 186.05 93.7168 185.299C93.5622 183.85 94.0645 182.409 94.2422 180.984C94.5127 178.83 93.8095 176.389 91.5993 175.793C91.5624 175.702 91.5075 175.619 91.4378 175.551C91.3681 175.482 91.2852 175.428 91.194 175.392C91.1028 175.357 91.0053 175.34 90.9076 175.344C90.8098 175.347 90.7139 175.371 90.6255 175.413C89.4516 175.972 88.1302 176.14 86.8542 175.893C85.6331 175.645 84.613 174.824 83.3842 174.615C82.9206 174.544 82.4473 174.576 81.9967 174.706C81.5461 174.836 81.1289 175.062 80.7736 175.369C80.4184 175.676 80.1336 176.056 79.9386 176.483C79.7435 176.911 79.6429 177.376 79.6438 177.846C79.6438 179.039 80.3316 180.069 80.5017 181.232C80.5875 182.179 80.3113 183.123 79.7288 183.874C78.6392 185.485 77.0626 186.787 76.452 188.693C75.6792 191.017 77.3331 192.358 79.2883 193.109C81.7143 194.152 84.2929 194.793 86.9237 195.007C89.4183 195.089 91.868 194.328 93.879 192.846C95.1155 191.986 98.1372 190.025 96.182 188.352Z" fill="#FFD900"/>
<path d="M40.9407 180.301C40.647 179.759 40.3302 179.232 40.0056 178.705C39.5082 177.909 39.0542 177.087 38.6454 176.242C38.4462 175.784 38.2809 175.313 38.1508 174.831C38.002 173.985 37.613 173.2 37.0303 172.569C36.9664 172.513 36.8836 172.482 36.7984 172.484C36.7145 172.486 36.6325 172.458 36.5665 172.406C35.6177 171.66 34.4495 171.248 33.2435 171.236C32.3075 171.241 31.3917 171.51 30.6004 172.011C30.4226 172.12 30.2527 172.244 30.0749 172.368C29.7378 172.63 29.3722 172.853 28.9852 173.034C28.6206 173.174 28.2318 173.24 27.8415 173.228C27.6077 173.222 27.3741 173.246 27.1459 173.297C26.1103 173.569 26.0485 174.769 26.0562 175.134C26.145 176.42 26.4318 177.685 26.9063 178.884L27.0609 179.302C27.4119 179.962 27.5238 180.723 27.3777 181.456C27.2212 181.811 26.9958 182.13 26.7144 182.396C26.4331 182.662 26.1016 182.87 25.7393 183.005C24.312 183.709 22.8149 184.259 21.2725 184.648L20.7007 184.803C19.7258 184.97 18.7966 185.339 17.9726 185.888C17.6133 186.138 17.3229 186.475 17.1284 186.868C16.9338 187.261 16.8414 187.696 16.8597 188.134C16.9161 188.647 17.0961 189.137 17.3843 189.564C17.6725 189.991 18.0601 190.34 18.5135 190.583C19.6302 191.194 20.8898 191.493 22.1612 191.451C23.4879 191.413 24.8091 191.263 26.1104 191.001H26.2804C27.5071 190.778 28.7508 190.661 29.9976 190.653C30.3299 190.653 30.6622 190.653 31.0023 190.653C32.1217 190.741 33.2359 190.886 34.3408 191.086L35.7087 191.303C35.863 191.315 36.018 191.315 36.1724 191.303C38.0889 191.303 40.1215 189.63 41.2961 187.972C43.0582 185.469 42.0767 182.409 40.9407 180.301ZM18.2971 189.537C18.1766 189.43 18.0655 189.314 17.9649 189.188C18.2919 189.027 18.6601 188.97 19.0204 189.024C19.3808 189.078 19.7161 189.24 19.9819 189.49C20.2988 189.839 20.5228 190.265 20.8242 190.598C19.8991 190.49 19.0232 190.122 18.2971 189.537V189.537ZM28.9311 189.909C27.9432 189.983 26.9603 190.113 25.9867 190.296L24.7579 190.498L24.9665 190.381C26.5122 189.56 28.1119 189.095 29.7348 189.885C29.4644 189.885 29.2016 189.893 28.9311 189.909ZM36.4352 190.637H36.211C35.5177 190.608 34.829 190.509 34.1553 190.343L33.7921 190.265L34.2095 190.133C35.8633 189.56 37.633 188.468 39.4105 189.01C38.5295 189.754 37.4553 190.575 36.4352 190.637ZM39.9592 188.452C39.9269 188.418 39.8873 188.391 39.8432 188.375C38.2976 187.747 36.6361 188.328 35.2063 188.933C34.4265 189.282 33.61 189.542 32.772 189.707C31.9099 189.843 31.0273 189.682 30.2681 189.25C29.5826 188.874 28.8163 188.669 28.0347 188.654C27.2349 188.682 26.448 188.863 25.7162 189.188C24.5261 189.676 22.6249 191.327 21.4425 190.056C20.9711 189.545 20.6697 188.871 20.0824 188.506C19.704 188.338 19.2946 188.251 18.8806 188.251C18.4666 188.251 18.0573 188.338 17.6789 188.506C17.6093 188.281 17.5857 188.044 17.6094 187.809C17.6903 187.419 17.8647 187.053 18.1179 186.746C18.371 186.438 18.6952 186.197 19.0623 186.043C19.7576 185.73 20.4861 185.499 21.2339 185.353C21.6048 185.268 22.0067 185.175 22.339 185.066C23.5368 184.708 24.7068 184.263 25.8398 183.734C26.3252 183.555 26.769 183.279 27.1438 182.922C27.5187 182.565 27.8166 182.134 28.0192 181.657H28.0733C28.4738 181.462 28.91 181.35 29.355 181.328C29.8001 181.307 30.2448 181.377 30.6622 181.533C31.4852 181.94 32.2624 182.433 32.9806 183.005C33.0237 183.03 33.0714 183.047 33.1208 183.053C33.1702 183.06 33.2204 183.056 33.2685 183.043C33.3165 183.03 33.3616 183.008 33.4011 182.978C33.4406 182.947 33.4736 182.909 33.4984 182.866C33.5498 182.778 33.5648 182.674 33.5402 182.576C33.5157 182.477 33.4535 182.392 33.367 182.339C32.5832 181.716 31.7237 181.195 30.8091 180.79C29.9523 180.488 29.0154 180.51 28.1737 180.852C28.1687 180.59 28.135 180.331 28.0733 180.077C29.8992 179.437 31.8959 179.492 33.6839 180.232C33.7715 180.28 33.8743 180.293 33.9709 180.267C34.0674 180.241 34.1502 180.178 34.2017 180.092C34.2267 180.049 34.2428 180.001 34.2493 179.952C34.2558 179.902 34.2525 179.852 34.2396 179.804C34.2266 179.756 34.2044 179.71 34.174 179.671C34.1436 179.631 34.1058 179.598 34.0626 179.573C32.1005 178.735 29.8992 178.653 27.8801 179.341C27.8337 179.186 27.7796 179.031 27.7333 178.876L27.5014 178.194C27.8374 178.103 28.1579 177.962 28.4519 177.776C28.8727 177.513 29.3553 177.366 29.8508 177.35C30.7784 177.255 31.7089 177.5 32.4706 178.039C32.8416 178.357 33.3903 177.814 33.0116 177.497C32.1882 176.86 31.1679 176.534 30.129 176.575C29.5838 176.552 29.0403 176.65 28.5369 176.861C28.1445 177.112 27.721 177.31 27.2772 177.45C27.169 177.094 27.0841 176.73 27.0068 176.358C27.0342 176.345 27.0601 176.33 27.084 176.311C28.4133 175.118 30.3531 175.335 31.9606 175.699C32.4397 175.808 32.6406 175.072 32.1615 174.963C30.384 174.552 28.3824 174.413 26.8522 175.536C26.7672 174.917 26.7904 174.165 27.7951 173.987C27.996 173.987 28.1892 173.94 28.3824 173.925C28.6778 173.918 28.9701 173.863 29.248 173.762C29.6735 173.57 30.0777 173.334 30.4536 173.057C30.9737 172.659 31.556 172.35 32.177 172.143C32.5617 172.034 32.9596 171.979 33.3594 171.98C34.3721 171.976 35.356 172.318 36.1492 172.949C36.2103 172.998 36.2873 173.023 36.3656 173.018C36.4548 173.023 36.5397 173.058 36.6052 173.119C37.1309 173.707 37.4794 174.432 37.6099 175.211C37.6871 175.527 37.7851 175.838 37.9035 176.141C38.3594 177.169 38.8889 178.164 39.4878 179.116L39.5419 179.201C40.7166 181.146 42.1695 183.571 41.528 186.074C41.2261 186.993 40.6844 187.814 39.9592 188.452V188.452Z" fill="#010101"/>
<path d="M95.7949 188.995C95.5946 188.833 95.3799 188.691 95.1535 188.569C94.8203 188.396 94.5132 188.177 94.2415 187.918C93.6651 187.313 93.3061 186.534 93.2215 185.702C93.164 184.686 93.2604 183.667 93.5074 182.68C93.6001 182.223 93.6928 181.75 93.7469 181.301C93.9942 179.294 93.3605 177.04 91.3667 176.505C91.3171 176.49 91.2709 176.465 91.2311 176.432C91.1913 176.399 91.1585 176.358 91.1348 176.311C91.1065 176.243 91.0597 176.183 90.9997 176.139C90.9397 176.095 90.8688 176.069 90.7948 176.064C90.7438 176.054 90.6913 176.054 90.6403 176.064C89.7722 176.473 88.8252 176.687 87.8658 176.691C87.456 176.691 87.0472 176.652 86.6448 176.575C86.0315 176.424 85.4376 176.203 84.875 175.916C84.3404 175.636 83.7714 175.428 83.1826 175.296C82.7275 175.22 82.2605 175.257 81.8235 175.406C81.3865 175.555 80.9932 175.81 80.6787 176.149C80.4225 176.416 80.2222 176.732 80.0894 177.078C79.9567 177.424 79.8943 177.793 79.9059 178.163C79.9552 178.781 80.0985 179.387 80.3309 179.961C80.5223 180.462 80.6647 180.981 80.7559 181.51C80.8502 182.546 80.5492 183.579 79.9136 184.4C79.5281 184.938 79.1153 185.455 78.677 185.95C77.8154 186.856 77.1382 187.922 76.6832 189.088C76.1268 190.831 77.0078 192.187 79.303 193.062C80.0759 193.349 80.8487 193.643 81.6988 193.914C81.7665 193.969 81.8518 193.996 81.9384 193.992C83.5189 194.516 85.1608 194.831 86.8225 194.929H87.2707C89.5386 194.906 91.7419 194.169 93.5692 192.822L93.7547 192.698C94.6434 192.078 96.2973 190.924 96.3437 189.878C96.3258 189.698 96.267 189.525 96.1719 189.372C96.0767 189.219 95.9477 189.09 95.7949 188.995V188.995ZM87.1935 194.356H86.753C85.4783 194.285 84.2157 194.069 82.9894 193.713C83.4994 193.426 83.9709 193.054 84.535 192.799C85.46 192.333 86.5292 192.244 87.5181 192.551C88.4377 192.861 89.1796 193.543 90.1147 193.822L90.2925 193.868C89.3004 194.197 88.2616 194.362 87.2167 194.356H87.1935ZM93.4224 192.194L93.1287 192.388C92.8646 192.575 92.5911 192.748 92.3095 192.907C92.245 192.858 92.1664 192.832 92.0854 192.832C92.0045 192.832 91.9258 192.858 91.8613 192.907C91.1348 193.504 90.0993 193.078 89.3883 192.683C88.6256 192.166 87.7657 191.81 86.8612 191.637C85.9749 191.543 85.0799 191.693 84.2722 192.071C83.4453 192.45 82.7267 193.163 81.8534 193.333C81.2429 193.132 80.6478 192.923 80.0836 192.714L79.7745 192.605C78.9055 192.392 78.1165 191.932 77.5024 191.28C76.5905 190.103 77.5951 188.53 77.9197 188.011C78.3339 187.397 78.7855 186.81 79.2721 186.252C79.8617 185.588 80.3798 184.863 80.8177 184.09C81.5906 182.626 81.3973 181.324 80.8177 179.697C80.5782 178.992 80.0449 177.373 81.3973 176.35C81.7478 176.088 82.1735 175.947 82.6107 175.947C83.2861 175.999 83.9412 176.203 84.5273 176.544L85.0527 176.792C85.9118 177.163 86.8378 177.353 87.7731 177.35C88.6653 177.346 89.5499 177.184 90.3852 176.869C90.4261 176.862 90.468 176.862 90.5089 176.869C90.5985 176.869 90.6855 176.899 90.7561 176.954C90.8066 177.01 90.8751 177.045 90.9493 177.055C91.2538 177.081 91.5493 177.172 91.8159 177.321C92.0825 177.471 92.314 177.676 92.495 177.923C93.4533 179.24 92.9973 181.619 92.7809 182.765C92.4563 184.493 92.2091 186.469 93.4147 188.018C93.649 188.312 93.9219 188.573 94.2261 188.793C94.3328 188.864 94.4438 188.929 94.5584 188.987C94.8984 189.165 95.3312 189.382 95.4472 189.816C95.7177 190.637 94.5971 191.443 93.3992 192.194H93.4224Z" fill="#010101"/>
<path d="M88.8705 185.936C88.4145 185.037 87.1935 184.735 86.2815 184.649C85.2294 184.556 84.1737 184.783 83.2521 185.3C83.1777 185.353 83.1256 185.431 83.1061 185.52C83.0866 185.609 83.1011 185.702 83.1467 185.781C83.1923 185.86 83.2658 185.919 83.3525 185.946C83.4393 185.973 83.533 185.967 83.6153 185.928C84.3763 185.504 85.2426 185.308 86.1114 185.362C86.8147 185.362 87.8967 185.602 88.2444 186.3C88.4531 186.718 89.0791 186.346 88.8705 185.936Z" fill="#010101"/>
<path d="M89.2343 184.277C88.7552 183.308 87.4414 183.037 86.4754 182.89C85.2962 182.651 84.0705 182.876 83.0518 183.518C82.6731 183.789 83.0518 184.416 83.415 184.145C84.2639 183.597 85.2905 183.397 86.2822 183.587C86.7777 183.658 87.2646 183.78 87.7351 183.951C88.1056 184.061 88.4189 184.311 88.6084 184.649C88.8093 185.067 89.4352 184.695 89.2343 184.277Z" fill="#010101"/>
<path d="M89.342 182.503C88.5433 181.683 87.49 181.16 86.3552 181.019C85.2205 180.878 84.0717 181.128 83.0976 181.728C82.7035 181.976 83.0976 182.604 83.4608 182.356C84.2946 181.833 85.2824 181.612 86.2589 181.732C87.2354 181.852 88.1411 182.305 88.8242 183.015C89.1488 183.348 89.6666 182.836 89.342 182.503Z" fill="#010101"/>
<path d="M89.6355 180.89C89.1331 179.689 87.7188 179.147 86.5055 179.015C85.2217 178.874 83.9322 179.225 82.8966 179.999C82.5333 180.278 82.8965 180.906 83.2597 180.627C84.111 179.982 85.1624 179.661 86.2273 179.72C86.7394 179.742 87.2427 179.86 87.7112 180.069C88.2319 180.243 88.6697 180.605 88.9399 181.084C89.1177 181.51 89.8132 181.324 89.6355 180.89Z" fill="#010101"/>
<path d="M36.4341 190.358H36.2099C35.516 190.33 34.8269 190.229 34.1542 190.056L33.791 189.986L34.2084 189.854C35.8622 189.281 37.6319 188.188 39.4094 188.731C38.6065 189.565 37.5682 190.133 36.4341 190.358Z" fill="#E12613"/>
<path d="M87.0928 194.356H86.6524C85.3801 194.286 84.12 194.07 82.8965 193.713C83.4065 193.426 83.8779 193.055 84.4034 192.799C85.3284 192.333 86.3976 192.244 87.3865 192.551C88.3061 192.861 89.0558 193.543 89.9909 193.822L90.1686 193.868C89.1765 194.197 88.1377 194.362 87.0928 194.356Z" fill="#E12613"/>
<path d="M82.5791 28.5442C83.3519 24.6702 83.0737 15.3729 82.0613 12.0103C81.5667 10.3368 79.1555 7.15227 77.8031 6.07531C72.1229 1.5738 65.7395 0.318749 58.2741 2.69735C49.9741 5.34712 51.2029 15.1636 51.3188 16.2174C51.512 18.2705 51.682 20.3314 51.9447 22.3769C52.2005 24.3797 52.6245 26.3571 53.2122 28.2884C53.3822 28.8618 53.3667 28.9083 52.9803 29.3344C52.7178 29.6249 52.4896 29.9446 52.3002 30.2874C51.9063 31.0241 51.6968 31.8458 51.6897 32.6816C51.6897 34.5566 53.0344 36.0597 53.0422 37.9347C53.0422 40.0188 52.4934 42.1494 52.3157 44.2258C52.1147 46.5502 52.0143 48.9211 51.9525 51.2687C51.7819 53.337 52.31 55.4028 53.4518 57.1339C54.8391 58.9238 56.4523 60.5254 58.2509 61.8988C60.0593 63.4096 61.8908 64.8973 63.7147 66.3926C63.6065 66.9737 64.1706 67.6323 64.758 67.1674C66.2258 66.0763 67.8254 65.1756 69.5185 64.4867C71.0642 63.8823 72.6098 63.4095 74.0627 62.782C76.5743 61.7128 79.0164 60.0084 79.9593 57.3199C81.0567 54.1742 81.0644 44.8458 81.5049 43.1877C81.9312 41.6989 82.0754 40.143 81.93 38.6009C82.8303 38.5743 83.6967 38.2511 84.3952 37.681C85.0937 37.111 85.5854 36.3261 85.7941 35.4476C86.6905 32.6197 85.2917 29.2725 82.5791 28.5442Z" fill="#FBC783"/>
<path d="M67.1856 55.1654C67.0805 55.0023 66.9181 54.8847 66.7306 54.8359C66.5431 54.7871 66.3442 54.8106 66.1733 54.9019C65.038 55.4407 63.7965 55.7171 62.5405 55.7103C61.2845 55.7036 60.046 55.4141 58.9165 54.8631C58.0664 54.437 57.3168 55.7155 58.1437 56.1416C59.5037 56.8169 60.9996 57.1713 62.5172 57.178C64.0348 57.1847 65.5338 56.8434 66.8997 56.1802C67.0663 56.0785 67.1885 55.9173 67.2416 55.7291C67.2946 55.5408 67.2746 55.3395 67.1856 55.1654Z" fill="#755C33"/>
<path d="M62.1304 34.4335C59.4874 35.6887 56.2725 37.0212 53.444 35.5337C52.1611 34.8673 51.2955 33.6276 51.9833 32.2098C52.6711 30.7919 54.1472 30.1645 55.376 29.4284C56.1488 28.9945 55.376 27.8787 54.6032 28.3436C53.1039 29.2424 51.4346 30.1101 50.7391 31.7991C50.4029 32.5987 50.3638 33.4927 50.629 34.3187C50.8942 35.1447 51.446 35.8478 52.1843 36.3007C55.4146 38.5708 59.4177 37.2149 62.6327 35.6808C63.3746 35.3167 62.9032 34.0694 62.1304 34.4335Z" fill="#755C33"/>
<path d="M65.0674 42.6224C63.5822 43.203 61.9956 43.4776 60.4022 43.4297C58.8088 43.3818 57.2414 43.0124 55.7936 42.3436C55.0208 41.9949 54.4644 43.1183 55.214 43.4902C56.8126 44.2352 58.5444 44.65 60.3063 44.7099C62.0681 44.7698 63.824 44.4735 65.4693 43.8388C66.2576 43.5367 65.848 42.3202 65.0674 42.6224Z" fill="#755C33"/>
<path d="M71.6442 25.8646C71.3515 25.2612 70.9133 24.7408 70.3691 24.3504C69.825 23.9599 69.1921 23.7118 68.5281 23.6287C67.8641 23.5456 67.19 23.6299 66.5667 23.8742C65.9435 24.1186 65.391 24.5151 64.9593 25.0277C64.8261 25.1901 64.7627 25.3988 64.783 25.6081C64.8033 25.8173 64.9056 26.01 65.0675 26.1436C65.2295 26.2771 65.4377 26.3406 65.6464 26.3203C65.8551 26.2999 66.0472 26.1973 66.1804 26.035C66.4508 25.7314 66.7901 25.4976 67.1697 25.3533C67.2821 25.3066 67.3984 25.2702 67.5174 25.2447H67.7183C67.8393 25.237 67.9606 25.237 68.0815 25.2447V25.2447H68.2825C68.3843 25.2579 68.4851 25.2787 68.5839 25.3067C68.5839 25.3067 68.6921 25.3067 68.7153 25.3067H68.7926L69.1093 25.4539L69.2794 25.547L69.5576 25.7562L69.6967 25.8878L69.7663 25.9576C69.7122 25.9034 69.8513 26.0583 69.8436 26.0583L69.9363 26.1822L70.029 26.3063C70.029 26.3063 70.1526 26.5231 70.0831 26.3914C70.1182 26.49 70.1728 26.5805 70.2437 26.6573C70.3147 26.7342 70.4004 26.7958 70.4957 26.8385C70.5911 26.8813 70.694 26.9042 70.7985 26.9059C70.9029 26.9076 71.0066 26.8882 71.1033 26.8486C71.2047 26.822 71.2996 26.7749 71.3823 26.7103C71.465 26.6457 71.5339 26.5651 71.5845 26.4731C71.6351 26.381 71.6665 26.2796 71.6767 26.175C71.687 26.0704 71.6759 25.9647 71.6442 25.8646Z" fill="#755C33"/>
<path d="M57.0767 22.8726C56.7077 22.298 56.1784 21.8448 55.5546 21.5693C54.9308 21.2938 54.24 21.2082 53.568 21.323C53.4645 21.3324 53.3639 21.3627 53.2723 21.4119C53.1807 21.4612 53.0999 21.5285 53.0348 21.6098C52.9687 21.6887 52.9189 21.7801 52.8883 21.8786C52.8578 21.977 52.8472 22.0805 52.8571 22.1831C52.8638 22.2878 52.8916 22.3901 52.9388 22.4837C52.9861 22.5773 53.0518 22.6604 53.132 22.7277C53.2122 22.7951 53.3052 22.8454 53.4054 22.8757C53.5056 22.9059 53.6109 22.9154 53.7149 22.9036C53.8678 22.8752 54.0231 22.8622 54.1786 22.8649C54.3638 22.8801 54.5474 22.9113 54.7273 22.9579C54.833 22.9952 54.9363 23.0392 55.0364 23.0896L55.191 23.1827C55.2274 23.2014 55.2611 23.2247 55.2914 23.2523C55.354 23.2971 55.4135 23.3464 55.4692 23.3996L55.531 23.4537C55.6261 23.5695 55.7139 23.6913 55.7938 23.818C55.9157 23.9886 56.1002 24.1036 56.3068 24.1377C56.5133 24.1719 56.7249 24.1223 56.8951 24C57.0652 23.8777 57.1799 23.6927 57.2139 23.4857C57.248 23.2786 57.1986 23.0664 57.0767 22.8959V22.8726Z" fill="#755C33"/>
<path d="M86.2116 32.1002C85.918 30.7908 85.2998 29.4193 83.9783 28.8692C83.8439 28.8233 83.7071 28.7846 83.5687 28.753V28.6679L83.3136 28.6059C82.8742 28.5246 82.4237 28.5246 81.9844 28.6059V28.6832C80.8937 28.981 79.8792 29.5094 79.0091 30.2328C78.839 30.3551 78.7243 30.5401 78.6902 30.7471C78.6562 30.9542 78.7055 31.1664 78.8275 31.3369C78.9494 31.5075 79.134 31.6225 79.3405 31.6566C79.547 31.6907 79.7586 31.6413 79.9287 31.5191C80.8638 30.8373 82.4018 29.6905 83.5919 30.4575C84.5424 31.0774 84.7356 32.5185 84.8438 33.5567C84.952 34.5949 84.9675 36.1212 83.9628 36.8573C83.0776 37.3218 82.1015 37.5863 81.1034 37.6321H80.887H80.7942C80.3537 36.7566 78.9164 37.2989 79.3337 38.2287C80.006 39.7085 81.8994 39.2824 83.1977 39.0035C83.9239 38.8601 84.5966 38.5188 85.1419 38.0172C85.6873 37.5156 86.0842 36.8731 86.289 36.16C86.6036 34.8217 86.5769 33.4255 86.2116 32.1002V32.1002Z" fill="#755C33"/>
<path d="M56.5048 38.7482C56.5048 38.477 56.2342 38.2679 55.8865 38.2059C54.6958 38.0793 53.4919 38.1954 52.347 38.5469C51.1105 38.8336 49.8817 39.128 48.6607 39.4379C48.5283 39.4527 48.4053 39.5133 48.3128 39.6094C48.2202 39.7055 48.1641 39.8311 48.154 39.9643C48.1439 40.0975 48.1806 40.23 48.2576 40.339C48.3345 40.448 48.447 40.5266 48.5757 40.5613C50.352 41.277 52.2713 41.5637 54.1786 41.3981C55.0596 41.3284 56.2729 41.2199 56.8912 40.6233C57.5094 40.0267 57.1539 39.2441 56.5048 38.7482Z" fill="#010101"/>
<path d="M71.235 40.3452H70.7945C70.7901 40.2106 70.7403 40.0813 70.6533 39.9786C70.5663 39.8759 70.4472 39.8058 70.3154 39.7796C68.5083 39.185 66.6652 38.7063 64.7975 38.3464C64.3183 38.2534 63.8315 38.1681 63.3446 38.0907C62.8773 37.9725 62.3968 37.9152 61.9149 37.9202C60.9798 38.0364 60.9798 38.9273 61.2348 39.5549C61.8299 40.996 63.6846 41.4997 65.2611 41.5695C67.2009 41.6547 69.1253 41.6391 71.0882 41.6778C71.5055 41.6778 71.861 41.4841 71.9305 41.0967C71.9368 40.9049 71.8673 40.7183 71.7371 40.5775C71.6068 40.4368 71.4263 40.3533 71.235 40.3452V40.3452Z" fill="#010101"/>
<path d="M83.1135 32.4183C82.9865 32.2354 82.8266 32.0778 82.6421 31.9535C82.5048 31.8536 82.3502 31.7801 82.1862 31.7366C81.8503 31.6399 81.4942 31.6399 81.1583 31.7366C80.7393 31.8651 80.38 32.14 80.1459 32.5113C80.0473 32.6853 80.0196 32.8907 80.0686 33.0847C80.1233 33.2691 80.2445 33.4264 80.4086 33.5262C80.5832 33.6224 80.7881 33.6475 80.9806 33.596C81.1376 33.542 81.2731 33.4388 81.367 33.3016L81.3051 33.3712L81.4056 33.2784L81.4829 33.2318H81.5911H81.6915H81.7534H81.8075C81.83 33.26 81.8482 33.2912 81.8615 33.3247V33.4255C81.8694 33.4586 81.8694 33.4931 81.8615 33.5262C81.8684 33.5542 81.8684 33.5835 81.8615 33.6115C81.7705 33.7829 81.747 33.9823 81.7957 34.1702C81.8444 34.3582 81.9617 34.5211 82.1244 34.6265C82.2953 34.7178 82.4942 34.7413 82.6817 34.6925C82.8692 34.6437 83.0316 34.5261 83.1367 34.363C83.3107 34.0655 83.394 33.7234 83.3763 33.379C83.3764 33.0409 83.2856 32.7091 83.1135 32.4183V32.4183Z" fill="#755C33"/>
<path d="M83.244 13.2346C82.8618 11.2283 82.0321 9.3347 80.8169 7.69517C79.6018 6.05564 78.0327 4.71265 76.2269 3.76676C69.1866 -0.169164 57.6098 -1.19955 52.6715 6.55607C49.9976 10.7632 50.6544 16.0703 51.3036 20.75C51.435 21.6875 52.8492 21.2924 52.7256 20.3549C52.1923 16.4809 51.6127 12.1578 53.3052 8.49303C54.9976 4.82829 58.6454 2.86022 62.4322 2.37986C66.6221 1.94279 70.8494 2.7115 74.6194 4.59583C78.0121 6.26937 80.686 8.92685 81.5747 12.6846C82.0587 14.9752 82.1994 17.3254 81.9921 19.6576C81.8472 22.3268 81.5037 24.9814 80.9643 27.5992C80.7788 28.5367 82.2008 28.9319 82.394 27.9944C83.3986 23.2449 84.1251 18.0306 83.244 13.2346Z" fill="#755C33"/>
<path d="M81.8451 40.1202C81.6287 39.1904 80.1989 39.5856 80.4153 40.5153C80.9022 42.5608 80.0908 44.7535 79.9749 46.8145C79.8589 48.8754 79.9748 50.8589 79.8435 52.8734C79.7684 54.7984 79.1872 56.6694 78.1588 58.2969C77.047 59.7524 75.6506 60.965 74.0551 61.8608C72.3538 62.9111 70.5854 63.8482 68.7613 64.6656C67.8958 65.0607 67.0225 65.4403 66.1337 65.758C65.6729 66.0043 65.1692 66.1596 64.65 66.2152C64.1322 66.1687 63.5371 65.5178 63.1043 65.1924C61.4737 63.914 59.874 62.6046 58.282 61.2719C56.6976 60.0821 55.2162 58.7604 53.8537 57.3206C52.3467 55.5386 52.8104 53.0748 52.965 50.9286L53.4982 43.7773C53.5678 42.8244 52.0839 42.8244 52.0144 43.7773C51.834 46.2205 51.6538 48.6636 51.4734 51.1068C51.3266 53.16 51.002 55.3914 52.0298 57.3051C53.0577 59.2188 54.9125 60.4042 56.4272 61.6593C58.2253 63.2089 60.0543 64.7095 61.9142 66.1609C62.5788 66.68 63.4057 67.6176 64.2789 67.7725C65.1522 67.9275 66.4274 67.2456 67.2852 66.9047C69.3842 66.0713 71.424 65.0954 73.3905 63.9837C76.8913 61.9925 79.9903 59.5674 80.9254 55.461C81.4896 52.974 81.335 50.4094 81.3891 47.8758C81.4281 46.5434 81.5598 45.2153 81.7832 43.9012C82.0598 42.6582 82.0809 41.3716 81.8451 40.1202V40.1202Z" fill="#755C33"/>
<path d="M131.831 114.84C129.088 104.225 119.938 97.0816 113.686 88.5899C110.041 83.4413 106.669 78.1034 103.585 72.5984C103.473 72.4433 103.307 72.3355 103.119 72.2959C102.932 72.2564 102.737 72.2879 102.572 72.3843C102.406 72.4807 102.282 72.6352 102.224 72.8178C102.166 73.0005 102.177 73.1984 102.256 73.3732C104.984 78.0219 107.712 82.7325 110.803 87.1875C113.982 91.5471 117.39 95.7344 121.012 99.7315C124.405 103.644 127.697 107.836 129.513 112.74C131.259 117.443 131.392 122.596 129.892 127.384C128.358 132.077 126.054 136.481 123.075 140.416C122.179 137.371 118.129 135.503 115.394 134.527C110.615 132.843 105.503 132.33 100.486 133.032C99.5046 133.171 99.9218 134.659 100.896 134.527C105.18 133.952 109.537 134.312 113.67 135.581C115.608 136.107 117.456 136.925 119.149 138.006C120.602 139.005 122.102 140.594 121.607 142.492C121.555 142.674 121.572 142.869 121.654 143.039C121.735 143.21 121.877 143.345 122.051 143.418C122.225 143.492 122.42 143.499 122.598 143.438C122.777 143.377 122.928 143.253 123.021 143.089C129.096 135.108 134.49 125.152 131.831 114.84Z" fill="#75160D"/>
<path d="M96.335 136.278C95.7245 133.853 95.1062 131.428 94.4957 129.003C94.474 128.901 94.4292 128.805 94.3649 128.724C94.3006 128.642 94.2184 128.576 94.1247 128.53C94.1498 128.4 94.1427 128.265 94.1038 128.138C94.0649 128.011 93.9955 127.895 93.9017 127.801C93.8079 127.707 93.6925 127.637 93.5657 127.598C93.4389 127.559 93.3044 127.552 93.1741 127.577C84.7427 129.235 76.5818 132.358 67.9881 133.171C63.7305 133.503 59.4475 133.227 55.2676 132.35C51.0403 131.575 46.6043 131.079 42.6552 129.251C38.7061 127.422 34.9811 124.657 30.9007 122.797C30.7237 122.718 30.5244 122.705 30.3387 122.76C30.153 122.816 29.9932 122.936 29.8882 123.099V123.099L29.8419 123.161C29.7971 123.225 29.7583 123.292 29.726 123.363C28.9143 125.61 27.8155 127.743 26.457 129.708C26.0319 130.32 26.7275 130.956 27.3303 130.847C32.0061 130.064 36.8087 130.9 40.9473 133.218C42.9875 134.349 45.1359 136.983 47.1298 137.394C47.3051 137.407 47.481 137.379 47.6435 137.312C47.8059 137.245 47.9502 137.14 48.0649 137.007C48.0736 136.99 48.0871 136.977 48.1036 136.968C48.1351 136.932 48.1686 136.899 48.204 136.867V136.867C48.2837 136.814 48.3662 136.764 48.4513 136.72H48.4977L48.6136 136.681L48.9536 136.596C49.1136 136.56 49.2766 136.539 49.4405 136.534H50.1283C50.2415 136.526 50.3551 136.526 50.4683 136.534C50.3756 136.534 50.5766 136.534 50.6461 136.58L50.7697 136.65C50.8095 136.682 50.8458 136.719 50.8779 136.759C50.9398 136.828 50.9475 136.844 50.8779 136.759L50.9707 136.883C51.0248 136.976 51.0789 137.061 51.1253 137.154L51.1948 137.293C51.1948 137.394 51.2566 137.495 51.2798 137.595C51.2842 137.644 51.2842 137.694 51.2798 137.743C51.2798 137.828 51.2798 137.913 51.2798 137.998C51.2798 138.084 51.2798 138.076 51.2798 138.114C51.2798 138.153 51.2798 138.115 51.2798 138.169C51.2798 138.223 51.187 138.455 51.2334 138.339C51.1994 138.411 51.1607 138.481 51.1176 138.548C51.1176 138.548 51.0016 138.68 50.9861 138.696C50.9539 138.733 50.9176 138.767 50.8779 138.796C50.9475 138.75 50.9398 138.75 50.8779 138.796L50.6925 138.913L50.5147 138.998C50.4297 139.037 49.1237 139.137 48.7604 139.773C47.9876 141.051 49.2396 142.825 49.2705 144.297C49.2705 145.289 49.1082 146.312 49.6801 147.195C50.252 148.078 51.5348 148.536 52.5163 148.938C57.306 150.868 62.5603 151.324 67.6094 150.248C68.5754 150.039 69.7888 149.868 70.3452 148.931C70.9016 147.993 70.8707 146.738 71.2571 145.723C72.192 143.297 74.0129 141.319 76.3499 140.191C78.9775 138.944 81.9683 138.734 84.6809 137.727C84.7953 137.696 84.9011 137.639 84.9899 137.56C85.0788 137.481 85.1483 137.383 85.1931 137.273C85.238 137.162 85.2569 137.043 85.2485 136.925C85.2401 136.806 85.2045 136.691 85.1445 136.588C85.0293 136.371 84.9744 136.126 84.9854 135.88C84.9964 135.634 85.0729 135.395 85.207 135.189C85.3411 134.983 85.5279 134.816 85.7479 134.706C85.968 134.597 86.2133 134.548 86.4584 134.566C87.7258 134.729 87.4785 135.945 88.2204 136.635C88.9623 137.324 90.2375 137.092 91.1262 137.107L95.4848 137.161C95.6024 137.175 95.7214 137.161 95.8326 137.12C95.9439 137.08 96.0445 137.015 96.1266 136.93C96.2087 136.844 96.2702 136.741 96.3063 136.628C96.3424 136.515 96.3523 136.396 96.335 136.278V136.278ZM92.6872 135.674H91.2343C90.7516 135.728 90.2642 135.728 89.7814 135.674C89.3332 135.534 89.2946 135.325 89.1168 134.899C89.0227 134.684 88.9034 134.481 88.7614 134.295C88.3961 133.823 87.8981 133.472 87.3317 133.288C86.8532 133.132 86.3424 133.105 85.8504 133.21C85.3583 133.314 84.9022 133.546 84.5276 133.882C84.1529 134.219 83.8728 134.648 83.7153 135.127C83.5578 135.606 83.5283 136.118 83.6299 136.611C81.3732 137.34 78.993 137.65 76.7672 138.51C75.2662 139.071 73.8962 139.936 72.7422 141.05C71.5883 142.164 70.6751 143.504 70.0593 144.987C69.8798 145.397 69.7274 145.819 69.6032 146.25C69.4564 146.784 69.4796 147.846 69.1241 148.272C68.7686 148.698 67.9494 148.737 67.4703 148.838C66.767 148.993 66.0637 149.124 65.3528 149.209C64.0203 149.378 62.6761 149.435 61.3341 149.38C58.7125 149.277 56.1242 148.754 53.6678 147.83C52.5317 147.396 50.9552 147.056 50.9011 145.615C50.9298 144.418 50.8182 143.221 50.5688 142.05C50.4529 141.64 49.9274 141.206 50.1515 140.842C50.4452 140.346 51.2875 140.625 51.7667 140.292C52.149 140.041 52.4597 139.695 52.6684 139.287C52.877 138.88 52.9765 138.425 52.9569 137.967C52.9302 137.492 52.8059 137.027 52.5918 136.602C52.3777 136.176 52.0784 135.8 51.7126 135.496C50.9398 134.884 49.742 134.992 48.8146 135.124C48.1036 135.225 47.663 136.03 46.9829 136.03C44.6645 136.03 43.4126 132.931 41.4496 131.847C37.5292 129.735 33.0756 128.827 28.644 129.235C29.5341 127.755 30.2944 126.199 30.9161 124.587C34.332 126.245 37.4464 128.461 40.8391 130.15C44.7959 132.141 49.0387 132.8 53.3433 133.605C57.6478 134.411 61.8442 135.155 66.226 134.907C70.5031 134.589 74.7412 133.87 78.8848 132.761C83.5912 131.583 88.2435 130.219 92.9886 129.243C92.9777 129.318 92.9777 129.393 92.9886 129.468C93.5038 131.56 94.0346 133.652 94.5807 135.744L92.6872 135.674Z" fill="#765C33"/>
<path d="M76.0805 135.884C75.9743 135.681 75.8276 135.502 75.6494 135.358C75.4713 135.214 75.2655 135.108 75.0449 135.048C75.0012 135.044 74.9572 135.044 74.9135 135.048C74.8452 134.996 74.7697 134.954 74.6895 134.924C74.3413 134.81 73.9724 134.775 73.609 134.82C73.2456 134.866 72.8968 134.991 72.5873 135.187C72.2625 135.402 71.9967 135.695 71.8145 136.039C71.6914 136.266 71.627 136.521 71.627 136.779C71.627 137.038 71.6914 137.292 71.8145 137.519C72.0674 137.872 72.4085 138.151 72.8033 138.329C73.198 138.507 73.6327 138.578 74.0634 138.534C74.4779 138.56 74.8913 138.469 75.2562 138.27C75.6212 138.071 75.923 137.773 76.1269 137.411C76.2363 137.17 76.2891 136.907 76.281 136.642C76.273 136.378 76.2043 136.118 76.0805 135.884ZM74.5348 136.884L74.4035 136.931H74.2644H74.1484H73.762H73.6848H73.5225C73.4641 136.922 73.407 136.907 73.3525 136.884H73.3061L73.2056 136.822L73.2674 136.721L73.3833 136.613L73.5302 136.528L73.7852 136.466H73.8702H74.0712L74.2644 136.52C74.3 136.527 74.3369 136.527 74.3726 136.52C74.4446 136.575 74.5256 136.617 74.6121 136.644C74.6234 136.663 74.6394 136.679 74.6585 136.69V136.69C74.6585 136.69 74.6585 136.729 74.6585 136.745L74.5658 136.83L74.5194 136.868L74.5348 136.884Z" fill="#765C33"/>
<path d="M59.0406 122.976C56.0807 122.48 52.5334 119.923 49.1176 117.049C46.15 114.5 43.4838 111.625 42.0386 109.224C41.5165 108.456 41.1997 107.567 41.1185 106.642C41.0373 105.717 41.1944 104.786 41.5749 103.939C41.3894 106.791 45.5472 109.239 49.079 111.083C51.5074 112.337 54.1613 113.091 56.8847 113.301C59.6081 113.511 62.346 113.173 64.9372 112.307C65.0477 112.28 65.1491 112.224 65.2309 112.145C65.285 112.199 65.3313 112.261 65.3854 112.307C65.4395 112.354 65.3854 112.307 65.3854 112.307C65.7017 114.556 66.2668 116.762 67.0702 118.885C67.1057 118.972 67.168 119.045 67.2479 119.094C64.4271 121.845 62.0237 123.487 59.0406 122.976Z" fill="#FDD821"/>
<path d="M67.1624 114.189C66.9924 113.321 66.8455 112.43 66.6986 111.547C66.6815 111.42 66.6266 111.302 66.541 111.208C66.4554 111.114 66.3432 111.048 66.2195 111.02C63.8083 108.494 61.5362 105.325 58.5918 103.156C64.2411 102.892 69.9909 104.155 75.6634 103.752C76.6042 106.699 76.9406 109.806 76.6525 112.887C73.8549 112.748 70.3541 113.708 67.1624 114.189Z" fill="#E9C721"/>
<path d="M76.111 102.204C76.0665 102.254 76.0336 102.314 76.0149 102.378C75.9962 102.442 75.9921 102.51 76.0028 102.576C69.5344 102.964 62.9964 101.127 56.6825 101.91C56.5493 101.941 56.4268 102.007 56.3275 102.101C56.2281 102.196 56.1554 102.315 56.1169 102.446C56.0784 102.578 56.0754 102.717 56.1082 102.85C56.1411 102.983 56.2086 103.105 56.3038 103.204C56.3618 103.355 56.4713 103.482 56.6129 103.56C59.7042 105.319 62.0227 108.395 64.2638 111.029C59.8238 112.342 55.0742 112.138 50.7627 110.448C46.8986 108.852 42.7177 106.396 43.0345 103.204C43.3514 100.012 48.0038 96.3935 50.925 93.8522C53.3927 91.7191 56.2223 90.0474 59.2791 88.9167C59.3847 88.8802 59.4729 88.8058 59.5265 88.7077C62.5482 87.8554 65.6316 88.4907 69.6889 90.7995C72.2475 92.2263 74.5596 94.0577 76.5361 96.223C78.4682 98.4389 77.618 100.368 76.111 102.204Z" fill="#FDE050"/>
<path d="M80.8402 105.939C80.6548 107.728 80.5156 110.44 78.0117 112.392C78.3557 109.293 77.9883 106.155 76.9375 103.219C76.9388 103.193 76.9388 103.167 76.9375 103.142C77.0824 103.119 77.2144 103.045 77.3085 102.932C78.2772 101.953 78.8546 100.652 78.9314 99.2754C80.5698 101.515 81.1803 103.467 80.8402 105.939Z" fill="#FDD821"/>
<path d="M79.0406 97.7722C78.8876 97.6089 78.6963 97.4864 78.4841 97.4158C77.5954 95.6028 75.3156 93.596 72.2089 91.4576C66.5982 87.5836 62.7032 86.158 59.071 87.3899C59.0135 87.4082 58.9604 87.4384 58.9152 87.4784C58.8699 87.5185 58.8335 87.5674 58.8083 87.6224C50.4928 90.861 43.1897 99.8872 42.9965 99.7788C40.3767 103.196 38.9392 105.388 40.2607 108.356C41.5127 111.153 45.0985 114.554 48.6612 117.8C52.3553 121.101 56.0494 123.689 59.0556 124.417C62.3324 125.285 65.184 122.867 68.5071 119.443C69.0945 118.839 68.8395 118.048 68.3217 118.188C68.3408 118.067 68.3246 117.943 68.2753 117.831C67.9573 117.078 67.6989 116.301 67.5024 115.507C70.5241 114.941 73.9014 113.911 76.413 114.174C76.6382 114.15 76.8528 114.066 77.0338 113.929C77.2148 113.793 77.3554 113.61 77.4408 113.4V113.4C77.5877 113.539 77.8891 113.531 78.2678 113.252C79.3296 112.502 80.2222 111.536 80.8878 110.418C81.5535 109.299 81.9773 108.053 82.1319 106.76C82.6419 103.343 82.1241 101.019 79.0406 97.7722ZM59.0865 122.945C56.1189 122.457 52.5871 119.9 49.1635 117.026C46.4263 114.789 44.0423 112.151 42.0923 109.2C41.5688 108.432 41.2511 107.542 41.1699 106.615C41.0887 105.688 41.2467 104.756 41.6286 103.908C41.4509 106.76 45.6008 109.216 49.1326 111.052C51.5616 112.304 54.2158 113.057 56.9392 113.266C59.6625 113.475 62.4001 113.136 64.9908 112.268C65.1021 112.237 65.2051 112.182 65.2922 112.106L65.439 112.268C65.754 114.515 66.3192 116.718 67.1238 118.839C67.1573 118.927 67.22 119.001 67.3015 119.048C64.4807 121.798 62.085 123.487 59.0865 122.945V122.945ZM67.2165 114.174C67.0465 113.299 66.8997 112.408 66.7528 111.525C66.7343 111.4 66.6797 111.284 66.5959 111.19C66.5122 111.097 66.4028 111.03 66.2814 110.998C63.8625 108.48 61.5904 105.311 58.646 103.134C64.2953 102.87 70.045 104.133 75.7175 103.73C76.6598 106.677 76.9989 109.784 76.7144 112.865C73.9168 112.71 70.4082 113.663 67.2165 114.19V114.174ZM76.1579 102.165C76.1147 102.216 76.0828 102.275 76.0642 102.34C76.0455 102.404 76.0406 102.471 76.0498 102.537C69.5891 102.917 63.0511 101.081 56.7294 101.871C56.5963 101.902 56.4737 101.968 56.3744 102.062C56.275 102.156 56.2024 102.276 56.1639 102.407C56.1254 102.539 56.1224 102.678 56.1552 102.811C56.188 102.944 56.2555 103.066 56.3508 103.165C56.4104 103.315 56.5194 103.441 56.6598 103.521C59.7511 105.28 62.0696 108.356 64.3184 110.99C59.876 112.305 55.1234 112.101 50.8096 110.409C46.9456 108.859 42.7646 106.365 43.0815 103.165C43.3984 99.9648 48.0507 96.3465 50.9719 93.7974C53.439 91.6694 56.2656 90.0008 59.3184 88.8699C59.4239 88.8335 59.512 88.7588 59.5656 88.6607C62.5796 87.8084 65.6631 88.4437 69.7204 90.7603C72.277 92.1935 74.5907 94.0241 76.5753 96.1838C78.515 98.4075 77.6649 100.329 76.1579 102.165V102.165ZM80.8953 105.9C80.7175 107.689 80.5708 110.394 78.0746 112.346C78.4153 109.245 78.0452 106.108 76.9926 103.172V103.103C77.1396 103.08 77.2739 103.006 77.3713 102.893C78.3348 101.911 78.9089 100.612 78.9865 99.2364C80.6171 101.476 81.2353 103.428 80.8953 105.9V105.9Z" fill="#9D7637"/>
<path d="M69.2565 105.666C69.1312 105.602 68.9889 105.58 68.85 105.602C68.7112 105.624 68.5829 105.69 68.4837 105.79C68.3643 105.723 68.2285 105.691 68.0917 105.698C67.955 105.705 67.823 105.75 67.7109 105.829C67.3816 106.076 67.1325 106.415 66.995 106.804C66.8575 107.193 66.8377 107.614 66.9381 108.014C67.0887 108.389 67.3732 108.694 67.7361 108.87C68.099 109.046 68.5143 109.081 68.9011 108.967C69.3187 108.92 69.7079 108.731 70.0044 108.433C70.3008 108.134 70.4868 107.743 70.5317 107.324C70.5047 106.953 70.3695 106.598 70.1428 106.303C69.916 106.008 69.6078 105.787 69.2565 105.666ZM69.0943 107.518C69.1561 107.386 69.0015 107.564 69.0943 107.518C69.0435 107.557 68.9858 107.586 68.9242 107.603C68.7867 107.645 68.642 107.659 68.4992 107.642C68.4992 107.642 68.2905 107.533 68.3832 107.595C68.3623 107.584 68.3439 107.568 68.3292 107.549C68.3158 107.477 68.3158 107.404 68.3292 107.332C68.372 107.184 68.4581 107.051 68.5765 106.952L68.6151 106.914L68.7079 106.968C68.7697 106.968 68.7851 106.968 68.7851 106.968L68.8469 107.014L68.9783 107.107C69.0267 107.158 69.0706 107.212 69.1097 107.27C69.0556 107.2 69.1097 107.378 69.1097 107.371C69.1057 107.404 69.1057 107.438 69.1097 107.472L69.0943 107.518Z" fill="#9D7637"/>
<path d="M75.4007 108.455L75.2848 108.409C75.1726 108.329 75.0352 108.293 74.8984 108.308C74.377 108.333 73.8717 108.498 73.4354 108.786C72.9992 109.073 72.6477 109.473 72.4176 109.943C71.9153 110.966 72.2631 111.973 73.1905 112.197C74.1178 112.422 75.2538 111.756 75.8798 110.803C76.0239 110.625 76.127 110.417 76.1813 110.195C76.2357 109.972 76.2401 109.74 76.1943 109.515C76.1484 109.291 76.0535 109.079 75.9162 108.896C75.779 108.713 75.6029 108.562 75.4007 108.455ZM74.7438 110.423C74.6775 110.588 74.5569 110.724 74.4022 110.81C74.2475 110.896 74.068 110.926 73.8937 110.896C73.1209 110.772 73.8474 109.718 74.4888 109.602C74.6291 109.679 74.734 109.808 74.7816 109.961C74.8291 110.114 74.8156 110.28 74.7438 110.423V110.423Z" fill="#9D7637"/>
<path d="M75.1609 105.234C74.9896 104.904 74.7213 104.635 74.3922 104.463C74.0632 104.291 73.6894 104.225 73.3216 104.273C73.1176 104.237 72.9075 104.273 72.7265 104.374C72.3931 104.55 72.1389 104.846 72.0155 105.203C71.892 105.56 71.9087 105.95 72.0619 106.295C72.2629 106.657 72.5955 106.926 72.9902 107.048C73.3848 107.169 73.8109 107.132 74.1794 106.946C74.5352 106.848 74.8379 106.613 75.0217 106.293C75.2056 105.972 75.2556 105.591 75.1609 105.234V105.234ZM73.7003 105.799C73.6298 105.822 73.5543 105.822 73.4838 105.799H73.4375L73.3834 105.738C73.3826 105.725 73.3826 105.712 73.3834 105.699V105.645C73.3805 105.621 73.3805 105.598 73.3834 105.575H73.4838C73.4143 105.575 73.5457 105.575 73.5998 105.575C73.6539 105.575 73.7157 105.621 73.7003 105.575H73.7543V105.621C73.7543 105.621 73.7543 105.668 73.7543 105.691C73.7543 105.714 73.7698 105.769 73.7003 105.799Z" fill="#9D7637"/>
<path d="M63.4293 104.66C62.5174 104.792 62.6565 106.21 63.5839 106.086C63.7584 106.049 63.913 105.949 64.0176 105.804C64.1223 105.659 64.1696 105.481 64.1504 105.303C64.1311 105.125 64.0466 104.961 63.9134 104.842C63.7801 104.724 63.6076 104.659 63.4293 104.66V104.66Z" fill="#9D7637"/>
<path d="M68.8851 110.719C67.9886 110.913 68.0427 112.323 68.9314 112.098C69.8201 111.873 69.797 110.51 68.8851 110.719Z" fill="#9D7637"/>
<path d="M72.0532 107.535C71.149 107.713 71.234 109.084 72.1382 108.836C73.0423 108.588 72.9728 107.349 72.0532 107.535Z" fill="#9D7637"/>
<path d="M92.6878 135.675H91.2349C90.7521 135.73 90.2647 135.73 89.782 135.675C89.3337 135.536 89.2951 135.326 89.1174 134.9C89.0232 134.685 88.9039 134.483 88.7619 134.296C88.3966 133.824 87.8986 133.473 87.3322 133.289C86.8537 133.133 86.343 133.107 85.8509 133.211C85.3588 133.315 84.9028 133.547 84.5281 133.884C84.1534 134.22 83.8734 134.649 83.7158 135.128C83.5583 135.607 83.5288 136.119 83.6304 136.613C81.3738 137.341 78.9935 137.651 76.7678 138.511C75.2667 139.072 73.8967 139.937 72.7428 141.051C71.5888 142.165 70.6756 143.505 70.0598 144.988C69.8803 145.399 69.728 145.82 69.6038 146.251C69.4569 146.786 69.4801 147.847 69.1246 148.273C68.7691 148.699 67.9499 148.738 67.4708 148.839C66.7675 148.994 66.0643 149.125 65.3533 149.211C64.0208 149.38 62.6766 149.437 61.3347 149.381C58.713 149.279 56.1247 148.755 53.6683 147.831C52.5323 147.398 50.9558 147.057 50.9017 145.616C50.9303 144.419 50.8187 143.223 50.5693 142.052C50.4534 141.641 49.9279 141.207 50.152 140.843C50.4457 140.347 51.2881 140.626 51.7672 140.293C52.1495 140.042 52.4602 139.696 52.6689 139.289C52.8775 138.881 52.977 138.426 52.9574 137.968C52.9307 137.493 52.8064 137.028 52.5923 136.603C52.3782 136.177 52.0789 135.801 51.7132 135.497C50.9403 134.885 49.7425 134.993 48.8151 135.125C48.1041 135.226 47.6635 136.032 46.9834 136.032C44.665 136.032 43.4131 132.932 41.4501 131.848C37.5297 129.736 33.0761 128.828 28.6445 129.237C29.5346 127.756 30.2949 126.2 30.9167 124.588C34.3325 126.246 37.4469 128.462 40.8396 130.151C44.7964 132.142 49.0392 132.801 53.3438 133.607C57.6484 134.412 61.8447 135.156 66.2266 134.908C70.5036 134.59 74.7417 133.871 78.8853 132.762C83.5917 131.584 88.2441 130.221 92.9892 129.244C92.9783 129.319 92.9783 129.395 92.9892 129.469C93.5044 131.561 94.0351 133.653 94.5812 135.745L92.6878 135.675Z" fill="#FFD900"/>
<path d="M129.621 127.765C128.082 132.46 125.776 136.867 122.797 140.804C121.908 137.752 117.858 135.884 115.115 134.908C110.857 133.359 101.536 133.831 97.0464 134.211C98.4452 131.809 94.7744 128.842 95.2381 126.099C95.9181 122.047 99.2722 112.199 100.169 107.837C101.235 102.654 102.325 97.5555 100.996 89.9006C100.315 86.0267 95.8872 78.7825 100.555 71.2051C102.788 75.017 107.974 83.9347 110.493 87.5685C113.673 91.9297 117.084 96.1171 120.71 100.112C124.095 104.025 127.387 108.225 129.211 113.121C130.963 117.822 131.107 122.973 129.621 127.765V127.765Z" fill="#E63220"/>
<path d="M87.5646 26.134C87.4794 26.0525 87.3718 25.9983 87.2556 25.9789C86.863 25.9501 86.4802 25.8429 86.1297 25.6632C85.7793 25.4836 85.4684 25.2353 85.2153 24.9331C84.8444 24.4062 84.8366 23.7243 85.5785 23.639C85.6785 23.6353 85.774 23.5971 85.849 23.5306C89.0878 24.0202 92.3951 23.7713 95.5247 22.8024C98.4614 21.8959 102.325 19.7032 105.03 22.167C104.5 22.7151 104.203 23.4489 104.203 24.2126C104.234 24.593 104.345 24.9626 104.528 25.2972C102.635 24.7858 100.417 25.5761 98.7782 26.4283C96.6993 27.5053 94.7209 28.1097 92.387 27.4201C91.421 27.1412 90.5091 26.6454 89.5585 26.3122C88.911 26.1275 88.2345 26.0671 87.5646 26.134V26.134Z" fill="#E63220"/>
<path d="M104.675 36.0286C101.908 37.6169 98.4922 35.4087 96.4133 33.7042C94.0949 31.8989 92.0855 30.0625 89.1334 30.0548C87.5878 29.0708 88.9866 28.2108 90.254 28.3038C91.7147 28.42 93.1134 29.3421 94.2804 30.1556C94.3445 30.2078 94.4217 30.2412 94.5035 30.2521C94.5853 30.263 94.6685 30.2511 94.744 30.2177C96.1461 31.0388 97.6819 31.6053 99.2805 31.8911C101.39 32.1158 103.763 31.2326 105.664 32.3251C104.667 33.4098 104.064 34.7114 104.675 36.0286Z" fill="#E63220"/>
<path d="M52.0004 22.6954C52.0955 22.8237 52.1591 22.9726 52.1859 23.1301C52.2128 23.2876 52.2021 23.4494 52.1549 23.6021C51.9907 23.957 51.7206 24.2519 51.3821 24.4465C51.2422 24.666 51.1511 24.9133 51.1151 25.1713C51.0791 25.4294 51.099 25.6923 51.1734 25.9419C52.1394 26.1434 53.0669 25.7792 54.0251 25.9419C55.5244 26.1976 56.7995 26.9258 58.3684 26.8251C59.4812 26.7476 60.4163 25.903 61.4055 25.3839C62.3947 24.8648 63.4612 25.2601 64.3345 25.5468C66.6529 26.3216 68.1985 28.5917 70.5788 29.0566C72.9591 29.5215 79.5357 28.5063 82.0938 28.9092C82.1422 28.8693 82.1971 28.838 82.256 28.8164C82.5194 28.7518 82.7497 28.5917 82.9023 28.3671C83.055 28.1425 83.1194 27.8692 83.083 27.5999C83.083 27.197 82.7739 26.8251 82.7121 26.4377C82.6575 26.136 82.7065 25.8247 82.8511 25.5545C82.9516 25.3531 83.3612 25.0199 83.1062 24.8881C80.61 24.7487 74.497 23.7646 72.194 22.8659C70.7309 22.1658 69.1238 21.8209 67.503 21.8588C66.537 21.9595 65.5942 22.4321 64.6204 22.5871C61.931 23.0209 60.2849 19.488 57.5723 20.1466C56.5522 20.3867 55.6635 21.4094 54.6588 21.8045C53.933 22.0302 53.1618 22.0675 52.4176 21.9129C52.3673 21.9439 52.3111 21.9641 52.2525 21.9721C52.194 21.9801 52.1344 21.9758 52.0776 21.9594C50.9339 21.6418 51.9231 22.5715 52.0004 22.6954Z" fill="#E63220"/>
<path d="M52.7257 23.5401C52.2542 24.1367 53.2667 24.7565 53.7381 24.1599C54.6036 23.052 56.2883 23.788 57.1307 24.5473C57.6948 25.0587 58.5604 24.2529 57.9962 23.7726C56.5047 22.3857 54.1322 21.7503 52.7257 23.5401Z" fill="#75160D"/>
<path d="M68.1051 24.0352C67.4095 24.3606 67.9659 25.4066 68.6537 25.0812C69.3771 24.7268 70.2066 24.6567 70.979 24.8847C71.7513 25.1127 72.4106 25.6223 72.8269 26.3132C73.2597 26.933 74.3107 26.3907 73.878 25.7631C72.5333 23.7874 70.3462 22.9815 68.1051 24.0352Z" fill="#75160D"/>
<path d="M50.3064 23.9805C50.116 24.2718 50.0239 24.6167 50.0436 24.9645C50.1364 25.7393 49.9509 26.4442 50.5768 26.9478C50.6548 27.01 50.7515 27.0439 50.8512 27.0439C50.9508 27.0439 51.0476 27.01 51.1256 26.9478C52.1534 27.0795 53.2277 26.7076 54.2169 26.9478C55.3838 27.2809 56.5353 27.8776 57.795 27.8001C58.7674 27.7582 59.7112 27.4587 60.5307 26.9323C61.1839 26.4549 61.9713 26.1978 62.7796 26.1978C63.5879 26.1978 64.3754 26.4549 65.0285 26.9323C67.0379 28.1642 68.4521 29.7447 70.8401 30.0314C73.3672 30.3181 79.6734 29.3342 82.2159 29.892C82.3326 29.9181 82.4547 29.8981 82.557 29.836C82.6592 29.7739 82.7336 29.6746 82.7646 29.5589C83.0418 29.4158 83.2874 29.2181 83.4866 28.9776C83.6858 28.7372 83.8347 28.4588 83.9241 28.1593C84.0136 27.8599 84.0419 27.5454 84.0073 27.2347C83.9728 26.9241 83.876 26.6235 83.7229 26.3512C83.5297 25.894 84.0088 25.5764 84.202 25.22C84.3023 24.9528 84.3023 24.6583 84.202 24.3911C84.0938 23.872 83.4756 23.6551 83.066 23.6163C82.9927 23.5962 82.9152 23.5962 82.8419 23.6163C78.9231 23.1239 75.0477 22.3313 71.2496 21.2454C70.1434 20.7823 68.9553 20.5477 67.7565 20.5558C66.8736 20.717 66.0013 20.9318 65.1444 21.1989C62.37 21.8652 60.9248 18.8125 58.3205 18.8125C57.4025 18.8183 56.5129 19.1321 55.7933 19.7036C55.2849 20.1097 54.6955 20.4014 54.0648 20.5592C53.4341 20.7169 52.777 20.7369 52.1379 20.6178C52.0401 20.6039 51.9404 20.6201 51.852 20.6643C51.5762 20.6469 51.3017 20.7155 51.0664 20.8609C50.8311 21.0062 50.6465 21.2212 50.5381 21.476C50.4296 21.7309 50.4025 22.0132 50.4607 22.2841C50.5189 22.555 50.6593 22.8012 50.8628 22.9887C51.1487 23.3219 50.4996 23.7248 50.3064 23.9805ZM51.9911 21.8731C52.0477 21.8915 52.1075 21.8968 52.1664 21.8888C52.2253 21.8807 52.2816 21.8595 52.3311 21.8265C53.0747 21.9885 53.8478 21.951 54.5723 21.718C55.5693 21.3228 56.4657 20.3079 57.4859 20.06C60.1984 19.4169 61.8368 22.9344 64.5339 22.5005C65.4999 22.3455 66.4428 21.8807 67.4165 21.7722C69.0342 21.741 70.6371 22.0858 72.0997 22.7795C74.4182 23.6783 80.5157 24.6621 83.0196 24.8016C83.2669 24.9411 82.8651 25.2666 82.7646 25.468C82.6167 25.7399 82.565 26.0538 82.6178 26.3589C82.6796 26.7463 82.9965 27.1337 82.9965 27.5134C83.0277 27.784 82.9605 28.0568 82.8072 28.2817C82.6538 28.5066 82.4246 28.6685 82.1618 28.7376C82.1043 28.7534 82.0514 28.7827 82.0073 28.8229C79.4415 28.42 73.0117 29.4504 70.4923 28.9701C67.9729 28.4897 66.551 26.2273 64.2403 25.4602C63.367 25.1736 62.2309 24.8172 61.3112 25.2976C60.3916 25.7779 59.3947 26.6688 58.2819 26.7386C56.7362 26.8393 55.4302 26.1111 53.9309 25.8554C52.9804 25.7004 52.0452 26.0646 51.0792 25.8554C51.0066 25.6042 50.9877 25.3406 51.0236 25.0816C51.0596 24.8225 51.1496 24.5741 51.2879 24.3523C51.6291 24.1611 51.9 23.865 52.0607 23.5078C52.1079 23.3551 52.1186 23.1935 52.0917 23.036C52.0648 22.8785 52.0013 22.7296 51.9061 22.6013C51.8366 22.4851 50.8396 21.5554 51.9911 21.8731V21.8731Z" fill="#75160D"/>
<path d="M92.0305 28.4674C93.2535 28.8297 94.5406 28.9195 95.8019 28.7307C98.7308 28.4595 101.83 24.8568 104.898 26.6233C104.98 26.6748 105.075 26.7022 105.172 26.7022C105.269 26.7022 105.364 26.6748 105.447 26.6233C105.879 26.848 106.444 26.205 106.073 25.7169C105.354 24.7484 104.929 23.9037 105.802 22.881C105.87 22.8055 105.916 22.713 105.935 22.6134C105.954 22.5137 105.945 22.4107 105.91 22.3154C105.97 22.2717 106.019 22.2154 106.055 22.1503C106.09 22.0852 106.111 22.013 106.115 21.939C106.12 21.865 106.108 21.7909 106.08 21.7221C106.053 21.6532 106.011 21.5912 105.957 21.5407C103.584 19.2163 100.431 19.9137 97.5794 20.8822C95.8389 21.5272 94.0542 22.0451 92.2392 22.4318C89.8297 22.808 87.3728 22.753 84.9825 22.2691C84.2792 22.1606 84.2483 23.2608 84.9825 23.3692C88.4937 24.0187 92.1092 23.8114 95.5237 22.7649C98.4526 21.8584 102.317 19.6657 105.029 22.1295C104.764 22.3988 104.554 22.7181 104.412 23.0692C104.27 23.4203 104.199 23.7962 104.202 24.175C104.233 24.5555 104.344 24.925 104.527 25.2597C102.634 24.7483 100.416 25.5386 98.7772 26.3908C96.6983 27.4678 94.72 28.0721 92.3784 27.3826C91.4123 27.1037 90.5081 26.6079 89.5576 26.2747C88.6302 26.0629 87.6733 26.0131 86.729 26.1275C86.0258 26.1275 85.9562 27.2432 86.729 27.2277C87.7692 27.1372 88.8171 27.2396 89.8203 27.5298C90.539 27.8242 91.2654 28.1885 92.0305 28.4674Z" fill="#75160D"/>
<path d="M106.854 32.0614C106.828 31.9178 106.751 31.7885 106.637 31.6973C105.362 30.7133 103.917 30.6358 102.356 30.7365C101.173 30.8915 99.9758 30.8915 98.7933 30.7365C97.472 30.3937 96.2032 29.8724 95.022 29.187C94.396 28.8771 93.8087 29.8145 94.4501 30.1244C95.9957 30.8992 97.5414 31.7438 99.2416 31.922C101.351 32.1467 103.716 31.2633 105.625 32.3557C104.628 33.4094 104.025 34.6803 104.636 36.0284C101.869 37.6167 98.4533 35.4086 96.3667 33.704C93.9864 31.8213 91.8689 29.8997 88.7081 30.0546C88.0049 30.0934 87.9353 31.1937 88.7081 31.155C92.7886 30.9613 95.5397 34.9127 98.8783 36.7567C100.656 37.7406 103.755 37.9654 105.478 36.7954L105.579 36.7024C105.658 36.6635 105.727 36.608 105.783 36.5397C105.838 36.4713 105.878 36.3916 105.9 36.3063C105.922 36.2209 105.926 36.132 105.91 36.0452C105.895 35.9585 105.861 35.876 105.811 35.8037C104.968 34.6647 105.973 33.4793 106.823 32.7045C106.901 32.6171 106.946 32.5055 106.952 32.3885C106.958 32.2714 106.923 32.1559 106.854 32.0614Z" fill="#75160D"/>
</svg>
