<svg width="94" height="101" viewBox="0 0 94 101" fill="none" xmlns="http://www.w3.org/2000/svg">
<path d="M85.8878 51.3432C85.7277 51.0789 85.4737 50.8852 85.1769 50.8009C85.0999 50.7924 85.0221 50.7924 84.945 50.8009C84.3532 50.1783 83.5932 49.742 82.758 49.5457L79.7826 48.4533C78.3529 47.9264 77.7347 50.2121 79.1489 50.7777L81.3205 51.5524L82.4024 51.9553L82.8353 52.1258C82.7922 52.166 82.7456 52.2024 82.6961 52.2344C82.4557 52.3914 82.1959 52.5164 81.9233 52.6062C81.25 52.8131 80.5594 52.9581 79.8599 53.04C77.727 53.3344 75.6249 53.7218 73.5305 54.1866C73.4277 54.0907 73.3054 54.0182 73.172 53.974C73.0386 53.9299 72.8973 53.9153 72.7577 53.9311L71.5676 54.0627C71.5417 53.468 71.5624 52.8722 71.6294 52.2807C71.6835 51.9398 71.7454 51.599 71.8226 51.2659C71.8637 51.1145 71.8745 50.9565 71.8547 50.8009C71.8348 50.6454 71.7845 50.4953 71.7067 50.3592L71.6062 50.2198L75.9262 51.4596C76.2178 51.5146 76.5193 51.4576 76.771 51.3001C77.0227 51.1426 77.2062 50.8961 77.285 50.6093C77.3638 50.3225 77.3322 50.0167 77.1965 49.7522C77.0608 49.4878 76.8308 49.284 76.5523 49.1815L63.6694 45.4703C59.5735 44.2926 55.4157 42.6346 51.0802 43.0143C46.7447 43.3939 42.2856 44.0215 37.896 44.5638C33.5064 45.1062 29.055 45.7105 24.6345 46.3149C19.6421 47.007 14.6574 47.7328 9.68051 48.4921C9.37937 48.5772 9.12377 48.7777 8.96901 49.0503C8.81425 49.3229 8.77278 49.6456 8.85359 49.9486C8.89524 50.0965 8.96333 50.2357 9.05453 50.3592C8.7454 50.4057 8.444 50.4677 8.13488 50.5219C8.28056 50.3511 8.37517 50.1426 8.40779 49.9202C8.44042 49.6979 8.40975 49.4708 8.31931 49.2652C8.22886 49.0595 8.08234 48.8836 7.89658 48.7578C7.71082 48.632 7.49338 48.5615 7.26933 48.5541C5.60563 48.5003 3.94933 48.7986 2.40833 49.4295C2.08405 49.5838 1.79629 49.8057 1.5642 50.0802C1.3321 50.3548 1.16098 50.6757 1.06227 51.0217C0.963565 51.3677 0.939507 51.7308 0.991709 52.0868C1.04391 52.4429 1.17116 52.7836 1.365 53.0865C2.13782 54.4966 3.68347 55.2714 5.05908 56.023C6.55835 56.8598 8.09625 57.619 9.69598 58.3473C9.70636 60.0621 9.81732 61.7747 10.0283 63.4763C9.92089 63.4251 9.80615 63.3912 9.68824 63.3757C9.62819 61.7267 9.20876 60.1108 8.45944 58.6417C7.68663 57.309 5.68508 58.5022 6.42698 59.8349C7.06802 61.1987 7.39549 62.6894 7.38527 64.197C7.49861 65.9997 7.60938 67.8075 7.71757 69.6205C7.9185 73.0529 8.01124 76.5238 8.38992 79.9406C8.7145 82.8538 9.41777 85.7671 11.3884 88.0217C13.3591 90.2764 16.3654 91.33 19.0548 92.5774C22.033 93.9566 24.7744 95.8002 27.1771 98.0397C27.4573 98.5079 27.8123 98.9267 28.2281 99.2794C31.0257 101.658 35.0521 99.969 38.1124 99.0935C45.5701 96.9551 52.9814 94.6616 60.269 91.9886C63.8858 90.6637 67.4794 89.2613 71.0034 87.704C72.5265 87.1203 73.8623 86.132 74.8675 84.845C75.7398 83.4132 76.2688 81.7982 76.4131 80.1267C77.0493 75.8373 77.9266 71.5871 79.0407 67.3968C79.4769 65.4052 80.0474 63.4458 80.7486 61.5318C81.3669 60.0442 82.5339 58.4326 84.2882 58.3939C84.452 58.3899 84.6132 58.3512 84.7613 58.2806C84.9093 58.2099 85.0408 58.109 85.1473 57.984C85.2537 57.859 85.3327 57.7128 85.3791 57.5552C85.4254 57.3975 85.4382 57.2319 85.4164 57.069C85.553 56.9675 85.6625 56.8336 85.7353 56.6795C85.8081 56.5255 85.8419 56.3559 85.8338 56.1857C85.7704 54.926 85.8195 53.6634 85.9806 52.4125V52.3427C86.08 52.0101 86.0467 51.6518 85.8878 51.3432ZM70.3156 49.7937C70.1305 49.8439 69.9618 49.9418 69.8262 50.0778C69.6906 50.2137 69.5929 50.3829 69.5428 50.5684C69.2525 51.7354 69.1379 52.9394 69.2028 54.1403C69.199 54.1841 69.199 54.2281 69.2028 54.272L67.6571 54.4657C67.6822 54.312 67.6951 54.1564 67.6958 54.0007C67.6958 53.5436 67.6958 53.0864 67.6958 52.6293V49.693C67.6944 49.4104 67.5962 49.1369 67.4176 48.9182L70.3156 49.7937ZM58.8316 47.5313C59.1016 47.5939 59.3847 47.5639 59.6356 47.4458C59.8864 47.3278 60.0904 47.1286 60.2149 46.8805L61.6524 47.2989L66.1656 48.6005C65.929 48.6733 65.7218 48.8201 65.5744 49.0194C65.4269 49.2188 65.3471 49.4604 65.3464 49.7085C65.3464 50.5918 65.3464 51.4672 65.3464 52.3427C65.3464 52.7844 65.3464 53.2182 65.3464 53.6598C65.3464 53.8225 65.3464 53.9776 65.3464 54.1403C65.2023 54.3506 65.1218 54.598 65.1145 54.853L63.8935 55.0545C64.0004 54.1106 64.0494 53.161 64.0404 52.2111V49.2979C64.0749 49.1258 64.0708 48.9482 64.0285 48.7779C63.9863 48.6076 63.9068 48.4489 63.7959 48.3131C63.685 48.1774 63.5454 48.068 63.3872 47.9929C63.229 47.9178 63.0562 47.8788 62.8811 47.8788C62.7061 47.8788 62.5333 47.9178 62.3751 47.9929C62.2169 48.068 62.0773 48.1774 61.9664 48.3131C61.8554 48.4489 61.776 48.6076 61.7337 48.7779C61.6914 48.9482 61.6874 49.1258 61.7219 49.2979C61.7219 50.2276 61.7219 51.165 61.6833 52.0948C61.6833 52.5441 61.6833 52.9857 61.6833 53.4351C61.6833 53.6521 61.6833 53.8768 61.6833 54.0938V54.4812C61.6833 54.4812 61.6833 54.5277 61.6833 54.551C61.6868 54.587 61.6868 54.6233 61.6833 54.6593C61.6405 54.9205 61.6699 55.1885 61.7683 55.4341C60.7018 55.6278 59.6431 55.8371 58.5843 56.0618C58.5843 55.8216 58.5843 55.5737 58.5843 55.3335C58.6897 55.4495 58.8188 55.5414 58.9628 55.6029C59.1069 55.6644 59.2624 55.6941 59.4189 55.6899C59.7305 55.6879 60.029 55.5634 60.2501 55.3432C60.4712 55.1229 60.5973 54.8246 60.6013 54.5122C60.6013 53.5437 60.5472 52.583 60.555 51.6222C60.555 51.1574 60.5704 50.6925 60.6013 50.2276C60.6013 50.0029 60.6477 49.7859 60.6632 49.5612C60.6663 49.538 60.6663 49.5147 60.6632 49.4916C60.6674 49.4738 60.6674 49.4551 60.6632 49.4373C60.6632 49.2901 60.7095 49.1428 60.7404 48.9956C60.8152 48.6928 60.771 48.3729 60.6171 48.1018C60.4632 47.8308 60.2113 47.6293 59.9135 47.5391C59.6563 47.4808 59.3874 47.5038 59.1438 47.6051C58.9002 47.7064 58.6939 47.881 58.5534 48.1047C58.5534 47.8877 58.5534 47.6707 58.5534 47.4538L58.8316 47.5313ZM56.1422 56.2089C56.1414 56.3412 56.165 56.4726 56.2117 56.5963L55.5317 56.759C55.7663 53.5505 55.6756 50.3264 55.2612 47.1362L56.1422 47.1982C56.1383 47.2602 56.1383 47.3223 56.1422 47.3842C56.2143 50.318 56.2143 53.2596 56.1422 56.2089ZM43.5221 56.6661L43.638 56.6273C43.8051 56.6927 43.9846 56.7204 44.1636 56.7083C44.3426 56.6962 44.5167 56.6447 44.6736 56.5575C45.874 56.0301 47.1656 55.7433 48.4759 55.7131C50.063 55.5413 51.6325 55.2327 53.1669 54.791L53.2751 54.7447C53.2751 55.5194 53.2209 56.2399 53.1591 56.9837C53.1398 57.0939 53.1398 57.2066 53.1591 57.3168C49.7433 58.1691 46.3351 59.1377 42.8961 59.9667C43.1242 59.8934 43.3227 59.7481 43.4619 59.5527C43.6011 59.3572 43.6737 59.122 43.6689 58.8819C43.6148 58.2156 43.6535 57.3789 43.5221 56.6506V56.6661ZM47.2934 47.3687C49.1515 47.1624 51.0193 47.0563 52.8886 47.0509C53.1319 48.8748 53.2635 50.7119 53.2827 52.552C53.0399 52.4417 52.7657 52.4224 52.5099 52.4977L51.5826 52.7456C51.6002 52.7052 51.6156 52.6638 51.629 52.6217C51.965 51.4949 52.0882 50.3149 51.9922 49.1428C51.9871 48.831 51.8658 48.5327 51.6521 48.3061C51.431 48.0836 51.1308 47.9583 50.8175 47.9575C50.5023 47.9604 50.2005 48.0853 49.9751 48.3061C49.8641 48.4147 49.7767 48.545 49.7181 48.689C49.6596 48.833 49.6314 48.9874 49.6351 49.1428C49.6801 49.7263 49.6672 50.3129 49.5965 50.8938C49.5359 51.2619 49.4559 51.6267 49.3569 51.9864C49.3037 52.1909 49.305 52.4059 49.3606 52.6098C49.4162 52.8138 49.5241 52.9995 49.6737 53.1486C49.3105 53.2105 48.955 53.2647 48.5918 53.3112C48.5222 51.9244 48.4604 50.5296 48.3986 49.1428C48.3986 48.8284 48.274 48.5269 48.0522 48.3046C47.8305 48.0823 47.5298 47.9575 47.2162 47.9575C46.9026 47.9575 46.6018 48.0823 46.3801 48.3046C46.1584 48.5269 46.0338 48.8284 46.0338 49.1428L46.2424 53.6056C45.5879 53.7066 44.9456 53.8755 44.3258 54.1093C44.2537 52.6217 44.2537 51.1315 44.3258 49.6387C44.3238 49.3257 44.1983 49.0261 43.9768 48.8055C43.7553 48.5849 43.4557 48.461 43.1434 48.461C42.8337 48.467 42.5384 48.5929 42.3194 48.8125C42.1003 49.0321 41.9747 49.3283 41.9688 49.6387C41.8976 51.4465 41.9182 53.2566 42.0306 55.0623C41.7246 55.0352 41.4169 55.0352 41.1109 55.0623C40.9409 54.3417 40.7864 53.6211 40.6704 52.8851C40.6704 52.6836 40.6008 52.4821 40.5777 52.2807C40.5777 52.5674 40.5777 52.2033 40.5777 52.1413C40.5777 52.0793 40.5777 51.9089 40.539 51.7927C40.4849 51.351 40.4463 50.9094 40.4154 50.4678C40.3616 50.1993 40.2167 49.9577 40.0054 49.7842C39.794 49.6107 39.5293 49.516 39.2562 49.516C38.983 49.516 38.7183 49.6107 38.507 49.7842C38.2957 49.9577 38.1508 50.1993 38.097 50.4678C38.2046 52.0821 38.4371 53.6855 38.7925 55.2637L37.9656 55.3335C37.9656 55.256 37.9656 55.1707 37.9656 55.0778C37.7131 53.4972 37.4555 51.9165 37.1928 50.336C37.1062 50.0352 36.9058 49.7804 36.6344 49.6255C36.363 49.4706 36.042 49.4282 35.7399 49.5071C35.442 49.5973 35.1901 49.7987 35.0363 50.0698C34.8824 50.3409 34.8382 50.6608 34.913 50.9636L35.6317 55.5348L34.7043 55.6123L33.2977 55.7362C33.2977 55.7362 33.2977 55.6743 33.2977 55.6356C33.2977 55.5969 33.2514 55.3877 33.2359 55.256C33.1187 54.1525 33.1369 53.0388 33.29 51.9398V52.0792C33.362 51.7747 33.3179 51.4542 33.1664 51.1806C33.0856 51.0448 32.9784 50.9265 32.8513 50.8329C32.7243 50.7392 32.5798 50.672 32.4264 50.6352C32.273 50.5984 32.1138 50.5928 31.9582 50.6186C31.8026 50.6444 31.6537 50.7011 31.5203 50.7854C31.3859 50.8603 31.2684 50.9624 31.1753 51.085C31.0822 51.2077 31.0155 51.3483 30.9793 51.4982C30.7475 52.9819 30.7475 54.4927 30.9793 55.9765L29.5573 56.1314V52.9704C29.5573 52.4125 29.5573 51.8546 29.5573 51.2967C29.5458 51.0877 29.5458 50.8783 29.5573 50.6693L29.6037 50.4833C32.154 50.0262 34.6965 49.4372 37.2468 48.9723C40.5622 48.3525 43.8853 47.7251 47.2934 47.3609V47.3687ZM31.0643 47.7869L28.344 48.2984C26.6875 48.581 25.0149 48.7596 23.3361 48.8329C25.8967 48.4714 28.4651 48.1202 31.0411 47.7793L31.0643 47.7869ZM27.2002 52.6991C27.2002 53.9543 27.2002 55.2095 27.2002 56.4569H27.1152C27.1605 54.5985 27.0701 52.739 26.8448 50.8938L27.208 50.8475C27.1075 51.4673 27.1384 52.087 27.1384 52.6914L27.2002 52.6991ZM24.7427 57.0225C24.5881 57.069 24.4258 57.0999 24.2713 57.1541C24.2713 57.1154 24.2713 57.0767 24.2713 57.038C24.1785 56.5034 24.0085 55.9998 23.8771 55.4884C23.8771 55.3257 23.7998 55.1629 23.7767 55.0002C23.7767 55.0002 23.7767 54.8375 23.7767 54.7832C23.738 54.5353 23.7226 54.2796 23.7071 54.0085C23.6763 53.0674 23.7072 52.1253 23.7999 51.1883L24.5727 51.134C24.5727 51.2115 24.5727 51.2968 24.5727 51.3743C24.5727 51.6454 24.6268 51.9166 24.6499 52.1878C24.7066 52.756 24.7453 53.3215 24.7659 53.8846C24.735 54.9228 24.7273 55.9687 24.6809 56.9837L24.7427 57.0225ZM6.44241 54.0085C5.73654 53.6419 5.05038 53.2386 4.38674 52.7999C4.06988 52.5752 3.31253 52.0251 3.38209 51.568C3.38209 51.6687 3.52888 51.506 3.67571 51.4518C4.01797 51.3186 4.37269 51.2198 4.73452 51.1573C5.17895 51.0649 5.62775 50.9951 6.07921 50.9481C5.12864 51.5447 5.77009 53.3344 7.09933 53.0788C8.82013 52.7482 10.5486 52.4564 12.2849 52.2033C12.2807 52.2704 12.2807 52.3377 12.2849 52.4048C12.214 53.1972 12.2322 53.9949 12.339 54.7832C12.3289 54.9421 12.3637 55.1006 12.4395 55.2404C12.4844 55.386 12.567 55.517 12.679 55.6201C12.7883 55.7306 12.9183 55.8184 13.0615 55.8783C13.2048 55.9382 13.3585 55.9691 13.5137 55.9691C13.6689 55.9691 13.8226 55.9382 13.9659 55.8783C14.1091 55.8184 14.2391 55.7306 14.3483 55.6201C14.4615 55.5128 14.5509 55.3829 14.6108 55.2387C14.6707 55.0946 14.6997 54.9394 14.6961 54.7832C14.5969 53.9943 14.5788 53.1974 14.642 52.4048C14.6489 52.232 14.6089 52.0605 14.5261 51.9088L14.8043 51.87C14.7028 53.5112 14.8991 55.1572 15.3839 56.728C15.4688 57.0299 15.6688 57.2861 15.9407 57.4413C16.2126 57.5964 16.5345 57.6381 16.8368 57.557C17.1357 57.4685 17.3888 57.2674 17.543 56.9958C17.6971 56.7242 17.7404 56.4034 17.6637 56.1005C17.4782 55.3645 17.3005 54.6206 17.1846 53.8691C17.1771 53.7814 17.1771 53.6932 17.1846 53.6056C17.173 53.4043 17.173 53.2027 17.1846 53.0014C17.1677 52.626 17.1858 52.2498 17.2387 51.8778C17.2535 51.7984 17.2535 51.7171 17.2387 51.6378H17.4009L18.1737 51.568C18.1583 53.6315 18.3421 55.6917 18.7225 57.7197C18.8074 58.0199 19.0062 58.2749 19.2764 58.4298C19.5465 58.5848 19.8664 58.6275 20.1676 58.5488C20.4665 58.4603 20.7196 58.2591 20.8738 57.9876C21.028 57.716 21.0712 57.395 20.9945 57.0921C20.9404 56.8364 20.8863 56.5885 20.84 56.3173C20.8325 56.2237 20.8196 56.1306 20.8013 56.0385C20.8013 55.9378 20.8013 55.8447 20.8013 55.744C20.7472 55.2481 20.7163 54.7523 20.6931 54.2564C20.6468 53.3035 20.6081 52.3505 20.5618 51.3975L21.52 51.3432C21.4287 52.2778 21.4029 53.2177 21.4428 54.1558C21.4799 54.7792 21.5677 55.3984 21.7055 56.0075C21.8292 56.5731 22.0301 57.1154 22.1306 57.6887C22.1595 57.8535 22.2346 58.0067 22.347 58.1304C22.2278 58.2672 22.1449 58.4318 22.1057 58.6091C22.0666 58.7865 22.0725 58.9709 22.1229 59.1454C22.2077 59.4473 22.4077 59.7036 22.6796 59.8587C22.9516 60.0139 23.2735 60.0555 23.5757 59.9745C26.4351 58.82 29.5419 58.5797 32.579 58.262C34.1247 58.0993 35.7399 57.9522 37.3241 57.8128L39.6426 57.6191L40.9332 57.5183L41.4278 57.4795C41.4278 57.6112 41.4278 57.7353 41.4278 57.7973C41.4278 58.1692 41.4896 58.5333 41.5283 58.8974C41.536 59.208 41.662 59.504 41.8804 59.7244C42.0989 59.9448 42.3931 60.0731 42.7029 60.0829H42.7879C40.1496 60.7349 37.4799 61.2521 34.7893 61.6324C31.6516 62.0431 27.834 62.6241 24.9205 61.0048C24.6761 60.8578 24.3851 60.8097 24.1066 60.8701C23.828 60.9306 23.583 61.0952 23.4212 61.3304C20.9405 60.3464 18.452 59.3701 15.979 58.3706C12.6904 57.1194 9.48445 55.6597 6.38057 54.0007L6.44241 54.0085ZM13.9078 67.5983L14.6806 67.7997C14.6776 67.8436 14.6776 67.8875 14.6806 67.9314C14.4024 70.984 15.3298 74.0678 14.928 77.1049C14.6575 76.9345 14.387 76.7718 14.1551 76.5936C14.255 76.4254 14.3034 76.2314 14.2942 76.0358C13.9745 73.2324 13.8248 70.4121 13.846 67.5905L13.9078 67.5983ZM10.1133 69.6902C10.0437 68.4582 9.9742 67.2263 9.89692 65.9944C10.4533 66.2733 11.0175 66.5316 11.5894 66.7692C11.4632 69.4302 11.5226 72.0968 11.7671 74.7495C11.5739 74.5636 11.3807 74.3699 11.1952 74.1684C11.0906 74.0448 10.9584 73.9476 10.8094 73.8843C10.6605 73.8211 10.4988 73.7936 10.3374 73.8043C10.1983 72.4329 10.1365 71.0538 10.0514 69.6824L10.1133 69.6902ZM10.7856 79.8632C10.6697 78.856 10.5847 77.8411 10.5152 76.8339C10.8552 77.136 11.2107 77.4226 11.5739 77.7015C11.533 77.8143 11.5045 77.9312 11.4889 78.0501C11.3739 79.8092 11.5435 81.5753 11.9912 83.28C12.1303 83.9695 12.2772 84.6592 12.4472 85.3488C11.4711 83.6695 10.8823 81.7925 10.7238 79.8555L10.7856 79.8632ZM12.4395 64.5844C12.4866 64.3596 12.4866 64.1273 12.4395 63.9025C12.4395 63.8095 12.4395 63.7089 12.4395 63.6159C12.4395 63.523 12.4395 63.3757 12.4008 63.3447C12.4008 63.1045 12.3467 62.8721 12.3235 62.6397C12.2694 62.1516 12.2231 61.6634 12.1922 61.1752C12.1458 60.5632 12.1226 59.9512 12.1072 59.3391L12.9572 59.6877C12.852 59.9315 12.8298 60.2033 12.8941 60.461C12.9583 60.7187 13.1055 60.9479 13.3127 61.1134C13.3091 61.1727 13.3091 61.2322 13.3127 61.2916V61.3381C13.3668 61.8495 13.4132 62.3531 13.4519 62.8877C13.5137 63.6237 13.5601 64.3519 13.6064 65.0802C13.1883 64.934 12.7782 64.7659 12.3776 64.5767L12.4395 64.5844ZM14.3019 82.823C14.0176 81.6332 13.8468 80.419 13.7919 79.1968C14.2092 79.4447 14.6265 79.6773 15.0516 79.9097C15.0516 81.622 15.1211 83.3264 15.2293 85.0232C15.2293 85.6818 15.3298 86.3404 15.3839 86.9912C14.9126 85.6256 14.5305 84.2307 14.2401 82.8152L14.3019 82.823ZM15.8476 62.4072C15.8012 61.9036 15.778 61.3302 15.6776 60.7956L16.8059 61.245C16.6835 61.3831 16.5992 61.5508 16.5612 61.7316C16.5233 61.9123 16.533 62.0998 16.5895 62.2756C16.8754 63.0763 17.0901 63.9007 17.2309 64.7393C17.2309 64.8401 17.2696 64.9485 17.2773 65.0492C17.285 65.1499 17.2773 65.1113 17.2773 65.1422C17.2773 65.3437 17.2773 65.5529 17.3314 65.7621C17.3855 65.9713 17.3314 65.979 17.3314 66.0952C16.9141 65.9558 16.489 65.8396 16.0562 65.7233C15.9403 64.6076 15.863 63.5074 15.7626 62.4072H15.8476ZM16.9991 68.4661L17.486 68.6443C17.486 68.683 17.486 68.7217 17.486 68.7604C17.6483 70.6277 17.8723 72.4949 17.9342 74.3621C17.977 75.2169 17.9304 76.0739 17.7951 76.919C17.6986 77.4677 17.6315 78.0213 17.5941 78.5771L17.1073 78.3214C17.656 75.0285 16.7363 71.759 16.9141 68.4584L16.9991 68.4661ZM18.2124 89.5636C18.2437 89.3113 18.1922 89.0556 18.0656 88.8353C17.8397 88.2534 17.7371 87.6306 17.7642 87.0067C17.6946 86.2319 17.6405 85.4572 17.5941 84.6824C17.5246 83.5279 17.486 82.358 17.4628 81.2036L18.166 81.56C18.0728 81.8069 18.0462 82.0742 18.0887 82.3347C18.2883 83.6473 18.3299 84.9792 18.2124 86.3017C18.1439 87.4132 18.1801 88.5285 18.3206 89.6332L18.2124 89.5636ZM18.9852 62.1205L19.503 62.3297L20.9636 62.903C20.64 64.4821 20.7144 66.1173 21.18 67.6603C20.6931 67.4279 20.2062 67.2109 19.7194 67.0017C19.7197 65.3396 19.4509 63.6886 18.9234 62.1129L18.9852 62.1205ZM19.9048 79.3672C19.8626 78.5493 19.9408 77.7296 20.1367 76.9345C20.2629 76.0157 20.3042 75.0871 20.2604 74.1607C20.1908 72.6576 20.0363 71.1547 19.8972 69.6516L20.9791 70.1706C20.971 70.2427 20.971 70.3155 20.9791 70.3876L20.8709 76.3534L20.8245 79.2278C20.8245 79.53 20.8245 79.8554 20.8245 80.1731L19.9899 79.7701C19.958 79.6277 19.9087 79.4898 19.8431 79.3595L19.9048 79.3672ZM21.3191 83.2412C21.1491 85.7412 21.0306 88.2491 20.9636 90.7645L20.7318 90.6482C20.7511 90.5536 20.7511 90.4562 20.7318 90.3616C20.5171 88.9442 20.4524 87.5081 20.5386 86.077C20.6265 84.9252 20.598 83.7675 20.4536 82.6215L21.0177 82.8926L21.3268 83.0397C21.2805 83.1404 21.265 83.2025 21.2573 83.2722L21.3191 83.2412ZM24.0085 77.5466C23.939 78.4454 23.7921 79.3363 23.738 80.2351C23.7032 80.6864 23.7032 81.1397 23.738 81.591L23.3594 81.4205C23.3577 81.2077 23.2932 81.0001 23.1739 80.8239C23.1259 80.5393 23.1259 80.2485 23.1739 79.9638C23.1739 79.5222 23.1739 79.0806 23.1739 78.639L23.2203 75.8729L23.3053 71.2242L23.7844 71.4567C23.6966 71.6283 23.6416 71.8149 23.6221 72.0068C23.5844 72.9561 23.6674 73.9066 23.8694 74.8348C24.0123 75.742 24.0383 76.6638 23.9467 77.5776L24.0085 77.5466ZM25.446 93.4453C25.3761 92.8278 25.3374 92.2071 25.33 91.5857C25.3636 90.8389 25.4671 90.0972 25.6392 89.3699C25.8557 87.7654 25.9409 86.1459 25.8942 84.5275C25.8979 84.4836 25.8979 84.4394 25.8942 84.3956H25.956C26.0101 86.4565 26.0488 88.5097 26.0719 90.5939C26.0719 91.6476 26.0719 92.8099 26.1492 93.9643C25.8478 93.7939 25.616 93.639 25.3841 93.4763L25.446 93.4453ZM34.7893 97.4974C34.3565 97.6213 33.916 97.7375 33.4832 97.8227C33.5971 97.6545 33.649 97.4518 33.6301 97.2494C33.3352 94.0868 33.2758 90.9065 33.4523 87.735L34.3024 87.4948C34.2328 88.2695 34.1556 89.0443 34.1247 89.8191C34.1501 90.6734 34.3011 91.5195 34.5729 92.3296C34.9361 94.0419 34.6579 95.8239 34.7275 97.5284L34.7893 97.4974ZM35.1139 81.6994C34.8176 82.6799 34.7229 83.7106 34.8356 84.7289C34.8476 84.7765 34.8631 84.823 34.882 84.8683C34.4492 84.9923 34.0165 85.1085 33.5837 85.2402L33.7228 82.8074C33.8851 80.1422 34.0396 77.4691 34.2019 74.8038C34.4353 74.8856 34.6865 74.9017 34.9284 74.8504L35.1603 74.8038C35.0562 76.2508 35.0562 77.7035 35.1603 79.1505C35.2232 80.0118 35.1869 80.8774 35.0521 81.7304L35.1139 81.6994ZM37.1309 96.8C37.2096 95.2271 37.1449 93.6505 36.9377 92.0894C36.6974 91.3563 36.5469 90.5964 36.4895 89.8269C36.4895 88.9204 36.6286 88.0139 36.6982 87.1074C36.7137 87.0124 36.7137 86.9157 36.6982 86.8208L37.3705 86.6426C37.2701 88.0184 37.2933 89.4006 37.44 90.7723C37.7195 92.4745 37.8025 94.2033 37.6873 95.9245C37.6673 96.1642 37.7392 96.4025 37.8883 96.5909L37.1309 96.8ZM37.1309 84.2562C37.1347 84.202 37.1347 84.1477 37.1309 84.0935C37.1003 83.7211 37.1477 83.3464 37.27 82.9934C37.3652 82.6185 37.4374 82.2382 37.4864 81.8545C37.6049 80.9583 37.6385 80.053 37.5869 79.1505C37.3974 77.5435 37.413 75.9188 37.6332 74.3158L38.066 74.2382C37.6539 75.4373 37.4909 76.7082 37.5869 77.9728C37.7414 79.8633 37.9424 81.7536 38.1201 83.6441C38.1294 83.7634 38.1554 83.8809 38.1974 83.9929L37.1309 84.2562ZM40.0135 95.9633C40.4077 92.717 39.2407 89.4938 39.7198 86.2319C39.7198 86.1777 39.7198 86.1235 39.7198 86.0693L40.9486 85.7825V95.5604C40.9449 95.612 40.9449 95.6638 40.9486 95.7153L40.0135 95.9633ZM40.4386 83.4349C40.2737 81.7355 40.114 80.0363 39.9594 78.3369C39.8512 77.5841 39.8512 76.8195 39.9594 76.0666C40.1165 75.2817 40.3764 74.521 40.7322 73.8043V73.7423L41.3892 73.6261C41.3892 75.1757 41.6751 76.7253 41.621 78.2749C41.4739 79.8959 41.5127 81.5284 41.7369 83.1405C41.2577 83.2645 40.7941 83.3264 40.3768 83.4659L40.4386 83.4349ZM44.6273 93.112C44.294 93.4482 44.0936 93.8942 44.0631 94.3672C44.0576 94.496 44.076 94.6247 44.1172 94.7469L43.3444 94.9793C43.3444 91.7252 43.3444 88.4684 43.3444 85.2092L44.2176 85.0232C44.3258 86.6348 44.4417 88.2386 44.5499 89.8501C44.6195 90.7799 44.6813 91.7175 44.7509 92.655V92.957L44.6273 93.112ZM45.8328 77.6162C45.5223 79.1876 45.3055 80.7763 45.1837 82.3735L44.0708 82.5982C43.8815 81.0864 43.8659 79.5577 44.0244 78.0424C44.0244 76.4153 43.7617 74.8115 43.7771 73.1922L45.9333 72.8513C46.0346 74.4644 45.9802 76.0835 45.771 77.686L45.8328 77.6162ZM46.9998 93.8171C47.111 93.4617 47.1452 93.0867 47.1002 92.717C47.0384 91.7485 46.9689 90.78 46.8993 89.8116L46.5206 84.4576C46.6937 84.5155 46.8808 84.5155 47.0539 84.4576H47.1389C47.0898 87.3182 47.2034 90.1793 47.4789 93.0268C47.4987 93.2495 47.5702 93.4644 47.6876 93.6545L46.9998 93.8171ZM50.4002 92.7246L49.836 92.9107C49.5334 89.7852 49.4276 86.6435 49.5191 83.5047L50.3461 83.2103C50.3599 84.5504 50.4579 85.8882 50.6397 87.2159C50.8978 88.7459 50.7621 90.3166 50.2456 91.7794C50.168 91.9411 50.1356 92.121 50.152 92.2997C50.1683 92.4785 50.2327 92.6494 50.3383 92.7944L50.4002 92.7246ZM53.3523 91.7561L52.68 91.9808C53.0992 90.5487 53.2202 89.0455 53.0355 87.5646C52.8809 85.8755 52.4945 84.1323 52.7341 82.4356L53.4064 82.2574C53.4064 85.3978 53.3858 88.5408 53.3446 91.6865C53.3072 91.7322 53.2879 91.7901 53.2905 91.8492L53.3523 91.7561ZM56.2581 85.6431C56.2377 87.325 56.1163 89.0041 55.8949 90.6715C55.891 90.7437 55.891 90.8162 55.8949 90.8884L55.7249 90.9505C55.7249 87.8513 55.7455 84.7522 55.7867 81.653L56.4745 81.5057C56.2477 82.8959 56.1545 84.3048 56.1963 85.7129L56.2581 85.6431ZM59.5194 89.3699C59.5156 89.4396 59.5156 89.5094 59.5194 89.5791L58.2984 90.0206C58.4529 88.6957 58.5534 87.3709 58.5843 86.0305C58.5843 84.4809 58.3988 82.8306 58.932 81.3818C58.9739 81.2653 58.9898 81.141 58.9784 81.0176L59.5348 80.886C59.2756 83.7303 59.2498 86.5909 59.4576 89.4395L59.5194 89.3699ZM61.7837 87.3786C61.6851 85.0531 61.7419 82.7235 61.9538 80.4055C61.9576 80.3565 61.9576 80.3074 61.9538 80.2584L62.7807 80.0414C62.7656 82.5472 62.4094 85.0392 61.7219 87.4484L61.7837 87.3786ZM64.1022 87.8668C64.502 86.3882 64.7862 84.8805 64.9523 83.3575C64.9523 84.7444 64.9523 86.1234 64.9909 87.5103L64.1022 87.8668ZM67.9276 86.0072C67.9201 86.1104 67.9201 86.2141 67.9276 86.3173L67.3557 86.5573C67.3094 83.9437 67.33 81.3353 67.4176 78.7321L67.8658 78.5847C67.7512 79.6525 67.7022 80.7264 67.719 81.8002C67.719 82.575 67.7808 83.2646 67.8581 83.9929C67.9518 84.6848 67.9466 85.3866 67.8426 86.077L67.9276 86.0072ZM70.2461 84.4576C70.192 83.6829 70.0838 82.9081 70.0606 82.1333C70.0075 80.72 70.0748 79.3048 70.2615 77.903L70.8025 77.7791C70.6402 80.0957 70.4624 82.3271 70.1997 84.5585L70.2461 84.4576ZM71.0189 75.2688L69.8519 75.5398C70.3533 73.1258 70.5481 70.6579 70.4315 68.1949L71.7608 67.7842C71.7608 70.1551 70.9107 72.4331 70.988 74.8969C70.9583 75.053 70.9583 75.2133 70.988 75.3694L71.0189 75.2688ZM74.2492 78.8404C74.0329 80.3435 73.8397 81.9396 72.9741 83.2722C72.883 83.4039 72.785 83.5306 72.6804 83.6518C72.9123 81.5057 73.0823 79.3519 73.1751 77.198L74.5506 76.8724C74.4193 77.6317 74.3111 78.2827 74.2183 78.9413L74.2492 78.8404ZM75.2076 73.2853C75.138 73.6339 75.0762 73.9902 75.0066 74.3389L73.3219 74.734C73.3536 73.5435 73.4932 72.3585 73.7392 71.1934C74.0222 69.8646 74.1518 68.5075 74.1256 67.149C74.1219 67.1181 74.1219 67.0868 74.1256 67.056C75.0607 66.7538 76.0036 66.4439 76.9309 66.1262C76.2509 68.6056 75.6712 70.9841 75.1766 73.3859L75.2076 73.2853ZM77.9897 62.2678L77.5723 63.7166C77.4535 63.6567 77.3241 63.6211 77.1914 63.6118C77.0587 63.6025 76.9255 63.6198 76.7995 63.6625C74.4347 64.4941 72.0519 65.2689 69.651 65.9868C69.4083 65.8795 69.1384 65.8496 68.8782 65.9015C61.7838 67.229 54.7408 68.7786 47.7494 70.5503C47.6437 70.5773 47.5422 70.619 47.448 70.6741C47.2915 70.5569 47.1128 70.473 46.9227 70.4277C46.7326 70.3824 46.5353 70.3767 46.3429 70.4108C42.3242 70.9945 38.3262 71.6996 34.3488 72.526C34.4338 71.0694 34.5188 69.6204 34.6115 68.1638C34.6374 67.9446 34.5889 67.723 34.474 67.5347C34.3591 67.3464 34.1843 67.2024 33.9778 67.1257C33.8603 66.8762 33.6585 66.6763 33.4082 66.5615C33.1579 66.4467 32.8751 66.4242 32.6099 66.4981C32.2854 66.5911 31.9608 66.6841 31.6362 66.7616L31.2652 66.8467L31.0179 66.8933C30.8711 66.8933 30.8557 66.8933 30.9561 66.8933C30.6681 66.9165 30.3786 66.9165 30.0906 66.8933H29.9747H29.7892L29.4105 66.7925L29.0318 66.6686L28.9468 66.6298L28.7922 66.5602C28.5526 66.444 28.3131 66.32 28.0812 66.1805C27.5789 65.8861 27.1075 65.553 26.6361 65.212C26.3654 65.0542 26.0434 65.0103 25.7406 65.0902C25.4378 65.1701 25.179 65.3671 25.0209 65.638C24.8709 65.9011 24.8293 66.2125 24.905 66.5059C24.8865 66.6214 24.8865 66.739 24.905 66.8545C25.1255 67.7649 25.2651 68.6932 25.3223 69.6283L23.939 68.9619C24.0113 68.6607 23.97 68.3435 23.823 68.071C23.7612 67.9625 23.7071 67.8463 23.653 67.7301L23.6067 67.6293C23.5231 67.4321 23.4508 67.2303 23.3902 67.0249C23.3193 66.814 23.26 66.5993 23.2125 66.3818C23.2125 66.2501 23.1584 66.1261 23.1353 66.0022C23.1121 65.8782 23.1353 65.8551 23.1353 65.7854C23.1353 65.7157 23.1353 65.5762 23.1353 65.5529V65.2196C23.1353 64.9949 23.1353 64.7703 23.1353 64.5456C23.1353 64.321 23.1352 64.1039 23.1893 63.8792C23.1893 63.8792 23.1893 63.8018 23.1893 63.7631V63.7243L24.8277 64.3752C26.3708 65.0748 27.9888 65.5947 29.6501 65.9248C31.4281 66.1279 33.2267 66.0547 34.9825 65.7078L35.2839 65.6613C35.2062 65.888 35.1902 66.1315 35.2375 66.3665V66.4593C35.2375 66.5368 35.2375 66.6144 35.2375 66.6996C35.2375 66.7848 35.2375 67.0792 35.2375 67.2652C35.2375 67.6216 35.1757 67.9779 35.1371 68.3343C35.015 69.0636 34.9813 69.8051 35.0366 70.5425C35.043 70.8554 35.1672 71.1544 35.3844 71.3793C35.4934 71.4902 35.6233 71.578 35.7666 71.6379C35.9099 71.6978 36.0638 71.7284 36.219 71.7279C36.5313 71.7259 36.83 71.6001 37.0501 71.378C37.2702 71.1559 37.3937 70.8556 37.3937 70.5425C37.3409 69.7658 37.3798 68.9856 37.5096 68.2181C37.641 67.3839 37.641 66.5343 37.5096 65.7001C37.4784 65.5536 37.4151 65.416 37.3241 65.2972L38.1588 65.15L38.0506 70.1706C38.0161 70.3427 38.0201 70.5201 38.0624 70.6904C38.1047 70.8607 38.1841 71.0196 38.295 71.1554C38.4059 71.2911 38.5455 71.4005 38.7037 71.4756C38.8619 71.5507 39.0348 71.5897 39.2098 71.5897C39.3848 71.5897 39.5577 71.5507 39.7159 71.4756C39.8741 71.4005 40.0136 71.2911 40.1246 71.1554C40.2355 71.0196 40.3149 70.8607 40.3572 70.6904C40.3995 70.5201 40.4035 70.3427 40.369 70.1706C40.4154 68.3576 40.4566 66.5498 40.4927 64.7471L41.2655 64.5922C41.2191 65.367 41.1805 66.1418 41.1496 66.9165C41.1496 67.823 40.9641 68.8689 41.505 69.6746C41.6707 69.9297 41.9278 70.1114 42.2232 70.1816C42.5186 70.2518 42.8296 70.2054 43.0918 70.052C43.354 69.8987 43.5474 69.65 43.6318 69.3576C43.7162 69.0653 43.6852 68.7517 43.5453 68.4816C43.5247 68.4577 43.5066 68.4316 43.4912 68.4041C43.4912 68.3034 43.4912 68.0321 43.4912 67.9857C43.4912 67.5673 43.4912 67.1567 43.5376 66.7461C43.5376 65.9016 43.6149 65.0648 43.6612 64.2203C43.6612 64.2203 43.6612 64.166 43.6612 64.135L44.2022 64.0266C44.3722 65.4884 44.5164 66.9552 44.6349 68.4273C44.6409 68.7399 44.7674 69.0378 44.9879 69.2589C45.2083 69.4799 45.5056 69.6068 45.8174 69.6128C46.1284 69.6068 46.4248 69.4797 46.6441 69.2585C46.8633 69.0373 46.9881 68.7392 46.9921 68.4273C46.8761 66.8778 46.7138 65.2584 46.5283 63.6855V63.5617L47.6798 63.3137C47.6798 64.1659 47.6798 65.0105 47.6798 65.855C47.6005 66.7469 47.6578 67.6457 47.8499 68.5202C47.9329 68.8223 48.1322 69.079 48.4039 69.2337C48.6757 69.3885 48.9976 69.4287 49.2989 69.3455C49.6002 69.2623 49.8562 69.0624 50.0105 68.79C50.1649 68.5175 50.205 68.1948 50.122 67.8928L50.0524 67.606C50.0562 67.5855 50.0562 67.5645 50.0524 67.544C50.0524 67.3503 50.0524 67.149 50.0524 66.9553V65.7621C50.0524 64.9486 50.0524 64.1272 50.0524 63.3137C50.0499 63.1361 50.0077 62.9614 49.9288 62.8024L50.632 62.6475C50.6784 64.197 50.6938 65.7466 50.632 67.2496C50.5975 67.4217 50.6016 67.5994 50.6438 67.7696C50.6861 67.9399 50.7656 68.0986 50.8765 68.2344C50.9874 68.3702 51.1269 68.4795 51.2851 68.5546C51.4433 68.6298 51.6162 68.6687 51.7912 68.6687C51.9663 68.6687 52.1391 68.6298 52.2973 68.5546C52.4555 68.4795 52.5951 68.3702 52.706 68.2344C52.8169 68.0986 52.8964 67.9399 52.9386 67.7696C52.9809 67.5994 52.9849 67.4217 52.9504 67.2496C52.9891 65.7001 52.9504 64.1505 52.9504 62.6009C52.9421 62.4408 52.9055 62.2833 52.8423 62.136L53.0664 62.0741C53.1282 63.6237 53.2828 65.2196 53.4992 66.7769C53.5806 67.0738 53.7748 67.327 54.0401 67.4821C54.3161 67.6419 54.6436 67.6864 54.9521 67.606C55.2487 67.521 55.5009 67.3238 55.6553 67.056C55.8 66.7773 55.8438 66.4569 55.779 66.1495C55.7757 66.1134 55.7757 66.077 55.779 66.0409C55.779 65.9402 55.779 65.8396 55.779 65.7388L55.7094 65.1578C55.663 64.7549 55.6244 64.3519 55.5935 63.949C55.524 63.1355 55.4775 62.3298 55.4544 61.5163L56.8532 61.1597C56.7218 62.7713 56.6368 64.3984 56.6291 66.0177C56.6291 66.3321 56.7536 66.6337 56.9754 66.856C57.1971 67.0783 57.4979 67.2031 57.8115 67.2031C58.1251 67.2031 58.4258 67.0783 58.6476 66.856C58.8693 66.6337 58.9939 66.3321 58.9939 66.0177C58.9939 64.2047 59.0789 62.3968 59.2489 60.5942V60.5245L60.3618 60.2223C60.0134 61.9736 59.9067 63.7647 60.0449 65.5452C60.0508 65.8577 60.1773 66.1557 60.3978 66.3767C60.6183 66.5977 60.9156 66.7246 61.2273 66.7306C61.5403 66.7286 61.8399 66.6029 62.0612 66.381C62.2825 66.1592 62.4077 65.8589 62.4097 65.5452C62.3402 64.5986 62.3402 63.6481 62.4097 62.7016C62.4097 62.4846 62.4097 62.2678 62.4638 62.0509L62.5102 61.679V61.493C62.5874 61.0204 62.6802 60.5555 62.7807 60.0984C62.8232 59.9149 62.8232 59.7241 62.7807 59.5405L63.9708 59.1919C63.5624 60.9737 63.5335 62.8217 63.8858 64.6154C63.9689 64.9185 64.1686 65.1759 64.441 65.3314C64.7135 65.4869 65.0364 65.5275 65.3387 65.4443C65.6362 65.3542 65.8875 65.1524 66.0401 64.881C66.1927 64.6096 66.2349 64.2897 66.1579 63.9878C66.1579 63.8639 66.1115 63.7399 66.096 63.6159V63.4841C66.096 63.2672 66.0497 63.0581 66.0342 62.8489C66.0072 62.3689 66.0072 61.8877 66.0342 61.4077C66.0342 61.2063 66.0342 61.0048 66.0883 60.8034C66.0883 60.8034 66.0883 60.6329 66.0883 60.6097L66.1579 60.2455C66.2516 59.7739 66.3729 59.3082 66.5211 58.8509C66.5442 58.7332 66.5442 58.6122 66.5211 58.4945L67.3866 58.2465V61.152V62.934C67.3552 63.579 67.4256 64.2248 67.5953 64.8477C67.6364 64.9973 67.7065 65.1373 67.8016 65.2597C67.8966 65.3821 68.0148 65.4846 68.1494 65.5612C68.2839 65.6379 68.4322 65.6871 68.5858 65.7063C68.7393 65.7255 68.8951 65.7142 69.0443 65.673C69.1935 65.6318 69.3332 65.5614 69.4553 65.4661C69.5774 65.3708 69.6795 65.2524 69.756 65.1175C69.8324 64.9826 69.8816 64.8339 69.9007 64.6799C69.9198 64.526 69.9085 64.3699 69.8674 64.2203C69.8371 64.1425 69.8139 64.062 69.7979 63.9801C69.8017 63.9414 69.8017 63.9024 69.7979 63.8637C69.7979 63.8095 69.7979 63.6392 69.7979 63.5927C69.7979 63.306 69.7979 63.0192 69.7979 62.7248V61.0203L69.7514 57.5803L71.0652 57.2239C71.0736 57.4203 71.1293 57.6117 71.2275 57.7818C71.2275 57.8825 71.2275 57.9831 71.2275 58.0916C71.2275 58.3783 71.1812 58.665 71.1503 58.9517C71.1039 59.5018 71.0575 60.0518 71.0034 60.6019L70.6788 63.9723C70.6809 64.2861 70.8061 64.5863 71.0274 64.8082C71.2487 65.0301 71.5483 65.1557 71.8613 65.1578C72.1716 65.1498 72.467 65.0222 72.6858 64.8014C72.9046 64.5806 73.03 64.2835 73.0359 63.9723C73.1647 62.6913 73.2884 61.413 73.4069 60.1371C73.461 59.5251 73.5228 58.9051 73.5769 58.2853C73.5986 58.0275 73.5986 57.7683 73.5769 57.5105C73.5586 57.2096 73.4569 56.92 73.2832 56.6739L74.8288 56.3173C74.2732 58.0278 74.0553 59.8306 74.1874 61.6247C74.1874 61.9391 74.312 62.2405 74.5338 62.4628C74.7555 62.6851 75.0562 62.8101 75.3698 62.8101C75.6834 62.8101 75.9842 62.6851 76.2059 62.4628C76.4277 62.2405 76.5523 61.9391 76.5523 61.6247C76.5214 61.1396 76.5214 60.6532 76.5523 60.1682C76.5523 59.928 76.5522 59.6877 76.5986 59.4397C76.5986 59.339 76.5986 59.2384 76.5986 59.1299V59.0834V58.9827C76.752 58.0396 77.0113 57.1169 77.3714 56.2322C77.4252 56.0943 77.4413 55.9444 77.4178 55.7983H77.5723C79.3575 55.4883 81.2741 55.4495 82.982 54.7677C83.1564 54.6973 83.3267 54.6172 83.4921 54.5277C83.4921 55.0623 83.4921 55.6045 83.4921 56.1391C80.4472 56.5963 78.8011 59.5483 77.9587 62.4072L77.9897 62.2678Z" fill="#DB3C17"/>
<path d="M59.9908 35.7009C59.6876 34.6481 59.0431 33.7265 58.1591 33.082C57.1161 32.4571 55.9608 32.044 54.7588 31.8658C49.3697 30.5951 43.9368 29.5258 38.4601 28.658C36.1416 28.2939 33.6223 27.6895 31.4043 28.658C29.3641 29.5878 28.5526 31.7573 28.1198 33.7795C27.6008 36.4955 26.8695 39.1665 25.9328 41.7676C24.9076 44.4442 23.6129 47.009 22.0687 49.4224C21.2959 50.7163 23.2975 51.9017 24.1089 50.6233C26.6119 46.6595 28.4816 42.3278 29.65 37.785C29.9282 36.7081 30.1369 35.6157 30.361 34.5155C30.5001 33.5949 30.7927 32.7045 31.2266 31.8813C32.2467 30.1612 34.4183 30.3858 36.1185 30.6415C41.2191 31.4163 46.2965 32.346 51.3275 33.4694C52.5331 33.7329 53.7464 34.0118 54.952 34.3063C55.8814 34.3957 56.7401 34.8429 57.3477 35.5538C58.5378 37.3203 57.5563 39.6524 56.8144 41.3879C54.5545 46.5894 52.7446 51.9757 51.4047 57.4879C51.0492 58.9677 53.3213 59.5953 53.6768 58.1155C54.9393 52.8423 56.6483 47.6869 58.7852 42.705C59.7666 40.5356 60.7558 38.126 59.9908 35.7009Z" fill="#321811"/>
<path d="M69.6515 53.3508C68.9985 51.5615 68.4818 49.7251 68.1059 47.8575C67.6216 45.8276 67.1321 43.7977 66.6375 41.7678C65.942 38.8778 64.9682 35.6237 62.1397 34.1516C60.795 33.4465 59.5972 35.4919 60.9496 36.1969C63.4535 37.4986 63.9713 40.7527 64.5664 43.2476C65.0069 45.0916 65.4551 46.9277 65.8956 48.7717C66.2748 50.5449 66.7915 52.2859 67.4412 53.9784C67.5295 54.2764 67.729 54.5287 67.9981 54.683C68.2673 54.8374 68.5854 54.882 68.8864 54.8073C69.1761 54.7095 69.4172 54.5037 69.5596 54.2325C69.702 53.9613 69.735 53.6457 69.6515 53.3508Z" fill="#321811"/>
<path d="M41.6134 47.7564C40.1605 42.2941 38.1126 37.0099 36.1419 31.7181C35.6164 30.308 33.3289 30.9434 33.8235 32.3458C35.7941 37.6453 37.8498 42.9216 39.3027 48.3916C39.3868 48.6988 39.5891 48.9599 39.8652 49.1175C40.1413 49.2752 40.4685 49.3166 40.7749 49.2324C41.0813 49.1481 41.3418 48.9451 41.4991 48.6683C41.6563 48.3915 41.6975 48.0636 41.6134 47.7564Z" fill="#321811"/>
<path d="M54.3881 35.9645C53.6463 35.9486 52.9226 35.7317 52.2937 35.3369C51.6669 34.9174 51.0911 34.4258 50.5781 33.8724C50.4414 33.7439 50.263 33.6696 50.0758 33.6632H49.983C49.8789 33.6746 49.7792 33.7117 49.6929 33.7712C49.6066 33.8307 49.5363 33.9109 49.4884 34.0042C49.3192 34.5057 48.9915 34.938 48.5549 35.2358C48.1184 35.5337 47.5969 35.6807 47.0695 35.6544C46.7141 35.6556 46.3612 35.5953 46.0262 35.4763C45.3611 35.2148 44.7581 34.8163 44.2564 34.3063C44.1401 34.2006 43.9884 34.1425 43.8314 34.1437H43.7773C43.6914 34.1515 43.6081 34.1769 43.5324 34.2182C43.4566 34.2595 43.3901 34.3159 43.3368 34.3839C43.0382 34.7473 42.6593 35.036 42.23 35.227C41.8007 35.4179 41.333 35.5059 40.8638 35.484C40.145 35.4822 39.4372 35.3069 38.8004 34.9727C37.5056 34.1239 36.3918 33.0255 35.5236 31.7417C35.1063 31.2071 34.689 30.6725 34.2562 30.1922C32.7724 28.5341 31.5205 27.0079 31.3195 25.0942C30.8868 20.8716 35.4618 18.121 39.5191 16.9898L39.7587 16.9202C41.3803 16.6037 42.913 15.9346 44.2487 14.9599C44.8979 14.4331 45.5162 13.8596 46.119 13.3095L47 12.5347C49.1175 10.6443 50.864 9.18772 52.5488 7.95581C56.0252 5.2318 60.1092 3.39467 64.4501 2.6021C64.5669 2.58357 64.6761 2.53215 64.765 2.45399C64.8539 2.37584 64.9189 2.27408 64.9525 2.16042V2.0055C65.0163 1.91249 65.1016 1.83644 65.2012 1.78381C65.3008 1.73118 65.4117 1.70342 65.5243 1.70323C65.6118 1.70132 65.6979 1.72567 65.7716 1.77303C67.7731 3.08774 69.4637 4.8251 70.7254 6.86343C70.7674 6.94622 70.7894 7.0378 70.7894 7.13071C70.7894 7.22363 70.7674 7.3152 70.7254 7.39799C70.6916 7.48559 70.6387 7.5644 70.5705 7.62876C70.5022 7.69313 70.4205 7.7414 70.3312 7.76987C69.7898 7.8997 69.234 7.95958 68.6774 7.94806H67.9741H67.3868C67.0703 7.94092 66.7541 7.96959 66.444 8.03337C65.9031 8.15278 65.4266 8.47135 65.1089 8.92619C64.7911 9.38103 64.6553 9.93894 64.7283 10.4894C64.7789 10.7429 64.8822 10.9829 65.0313 11.1938C65.1804 11.4047 65.3721 11.5818 65.5939 11.7136L65.7484 11.8375C66.1416 12.2105 66.623 12.4771 67.1472 12.6123C67.2553 12.6199 67.3638 12.6199 67.4718 12.6123C68.4997 12.6123 69.342 11.7523 69.9603 11.1248L70.0994 10.9929C70.144 10.9392 70.1994 10.8958 70.262 10.865C70.3246 10.8343 70.393 10.8171 70.4626 10.8147C70.6006 10.8186 70.7336 10.8677 70.8413 10.9543C70.9471 11.0305 71.0742 11.0711 71.2045 11.0705H71.3513C71.4475 11.0467 71.546 11.0337 71.645 11.0317C71.8738 11.0363 72.0975 11.1003 72.2942 11.2176C72.6424 11.4314 72.9596 11.6921 73.237 11.9924L73.5384 12.2947L76.3205 14.9832L76.9929 15.6031C77.6759 16.1844 78.2904 16.8421 78.8244 17.5633C79.3348 18.5105 79.5014 19.6058 79.2958 20.6624C79.2958 20.7709 79.1954 21.3519 78.6699 21.3519C78.5833 21.3478 78.4987 21.3239 78.4226 21.2821C78.3403 21.2432 78.2508 21.2222 78.1598 21.2203C78.0657 21.22 77.9728 21.2414 77.8883 21.2831C77.8039 21.3247 77.7301 21.3853 77.673 21.4603C77.6134 21.5425 77.5356 21.6098 77.4458 21.6568C77.356 21.7039 77.2566 21.7295 77.1552 21.7315H77.0316C76.3875 21.6287 75.7363 21.5769 75.084 21.5766C72.1474 21.5766 69.3343 22.5761 66.7377 23.6608C65.563 24.1489 64.4192 24.6757 63.2291 25.2103L61.9926 25.7682L61.0497 26.1711C60.1667 26.5147 59.3092 26.9213 58.484 27.3875C58.3579 27.4663 58.2642 27.5878 58.2202 27.7301C58.1762 27.8724 58.1848 28.0259 58.2444 28.1623C58.4917 29.8049 58.6308 31.2149 58.0512 32.5475C57.7738 33.1228 57.4343 33.6658 57.0388 34.1669C56.6908 34.7075 56.2421 35.1758 55.7173 35.5461C55.3186 35.8002 54.8601 35.9445 54.3881 35.9645Z" fill="#FDD821"/>
<path d="M60.8026 53.4977C58.2291 53.4977 56.5366 52.9786 55.8952 52.0024C55.1224 50.786 56.1039 49.1977 56.7685 48.3609C56.8389 48.2744 56.8847 48.1703 56.901 48.0598C56.9173 47.9493 56.9036 47.8366 56.8612 47.7333C56.8201 47.6308 56.7527 47.5409 56.6658 47.4728C56.579 47.4048 56.4758 47.3611 56.3666 47.3459C56.0888 47.3172 55.8128 47.2731 55.5397 47.2141C53.6463 46.7802 51.0342 45.3237 51.1733 43.4254C51.2351 42.5499 51.9461 42.1006 52.974 41.5583C54.2136 40.8899 55.506 40.3249 56.838 39.8691C57.8519 39.5485 58.8842 39.2898 59.9293 39.0943C60.0271 39.0782 60.1192 39.0379 60.1975 38.977C60.2758 38.9162 60.3377 38.8366 60.3776 38.7457C60.4229 38.6584 60.4466 38.5614 60.4466 38.4629C60.4466 38.3645 60.4229 38.2675 60.3776 38.1801C60.3776 38.1801 60.3002 38.0562 60.2925 38.0407C60.0456 37.5586 59.8986 37.0313 59.8601 36.4908C59.8216 35.9502 59.8924 35.4074 60.0684 34.895C60.2663 34.336 60.5732 33.8219 60.9713 33.3829C61.3693 32.944 61.8505 32.5888 62.3869 32.3382C63.4943 31.8498 64.6494 31.4786 65.8336 31.2303L66.9078 30.9591L72.673 29.4095L74.2959 28.9988C76.9776 28.348 80.0225 27.612 82.1168 25.5356C82.1637 25.48 82.2215 25.435 82.2867 25.403C82.3519 25.3709 82.423 25.3527 82.4955 25.3496C82.6609 25.3582 82.8176 25.4271 82.936 25.5433C83.0302 25.6298 83.1492 25.6842 83.276 25.6984H83.4306C85.1525 26.1894 86.6493 27.2677 87.6624 28.7474C88.6756 30.2271 89.1413 32.0153 88.9794 33.8027C88.9794 33.8724 88.8867 34.4999 88.3689 34.4999H88.2221C87.6347 34.4999 85.8572 34.4998 85.1308 36.0029C84.9933 36.2485 84.9097 36.5207 84.8857 36.8014C84.8617 37.082 84.8978 37.3646 84.9916 37.6301C85.1304 37.9333 85.3327 38.203 85.5848 38.4209C85.8368 38.6388 86.1327 38.7998 86.4523 38.8929C87.0656 39.0812 87.7044 39.1727 88.3457 39.1641C90.0923 39.1641 91.1742 38.5366 91.3133 37.4519C91.3751 36.987 91.6689 36.7777 91.9393 36.7777C92.0547 36.7862 92.1666 36.8207 92.2669 36.8783C92.3672 36.936 92.4534 37.0155 92.519 37.111C93.8637 38.924 93.7477 41.2561 93.454 43.3093C93.3072 44.301 93.199 45.0447 92.604 45.5018C91.7764 45.9768 90.8565 46.2676 89.9068 46.3542C89.4972 46.4239 89.134 46.4937 88.7554 46.5789C82.8124 48.0277 76.6607 49.678 70.4782 51.615C67.7126 52.5924 64.8361 53.2196 61.9155 53.4822C61.5368 53.4822 61.1813 53.4977 60.8026 53.4977Z" fill="#FDD821"/>
<path d="M54.0471 35.22C53.2834 35.2064 52.5379 34.9842 51.8909 34.5771C51.2523 34.1519 50.666 33.6525 50.1443 33.0893C50.0367 32.9826 49.8937 32.9192 49.7425 32.9112H49.6652C49.5818 32.9219 49.5021 32.952 49.4323 32.9991C49.3626 33.0462 49.3047 33.109 49.2634 33.1824C49.085 33.7077 48.7415 34.1607 48.2844 34.4736C47.8274 34.7865 47.2814 34.9425 46.7285 34.9179C46.3601 34.9161 45.9946 34.8532 45.6466 34.732C44.9673 34.4572 44.3498 34.0488 43.8305 33.531C43.7372 33.4466 43.6161 33.3998 43.4904 33.3994C43.4213 33.4065 43.3544 33.4272 43.2933 33.4605C43.2323 33.4937 43.1785 33.5388 43.135 33.5931C42.8248 33.9725 42.4307 34.2744 41.9841 34.4747C41.5374 34.6751 41.0504 34.7685 40.5615 34.7475C39.8232 34.7408 39.0973 34.5576 38.444 34.2129C37.1306 33.361 36.0028 32.2513 35.1286 30.9509C34.7112 30.4163 34.2939 29.8895 33.8689 29.4013C32.3232 27.7278 31.1022 26.186 30.9013 24.2336C30.453 19.9257 35.0822 17.1056 39.1858 15.9899L39.4254 15.9279C41.0304 15.6125 42.5472 14.9487 43.8691 13.9831C44.5105 13.464 45.1288 12.9061 45.7316 12.3405L46.6126 11.5657C48.7379 9.67523 50.4767 8.21869 52.1769 6.97903C55.6664 4.23846 59.7703 2.39281 64.1323 1.60205C64.2261 1.5868 64.3136 1.54521 64.3847 1.48213C64.4558 1.41905 64.5076 1.33709 64.5342 1.24568L64.5806 1.083C64.6536 0.96814 64.754 0.873298 64.8727 0.807025C64.9915 0.740751 65.1247 0.705134 65.2606 0.703366C65.3734 0.699973 65.4844 0.732427 65.5775 0.796243C67.5936 2.12198 69.2972 3.87239 70.5699 5.92543C70.6196 6.0253 70.6454 6.13521 70.6454 6.24681C70.6454 6.3584 70.6196 6.4685 70.5699 6.56837C70.527 6.67475 70.461 6.77023 70.3768 6.84795C70.2926 6.92566 70.1923 6.98372 70.083 7.01781C69.5285 7.14794 68.9599 7.20779 68.3906 7.196H67.6873H67.0999C66.7937 7.18947 66.4877 7.21815 66.188 7.28131C65.6776 7.39508 65.2287 7.69738 64.9308 8.12816C64.6329 8.55894 64.5079 9.08657 64.5806 9.60567C64.6292 9.84071 64.7265 10.0628 64.8663 10.2577C65.0061 10.4526 65.1852 10.6158 65.392 10.7368L65.5543 10.8685C65.9274 11.2399 66.3911 11.507 66.899 11.6433C66.9994 11.6509 67.1001 11.6509 67.2004 11.6433C68.1741 11.6433 69.0011 10.7989 69.5961 10.1945L69.7352 10.0549C69.7928 9.99042 69.863 9.93865 69.9414 9.90265C70.0199 9.86665 70.1049 9.84719 70.1912 9.84571C70.354 9.85124 70.5109 9.90834 70.6394 10.0086C70.725 10.0701 70.8278 10.1026 70.9331 10.1014H71.049C71.1544 10.0906 71.2605 10.0906 71.3659 10.1014C71.6162 10.1064 71.861 10.1758 72.0769 10.3029C72.4402 10.5299 72.7683 10.8093 73.0506 11.132L73.3443 11.4263L76.1341 14.1148L76.7987 14.7424C77.4931 15.3277 78.1157 15.9935 78.6535 16.7259C79.1854 17.6993 79.3604 18.8287 79.1481 19.9179C79.1481 20.1234 79.0667 20.3206 78.9218 20.4659C78.7769 20.6112 78.5803 20.6927 78.3753 20.6927C78.2709 20.6863 78.1686 20.6601 78.0739 20.6154C77.9723 20.5678 77.8578 20.5557 77.7485 20.5809C77.6393 20.6062 77.5416 20.6674 77.4711 20.7548C77.4007 20.8514 77.309 20.9304 77.2031 20.9856C77.0972 21.0407 76.98 21.0703 76.8606 21.0724H76.7137C76.0775 20.9692 75.434 20.9174 74.7894 20.9175C71.8759 20.9175 69.0784 21.9169 66.4972 22.9938C65.3302 23.4819 64.1787 23.9933 63.035 24.5434L61.7521 25.1169L60.7938 25.5196C59.9216 25.8625 59.0746 26.2664 58.2589 26.7284C58.1502 26.7919 58.0697 26.8946 58.0338 27.0155C57.9979 27.1364 58.0093 27.2665 58.0657 27.3793C58.3285 29.076 58.4676 30.4784 57.8725 31.8731C57.5902 32.4563 57.2456 33.0069 56.8447 33.5155C56.4886 34.0684 56.0294 34.5473 55.4923 34.9257C55.0443 35.1481 54.5462 35.2495 54.0471 35.22ZM52.2851 33.0352C52.5066 33.1958 52.7391 33.3406 52.9806 33.469C53.0716 33.5388 53.1829 33.577 53.2974 33.5776H53.367L53.5834 33.6396C53.6522 33.6766 53.7294 33.6952 53.8075 33.6937H54.163C54.2242 33.7062 54.2873 33.7062 54.3485 33.6937H54.4876C54.5938 33.6792 54.6934 33.6334 54.7736 33.562C54.8542 33.5312 54.9241 33.4774 54.9744 33.4071L55.2836 33.0816L55.3763 32.9732L55.67 32.5703C56.0364 32.1114 56.3452 31.6093 56.5897 31.075C56.593 31.0363 56.593 30.9973 56.5897 30.9587C56.6049 30.9061 56.623 30.8544 56.6438 30.8038C56.688 30.6482 56.7241 30.4906 56.752 30.3312C56.7885 30.0747 56.804 29.8156 56.7983 29.5565C56.7881 29.0142 56.7416 28.4731 56.6592 27.9371C56.6525 27.8401 56.623 27.7462 56.5734 27.6628C56.5237 27.5794 56.4551 27.5086 56.3732 27.4566C56.247 27.4019 56.1356 27.3179 56.0483 27.2115C55.9609 27.105 55.9002 26.9794 55.8709 26.8447C55.863 26.7489 55.8803 26.6527 55.9209 26.5657C55.9616 26.4787 56.0243 26.4039 56.1028 26.3487C57.3453 25.4133 58.714 24.6595 60.1678 24.1097L60.8788 23.7996L61.9839 23.3039C63.3827 22.6763 64.7815 22.0564 66.188 21.4675C68.904 20.2093 71.8453 19.5137 74.8358 19.4222C75.5915 19.4225 76.346 19.4821 77.0924 19.6004H77.1697C77.2983 19.6025 77.4227 19.5543 77.5165 19.4661C77.6102 19.3778 77.666 19.2564 77.672 19.1276C77.6836 18.9005 77.6836 18.673 77.672 18.4459C77.6385 18.0594 77.5053 17.6884 77.2856 17.3691C77.0495 17.0901 76.791 16.831 76.5128 16.5943L71.8219 12.0617L71.4818 11.7441C71.3917 11.6595 71.2729 11.6123 71.1495 11.6122H71.049H70.8326C70.7762 11.6203 70.719 11.6203 70.6626 11.6122C70.604 11.6006 70.5435 11.6006 70.4849 11.6122C70.3614 11.6123 70.2427 11.6595 70.1526 11.7441C69.3725 12.5853 68.3042 13.0999 67.1618 13.1851H66.8217C65.9518 13.0494 65.1433 12.6522 64.5033 12.0462C63.8688 11.6284 63.3778 11.0253 63.0967 10.3184C62.9283 9.57004 62.9852 8.78843 63.2604 8.07255C63.5355 7.35667 64.0165 6.7388 64.6424 6.29731C65.3096 5.9454 66.0523 5.76175 66.8062 5.76256H67.4013C67.4967 5.76167 67.5899 5.73365 67.67 5.6816C67.75 5.62956 67.8136 5.55577 67.8534 5.4688C67.8931 5.38183 67.9073 5.28532 67.8943 5.19055C67.8813 5.09579 67.8417 5.00668 67.78 4.93368C67.1592 4.20621 66.4709 3.53943 65.7243 2.94242C65.6363 2.87266 65.5274 2.83455 65.4152 2.83403C65.3188 2.83624 65.225 2.86569 65.1447 2.91915C65.039 2.99196 64.9168 3.03716 64.7892 3.05081C60.616 3.53892 56.4814 5.46045 51.7982 9.1097C49.928 10.5663 48.1273 12.2088 46.4426 13.6964C44.7578 15.184 43.0963 16.5941 40.8706 17.1907L40.6851 17.245C38.2507 17.8958 35.7236 18.57 33.8302 20.4605C31.9368 22.3509 31.8286 24.8844 33.8302 27.3405L34.3944 28.0455C35.4937 29.4746 36.6755 30.838 37.9339 32.1286C38.5951 32.8418 39.4885 33.2952 40.4533 33.4071C40.788 33.4069 41.1165 33.3158 41.4038 33.1436C41.5899 33.0369 41.7507 32.8908 41.8748 32.7156C41.9989 32.5403 42.0834 32.34 42.1225 32.1286C42.2925 31.1214 41.512 29.9749 40.716 28.9909C40.6109 28.8718 40.5448 28.7231 40.5268 28.5651C40.5089 28.4071 40.5399 28.2473 40.6156 28.1075C40.6733 27.973 40.7649 27.8559 40.8814 27.7676C40.9979 27.6793 41.1354 27.6229 41.2802 27.604C41.3652 27.6099 41.4478 27.6353 41.5215 27.6783C41.5952 27.7213 41.6581 27.7806 41.7052 27.8518C42.5922 28.8399 43.2285 30.0281 43.56 31.3152C43.5734 31.3982 43.6082 31.4762 43.6611 31.5415C43.714 31.6067 43.783 31.657 43.8614 31.6871C43.9354 31.719 44.0034 31.7635 44.0623 31.8188C44.3637 32.1442 44.6574 32.4696 44.9897 32.764L45.121 32.8801C45.1461 32.9071 45.1748 32.9306 45.2061 32.9499L45.3606 33.0585L45.4766 33.1281C45.6386 33.2485 45.8186 33.3427 46.0098 33.4071L46.3576 33.4922H46.5198H46.9758L47.285 33.4149C47.3321 33.4022 47.3766 33.3812 47.4163 33.3528L47.5941 33.2367C47.6496 33.1809 47.7013 33.1214 47.7486 33.0585L47.8646 32.8493L47.9264 32.6864C47.9264 32.578 47.9959 32.4696 48.0268 32.3611C48.0858 32.1314 48.1322 31.8986 48.1659 31.6639V31.4469C48.1659 31.3307 48.1659 31.2222 48.1659 31.106C48.1882 30.6149 48.1727 30.1226 48.1196 29.6338L48.0732 29.1691C48.0732 28.9599 48.0114 28.7506 47.9805 28.5414C47.9109 28.1385 47.9187 27.6272 48.4906 27.4413C48.5443 27.4326 48.5991 27.4326 48.6528 27.4413C48.8107 27.4408 48.965 27.4888 49.0949 27.5788C49.2248 27.6689 49.324 27.7965 49.3793 27.9448C49.5437 28.8142 49.6418 29.6947 49.6729 30.579C49.673 30.6608 49.6935 30.7413 49.7327 30.813C49.7719 30.8848 49.8284 30.9456 49.8971 30.9897L50.0207 31.0595C50.4366 31.402 50.8315 31.7693 51.2031 32.1596L51.7518 32.6942L52.0919 33.0042L52.2851 33.0352Z" fill="#755C33"/>
<path d="M60.4614 52.7537C57.8493 52.7537 56.1182 52.2191 55.4535 51.2041C54.6189 49.9257 55.6468 48.2831 56.3346 47.4153C56.3828 47.3466 56.4129 47.2669 56.4219 47.1834C56.4309 47.0999 56.4186 47.0153 56.3862 46.9379C56.3537 46.8604 56.3022 46.7926 56.2364 46.7406C56.1706 46.6886 56.0927 46.6541 56.01 46.6405C55.7318 46.6018 55.4536 46.5631 55.1753 46.5011C53.367 46.0905 50.5385 44.6648 50.7085 42.5807C50.778 41.6432 51.5277 41.1707 52.571 40.6129C53.8281 39.9399 55.1386 39.3722 56.4891 38.9159C57.5012 38.5888 58.5339 38.33 59.5804 38.1411C59.6582 38.1257 59.7314 38.0925 59.7944 38.0441C59.8574 37.9957 59.9085 37.9336 59.9436 37.8623C59.9779 37.791 59.9957 37.7128 59.9957 37.6336C59.9957 37.5545 59.9779 37.4764 59.9436 37.4051C59.9126 37.363 59.8842 37.3191 59.8586 37.2735C59.5999 36.776 59.4452 36.2307 59.404 35.6711C59.3628 35.1116 59.436 34.5496 59.619 34.0194C60.0294 32.8627 60.8795 31.9156 61.9838 31.385C63.1048 30.8953 64.2726 30.5215 65.4692 30.2694L66.5203 29.9981L72.2855 28.4485L73.9161 28.0379C76.7137 27.3638 79.6118 26.6588 81.6443 24.6056C81.7676 24.4751 81.9365 24.3973 82.1157 24.3887C82.3118 24.3993 82.4979 24.4788 82.6412 24.6134C82.7152 24.679 82.8064 24.7219 82.904 24.7373H83.0585C84.8082 25.2352 86.3299 26.3295 87.3611 27.8315C88.3924 29.3336 88.8687 31.1493 88.7078 32.9656C88.7131 33.0706 88.6969 33.1754 88.6605 33.2739C88.624 33.3725 88.5678 33.4627 88.4956 33.5388C88.4233 33.6149 88.3364 33.6754 88.24 33.7168C88.1436 33.7581 88.0398 33.7793 87.935 33.7792H87.7882C87.2241 33.7792 85.4697 33.7791 84.7819 35.2124C84.6447 35.444 84.5615 35.7037 84.5387 35.9721C84.516 36.2405 84.5542 36.5106 84.6505 36.762C84.7822 37.0487 84.974 37.3037 85.2127 37.5095C85.4514 37.7154 85.7314 37.8674 86.0339 37.9552C86.6317 38.1408 87.2552 38.2298 87.8809 38.2187C89.5579 38.2187 90.6012 37.6376 90.7248 36.6148C90.7248 36.4093 90.8063 36.2123 90.9513 36.067C91.0962 35.9217 91.2927 35.84 91.4977 35.84C91.6322 35.8472 91.7632 35.8859 91.88 35.9532C91.9968 36.0205 92.0962 36.1145 92.17 36.2274C93.5456 38.0714 93.422 40.4346 93.1283 42.5033C92.9815 43.5183 92.8733 44.2853 92.2319 44.7734C91.3862 45.2618 90.4449 45.5606 89.4729 45.649C89.071 45.7187 88.7001 45.7883 88.3369 45.8735C82.4171 47.3146 76.2732 48.9726 70.0675 50.9019C67.2918 51.8826 64.405 52.5126 61.4738 52.777C61.2033 52.7382 60.8401 52.7537 60.4614 52.7537ZM63.3672 44.0296C63.5397 44.0232 63.7079 44.0842 63.8363 44.1998C63.9646 44.3155 64.0431 44.4768 64.055 44.6495C64.0851 44.8301 64.0504 45.0156 63.957 45.1731C63.8636 45.3305 63.7176 45.4496 63.5449 45.5094C62.344 45.8848 61.1238 46.1951 59.8895 46.4391C59.8355 46.449 59.7834 46.4673 59.735 46.4934C59.0866 46.8364 58.4969 47.281 57.9884 47.8105C57.665 48.1386 57.3798 48.5026 57.1383 48.8953L57.0379 49.0657C56.8406 49.2659 56.7299 49.5359 56.7299 49.8172C56.7299 50.0986 56.8406 50.3686 57.0379 50.5688C57.4938 51.0801 58.5835 51.2042 60.1291 51.2352H60.8169C64.1323 51.2352 67.3936 50.1813 70.5467 49.1663C71.4354 48.8719 72.3241 48.5854 73.1974 48.3297C77.4711 47.0668 81.8221 45.8813 86.1344 44.8121L89.3879 44.0374C89.513 44.0122 89.6394 43.994 89.7666 43.9831C90.2312 43.9674 90.6838 43.8313 91.0803 43.5879C91.2385 43.482 91.369 43.3394 91.4605 43.1722C91.552 43.0049 91.6018 42.8179 91.6059 42.6272V42.4102C91.8202 41.2994 91.8515 40.161 91.6986 39.04C91.685 38.955 91.6493 38.8752 91.595 38.8085C91.5407 38.7418 91.4698 38.6907 91.3895 38.6604C91.3308 38.6487 91.2704 38.6487 91.2117 38.6604C91.1011 38.6628 90.9935 38.6978 90.9026 38.761C89.9606 39.4381 88.8231 39.7865 87.6645 39.7528C86.5375 39.7677 85.4299 39.4585 84.4728 38.8618C83.7974 38.4203 83.3097 37.743 83.1041 36.9614C82.8984 36.1798 82.9896 35.3494 83.3599 34.6313C83.6997 34.0108 84.1859 33.483 84.7759 33.0941C85.3659 32.7051 86.0419 32.4669 86.7448 32.4C86.869 32.3792 86.9812 32.3132 87.0596 32.2145C87.1381 32.1158 87.1774 31.9915 87.1699 31.8655C87.0877 30.5521 86.5958 29.2978 85.7637 28.28C84.9316 27.2623 83.8014 26.5326 82.533 26.194C82.533 26.194 82.533 26.1939 82.448 26.1397C82.3916 26.1323 82.3345 26.1323 82.278 26.1397C82.1603 26.143 82.0466 26.1838 81.9534 26.256C79.4109 28.3789 75.8868 29.2079 72.4864 30.0136C71.6286 30.2151 70.7862 30.4166 69.9825 30.6257L66.2343 31.633L65.3069 31.8577C64.3194 32.0393 63.3605 32.352 62.4553 32.7874C62.0045 33.0217 61.6238 33.3719 61.3523 33.8021C61.0807 34.2322 60.928 34.7269 60.9097 35.2357C60.8829 35.7126 60.979 36.1883 61.1888 36.6171C61.3986 37.0459 61.715 37.4135 62.1075 37.6841C62.1883 37.7357 62.2822 37.7625 62.378 37.7615H62.4166C63.2667 37.6918 64.0086 37.6609 64.6964 37.6609H65.0365C65.2276 37.6791 65.4073 37.7606 65.5472 37.8924C65.6871 38.0242 65.7793 38.199 65.8093 38.3891C65.848 38.5167 65.8378 38.6542 65.7806 38.7746C65.7234 38.895 65.6234 38.9897 65.5001 39.04C64.8585 39.3188 64.167 39.4636 63.4677 39.466C63.0527 39.4671 62.6394 39.4124 62.2389 39.3033C62.1954 39.2961 62.151 39.2961 62.1075 39.3033H62.0534C60.9891 39.4065 59.933 39.5826 58.8926 39.8303C56.9064 40.3184 54.6421 40.9305 53.0115 42.1547L52.8724 42.2553C52.6019 42.449 52.3855 42.604 52.3469 42.9062C52.3082 43.2084 52.4782 43.4176 52.7023 43.681L52.7874 43.7816C53.1282 44.138 53.5386 44.4203 53.993 44.6107C54.9128 45.0562 55.9162 45.3017 56.9374 45.3312H57.2774C57.8807 45.3261 58.4827 45.2744 59.0781 45.1763C59.1315 45.168 59.1835 45.1523 59.2326 45.1297C60.4953 44.4885 61.8899 44.1516 63.3054 44.1457L63.3672 44.0296Z" fill="#755C33"/>
</svg>
