<svg width="24" height="22" viewBox="0 0 24 22" fill="none" xmlns="http://www.w3.org/2000/svg">
<path d="M7.29289 9.70711C6.90237 9.31658 6.90237 8.68342 7.29289 8.29289C7.68342 7.90237 8.31658 7.90237 8.70711 8.29289L7.29289 9.70711ZM15.2929 8.29289C15.6834 7.90237 16.3166 7.90237 16.7071 8.29289C17.0976 8.68342 17.0976 9.31658 16.7071 9.70711L15.2929 8.29289ZM12.7071 12.2929L12 11.5858L12.7071 12.2929ZM8.70711 8.29289L12 11.5858L10.5858 13L7.29289 9.70711L8.70711 8.29289ZM12 11.5858L15.2929 8.29289L16.7071 9.70711L13.4142 13L12 11.5858ZM12 11.5858L12 11.5858L13.4142 13C12.6332 13.781 11.3668 13.7811 10.5858 13L12 11.5858Z" fill="white"/>
</svg>
