<svg width="44" height="44" viewBox="0 0 44 44" fill="none" xmlns="http://www.w3.org/2000/svg">
<path d="M0 22C0 9.84974 9.84974 0 22 0C34.1503 0 44 9.84974 44 22C44 34.1503 34.1503 44 22 44C9.84974 44 0 34.1503 0 22Z" fill="#25262D"/>
<path d="M19.5 30C19.7761 30 20 29.7761 20 29.5C20 29.2239 19.7761 29 19.5 29C19.2239 29 19 29.2239 19 29.5C19 29.7761 19.2239 30 19.5 30Z" fill="white" stroke="white" stroke-width="2" stroke-miterlimit="10" stroke-linecap="round" stroke-linejoin="round"/>
<path d="M26.5 30C26.7761 30 27 29.7761 27 29.5C27 29.2239 26.7761 29 26.5 29C26.2239 29 26 29.2239 26 29.5C26 29.7761 26.2239 30 26.5 30Z" fill="white" stroke="white" stroke-width="2" stroke-miterlimit="10" stroke-linecap="round" stroke-linejoin="round"/>
<path d="M14 14H16L18 25.9999H28L30 17H17" stroke="white" stroke-width="2" stroke-linecap="round" stroke-linejoin="round"/>
</svg>
