<svg width="240" height="150" viewBox="0 0 240 150" fill="none" xmlns="http://www.w3.org/2000/svg">
<rect width="240" height="149.057" rx="11.3744" fill="#FFFEF7"/>
<path d="M110.614 41.5163L117.723 48.6253L129.382 36.9666" stroke="#F7A400" stroke-width="1.70616" stroke-linecap="round" stroke-linejoin="round"/>
<rect x="100.948" y="23.6019" width="38.1043" height="38.1043" rx="19.0521" stroke="#F7A400" stroke-width="1.70616"/>
<rect width="13.6493" height="13.6493" transform="translate(214.977 11.374)" fill="#FFFEF7"/>
<path d="M219.737 15.9238L224.075 20.4203M219.525 20.4736L223.863 15.9771" stroke="#7E5F2F" stroke-width="1.13744" stroke-linecap="round"/>
<path d="M37.8094 86.3135C37.3228 86.3135 36.8746 86.2335 36.4647 86.0735C36.0582 85.9136 35.7333 85.6787 35.49 85.3687C35.2468 85.0555 35.1301 84.6723 35.1401 84.2191L35.1501 84.1891H36.5697C36.5697 84.3757 36.6197 84.5457 36.7197 84.6989C36.823 84.8522 36.9696 84.9739 37.1595 85.0638C37.3495 85.1505 37.5728 85.1938 37.8293 85.1938C38.2159 85.1938 38.5308 85.0955 38.7741 84.8989C39.0207 84.6989 39.144 84.419 39.144 84.0591C39.144 83.7426 39.039 83.4943 38.829 83.3144C38.6224 83.1344 38.3092 83.0444 37.8893 83.0444H37.0046V81.9498H37.8893C38.2792 81.9498 38.5675 81.8631 38.7541 81.6898C38.9407 81.5132 39.034 81.2783 39.034 80.985C39.034 80.6718 38.924 80.4219 38.7041 80.2353C38.4875 80.0453 38.1609 79.9504 37.7244 79.9504C37.4278 79.9504 37.1695 79.9937 36.9496 80.0803C36.733 80.1636 36.5597 80.2753 36.4298 80.4152L36.2798 81.3199H35.1951V79.9454C35.4784 79.6088 35.8466 79.3389 36.2998 79.1356C36.7563 78.929 37.2662 78.8257 37.8293 78.8257C38.6458 78.8257 39.2922 79.0023 39.7688 79.3555C40.2486 79.7054 40.4886 80.1869 40.4886 80.8001C40.4886 81.1867 40.3886 81.5232 40.1886 81.8098C39.9887 82.0964 39.7138 82.3163 39.3639 82.4696C39.7638 82.6129 40.0703 82.8295 40.2836 83.1194C40.4969 83.406 40.6035 83.7576 40.6035 84.1741C40.6035 84.6173 40.4852 84.9989 40.2486 85.3188C40.0154 85.6387 39.6888 85.8853 39.2689 86.0585C38.849 86.2285 38.3625 86.3135 37.8094 86.3135ZM43.0828 86.3135C42.5463 86.3135 42.1197 86.1702 41.8032 85.8836C41.4866 85.5937 41.3283 85.2005 41.3283 84.7039C41.3283 84.364 41.4199 84.0658 41.6032 83.8092C41.7898 83.5526 42.0631 83.351 42.423 83.2044C42.7862 83.0578 43.2327 82.9845 43.7626 82.9845H44.4774V82.5846C44.4774 82.3246 44.4007 82.1147 44.2474 81.9548C44.0975 81.7915 43.8709 81.7098 43.5676 81.7098C43.411 81.7098 43.2711 81.7298 43.1478 81.7698C43.0245 81.8065 42.9112 81.8598 42.8079 81.9298L42.6929 82.6446H41.6432L41.6232 81.24C41.9065 81.08 42.213 80.9501 42.5429 80.8501C42.8729 80.7501 43.2411 80.7001 43.6476 80.7001C44.3541 80.7001 44.9122 80.8651 45.3221 81.195C45.732 81.5216 45.9369 81.9897 45.9369 82.5996V84.8289C45.9369 84.9022 45.9369 84.9755 45.9369 85.0488C45.9403 85.1188 45.9469 85.1871 45.9569 85.2538L46.5218 85.3338V86.2085H44.7123C44.6756 86.1152 44.639 86.0152 44.6023 85.9086C44.5657 85.8019 44.539 85.6953 44.5224 85.5887C44.3491 85.8086 44.1441 85.9852 43.9075 86.1185C43.6743 86.2485 43.3994 86.3135 43.0828 86.3135ZM43.4727 85.2338C43.6759 85.2338 43.8692 85.1888 44.0525 85.0988C44.2358 85.0055 44.3774 84.8839 44.4774 84.7339V83.8792H43.7576C43.4377 83.8792 43.1944 83.9525 43.0278 84.0991C42.8645 84.2457 42.7829 84.4224 42.7829 84.629C42.7829 84.8222 42.8429 84.9722 42.9628 85.0788C43.0861 85.1821 43.2561 85.2338 43.4727 85.2338ZM47.1816 86.2085V85.3338L47.9613 85.1838V81.8298L47.1816 81.6798V80.8001H50.0807V81.6798L49.4159 81.8298V82.8595H49.9158L50.7255 81.6598C50.9288 81.3466 51.1404 81.1117 51.3603 80.9551C51.5803 80.7951 51.8469 80.7151 52.1601 80.7151C52.3467 80.7151 52.5083 80.7385 52.645 80.7851C52.7816 80.8318 52.9149 80.8951 53.0448 80.975L52.7999 81.9847C52.7066 81.9614 52.6416 81.9464 52.605 81.9398C52.5716 81.9298 52.53 81.9248 52.48 81.9248C52.3667 81.9248 52.2567 81.9631 52.1501 82.0397C52.0435 82.1164 51.9502 82.213 51.8702 82.3296L51.1704 83.3493L52.425 85.2138L53.1598 85.3338V86.2085H51.1554L49.9757 84.1841H49.4159V85.1838L50.0807 85.3338V86.2085H47.1816ZM55.4991 86.3135C54.9626 86.3135 54.5361 86.1702 54.2195 85.8836C53.9029 85.5937 53.7446 85.2005 53.7446 84.7039C53.7446 84.364 53.8363 84.0658 54.0195 83.8092C54.2062 83.5526 54.4794 83.351 54.8393 83.2044C55.2025 83.0578 55.6491 82.9845 56.1789 82.9845H56.8937V82.5846C56.8937 82.3246 56.8171 82.1147 56.6638 81.9548C56.5138 81.7915 56.2872 81.7098 55.984 81.7098C55.8273 81.7098 55.6874 81.7298 55.5641 81.7698C55.4408 81.8065 55.3275 81.8598 55.2242 81.9298L55.1092 82.6446H54.0595L54.0395 81.24C54.3228 81.08 54.6294 80.9501 54.9593 80.8501C55.2892 80.7501 55.6574 80.7001 56.0639 80.7001C56.7704 80.7001 57.3286 80.8651 57.7384 81.195C58.1483 81.5216 58.3533 81.9897 58.3533 82.5996V84.8289C58.3533 84.9022 58.3533 84.9755 58.3533 85.0488C58.3566 85.1188 58.3633 85.1871 58.3733 85.2538L58.9381 85.3338V86.2085H57.1286C57.092 86.1152 57.0553 86.0152 57.0187 85.9086C56.982 85.8019 56.9553 85.6953 56.9387 85.5887C56.7654 85.8086 56.5605 85.9852 56.3239 86.1185C56.0906 86.2485 55.8157 86.3135 55.4991 86.3135ZM55.889 85.2338C56.0923 85.2338 56.2855 85.1888 56.4688 85.0988C56.6521 85.0055 56.7937 84.8839 56.8937 84.7339V83.8792H56.1739C55.854 83.8792 55.6107 83.9525 55.4441 84.0991C55.2808 84.2457 55.1992 84.4224 55.1992 84.629C55.1992 84.8222 55.2592 84.9722 55.3791 85.0788C55.5024 85.1821 55.6724 85.2338 55.889 85.2338ZM61.7223 86.3085C61.3124 86.3085 60.9358 86.2452 60.5926 86.1185C60.2527 85.9886 59.9828 85.8003 59.7828 85.5537C59.5829 85.3038 59.4896 84.9989 59.5029 84.639L59.5079 84.609H60.9225C60.9225 84.7323 60.9558 84.8439 61.0225 84.9439C61.0925 85.0405 61.1908 85.1172 61.3174 85.1738C61.444 85.2305 61.5956 85.2588 61.7723 85.2588C62.0588 85.2588 62.2688 85.1938 62.4021 85.0638C62.5387 84.9305 62.607 84.7656 62.607 84.569C62.607 84.3424 62.5404 84.1758 62.4071 84.0691C62.2738 83.9625 62.0688 83.9092 61.7922 83.9092H61.0125V82.9795H61.7922C62.0388 82.9795 62.2205 82.9278 62.3371 82.8245C62.4537 82.7179 62.512 82.5679 62.512 82.3746C62.512 82.2047 62.4554 82.0614 62.3421 81.9448C62.2288 81.8248 62.0388 81.7648 61.7723 81.7648C61.6223 81.7648 61.489 81.7898 61.3724 81.8398C61.2591 81.8864 61.1691 81.9548 61.1024 82.0447C61.0391 82.1314 61.0075 82.2347 61.0075 82.3546H59.5929L59.5829 82.3246C59.5696 82.0014 59.6545 81.7198 59.8378 81.4799C60.0244 81.2366 60.281 81.0467 60.6076 80.9101C60.9375 80.7734 61.3091 80.7051 61.7223 80.7051C62.4154 80.7051 62.9619 80.8418 63.3618 81.115C63.765 81.3849 63.9666 81.7631 63.9666 82.2497C63.9666 82.5063 63.8933 82.7379 63.7467 82.9445C63.6 83.1477 63.3968 83.3077 63.1368 83.4243C63.7533 83.6443 64.0616 84.0608 64.0616 84.674C64.0616 85.0139 63.9633 85.3054 63.7667 85.5487C63.5734 85.792 63.3001 85.9802 62.9469 86.1135C62.5937 86.2435 62.1855 86.3085 61.7223 86.3085ZM67.2406 86.2085V85.3338L68.0154 85.1838V79.9603L67.2406 79.8104V78.9307H68.0154H69.475L72.4091 83.8292L72.4391 83.8242V79.9603L71.6643 79.8104V78.9307H73.8987H74.6734V79.8104L73.8987 79.9603V86.2085H72.4391L69.505 81.3099L69.475 81.3149V85.1838L70.2547 85.3338V86.2085H67.2406ZM75.1933 84.609V83.5993H78.4773V84.609H75.1933ZM76.8428 83.0944C76.253 83.0944 75.7848 82.9261 75.4382 82.5896C75.0916 82.2497 74.9184 81.8081 74.9184 81.265V80.6801C74.9184 80.3202 74.9967 80.0037 75.1533 79.7304C75.3132 79.4538 75.5348 79.2389 75.8181 79.0856C76.1047 78.929 76.4412 78.8507 76.8278 78.8507C77.221 78.8507 77.5609 78.929 77.8475 79.0856C78.1341 79.2389 78.3557 79.4538 78.5123 79.7304C78.6722 80.0037 78.7522 80.3202 78.7522 80.6801V81.265C78.7522 81.8081 78.5789 82.2497 78.2324 82.5896C77.8858 82.9261 77.4226 83.0944 76.8428 83.0944ZM76.8428 81.9897C77.0461 81.9897 77.2027 81.9231 77.3126 81.7898C77.4226 81.6565 77.4776 81.4816 77.4776 81.265V80.6801C77.4776 80.4669 77.4209 80.2936 77.3076 80.1603C77.1977 80.027 77.0377 79.9603 76.8278 79.9603C76.6212 79.9603 76.4629 80.027 76.3529 80.1603C76.2463 80.2936 76.193 80.4669 76.193 80.6801V81.265C76.193 81.4816 76.248 81.6565 76.3579 81.7898C76.4679 81.9231 76.6295 81.9897 76.8428 81.9897ZM79.8719 86.2085V85.3338L80.6467 85.1838V80.2203H79.2821V79.1906L82.1062 78.9307V85.1838L82.881 85.3338V86.2085H79.8719ZM83.4958 86.2085V85.2538L85.8501 82.7295C86.0767 82.4696 86.2583 82.238 86.395 82.0347C86.5349 81.8281 86.6349 81.6382 86.6949 81.4649C86.7582 81.2883 86.7898 81.1167 86.7898 80.9501C86.7898 80.6635 86.7082 80.4252 86.5449 80.2353C86.385 80.0453 86.165 79.9504 85.8851 79.9504C85.5252 79.9504 85.2553 80.0653 85.0753 80.2952C84.8987 80.5218 84.8104 80.8251 84.8104 81.205H83.3908L83.3808 81.175C83.3709 80.7385 83.4658 80.3419 83.6658 79.9853C83.8657 79.6288 84.154 79.3472 84.5305 79.1406C84.9104 78.9307 85.3586 78.8257 85.8751 78.8257C86.365 78.8257 86.7865 78.914 87.1397 79.0906C87.493 79.2672 87.7662 79.5155 87.9595 79.8354C88.1528 80.1553 88.2494 80.5335 88.2494 80.97C88.2494 81.19 88.2194 81.3983 88.1594 81.5949C88.1028 81.7881 88.0111 81.9864 87.8845 82.1897C87.7612 82.3896 87.5996 82.6079 87.3997 82.8445C87.203 83.0811 86.9665 83.3493 86.6899 83.6493L85.3953 85.0638L85.4052 85.0888H88.4643V86.2085H83.4958ZM91.5584 86.3135C91.1052 86.3135 90.692 86.2335 90.3188 86.0735C89.9456 85.9136 89.649 85.6803 89.4291 85.3737C89.2091 85.0672 89.1042 84.6956 89.1142 84.2591L89.1241 84.2291H90.5387C90.5387 84.4157 90.5804 84.5823 90.6637 84.7289C90.7503 84.8722 90.872 84.9855 91.0286 85.0688C91.1885 85.1521 91.3785 85.1938 91.5984 85.1938C91.9416 85.1938 92.2132 85.0988 92.4132 84.9089C92.6131 84.7189 92.7131 84.454 92.7131 84.1141C92.7131 83.7609 92.6148 83.4943 92.4182 83.3144C92.2249 83.1344 91.9366 83.0444 91.5534 83.0444H90.7337V81.9498H91.5534C91.79 81.9498 91.985 81.9098 92.1383 81.8298C92.2949 81.7498 92.4098 81.6349 92.4832 81.4849C92.5598 81.3349 92.5981 81.155 92.5981 80.9451C92.5981 80.6418 92.5131 80.4002 92.3432 80.2203C92.1732 80.0403 91.925 79.9504 91.5984 79.9504C91.4085 79.9504 91.2402 79.987 91.0936 80.0603C90.9469 80.1303 90.832 80.2319 90.7487 80.3652C90.6687 80.4952 90.6287 80.6468 90.6287 80.8201H89.2141L89.2041 80.7901C89.1908 80.4102 89.2874 80.072 89.494 79.7754C89.7006 79.4788 89.9856 79.2472 90.3488 79.0806C90.7153 78.9107 91.1286 78.8257 91.5884 78.8257C92.0849 78.8257 92.5181 78.9057 92.888 79.0656C93.2579 79.2222 93.5445 79.4505 93.7478 79.7504C93.9544 80.0503 94.0577 80.4119 94.0577 80.8351C94.0577 81.1883 93.9561 81.5099 93.7528 81.7998C93.5528 82.0897 93.2763 82.3146 92.923 82.4746C93.3462 82.6246 93.6595 82.8462 93.8627 83.1394C94.0694 83.4293 94.1727 83.7742 94.1727 84.1741C94.1727 84.6173 94.061 84.9989 93.8378 85.3188C93.6145 85.6353 93.3062 85.8803 92.913 86.0535C92.5198 86.2268 92.0683 86.3135 91.5584 86.3135ZM97.8016 86.2085V84.629H94.8375L94.7675 83.7542L97.7866 78.9307H99.2611V83.4993H100.081V84.629H99.2611V86.2085H97.8016ZM96.1271 83.4993H97.8016V80.8501L97.7716 80.8401L97.6566 81.04L96.1271 83.4993ZM104.645 88.3928C104.518 88.3928 104.383 88.3812 104.24 88.3579C104.1 88.3379 103.966 88.3095 103.84 88.2729L104.005 87.2032C104.068 87.2165 104.138 87.2265 104.215 87.2332C104.291 87.2399 104.358 87.2432 104.415 87.2432C104.625 87.2432 104.806 87.1882 104.959 87.0782C105.113 86.9683 105.224 86.81 105.294 86.6034L105.414 86.2685L103.605 81.7748L102.94 81.6798V80.8001H105.809V81.6798L105.149 81.7798L105.999 84.1641L106.104 84.459H106.134L107.139 81.7698L106.494 81.6798V80.8001H109.168V81.6798L108.558 81.7648L106.494 87.0133C106.394 87.2632 106.266 87.4914 106.109 87.6981C105.956 87.908 105.759 88.0763 105.519 88.2029C105.283 88.3295 104.991 88.3928 104.645 88.3928ZM112.047 86.3135C111.528 86.3135 111.078 86.1968 110.698 85.9636C110.321 85.7303 110.031 85.4087 109.828 84.9989C109.625 84.5856 109.523 84.1141 109.523 83.5843V83.4343C109.523 82.9011 109.626 82.4296 109.833 82.0197C110.04 81.6099 110.331 81.2883 110.708 81.055C111.084 80.8184 111.528 80.7001 112.037 80.7001C112.524 80.7001 112.942 80.7768 113.292 80.9301C113.645 81.08 113.932 81.255 114.152 81.4549L114.142 83.0044H113.042L112.847 82.0397C112.767 81.9598 112.666 81.8948 112.542 81.8448C112.419 81.7948 112.294 81.7698 112.167 81.7698C111.901 81.7698 111.679 81.8365 111.503 81.9698C111.329 82.103 111.199 82.293 111.113 82.5396C111.026 82.7862 110.983 83.0844 110.983 83.4343V83.5843C110.983 83.9542 111.031 84.2591 111.128 84.499C111.224 84.7356 111.353 84.9105 111.513 85.0238C111.676 85.1371 111.857 85.1938 112.057 85.1938C112.314 85.1938 112.519 85.1271 112.672 84.9939C112.829 84.8572 112.935 84.6656 112.992 84.419H114.242L114.257 84.449C114.2 84.8322 114.087 85.1638 113.917 85.4437C113.75 85.7236 113.514 85.9386 113.207 86.0885C112.904 86.2385 112.517 86.3135 112.047 86.3135ZM115.021 86.2085V85.3338L115.801 85.1838V81.8298L115.021 81.6798V80.8001H121.285V81.6798L120.51 81.8298V85.1838L121.285 85.3338V86.2085H118.42V85.3338L119.05 85.1838V81.9298H117.256V85.1838L117.886 85.3338V86.2085H115.021ZM124.589 86.3135C124.072 86.3135 123.621 86.2002 123.234 85.9736C122.847 85.7436 122.548 85.4287 122.334 85.0288C122.124 84.629 122.019 84.1724 122.019 83.6593V83.4593C122.019 82.9228 122.119 82.4479 122.319 82.0347C122.519 81.6182 122.801 81.2916 123.164 81.055C123.531 80.8151 123.962 80.6968 124.459 80.7001C124.949 80.7001 125.36 80.7968 125.693 80.99C126.027 81.1833 126.28 81.4616 126.453 81.8248C126.626 82.188 126.713 82.6279 126.713 83.1444V83.9392H123.534L123.524 83.9692C123.544 84.2058 123.602 84.4174 123.699 84.604C123.799 84.7873 123.939 84.9322 124.119 85.0388C124.299 85.1421 124.517 85.1938 124.774 85.1938C125.04 85.1938 125.288 85.1605 125.518 85.0938C125.752 85.0238 125.978 84.9222 126.198 84.7889L126.593 85.6887C126.37 85.8686 126.088 86.0186 125.748 86.1385C125.412 86.2551 125.025 86.3135 124.589 86.3135ZM123.544 82.9745H125.348V82.8445C125.348 82.6246 125.318 82.4363 125.258 82.2797C125.202 82.1197 125.108 81.9964 124.979 81.9098C124.852 81.8231 124.687 81.7798 124.484 81.7798C124.29 81.7798 124.127 81.8315 123.994 81.9348C123.861 82.0347 123.756 82.173 123.679 82.3496C123.606 82.5263 123.556 82.7262 123.529 82.9495L123.544 82.9745ZM127.498 86.2085V85.3338L128.278 85.1838V81.8298L127.498 81.6798V80.8001H129.732H130.512V81.6798L129.732 81.8298V85.0888H131.207V80.8001H132.666V85.0888H134.141V81.8298L133.361 81.6798V80.8001H135.595H136.375V81.6798L135.595 81.8298V85.1838L136.375 85.3338V86.2085H127.498ZM137.135 86.2085V85.3338L137.915 85.1838V81.8298L137.135 81.6798V80.8001H139.999V81.6798L139.369 81.8298V82.9894H141.149V81.8298L140.524 81.6798V80.8001H141.149H142.608H143.388V81.6798L142.608 81.8298V85.1838L143.388 85.3338V86.2085H140.524V85.3338L141.149 85.1838V84.1091H139.369V85.1838L139.999 85.3338V86.2085H137.135ZM146.682 86.3135C146.149 86.3135 145.691 86.1968 145.308 85.9636C144.924 85.7303 144.631 85.4071 144.428 84.9939C144.224 84.5773 144.123 84.0991 144.123 83.5593V83.4543C144.123 82.9178 144.224 82.4429 144.428 82.0297C144.631 81.6132 144.923 81.2883 145.303 81.055C145.686 80.8184 146.142 80.7001 146.672 80.7001C147.209 80.7001 147.667 80.8184 148.047 81.055C148.427 81.2883 148.718 81.6115 148.921 82.0247C149.125 82.4379 149.226 82.9145 149.226 83.4543V83.5593C149.226 84.0991 149.125 84.5773 148.921 84.9939C148.718 85.4071 148.427 85.7303 148.047 85.9636C147.667 86.1968 147.212 86.3135 146.682 86.3135ZM146.682 85.1938C146.935 85.1938 147.142 85.1255 147.302 84.9889C147.462 84.8522 147.58 84.6623 147.657 84.419C147.733 84.1724 147.772 83.8859 147.772 83.5593V83.4543C147.772 83.1344 147.733 82.8528 147.657 82.6096C147.58 82.363 147.46 82.1714 147.297 82.0347C147.137 81.8948 146.929 81.8248 146.672 81.8248C146.422 81.8248 146.216 81.8948 146.052 82.0347C145.889 82.1714 145.769 82.363 145.692 82.6096C145.619 82.8528 145.582 83.1344 145.582 83.4543V83.5593C145.582 83.8859 145.619 84.1724 145.692 84.419C145.769 84.6656 145.889 84.8572 146.052 84.9939C146.216 85.1271 146.426 85.1938 146.682 85.1938ZM154.93 86.3135C154.396 86.3135 153.938 86.1968 153.555 85.9636C153.172 85.7303 152.879 85.4071 152.675 84.9939C152.472 84.5773 152.37 84.0991 152.37 83.5593V83.4543C152.37 82.9178 152.472 82.4429 152.675 82.0297C152.879 81.6132 153.17 81.2883 153.55 81.055C153.933 80.8184 154.39 80.7001 154.92 80.7001C155.456 80.7001 155.914 80.8184 156.294 81.055C156.674 81.2883 156.966 81.6115 157.169 82.0247C157.372 82.4379 157.474 82.9145 157.474 83.4543V83.5593C157.474 84.0991 157.372 84.5773 157.169 84.9939C156.966 85.4071 156.674 85.7303 156.294 85.9636C155.914 86.1968 155.459 86.3135 154.93 86.3135ZM154.93 85.1938C155.183 85.1938 155.39 85.1255 155.549 84.9889C155.709 84.8522 155.828 84.6623 155.904 84.419C155.981 84.1724 156.019 83.8859 156.019 83.5593V83.4543C156.019 83.1344 155.981 82.8528 155.904 82.6096C155.828 82.363 155.708 82.1714 155.544 82.0347C155.385 81.8948 155.176 81.8248 154.92 81.8248C154.67 81.8248 154.463 81.8948 154.3 82.0347C154.137 82.1714 154.017 82.363 153.94 82.6096C153.867 82.8528 153.83 83.1344 153.83 83.4543V83.5593C153.83 83.8859 153.867 84.1724 153.94 84.419C154.017 84.6656 154.137 84.8572 154.3 84.9939C154.463 85.1271 154.673 85.1938 154.93 85.1938ZM160.088 88.2879V87.4081L160.863 87.2582V86.1885C160.763 86.2285 160.656 86.2585 160.543 86.2785C160.43 86.3018 160.306 86.3135 160.173 86.3135C159.757 86.3135 159.402 86.2035 159.108 85.9836C158.815 85.7603 158.59 85.4487 158.434 85.0488C158.28 84.649 158.204 84.1841 158.204 83.6543V83.5493C158.204 82.9795 158.28 82.4813 158.434 82.0547C158.59 81.6282 158.817 81.2966 159.113 81.06C159.41 80.8201 159.767 80.7001 160.183 80.7001C160.316 80.7001 160.438 80.7118 160.548 80.7351C160.658 80.7584 160.763 80.7901 160.863 80.8301V79.4405L160.088 79.2905V78.4108H162.322V80.8401C162.419 80.7968 162.526 80.7634 162.642 80.7401C162.759 80.7135 162.889 80.7001 163.032 80.7001C163.445 80.7001 163.799 80.8201 164.092 81.06C164.389 81.2966 164.615 81.6282 164.772 82.0547C164.928 82.4813 165.007 82.9795 165.007 83.5493V83.6543C165.007 84.1841 164.928 84.649 164.772 85.0488C164.618 85.4487 164.394 85.7603 164.097 85.9836C163.804 86.2035 163.452 86.3135 163.042 86.3135C162.899 86.3135 162.769 86.3018 162.652 86.2785C162.536 86.2551 162.426 86.2235 162.322 86.1835V87.2582L163.097 87.4081V88.2879H160.088ZM160.563 85.1938C160.613 85.1938 160.663 85.1905 160.713 85.1838C160.763 85.1771 160.813 85.1655 160.863 85.1488V81.8698C160.82 81.8565 160.773 81.8465 160.723 81.8398C160.676 81.8298 160.626 81.8248 160.573 81.8248C160.366 81.8248 160.196 81.8964 160.063 82.0397C159.93 82.183 159.83 82.3846 159.763 82.6446C159.697 82.9011 159.663 83.2027 159.663 83.5493V83.6543C159.663 84.1308 159.732 84.5073 159.868 84.7839C160.008 85.0572 160.24 85.1938 160.563 85.1938ZM162.647 85.1938C162.954 85.1938 163.181 85.0555 163.327 84.7789C163.474 84.499 163.547 84.1241 163.547 83.6543V83.5493C163.547 83.2094 163.514 82.9111 163.447 82.6545C163.38 82.3946 163.279 82.1914 163.142 82.0447C163.009 81.8981 162.836 81.8248 162.622 81.8248C162.566 81.8248 162.512 81.8298 162.462 81.8398C162.412 81.8465 162.366 81.8565 162.322 81.8698V85.1488C162.366 85.1621 162.414 85.1738 162.467 85.1838C162.521 85.1905 162.581 85.1938 162.647 85.1938ZM168.256 86.3135C167.723 86.3135 167.264 86.1968 166.881 85.9636C166.498 85.7303 166.205 85.4071 166.001 84.9939C165.798 84.5773 165.696 84.0991 165.696 83.5593V83.4543C165.696 82.9178 165.798 82.4429 166.001 82.0297C166.205 81.6132 166.496 81.2883 166.876 81.055C167.259 80.8184 167.716 80.7001 168.246 80.7001C168.782 80.7001 169.24 80.8184 169.62 81.055C170 81.2883 170.292 81.6115 170.495 82.0247C170.698 82.4379 170.8 82.9145 170.8 83.4543V83.5593C170.8 84.0991 170.698 84.5773 170.495 84.9939C170.292 85.4071 170 85.7303 169.62 85.9636C169.24 86.1968 168.786 86.3135 168.256 86.3135ZM168.256 85.1938C168.509 85.1938 168.716 85.1255 168.876 84.9889C169.035 84.8522 169.154 84.6623 169.23 84.419C169.307 84.1724 169.345 83.8859 169.345 83.5593V83.4543C169.345 83.1344 169.307 82.8528 169.23 82.6096C169.154 82.363 169.034 82.1714 168.871 82.0347C168.711 81.8948 168.502 81.8248 168.246 81.8248C167.996 81.8248 167.789 81.8948 167.626 82.0347C167.463 82.1714 167.343 82.363 167.266 82.6096C167.193 82.8528 167.156 83.1344 167.156 83.4543V83.5593C167.156 83.8859 167.193 84.1724 167.266 84.419C167.343 84.6656 167.463 84.8572 167.626 84.9939C167.789 85.1271 167.999 85.1938 168.256 85.1938ZM171.38 88.2879V87.4081L172.085 87.2582V81.8298L171.305 81.6798V80.8001H173.424L173.494 81.4299C173.654 81.1966 173.847 81.0167 174.074 80.8901C174.301 80.7634 174.57 80.7001 174.884 80.7001C175.32 80.7001 175.693 80.8201 176.003 81.06C176.313 81.2966 176.55 81.6282 176.713 82.0547C176.88 82.4813 176.963 82.9795 176.963 83.5493V83.6543C176.963 84.1874 176.88 84.654 176.713 85.0538C176.55 85.4504 176.312 85.7603 175.998 85.9836C175.688 86.2035 175.314 86.3135 174.874 86.3135C174.584 86.3135 174.327 86.2618 174.104 86.1585C173.884 86.0519 173.696 85.8969 173.539 85.6936V87.2582L174.244 87.4081V88.2879H171.38ZM174.439 85.1938C174.812 85.1938 175.082 85.0555 175.249 84.7789C175.419 84.5023 175.504 84.1274 175.504 83.6543V83.5493C175.504 83.2061 175.465 82.9078 175.389 82.6545C175.312 82.398 175.194 82.198 175.034 82.0547C174.877 81.9081 174.675 81.8348 174.429 81.8348C174.229 81.8348 174.052 81.8798 173.899 81.9698C173.749 82.0597 173.629 82.188 173.539 82.3546V84.7239C173.629 84.8772 173.749 84.9939 173.899 85.0738C174.052 85.1538 174.232 85.1938 174.439 85.1938ZM177.653 86.2085V85.3338L178.433 85.1838V81.8298L177.653 81.6798V80.8001H178.433H180.237L181.617 84.509H181.647L183.036 80.8001H184.866H185.641V81.6798L184.866 81.8298V85.1838L185.641 85.3338V86.2085H182.856V85.3338L183.406 85.1838V82.9894L183.376 82.9845L182.122 86.2085H181.142L179.917 83.0444L179.887 83.0494V85.1838L180.442 85.3338V86.2085H177.653ZM186.4 86.2085L186.38 85.0588L186.54 85.0538C186.764 85.0538 186.932 84.9955 187.045 84.8789C187.158 84.7623 187.235 84.5623 187.275 84.2791C187.318 83.9958 187.34 83.6043 187.34 83.1044V81.8298L186.56 81.6798V80.8001H191.554H192.334V81.6798L191.554 81.8298V85.1838L192.334 85.3338V86.2085H189.319V85.3338L190.099 85.1838V81.9298H188.8V83.1044C188.8 84.1708 188.635 84.9555 188.305 85.4587C187.978 85.9586 187.42 86.2085 186.63 86.2085H186.4ZM195.588 86.3135C195.071 86.3135 194.62 86.2002 194.233 85.9736C193.846 85.7436 193.547 85.4287 193.333 85.0288C193.123 84.629 193.018 84.1724 193.018 83.6593V83.4593C193.018 82.9228 193.118 82.4479 193.318 82.0347C193.518 81.6182 193.8 81.2916 194.163 81.055C194.53 80.8151 194.961 80.6968 195.458 80.7001C195.948 80.7001 196.359 80.7968 196.692 80.99C197.026 81.1833 197.279 81.4616 197.452 81.8248C197.625 82.188 197.712 82.6279 197.712 83.1444V83.9392H194.533L194.523 83.9692C194.543 84.2058 194.601 84.4174 194.698 84.604C194.798 84.7873 194.938 84.9322 195.118 85.0388C195.298 85.1421 195.516 85.1938 195.773 85.1938C196.039 85.1938 196.287 85.1605 196.517 85.0938C196.751 85.0238 196.977 84.9222 197.197 84.7889L197.592 85.6887C197.369 85.8686 197.087 86.0186 196.747 86.1385C196.411 86.2551 196.024 86.3135 195.588 86.3135ZM194.543 82.9745H196.347V82.8445C196.347 82.6246 196.317 82.4363 196.257 82.2797C196.201 82.1197 196.107 81.9964 195.977 81.9098C195.851 81.8231 195.686 81.7798 195.483 81.7798C195.289 81.7798 195.126 81.8315 194.993 81.9348C194.859 82.0347 194.755 82.173 194.678 82.3496C194.605 82.5263 194.555 82.7262 194.528 82.9495L194.543 82.9745ZM198.497 86.2085V85.3338L199.277 85.1838V81.8298L198.497 81.6798V80.8001H201.361V81.6798L200.731 81.8298V82.9894H202.511V81.8298L201.886 81.6798V80.8001H202.511H203.97H204.75V81.6798L203.97 81.8298V85.1838L204.75 85.3338V86.2085H201.886V85.3338L202.511 85.1838V84.1091H200.731V85.1838L201.361 85.3338V86.2085H198.497Z" fill="#7E5F2F"/>
<path d="M51.2794 108.372C51.1459 108.372 51.0428 108.335 50.97 108.262C50.8972 108.184 50.8608 108.074 50.8608 107.935V102.266C50.8608 102.12 50.8972 102.011 50.97 101.938C51.0428 101.866 51.1459 101.829 51.2794 101.829C51.4189 101.829 51.5251 101.866 51.5979 101.938C51.6707 102.011 51.7071 102.12 51.7071 102.266V104.695H55.4197V102.266C55.4197 102.12 55.4561 102.011 55.5289 101.938C55.6017 101.866 55.7078 101.829 55.8473 101.829C55.9808 101.829 56.0839 101.866 56.1567 101.938C56.2295 102.011 56.2659 102.12 56.2659 102.266V107.935C56.2659 108.074 56.2295 108.184 56.1567 108.262C56.0839 108.335 55.9808 108.372 55.8473 108.372C55.7078 108.372 55.6017 108.335 55.5289 108.262C55.4561 108.184 55.4197 108.074 55.4197 107.935V105.414H51.7071V107.935C51.7071 108.074 51.6707 108.184 51.5979 108.262C51.5311 108.335 51.425 108.372 51.2794 108.372ZM59.1566 108.39C58.8533 108.39 58.5772 108.329 58.3285 108.208C58.0859 108.087 57.8948 107.923 57.7553 107.717C57.6218 107.51 57.5551 107.28 57.5551 107.025C57.5551 106.697 57.637 106.44 57.8008 106.251C57.9645 106.063 58.2406 105.93 58.6288 105.851C59.0171 105.766 59.5388 105.724 60.1939 105.724H60.6216V106.251H60.2121C59.745 106.251 59.375 106.273 59.102 106.315C58.8351 106.358 58.647 106.433 58.5378 106.543C58.4286 106.646 58.374 106.791 58.374 106.979C58.374 107.216 58.4559 107.41 58.6197 107.562C58.7896 107.713 59.0201 107.789 59.3113 107.789C59.5418 107.789 59.745 107.735 59.9209 107.626C60.0969 107.51 60.2364 107.359 60.3395 107.171C60.4426 106.976 60.4942 106.755 60.4942 106.506V105.46C60.4942 105.102 60.4214 104.844 60.2758 104.686C60.1302 104.523 59.8845 104.441 59.5388 104.441C59.3386 104.441 59.1323 104.468 58.92 104.523C58.7077 104.577 58.4863 104.662 58.2557 104.777C58.1647 104.82 58.0859 104.835 58.0191 104.823C57.9524 104.805 57.8978 104.768 57.8553 104.714C57.819 104.653 57.7977 104.589 57.7917 104.523C57.7917 104.45 57.8068 104.38 57.8372 104.313C57.8735 104.247 57.9342 104.198 58.0191 104.168C58.2861 104.034 58.5499 103.94 58.8108 103.886C59.0777 103.825 59.3264 103.795 59.557 103.795C59.9513 103.795 60.2758 103.858 60.5306 103.986C60.7854 104.107 60.9765 104.298 61.1039 104.559C61.2313 104.814 61.295 105.141 61.295 105.542V107.944C61.295 108.084 61.2616 108.19 61.1949 108.262C61.1281 108.335 61.0311 108.372 60.9037 108.372C60.7824 108.372 60.6853 108.335 60.6125 108.262C60.5458 108.19 60.5124 108.084 60.5124 107.944V107.298H60.5943C60.5458 107.522 60.4548 107.717 60.3213 107.88C60.1879 108.044 60.021 108.171 59.8208 108.262C59.6267 108.347 59.4053 108.39 59.1566 108.39ZM63.1235 108.308C62.984 108.308 62.8778 108.272 62.805 108.199C62.7322 108.126 62.6958 108.02 62.6958 107.88V104.231C62.6958 104.092 62.7292 103.989 62.7959 103.922C62.8687 103.849 62.9658 103.813 63.0871 103.813C63.2205 103.813 63.3206 103.849 63.3874 103.922C63.4541 103.989 63.4875 104.092 63.4875 104.231V107.644H65.2619V104.231C65.2619 104.092 65.2952 103.989 65.362 103.922C65.4348 103.849 65.5318 103.813 65.6531 103.813C65.7866 103.813 65.8867 103.849 65.9534 103.922C66.0202 103.989 66.0535 104.092 66.0535 104.231V107.644H67.8279V104.231C67.8279 104.092 67.8613 103.989 67.928 103.922C68.0008 103.849 68.0979 103.813 68.2192 103.813C68.3466 103.813 68.4437 103.849 68.5104 103.922C68.5832 103.989 68.6196 104.092 68.6196 104.231V107.88C68.6196 108.02 68.5802 108.126 68.5013 108.199C68.4285 108.272 68.3254 108.308 68.1919 108.308H63.1235ZM72.7725 108.372C72.6572 108.372 72.5662 108.338 72.4995 108.272C72.4388 108.199 72.4085 108.099 72.4085 107.971V104.259C72.4085 104.162 72.4206 104.08 72.4449 104.013C72.4752 103.946 72.5177 103.898 72.5723 103.867C72.6269 103.831 72.6966 103.813 72.7816 103.813C72.8604 103.813 72.9272 103.828 72.9817 103.858C73.0363 103.883 73.0818 103.916 73.1182 103.958C73.1607 104.001 73.1971 104.052 73.2274 104.113L74.7289 106.761L76.2212 104.113C76.2576 104.046 76.294 103.992 76.3304 103.949C76.3668 103.907 76.4123 103.873 76.4669 103.849C76.5215 103.825 76.5882 103.813 76.6671 103.813C76.7945 103.813 76.8885 103.852 76.9491 103.931C77.0098 104.004 77.0401 104.113 77.0401 104.259V107.971C77.0401 108.099 77.0068 108.199 76.94 108.272C76.8794 108.338 76.7914 108.372 76.6762 108.372C76.5609 108.372 76.4699 108.338 76.4032 108.272C76.3364 108.199 76.3031 108.099 76.3031 107.971V104.832H76.5124L75.02 107.444C74.9897 107.492 74.9533 107.538 74.9108 107.58C74.8684 107.616 74.8077 107.635 74.7289 107.635C74.6439 107.635 74.5802 107.616 74.5378 107.58C74.5014 107.538 74.468 107.492 74.4377 107.444L72.9363 104.832H73.1364V107.971C73.1364 108.099 73.1061 108.199 73.0454 108.272C72.9848 108.338 72.8938 108.372 72.7725 108.372ZM80.5074 108.39C80.0282 108.39 79.6157 108.299 79.2699 108.117C78.9302 107.929 78.6663 107.665 78.4782 107.325C78.2902 106.979 78.1961 106.573 78.1961 106.106C78.1961 105.645 78.2871 105.241 78.4691 104.896C78.6572 104.55 78.912 104.28 79.2335 104.086C79.5611 103.892 79.9341 103.795 80.3527 103.795C80.65 103.795 80.9169 103.846 81.1535 103.949C81.3961 104.046 81.6024 104.189 81.7723 104.377C81.9421 104.565 82.0695 104.796 82.1544 105.069C82.2454 105.335 82.2909 105.639 82.2909 105.979C82.2909 106.076 82.2606 106.151 82.1999 106.206C82.1453 106.255 82.0634 106.279 81.9542 106.279H78.8422V105.751H81.745L81.5903 105.878C81.5903 105.563 81.5417 105.296 81.4447 105.078C81.3537 104.853 81.2172 104.683 81.0352 104.568C80.8593 104.453 80.6378 104.395 80.3709 104.395C80.0797 104.395 79.831 104.465 79.6248 104.604C79.4185 104.738 79.2608 104.929 79.1516 105.178C79.0424 105.42 78.9878 105.702 78.9878 106.024V106.079C78.9878 106.625 79.1182 107.037 79.3791 107.316C79.6399 107.595 80.016 107.735 80.5074 107.735C80.7015 107.735 80.8987 107.71 81.0989 107.662C81.3051 107.613 81.5023 107.525 81.6904 107.398C81.7813 107.343 81.8632 107.319 81.936 107.325C82.0149 107.325 82.0786 107.349 82.1271 107.398C82.1757 107.44 82.206 107.495 82.2181 107.562C82.2303 107.622 82.2212 107.689 82.1908 107.762C82.1605 107.835 82.1029 107.899 82.0179 107.953C81.8177 108.093 81.5781 108.202 81.2991 108.281C81.0261 108.353 80.7622 108.39 80.5074 108.39ZM83.8371 108.372C83.7037 108.372 83.6005 108.335 83.5277 108.262C83.4549 108.19 83.4185 108.084 83.4185 107.944V104.231C83.4185 104.092 83.4549 103.989 83.5277 103.922C83.6005 103.849 83.7037 103.813 83.8371 103.813C83.9706 103.813 84.0707 103.849 84.1374 103.922C84.2102 103.989 84.2466 104.092 84.2466 104.231V105.696H86.5579V104.231C86.5579 104.092 86.5913 103.989 86.658 103.922C86.7308 103.849 86.8339 103.813 86.9674 103.813C87.1008 103.813 87.204 103.849 87.2767 103.922C87.3495 103.989 87.3859 104.092 87.3859 104.231V107.944C87.3859 108.084 87.3495 108.19 87.2767 108.262C87.204 108.335 87.1008 108.372 86.9674 108.372C86.8339 108.372 86.7308 108.335 86.658 108.262C86.5913 108.19 86.5579 108.084 86.5579 107.944V106.361H84.2466V107.944C84.2466 108.084 84.2132 108.19 84.1465 108.262C84.0798 108.335 83.9767 108.372 83.8371 108.372ZM90.851 108.39C90.3718 108.39 89.9593 108.299 89.6135 108.117C89.2738 107.929 89.0099 107.665 88.8218 107.325C88.6338 106.979 88.5397 106.573 88.5397 106.106C88.5397 105.645 88.6307 105.241 88.8127 104.896C89.0008 104.55 89.2556 104.28 89.5771 104.086C89.9047 103.892 90.2777 103.795 90.6963 103.795C90.9936 103.795 91.2605 103.846 91.4971 103.949C91.7397 104.046 91.946 104.189 92.1158 104.377C92.2857 104.565 92.4131 104.796 92.498 105.069C92.589 105.335 92.6345 105.639 92.6345 105.979C92.6345 106.076 92.6042 106.151 92.5435 106.206C92.4889 106.255 92.407 106.279 92.2978 106.279H89.1858V105.751H92.0885L91.9339 105.878C91.9339 105.563 91.8853 105.296 91.7883 105.078C91.6973 104.853 91.5608 104.683 91.3788 104.568C91.2029 104.453 90.9814 104.395 90.7145 104.395C90.4233 104.395 90.1746 104.465 89.9684 104.604C89.7621 104.738 89.6044 104.929 89.4952 105.178C89.386 105.42 89.3314 105.702 89.3314 106.024V106.079C89.3314 106.625 89.4618 107.037 89.7227 107.316C89.9835 107.595 90.3596 107.735 90.851 107.735C91.0451 107.735 91.2423 107.71 91.4425 107.662C91.6487 107.613 91.8459 107.525 92.034 107.398C92.1249 107.343 92.2068 107.319 92.2796 107.325C92.3585 107.325 92.4222 107.349 92.4707 107.398C92.5193 107.44 92.5496 107.495 92.5617 107.562C92.5739 107.622 92.5648 107.689 92.5344 107.762C92.5041 107.835 92.4465 107.899 92.3615 107.953C92.1613 108.093 91.9217 108.202 91.6427 108.281C91.3697 108.353 91.1058 108.39 90.851 108.39ZM93.653 109.555C93.5438 109.555 93.4558 109.521 93.3891 109.455C93.3223 109.388 93.289 109.294 93.289 109.172V108.053C93.289 107.78 93.4255 107.644 93.6985 107.644H94.1534L93.653 107.817C93.8228 107.604 93.9563 107.374 94.0533 107.125C94.1504 106.87 94.2202 106.585 94.2626 106.27C94.3112 105.948 94.3354 105.584 94.3354 105.178V104.35C94.3354 104.198 94.3749 104.083 94.4537 104.004C94.5386 103.919 94.6569 103.877 94.8086 103.877H97.0744C97.226 103.877 97.3413 103.919 97.4202 104.004C97.5051 104.083 97.5476 104.198 97.5476 104.35V108.026L97.1654 107.644H97.8478C97.9813 107.644 98.0814 107.68 98.1481 107.753C98.2209 107.82 98.2573 107.92 98.2573 108.053V109.172C98.2573 109.427 98.139 109.555 97.9024 109.555C97.7811 109.555 97.6901 109.521 97.6295 109.455C97.5688 109.388 97.5385 109.294 97.5385 109.172V108.308H94.0078V109.172C94.0078 109.427 93.8895 109.555 93.653 109.555ZM94.5538 107.644H96.765V104.523H95.0634V105.332C95.0634 105.769 95.0179 106.194 94.9269 106.606C94.842 107.013 94.7176 107.359 94.5538 107.644ZM102.103 108.372C101.97 108.372 101.867 108.335 101.794 108.262C101.727 108.19 101.694 108.084 101.694 107.944V106.352H101.148C100.984 106.352 100.848 106.37 100.738 106.406C100.629 106.443 100.529 106.506 100.438 106.597C100.353 106.682 100.262 106.81 100.165 106.979L99.4644 108.144C99.4159 108.235 99.3492 108.296 99.2642 108.326C99.1854 108.363 99.1065 108.372 99.0277 108.353C98.9488 108.341 98.879 108.311 98.8184 108.262C98.7638 108.208 98.7274 108.141 98.7092 108.062C98.697 107.983 98.7183 107.899 98.7729 107.808L99.4007 106.752C99.5342 106.528 99.6555 106.349 99.7647 106.215C99.88 106.082 100.001 105.982 100.129 105.915C100.262 105.848 100.411 105.806 100.575 105.787L100.383 106.042L99.1369 104.441C99.0701 104.356 99.0337 104.274 99.0277 104.195C99.0277 104.11 99.0519 104.04 99.1005 103.986C99.149 103.925 99.2066 103.883 99.2733 103.858C99.3461 103.834 99.422 103.834 99.5008 103.858C99.5797 103.877 99.6495 103.928 99.7101 104.013L101.02 105.696H101.694V104.25C101.694 104.116 101.727 104.013 101.794 103.94C101.867 103.867 101.97 103.831 102.103 103.831C102.237 103.831 102.34 103.867 102.413 103.94C102.485 104.013 102.522 104.116 102.522 104.25V105.696H103.186L104.496 104.013C104.557 103.928 104.627 103.877 104.706 103.858C104.785 103.834 104.86 103.834 104.933 103.858C105.006 103.877 105.064 103.916 105.106 103.977C105.155 104.037 105.179 104.107 105.179 104.186C105.179 104.265 105.146 104.347 105.079 104.432L103.832 106.042L103.632 105.787C103.802 105.806 103.95 105.848 104.078 105.915C104.205 105.982 104.327 106.082 104.442 106.215C104.557 106.349 104.681 106.528 104.815 106.752L105.434 107.808C105.488 107.899 105.507 107.983 105.488 108.062C105.476 108.141 105.44 108.208 105.379 108.262C105.325 108.311 105.258 108.341 105.179 108.353C105.1 108.372 105.021 108.363 104.942 108.326C104.863 108.296 104.797 108.235 104.742 108.144L104.051 106.979C103.954 106.816 103.86 106.688 103.769 106.597C103.678 106.506 103.577 106.443 103.468 106.406C103.359 106.37 103.226 106.352 103.068 106.352H102.522V107.944C102.522 108.084 102.485 108.19 102.413 108.262C102.34 108.335 102.237 108.372 102.103 108.372ZM108.472 108.39C107.993 108.39 107.581 108.299 107.235 108.117C106.895 107.929 106.631 107.665 106.443 107.325C106.255 106.979 106.161 106.573 106.161 106.106C106.161 105.645 106.252 105.241 106.434 104.896C106.622 104.55 106.877 104.28 107.199 104.086C107.526 103.892 107.899 103.795 108.318 103.795C108.615 103.795 108.882 103.846 109.119 103.949C109.361 104.046 109.567 104.189 109.737 104.377C109.907 104.565 110.035 104.796 110.119 105.069C110.21 105.335 110.256 105.639 110.256 105.979C110.256 106.076 110.226 106.151 110.165 106.206C110.11 106.255 110.028 106.279 109.919 106.279H106.807V105.751H109.71L109.555 105.878C109.555 105.563 109.507 105.296 109.41 105.078C109.319 104.853 109.182 104.683 109 104.568C108.824 104.453 108.603 104.395 108.336 104.395C108.045 104.395 107.796 104.465 107.59 104.604C107.384 104.738 107.226 104.929 107.117 105.178C107.007 105.42 106.953 105.702 106.953 106.024V106.079C106.953 106.625 107.083 107.037 107.344 107.316C107.605 107.595 107.981 107.735 108.472 107.735C108.667 107.735 108.864 107.71 109.064 107.662C109.27 107.613 109.467 107.525 109.655 107.398C109.746 107.343 109.828 107.319 109.901 107.325C109.98 107.325 110.044 107.349 110.092 107.398C110.141 107.44 110.171 107.495 110.183 107.562C110.195 107.622 110.186 107.689 110.156 107.762C110.126 107.835 110.068 107.899 109.983 107.953C109.783 108.093 109.543 108.202 109.264 108.281C108.991 108.353 108.727 108.39 108.472 108.39ZM111.793 110.01C111.666 110.01 111.566 109.973 111.493 109.9C111.42 109.828 111.384 109.724 111.384 109.591V104.231C111.384 104.092 111.42 103.989 111.493 103.922C111.566 103.849 111.666 103.813 111.793 103.813C111.927 103.813 112.027 103.849 112.093 103.922C112.166 103.989 112.203 104.092 112.203 104.231V105.059L112.102 104.896C112.2 104.562 112.391 104.295 112.676 104.095C112.961 103.895 113.304 103.795 113.704 103.795C114.098 103.795 114.441 103.889 114.732 104.077C115.023 104.259 115.251 104.523 115.415 104.868C115.578 105.208 115.66 105.615 115.66 106.088C115.66 106.555 115.578 106.964 115.415 107.316C115.257 107.662 115.029 107.929 114.732 108.117C114.441 108.299 114.098 108.39 113.704 108.39C113.31 108.39 112.97 108.29 112.685 108.09C112.4 107.889 112.209 107.626 112.112 107.298H112.212V109.591C112.212 109.724 112.175 109.828 112.102 109.9C112.03 109.973 111.927 110.01 111.793 110.01ZM113.513 107.735C113.774 107.735 114.001 107.671 114.195 107.544C114.396 107.416 114.55 107.231 114.659 106.989C114.769 106.746 114.823 106.446 114.823 106.088C114.823 105.554 114.705 105.147 114.468 104.868C114.232 104.589 113.913 104.45 113.513 104.45C113.246 104.45 113.012 104.513 112.812 104.641C112.618 104.762 112.466 104.944 112.357 105.187C112.254 105.429 112.203 105.73 112.203 106.088C112.203 106.622 112.321 107.031 112.557 107.316C112.794 107.595 113.113 107.735 113.513 107.735ZM121.115 108.39C120.666 108.39 120.277 108.296 119.95 108.108C119.622 107.914 119.371 107.644 119.195 107.298C119.019 106.946 118.931 106.534 118.931 106.06C118.931 105.709 118.979 105.393 119.076 105.114C119.179 104.835 119.325 104.598 119.513 104.404C119.701 104.204 119.929 104.052 120.196 103.949C120.469 103.846 120.775 103.795 121.115 103.795C121.327 103.795 121.551 103.828 121.788 103.895C122.025 103.961 122.243 104.071 122.443 104.222C122.51 104.271 122.552 104.328 122.571 104.395C122.589 104.456 122.589 104.52 122.571 104.586C122.558 104.653 122.528 104.711 122.48 104.759C122.437 104.802 122.379 104.826 122.307 104.832C122.24 104.838 122.167 104.817 122.088 104.768C121.943 104.659 121.788 104.58 121.624 104.532C121.466 104.483 121.315 104.459 121.169 104.459C120.945 104.459 120.745 104.495 120.569 104.568C120.399 104.641 120.253 104.747 120.132 104.887C120.017 105.02 119.929 105.187 119.868 105.387C119.807 105.581 119.777 105.809 119.777 106.069C119.777 106.585 119.898 106.992 120.141 107.289C120.384 107.58 120.726 107.726 121.169 107.726C121.315 107.726 121.466 107.704 121.624 107.662C121.782 107.613 121.937 107.535 122.088 107.425C122.167 107.377 122.24 107.359 122.307 107.371C122.373 107.377 122.428 107.404 122.47 107.453C122.519 107.495 122.549 107.55 122.561 107.616C122.574 107.677 122.568 107.741 122.543 107.808C122.525 107.874 122.483 107.929 122.416 107.971C122.222 108.117 122.009 108.223 121.779 108.29C121.548 108.357 121.327 108.39 121.115 108.39ZM123.95 108.308C123.81 108.308 123.704 108.272 123.631 108.199C123.559 108.126 123.522 108.02 123.522 107.88V104.304C123.522 104.165 123.559 104.059 123.631 103.986C123.704 103.913 123.81 103.877 123.95 103.877H125.733C126.091 103.877 126.383 103.922 126.607 104.013C126.837 104.104 127.007 104.234 127.117 104.404C127.226 104.574 127.28 104.786 127.28 105.041C127.28 105.32 127.183 105.557 126.989 105.751C126.795 105.945 126.54 106.06 126.225 106.097V105.979C126.601 105.991 126.895 106.1 127.107 106.306C127.32 106.506 127.426 106.764 127.426 107.08C127.426 107.456 127.286 107.756 127.007 107.98C126.728 108.199 126.328 108.308 125.806 108.308H123.95ZM124.305 107.762H125.761C126.052 107.762 126.273 107.701 126.425 107.58C126.583 107.453 126.662 107.274 126.662 107.043C126.662 106.807 126.583 106.628 126.425 106.506C126.273 106.385 126.052 106.324 125.761 106.324H124.305V107.762ZM124.305 105.778H125.688C125.949 105.778 126.149 105.718 126.288 105.596C126.434 105.475 126.507 105.308 126.507 105.096C126.507 104.877 126.434 104.711 126.288 104.595C126.149 104.48 125.949 104.422 125.688 104.422H124.305V105.778ZM131.682 108.372C131.561 108.372 131.467 108.338 131.4 108.272C131.333 108.199 131.3 108.099 131.3 107.971V106.652H130.69C130.466 106.652 130.272 106.709 130.108 106.825C129.944 106.94 129.814 107.086 129.717 107.262L129.216 108.135C129.156 108.238 129.083 108.305 128.998 108.335C128.919 108.372 128.837 108.378 128.752 108.353C128.673 108.335 128.604 108.296 128.543 108.235C128.482 108.175 128.443 108.102 128.425 108.017C128.413 107.932 128.437 107.844 128.497 107.753L128.889 107.07C128.992 106.901 129.128 106.755 129.298 106.634C129.468 106.512 129.644 106.452 129.826 106.452H129.953V106.534C129.456 106.534 129.068 106.418 128.789 106.188C128.51 105.957 128.37 105.636 128.37 105.223C128.37 104.95 128.431 104.714 128.552 104.513C128.679 104.307 128.864 104.149 129.107 104.04C129.35 103.931 129.653 103.877 130.017 103.877H131.646C131.779 103.877 131.882 103.913 131.955 103.986C132.034 104.059 132.074 104.165 132.074 104.304V107.971C132.074 108.099 132.037 108.199 131.964 108.272C131.898 108.338 131.804 108.372 131.682 108.372ZM130.181 106.079H131.3V104.45H130.181C129.835 104.45 129.58 104.523 129.417 104.668C129.253 104.808 129.171 105.005 129.171 105.26C129.171 105.514 129.253 105.715 129.417 105.86C129.58 106.006 129.835 106.079 130.181 106.079ZM136.395 108.372C136.262 108.372 136.159 108.335 136.086 108.262C136.019 108.19 135.986 108.084 135.986 107.944V106.352H135.44C135.276 106.352 135.14 106.37 135.03 106.406C134.921 106.443 134.821 106.506 134.73 106.597C134.645 106.682 134.554 106.81 134.457 106.979L133.756 108.144C133.708 108.235 133.641 108.296 133.556 108.326C133.477 108.363 133.399 108.372 133.32 108.353C133.241 108.341 133.171 108.311 133.11 108.262C133.056 108.208 133.019 108.141 133.001 108.062C132.989 107.983 133.01 107.899 133.065 107.808L133.693 106.752C133.826 106.528 133.948 106.349 134.057 106.215C134.172 106.082 134.293 105.982 134.421 105.915C134.554 105.848 134.703 105.806 134.867 105.787L134.676 106.042L133.429 104.441C133.362 104.356 133.326 104.274 133.32 104.195C133.32 104.11 133.344 104.04 133.393 103.986C133.441 103.925 133.499 103.883 133.565 103.858C133.638 103.834 133.714 103.834 133.793 103.858C133.872 103.877 133.942 103.928 134.002 104.013L135.313 105.696H135.986V104.25C135.986 104.116 136.019 104.013 136.086 103.94C136.159 103.867 136.262 103.831 136.395 103.831C136.529 103.831 136.632 103.867 136.705 103.94C136.778 104.013 136.814 104.116 136.814 104.25V105.696H137.478L138.789 104.013C138.849 103.928 138.919 103.877 138.998 103.858C139.077 103.834 139.153 103.834 139.225 103.858C139.298 103.877 139.356 103.916 139.398 103.977C139.447 104.037 139.471 104.107 139.471 104.186C139.471 104.265 139.438 104.347 139.371 104.432L138.124 106.042L137.924 105.787C138.094 105.806 138.243 105.848 138.37 105.915C138.497 105.982 138.619 106.082 138.734 106.215C138.849 106.349 138.974 106.528 139.107 106.752L139.726 107.808C139.78 107.899 139.799 107.983 139.78 108.062C139.768 108.141 139.732 108.208 139.671 108.262C139.617 108.311 139.55 108.341 139.471 108.353C139.392 108.372 139.313 108.363 139.234 108.326C139.156 108.296 139.089 108.235 139.034 108.144L138.343 106.979C138.246 106.816 138.152 106.688 138.061 106.597C137.97 106.506 137.869 106.443 137.76 106.406C137.651 106.37 137.518 106.352 137.36 106.352H136.814V107.944C136.814 108.084 136.778 108.19 136.705 108.262C136.632 108.335 136.529 108.372 136.395 108.372ZM142.765 108.39C142.285 108.39 141.873 108.299 141.527 108.117C141.187 107.929 140.923 107.665 140.735 107.325C140.547 106.979 140.453 106.573 140.453 106.106C140.453 105.645 140.544 105.241 140.726 104.896C140.914 104.55 141.169 104.28 141.491 104.086C141.818 103.892 142.191 103.795 142.61 103.795C142.907 103.795 143.174 103.846 143.411 103.949C143.653 104.046 143.86 104.189 144.029 104.377C144.199 104.565 144.327 104.796 144.412 105.069C144.503 105.335 144.548 105.639 144.548 105.979C144.548 106.076 144.518 106.151 144.457 106.206C144.402 106.255 144.321 106.279 144.211 106.279H141.099V105.751H144.002L143.847 105.878C143.847 105.563 143.799 105.296 143.702 105.078C143.611 104.853 143.474 104.683 143.292 104.568C143.116 104.453 142.895 104.395 142.628 104.395C142.337 104.395 142.088 104.465 141.882 104.604C141.676 104.738 141.518 104.929 141.409 105.178C141.3 105.42 141.245 105.702 141.245 106.024V106.079C141.245 106.625 141.375 107.037 141.636 107.316C141.897 107.595 142.273 107.735 142.765 107.735C142.959 107.735 143.156 107.71 143.356 107.662C143.562 107.613 143.759 107.525 143.947 107.398C144.038 107.343 144.12 107.319 144.193 107.325C144.272 107.325 144.336 107.349 144.384 107.398C144.433 107.44 144.463 107.495 144.475 107.562C144.487 107.622 144.478 107.689 144.448 107.762C144.418 107.835 144.36 107.899 144.275 107.953C144.075 108.093 143.835 108.202 143.556 108.281C143.283 108.353 143.019 108.39 142.765 108.39ZM147.022 108.372C146.889 108.372 146.786 108.335 146.713 108.262C146.64 108.19 146.604 108.084 146.604 107.944V104.541H145.312C145.069 104.541 144.948 104.429 144.948 104.204C144.948 104.101 144.981 104.022 145.048 103.968C145.115 103.907 145.202 103.877 145.312 103.877H148.715C148.964 103.877 149.088 103.986 149.088 104.204C149.088 104.313 149.055 104.398 148.988 104.459C148.927 104.513 148.836 104.541 148.715 104.541H147.432V107.944C147.432 108.084 147.395 108.19 147.323 108.262C147.256 108.335 147.156 108.372 147.022 108.372ZM151.666 108.39C151.217 108.39 150.828 108.296 150.501 108.108C150.173 107.914 149.921 107.644 149.746 107.298C149.57 106.946 149.482 106.534 149.482 106.06C149.482 105.709 149.53 105.393 149.627 105.114C149.73 104.835 149.876 104.598 150.064 104.404C150.252 104.204 150.48 104.052 150.747 103.949C151.02 103.846 151.326 103.795 151.666 103.795C151.878 103.795 152.102 103.828 152.339 103.895C152.576 103.961 152.794 104.071 152.994 104.222C153.061 104.271 153.103 104.328 153.121 104.395C153.14 104.456 153.14 104.52 153.121 104.586C153.109 104.653 153.079 104.711 153.03 104.759C152.988 104.802 152.93 104.826 152.858 104.832C152.791 104.838 152.718 104.817 152.639 104.768C152.494 104.659 152.339 104.58 152.175 104.532C152.017 104.483 151.866 104.459 151.72 104.459C151.496 104.459 151.296 104.495 151.12 104.568C150.95 104.641 150.804 104.747 150.683 104.887C150.568 105.02 150.48 105.187 150.419 105.387C150.358 105.581 150.328 105.809 150.328 106.069C150.328 106.585 150.449 106.992 150.692 107.289C150.935 107.58 151.277 107.726 151.72 107.726C151.866 107.726 152.017 107.704 152.175 107.662C152.333 107.613 152.488 107.535 152.639 107.425C152.718 107.377 152.791 107.359 152.858 107.371C152.924 107.377 152.979 107.404 153.021 107.453C153.07 107.495 153.1 107.55 153.112 107.616C153.125 107.677 153.118 107.741 153.094 107.808C153.076 107.874 153.034 107.929 152.967 107.971C152.773 108.117 152.56 108.223 152.33 108.29C152.099 108.357 151.878 108.39 151.666 108.39ZM157.213 108.372C157.091 108.372 156.997 108.338 156.93 108.272C156.864 108.199 156.83 108.099 156.83 107.971V106.652H156.221C155.996 106.652 155.802 106.709 155.638 106.825C155.474 106.94 155.344 107.086 155.247 107.262L154.747 108.135C154.686 108.238 154.613 108.305 154.528 108.335C154.449 108.372 154.367 108.378 154.282 108.353C154.204 108.335 154.134 108.296 154.073 108.235C154.013 108.175 153.973 108.102 153.955 108.017C153.943 107.932 153.967 107.844 154.028 107.753L154.419 107.07C154.522 106.901 154.659 106.755 154.828 106.634C154.998 106.512 155.174 106.452 155.356 106.452H155.484V106.534C154.986 106.534 154.598 106.418 154.319 106.188C154.04 105.957 153.9 105.636 153.9 105.223C153.9 104.95 153.961 104.714 154.082 104.513C154.21 104.307 154.395 104.149 154.637 104.04C154.88 103.931 155.183 103.877 155.547 103.877H157.176C157.31 103.877 157.413 103.913 157.485 103.986C157.564 104.059 157.604 104.165 157.604 104.304V107.971C157.604 108.099 157.567 108.199 157.495 108.272C157.428 108.338 157.334 108.372 157.213 108.372ZM155.711 106.079H156.83V104.45H155.711C155.365 104.45 155.111 104.523 154.947 104.668C154.783 104.808 154.701 105.005 154.701 105.26C154.701 105.514 154.783 105.715 154.947 105.86C155.111 106.006 155.365 106.079 155.711 106.079ZM163.315 108.39C162.867 108.39 162.478 108.296 162.151 108.108C161.823 107.914 161.571 107.644 161.395 107.298C161.22 106.946 161.132 106.534 161.132 106.06C161.132 105.709 161.18 105.393 161.277 105.114C161.38 104.835 161.526 104.598 161.714 104.404C161.902 104.204 162.129 104.052 162.396 103.949C162.669 103.846 162.976 103.795 163.315 103.795C163.528 103.795 163.752 103.828 163.989 103.895C164.225 103.961 164.444 104.071 164.644 104.222C164.711 104.271 164.753 104.328 164.771 104.395C164.79 104.456 164.79 104.52 164.771 104.586C164.759 104.653 164.729 104.711 164.68 104.759C164.638 104.802 164.58 104.826 164.507 104.832C164.441 104.838 164.368 104.817 164.289 104.768C164.144 104.659 163.989 104.58 163.825 104.532C163.667 104.483 163.516 104.459 163.37 104.459C163.146 104.459 162.945 104.495 162.769 104.568C162.6 104.641 162.454 104.747 162.333 104.887C162.217 105.02 162.129 105.187 162.069 105.387C162.008 105.581 161.978 105.809 161.978 106.069C161.978 106.585 162.099 106.992 162.342 107.289C162.584 107.58 162.927 107.726 163.37 107.726C163.516 107.726 163.667 107.704 163.825 107.662C163.983 107.613 164.137 107.535 164.289 107.425C164.368 107.377 164.441 107.359 164.507 107.371C164.574 107.377 164.629 107.404 164.671 107.453C164.72 107.495 164.75 107.55 164.762 107.616C164.774 107.677 164.768 107.741 164.744 107.808C164.726 107.874 164.683 107.929 164.617 107.971C164.423 108.117 164.21 108.223 163.98 108.29C163.749 108.357 163.528 108.39 163.315 108.39ZM168.614 108.308C168.469 108.308 168.357 108.269 168.278 108.19C168.199 108.111 168.159 107.999 168.159 107.853V102.348C168.159 102.202 168.199 102.09 168.278 102.011C168.357 101.932 168.469 101.893 168.614 101.893H170.771C171.214 101.893 171.59 101.96 171.899 102.093C172.215 102.226 172.454 102.418 172.618 102.666C172.782 102.915 172.864 103.215 172.864 103.567C172.864 103.961 172.749 104.292 172.518 104.559C172.288 104.826 171.972 105.005 171.572 105.096V104.959C172.021 105.014 172.372 105.181 172.627 105.46C172.888 105.733 173.019 106.091 173.019 106.534C173.019 107.104 172.83 107.544 172.454 107.853C172.084 108.156 171.56 108.308 170.88 108.308H168.614ZM168.978 107.644H170.789C171.262 107.644 171.614 107.553 171.845 107.371C172.075 107.183 172.19 106.898 172.19 106.515C172.19 106.133 172.075 105.851 171.845 105.669C171.614 105.487 171.262 105.396 170.789 105.396H168.978V107.644ZM168.978 104.723H170.644C171.105 104.723 171.45 104.632 171.681 104.45C171.917 104.262 172.036 103.992 172.036 103.64C172.036 103.288 171.917 103.021 171.681 102.839C171.45 102.651 171.105 102.557 170.644 102.557H168.978V104.723ZM175.682 108.39C175.379 108.39 175.103 108.329 174.854 108.208C174.611 108.087 174.42 107.923 174.281 107.717C174.147 107.51 174.081 107.28 174.081 107.025C174.081 106.697 174.162 106.44 174.326 106.251C174.49 106.063 174.766 105.93 175.154 105.851C175.543 105.766 176.064 105.724 176.719 105.724H177.147V106.251H176.738C176.271 106.251 175.9 106.273 175.627 106.315C175.361 106.358 175.172 106.433 175.063 106.543C174.954 106.646 174.9 106.791 174.9 106.979C174.9 107.216 174.981 107.41 175.145 107.562C175.315 107.713 175.546 107.789 175.837 107.789C176.067 107.789 176.271 107.735 176.446 107.626C176.622 107.51 176.762 107.359 176.865 107.171C176.968 106.976 177.02 106.755 177.02 106.506V105.46C177.02 105.102 176.947 104.844 176.801 104.686C176.656 104.523 176.41 104.441 176.064 104.441C175.864 104.441 175.658 104.468 175.445 104.523C175.233 104.577 175.012 104.662 174.781 104.777C174.69 104.82 174.611 104.835 174.545 104.823C174.478 104.805 174.423 104.768 174.381 104.714C174.344 104.653 174.323 104.589 174.317 104.523C174.317 104.45 174.332 104.38 174.363 104.313C174.399 104.247 174.46 104.198 174.545 104.168C174.812 104.034 175.075 103.94 175.336 103.886C175.603 103.825 175.852 103.795 176.082 103.795C176.477 103.795 176.801 103.858 177.056 103.986C177.311 104.107 177.502 104.298 177.629 104.559C177.757 104.814 177.82 105.141 177.82 105.542V107.944C177.82 108.084 177.787 108.19 177.72 108.262C177.654 108.335 177.557 108.372 177.429 108.372C177.308 108.372 177.211 108.335 177.138 108.262C177.071 108.19 177.038 108.084 177.038 107.944V107.298H177.12C177.071 107.522 176.98 107.717 176.847 107.88C176.713 108.044 176.547 108.171 176.346 108.262C176.152 108.347 175.931 108.39 175.682 108.39ZM179.585 108.372C179.47 108.372 179.379 108.338 179.312 108.272C179.252 108.199 179.221 108.099 179.221 107.971V104.259C179.221 104.162 179.233 104.08 179.258 104.013C179.288 103.946 179.33 103.898 179.385 103.867C179.44 103.831 179.509 103.813 179.594 103.813C179.673 103.813 179.74 103.828 179.795 103.858C179.849 103.883 179.895 103.916 179.931 103.958C179.974 104.001 180.01 104.052 180.04 104.113L181.542 106.761L183.034 104.113C183.07 104.046 183.107 103.992 183.143 103.949C183.18 103.907 183.225 103.873 183.28 103.849C183.334 103.825 183.401 103.813 183.48 103.813C183.607 103.813 183.701 103.852 183.762 103.931C183.823 104.004 183.853 104.113 183.853 104.259V107.971C183.853 108.099 183.82 108.199 183.753 108.272C183.692 108.338 183.604 108.372 183.489 108.372C183.374 108.372 183.283 108.338 183.216 108.272C183.149 108.199 183.116 108.099 183.116 107.971V104.832H183.325L181.833 107.444C181.803 107.492 181.766 107.538 181.724 107.58C181.681 107.616 181.621 107.635 181.542 107.635C181.457 107.635 181.393 107.616 181.351 107.58C181.314 107.538 181.281 107.492 181.25 107.444L179.749 104.832H179.949V107.971C179.949 108.099 179.919 108.199 179.858 108.272C179.798 108.338 179.707 108.372 179.585 108.372ZM185.655 108.372C185.576 108.372 185.506 108.357 185.446 108.326C185.391 108.296 185.349 108.247 185.318 108.181C185.288 108.114 185.273 108.029 185.273 107.926V104.213C185.273 104.086 185.306 103.989 185.373 103.922C185.44 103.849 185.534 103.813 185.655 103.813C185.77 103.813 185.861 103.849 185.928 103.922C185.995 103.989 186.028 104.086 186.028 104.213V107.498H185.791L188.358 104.077C188.406 104.01 188.467 103.949 188.54 103.895C188.612 103.84 188.709 103.813 188.831 103.813C188.916 103.813 188.985 103.828 189.04 103.858C189.095 103.889 189.134 103.937 189.158 104.004C189.189 104.065 189.204 104.146 189.204 104.25V107.971C189.204 108.093 189.17 108.19 189.104 108.262C189.043 108.335 188.955 108.372 188.84 108.372C188.712 108.372 188.615 108.335 188.549 108.262C188.488 108.19 188.458 108.093 188.458 107.971V104.677H188.694L186.128 108.108C186.08 108.175 186.019 108.235 185.946 108.29C185.873 108.344 185.776 108.372 185.655 108.372ZM53.2916 122.555C53.1824 122.555 53.0944 122.521 53.0277 122.455C52.961 122.388 52.9276 122.294 52.9276 122.172V121.053C52.9276 120.78 53.0641 120.644 53.3371 120.644H53.7921L53.2916 120.817C53.4614 120.604 53.5949 120.374 53.692 120.125C53.789 119.87 53.8588 119.585 53.9013 119.27C53.9498 118.948 53.9741 118.584 53.9741 118.178V117.35C53.9741 117.198 54.0135 117.083 54.0923 117.004C54.1773 116.919 54.2956 116.877 54.4472 116.877H56.713C56.8647 116.877 56.9799 116.919 57.0588 117.004C57.1437 117.083 57.1862 117.198 57.1862 117.35V121.026L56.804 120.644H57.4865C57.6199 120.644 57.72 120.68 57.7868 120.753C57.8595 120.82 57.8959 120.92 57.8959 121.053V122.172C57.8959 122.427 57.7777 122.555 57.5411 122.555C57.4197 122.555 57.3287 122.521 57.2681 122.455C57.2074 122.388 57.1771 122.294 57.1771 122.172V121.308H53.6465V122.172C53.6465 122.427 53.5282 122.555 53.2916 122.555ZM54.1924 120.644H56.4036V117.523H54.702V118.332C54.702 118.769 54.6565 119.194 54.5655 119.606C54.4806 120.013 54.3562 120.359 54.1924 120.644ZM62.2788 121.372C62.1453 121.372 62.0422 121.335 61.9694 121.262C61.8966 121.19 61.8602 121.084 61.8602 120.944V117.541H60.1677V118.087C60.1677 118.548 60.1434 118.957 60.0949 119.315C60.0464 119.667 59.9705 119.973 59.8674 120.234C59.7704 120.495 59.6399 120.713 59.4761 120.889C59.3184 121.065 59.1213 121.208 58.8847 121.317C58.7937 121.36 58.7087 121.372 58.6299 121.353C58.551 121.341 58.4843 121.308 58.4297 121.253C58.3812 121.199 58.3478 121.135 58.3296 121.062C58.3175 120.989 58.3266 120.917 58.3569 120.844C58.3872 120.771 58.4479 120.71 58.5389 120.662C58.7087 120.565 58.8483 120.447 58.9575 120.307C59.0667 120.161 59.1516 119.986 59.2122 119.779C59.279 119.573 59.3245 119.33 59.3487 119.051C59.3791 118.772 59.3942 118.445 59.3942 118.069V117.35C59.3942 117.198 59.4337 117.083 59.5125 117.004C59.5975 116.919 59.7158 116.877 59.8674 116.877H62.2242C62.3759 116.877 62.4911 116.919 62.57 117.004C62.6488 117.083 62.6883 117.198 62.6883 117.35V120.944C62.6883 121.084 62.6519 121.19 62.5791 121.262C62.5063 121.335 62.4062 121.372 62.2788 121.372ZM67.2481 121.372C67.1267 121.372 67.0327 121.338 66.966 121.272C66.8992 121.199 66.8659 121.099 66.8659 120.971V119.652H66.2562C66.0318 119.652 65.8376 119.709 65.6738 119.825C65.51 119.94 65.3796 120.086 65.2826 120.262L64.7821 121.135C64.7214 121.238 64.6486 121.305 64.5637 121.335C64.4848 121.372 64.4029 121.378 64.318 121.353C64.2391 121.335 64.1694 121.296 64.1087 121.235C64.0481 121.175 64.0086 121.102 63.9904 121.017C63.9783 120.932 64.0026 120.844 64.0632 120.753L64.4545 120.07C64.5576 119.901 64.6941 119.755 64.864 119.634C65.0338 119.512 65.2098 119.452 65.3918 119.452H65.5191V119.534C65.0217 119.534 64.6335 119.418 64.3544 119.188C64.0754 118.957 63.9358 118.636 63.9358 118.223C63.9358 117.95 63.9965 117.714 64.1178 117.513C64.2452 117.307 64.4302 117.149 64.6729 117.04C64.9155 116.931 65.2189 116.877 65.5828 116.877H67.2117C67.3451 116.877 67.4482 116.913 67.521 116.986C67.5999 117.059 67.6393 117.165 67.6393 117.304V120.971C67.6393 121.099 67.6029 121.199 67.5301 121.272C67.4634 121.338 67.3694 121.372 67.2481 121.372ZM65.7466 119.079H66.8659V117.45H65.7466C65.4009 117.45 65.1461 117.523 64.9823 117.668C64.8185 117.808 64.7366 118.005 64.7366 118.26C64.7366 118.514 64.8185 118.715 64.9823 118.86C65.1461 119.006 65.4009 119.079 65.7466 119.079ZM72.4501 123.01C72.3531 123.01 72.2712 122.982 72.2045 122.928C72.1438 122.879 72.1074 122.809 72.0953 122.718C72.0892 122.633 72.1074 122.542 72.1499 122.445L72.7686 121.044V121.39L71.0488 117.386C71.0063 117.283 70.9912 117.189 71.0033 117.104C71.0154 117.019 71.0549 116.949 71.1216 116.895C71.1944 116.84 71.2915 116.813 71.4128 116.813C71.5159 116.813 71.5978 116.837 71.6585 116.886C71.7191 116.934 71.7768 117.019 71.8314 117.14L73.26 120.662H73.0052L74.4611 117.14C74.5097 117.019 74.5673 116.934 74.634 116.886C74.7008 116.837 74.7918 116.813 74.907 116.813C75.0101 116.813 75.089 116.84 75.1436 116.895C75.2043 116.949 75.2407 117.019 75.2528 117.104C75.2649 117.189 75.2467 117.28 75.1982 117.377L72.9051 122.682C72.8445 122.809 72.7808 122.894 72.714 122.937C72.6534 122.985 72.5654 123.01 72.4501 123.01ZM77.6296 121.372C77.4962 121.372 77.393 121.335 77.3202 121.262C77.2474 121.19 77.211 121.084 77.211 120.944V117.541H75.9189C75.6763 117.541 75.5549 117.429 75.5549 117.204C75.5549 117.101 75.5883 117.022 75.655 116.968C75.7218 116.907 75.8097 116.877 75.9189 116.877H79.3221C79.5709 116.877 79.6952 116.986 79.6952 117.204C79.6952 117.313 79.6618 117.398 79.5951 117.459C79.5345 117.513 79.4435 117.541 79.3221 117.541H78.0391V120.944C78.0391 121.084 78.0027 121.19 77.9299 121.262C77.8632 121.335 77.7631 121.372 77.6296 121.372ZM82.2364 121.39C81.7996 121.39 81.4205 121.296 81.099 121.108C80.7774 120.92 80.5287 120.653 80.3528 120.307C80.1769 119.961 80.0889 119.555 80.0889 119.088C80.0889 118.736 80.1374 118.42 80.2345 118.141C80.3376 117.856 80.4832 117.614 80.6713 117.413C80.8593 117.213 81.0838 117.062 81.3446 116.958C81.6116 116.849 81.9088 116.795 82.2364 116.795C82.6732 116.795 83.0523 116.889 83.3738 117.077C83.6954 117.265 83.9441 117.532 84.12 117.877C84.2959 118.217 84.3839 118.621 84.3839 119.088C84.3839 119.44 84.3323 119.758 84.2292 120.043C84.1321 120.328 83.9896 120.571 83.8015 120.771C83.6135 120.971 83.386 121.126 83.1191 121.235C82.8582 121.338 82.564 121.39 82.2364 121.39ZM82.2364 120.735C82.5033 120.735 82.7338 120.671 82.928 120.544C83.1282 120.416 83.2798 120.231 83.3829 119.989C83.4921 119.746 83.5467 119.446 83.5467 119.088C83.5467 118.554 83.4284 118.147 83.1918 117.868C82.9553 117.589 82.6368 117.45 82.2364 117.45C81.9755 117.45 81.745 117.513 81.5448 117.641C81.3507 117.762 81.1991 117.944 81.0899 118.187C80.9807 118.429 80.9261 118.73 80.9261 119.088C80.9261 119.622 81.0444 120.031 81.2809 120.316C81.5236 120.595 81.8421 120.735 82.2364 120.735ZM88.7907 121.372C88.6572 121.372 88.5541 121.335 88.4813 121.262C88.4146 121.184 88.3812 121.074 88.3812 120.935V119.561C88.2113 119.658 88.0294 119.731 87.8352 119.779C87.6472 119.828 87.45 119.852 87.2438 119.852C86.6007 119.852 86.1276 119.7 85.8242 119.397C85.5209 119.088 85.3693 118.624 85.3693 118.005V117.231C85.3693 117.092 85.4026 116.989 85.4694 116.922C85.5422 116.849 85.6453 116.813 85.7787 116.813C85.9122 116.813 86.0153 116.849 86.0881 116.922C86.1609 116.989 86.1973 117.092 86.1973 117.231V117.941C86.1973 118.366 86.2883 118.675 86.4703 118.869C86.6523 119.063 86.9465 119.16 87.353 119.16C87.5592 119.16 87.7442 119.139 87.908 119.097C88.0718 119.048 88.2265 118.972 88.3721 118.869V117.25C88.3721 116.958 88.5116 116.813 88.7907 116.813C88.9241 116.813 89.0242 116.849 89.091 116.922C89.1638 116.995 89.2002 117.104 89.2002 117.25V120.935C89.2002 121.074 89.1668 121.184 89.1001 121.262C89.0333 121.335 88.9302 121.372 88.7907 121.372ZM91.035 121.372C90.9015 121.372 90.7984 121.335 90.7256 121.262C90.6528 121.19 90.6164 121.084 90.6164 120.944V117.231C90.6164 117.092 90.6528 116.989 90.7256 116.922C90.7984 116.849 90.9015 116.813 91.035 116.813C91.1685 116.813 91.2686 116.849 91.3353 116.922C91.4081 116.989 91.4445 117.092 91.4445 117.231V118.696H93.7558V117.231C93.7558 117.092 93.7891 116.989 93.8559 116.922C93.9287 116.849 94.0318 116.813 94.1652 116.813C94.2987 116.813 94.4018 116.849 94.4746 116.922C94.5474 116.989 94.5838 117.092 94.5838 117.231V120.944C94.5838 121.084 94.5474 121.19 94.4746 121.262C94.4018 121.335 94.2987 121.372 94.1652 121.372C94.0318 121.372 93.9287 121.335 93.8559 121.262C93.7891 121.19 93.7558 121.084 93.7558 120.944V119.361H91.4445V120.944C91.4445 121.084 91.4111 121.19 91.3444 121.262C91.2777 121.335 91.1745 121.372 91.035 121.372ZM98.0489 121.39C97.5696 121.39 97.1571 121.299 96.8114 121.117C96.4716 120.929 96.2078 120.665 96.0197 120.325C95.8316 119.979 95.7376 119.573 95.7376 119.106C95.7376 118.645 95.8286 118.241 96.0106 117.896C96.1987 117.55 96.4534 117.28 96.775 117.086C97.1025 116.892 97.4756 116.795 97.8942 116.795C98.1914 116.795 98.4584 116.846 98.695 116.949C98.9376 117.046 99.1439 117.189 99.3137 117.377C99.4836 117.565 99.611 117.796 99.6959 118.069C99.7869 118.335 99.8324 118.639 99.8324 118.979C99.8324 119.076 99.8021 119.151 99.7414 119.206C99.6868 119.255 99.6049 119.279 99.4957 119.279H96.3837V118.751H99.2864L99.1317 118.878C99.1317 118.563 99.0832 118.296 98.9861 118.078C98.8951 117.853 98.7587 117.683 98.5767 117.568C98.4007 117.453 98.1793 117.395 97.9124 117.395C97.6212 117.395 97.3725 117.465 97.1662 117.604C96.96 117.738 96.8023 117.929 96.6931 118.178C96.5839 118.42 96.5293 118.702 96.5293 119.024V119.079C96.5293 119.625 96.6597 120.037 96.9205 120.316C97.1814 120.595 97.5575 120.735 98.0489 120.735C98.243 120.735 98.4402 120.71 98.6404 120.662C98.8466 120.613 99.0438 120.525 99.2318 120.398C99.3228 120.343 99.4047 120.319 99.4775 120.325C99.5564 120.325 99.6201 120.349 99.6686 120.398C99.7171 120.44 99.7475 120.495 99.7596 120.562C99.7717 120.622 99.7626 120.689 99.7323 120.762C99.702 120.835 99.6443 120.899 99.5594 120.953C99.3592 121.093 99.1196 121.202 98.8405 121.281C98.5676 121.353 98.3037 121.39 98.0489 121.39ZM101.379 121.372C101.245 121.372 101.142 121.335 101.069 121.262C100.996 121.19 100.96 121.084 100.96 120.944V117.231C100.96 117.092 100.996 116.989 101.069 116.922C101.142 116.849 101.245 116.813 101.379 116.813C101.512 116.813 101.612 116.849 101.679 116.922C101.752 116.989 101.788 117.092 101.788 117.231V118.696H104.099V117.231C104.099 117.092 104.133 116.989 104.199 116.922C104.272 116.849 104.375 116.813 104.509 116.813C104.642 116.813 104.745 116.849 104.818 116.922C104.891 116.989 104.927 117.092 104.927 117.231V120.944C104.927 121.084 104.891 121.19 104.818 121.262C104.745 121.335 104.642 121.372 104.509 121.372C104.375 121.372 104.272 121.335 104.199 121.262C104.133 121.19 104.099 121.084 104.099 120.944V119.361H101.788V120.944C101.788 121.084 101.755 121.19 101.688 121.262C101.621 121.335 101.518 121.372 101.379 121.372ZM106.727 121.372C106.648 121.372 106.579 121.357 106.518 121.326C106.463 121.296 106.421 121.247 106.391 121.181C106.36 121.114 106.345 121.029 106.345 120.926V117.213C106.345 117.086 106.378 116.989 106.445 116.922C106.512 116.849 106.606 116.813 106.727 116.813C106.843 116.813 106.934 116.849 107 116.922C107.067 116.989 107.1 117.086 107.1 117.213V120.498H106.864L109.43 117.077C109.478 117.01 109.539 116.949 109.612 116.895C109.685 116.84 109.782 116.813 109.903 116.813C109.988 116.813 110.058 116.828 110.112 116.858C110.167 116.889 110.206 116.937 110.231 117.004C110.261 117.065 110.276 117.146 110.276 117.25V120.971C110.276 121.093 110.243 121.19 110.176 121.262C110.115 121.335 110.027 121.372 109.912 121.372C109.785 121.372 109.688 121.335 109.621 121.262C109.56 121.19 109.53 121.093 109.53 120.971V117.677H109.767L107.2 121.108C107.152 121.175 107.091 121.235 107.018 121.29C106.946 121.344 106.849 121.372 106.727 121.372ZM114.834 121.372C114.713 121.372 114.619 121.338 114.552 121.272C114.485 121.199 114.452 121.099 114.452 120.971V119.652H113.842C113.618 119.652 113.424 119.709 113.26 119.825C113.096 119.94 112.966 120.086 112.868 120.262L112.368 121.135C112.307 121.238 112.235 121.305 112.15 121.335C112.071 121.372 111.989 121.378 111.904 121.353C111.825 121.335 111.755 121.296 111.695 121.235C111.634 121.175 111.595 121.102 111.576 121.017C111.564 120.932 111.588 120.844 111.649 120.753L112.04 120.07C112.144 119.901 112.28 119.755 112.45 119.634C112.62 119.512 112.796 119.452 112.978 119.452H113.105V119.534C112.608 119.534 112.219 119.418 111.94 119.188C111.661 118.957 111.522 118.636 111.522 118.223C111.522 117.95 111.582 117.714 111.704 117.513C111.831 117.307 112.016 117.149 112.259 117.04C112.501 116.931 112.805 116.877 113.169 116.877H114.798C114.931 116.877 115.034 116.913 115.107 116.986C115.186 117.059 115.225 117.165 115.225 117.304V120.971C115.225 121.099 115.189 121.199 115.116 121.272C115.049 121.338 114.955 121.372 114.834 121.372ZM113.333 119.079H114.452V117.45H113.333C112.987 117.45 112.732 117.523 112.568 117.668C112.404 117.808 112.322 118.005 112.322 118.26C112.322 118.514 112.404 118.715 112.568 118.86C112.732 119.006 112.987 119.079 113.333 119.079ZM118.908 122.555C118.799 122.555 118.711 122.521 118.644 122.455C118.577 122.388 118.544 122.294 118.544 122.172V121.053C118.544 120.78 118.68 120.644 118.953 120.644H119.408L118.908 120.817C119.078 120.604 119.211 120.374 119.308 120.125C119.405 119.87 119.475 119.585 119.517 119.27C119.566 118.948 119.59 118.584 119.59 118.178V117.35C119.59 117.198 119.63 117.083 119.708 117.004C119.793 116.919 119.912 116.877 120.063 116.877H122.329C122.481 116.877 122.596 116.919 122.675 117.004C122.76 117.083 122.802 117.198 122.802 117.35V121.026L122.42 120.644H123.103C123.236 120.644 123.336 120.68 123.403 120.753C123.476 120.82 123.512 120.92 123.512 121.053V122.172C123.512 122.427 123.394 122.555 123.157 122.555C123.036 122.555 122.945 122.521 122.884 122.455C122.824 122.388 122.793 122.294 122.793 122.172V121.308H119.263V122.172C119.263 122.427 119.144 122.555 118.908 122.555ZM119.809 120.644H122.02V117.523H120.318V118.332C120.318 118.769 120.273 119.194 120.182 119.606C120.097 120.013 119.972 120.359 119.809 120.644ZM126.503 121.39C126.023 121.39 125.611 121.299 125.265 121.117C124.925 120.929 124.662 120.665 124.473 120.325C124.285 119.979 124.191 119.573 124.191 119.106C124.191 118.645 124.282 118.241 124.464 117.896C124.652 117.55 124.907 117.28 125.229 117.086C125.556 116.892 125.929 116.795 126.348 116.795C126.645 116.795 126.912 116.846 127.149 116.949C127.391 117.046 127.598 117.189 127.768 117.377C127.937 117.565 128.065 117.796 128.15 118.069C128.241 118.335 128.286 118.639 128.286 118.979C128.286 119.076 128.256 119.151 128.195 119.206C128.141 119.255 128.059 119.279 127.95 119.279H124.837V118.751H127.74L127.586 118.878C127.586 118.563 127.537 118.296 127.44 118.078C127.349 117.853 127.212 117.683 127.03 117.568C126.855 117.453 126.633 117.395 126.366 117.395C126.075 117.395 125.826 117.465 125.62 117.604C125.414 117.738 125.256 117.929 125.147 118.178C125.038 118.42 124.983 118.702 124.983 119.024V119.079C124.983 119.625 125.113 120.037 125.374 120.316C125.635 120.595 126.011 120.735 126.503 120.735C126.697 120.735 126.894 120.71 127.094 120.662C127.3 120.613 127.498 120.525 127.686 120.398C127.777 120.343 127.859 120.319 127.931 120.325C128.01 120.325 128.074 120.349 128.122 120.398C128.171 120.44 128.201 120.495 128.213 120.562C128.226 120.622 128.216 120.689 128.186 120.762C128.156 120.835 128.098 120.899 128.013 120.953C127.813 121.093 127.573 121.202 127.294 121.281C127.021 121.353 126.757 121.39 126.503 121.39ZM130.761 121.372C130.627 121.372 130.524 121.335 130.451 121.262C130.378 121.19 130.342 121.084 130.342 120.944V117.541H129.05C128.807 117.541 128.686 117.429 128.686 117.204C128.686 117.101 128.719 117.022 128.786 116.968C128.853 116.907 128.941 116.877 129.05 116.877H132.453C132.702 116.877 132.826 116.986 132.826 117.204C132.826 117.313 132.793 117.398 132.726 117.459C132.665 117.513 132.574 117.541 132.453 117.541H131.17V120.944C131.17 121.084 131.134 121.19 131.061 121.262C130.994 121.335 130.894 121.372 130.761 121.372ZM134.921 121.39C134.617 121.39 134.341 121.329 134.093 121.208C133.85 121.087 133.659 120.923 133.519 120.717C133.386 120.51 133.319 120.28 133.319 120.025C133.319 119.697 133.401 119.44 133.565 119.251C133.729 119.063 134.005 118.93 134.393 118.851C134.781 118.766 135.303 118.724 135.958 118.724H136.386V119.251H135.976C135.509 119.251 135.139 119.273 134.866 119.315C134.599 119.358 134.411 119.433 134.302 119.543C134.193 119.646 134.138 119.791 134.138 119.979C134.138 120.216 134.22 120.41 134.384 120.562C134.554 120.713 134.784 120.789 135.075 120.789C135.306 120.789 135.509 120.735 135.685 120.626C135.861 120.51 136.001 120.359 136.104 120.171C136.207 119.976 136.258 119.755 136.258 119.506V118.46C136.258 118.102 136.186 117.844 136.04 117.686C135.894 117.523 135.649 117.441 135.303 117.441C135.103 117.441 134.897 117.468 134.684 117.523C134.472 117.577 134.25 117.662 134.02 117.777C133.929 117.82 133.85 117.835 133.783 117.823C133.717 117.805 133.662 117.768 133.62 117.714C133.583 117.653 133.562 117.589 133.556 117.523C133.556 117.45 133.571 117.38 133.601 117.313C133.638 117.247 133.698 117.198 133.783 117.168C134.05 117.034 134.314 116.94 134.575 116.886C134.842 116.825 135.091 116.795 135.321 116.795C135.715 116.795 136.04 116.858 136.295 116.986C136.55 117.107 136.741 117.298 136.868 117.559C136.995 117.814 137.059 118.141 137.059 118.542V120.944C137.059 121.084 137.026 121.19 136.959 121.262C136.892 121.335 136.795 121.372 136.668 121.372C136.547 121.372 136.45 121.335 136.377 121.262C136.31 121.19 136.277 121.084 136.277 120.944V120.298H136.359C136.31 120.522 136.219 120.717 136.086 120.88C135.952 121.044 135.785 121.171 135.585 121.262C135.391 121.347 135.17 121.39 134.921 121.39ZM141.9 121.372C141.766 121.372 141.663 121.335 141.59 121.262C141.517 121.19 141.481 121.084 141.481 120.944V117.541H139.789V118.087C139.789 118.548 139.764 118.957 139.716 119.315C139.667 119.667 139.591 119.973 139.488 120.234C139.391 120.495 139.261 120.713 139.097 120.889C138.939 121.065 138.742 121.208 138.506 121.317C138.415 121.36 138.33 121.372 138.251 121.353C138.172 121.341 138.105 121.308 138.051 121.253C138.002 121.199 137.969 121.135 137.95 121.062C137.938 120.989 137.947 120.917 137.978 120.844C138.008 120.771 138.069 120.71 138.16 120.662C138.33 120.565 138.469 120.447 138.578 120.307C138.688 120.161 138.772 119.986 138.833 119.779C138.9 119.573 138.945 119.33 138.97 119.051C139 118.772 139.015 118.445 139.015 118.069V117.35C139.015 117.198 139.055 117.083 139.133 117.004C139.218 116.919 139.337 116.877 139.488 116.877H141.845C141.997 116.877 142.112 116.919 142.191 117.004C142.27 117.083 142.309 117.198 142.309 117.35V120.944C142.309 121.084 142.273 121.19 142.2 121.262C142.127 121.335 142.027 121.372 141.9 121.372ZM145.777 121.39C145.298 121.39 144.885 121.299 144.539 121.117C144.2 120.929 143.936 120.665 143.748 120.325C143.56 119.979 143.466 119.573 143.466 119.106C143.466 118.645 143.557 118.241 143.739 117.896C143.927 117.55 144.182 117.28 144.503 117.086C144.831 116.892 145.204 116.795 145.622 116.795C145.92 116.795 146.186 116.846 146.423 116.949C146.666 117.046 146.872 117.189 147.042 117.377C147.212 117.565 147.339 117.796 147.424 118.069C147.515 118.335 147.56 118.639 147.56 118.979C147.56 119.076 147.53 119.151 147.469 119.206C147.415 119.255 147.333 119.279 147.224 119.279H144.112V118.751H147.015L146.86 118.878C146.86 118.563 146.811 118.296 146.714 118.078C146.623 117.853 146.487 117.683 146.305 117.568C146.129 117.453 145.907 117.395 145.64 117.395C145.349 117.395 145.101 117.465 144.894 117.604C144.688 117.738 144.53 117.929 144.421 118.178C144.312 118.42 144.257 118.702 144.257 119.024V119.079C144.257 119.625 144.388 120.037 144.649 120.316C144.909 120.595 145.286 120.735 145.777 120.735C145.971 120.735 146.168 120.71 146.368 120.662C146.575 120.613 146.772 120.525 146.96 120.398C147.051 120.343 147.133 120.319 147.206 120.325C147.284 120.325 147.348 120.349 147.397 120.398C147.445 120.44 147.476 120.495 147.488 120.562C147.5 120.622 147.491 120.689 147.46 120.762C147.43 120.835 147.372 120.899 147.287 120.953C147.087 121.093 146.848 121.202 146.569 121.281C146.296 121.353 146.032 121.39 145.777 121.39ZM149.07 121.372C148.991 121.372 148.922 121.357 148.861 121.326C148.806 121.296 148.764 121.247 148.734 121.181C148.703 121.114 148.688 121.029 148.688 120.926V117.213C148.688 117.086 148.721 116.989 148.788 116.922C148.855 116.849 148.949 116.813 149.07 116.813C149.186 116.813 149.277 116.849 149.343 116.922C149.41 116.989 149.443 117.086 149.443 117.213V120.498H149.207L151.773 117.077C151.821 117.01 151.882 116.949 151.955 116.895C152.028 116.84 152.125 116.813 152.246 116.813C152.331 116.813 152.401 116.828 152.455 116.858C152.51 116.889 152.549 116.937 152.574 117.004C152.604 117.065 152.619 117.146 152.619 117.25V120.971C152.619 121.093 152.586 121.19 152.519 121.262C152.458 121.335 152.37 121.372 152.255 121.372C152.128 121.372 152.031 121.335 151.964 121.262C151.903 121.19 151.873 121.093 151.873 120.971V117.677H152.11L149.543 121.108C149.495 121.175 149.434 121.235 149.361 121.29C149.289 121.344 149.192 121.372 149.07 121.372ZM150.654 116.312C150.32 116.312 150.017 116.23 149.744 116.067C149.471 115.897 149.27 115.645 149.143 115.311C149.107 115.22 149.101 115.145 149.125 115.084C149.155 115.017 149.207 114.972 149.28 114.947C149.352 114.923 149.416 114.926 149.471 114.957C149.531 114.987 149.583 115.048 149.625 115.139C149.728 115.357 149.865 115.524 150.035 115.639C150.211 115.748 150.417 115.803 150.654 115.803C150.896 115.803 151.103 115.748 151.272 115.639C151.442 115.524 151.579 115.357 151.682 115.139C151.73 115.048 151.782 114.987 151.837 114.957C151.891 114.926 151.955 114.923 152.028 114.947C152.1 114.972 152.149 115.017 152.173 115.084C152.204 115.145 152.197 115.22 152.155 115.311C152.009 115.645 151.806 115.897 151.545 116.067C151.285 116.23 150.987 116.312 150.654 116.312ZM158.294 121.39C157.857 121.39 157.478 121.296 157.156 121.108C156.835 120.92 156.586 120.653 156.41 120.307C156.234 119.961 156.146 119.555 156.146 119.088C156.146 118.736 156.195 118.42 156.292 118.141C156.395 117.856 156.541 117.614 156.729 117.413C156.917 117.213 157.141 117.062 157.402 116.958C157.669 116.849 157.966 116.795 158.294 116.795C158.731 116.795 159.11 116.889 159.431 117.077C159.753 117.265 160.002 117.532 160.177 117.877C160.353 118.217 160.441 118.621 160.441 119.088C160.441 119.44 160.39 119.758 160.287 120.043C160.19 120.328 160.047 120.571 159.859 120.771C159.671 120.971 159.443 121.126 159.177 121.235C158.916 121.338 158.621 121.39 158.294 121.39ZM158.294 120.735C158.561 120.735 158.791 120.671 158.985 120.544C159.186 120.416 159.337 120.231 159.44 119.989C159.55 119.746 159.604 119.446 159.604 119.088C159.604 118.554 159.486 118.147 159.249 117.868C159.013 117.589 158.694 117.45 158.294 117.45C158.033 117.45 157.802 117.513 157.602 117.641C157.408 117.762 157.257 117.944 157.147 118.187C157.038 118.429 156.984 118.73 156.984 119.088C156.984 119.622 157.102 120.031 157.338 120.316C157.581 120.595 157.9 120.735 158.294 120.735ZM162.027 121.372C161.894 121.372 161.791 121.335 161.718 121.262C161.645 121.19 161.609 121.084 161.609 120.944V117.35C161.609 117.198 161.648 117.083 161.727 117.004C161.812 116.919 161.93 116.877 162.082 116.877H165.076C165.227 116.877 165.343 116.919 165.421 117.004C165.506 117.083 165.549 117.198 165.549 117.35V120.944C165.549 121.084 165.512 121.19 165.44 121.262C165.367 121.335 165.264 121.372 165.13 121.372C164.997 121.372 164.894 121.335 164.821 121.262C164.754 121.19 164.721 121.084 164.721 120.944V117.541H162.437V120.944C162.437 121.084 162.403 121.19 162.337 121.262C162.27 121.335 162.167 121.372 162.027 121.372ZM170.407 121.372C170.273 121.372 170.17 121.335 170.097 121.262C170.025 121.19 169.988 121.084 169.988 120.944V117.541H168.296V118.087C168.296 118.548 168.271 118.957 168.223 119.315C168.174 119.667 168.099 119.973 167.995 120.234C167.898 120.495 167.768 120.713 167.604 120.889C167.446 121.065 167.249 121.208 167.013 121.317C166.922 121.36 166.837 121.372 166.758 121.353C166.679 121.341 166.612 121.308 166.558 121.253C166.509 121.199 166.476 121.135 166.458 121.062C166.445 120.989 166.455 120.917 166.485 120.844C166.515 120.771 166.576 120.71 166.667 120.662C166.837 120.565 166.976 120.447 167.085 120.307C167.195 120.161 167.28 119.986 167.34 119.779C167.407 119.573 167.452 119.33 167.477 119.051C167.507 118.772 167.522 118.445 167.522 118.069V117.35C167.522 117.198 167.562 117.083 167.64 117.004C167.725 116.919 167.844 116.877 167.995 116.877H170.352C170.504 116.877 170.619 116.919 170.698 117.004C170.777 117.083 170.816 117.198 170.816 117.35V120.944C170.816 121.084 170.78 121.19 170.707 121.262C170.634 121.335 170.534 121.372 170.407 121.372ZM173.647 121.39C173.344 121.39 173.068 121.329 172.819 121.208C172.576 121.087 172.385 120.923 172.246 120.717C172.112 120.51 172.046 120.28 172.046 120.025C172.046 119.697 172.127 119.44 172.291 119.251C172.455 119.063 172.731 118.93 173.119 118.851C173.508 118.766 174.029 118.724 174.684 118.724H175.112V119.251H174.703C174.236 119.251 173.865 119.273 173.593 119.315C173.326 119.358 173.138 119.433 173.028 119.543C172.919 119.646 172.865 119.791 172.865 119.979C172.865 120.216 172.946 120.41 173.11 120.562C173.28 120.713 173.511 120.789 173.802 120.789C174.032 120.789 174.236 120.735 174.411 120.626C174.587 120.51 174.727 120.359 174.83 120.171C174.933 119.976 174.985 119.755 174.985 119.506V118.46C174.985 118.102 174.912 117.844 174.766 117.686C174.621 117.523 174.375 117.441 174.029 117.441C173.829 117.441 173.623 117.468 173.411 117.523C173.198 117.577 172.977 117.662 172.746 117.777C172.655 117.82 172.576 117.835 172.51 117.823C172.443 117.805 172.388 117.768 172.346 117.714C172.309 117.653 172.288 117.589 172.282 117.523C172.282 117.45 172.297 117.38 172.328 117.313C172.364 117.247 172.425 117.198 172.51 117.168C172.777 117.034 173.04 116.94 173.301 116.886C173.568 116.825 173.817 116.795 174.047 116.795C174.442 116.795 174.766 116.858 175.021 116.986C175.276 117.107 175.467 117.298 175.594 117.559C175.722 117.814 175.785 118.141 175.785 118.542V120.944C175.785 121.084 175.752 121.19 175.685 121.262C175.619 121.335 175.522 121.372 175.394 121.372C175.273 121.372 175.176 121.335 175.103 121.262C175.036 121.19 175.003 121.084 175.003 120.944V120.298H175.085C175.036 120.522 174.945 120.717 174.812 120.88C174.678 121.044 174.512 121.171 174.311 121.262C174.117 121.347 173.896 121.39 173.647 121.39ZM178.533 121.372C178.4 121.372 178.296 121.335 178.224 121.262C178.151 121.19 178.114 121.084 178.114 120.944V117.541H176.822C176.58 117.541 176.458 117.429 176.458 117.204C176.458 117.101 176.492 117.022 176.558 116.968C176.625 116.907 176.713 116.877 176.822 116.877H180.226C180.474 116.877 180.599 116.986 180.599 117.204C180.599 117.313 180.565 117.398 180.499 117.459C180.438 117.513 180.347 117.541 180.226 117.541H178.943V120.944C178.943 121.084 178.906 121.19 178.833 121.262C178.767 121.335 178.667 121.372 178.533 121.372ZM181.711 121.308C181.571 121.308 181.465 121.272 181.392 121.199C181.319 121.126 181.283 121.02 181.283 120.88V117.231C181.283 117.092 181.319 116.989 181.392 116.922C181.465 116.849 181.568 116.813 181.701 116.813C181.835 116.813 181.935 116.849 182.002 116.922C182.075 116.989 182.111 117.092 182.111 117.231V118.433H183.412C183.982 118.433 184.413 118.557 184.704 118.806C184.995 119.048 185.141 119.4 185.141 119.861C185.141 120.152 185.071 120.407 184.932 120.626C184.798 120.844 184.601 121.014 184.34 121.135C184.086 121.25 183.776 121.308 183.412 121.308H181.711ZM182.111 120.735H183.312C183.646 120.735 183.904 120.665 184.086 120.525C184.268 120.38 184.359 120.158 184.359 119.861C184.359 119.57 184.268 119.355 184.086 119.215C183.904 119.076 183.646 119.006 183.312 119.006H182.111V120.735ZM186.188 121.372C186.054 121.372 185.951 121.335 185.878 121.262C185.805 121.19 185.769 121.084 185.769 120.944V117.231C185.769 117.092 185.805 116.989 185.878 116.922C185.951 116.849 186.054 116.813 186.188 116.813C186.315 116.813 186.415 116.849 186.488 116.922C186.561 116.989 186.597 117.092 186.597 117.231V120.944C186.597 121.229 186.461 121.372 186.188 121.372Z" fill="#7E5F2F"/>
<rect x="0.56872" y="0.56872" width="238.863" height="147.919" rx="10.8057" stroke="#7E5F2F" stroke-opacity="0.2" stroke-width="1.13744"/>
</svg>
