<svg width="87" height="69" viewBox="0 0 87 69" fill="none" xmlns="http://www.w3.org/2000/svg">
<path d="M0.1875 57.7031C0.1875 60.5749 1.32832 63.3291 3.35898 65.3598C5.38965 67.3904 8.14383 68.5312 11.0156 68.5312H75.9844C78.8562 68.5312 81.6104 67.3904 83.641 65.3598C85.6717 63.3291 86.8125 60.5749 86.8125 57.7031V27.9258H0.1875V57.7031ZM12.9492 43.0078C12.9492 41.4693 13.5604 39.9939 14.6482 38.906C15.7361 37.8182 17.2115 37.207 18.75 37.207H28.0312C29.5697 37.207 31.0452 37.8182 32.133 38.906C33.2209 39.9939 33.832 41.4693 33.832 43.0078V46.875C33.832 48.4135 33.2209 49.8889 32.133 50.9768C31.0452 52.0646 29.5697 52.6758 28.0312 52.6758H18.75C17.2115 52.6758 15.7361 52.0646 14.6482 50.9768C13.5604 49.8889 12.9492 48.4135 12.9492 46.875V43.0078ZM75.9844 0.46875H11.0156C8.14383 0.46875 5.38965 1.60957 3.35898 3.64023C1.32832 5.6709 0.1875 8.42508 0.1875 11.2969V16.3242H86.8125V11.2969C86.8125 8.42508 85.6717 5.6709 83.641 3.64023C81.6104 1.60957 78.8562 0.46875 75.9844 0.46875Z" fill="#7E5F2F"/>
</svg>
