<svg width="107" height="107" viewBox="0 0 107 107" fill="none" xmlns="http://www.w3.org/2000/svg">
<path d="M25.0312 9C22.3708 9 19.8193 10.0569 17.9381 11.9381C16.0569 13.8193 15 16.3708 15 19.0312V88.1354C15 90.7959 16.0569 93.3474 17.9381 95.2286C19.8193 97.1098 22.3708 98.1667 25.0312 98.1667H58.4687C61.1131 98.1668 63.6505 97.1228 65.529 95.2618C67.4076 93.4007 68.4753 90.8732 68.5 88.229V81.4524C68.5 80.5656 68.1477 79.7151 67.5206 79.088C66.8936 78.4609 66.0431 78.1086 65.1562 78.1086C63.1322 78.1086 61.8571 77.5602 60.9788 76.8514C60.0515 76.1068 59.2846 74.9566 58.705 73.3337C57.4879 69.9677 57.3542 65.5317 57.3542 61.3854C57.3541 60.5379 57.0322 59.722 56.4536 59.1027L55.7224 58.3136C55.482 58.0448 55.2291 57.7874 54.9645 57.5423C54.6346 57.2302 53.627 56.2717 49.6858 52.335C47.5993 50.244 46.4402 48.4785 46.0612 47.1277C45.9092 46.6594 45.8861 46.1589 45.9943 45.6787C46.1607 45.1248 46.4751 44.6269 46.9038 44.2387C47.2905 43.8103 47.7869 43.4958 48.3394 43.3292C48.8186 43.2226 49.3176 43.2472 49.7839 43.4005C51.1348 43.7795 52.9003 44.9431 54.9912 47.034C57.3987 49.4415 59.6814 51.6975 61.7278 53.7215C65.1161 57.0742 67.8535 59.7849 69.3961 61.4345C70.0009 62.0836 70.8388 62.4659 71.7255 62.4973C72.6122 62.5286 73.475 62.2065 74.1242 61.6016C74.7733 60.9968 75.1556 60.1589 75.187 59.2722C75.2183 58.3856 74.8962 57.5227 74.2914 56.8736C72.3922 54.8886 70.46 52.9356 68.4955 51.0153V36.0175L81.1661 48.6881C83.0475 50.5695 84.1042 53.1197 84.1042 55.7768V94.8229C84.1042 95.7097 84.4564 96.5602 85.0835 97.1873C85.7106 97.8144 86.5611 98.1667 87.4479 98.1667C88.3347 98.1667 89.1852 97.8144 89.8123 97.1873C90.4394 96.5602 90.7917 95.7097 90.7917 94.8229V55.7813C90.7921 53.5856 90.36 51.4113 89.52 49.3826C88.6801 47.354 87.4488 45.5106 85.8964 43.9578L68.5 26.5614V19.0268C68.4988 16.3671 67.4414 13.8168 65.5603 11.9365C63.6792 10.0562 61.1284 9 58.4687 9H25.0312ZM56.788 82.0632C58.2549 83.2366 59.9753 84.0517 61.8125 84.4439V84.7917H58.4687C57.5819 84.7917 56.7314 85.1439 56.1044 85.771C55.4773 86.3981 55.125 87.2486 55.125 88.1354V91.4792H48.4375V88.1354C48.4375 84.1541 50.7558 80.7123 54.1219 79.0939C54.8352 80.1817 55.7135 81.1982 56.788 82.0632ZM50.6711 62.7051C50.68 63.833 50.7068 65.0502 50.7737 66.3163C48.6977 67.7868 46.2937 68.7273 43.7711 69.0561C41.2484 69.3849 38.6836 69.0919 36.3001 68.2027C33.9166 67.3135 31.7867 65.855 30.0958 63.9543C28.4049 62.0536 27.2044 59.7683 26.5988 57.2974C25.9932 54.8266 26.0009 52.2452 26.6212 49.778C27.2415 47.3108 28.4556 45.0327 30.1578 43.142C31.86 41.2514 33.9986 39.8057 36.3874 38.9307C38.7761 38.0557 41.3426 37.778 43.8632 38.1218C43.2658 38.5186 42.7041 38.9823 42.1735 39.5128C40.8717 40.8147 39.9488 42.3216 39.5164 44.0157C39.0795 45.7099 39.1865 47.3773 39.6234 48.9377C40.4705 51.9382 42.5882 54.6935 44.96 57.0653C46.7747 58.9007 48.6131 60.7124 50.475 62.5L50.4928 62.5134L50.6533 62.6872L50.6711 62.7051ZM28.375 15.6875H35.0625V19.0312C35.0625 21.6917 34.0056 24.2432 32.1244 26.1244C30.2432 28.0056 27.6917 29.0625 25.0312 29.0625H21.6875V22.375H25.0312C25.9181 22.375 26.7686 22.0227 27.3956 21.3956C28.0227 20.7686 28.375 19.9181 28.375 19.0312V15.6875ZM48.4375 15.6875H55.125V19.0312C55.125 20.877 56.623 22.375 58.4687 22.375H61.8125V29.0625H58.4687C55.8083 29.0625 53.2568 28.0056 51.3756 26.1244C49.4944 24.2432 48.4375 21.6917 48.4375 19.0312V15.6875ZM35.0625 91.4792H28.375V88.1354C28.375 87.2486 28.0227 86.3981 27.3956 85.771C26.7686 85.1439 25.9181 84.7917 25.0312 84.7917H21.6875V78.1042H25.0312C27.6917 78.1042 30.2432 79.161 32.1244 81.0422C34.0056 82.9235 35.0625 85.475 35.0625 88.1354V91.4792Z" fill="#7E5F2F"/>
</svg>
