<svg width="89" height="93" viewBox="0 0 89 93" fill="none" xmlns="http://www.w3.org/2000/svg">
<path d="M37.8984 0.25L71.6517 10.795C72.5931 11.0889 73.4159 11.676 74 12.4706C74.5841 13.2652 74.8989 14.2257 74.8984 15.2119V23.375H84.1484C85.3751 23.375 86.5515 23.8623 87.4188 24.7296C88.2862 25.597 88.7734 26.7734 88.7734 28V37.25H28.6484V28C28.6484 26.7734 29.1357 25.597 30.0031 24.7296C30.8704 23.8623 32.0468 23.375 33.2734 23.375H65.6484V18.6112L37.8984 9.93475L10.1484 18.6112V52.8547C10.1478 55.6863 10.7971 58.4802 12.0464 61.0213C13.2957 63.5623 15.1116 65.7827 17.3542 67.5114L18.2283 68.1404L37.8984 81.5529L55.3902 69.625H33.2734C32.0468 69.625 30.8704 69.1377 30.0031 68.2704C29.1357 67.403 28.6484 66.2266 28.6484 65V46.5H88.7734V65C88.7734 66.2266 88.2862 67.403 87.4188 68.2704C86.5515 69.1377 85.3751 69.625 84.1484 69.625L69.2559 69.6296C67.4661 71.9884 65.2923 74.0696 62.7809 75.7809L37.8984 92.75L13.0159 75.7855C9.28135 73.2392 6.22529 69.8192 4.11346 65.8229C2.00163 61.8265 0.897969 57.3748 0.898438 52.8547V15.2119C0.898995 14.2265 1.21426 13.267 1.79829 12.4733C2.38231 11.6797 3.20456 11.0933 4.14519 10.7996L37.8984 0.25Z" fill="#7E5F2F"/>
</svg>
