<svg width="51" height="52" viewBox="0 0 51 52" fill="none" xmlns="http://www.w3.org/2000/svg">
<path d="M43.5313 7.96871C38.7149 3.1525 32.3113 0.5 25.5 0.5C18.6887 0.5 12.2851 3.1525 7.46871 7.96871C2.6525 12.7851 0 19.1887 0 26C0 32.8113 2.6525 39.2149 7.46871 44.0313C12.2851 48.8475 18.6887 51.5 25.5 51.5C32.3113 51.5 38.7149 48.8475 43.5313 44.0313C48.3475 39.2149 51 32.8113 51 26C51 19.1887 48.3475 12.7851 43.5313 7.96871ZM42.4747 42.9747C37.9406 47.5089 31.9123 50.0059 25.5 50.0059C19.0877 50.0059 13.0594 47.5089 8.52527 42.9747C3.99115 38.4406 1.49414 32.4123 1.49414 26C1.49414 19.5877 3.99115 13.5594 8.52527 9.02527C13.0594 4.49115 19.0877 1.99414 25.5 1.99414C31.9123 1.99414 37.9406 4.49115 42.4747 9.02527C47.0089 13.5594 49.5059 19.5877 49.5059 26C49.5059 32.4123 47.0089 38.4406 42.4747 42.9747Z" fill="#7E5F2F"/>
<path d="M25.4996 8.48438C25.3015 8.48438 25.1114 8.56308 24.9713 8.70319C24.8312 8.84329 24.7525 9.03331 24.7525 9.23145V12.4253C24.7525 12.6235 24.8312 12.8135 24.9713 12.9536C25.1114 13.0937 25.3014 13.1724 25.4995 13.1724C25.6977 13.1725 25.8877 13.0938 26.0278 12.9537C26.1679 12.8136 26.2466 12.6236 26.2467 12.4254V9.23145C26.2467 9.03331 26.1679 8.84329 26.0278 8.70319C25.8877 8.56308 25.6977 8.48438 25.4996 8.48438ZM25.4996 38.8267C25.3015 38.8267 25.1114 38.9054 24.9713 39.0455C24.8312 39.1856 24.7525 39.3756 24.7525 39.5738V42.7676C24.7525 42.9658 24.8312 43.1558 24.9713 43.2959C25.1114 43.436 25.3015 43.5147 25.4996 43.5147C25.6977 43.5147 25.8877 43.436 26.0278 43.2959C26.1679 43.1558 26.2467 42.9658 26.2467 42.7676V39.5738C26.2467 39.3756 26.1679 39.1856 26.0278 39.0455C25.8877 38.9054 25.6977 38.8267 25.4996 38.8267ZM42.2677 25.2525H39.0739C38.8757 25.2525 38.6857 25.3312 38.5456 25.4713C38.4055 25.6114 38.3268 25.8015 38.3268 25.9996C38.3268 26.1977 38.4055 26.3877 38.5456 26.5278C38.6857 26.6679 38.8757 26.7467 39.0739 26.7467H42.2677C42.4659 26.7467 42.6559 26.6679 42.796 26.5278C42.9361 26.3877 43.0148 26.1977 43.0148 25.9996C43.0148 25.8015 42.9361 25.6114 42.796 25.4713C42.6559 25.3312 42.4659 25.2525 42.2677 25.2525ZM11.9253 25.2525H8.73145C8.53331 25.2525 8.34329 25.3312 8.20319 25.4713C8.06308 25.6114 7.98438 25.8015 7.98438 25.9996C7.98438 26.1977 8.06308 26.3877 8.20319 26.5278C8.34329 26.6679 8.53331 26.7467 8.73145 26.7467H11.9253C12.1235 26.7467 12.3135 26.6679 12.4536 26.5278C12.5937 26.3877 12.6724 26.1977 12.6724 25.9996C12.6724 25.8015 12.5937 25.6114 12.4536 25.4713C12.3135 25.3312 12.1235 25.2525 11.9253 25.2525ZM12.7345 17.7671L11.3516 16.9686C11.1801 16.8711 10.977 16.8454 10.7866 16.8971C10.5962 16.9488 10.434 17.0737 10.3353 17.2445C10.2367 17.4153 10.2096 17.6183 10.2601 17.809C10.3105 17.9997 10.4343 18.1628 10.6045 18.2625L11.9875 19.061C12.0724 19.1101 12.1662 19.1419 12.2635 19.1547C12.3608 19.1675 12.4596 19.1611 12.5544 19.1357C12.6491 19.1103 12.738 19.0665 12.8158 19.0067C12.8936 18.947 12.9589 18.8725 13.008 18.7876C13.107 18.616 13.1339 18.4121 13.0826 18.2207C13.0313 18.0293 12.9061 17.8661 12.7345 17.7671ZM40.3947 33.7366L39.0117 32.9382C38.8402 32.8407 38.6371 32.815 38.4467 32.8666C38.2563 32.9183 38.0941 33.0432 37.9955 33.2141C37.8968 33.3849 37.8698 33.5878 37.9202 33.7786C37.9706 33.9693 38.0944 34.1323 38.2646 34.2321L39.6476 35.0306C39.7326 35.0796 39.8263 35.1115 39.9236 35.1243C40.0209 35.1371 40.1197 35.1306 40.2145 35.1052C40.3093 35.0799 40.3981 35.036 40.4759 34.9763C40.5538 34.9166 40.6191 34.8421 40.6681 34.7571C40.7672 34.5856 40.794 34.3816 40.7427 34.1903C40.6915 33.9989 40.5663 33.8357 40.3947 33.7366ZM34.2571 10.8311C34.0856 10.732 33.8816 10.7052 33.6903 10.7564C33.4989 10.8077 33.3357 10.9329 33.2366 11.1045L32.4382 12.4875C32.3407 12.659 32.315 12.8621 32.3666 13.0525C32.4183 13.2428 32.5432 13.4051 32.7141 13.5037C32.8849 13.6023 33.0878 13.6294 33.2786 13.579C33.4693 13.5285 33.6323 13.4047 33.7321 13.2345L34.5306 11.8516C34.6296 11.68 34.6565 11.4761 34.6052 11.2847C34.5539 11.0933 34.4287 10.9301 34.2571 10.8311ZM18.2876 38.4912C18.2026 38.4421 18.1088 38.4103 18.0116 38.3975C17.9143 38.3847 17.8154 38.3911 17.7207 38.4165C17.6259 38.4419 17.5371 38.4857 17.4593 38.5455C17.3814 38.6052 17.3161 38.6797 17.2671 38.7646L16.4686 40.1476C16.3711 40.3191 16.3454 40.5222 16.3971 40.7126C16.4488 40.903 16.5737 41.0652 16.7445 41.1638C16.9153 41.2625 17.1183 41.2895 17.309 41.2391C17.4997 41.1887 17.6628 41.0649 17.7625 40.8947L18.561 39.5117C18.6601 39.3401 18.6869 39.1362 18.6356 38.9448C18.5844 38.7534 18.4592 38.5903 18.2876 38.4912ZM40.6682 17.2419C40.5691 17.0703 40.406 16.9451 40.2146 16.8939C40.0232 16.8426 39.8193 16.8694 39.6477 16.9685L38.2647 17.767C38.0945 17.8667 37.9707 18.0298 37.9203 18.2205C37.8699 18.4112 37.8969 18.6142 37.9956 18.785C38.0942 18.9558 38.2564 19.0807 38.4468 19.1324C38.6372 19.1841 38.8403 19.1584 39.0118 19.0609L40.3948 18.2624C40.5664 18.1634 40.6916 18.0002 40.7428 17.8088C40.7941 17.6174 40.7673 17.4135 40.6682 17.2419ZM13.008 33.2116C12.9589 33.1266 12.8936 33.0521 12.8158 32.9924C12.738 32.9327 12.6491 32.8889 12.5544 32.8635C12.4596 32.8381 12.3608 32.8316 12.2635 32.8444C12.1662 32.8572 12.0724 32.8891 11.9875 32.9382L10.6045 33.7366C10.4343 33.8364 10.3105 33.9995 10.2601 34.1902C10.2096 34.3809 10.2367 34.5838 10.3353 34.7547C10.434 34.9255 10.5962 35.0504 10.7866 35.1021C10.977 35.1538 11.1801 35.1281 11.3516 35.0306L12.7345 34.2321C12.9061 34.133 13.0313 33.9699 13.0826 33.7785C13.1339 33.5871 13.107 33.3832 13.008 33.2116ZM18.561 12.4875L17.7625 11.1045C17.6628 10.9343 17.4997 10.8105 17.309 10.7601C17.1183 10.7096 16.9153 10.7367 16.7445 10.8353C16.5737 10.934 16.4488 11.0962 16.3971 11.2866C16.3454 11.477 16.3711 11.6801 16.4686 11.8516L17.2671 13.2345C17.3161 13.3195 17.3814 13.394 17.4592 13.4538C17.537 13.5135 17.6259 13.5573 17.7207 13.5827C17.8154 13.6081 17.9143 13.6146 18.0116 13.6018C18.1088 13.5889 18.2026 13.5571 18.2876 13.508C18.4592 13.4089 18.5844 13.2457 18.6356 13.0544C18.6869 12.863 18.6601 12.6591 18.561 12.4875ZM34.5306 40.1476L33.7321 38.7646C33.6323 38.5944 33.4693 38.4706 33.2786 38.4202C33.0878 38.3698 32.8849 38.3968 32.7141 38.4955C32.5432 38.5941 32.4183 38.7563 32.3666 38.9467C32.315 39.1371 32.3407 39.3402 32.4382 39.5117L33.2366 40.8947C33.2857 40.9797 33.351 41.0542 33.4288 41.1139C33.5066 41.1736 33.5955 41.2175 33.6902 41.2429C33.785 41.2682 33.8839 41.2747 33.9811 41.2619C34.0784 41.2491 34.1722 41.2172 34.2571 41.1681C34.4287 41.069 34.5539 40.9059 34.6052 40.7145C34.6565 40.5231 34.6296 40.3192 34.5306 40.1476ZM36.6182 24.289C36.6033 24.192 36.5695 24.0989 36.5186 24.015C36.4677 23.9311 36.4008 23.858 36.3217 23.8C36.2426 23.742 36.1528 23.7001 36.0575 23.6768C35.9622 23.6535 35.8632 23.6493 35.7662 23.6642L27.581 24.9235C27.1905 24.1711 26.4043 23.6556 25.4997 23.6556C25.1255 23.6556 24.7716 23.7442 24.4575 23.9009L16.4462 15.8896C16.3061 15.7495 16.1161 15.6709 15.918 15.6709C15.7198 15.6709 15.5298 15.7495 15.3897 15.8896C15.2496 16.0297 15.171 16.2197 15.171 16.4179C15.171 16.616 15.2496 16.806 15.3897 16.9461L23.401 24.9574C23.2394 25.281 23.1554 25.6378 23.1557 25.9996C23.1557 27.2921 24.2073 28.3436 25.4997 28.3436C26.6556 28.3436 27.6181 27.5024 27.8087 26.4002L35.9935 25.1411C36.1893 25.1109 36.3651 25.0042 36.4823 24.8444C36.5994 24.6846 36.6483 24.4848 36.6182 24.289ZM25.4996 26.8495C25.0309 26.8495 24.6497 26.4681 24.6497 25.9996C24.6497 25.531 25.031 25.1497 25.4996 25.1497C25.9681 25.1497 26.3495 25.531 26.3495 25.9996C26.3495 26.4681 25.9682 26.8495 25.4996 26.8495Z" fill="#7E5F2F"/>
<path d="M38.921 10.2363C34.9705 6.86596 29.9281 5.11532 24.722 5.30836C19.4869 5.50191 14.5623 7.64998 10.8556 11.3566C7.14894 15.0633 5.00086 19.9879 4.80732 25.2231C4.61478 30.429 6.36491 35.4717 9.7353 39.4221C9.80538 39.5044 9.89255 39.5705 9.99075 39.6158C10.089 39.6611 10.1958 39.6844 10.304 39.6843C10.4466 39.6842 10.5863 39.6432 10.7065 39.5663C10.8266 39.4893 10.9222 39.3796 10.982 39.25C11.0417 39.1204 11.0631 38.9764 11.0436 38.8351C11.0241 38.6938 10.9645 38.5609 10.8719 38.4524C7.7453 34.7876 6.12167 30.109 6.30037 25.2783C6.47996 20.4212 8.47295 15.8523 11.9121 12.4131C15.3512 8.97389 19.9202 6.98101 24.7772 6.80141C29.6083 6.62281 34.2865 8.24634 37.9513 11.373C38.1023 11.4994 38.2972 11.5611 38.4934 11.5447C38.6897 11.5282 38.8715 11.4349 38.9993 11.2851C39.1272 11.1353 39.1906 10.941 39.176 10.7446C39.1613 10.5482 39.0697 10.3655 38.921 10.2363ZM41.263 12.5783C41.1338 12.4296 40.9511 12.338 40.7547 12.3233C40.5583 12.3086 40.364 12.3721 40.2142 12.5C40.0644 12.6278 39.9711 12.8096 39.9546 13.0059C39.9382 13.2021 39.9999 13.397 40.1263 13.548C43.253 17.2128 44.8765 21.8914 44.6979 26.7221C44.5183 31.5791 42.5253 36.148 39.0862 39.5872C35.6471 43.0265 31.0781 45.0193 26.221 45.1989C21.3908 45.3777 16.7117 43.7541 13.0469 40.6274C12.8959 40.5009 12.7011 40.4392 12.5048 40.4557C12.3086 40.4721 12.1267 40.5654 11.9989 40.7152C11.8711 40.8651 11.8076 41.0593 11.8223 41.2557C11.8369 41.4521 11.9286 41.6348 12.0772 41.764C15.8312 44.9667 20.5712 46.7063 25.5006 46.7063C25.7586 46.7063 26.0173 46.7015 26.2763 46.692C31.5115 46.4984 36.4361 44.3504 40.1427 40.6437C43.8494 36.937 45.9975 32.0124 46.191 26.7773C46.3835 21.5715 44.6333 16.5288 41.263 12.5783Z" fill="#7E5F2F"/>
</svg>
