<svg width="38" height="38" viewBox="0 0 38 38" fill="none" xmlns="http://www.w3.org/2000/svg">
<path fill-rule="evenodd" clip-rule="evenodd" d="M19 0C8.50659 0 0 8.50659 0 19C0 29.4934 8.50659 38 19 38C29.4934 38 38 29.4934 38 19C38 8.50659 29.4934 0 19 0ZM14.8226 8.92789C15.9035 8.8787 16.2489 8.86667 19.001 8.86667H18.9978C21.7507 8.86667 22.0948 8.8787 23.1757 8.92789C24.2545 8.97729 24.9913 9.14808 25.6373 9.39867C26.3044 9.65729 26.8681 10.0035 27.4318 10.5672C27.9954 11.1304 28.3417 11.6958 28.6013 12.3623C28.8504 13.0066 29.0214 13.743 29.0721 14.8217C29.1207 15.9026 29.1333 16.248 29.1333 19.0001C29.1333 21.7522 29.1207 22.0967 29.0721 23.1776C29.0214 24.256 28.8504 24.9926 28.6013 25.6371C28.3417 26.3034 27.9954 26.8687 27.4318 27.432C26.8687 27.9956 26.3042 28.3427 25.6379 28.6015C24.9932 28.8521 24.256 29.0229 23.1772 29.0723C22.0963 29.1215 21.752 29.1335 18.9997 29.1335C16.2478 29.1335 15.9027 29.1215 14.8218 29.0723C13.7432 29.0229 13.0066 28.8521 12.3619 28.6015C11.6958 28.3427 11.1304 27.9956 10.5674 27.432C10.0039 26.8687 9.65771 26.3034 9.39867 25.6369C9.14829 24.9926 8.9775 24.2562 8.92789 23.1774C8.87891 22.0965 8.86667 21.7522 8.86667 19.0001C8.86667 16.248 8.87933 15.9024 8.92768 14.8215C8.97623 13.7432 9.14724 13.0066 9.39846 12.3621C9.65813 11.6958 10.0044 11.1304 10.568 10.5672C11.1313 10.0037 11.6966 9.6575 12.3631 9.39867C13.0074 9.14808 13.7438 8.97729 14.8226 8.92789Z" fill="#25262D"/>
<path fill-rule="evenodd" clip-rule="evenodd" d="M18.0916 10.692C18.2681 10.6917 18.458 10.6918 18.6629 10.6919L19.0007 10.692C21.7063 10.692 22.027 10.7017 23.0954 10.7503C24.0834 10.7954 24.6197 10.9605 24.9769 11.0992C25.4498 11.2829 25.7869 11.5025 26.1414 11.8571C26.496 12.2118 26.7156 12.5496 26.8997 13.0225C27.0384 13.3792 27.2037 13.9155 27.2487 14.9035C27.2972 15.9717 27.3078 16.2926 27.3078 18.997C27.3078 21.7013 27.2972 22.0222 27.2487 23.0905C27.2035 24.0785 27.0384 24.6147 26.8997 24.9715C26.716 25.4444 26.496 25.7811 26.1414 26.1356C25.7867 26.4902 25.45 26.7098 24.9769 26.8935C24.6201 27.0328 24.0834 27.1975 23.0954 27.2426C22.0272 27.2912 21.7063 27.3017 19.0007 27.3017C16.2948 27.3017 15.9741 27.2912 14.9059 27.2426C13.9179 27.197 13.3817 27.0319 13.0243 26.8932C12.5514 26.7096 12.2136 26.49 11.8589 26.1353C11.5042 25.7807 11.2847 25.4437 11.1006 24.9706C10.9619 24.6139 10.7966 24.0776 10.7516 23.0896C10.7031 22.0214 10.6934 21.7005 10.6934 18.9944C10.6934 16.2884 10.7031 15.9692 10.7516 14.901C10.7968 13.9129 10.9619 13.3767 11.1006 13.0195C11.2843 12.5466 11.5042 12.2088 11.8589 11.8542C12.2136 11.4995 12.5514 11.2799 13.0243 11.0958C13.3815 10.9565 13.9179 10.7918 14.9059 10.7465C15.8407 10.7042 16.203 10.6916 18.0916 10.6895V10.692ZM24.4098 12.3746C23.7385 12.3746 23.1938 12.9186 23.1938 13.5901C23.1938 14.2615 23.7385 14.8062 24.4098 14.8062C25.0812 14.8062 25.6258 14.2615 25.6258 13.5901C25.6258 12.9188 25.0812 12.3741 24.4098 12.3741V12.3746ZM13.7967 18.9993C13.7967 16.1255 16.1267 13.7955 19.0005 13.7954C21.8743 13.7954 24.2038 16.1254 24.2038 18.9993C24.2038 21.8732 21.8746 24.2022 19.0007 24.2022C16.1268 24.2022 13.7967 21.8732 13.7967 18.9993Z" fill="#25262D"/>
<path d="M19.0009 15.623C20.8663 15.623 22.3787 17.1353 22.3787 19.0009C22.3787 20.8663 20.8663 22.3787 19.0009 22.3787C17.1353 22.3787 15.623 20.8663 15.623 19.0009C15.623 17.1353 17.1353 15.623 19.0009 15.623Z" fill="#25262D"/>
</svg>
