<svg width="90" height="120" viewBox="0 0 90 120" fill="none" xmlns="http://www.w3.org/2000/svg">
  <path
    d="M49.7003 104.961C47.718 104.537 45.6885 104.378 43.6646 104.488C43.541 104.488 43.1391 104.411 42.8918 104.395C42.8918 104.318 42.9613 104.248 42.9691 104.225C43.4359 103.498 43.597 102.615 43.4173 101.769C43.354 101.54 43.239 101.329 43.0813 101.152C42.9236 100.974 42.7274 100.836 42.5078 100.747C42.2882 100.658 42.0511 100.62 41.8149 100.638C41.5786 100.655 41.3495 100.727 41.1452 100.847C36.7711 103.776 31.23 104.062 26.1294 104.419C23.5637 104.597 20.2792 104.977 18.0999 103.311C17.072 102.536 16.1524 101.536 15.2018 100.653L11.8323 97.5152C11.6308 97.3267 11.3827 97.1956 11.1136 97.1356C10.5565 96.3897 10.0405 95.6137 9.568 94.8112C8.54788 93.099 5.87392 94.6563 6.89404 96.3608C7.62821 97.6005 8.55562 98.6852 9.39026 99.8706C10.2249 101.056 10.9359 102.195 11.7087 103.357C13.2059 105.713 15.4116 107.531 18.0071 108.548C20.8588 109.594 23.9578 109.548 26.9486 109.664C30.0382 109.799 33.0814 110.467 35.9442 111.64C39.3755 113.019 42.714 114.685 46.0758 116.226C46.3407 116.382 46.6456 116.455 46.9519 116.435C47.2582 116.416 47.5518 116.306 47.7955 116.119C48.0392 115.932 48.2219 115.677 48.3202 115.386C48.4186 115.094 48.4282 114.78 48.3479 114.483C48.2242 113.809 48.0928 113.135 47.9692 112.461L47.8996 112.074C48.2597 112.171 48.6426 112.134 48.9778 111.97C49.313 111.806 49.5778 111.527 49.7235 111.183C49.8694 110.838 49.8856 110.451 49.7691 110.095C49.6525 109.739 49.4112 109.437 49.0898 109.246C49.2057 109.331 48.997 109.029 48.9738 108.967C48.8811 108.726 48.7961 108.479 48.6956 108.238C48.6956 108.238 48.6956 108.184 48.6956 108.153C49.0357 108.084 49.3835 107.998 49.7235 107.898C51.0991 107.518 51.2459 105.348 49.7003 104.961Z"
    fill="#FDCE85" />
  <path
    d="M79.0057 42.3183C78.9635 42.111 78.8822 41.9138 78.7661 41.7372C77.2403 39.4384 75.3228 37.4269 73.1014 35.7946C71.9959 34.98 70.8129 34.2767 69.5696 33.695C68.4027 33.1526 67.0039 32.7961 66.5325 31.4557C66.4629 31.262 66.4088 31.0608 66.3547 30.8671C66.4542 30.5545 66.4807 30.2231 66.432 29.8986C65.3114 22.724 66.2465 15.0147 62.1583 8.615C61.9974 8.34665 61.7569 8.13554 61.4705 8.01083C60.6817 6.50228 59.4948 5.23978 58.0392 4.36142C57.8545 4.2587 57.6513 4.19416 57.4414 4.17132C57.2314 4.14849 57.019 4.16781 56.8167 4.22845C56.6144 4.28908 56.4262 4.38969 56.2632 4.52429C56.1002 4.65889 55.9657 4.82484 55.8676 5.01231C55.2492 5.34699 54.7759 5.89881 54.5384 6.56189C54.3482 7.1481 54.2953 7.77043 54.3838 8.38045C54.4722 8.99046 54.6996 9.57178 55.0484 10.0795C56.3385 12.0569 57.4162 14.1656 58.2633 16.3706C59.5206 20.3647 60.2303 24.5118 60.3731 28.6976C59.0052 26.0324 58.642 22.9331 57.9697 20.0509C57.3654 17.2364 56.2117 14.5697 54.575 12.2041C52.9382 9.83848 50.8509 7.82092 48.4331 6.26756C47.2777 5.5457 46.0563 4.93595 44.7854 4.44673C43.5798 3.97411 41.8487 3.21478 40.5504 3.63317C38.8424 4.19102 38.9352 6.2907 39.252 7.70856C39.7263 9.30657 40.407 10.8356 41.2768 12.2567C44.6974 18.7624 47.7121 25.4745 50.3033 32.3546C48.0477 32.6582 45.8677 33.378 43.8735 34.4775C42.63 35.2189 41.5557 36.2141 40.7204 37.3985C40.2886 38.014 39.9086 38.6645 39.5843 39.3432C39.4221 39.6841 39.2598 40.0249 39.1052 40.3658L38.9661 40.7223C38.5874 40.5054 38.1933 40.2806 37.8301 40.0714C36.9104 39.5523 35.3493 40.1876 35.5116 41.4041C35.9017 44.5009 36.103 47.6188 36.1144 50.7403C35.4833 50.427 34.8808 50.0589 34.3138 49.6402C33.2628 48.8654 32.1035 49.9501 31.9953 50.9805C31.6722 53.9304 31.8472 56.9137 32.5131 59.8053C32.4294 60.0099 32.3969 60.2321 32.4184 60.4522C32.44 60.6723 32.5149 60.8838 32.6367 61.0683C35.8903 65.5853 37.7373 70.8383 39.4066 76.0991C39.7003 77.0288 40.4654 78.4235 40.0635 79.4152C39.7107 80.034 39.2217 80.5639 38.6338 80.9648C37.0882 82.2199 35.5425 83.2892 34.8702 85.2804C34.7794 85.61 34.7999 85.9603 34.9285 86.277C35.0571 86.5938 35.2866 86.8591 35.5812 87.0314C36.1345 87.273 36.7365 87.3813 37.3391 87.3477C37.9417 87.314 38.528 87.1394 39.0511 86.8377C40.1794 86.347 41.2846 85.8149 42.3665 85.2416C44.5227 84.1027 46.4779 82.646 48.5954 81.4528C50.7129 80.2596 53.2709 80.3992 55.713 80.3914C58.4024 80.3914 61.1227 80.3913 63.7889 80.461C64.1287 80.4604 64.4587 80.3478 64.7281 80.1402C64.9975 79.9327 65.1912 79.6418 65.2791 79.3129C65.3671 78.9839 65.3445 78.635 65.2148 78.3202C65.0852 78.0053 64.8556 77.742 64.5617 77.5711C62.0746 76.1724 59.8598 74.3351 58.0238 72.1476C57.6164 71.6848 57.2468 71.19 56.9186 70.6678C56.8569 70.566 56.8027 70.4599 56.7563 70.3502C56.8412 70.3425 56.9265 70.3425 57.0114 70.3502C58.2247 70.5284 59.2834 71.8997 60.2495 72.5893C61.1562 73.2304 62.2316 73.589 63.3407 73.6198C63.4251 73.7327 63.5181 73.8389 63.6189 73.9374C63.6189 73.9374 63.6189 73.9374 63.6189 73.9839C63.4319 74.3737 63.4041 74.8212 63.5416 75.2312C63.5515 75.256 63.5645 75.2795 63.5803 75.301C63.6431 75.4853 63.7446 75.654 63.8779 75.7957C64.0112 75.9373 64.1733 76.0487 64.3531 76.1223C66.1526 77.5631 68.3952 78.3327 70.6979 78.2995C70.9689 78.2993 71.2352 78.2275 71.4698 78.0915C71.7045 77.9555 71.8994 77.7601 72.0349 77.5247C72.1706 77.2892 72.242 77.022 72.242 76.75C72.242 76.478 72.1706 76.2107 72.0349 75.9752C71.6205 75.3715 71.1266 74.8267 70.5665 74.3558C69.8972 73.8324 69.1585 73.4048 68.3717 73.0852C68.0549 72.9535 67.738 72.8371 67.4212 72.7132L67.2048 72.6358L67.0193 72.5582H66.9652L66.7797 72.4731C66.6313 72.398 66.4868 72.3152 66.3469 72.2251C66.5722 72.117 66.8163 72.0538 67.0657 72.0392C68.5572 71.8377 69.7164 71.0861 69.8401 69.4513C69.8787 69.0175 69.7551 68.5293 70.1879 68.2581C70.2557 68.2079 70.334 68.1738 70.4168 68.1579C70.4997 68.142 70.585 68.1448 70.6666 68.1664C70.7481 68.188 70.8238 68.2276 70.8881 68.2823C70.9524 68.3371 71.0036 68.4056 71.0379 68.4828C71.2621 68.8547 71.038 69.2576 70.9066 69.6373C70.6083 70.2653 70.4027 70.9335 70.2961 71.6208C70.2163 72.2707 70.3554 72.9289 70.6915 73.4904C71.0275 74.0519 71.5412 74.4847 72.1508 74.7199C75.0257 75.8279 77.6069 72.969 77.2437 70.172C76.9654 68.7497 76.29 67.4358 75.2962 66.3832C74.5233 65.4767 73.3719 64.4617 73.2405 63.222C73.1091 61.9824 74.1756 60.9829 74.7861 60.1229C75.6322 59.0049 76.3478 57.7936 76.9191 56.5124C77.5224 55.0949 78.3182 53.7677 79.2839 52.5687C80.3022 51.492 81.1095 50.2332 81.6642 48.8576C82.5761 46.0994 80.9686 43.9531 79.0057 42.3183Z"
    fill="#FDCE85" />
  <path
    d="M46.834 84.4917C42.9158 86.0117 38.8332 87.0647 34.6699 87.6294L37.8848 83.9183C39.3377 82.2293 40.976 80.3852 40.8524 77.9989C40.7287 75.6125 38.9281 73.2727 37.8771 71.2427L34.0748 63.8822C34.1101 63.5201 34.0172 63.1571 33.8123 62.8568C33.6074 62.5565 33.3036 62.3381 32.9542 62.2398C23.7732 60.902 14.5458 59.9799 5.27198 59.4738C5.00935 59.4428 4.74355 59.4929 4.51015 59.6175C4.27675 59.7421 4.08688 59.9352 3.96592 60.171C3.57285 60.183 3.19798 60.3398 2.91287 60.6113C2.62776 60.8829 2.4524 61.2503 2.42029 61.6432C2.29664 63.1153 1.23015 64.3703 0.874655 65.8037C0.480519 67.5625 0.874646 69.2825 1.10649 71.0335C1.33161 72.7594 1.42202 74.5001 1.37696 76.2401C1.2053 78.043 1.18466 79.8572 1.31517 81.6636C2.21936 87.9704 8.99695 91.6506 14.453 93.4869C14.5612 93.5228 14.6724 93.5488 14.7853 93.5644C25.427 97.7095 43.8896 99.4837 48.681 86.3201C48.7525 86.0643 48.7543 85.7942 48.6864 85.5375C48.6185 85.2808 48.4832 85.0469 48.2947 84.8603C48.1063 84.6737 47.8714 84.5412 47.6145 84.4764C47.3576 84.4115 47.0881 84.4168 46.834 84.4917ZM32.2509 93.4946C26.6588 93.7745 21.0712 92.858 15.8596 90.8061C15.8596 90.7054 15.8596 90.597 15.9059 90.4885C15.1722 90.1586 14.3886 89.9543 13.5875 89.8842C9.16698 88.1177 4.23641 84.9643 4.31369 79.8119C4.31369 78.2624 4.51462 76.674 4.49916 75.1012C4.47499 73.3474 4.33039 71.5974 4.06639 69.8636C3.85773 68.4535 3.61814 67.0977 4.15139 65.7341C4.62253 64.7012 5.02274 63.6372 5.34924 62.5496C14.0821 63.0145 22.7762 63.8694 31.4318 65.1142C31.4318 65.2459 31.4318 65.3854 31.4936 65.5171C31.5771 65.9472 31.696 66.3695 31.8491 66.7799C31.9496 66.7025 32.0655 66.6405 32.1659 66.5707L34.4844 71.0103C35.5509 73.0789 36.9497 75.1941 37.7457 77.3867C38.5417 79.5794 36.0532 81.5396 34.8012 82.9807L30.0948 88.4042C29.322 89.2952 29.7702 91.0308 31.1458 90.9378C35.5232 90.6527 39.8521 89.8545 44.0441 88.5593C41.2002 91.8832 36.5169 93.2467 32.2509 93.4946Z"
    fill="#5C3210" />
  <path
    d="M78.179 37.1669C75.3372 34.7002 72.2261 32.5637 68.9052 30.7982C68.9052 23.6004 68.8125 16.0307 65.4584 9.49152C63.9901 6.63256 61.7103 3.4792 58.3176 2.93685C57.1122 2.73515 55.8743 2.95345 54.8098 3.55539C53.7454 4.15733 52.9187 5.10662 52.4674 6.24521C51.571 5.47042 50.659 4.74204 49.7471 4.03699C47.4673 2.28597 44.8397 0.751888 41.8798 0.744141C29.9244 0.744141 43.3482 22.9108 48.1242 30.403C46.0551 30.8273 44.1021 31.696 42.3998 32.9493C40.6975 34.2025 39.2863 35.8104 38.2631 37.6627C37.3202 37.0351 36.1996 36.4308 35.2104 36.7485C33.5102 37.2908 34.1285 39.4216 34.283 40.7155L35.0945 47.363C34.5638 46.8568 33.9839 46.4052 33.3634 46.0149C33.0058 45.8011 32.5911 45.7036 32.176 45.7355C31.7609 45.7674 31.3658 45.9272 31.0449 46.1931C30.5181 46.7986 30.2417 47.5829 30.2721 48.3858C29.8204 52.2403 30.1677 56.1468 31.2923 59.8605C31.8409 61.6812 34.7004 60.9064 34.1439 59.0857C33.349 56.4495 32.976 53.7037 33.0388 50.9504C33.0388 50.5243 33.0852 50.1058 33.1161 49.6796C34.0048 50.4544 35.079 51.1518 35.96 51.8568C36.841 52.5619 38.6572 52.2366 38.4872 50.811L37.7143 44.5119C37.5984 43.5279 37.4748 42.5516 37.3589 41.5754L37.2352 40.5759L37.7221 40.8937C37.9353 41.0634 38.1995 41.1557 38.4717 41.1557C38.7439 41.1557 39.0081 41.0634 39.2213 40.8937C39.4581 40.8909 39.6883 40.815 39.8805 40.6763C40.0728 40.5377 40.2177 40.3431 40.2956 40.1189C41.1813 38.0824 42.6207 36.3369 44.4492 35.0818C46.2778 33.8268 48.4217 33.1128 50.6358 33.0217C50.8943 33.0168 51.1471 32.9451 51.3697 32.8133C51.5924 32.6815 51.7772 32.4942 51.9063 32.2696C52.0354 32.0451 52.1044 31.7907 52.1066 31.5315C52.1088 31.2724 52.044 31.0171 51.9187 30.7904C48.8227 26.2254 46.0169 21.469 43.5182 16.5497C42.3342 14.0971 41.3496 11.5528 40.5738 8.94145C40.127 7.79667 39.8812 6.58291 39.8473 5.35409C40.0173 3.52559 41.7176 3.55665 43.1936 3.87431C45.7439 4.43216 47.8692 6.26063 49.8012 7.91092C51.8269 9.48105 53.6448 11.3036 55.2109 13.3344C58.3717 17.8514 58.4722 24.3364 59.0131 29.605C59.1986 31.4877 62.1585 31.511 61.9653 29.605C61.3084 23.1355 61.0843 15.7829 56.7952 10.5298C56.1978 9.8002 55.5606 9.10426 54.8863 8.44548C55.0547 8.22118 55.1517 7.95115 55.1645 7.6707C55.2256 7.20783 55.4415 6.77948 55.7771 6.45574C56.1126 6.132 56.5479 5.93201 57.0116 5.88865C57.5947 5.83877 58.1815 5.92251 58.7277 6.13323C59.2739 6.34395 59.7653 6.6762 60.1646 7.10512C62.1662 8.93361 63.4182 11.6841 64.2374 14.2176C65.8294 19.1375 65.9685 24.352 65.9685 29.4888L65.3116 29.2176C63.5187 28.5513 62.7459 31.4179 64.5388 32.0765C68.5932 33.7083 72.3488 36.0046 75.6519 38.8714C78.6736 41.3662 82.3522 44.8916 81.3243 49.2459C80.8915 51.1054 83.7432 51.8957 84.176 50.0207C85.3507 44.7831 81.9426 40.3668 78.179 37.1669Z"
    fill="#5C3210" />
  <path
    d="M56.1072 25.7936C54.0824 21.0132 51.9417 16.1474 48.1395 12.4904C46.7638 11.1655 44.6696 13.2653 46.0452 14.5902C49.6542 18.0535 51.6326 22.7564 53.5569 27.2889C53.7567 27.6267 54.0811 27.8723 54.46 27.9723C54.8389 28.0723 55.2418 28.0188 55.5817 27.8234C55.9071 27.6127 56.1417 27.2871 56.239 26.9111C56.3363 26.5352 56.2893 26.1364 56.1072 25.7936Z"
    fill="#5C3210" />
  <path
    d="M72.4612 68.5001C71.8871 67.815 71.2535 67.1824 70.5678 66.6097C70.2883 66.3354 69.9155 66.1775 69.5245 66.168C69.1309 66.1756 68.7549 66.3336 68.4735 66.6097C68.2013 66.8863 68.0487 67.2593 68.0484 67.6479C67.9079 67.7471 67.7916 67.8769 67.7084 68.0276C67.5232 68.3794 67.4684 68.7857 67.5538 69.1742C67.6466 69.7166 67.7393 70.2666 67.8243 70.8089V70.9871H67.152C66.2199 70.9478 65.2871 71.0497 64.3853 71.2894C63.6125 71.4986 62.9247 71.8085 62.1982 72.0642C61.835 72.2036 61.4718 72.3354 61.1008 72.4438C60.9154 72.4981 60.7299 72.5445 60.5367 72.5832L60.2739 72.6298H60.1503H60.0884C59.0545 71.5649 58.1563 70.3755 57.4145 69.0889C56.4716 67.4309 53.9136 68.9262 54.8642 70.5842C57.1546 74.5839 60.681 77.7277 64.9108 79.5408C64.308 79.5408 63.6898 79.5408 63.0715 79.5408C60.8226 79.4788 58.5737 79.3782 56.3171 79.293C52.453 79.1536 47.8702 78.5182 44.8562 81.5631C43.5115 82.919 45.629 85.0186 46.9428 83.655C48.2566 82.2913 50.3433 82.1054 52.2367 82.1054C54.3387 82.1054 56.433 82.2526 58.5273 82.3301C62.0205 82.4541 66.441 83.2676 69.4936 81.1059C69.6207 81.0125 69.7327 80.9002 69.8259 80.7728C70.0876 80.7281 70.3312 80.6095 70.5283 80.4312C70.7254 80.2528 70.8677 80.022 70.9388 79.7655C71.041 79.3854 70.9896 78.9803 70.7957 78.638C70.6018 78.2956 70.2811 78.0439 69.9032 77.9371C67.328 77.4523 64.8856 76.422 62.7392 74.9153C63.2879 74.7294 63.8289 74.5202 64.3853 74.3187C64.7022 74.2025 65.0267 74.1019 65.3513 74.0167C65.6036 73.9455 65.8626 73.9012 66.1241 73.8848C66.4974 73.8654 66.8714 73.8654 67.2447 73.8848L67.8862 73.9236H68.0562C68.2645 74.047 68.502 74.112 68.744 74.112C68.9859 74.112 69.2235 74.047 69.4318 73.9236C69.785 73.6888 70.032 73.3243 70.1196 72.9086C70.3756 72.8144 70.6023 72.6542 70.7765 72.4438C70.9542 72.2346 71.1165 72.0176 71.2865 71.8084L72.3299 70.5146C72.6006 70.2332 72.7552 69.8595 72.7626 69.4686C72.7651 69.1222 72.6597 68.7836 72.4612 68.5001Z"
    fill="#5C3210" />
  <path
    d="M66.5106 62.0142C66.7021 61.9746 66.8829 61.8937 67.0403 61.7774C67.1977 61.661 67.3281 61.5118 67.4225 61.34C68.6982 59.1981 69.5534 56.8311 69.9419 54.3669C70.3051 51.9883 70.5601 48.9821 69.4472 46.7662C68.9878 45.8841 68.2404 45.1868 67.3297 44.7907C67.3297 44.6745 67.3916 44.5503 67.4302 44.4419V44.3723L67.5384 44.1631C67.6234 44.0236 67.7084 43.8841 67.8011 43.7524C68.1953 43.1713 68.6513 42.6213 69.0763 42.0634C69.1295 41.9747 69.1644 41.8761 69.179 41.7736C69.1936 41.6712 69.1876 41.5669 69.1613 41.4668C69.1013 41.2746 68.9754 41.1098 68.8058 41.0019C68.7168 40.9498 68.6183 40.9162 68.5161 40.9029C68.4139 40.8896 68.3101 40.897 68.2108 40.9245C68.0217 40.9896 67.8589 41.1147 67.747 41.2809C67.3065 41.8542 66.8352 42.4198 66.4256 43.0164C66.2232 43.3252 66.0548 43.6552 65.9232 44.0004C65.8775 44.1325 65.8388 44.267 65.8073 44.4033C65.1008 44.3158 64.3836 44.4062 63.7207 44.6666C63.5584 44.7286 63.4039 44.8061 63.2493 44.8836C63.2493 44.8061 63.2029 44.7286 63.1875 44.6511C63.172 44.5736 63.1875 44.473 63.1334 44.38C63.0793 44.287 63.1334 44.2559 63.1334 44.2404C63.1218 44.0727 63.1218 43.9045 63.1334 43.7369V43.5975L63.1797 43.3728C63.2184 43.21 63.2647 43.0472 63.3111 42.8845C63.4038 42.5514 63.512 42.2184 63.6202 41.893C63.6472 41.7948 63.6546 41.6921 63.642 41.5911C63.6294 41.49 63.597 41.3925 63.5468 41.3039C63.4966 41.2154 63.4294 41.1377 63.3492 41.0753C63.269 41.0128 63.1772 40.9669 63.0793 40.94C62.8825 40.8851 62.6721 40.9104 62.494 41.0106C62.3159 41.1107 62.1845 41.2776 62.1287 41.4746C61.8567 42.2078 61.6674 42.9692 61.5645 43.7446C61.5304 44.441 61.6382 45.1369 61.8814 45.79C61.4718 46.1077 61.1086 46.4486 60.7067 46.7817C60.4903 46.9754 60.2894 47.1847 60.0885 47.3861C59.8919 46.9436 59.7342 46.4847 59.6171 46.0147C59.4239 45.2399 59.3002 44.4653 59.1765 43.6362C59.1497 43.538 59.1038 43.446 59.0415 43.3656C58.9792 43.2851 58.9017 43.2179 58.8134 43.1675C58.7251 43.1171 58.6278 43.0846 58.527 43.072C58.4262 43.0594 58.3239 43.0667 58.226 43.0937C58.128 43.1206 58.0363 43.1667 57.9561 43.2292C57.8758 43.2917 57.8087 43.3694 57.7584 43.4579C57.7082 43.5464 57.6758 43.644 57.6632 43.745C57.6506 43.8461 57.6581 43.9485 57.685 44.0467C57.8423 45.6148 58.2711 47.1435 58.9524 48.5638C58.7592 48.7807 58.5583 48.9978 58.3651 49.2302C56.6702 51.2985 55.3232 53.6302 54.3774 56.1335C54.3082 56.3583 54.3004 56.5976 54.3548 56.8266C54.4092 57.0555 54.5237 57.2656 54.6865 57.4351C53.45 57.59 52.2599 58.0782 51.0156 58.0627C49.1068 58.0627 49.1068 61.0069 51.0156 61.0224C52.2996 60.9267 53.5723 60.714 54.8179 60.3871C55.959 60.2527 57.114 60.297 58.2414 60.5187C60.6477 60.842 63.0163 61.4027 65.3127 62.1924C65.5115 62.2645 65.725 62.2861 65.9341 62.255C66.1432 62.2239 66.3413 62.1411 66.5106 62.0142Z"
    fill="#5C3210" />
  <path
    d="M88.9208 54.5989C88.8696 54.5108 88.8017 54.4337 88.7207 54.3719C88.6398 54.3102 88.5475 54.2651 88.4491 54.2392C88.3508 54.2132 88.2483 54.2071 88.1475 54.221C88.0468 54.2349 87.9498 54.2684 87.862 54.3199L87.7847 54.3665L87.6147 54.413H87.3983H87.3519C87.0197 54.4442 86.6912 54.5065 86.3705 54.5989C86.2314 54.6454 86.0845 54.6996 85.9454 54.7306L85.7522 54.7771H85.6208C85.4749 54.8001 85.3263 54.8001 85.1803 54.7771C85.0876 54.7771 85.0026 54.7771 84.9176 54.7771C84.7848 54.5064 84.6297 54.2472 84.4539 54.0023C84.8342 53.8647 85.1993 53.6882 85.5436 53.4755C85.845 53.2973 86.1386 53.0959 86.4246 52.8867C86.7991 52.6494 87.1138 52.3286 87.3442 51.9492C87.4078 51.8615 87.4523 51.7615 87.4749 51.6555C87.4975 51.5494 87.4977 51.4398 87.4754 51.3337C87.4531 51.2276 87.4089 51.1274 87.3455 51.0396C87.2822 50.9517 87.2011 50.8782 87.1076 50.8237C87.0142 50.7693 86.9103 50.735 86.8028 50.7233C86.6953 50.7116 86.5865 50.7226 86.4835 50.7556C86.3806 50.7887 86.2857 50.843 86.205 50.9151C86.1242 50.9872 86.0595 51.0756 86.015 51.1744L85.9686 51.2518C85.9686 51.2518 85.8604 51.3759 85.8372 51.3992L85.7522 51.4765L85.6827 51.5308L85.5977 51.6004C85.3272 51.7864 85.0567 51.9725 84.7785 52.1429C84.6394 52.2204 84.5003 52.3055 84.3534 52.3752C84.3001 52.4098 84.243 52.4385 84.1834 52.4605L84.0752 52.507C83.9189 52.5627 83.7588 52.6067 83.5961 52.6387H83.2483C83.177 52.6232 83.1032 52.6232 83.0319 52.6387C82.9941 52.6182 82.958 52.5949 82.9237 52.5689C82.0405 52.1055 81.0197 51.9789 80.0506 52.2125C79.0814 52.4462 78.2295 53.0244 77.6531 53.8397C77.0594 54.7357 76.53 55.6729 76.0688 56.6443C75.4828 57.6915 74.8052 58.6846 74.0441 59.6118C73.7836 59.9279 73.6414 60.3252 73.6422 60.7352H73.5958C73.4584 60.8723 73.3494 61.0354 73.2751 61.2149C73.2008 61.3944 73.1627 61.5869 73.163 61.7812C73.1785 62.1568 73.3233 62.5155 73.5727 62.7963L73.4567 62.6489C73.9537 63.4825 74.4027 64.344 74.8014 65.229C75.2109 65.8852 75.7344 66.4625 76.347 66.9335C76.2503 67.1607 76.2092 67.408 76.2271 67.6544C76.2451 67.9008 76.3215 68.1393 76.4501 68.3501C76.5786 68.5609 76.7556 68.7378 76.9662 68.8661C77.1768 68.9944 77.415 69.0702 77.6608 69.0874C77.5587 69.2149 77.4849 69.3629 77.4445 69.5214C77.3363 70.0095 77.2126 70.5053 77.0735 70.9934C77.0039 71.2181 76.9267 71.4506 76.8417 71.683C76.8417 71.7683 76.7798 71.8534 76.7412 71.9464L76.6407 72.1711C76.5397 72.3867 76.4261 72.5963 76.3007 72.7987C76.2536 72.8791 76.202 72.9567 76.1461 73.0312C76.1068 73.0962 76.0629 73.1583 76.0147 73.2171L76.1075 73.1008C76.1075 73.2402 75.752 73.5038 75.6515 73.5967L75.4429 73.7904L74.9173 74.108L74.6546 74.1856C74.585 74.1856 74.2604 74.3406 74.4768 74.2399C74.6932 74.1392 74.4768 74.2399 74.3764 74.2399C74.2759 74.2399 74.1755 74.2399 74.0673 74.2399C73.9024 74.2037 73.7401 74.1571 73.5804 74.1003H73.534L73.3176 73.9764C73.3176 73.9764 73.1863 73.8369 73.1399 73.7982V73.7517C73.0858 73.6742 72.9621 73.3875 73.1399 73.7517C73.0224 73.387 72.7819 73.0748 72.4598 72.8685C72.206 72.7158 71.9123 72.6431 71.6168 72.6599C71.3213 72.6766 71.0377 72.7821 70.8027 72.9625C70.5677 73.1429 70.3923 73.39 70.2992 73.6717C70.206 73.9533 70.1995 74.2565 70.2805 74.542C70.4252 74.8835 70.6066 75.2083 70.8214 75.5104C70.3771 75.8668 69.8412 76.0898 69.2758 76.1536C68.4332 76.1079 67.6362 75.7552 67.0346 75.1618C67.0014 75.1421 66.9646 75.1289 66.9264 75.1231C66.6755 74.8553 66.4914 74.5318 66.3893 74.179C66.2872 73.8261 66.27 73.454 66.3391 73.0932C66.3668 72.9905 66.3526 72.8807 66.2997 72.7885C66.2468 72.6962 66.1595 72.629 66.057 72.6012C65.9545 72.5735 65.8453 72.5875 65.7532 72.6406C65.6612 72.6936 65.594 72.7813 65.5663 72.884C65.5025 73.137 65.4815 73.3989 65.5045 73.6588C64.6627 73.8192 63.8429 74.0793 63.0623 74.4336C62.9982 74.4737 62.947 74.5314 62.9147 74.5998C62.8825 74.6683 62.8705 74.7447 62.8803 74.8198C62.89 74.8949 62.9212 74.9657 62.9699 75.0236C63.0186 75.0814 63.0829 75.124 63.1551 75.1463C63.577 75.2386 64.0064 75.293 64.438 75.309C64.353 75.402 64.2679 75.5028 64.1907 75.6035C63.9588 75.9057 64.3375 76.2311 64.6234 76.1769C64.9094 76.1226 65.2494 76.0296 65.5663 75.9599C65.4758 76.1337 65.4008 76.3152 65.3422 76.5022C65.3268 76.5594 65.3247 76.6194 65.3361 76.6776C65.3475 76.7357 65.3721 76.7906 65.4079 76.8378C65.4437 76.8849 65.4899 76.9231 65.5428 76.9496C65.5957 76.976 65.654 76.9899 65.7131 76.9902C65.9183 76.9931 66.1232 76.9724 66.3236 76.9284C66.3381 77.1124 66.3927 77.2909 66.4835 77.4516C66.5742 77.6122 66.6991 77.751 66.8492 77.8581C66.9766 77.9093 67.1154 77.9256 67.2513 77.9052C67.3871 77.8848 67.5151 77.8284 67.622 77.7419L68.2479 77.4009C68.9487 77.8544 69.7151 78.1968 70.52 78.4159C70.4881 78.4673 70.4695 78.5259 70.4659 78.5863C70.4679 78.6885 70.5093 78.7859 70.5813 78.8582C70.6533 78.9304 70.7505 78.9717 70.8523 78.9737C71.4791 79.0165 72.1052 78.8825 72.6598 78.5867C73.2144 78.2909 73.6752 77.8452 73.99 77.3003C74.938 77.3573 75.8824 77.1393 76.7103 76.6726C79.0287 75.3942 79.9484 72.7988 80.5125 70.3504C80.5987 69.9721 80.5401 69.575 80.3484 69.2378C80.1566 68.9007 79.8457 68.6479 79.477 68.5296C79.3334 68.5101 79.1878 68.5101 79.0442 68.5296C80.499 66.9734 81.8395 65.3137 83.0551 63.5633C84.0672 62.1433 84.8111 60.5492 85.2499 58.8603C85.9763 58.899 86.7105 58.9687 87.437 59.0617H87.3365C87.5376 59.1107 87.7496 59.0831 87.9315 58.9842C88.1025 58.8777 88.2289 58.7126 88.2871 58.5194C88.3359 58.4729 88.3719 58.4146 88.3919 58.3501C88.4119 58.2856 88.4151 58.2172 88.4011 58.1511C88.3872 58.0851 88.3566 58.0238 88.3122 57.9729C88.2679 57.9221 88.2114 57.8834 88.1479 57.8608C88.0542 57.72 87.9105 57.6204 87.7461 57.5819C86.9733 57.4812 86.2004 57.4037 85.4276 57.3572C85.4301 57.0591 85.4095 56.761 85.3658 56.4661C85.842 56.4438 86.3128 56.3552 86.7646 56.2028C86.9041 56.1585 87.046 56.1222 87.1897 56.0942H87.2669H87.4988C87.8876 56.061 88.2659 55.9504 88.6116 55.7689C88.7177 55.722 88.8119 55.6516 88.8872 55.5633C88.9625 55.4749 89.0171 55.3707 89.0468 55.2583C89.0764 55.146 89.0805 55.0284 89.0587 54.9143C89.0369 54.8001 88.9898 54.6923 88.9208 54.5989Z"
    fill="#5C3210" />
  <path
    d="M58.7051 57.0872C58.8215 56.9392 58.9152 56.7748 58.9833 56.5992C59.8097 54.4282 61.0017 52.4154 62.5073 50.6487C63.2654 49.7582 64.0951 48.9316 64.9881 48.1771C65.645 47.6193 66.4332 46.9065 67.3065 47.015C68.2803 47.1389 68.6821 47.9215 68.8522 48.8203C68.9337 49.3486 68.9801 49.8819 68.9913 50.4164C68.1653 50.4626 67.3574 50.6774 66.6172 51.0478C65.877 51.4182 65.2201 51.9361 64.6867 52.5701C63.5861 53.9199 62.579 55.3436 61.6727 56.8314C61.5569 57.0207 61.4929 57.2372 61.4872 57.4591L60.5212 57.3041C59.8797 57.2112 59.2924 57.1337 58.7051 57.0872Z"
    fill="#F4EADB" />
  <path
    d="M80.2345 60.4572C80.0095 60.321 79.7643 60.2215 79.5081 60.1627C79.1295 60.0865 78.739 60.0928 78.363 60.181C77.987 60.2692 77.6343 60.4375 77.3287 60.6742C76.6486 61.17 75.9995 61.7046 75.3658 62.2237C75.2653 62.03 75.1726 61.8208 75.0566 61.6349C75.7814 60.7526 76.4475 59.8234 77.0505 58.8533C77.5683 58.0011 77.9701 57.1024 78.4647 56.2424C78.7739 55.6845 79.1835 55.0646 79.8095 55.1033C80.0903 55.1369 80.3578 55.2423 80.5864 55.4092C80.8151 55.576 80.9973 55.7987 81.1155 56.0563C81.7802 57.5361 81.046 59.1323 80.2345 60.4572Z"
    fill="#F4EADB" />
  <path
    d="M32.2513 93.4625C26.6591 93.7424 21.0716 92.8259 15.8599 90.774C15.8599 90.6655 15.8599 90.5649 15.9063 90.4564C15.1717 90.1277 14.3886 89.9209 13.5878 89.8443C9.16734 88.0855 4.23678 84.9321 4.31406 79.7721C4.31406 78.2225 4.51499 76.6341 4.49953 75.0613C4.47536 73.3075 4.33076 71.5575 4.06675 69.8237C3.85809 68.4136 3.61851 67.0579 4.15175 65.6942C4.6229 64.6613 5.02311 63.5973 5.34961 62.5098C14.0824 62.9746 22.7766 63.8295 31.4321 65.0744C31.4321 65.2061 31.4321 65.3455 31.494 65.4773C31.5765 65.9051 31.6954 66.3249 31.8495 66.7323C31.9499 66.6626 32.0658 66.6006 32.1663 66.5231L34.4848 70.9704C35.5512 73.0391 36.9501 75.1544 37.7461 77.3471C38.5421 79.5397 36.0536 81.4999 34.8016 82.941L30.0952 88.3645C29.3224 89.2555 29.7706 90.9911 31.1462 90.8981C35.5235 90.613 39.8525 89.8147 44.0445 88.5194C41.2005 91.8433 36.5173 93.2146 32.2513 93.4625Z"
    fill="#1C4294" />
  <path
    d="M22.529 67.0737L21.3775 66.9961C21.3157 66.9961 21.3002 66.996 21.277 66.9341C21.2688 66.8889 21.2559 66.8448 21.2384 66.8024L21.1456 66.5234L20.9679 65.9733C20.9679 65.9733 20.8906 65.9191 20.8674 65.9733C20.7979 66.1438 20.7283 66.3066 20.6665 66.4848L20.5738 66.7481C20.5562 66.8381 20.5304 66.9264 20.4965 67.0116C20.4965 67.0581 20.4269 67.0116 20.3806 67.0116H19.9478C19.7599 67.0001 19.5715 67.0001 19.3836 67.0116C19.3756 67.0164 19.369 67.0231 19.3644 67.0313C19.3598 67.0394 19.3574 67.0488 19.3574 67.0581C19.3574 67.0675 19.3598 67.0767 19.3644 67.0848C19.369 67.093 19.3756 67.0997 19.3836 67.1045L20.2878 67.7786C20.2878 67.7786 20.3265 67.7787 20.3342 67.8329C20.3419 67.8872 20.3342 67.8793 20.3342 67.9103L20.2801 68.0344L20.1642 68.2899L19.9401 68.8169C19.9401 68.8712 19.9401 68.9175 20.0174 68.8788C20.3164 68.6216 20.6313 68.3836 20.9602 68.166L21.8489 68.8478C21.8876 68.8478 21.9339 68.8479 21.9262 68.7859C21.9021 68.608 21.8659 68.4319 21.818 68.2589C21.818 68.1737 21.7639 68.0808 21.733 67.9956C21.7374 67.9596 21.7374 67.9231 21.733 67.887C21.733 67.887 21.6789 67.7864 21.6866 67.7631C21.6944 67.7399 21.7871 67.6933 21.8026 67.6856L21.9185 67.6082L22.158 67.4533L22.6449 67.1278C22.5985 67.1432 22.5831 67.0814 22.529 67.0737Z"
    fill="#FDD821" />
  <path
    d="M27.9157 68.5696L26.7642 68.4998C26.7102 68.4998 26.687 68.4999 26.6715 68.4302L26.6251 68.2984L26.5324 68.0273L26.3546 67.4772C26.3546 67.4772 26.2774 67.423 26.2619 67.4772C26.1846 67.6477 26.1151 67.8181 26.0533 67.9885C26.0533 68.0737 25.9914 68.1668 25.9682 68.252C25.945 68.3372 25.9219 68.4379 25.8832 68.5231C25.8446 68.6083 25.8137 68.5231 25.775 68.5231H25.3345C25.149 68.5231 24.9558 68.5231 24.7704 68.5231C24.7624 68.5279 24.7558 68.5348 24.7512 68.5429C24.7466 68.5511 24.7441 68.5603 24.7441 68.5696C24.7441 68.579 24.7466 68.5881 24.7512 68.5963C24.7558 68.6044 24.7624 68.6113 24.7704 68.6161L25.6745 69.2901C25.6745 69.2901 25.7209 69.2902 25.7209 69.3444C25.726 69.3567 25.7287 69.3699 25.7287 69.3832C25.7287 69.3965 25.726 69.4095 25.7209 69.4218L25.6669 69.5458L25.5587 69.8016L25.3268 70.3361C25.3241 70.3463 25.3244 70.357 25.3277 70.367C25.331 70.377 25.3371 70.3858 25.3453 70.3923C25.3535 70.3989 25.3634 70.4028 25.3738 70.4039C25.3843 70.4049 25.3948 70.4029 25.4041 70.398C25.7045 70.1402 26.0193 69.8996 26.3469 69.6775L27.2357 70.3594C27.282 70.3594 27.3207 70.3594 27.313 70.3051C27.2888 70.1247 27.2527 69.9462 27.2048 69.7706C27.2048 69.6853 27.1584 69.6 27.1275 69.5071L27.0811 69.3987C27.0811 69.3987 27.027 69.2978 27.0347 69.2746C27.0424 69.2514 27.1352 69.205 27.1507 69.1972L27.2743 69.1197L27.5062 68.9648L28.0007 68.647C28.011 68.6357 28.0164 68.6208 28.0156 68.6056C28.0149 68.5903 28.0081 68.5759 27.9969 68.5656C27.9856 68.5554 27.9707 68.5502 27.9555 68.5509C27.9403 68.5516 27.926 68.5583 27.9157 68.5696Z"
    fill="#FDD821" />
  <path
    d="M31.6638 72.4282L30.5123 72.3507C30.4582 72.3507 30.435 72.3508 30.4196 72.281L30.3732 72.1492L30.2805 71.8781L30.1027 71.3281C30.1027 71.2893 30.0254 71.2738 30.01 71.3281C29.9327 71.4985 29.8631 71.6689 29.8013 71.8394C29.8013 71.9246 29.7395 72.0176 29.7163 72.1029C29.6931 72.1881 29.67 72.2887 29.6313 72.3739C29.5927 72.4591 29.5618 72.3739 29.5231 72.3739H29.0903H28.5185C28.5105 72.3787 28.5038 72.3856 28.4992 72.3938C28.4946 72.4019 28.4922 72.4111 28.4922 72.4205C28.4922 72.4298 28.4946 72.439 28.4992 72.4471C28.5038 72.4553 28.5105 72.4622 28.5185 72.467L29.4226 73.1409C29.4226 73.1409 29.469 73.141 29.469 73.1952C29.4741 73.2075 29.4767 73.2207 29.4767 73.234C29.4767 73.2473 29.4741 73.2605 29.469 73.2728L29.4149 73.3967L29.3067 73.6524L29.0749 74.187C29.0749 74.2412 29.0748 74.2878 29.1521 74.249C29.4535 73.9933 29.7704 73.753 30.095 73.5283C30.3887 73.7608 30.69 73.9856 30.9914 74.2103C30.9914 74.2103 31.0687 74.2102 31.061 74.156C31.0361 73.9757 31 73.7972 30.9528 73.6214C30.9528 73.5362 30.9064 73.4509 30.8755 73.3657L30.8292 73.2495C30.8292 73.2495 30.7751 73.1487 30.7828 73.1254C30.7905 73.1022 30.8832 73.0636 30.8987 73.0481L31.0224 72.9705L31.2542 72.8156L31.7488 72.498C31.758 72.4867 31.7624 72.4721 31.7609 72.4575C31.7595 72.443 31.7524 72.4297 31.7411 72.4205C31.7355 72.4159 31.7291 72.4125 31.7222 72.4104C31.7153 72.4083 31.708 72.4076 31.7008 72.4083C31.6864 72.4098 31.673 72.4169 31.6638 72.4282Z"
    fill="#FDD821" />
  <path
    d="M33.0935 77.6646L31.942 77.5948C31.8879 77.5948 31.8647 77.5949 31.8492 77.5252L31.8029 77.3933L31.7101 77.1223L31.5324 76.5722C31.5324 76.5335 31.4551 76.518 31.4396 76.5722C31.3624 76.7427 31.2928 76.9131 31.231 77.0835C31.231 77.1687 31.1691 77.2618 31.146 77.347C31.1228 77.4322 31.0996 77.5328 31.061 77.6181C31.0223 77.7033 30.9914 77.6181 30.9528 77.6181H30.5122C30.3268 77.6181 30.1336 77.6181 29.9481 77.6181C29.9401 77.6229 29.9335 77.6298 29.9289 77.6379C29.9243 77.6461 29.9219 77.6552 29.9219 77.6646C29.9219 77.674 29.9243 77.6831 29.9289 77.6913C29.9335 77.6994 29.9401 77.7063 29.9481 77.7111L30.8523 78.3851C30.8523 78.3851 30.8987 78.3852 30.8987 78.4394C30.9038 78.4517 30.9064 78.4649 30.9064 78.4782C30.9064 78.4915 30.9038 78.5047 30.8987 78.5169L30.8445 78.6408L30.7364 78.8966L30.5045 79.4311C30.5018 79.4413 30.5022 79.452 30.5055 79.462C30.5087 79.472 30.5149 79.4808 30.523 79.4873C30.5312 79.4939 30.5411 79.498 30.5516 79.499C30.562 79.5001 30.5725 79.4978 30.5818 79.493C30.8823 79.2352 31.197 78.9946 31.5246 78.7725L32.4134 79.4544C32.4598 79.4544 32.4984 79.4544 32.4907 79.4001C32.4658 79.2198 32.4297 79.0413 32.3825 78.8656C32.3825 78.7803 32.3361 78.695 32.3052 78.6021L32.2588 78.4937C32.2588 78.4937 32.2047 78.3928 32.2125 78.3696C32.2202 78.3463 32.3129 78.3 32.3284 78.2922L32.452 78.2147L32.6839 78.0597L33.1785 77.7422C33.1887 77.7309 33.1941 77.7158 33.1933 77.7005C33.1926 77.6853 33.1859 77.6709 33.1746 77.6606C33.1633 77.6504 33.1485 77.6451 33.1332 77.6459C33.118 77.6466 33.1037 77.6533 33.0935 77.6646Z"
    fill="#FDD821" />
  <path
    d="M31.7094 83.0493L30.558 82.9719C30.5039 82.9719 30.4807 82.9719 30.4652 82.9021L30.4189 82.7705L30.3261 82.4992L30.1484 81.9492C30.1484 81.9104 30.0711 81.8949 30.0557 81.9492C29.9784 82.1196 29.9088 82.29 29.847 82.4605C29.847 82.5457 29.7852 82.6387 29.762 82.724C29.7388 82.8092 29.7156 82.9098 29.677 82.995C29.6383 83.0802 29.6074 82.995 29.5688 82.995H29.136H28.5641C28.51 82.995 28.4946 83.0571 28.5641 83.0881L29.4606 83.762C29.4606 83.762 29.5069 83.7621 29.5069 83.8163C29.5125 83.8285 29.5154 83.8417 29.5154 83.8551C29.5154 83.8685 29.5125 83.8817 29.5069 83.8939L29.4528 84.0255L29.3446 84.2735L29.1128 84.8081C29.1128 84.8623 29.1128 84.9089 29.1901 84.8701C29.4915 84.6144 29.8083 84.3741 30.1329 84.1494C30.4266 84.3819 30.728 84.6067 31.0294 84.8314C31.068 84.8314 31.1067 84.8313 31.0989 84.7771C31.0785 84.5986 31.0423 84.4223 30.9907 84.2503C30.9696 84.1612 30.9438 84.0732 30.9135 83.9868L30.8671 83.8706C30.8671 83.8706 30.813 83.77 30.8207 83.7467C30.8285 83.7235 30.9212 83.6847 30.9366 83.6692L31.0603 83.5916L31.2921 83.4367L31.7867 83.1191C31.7919 83.1085 31.7934 83.0964 31.7912 83.0849C31.7889 83.0733 31.783 83.0629 31.7743 83.055C31.7656 83.0471 31.7545 83.0424 31.7428 83.0414C31.7311 83.0403 31.7194 83.0431 31.7094 83.0493Z"
    fill="#FDD821" />
  <path
    d="M27.9157 86.9009L26.7642 86.8235C26.7101 86.8235 26.6869 86.8234 26.6715 86.7537L26.6251 86.622L26.5324 86.3508L26.3546 85.8007C26.3546 85.762 26.2773 85.7465 26.2619 85.8007C26.2464 85.855 26.1151 86.1338 26.0532 86.3043C25.9914 86.4747 25.9914 86.4825 25.9682 86.5678C25.9445 86.6595 25.9161 86.7501 25.8832 86.839C25.8832 86.8855 25.8136 86.839 25.775 86.839H25.3345C25.149 86.839 24.9558 86.839 24.7703 86.839C24.7603 86.843 24.7517 86.8499 24.7456 86.8589C24.7396 86.8678 24.7363 86.8785 24.7363 86.8893C24.7363 86.9002 24.7396 86.9108 24.7456 86.9198C24.7517 86.9288 24.7603 86.9356 24.7703 86.9396L25.6745 87.6138C25.6745 87.6138 25.7209 87.6137 25.7209 87.6601C25.7264 87.6723 25.7293 87.6855 25.7293 87.6989C25.7293 87.7123 25.7264 87.7255 25.7209 87.7377L25.6668 87.8693L25.5586 88.1173L25.3268 88.6519C25.3268 88.7061 25.3268 88.7527 25.4041 88.7139C25.7046 88.4586 26.0194 88.2207 26.3469 88.0012L27.2356 88.6752C27.2428 88.6854 27.2538 88.6925 27.2661 88.6946C27.2784 88.6968 27.2911 88.6941 27.3013 88.6869C27.3116 88.6797 27.3185 88.6686 27.3207 88.6562C27.3229 88.6439 27.3201 88.6311 27.3129 88.6209C27.2888 88.443 27.2526 88.267 27.2047 88.0941C27.1836 88.005 27.1578 87.917 27.1274 87.8306L27.081 87.7144C27.081 87.7144 27.027 87.6215 27.0347 87.5905C27.0424 87.5595 27.1352 87.5285 27.1506 87.513L27.2743 87.4354L27.5061 87.2883L28.0007 86.9629C28.0053 86.9517 28.006 86.9392 28.0027 86.9275C27.9994 86.9158 27.9923 86.9056 27.9825 86.8984C27.9727 86.8913 27.9608 86.8876 27.9487 86.888C27.9366 86.8885 27.9249 86.893 27.9157 86.9009Z"
    fill="#FDD821" />
  <path
    d="M22.475 88.3032L21.3236 88.2257C21.2617 88.2257 21.2463 88.2258 21.2231 88.156L21.1767 88.0242L21.0917 87.7531L20.9062 87.2031C20.9062 87.1643 20.8289 87.1488 20.8135 87.2031C20.7439 87.3735 20.6744 87.5439 20.6125 87.7144L20.5198 87.9779C20.5198 88.0631 20.4734 88.1637 20.4425 88.2489C20.4116 88.3341 20.3652 88.2489 20.3266 88.2489H19.8938H19.3219C19.2678 88.2489 19.2524 88.311 19.3219 88.342L20.2261 89.0159C20.2261 89.0159 20.2261 89.016 20.2725 89.0702C20.277 89.0959 20.277 89.1222 20.2725 89.1478L20.2107 89.2794L20.1025 89.5274L19.8707 90.062C19.8707 90.1162 19.8706 90.1628 19.9479 90.124C20.2493 89.8683 20.5661 89.628 20.8907 89.4033L21.7872 90.0853C21.7872 90.0853 21.8645 90.0852 21.8645 90.031C21.8645 89.8528 21.8027 89.6746 21.7563 89.5042C21.71 89.3337 21.7022 89.3259 21.6713 89.2407C21.668 89.202 21.668 89.1632 21.6713 89.1245C21.6469 89.0863 21.6286 89.0443 21.6172 89.0004C21.6172 89.0004 21.7177 88.9386 21.7409 88.9231L21.8568 88.8455L22.0886 88.6906L22.5832 88.373C22.5924 88.3586 22.5956 88.3411 22.592 88.3244C22.5884 88.3077 22.5783 88.2932 22.5639 88.2839C22.5496 88.2747 22.5321 88.2714 22.5155 88.275C22.4988 88.2787 22.4843 88.2888 22.475 88.3032Z"
    fill="#FDD821" />
  <path
    d="M17.197 86.9009L16.0455 86.8235C15.9914 86.8235 15.9682 86.8234 15.9527 86.7537L15.9064 86.622L15.8213 86.3508L15.6359 85.8007C15.6359 85.762 15.5586 85.7465 15.5431 85.8007C15.5277 85.855 15.404 86.1338 15.3422 86.3043L15.2494 86.5678C15.2257 86.6595 15.1974 86.7501 15.1644 86.839C15.1644 86.8855 15.0949 86.839 15.0562 86.839H14.6235C14.4303 86.839 14.2448 86.839 14.0516 86.839C14.0415 86.843 14.0329 86.8499 14.0269 86.8589C14.0208 86.8678 14.0176 86.8785 14.0176 86.8893C14.0176 86.9002 14.0208 86.9108 14.0269 86.9198C14.0329 86.9288 14.0415 86.9356 14.0516 86.9396L14.9481 87.6138C14.9481 87.6138 14.9944 87.6137 15.0021 87.6601C15.0094 87.6854 15.0094 87.7124 15.0021 87.7377L14.9481 87.8693L14.8399 88.1173L14.608 88.6519C14.608 88.7061 14.608 88.7527 14.6853 88.7139C14.9858 88.4586 15.3006 88.2207 15.6281 88.0012L16.5246 88.6752C16.5246 88.6752 16.6019 88.6751 16.5941 88.6209C16.5726 88.4432 16.5391 88.2672 16.4937 88.0941C16.4937 88.0011 16.4396 87.9158 16.4087 87.8306L16.3623 87.7144C16.3623 87.7144 16.3082 87.6215 16.3159 87.5905C16.3549 87.5613 16.3963 87.5353 16.4396 87.513L16.5555 87.4354L16.7873 87.2883L17.282 86.9629C17.2866 86.9517 17.2873 86.9392 17.284 86.9275C17.2807 86.9158 17.2735 86.9056 17.2637 86.8984C17.2539 86.8913 17.242 86.8876 17.2299 86.888C17.2178 86.8885 17.2062 86.893 17.197 86.9009Z"
    fill="#FDD821" />
  <path
    d="M13.3786 83.0493L12.2271 82.9719C12.173 82.9719 12.1499 82.9719 12.1344 82.9021L12.088 82.7705L11.9953 82.4992L11.8175 81.9492C11.8175 81.9104 11.7402 81.8949 11.7248 81.9492C11.6475 82.1196 11.578 82.29 11.5162 82.4605C11.5162 82.5457 11.4543 82.6387 11.4311 82.724C11.4079 82.8092 11.3848 82.9098 11.3461 82.995C11.3075 83.0802 11.2765 82.995 11.2379 82.995H10.8051H10.2333C10.2253 82.9998 10.2187 83.0067 10.2141 83.0149C10.2095 83.023 10.207 83.0322 10.207 83.0415C10.207 83.0509 10.2095 83.0601 10.2141 83.0682C10.2187 83.0764 10.2253 83.0833 10.2333 83.0881L11.1374 83.762C11.1374 83.762 11.1838 83.7621 11.1838 83.8163C11.1894 83.8285 11.1922 83.8417 11.1922 83.8551C11.1922 83.8685 11.1894 83.8817 11.1838 83.8939L11.1297 84.0255L11.0215 84.2735L10.7897 84.8081C10.7897 84.8623 10.7897 84.9089 10.867 84.8701C11.1684 84.6144 11.4852 84.3741 11.8098 84.1494C12.1035 84.3819 12.4049 84.6067 12.7063 84.8314C12.7449 84.8314 12.7835 84.8313 12.7758 84.7771C12.7554 84.5986 12.7192 84.4223 12.6676 84.2503C12.6465 84.1612 12.6207 84.0732 12.5903 83.9868L12.544 83.8706C12.544 83.8706 12.4899 83.77 12.4976 83.7467C12.5053 83.7235 12.5981 83.6847 12.6135 83.6692L12.7372 83.5916L12.969 83.4367L13.4636 83.1191C13.4728 83.1078 13.4772 83.0932 13.4758 83.0786C13.4743 83.0641 13.4672 83.0508 13.4559 83.0415C13.4446 83.0323 13.4301 83.028 13.4156 83.0294C13.4012 83.0309 13.3878 83.038 13.3786 83.0493Z"
    fill="#FDD821" />
  <path
    d="M11.9027 77.6646L10.7511 77.5948C10.697 77.5948 10.6739 77.5949 10.6584 77.5252L10.612 77.3933L10.5193 77.1223L10.3416 76.5722C10.3416 76.5335 10.2643 76.518 10.2488 76.5722C10.1716 76.7427 10.1097 76.9131 10.0402 77.0835C9.97061 77.254 9.98607 77.2618 9.95516 77.347C9.92425 77.4322 9.9088 77.5328 9.87016 77.6181C9.83152 77.7033 9.8006 77.6181 9.76196 77.6181H9.32918C9.13598 77.6181 8.94278 77.6181 8.7573 77.6181C8.74501 77.6181 8.73322 77.623 8.72452 77.6317C8.71583 77.6404 8.71094 77.6523 8.71094 77.6646C8.71094 77.6769 8.71583 77.6888 8.72452 77.6975C8.73322 77.7062 8.74501 77.7111 8.7573 77.7111L9.65375 78.3851C9.65375 78.3851 9.70012 78.3852 9.70012 78.4394C9.70522 78.4517 9.70785 78.4649 9.70785 78.4782C9.70785 78.4915 9.70522 78.5047 9.70012 78.5169L9.64602 78.6408L9.53786 78.8966L9.30597 79.4311C9.30329 79.4413 9.30363 79.452 9.30692 79.462C9.3102 79.472 9.31632 79.4808 9.32451 79.4873C9.3327 79.4939 9.34261 79.498 9.35305 79.499C9.36348 79.5001 9.37398 79.4978 9.38328 79.493C9.68374 79.2352 9.9985 78.9946 10.3261 78.7725L11.2226 79.4544C11.2612 79.4544 11.2998 79.4544 11.2921 79.4001C11.271 79.2192 11.2348 79.0404 11.1839 78.8656C11.1839 78.7803 11.1376 78.695 11.1066 78.6021L11.0603 78.4937C11.0603 78.4937 11.0062 78.3928 11.0139 78.3696C11.0216 78.3463 11.1144 78.3 11.1299 78.2922L11.2535 78.2147L11.4853 78.0597L11.9799 77.7422C11.9902 77.7319 11.9959 77.7179 11.9959 77.7034C11.9959 77.6888 11.9902 77.6749 11.9799 77.6646C11.9697 77.6543 11.9558 77.6485 11.9413 77.6485C11.9268 77.6485 11.9129 77.6543 11.9027 77.6646Z"
    fill="#FDD821" />
  <path
    d="M13.3786 72.289L12.2271 72.2115C12.173 72.2115 12.1499 72.2114 12.1344 72.1494L12.088 72.0178L11.9953 71.739L11.8175 71.1965C11.8175 71.1577 11.7402 71.1345 11.7248 71.1965C11.6475 71.3669 11.578 71.5297 11.5162 71.7079C11.4832 71.7942 11.4548 71.882 11.4311 71.9713C11.4074 72.0605 11.3791 72.1485 11.3461 72.2347C11.3461 72.2812 11.2765 72.2347 11.2379 72.2347H10.8051C10.6147 72.223 10.4237 72.223 10.2333 72.2347C10.2253 72.2396 10.2187 72.2465 10.2141 72.2546C10.2095 72.2628 10.207 72.2719 10.207 72.2813C10.207 72.2906 10.2095 72.2998 10.2141 72.308C10.2187 72.3161 10.2253 72.3228 10.2333 72.3276L11.1374 73.0018C11.1374 73.0018 11.1838 73.0018 11.1838 73.0561C11.1889 73.0683 11.1915 73.0815 11.1915 73.0948C11.1915 73.1081 11.1889 73.1212 11.1838 73.1334L11.1297 73.2575L11.0215 73.5131L10.7897 74.0401C10.7897 74.0943 10.7897 74.1407 10.867 74.1019C11.1684 73.8462 11.4852 73.6139 11.8098 73.3892L12.7063 74.0709C12.7449 74.0709 12.7835 74.071 12.7758 74.009C12.7546 73.8307 12.7185 73.6545 12.6676 73.4822C12.6676 73.397 12.6212 73.304 12.5903 73.2187L12.544 73.1102C12.544 73.1102 12.4899 73.0095 12.4976 72.9863C12.5053 72.963 12.5981 72.9165 12.6135 72.9087L12.7372 72.8313L12.969 72.6764L13.4636 72.3509C13.4682 72.3397 13.4689 72.3272 13.4656 72.3155C13.4623 72.3038 13.4552 72.2937 13.4454 72.2866C13.4356 72.2794 13.4237 72.2757 13.4116 72.2762C13.3995 72.2766 13.3879 72.2812 13.3786 72.289Z"
    fill="#FDD821" />
  <path
    d="M17.1956 68.5696L16.0442 68.4998C15.9901 68.4998 15.9669 68.4999 15.9514 68.4302L15.9051 68.2984L15.82 68.0273L15.6345 67.4772C15.6345 67.4772 15.5573 67.423 15.5418 67.4772C15.4645 67.6477 15.4027 67.8181 15.3409 67.9885L15.2481 68.252C15.2481 68.3372 15.2018 68.4379 15.1631 68.5231C15.1245 68.6083 15.0936 68.5231 15.0549 68.5231H14.6221C14.4289 68.5231 14.2435 68.5231 14.0503 68.5231C14.038 68.5231 14.0262 68.528 14.0175 68.5367C14.0088 68.5454 14.0039 68.5573 14.0039 68.5696C14.0039 68.5819 14.0088 68.5938 14.0175 68.6025C14.0262 68.6112 14.038 68.6161 14.0503 68.6161L14.9468 69.2901C14.9468 69.2901 14.9931 69.2902 15.0008 69.3444C15.007 69.3698 15.007 69.3963 15.0008 69.4218L14.9468 69.5458L14.8386 69.8016L14.6067 70.3361C14.604 70.3463 14.6043 70.357 14.6076 70.367C14.6109 70.377 14.617 70.3858 14.6252 70.3923C14.6334 70.3989 14.6433 70.4028 14.6538 70.4039C14.6642 70.4049 14.6747 70.4029 14.684 70.398C14.9844 70.1402 15.2992 69.8996 15.6268 69.6775L16.5233 70.3594C16.5233 70.3594 16.6005 70.3594 16.5928 70.3051C16.5713 70.1249 16.5377 69.9463 16.4924 69.7706C16.4924 69.6853 16.4383 69.6 16.4074 69.5071L16.361 69.3987C16.361 69.3987 16.3069 69.2978 16.3146 69.2746C16.3223 69.2514 16.4151 69.205 16.4383 69.1972L16.5542 69.1197L16.786 68.9648L17.2806 68.647C17.2909 68.6357 17.2963 68.6208 17.2955 68.6056C17.2948 68.5903 17.288 68.5759 17.2768 68.5656C17.2655 68.5554 17.2506 68.5502 17.2354 68.5509C17.2202 68.5516 17.2059 68.5583 17.1956 68.5696Z"
    fill="#FDD821" />
  <path
    d="M52.2059 113.747C52.6316 113.258 52.8866 112.643 52.9324 111.996C52.9718 111.442 52.8624 110.888 52.6155 110.392C52.2388 109.641 51.6809 108.997 50.9926 108.517C51.1452 108.378 51.285 108.225 51.4099 108.06C51.8352 107.536 52.0597 106.877 52.0427 106.202C52.0256 105.528 51.7683 104.881 51.3172 104.38C49.617 102.474 46.7421 102.419 44.1532 102.783C44.7946 101.087 45.0728 99.2661 43.3185 98.4525C41.9506 97.8172 40.6446 98.7855 39.5085 99.4596C37.9906 100.382 36.4218 101.217 34.8098 101.962C31.5563 103.419 28.0245 104.186 24.5469 103.078C21.2624 102.04 18.4957 99.7541 15.8913 97.5769C14.4307 96.3683 12.3286 98.4524 13.797 99.6766C18.1015 103.272 22.9085 106.921 28.8205 106.58C31.7316 106.319 34.5626 105.484 37.1515 104.124C38.4653 103.489 39.7404 102.76 41.0155 102.016L41.3092 101.846C41.0156 102.567 40.691 103.287 40.3896 104.008C40.2516 104.263 40.1903 104.553 40.2133 104.843C40.2364 105.132 40.3426 105.409 40.5192 105.64C40.6959 105.87 40.9352 106.044 41.2085 106.141C41.4817 106.238 41.7771 106.253 42.0588 106.185C43.5477 105.785 45.0849 105.594 46.6262 105.619C47.0126 105.619 48.7051 105.751 48.8983 106.2C49.1456 106.766 47.5845 106.634 47.2908 106.634C46.9459 106.643 46.6149 106.772 46.3552 107C46.0956 107.228 45.9237 107.54 45.8695 107.881C45.8153 108.223 45.8822 108.573 46.0586 108.87C46.2349 109.167 46.5096 109.393 46.8348 109.509C46.8967 109.509 46.9508 109.586 47.0203 109.617L47.3217 109.733C47.9522 110.016 48.5528 110.361 49.1146 110.764L49.2847 110.911C49.4259 111.027 49.5601 111.151 49.6865 111.283L49.8334 111.438L49.9261 111.608H49.702C48.7746 111.461 47.8473 111.283 46.9199 111.128C46.7504 111.109 46.5793 111.109 46.4098 111.128C44.8642 110.694 43.674 112.941 45.2428 113.793C45.5133 113.94 48.0404 115.932 47.9399 116.303C47.6422 116.117 47.3196 115.973 46.9817 115.878C46.4559 115.722 45.9398 115.536 45.436 115.32C43.4963 114.46 41.7265 113.251 39.8177 112.321C35.6754 110.291 31.3167 110.694 26.8885 110.082C22.7273 109.602 18.7056 108.284 15.0644 106.208C11.1515 103.792 8.15866 100.131 6.56342 95.8104C5.87561 94.0516 3.00846 94.8187 3.71173 96.5852C5.75969 101.745 8.93596 106.069 13.7583 108.904C18.3952 111.639 23.8049 112.84 29.1683 113.29C32.3523 113.561 35.3508 113.445 38.2798 114.878C40.7373 116.071 42.9862 117.659 45.5829 118.55C47.4376 119.194 50.5289 119.527 50.8689 116.869C50.9477 116.055 50.7547 115.237 50.3202 114.545C50.4283 114.552 50.5367 114.552 50.6448 114.545C51.2457 114.482 51.8019 114.197 52.2059 113.747Z"
    fill="#5C3210" />
</svg>