<svg width="45" height="70" viewBox="0 0 45 70" fill="none" xmlns="http://www.w3.org/2000/svg">
  <path
    d="M37.4391 16.9863C34.9401 14.6644 32.102 12.7388 29.0231 11.276C25.6382 9.6567 21.9595 8.78891 18.4278 7.57249C14.2465 6.12307 10.1539 4.42849 6.17093 2.4976C5.89847 2.36568 5.58593 2.34362 5.29765 2.43574C5.01569 2.29078 4.69801 2.23049 4.38271 2.2621C4.06742 2.29371 3.76792 2.41586 3.52018 2.61393C3.36536 2.74565 3.23792 2.90666 3.14519 3.08777C3.05246 3.26888 2.99623 3.46652 2.97972 3.66943C2.96321 3.87233 2.98678 4.07641 3.04901 4.27019C3.11125 4.46397 3.21096 4.64356 3.34245 4.79869C5.22039 7.52595 7.97933 9.44742 10.7228 11.1907C13.782 12.959 16.7108 14.9451 19.4865 17.1334C21.0402 18.2896 22.4242 19.6588 23.5979 21.2011C24.5145 22.6322 25.1956 24.2018 25.615 25.8498C25.8391 26.6246 26.0091 27.3994 26.2332 28.1742C26.4883 29.0884 26.7588 30.3049 27.547 30.9169C29.0927 32.1179 31.1716 30.3823 32.354 29.3674C32.8022 28.9955 33.4127 28.0579 34.0309 28.3446C34.6492 28.6313 34.9351 29.623 35.0974 30.2971C35.5456 32.2263 35.9166 34.0781 37.5781 35.3487C37.9144 35.5824 38.3295 35.6729 38.7322 35.6003C39.135 35.5277 39.4925 35.2979 39.7266 34.9613C41.8505 32.2408 42.9235 28.8429 42.7483 25.3926C42.5551 21.9758 39.8425 19.2022 37.4391 16.9863Z"
    fill="#FDCE85" />
  <path
    d="M43.2437 19.3806C41.0103 15.9793 37.0148 13.2444 33.653 11.0827C29.3709 8.3176 24.7004 6.21006 19.7965 4.83011C14.464 3.34252 8.91524 2.69948 3.82239 0.406104C3.5801 0.297677 3.31146 0.262756 3.04957 0.305472C2.87061 0.200363 2.67035 0.136946 2.46364 0.119909C2.25693 0.102872 2.04903 0.132525 1.85535 0.206921C1.66167 0.281317 1.48718 0.398523 1.34475 0.549674C1.20231 0.700825 1.09562 0.882175 1.03254 1.08026C-0.513095 5.51979 3.51324 8.26254 6.69724 10.3777C10.9864 13.2444 15.461 15.9561 19.6033 19.0398C21.373 20.3647 22.6945 21.8523 23.22 24.0681C23.6219 25.9044 23.5833 27.8026 23.9929 29.6388C24.6266 32.6063 27.3778 36.7204 30.4227 33.5128C31.1955 32.738 31.6515 31.5836 32.4938 30.9018C34.0395 29.6622 34.1477 31.9399 34.1709 32.9239C34.2327 34.9229 34.3563 36.9297 36.2652 38.0686C40.0133 40.2923 42.749 34.2565 43.5682 31.537C44.6811 27.8335 45.4771 22.782 43.2437 19.3806ZM40.392 31.6534C40.0436 32.5587 39.5896 33.4196 39.0395 34.2179C38.7691 34.6053 38.1585 35.6821 37.4939 35.2328C37.0148 34.9229 37.1539 33.5825 37.1384 33.1409C37.0612 30.5144 36.1569 26.8729 32.6716 27.5625C31.1259 27.8724 30.0672 29.112 29.1785 30.2975C28.6143 31.0723 28.1661 32.0096 27.486 30.7545C27.1136 29.9956 26.8757 29.1778 26.7827 28.3372C26.2881 25.2381 26.3577 22.1388 24.387 19.5123C21.829 16.111 17.4317 13.9494 13.954 11.6405L7.77146 7.52636C6.36494 6.58886 4.13925 5.33381 3.72965 3.55954C10.8782 6.52698 18.7995 6.99173 25.9094 10.2148C29.6373 11.9168 33.1351 14.0854 36.3192 16.6689C37.7487 17.7563 39.0688 18.9811 40.2607 20.3259C41.6904 22.0459 41.7057 23.9751 41.5435 26.1058C41.4324 28.0014 41.0444 29.8706 40.392 31.6534Z"
    fill="#5C3210" />
  <g clip-path="url(#clip0_1196_22465)">
    <path
      d="M28.2732 60.7812C28.6754 57.7317 29.0691 54.5841 28.3243 51.5521C27.9528 50.0501 27.2489 48.8198 26.4308 47.5422C25.4526 46.0122 25.7014 44.5312 26.0798 42.8277C26.3712 41.5168 25.0129 40.7684 24.1096 41.1627C23.5796 40.3828 22.3559 40.1007 21.802 41.1803C21.4734 41.8543 20.9987 42.4419 20.4146 42.8976C19.8304 43.3534 19.1524 43.6652 18.4326 43.8092C17.41 44.0037 16.3517 43.9021 15.324 44.1176C14.4903 44.3065 13.6912 44.6307 12.9567 45.078C11.474 45.9543 10.2384 47.2355 9.11181 48.5482C7.76542 50.115 6.45993 51.7204 5.1374 53.3082C4.50851 54.0636 4.80847 54.989 5.39134 55.4692C4.70962 57.2218 5.18682 59.2723 6.20598 60.8111C8.52894 64.3162 12.3687 66.8312 16.2613 68.0983C19.5864 69.1832 25.2395 70.2365 27.5847 66.7506C28.6601 65.1522 28.764 62.9913 28.1215 61.1931C28.2013 61.0692 28.2532 60.9284 28.2732 60.7812ZM25.4492 64.8595C24.822 66.1687 23.22 66.2108 21.9826 66.1933C20.4483 66.17 18.924 65.9342 17.4509 65.4922C14.4772 64.605 11.784 62.9261 9.64355 60.6253C8.72153 59.6316 7.46717 58.1716 7.90858 56.6662C8.3108 55.3044 10.1242 55.3675 11.2251 55.4008C13.1497 55.4639 15.054 55.8261 16.8732 56.4752C16.8732 56.4944 16.8629 56.5277 16.8561 56.5628L16.8647 56.547C16.8647 56.526 16.8783 56.5014 16.8834 56.4787C16.8806 56.4932 16.876 56.5073 16.8698 56.5207C16.8651 56.5285 16.8611 56.5367 16.8578 56.5452C16.8525 56.5588 16.8485 56.5729 16.8459 56.5873C16.8459 56.575 16.8459 56.5715 16.8459 56.561C16.8255 56.6066 16.8033 56.6539 16.7794 56.6995C16.7215 56.8187 16.6584 56.9343 16.592 57.05C16.5255 57.1657 16.4727 57.248 16.4096 57.3444C16.3892 57.376 16.367 57.4058 16.3448 57.4373C16.2718 57.5119 16.2051 57.5928 16.1454 57.6792C16.0466 57.7896 15.9443 57.8965 15.837 57.9999C15.3968 58.388 14.997 58.822 14.6439 59.295C14.2743 59.8315 14.0912 60.4804 14.1241 61.137C14.1957 62.0308 14.6354 62.6933 15.3376 63.2068C15.7921 63.5438 16.3117 63.7764 16.8612 63.8886C17.6588 64.0306 18.4735 63.8886 19.0768 63.291C19.4934 62.8466 19.7568 62.2741 19.8267 61.661C19.9789 60.4056 20.0223 59.1388 19.9562 57.8755C20.5578 58.2085 21.1492 58.5625 21.7202 58.9568C21.8932 59.0912 22.0992 59.1732 22.3151 59.1937C22.531 59.2141 22.7482 59.1721 22.9422 59.0725C24.7283 60.45 26.5587 62.5391 25.4492 64.8595Z"
      fill="#F6A320" />
  </g>
  <defs>
    <clipPath id="clip0_1196_22465">
      <rect width="23.9573" height="28.6671" fill="white" transform="translate(4.78906 40.4707)" />
    </clipPath>
  </defs>
</svg>