<svg width="55" height="57" viewBox="0 0 55 57" fill="none" xmlns="http://www.w3.org/2000/svg">
  <path
    d="M50.6832 39.6342C49.0305 38.4495 47.1109 37.6934 45.0958 37.4338C45.2587 37.2644 45.3727 37.0539 45.4258 36.8247C45.4789 36.5955 45.469 36.3562 45.3972 36.1322C43.8516 31.9018 40.258 29.1591 36.7108 26.672C36.4775 26.5264 36.2068 26.4525 35.9321 26.4594C35.6574 26.4663 35.3908 26.5535 35.1651 26.7106C34.9432 26.5873 34.6923 26.5258 34.4386 26.5324C34.1921 26.529 33.9484 26.585 33.7277 26.6953C33.498 26.6017 33.2498 26.5625 33.0025 26.5811C32.7553 26.5996 32.5156 26.6752 32.3023 26.802C32.089 26.9288 31.9079 27.1033 31.773 27.312C31.6382 27.5206 31.5533 27.7577 31.5251 28.0046C31.2312 29.8211 30.712 31.5937 29.9795 33.281C29.3793 34.9838 28.9698 36.7481 28.7585 38.5416C28.3334 42.2296 28.7585 45.9487 29.1681 49.6211C29.175 49.976 29.3082 50.3168 29.5437 50.5819C29.7791 50.8469 30.1014 51.0188 30.4522 51.0665C30.803 51.1142 31.1592 51.0345 31.4566 50.842C31.754 50.6494 31.973 50.3565 32.0739 50.0163C32.8003 48.0483 33.2795 45.941 34.3073 44.1048C35.4047 42.1445 37.1203 41.1992 39.2533 40.6723C43.4497 39.6418 48.6585 40.2927 51.0311 44.3681C51.5074 45.1606 51.7875 46.056 51.848 46.9794C51.9085 47.9027 51.7476 48.8272 51.3788 49.6754C50.5055 51.6124 48.7976 52.3872 46.7419 52.6119C44.6862 52.8366 42.5532 53.0147 40.4744 53.0767C38.3955 53.1387 36.2084 52.9993 34.5546 51.6279C33.094 50.4192 30.9919 52.5034 32.4603 53.7276C35.9457 56.6098 40.343 56.0907 44.5471 55.7421C46.7728 55.5639 49.184 55.5561 51.1315 54.3164C52.6807 53.2943 53.83 51.767 54.385 49.993C55.7529 46.0649 53.8672 42.0128 50.6832 39.6342Z"
    fill="#F6A320" />
  <path
    d="M42.4832 44.8326C42.2543 43.583 41.6661 42.4276 40.7908 41.5088C40.512 41.2352 40.1374 41.082 39.7474 41.082C39.3573 41.082 38.9828 41.2352 38.7041 41.5088C38.6394 41.5911 38.5825 41.6793 38.5341 41.7723C38.4618 41.8489 38.4042 41.9381 38.3641 42.0356C37.8937 43.1157 37.5037 44.2293 37.1971 45.3672C36.9471 46.0499 36.9068 46.792 37.0812 47.4979C37.1783 47.8016 37.335 48.0827 37.542 48.3249C37.7491 48.567 38.0022 48.7653 38.2867 48.908C38.8303 49.1771 39.4441 49.2695 40.0426 49.1723C40.641 49.0751 41.1943 48.7931 41.6254 48.3657C42.0335 47.8848 42.3237 47.3148 42.4726 46.7013C42.6216 46.0878 42.6252 45.4478 42.4832 44.8326Z"
    fill="#F6A320" />
  <path
    d="M50.8931 13.8807C50.6017 11.9841 49.9929 10.1505 49.0925 8.45714C48.2733 6.79909 47.4464 4.90861 45.9162 3.80841C44.5174 2.77795 42.7785 2.52988 41.1015 2.32069C39.0087 2.06511 36.9035 1.9256 34.7954 1.90247C25.8385 1.78625 16.982 3.39774 8.04822 3.76964H7.97865C7.16905 3.56502 6.31514 3.62878 5.54473 3.95142C4.77432 4.27406 4.12886 4.83827 3.705 5.55944C3.58504 5.76424 3.51365 5.99389 3.49633 6.23076C3.479 6.46763 3.51622 6.70538 3.6051 6.92553C3.69398 7.14569 3.83213 7.34228 4.00891 7.50038C4.18569 7.65848 4.39638 7.77379 4.62465 7.83727C8.39599 9.04594 12.5846 9.17772 16.4951 9.65034C19.8723 10.0532 23.775 10.1073 26.7967 11.8429C29.6329 13.4622 30.7458 16.7629 32.8015 19.1415C33.8525 20.3579 35.5914 21.8997 37.1911 20.629C38.559 19.5366 39.0304 17.6616 39.9114 16.2205C40.4988 15.2675 41.372 14.4617 42.4694 15.0196C43.5668 15.5774 44.3706 16.5691 45.3289 17.2896C45.8272 17.7126 46.4038 18.033 47.0257 18.2324C47.6477 18.4318 48.3027 18.5063 48.9533 18.4518C51.1481 18.1419 51.0863 15.6239 50.8931 13.8807Z"
    fill="#FDCE85" />
  <path
    d="M53.4118 15.9021C52.9249 13.1594 52.353 10.3935 51.7039 7.68171C50.7379 3.67606 48.6126 0.832538 44.308 0.654337C38.8133 0.421901 33.2491 0.654322 27.7543 0.832523C22.2596 1.01072 16.8189 1.15793 11.3706 1.60731C8.98206 1.76553 6.60677 2.08389 4.26068 2.56028C2.64549 2.90894 0.721212 3.61409 0.620746 5.5588C0.528008 7.31757 2.26684 8.56489 3.61154 9.34743C5.50757 10.3798 7.59205 11.0175 9.73996 11.2224C14.431 11.8034 19.4852 10.7731 23.983 12.5086C26.6878 13.5546 28.6198 15.7549 30.2736 18.0173C31.6338 19.838 32.8703 22.1469 35.0187 23.1309C35.8311 23.521 36.7469 23.6396 37.6315 23.4695C38.5161 23.2994 39.3231 22.8495 39.9338 22.1857C41.2631 20.5819 39.6943 16.925 41.9045 16.4368C44.3621 19.1254 47.9248 21.9456 51.6652 20.1093C53.4195 19.2338 53.7364 17.7074 53.4118 15.9021ZM50.3205 17.4517C49.8336 17.8546 48.7749 17.6454 48.2725 17.5137C46.3714 17.0488 44.9803 15.476 43.7361 14.0117C43.6913 13.9514 43.6423 13.8944 43.5893 13.8412L43.3342 13.539C43.2148 13.3888 43.0631 13.2676 42.8906 13.1843C42.718 13.101 42.5289 13.0577 42.3374 13.0577C42.1458 13.0577 41.9567 13.101 41.7841 13.1843C41.6115 13.2676 41.4598 13.3888 41.3404 13.539C40.3846 13.7342 39.5126 14.2214 38.8442 14.9336C37.6927 16.1733 37.7004 17.4362 37.7158 19.009C37.7158 20.055 37.6309 20.8996 36.3403 20.4347C35.4854 19.9838 34.7733 19.3021 34.2846 18.4667C33.2567 17.0798 32.2753 15.6464 31.1933 14.3215C28.9892 11.5732 25.8934 9.68694 22.445 8.99106C18.8514 8.3015 15.1883 8.65791 11.5561 8.42548C9.86877 8.34894 8.20208 8.02258 6.61007 7.45699C5.6817 7.17291 4.82512 6.69195 4.09842 6.04683C3.74292 5.62069 3.7661 5.97711 4.04431 5.67494C4.32253 5.37278 5.43539 5.35728 5.79088 5.28755C9.84873 4.6354 13.9467 4.26525 18.0555 4.17966C26.711 3.76902 35.4128 3.45138 44.0838 3.62183C46.4023 3.66832 47.6542 4.59792 48.4348 6.76733C49.0324 8.71586 49.4921 10.7044 49.8104 12.7178C50.0577 13.9187 50.3823 15.1274 50.5832 16.336C50.5678 16.9016 50.6992 17.103 50.2818 17.4517H50.3205Z"
    fill="#5C3210" />
</svg>