<svg width="64" height="66" viewBox="0 0 64 66" fill="none" xmlns="http://www.w3.org/2000/svg">
<path d="M41.7656 6.83203C41.7656 6.11408 41.4804 5.42553 40.9727 4.91787C40.4651 4.4102 39.7765 4.125 39.0586 4.125C38.3406 4.125 37.6521 4.4102 37.1444 4.91787C36.6367 5.42553 36.3515 6.11408 36.3515 6.83203V10.3125H41.7656V6.83203ZM44.2148 20.625H58.6523C58.9258 20.625 59.1881 20.5163 59.3815 20.323C59.5749 20.1296 59.6836 19.8673 59.6836 19.5937V13.4062C59.6836 13.1327 59.5749 12.8704 59.3815 12.677C59.1881 12.4836 58.9258 12.375 58.6523 12.375H44.2148V20.625ZM19.4648 20.625H33.9023V12.375H19.4648C19.1913 12.375 18.929 12.4836 18.7356 12.677C18.5422 12.8704 18.4336 13.1327 18.4336 13.4062V19.5937C18.4336 19.8673 18.5422 20.1296 18.7356 20.323C18.929 20.5163 19.1913 20.625 19.4648 20.625ZM39.0586 20.625C39.332 20.6251 39.5943 20.7337 39.7877 20.9272L42.1523 23.2918V12.375H35.9648V23.2918L38.3295 20.9272C38.5228 20.7337 38.7851 20.6251 39.0586 20.625ZM43.8281 10.3125H48.8719C50.1018 10.3125 51.2814 9.82428 52.1515 8.95511C53.0217 8.08594 53.5112 6.9069 53.5126 5.67703C53.5103 4.76102 53.2371 3.86617 52.7272 3.10519C52.2173 2.34421 51.4936 1.75114 50.6473 1.40071C49.801 1.05027 48.8699 0.958136 47.9713 1.13591C47.0727 1.31369 46.2468 1.75342 45.5977 2.39971L43.2991 4.69425C43.6418 5.35506 43.8231 6.08765 43.8281 6.83203V10.3125ZM29.2452 10.3125H34.289V6.83203C34.2941 6.08765 34.4754 5.35506 34.8181 4.69425L32.5235 2.39868C31.8747 1.75263 31.0492 1.31298 30.151 1.13507C29.2527 0.957161 28.322 1.04895 27.4758 1.39887C26.6297 1.7488 25.906 2.34123 25.3958 3.10158C24.8856 3.86193 24.6117 4.75622 24.6087 5.67187C24.6087 6.90193 25.097 8.08166 25.9664 8.95183C26.8358 9.822 28.0151 10.3114 29.2452 10.3125ZM9.29669 44.8656C8.9548 44.2734 8.3917 43.8414 7.73125 43.6644C7.0708 43.4875 6.36711 43.5801 5.77497 43.922L2.44919 45.8422C2.21234 45.9789 2.03951 46.2041 1.96873 46.4683C1.89795 46.7325 1.93501 47.014 2.07175 47.2508L12.0037 64.4531C12.1405 64.69 12.3657 64.8628 12.6299 64.9336C12.8941 65.0044 13.1756 64.9673 13.4124 64.8306L16.7382 62.9062C17.3303 62.5644 17.7624 62.0013 17.9393 61.3408C18.1163 60.6804 18.0236 59.9767 17.6818 59.3845L9.29669 44.8656ZM61.5192 41.8203C60.9563 41.0185 60.1099 40.4603 59.1511 40.2587C58.1924 40.0571 57.1929 40.2271 56.3547 40.7344L45.5957 46.9446C45.0281 48.1899 44.0381 49.194 42.801 49.7792C41.5639 50.3643 40.1595 50.4927 38.8368 50.1414L29.2534 47.5736C29.1226 47.5385 29 47.478 28.8925 47.3956C28.7851 47.3131 28.695 47.2103 28.6273 47.093C28.5596 46.9757 28.5156 46.8462 28.498 46.7119C28.4803 46.5776 28.4893 46.4412 28.5243 46.3103C28.5594 46.1795 28.6199 46.0569 28.7024 45.9494C28.7849 45.842 28.8877 45.7519 29.005 45.6842C29.2419 45.5474 29.5234 45.5104 29.7876 45.5812L39.2751 48.1233C40.1126 48.3604 41.0062 48.3024 41.806 47.959C42.6059 47.6156 43.2634 47.0076 43.6683 46.2371C43.9204 45.7403 44.0583 45.1935 44.0721 44.6366C44.0858 44.0797 43.975 43.5268 43.7476 43.0182C43.5203 42.5096 43.1823 42.0582 42.7582 41.697C42.3341 41.3357 41.8347 41.0738 41.2964 40.9303L27.3209 37.2085C25.1516 36.6298 22.8414 36.9354 20.8972 38.0583L11.0354 43.7518L19.5143 58.4399L21.8635 57.0838C23.0066 56.4238 24.3587 56.2257 25.643 56.53L35.7895 58.9308C37.5849 59.3561 39.4749 59.079 41.0726 58.1563L60.2611 47.0776C60.6992 46.8247 61.0813 46.4852 61.3839 46.0798C61.6865 45.6744 61.9032 45.2116 62.021 44.7196C62.1387 44.2276 62.1549 43.7167 62.0687 43.2182C61.9824 42.7198 61.7954 42.2441 61.5192 41.8203Z" fill="#7E5F2F"/>
<path d="M33.9023 25.7812V22.6875H21.5273V35.5183C23.5524 34.7604 25.7637 34.6544 27.852 35.2151L41.8306 38.941C43.0177 39.2572 44.0737 39.9423 44.8461 40.8977C45.6185 41.853 46.0673 43.0291 46.1278 44.2561L56.5898 38.2161V22.6875H44.2148V25.7812C44.2149 25.9852 44.1545 26.1846 44.0412 26.3542C43.928 26.5238 43.767 26.656 43.5786 26.7341C43.4534 26.7863 43.3192 26.8129 43.1836 26.8125C42.9101 26.8124 42.6479 26.7038 42.4545 26.5103L39.0586 23.1144L35.6627 26.5103C35.5185 26.6545 35.3347 26.7527 35.1347 26.7925C34.9347 26.8322 34.7274 26.8118 34.539 26.7338C34.3506 26.6558 34.1895 26.5236 34.0762 26.3541C33.9629 26.1845 33.9024 25.9852 33.9023 25.7812Z" fill="#7E5F2F"/>
</svg>
