<svg width="66" height="66" viewBox="0 0 66 66" fill="none" xmlns="http://www.w3.org/2000/svg">
<path fill-rule="evenodd" clip-rule="evenodd" d="M37.1455 1.98414L41.3135 5.10406C42.4535 5.95732 43.6533 6.394 45.0751 6.47316L50.2732 6.76232C53.3859 6.9354 55.914 9.0566 56.6249 12.092L57.8125 17.1611C58.1372 18.5475 58.7756 19.6533 59.8139 20.6277L63.6101 24.1907C65.8832 26.324 66.4562 29.574 65.0499 32.3562L62.7012 37.0026C62.0589 38.2734 61.8372 39.5308 62.0062 40.9446L62.6241 46.1142C62.9941 49.2097 61.344 52.0675 58.4784 53.2948L53.6924 55.3445C52.3835 55.9051 51.4054 56.7258 50.6261 57.9174L47.7765 62.2746C46.0702 64.8836 42.9692 66.0123 39.9851 65.1105L35.0015 63.6044C33.6385 63.1924 32.3617 63.1924 30.9986 63.6044L26.015 65.1105C23.0309 66.0123 19.9299 64.8836 18.2236 62.2746L15.374 57.9174C14.5946 56.7258 13.6165 55.9051 12.3077 55.3445L7.52142 53.2945C4.65579 52.0672 3.00573 49.2094 3.3757 46.1139L3.99366 40.9443C4.16265 39.5305 3.94089 38.2731 3.29859 37.0023L0.949895 32.3559C-0.456394 29.5738 0.116595 26.3239 2.38968 24.1904L6.18595 20.6274C7.22419 19.653 7.86253 18.5472 8.18724 17.1609L9.37478 12.0918C10.0857 9.05646 12.6138 6.93527 15.7265 6.76205L20.9246 6.47289C22.3464 6.39386 23.5462 5.95705 24.6862 5.10378L28.8542 1.98386C31.3497 0.116011 34.6498 0.116011 37.1455 1.98414ZM30.341 34.7856L25.8178 30.2624C24.6454 29.09 22.7438 29.09 21.5716 30.2624C20.3992 31.4347 20.3992 33.3362 21.5716 34.5086L28.2245 41.1613C29.3968 42.3335 31.2985 42.3337 32.4707 41.1613C36.4806 37.1512 40.4452 33.0961 44.4367 29.0677C45.6006 27.893 45.5969 25.9976 44.4237 24.8309C43.2504 23.664 41.3495 23.6673 40.1843 24.8441L30.341 34.7856ZM32.9998 10.6402C26.8254 10.6402 21.2354 13.143 17.1891 17.1893C13.1427 21.2358 10.64 26.8257 10.64 33C10.64 39.1744 13.1427 44.7644 17.1891 48.8107C21.2354 52.857 26.8254 55.3598 32.9998 55.3598C39.1741 55.3598 44.7642 52.857 48.8105 48.8107C52.8568 44.7644 55.3596 39.1744 55.3596 33C55.3596 26.8257 52.8568 21.2356 48.8105 17.1893C44.7642 13.143 39.1741 10.6402 32.9998 10.6402ZM47.2638 18.736C43.6134 15.0856 38.5702 12.8277 32.9998 12.8277C27.4293 12.8277 22.3862 15.0856 18.7358 18.736C15.0854 22.3864 12.8275 27.4295 12.8275 33C12.8275 38.5705 15.0854 43.6136 18.7358 47.264C22.3862 50.9144 27.4293 53.1723 32.9998 53.1723C38.5702 53.1723 43.6134 50.9144 47.2638 47.2642C50.9142 43.6138 53.1719 38.5706 53.1719 33.0002C53.1721 27.4295 50.9142 22.3864 47.2638 18.736Z" fill="#7E5F2F"/>
</svg>
