<svg width="67" height="66" viewBox="0 0 67 66" fill="none" xmlns="http://www.w3.org/2000/svg">
<path d="M56.8346 9.66552C50.6017 3.43264 42.3146 0 33.5 0C24.6854 0 16.3983 3.43264 10.1654 9.66552C3.93252 15.8984 0.5 24.1854 0.5 33C0.5 41.8146 3.93252 50.1017 10.1654 56.3345C16.3983 62.5672 24.6854 66 33.5 66C42.3146 66 50.6017 62.5674 56.8346 56.3345C63.0675 50.1016 66.5 41.8146 66.5 33C66.5 24.1854 63.0675 15.8983 56.8346 9.66552ZM33.5 59.5227C18.8752 59.5227 6.97728 47.6247 6.97728 33C6.97728 32.976 6.97806 32.9523 6.97818 32.9286C6.97818 32.9225 6.97728 32.9167 6.97728 32.9107C6.97728 32.9005 6.97857 32.8907 6.97883 32.8806C7.04315 18.4311 18.7204 6.67528 33.1396 6.48192C33.1697 6.4805 33.1996 6.47741 33.2302 6.47741C33.2485 6.47741 33.2663 6.4796 33.2845 6.48012C33.3564 6.4796 33.4281 6.47741 33.5001 6.47741C48.1249 6.47741 60.0228 18.3755 60.0228 33.0001C60.0228 47.6248 48.1248 59.5227 33.5 59.5227Z" fill="#7E5F2F"/>
<path d="M53.6456 34.5932C52.5672 34.5932 51.693 33.719 51.693 32.6405C51.693 31.5621 52.5672 30.6879 53.6456 30.6879H55.9993C54.8938 19.8499 46.1042 11.2523 35.182 10.4451V12.494C35.182 13.5725 34.3078 14.4467 33.2293 14.4467C32.1509 14.4467 31.2767 13.5725 31.2767 12.494V10.4917C20.5161 11.5462 11.9447 20.1728 10.975 30.9577H13.0828C14.1613 30.9577 15.0355 31.8319 15.0355 32.9103C15.0355 33.9888 14.1613 34.863 13.0828 34.863H10.959C11.8568 45.8215 20.6 54.5915 31.5466 55.5321V53.0567C31.5466 51.9783 32.4208 51.104 33.4993 51.104C34.5777 51.104 35.4519 51.9783 35.4519 53.0567V55.5321C46.4881 54.5837 55.2846 45.6771 56.0598 34.5932H53.6456ZM41.4038 27.8568L34.8801 34.3806C34.6988 34.562 34.4836 34.7058 34.2467 34.804C34.0098 34.9021 33.7558 34.9526 33.4994 34.9526C33.243 34.9526 32.9891 34.9021 32.7521 34.804C32.5152 34.7058 32.3 34.562 32.1187 34.3806L20.7629 23.0249C20.0003 22.2624 20.0003 21.0261 20.7629 20.2635C21.5254 19.5009 22.7618 19.5009 23.5244 20.2635L33.4995 30.2385L38.6426 25.0954C39.4051 24.3328 40.6415 24.3328 41.4041 25.0954C42.1664 25.8579 42.1664 27.0943 41.4038 27.8568Z" fill="#7E5F2F"/>
</svg>
