<svg width="40" height="40" viewBox="0 0 40 40" fill="none" xmlns="http://www.w3.org/2000/svg">
<path d="M22.4229 18.3L20 20.6556L17.5657 18.3L15.9543 19.8667L18.3886 22.2222L15.9657 24.5778L17.5771 26.1444L20 23.7889L22.4229 26.1444L24.0343 24.5778L21.6114 22.2222L24.0343 19.8667L22.4229 18.3ZM24 11.1111L22.8571 10H17.1429L16 11.1111H12V13.3333H28V11.1111H24ZM13.1429 27.7778C13.1429 29 14.1714 30 15.4286 30H24.5714C25.8286 30 26.8571 29 26.8571 27.7778V14.4444H13.1429V27.7778ZM15.4286 16.6667H24.5714V27.7778H15.4286V16.6667Z" fill="white"/>
</svg>
