<svg width="74" height="58" viewBox="0 0 74 58" fill="none" xmlns="http://www.w3.org/2000/svg">
<path d="M8.03479 1.89929C11.2348 -3.30071 14.7015 3.39929 16.0348 7.39929C20.0349 -1.09986 39.0347 1.89929 59.0347 15.8984C79.0347 29.8976 74.0347 42.3984 67.5347 52.3984C62.3347 60.3984 53.0347 57.7318 49.0347 55.3984C8.63467 37.3984 5.86796 23.2318 9.53461 18.3984C-3.26539 17.5984 -0.465271 11.3984 2.53479 8.39844C-1.86521 -0.00156212 4.36812 0.565672 8.03479 1.89929Z" fill="#FFE0B0"/>
<path d="M59.5553 22.9501C59.7411 23.0272 59.9366 23.0788 60.1363 23.1035C62.2008 24.8551 64.0436 26.8523 65.6237 29.0508C67.5524 31.9801 67.3426 34.5947 67.0924 37.2093C66.9867 39.8676 66.149 42.445 64.6715 44.6575C62.938 46.8033 60.921 48.7036 58.6757 50.3063C58.553 50.4018 58.4606 50.5308 58.4094 50.6776C54.7377 51.4846 50.0815 49.6768 47.0311 46.0778C45.7095 44.6114 44.7301 42.87 44.1635 40.979C43.5969 39.0881 43.4573 37.0948 43.7548 35.1434C44.4488 31.5201 46.6034 28.6876 48.9275 26.0488C51.2516 23.41 54.5359 20.8116 59.5553 22.9501Z" fill="#DC2E15"/>
<path d="M22.8773 9.2078C27.1623 6.36727 34.3766 8.19916 40.5661 10.6927C46.1453 13.0409 51.4672 15.9587 56.4472 19.3998C54.7193 19.1769 52.9631 19.3631 51.3203 19.9434C49.6775 20.5237 48.194 21.4818 46.9895 22.7407C43.6729 25.9686 40.6548 30.0519 40.2513 35.0954C40.0699 39.3 41.4528 43.4227 44.1329 46.6675C38.4418 43.6786 33.0012 40.235 27.8644 36.3704C22.4415 32.2791 15.3079 27.1225 14.7511 21.2236C14.2024 15.4457 18.7698 11.9596 22.8773 9.2078Z" fill="#924B15"/>
<path d="M11.4183 18.531C11.2753 21.3187 12.0151 24.0804 13.5326 26.4232C15.4774 29.53 18.7456 32.2011 21.7153 34.6785C29.5163 41.1698 38.0861 46.6771 47.2316 51.0762C48.0386 51.4554 48.5793 51.3424 48.8456 50.9954C52.5738 53.4163 56.8668 54.3848 60.3368 53.5213C60.4891 53.4981 60.6316 53.4317 60.7474 53.3302C60.8632 53.2287 60.9476 53.0961 60.9905 52.9482C60.9905 52.9482 61.0631 52.9484 61.0873 52.908C63.5082 51.0036 65.9291 49.0749 67.7206 46.6136C69.5121 44.1524 70.1415 41.102 70.4078 37.8095C70.6499 34.969 70.6095 32.1607 68.7939 29.0216C67.0389 26.3281 64.9055 23.9011 62.4591 21.8153C62.7012 21.307 62.5318 20.5646 61.6522 19.9513C55.2933 15.4323 48.5389 11.1796 41.4779 8.29063C35.1836 5.7164 27.0251 3.35193 22.1107 5.61951C19.3422 6.9843 16.8583 8.8629 14.7915 11.1553C12.8213 13.1315 11.6246 15.7482 11.4183 18.531ZM59.5541 22.9532C59.7399 23.0303 59.9354 23.082 60.1351 23.1066C62.1995 24.8582 64.0423 26.8555 65.6225 29.0539C67.5511 31.9832 67.3413 34.5978 67.0912 37.2124C66.9855 39.8707 66.1477 42.4481 64.6702 44.6606C62.9368 46.8065 60.9197 48.7068 58.6745 50.3094C58.5518 50.4049 58.4593 50.534 58.4082 50.6808C54.7364 51.4877 50.0802 49.68 47.0299 46.0809C45.7083 44.6146 44.7288 42.8731 44.1622 40.9822C43.5956 39.0912 43.4561 37.098 43.7536 35.1465C44.4476 31.5232 46.6022 28.6907 48.9263 26.0519C51.2503 23.4131 54.5347 20.8147 59.5541 22.9532ZM22.8773 9.23472C27.1623 6.39419 34.3766 8.22598 40.5661 10.7195C46.1453 13.0677 51.4672 15.9856 56.4472 19.4268C54.7193 19.2038 52.9631 19.3899 51.3203 19.9702C49.6775 20.5505 48.194 21.5088 46.9895 22.7676C43.6729 25.9955 40.6548 30.0788 40.2513 35.1224C40.0699 39.3269 41.4528 43.4495 44.1329 46.6942C38.4418 43.7053 33.0012 40.2619 27.8644 36.3973C22.4415 32.306 15.3079 27.1495 14.7511 21.2505C14.2024 15.4484 18.7698 11.9623 22.8773 9.21049V9.23472Z" fill="#452C15"/>
<path d="M9.89345 13.2663C9.70838 13.5439 9.63356 13.8806 9.68364 14.2105C9.76419 14.5364 9.95887 14.8227 10.2324 15.0175C10.5052 15.2179 10.8459 15.3031 11.1809 15.2548C11.516 15.2065 11.8187 15.0285 12.0239 14.7592C12.7824 13.4196 13.5329 12.072 14.2834 10.7243C14.4694 10.4472 14.5416 10.1092 14.4851 9.78024C14.41 9.45401 14.2176 9.16678 13.9444 8.97327C13.6716 8.77285 13.331 8.68757 12.9959 8.73586C12.6608 8.78416 12.3581 8.96214 12.153 9.23145C11.3541 10.5791 10.6036 11.9267 9.89345 13.2663Z" fill="#3F4954"/>
<path d="M4.05901 4.05162C4.05738 5.56407 4.40828 7.05601 5.08386 8.40918C4.53011 8.79384 4.0601 9.28677 3.70225 9.85822C3.3444 10.4297 3.10614 11.0678 3.00188 11.7339C2.98336 12.1685 3.10197 12.598 3.34091 12.9615C3.57986 13.325 3.92706 13.6041 4.33338 13.7594C5.11102 14.1457 5.9632 14.3588 6.83115 14.3838C7.6991 14.4089 8.56215 14.2455 9.3608 13.9047C9.78042 13.6868 9.84499 13.0977 9.64325 12.6055C9.9727 12.4046 10.2494 12.128 10.4502 11.7985C10.6061 11.5124 10.7099 11.2009 10.7569 10.8786C10.7842 10.6618 10.8329 10.4482 10.9021 10.241C11.0636 9.98246 11.2065 9.7128 11.3298 9.43405C11.4035 9.24128 11.4338 9.03464 11.4186 8.82882C11.5577 8.84948 11.6991 8.84948 11.8382 8.82882C12.0081 8.79353 12.1647 8.71134 12.2902 8.59152C12.4158 8.4717 12.5052 8.31908 12.5483 8.15099C12.5831 7.96066 12.5789 7.76526 12.5359 7.5766C12.4929 7.38794 12.412 7.20998 12.2982 7.05353C12.2009 6.91926 12.1119 6.7791 12.0319 6.63389C11.9764 6.50752 11.9279 6.37823 11.8866 6.24656C11.8786 6.13642 11.8786 6.02581 11.8866 5.91567C11.9044 5.76155 11.9396 5.61 11.9915 5.46382C11.9915 5.54452 11.9189 5.62516 11.8785 5.71393C11.9864 5.57943 12.041 5.40999 12.0319 5.23785C12.0551 5.051 12.0272 4.86131 11.9512 4.68906C11.7905 4.26583 11.5101 3.89857 11.1442 3.63198C10.773 3.35793 10.3299 3.19803 9.8692 3.17196H9.48992C9.26077 3.22339 9.05757 3.35512 8.91697 3.54323C8.75998 3.82882 8.65608 4.14042 8.61032 4.46309C8.59012 4.71553 8.59012 4.96924 8.61032 5.22169L6.54448 3.4464C6.31939 3.26813 6.05962 3.13871 5.78173 3.06646C5.50384 2.9942 5.21395 2.9807 4.93054 3.02676C4.67916 3.04733 4.44621 3.16678 4.28282 3.35892C4.11942 3.55106 4.03894 3.8002 4.05901 4.05162Z" fill="#452C15"/>
<path d="M55.633 39.0649C57.9409 38.5484 57.4003 36.1033 55.0843 36.644C52.7682 37.1846 53.3251 39.5813 55.633 39.0649Z" fill="#FCE7B5"/>
<path d="M51.7106 30.9452C55.1805 30.1382 54.3655 26.4907 50.9036 27.2734C47.4417 28.0562 48.2325 31.728 51.7106 30.9452Z" fill="#FCE7B5"/>
<path d="M49.6355 44.4093C51.9192 46.0232 53.6703 43.6023 51.3624 41.9884C49.0545 40.3745 47.3437 42.7712 49.6355 44.4093Z" fill="#FCE7B5"/>
<path d="M54.9628 48.5555C57.6823 50.5003 59.74 47.6274 57.0206 45.6826C54.3011 43.7378 52.2352 46.6107 54.9628 48.5555Z" fill="#FCE7B5"/>
<path d="M49.5556 37.3957C54.1473 37.783 54.5669 32.9089 49.9591 32.5538C45.3513 32.1988 44.9478 37.0164 49.5556 37.3957Z" fill="#FCE7B5"/>
<path d="M55.5187 27.2545C57.4473 28.6344 58.9079 26.5928 56.9793 25.2129C55.0506 23.833 53.59 25.8746 55.5187 27.2545Z" fill="#FCE7B5"/>
<path d="M59.6908 34.4104C63.0397 36.8313 65.5816 33.2645 62.2247 30.8678C58.8677 28.4711 56.3418 32.046 59.6908 34.4104Z" fill="#FCE7B5"/>
<path d="M60.3764 39.169C60.1182 39.976 59.86 40.7023 59.6098 41.469C59.5437 41.8561 59.6337 42.2536 59.86 42.5745C60.1287 42.975 60.5029 43.2933 60.9413 43.4944C61.3185 43.6899 61.7507 43.7524 62.1679 43.6719C62.3349 43.6302 62.4881 43.5458 62.6126 43.427C62.7371 43.3082 62.8286 43.159 62.878 42.9942C63.1363 42.1872 63.3945 41.4608 63.685 40.6942C63.7511 40.3071 63.6611 39.9096 63.4348 39.5887C63.1642 39.1879 62.7907 38.8674 62.3535 38.6606C61.9742 38.4714 61.5433 38.4119 61.1269 38.4912C60.9526 38.5266 60.7909 38.6082 60.6589 38.7274C60.5268 38.8467 60.4293 38.9992 60.3764 39.169Z" fill="#FCE7B5"/>
</svg>
